<svg width="30" height="30" viewBox="0 0 30 30" fill="none" xmlns="http://www.w3.org/2000/svg">
<path d="M27.75 2.5H24V1.75C24 1.336 23.664 1 23.25 1C22.836 1 22.5 1.336 22.5 1.75V2.5H7.5V1.75C7.5 1.336 7.164 1 6.75 1C6.336 1 6 1.336 6 1.75V2.5H2.25C1.0095 2.5 0 3.5095 0 4.75V25.75C0 26.9905 1.0095 28 2.25 28H27.75C28.9905 28 30 26.9905 30 25.75V4.75C30 3.5095 28.9905 2.5 27.75 2.5ZM2.25 4H6V6.25C6 6.664 6.336 7 6.75 7C7.164 7 7.5 6.664 7.5 6.25V4H22.5V6.25C22.5 6.664 22.836 7 23.25 7C23.664 7 24 6.664 24 6.25V4H27.75C28.164 4 28.5 4.336 28.5 4.75V8.5H1.5V4.75C1.5 4.336 1.836 4 2.25 4ZM27.75 26.5H2.25C1.836 26.5 1.5 26.164 1.5 25.75V10H28.5V25.75C28.5 26.164 28.164 26.5 27.75 26.5Z" fill="#343434"/>
<path d="M11.25 14.5H9.75C9.336 14.5 9 14.164 9 13.75C9 13.336 9.336 13 9.75 13H11.25C11.664 13 12 13.336 12 13.75C12 14.164 11.664 14.5 11.25 14.5Z" fill="#343434"/>
<path d="M15.75 14.5H14.25C13.836 14.5 13.5 14.164 13.5 13.75C13.5 13.336 13.836 13 14.25 13H15.75C16.164 13 16.5 13.336 16.5 13.75C16.5 14.164 16.164 14.5 15.75 14.5Z" fill="#343434"/>
<path d="M20.25 14.5H18.75C18.336 14.5 18 14.164 18 13.75C18 13.336 18.336 13 18.75 13H20.25C20.664 13 21 13.336 21 13.75C21 14.164 20.664 14.5 20.25 14.5Z" fill="#343434"/>
<path d="M24.75 14.5H23.25C22.836 14.5 22.5 14.164 22.5 13.75C22.5 13.336 22.836 13 23.25 13H24.75C25.164 13 25.5 13.336 25.5 13.75C25.5 14.164 25.164 14.5 24.75 14.5Z" fill="#343434"/>
<path d="M6.75 17.5H5.25C4.836 17.5 4.5 17.164 4.5 16.75C4.5 16.336 4.836 16 5.25 16H6.75C7.164 16 7.5 16.336 7.5 16.75C7.5 17.164 7.164 17.5 6.75 17.5Z" fill="#343434"/>
<path d="M11.25 17.5H9.75C9.336 17.5 9 17.164 9 16.75C9 16.336 9.336 16 9.75 16H11.25C11.664 16 12 16.336 12 16.75C12 17.164 11.664 17.5 11.25 17.5Z" fill="#343434"/>
<path d="M15.75 17.5H14.25C13.836 17.5 13.5 17.164 13.5 16.75C13.5 16.336 13.836 16 14.25 16H15.75C16.164 16 16.5 16.336 16.5 16.75C16.5 17.164 16.164 17.5 15.75 17.5Z" fill="#343434"/>
<path d="M20.25 17.5H18.75C18.336 17.5 18 17.164 18 16.75C18 16.336 18.336 16 18.75 16H20.25C20.664 16 21 16.336 21 16.75C21 17.164 20.664 17.5 20.25 17.5Z" fill="#343434"/>
<path d="M24.75 17.5H23.25C22.836 17.5 22.5 17.164 22.5 16.75C22.5 16.336 22.836 16 23.25 16H24.75C25.164 16 25.5 16.336 25.5 16.75C25.5 17.164 25.164 17.5 24.75 17.5Z" fill="#343434"/>
<path d="M6.75 20.5H5.25C4.836 20.5 4.5 20.164 4.5 19.75C4.5 19.336 4.836 19 5.25 19H6.75C7.164 19 7.5 19.336 7.5 19.75C7.5 20.164 7.164 20.5 6.75 20.5Z" fill="#343434"/>
<path d="M11.25 20.5H9.75C9.336 20.5 9 20.164 9 19.75C9 19.336 9.336 19 9.75 19H11.25C11.664 19 12 19.336 12 19.75C12 20.164 11.664 20.5 11.25 20.5Z" fill="#343434"/>
<path d="M15.75 20.5H14.25C13.836 20.5 13.5 20.164 13.5 19.75C13.5 19.336 13.836 19 14.25 19H15.75C16.164 19 16.5 19.336 16.5 19.75C16.5 20.164 16.164 20.5 15.75 20.5Z" fill="#343434"/>
<path d="M20.25 20.5H18.75C18.336 20.5 18 20.164 18 19.75C18 19.336 18.336 19 18.75 19H20.25C20.664 19 21 19.336 21 19.75C21 20.164 20.664 20.5 20.25 20.5Z" fill="#343434"/>
<path d="M24.75 20.5H23.25C22.836 20.5 22.5 20.164 22.5 19.75C22.5 19.336 22.836 19 23.25 19H24.75C25.164 19 25.5 19.336 25.5 19.75C25.5 20.164 25.164 20.5 24.75 20.5Z" fill="#343434"/>
<path d="M6.75 23.5H5.25C4.836 23.5 4.5 23.164 4.5 22.75C4.5 22.336 4.836 22 5.25 22H6.75C7.164 22 7.5 22.336 7.5 22.75C7.5 23.164 7.164 23.5 6.75 23.5Z" fill="#343434"/>
<path d="M11.25 23.5H9.75C9.336 23.5 9 23.164 9 22.75C9 22.336 9.336 22 9.75 22H11.25C11.664 22 12 22.336 12 22.75C12 23.164 11.664 23.5 11.25 23.5Z" fill="#343434"/>
<path d="M15.75 23.5H14.25C13.836 23.5 13.5 23.164 13.5 22.75C13.5 22.336 13.836 22 14.25 22H15.75C16.164 22 16.5 22.336 16.5 22.75C16.5 23.164 16.164 23.5 15.75 23.5Z" fill="#343434"/>
<path d="M20.25 23.5H18.75C18.336 23.5 18 23.164 18 22.75C18 22.336 18.336 22 18.75 22H20.25C20.664 22 21 22.336 21 22.75C21 23.164 20.664 23.5 20.25 23.5Z" fill="#343434"/>
<path d="M24.75 23.5H23.25C22.836 23.5 22.5 23.164 22.5 22.75C22.5 22.336 22.836 22 23.25 22H24.75C25.164 22 25.5 22.336 25.5 22.75C25.5 23.164 25.164 23.5 24.75 23.5Z" fill="#343434"/>
</svg>
