<svg width="30" height="30" viewBox="0 0 30 30" fill="none" xmlns="http://www.w3.org/2000/svg">
<path d="M26.6825 23.0753C24.8519 21.7153 23.8022 19.6365 23.8022 17.3741V12.6243C23.8022 8.64564 21.0915 5.28125 17.4015 4.24581V3.12487C17.4015 1.81552 16.3246 0.75 15.0013 0.75C13.6779 0.75 12.601 1.81552 12.601 3.12487V4.24581C8.91104 5.28283 6.20035 8.64564 6.20035 12.6243V17.3741C6.20035 19.6365 5.15063 21.7138 3.32004 23.0753C3.04481 23.2796 2.9328 23.6358 3.04161 23.9588C3.15042 24.2818 3.45605 24.5003 3.80009 24.5003H11.0809C11.0281 24.7599 10.9993 25.0243 10.9993 25.2919C10.9993 27.4736 12.7947 29.25 14.9997 29.25C17.2047 29.25 19.0001 27.4736 19.0001 25.2919C19.0001 25.0259 18.9729 24.7599 18.9201 24.5003H26.2009C26.5449 24.5003 26.8506 24.2818 26.9594 23.9588C27.0682 23.6358 26.9562 23.2796 26.6809 23.0753H26.6825ZM14.2012 3.12487C14.2012 2.68789 14.5596 2.33325 15.0013 2.33325C15.4429 2.33325 15.8014 2.68789 15.8014 3.12487V3.95291C15.5373 3.92916 15.2717 3.91649 15.0013 3.91649C14.7309 3.91649 14.4652 3.92916 14.2012 3.95291V3.12487ZM17.4015 25.2903C17.4015 26.5996 16.3246 27.6652 15.0013 27.6652C13.6779 27.6652 12.601 26.5996 12.601 25.2903C12.601 25.0196 12.649 24.752 12.7386 24.4987H17.2639C17.3535 24.752 17.4015 25.0196 17.4015 25.2903ZM5.7875 22.9154C6.19555 22.4262 6.55078 21.8927 6.84201 21.3306C7.47888 20.0988 7.80052 18.7673 7.80052 17.3741V12.6243C7.80052 8.69631 11.0313 5.49974 15.0013 5.49974C18.9713 5.49974 22.2021 8.69631 22.2021 12.6243V17.3741C22.2021 18.7673 22.5253 20.0988 23.1606 21.3306C23.4518 21.8942 23.807 22.4262 24.2151 22.9154H5.7859H5.7875Z" fill="#343434"/>
</svg>
