<svg width="30" height="30" viewBox="0 0 30 30" fill="none" xmlns="http://www.w3.org/2000/svg">
<path d="M26.6821 22.717C24.8515 21.3331 23.8017 19.2179 23.8017 16.9157V12.0827C23.8017 8.03416 21.0911 4.61074 17.4011 3.55714V2.41653C17.4011 1.08422 16.3241 0 15.0008 0C13.6775 0 12.6005 1.08422 12.6005 2.41653V3.55714C8.91055 4.61235 6.19986 8.03416 6.19986 12.0827V16.9157C6.19986 19.2179 5.15015 21.3315 3.31955 22.717C3.04432 22.9248 2.93231 23.2873 3.04112 23.616C3.14993 23.9446 3.45556 24.1669 3.7996 24.1669H11.0804C11.0276 24.4311 10.9988 24.7002 10.9988 24.9724C10.9988 27.1924 12.7942 29 14.9992 29C17.2042 29 18.9996 27.1924 18.9996 24.9724C18.9996 24.7018 18.9724 24.4311 18.9196 24.1669H26.2004C26.5444 24.1669 26.8501 23.9446 26.9589 23.616C27.0677 23.2873 26.9557 22.9248 26.6805 22.717H26.6821ZM14.2007 2.41653C14.2007 1.97189 14.5592 1.61102 15.0008 1.61102C15.4424 1.61102 15.8009 1.97189 15.8009 2.41653V3.2591C15.5369 3.23493 15.2712 3.22204 15.0008 3.22204C14.7304 3.22204 14.4647 3.23493 14.2007 3.2591V2.41653ZM17.4011 24.9708C17.4011 26.3032 16.3241 27.3874 15.0008 27.3874C13.6775 27.3874 12.6005 26.3032 12.6005 24.9708C12.6005 24.6954 12.6485 24.4231 12.7382 24.1653H17.2634C17.3531 24.4231 17.4011 24.6954 17.4011 24.9708ZM5.78701 22.5543C6.19506 22.0565 6.55029 21.5136 6.84153 20.9417C7.47839 19.6883 7.80003 18.3334 7.80003 16.9157V12.0827C7.80003 8.08572 11.0308 4.83307 15.0008 4.83307C18.9708 4.83307 22.2016 8.08572 22.2016 12.0827V16.9157C22.2016 18.3334 22.5248 19.6883 23.1601 20.9417C23.4513 21.5152 23.8065 22.0565 24.2146 22.5543H5.78541H5.78701Z" fill="#343434"/>
</svg>
