<svg width="30" height="30" viewBox="0 0 30 30" fill="none" xmlns="http://www.w3.org/2000/svg">
<path d="M17.25 26.2485H11.25C10.0095 26.2485 9 25.239 9 23.9985C9 23.889 9.018 22.887 9.645 21.6615C10.2195 20.538 11.4405 19.005 13.995 18.081C14.385 17.94 14.814 18.141 14.955 18.531C15.096 18.921 14.895 19.35 14.505 19.491C10.6095 20.901 10.503 23.847 10.5 24C10.5015 24.4125 10.8375 24.747 11.25 24.747H17.25C17.664 24.747 18 25.083 18 25.497C18 25.911 17.664 26.247 17.25 26.247V26.2485Z" fill="#343434"/>
<path d="M15.7875 14.211C15.5955 14.211 15.4035 14.1375 15.2565 13.992C14.1225 12.8595 13.4985 11.352 13.4985 9.75C13.4985 6.441 16.1895 3.75 19.4985 3.75C22.8075 3.75 25.4985 6.441 25.4985 9.75C25.4985 10.0365 25.4775 10.3245 25.437 10.6065C25.3785 11.016 24.999 11.301 24.588 11.2425C24.177 11.184 23.8935 10.8045 23.952 10.3935C23.982 10.182 23.997 9.966 23.997 9.75C23.997 7.269 21.978 5.25 19.497 5.25C17.016 5.25 14.997 7.269 14.997 9.75C14.997 10.9515 15.465 12.0825 16.3155 12.9315C16.608 13.224 16.608 13.6995 16.3155 13.992C16.1685 14.139 15.9765 14.211 15.7845 14.211H15.7875Z" fill="#343434"/>
<path d="M6.75 26.2485H2.25C1.0095 26.2485 0 25.239 0 23.9985C0 23.943 0.012 22.608 0.9945 21.2985C1.5615 20.541 2.3355 19.9425 3.294 19.5165C4.44 19.0065 5.856 18.7485 7.5015 18.7485C7.77 18.7485 8.0355 18.756 8.292 18.7695C8.706 18.792 9.0225 19.1445 9.0015 19.5585C8.9805 19.9725 8.6265 20.2905 8.2125 20.268C7.983 20.256 7.7445 20.25 7.503 20.25C1.6605 20.25 1.5075 23.82 1.503 24.0045C1.5045 24.4155 1.8405 24.75 2.253 24.75H6.753C7.167 24.75 7.503 25.086 7.503 25.5C7.503 25.914 7.167 26.25 6.753 26.25L6.75 26.2485Z" fill="#343434"/>
<path d="M7.5 17.2485C5.019 17.2485 3 15.2295 3 12.7485C3 10.2675 5.019 8.2485 7.5 8.2485C9.981 8.2485 12 10.2675 12 12.7485C12 15.2295 9.981 17.2485 7.5 17.2485ZM7.5 9.7485C5.8455 9.7485 4.5 11.094 4.5 12.7485C4.5 14.403 5.8455 15.7485 7.5 15.7485C9.1545 15.7485 10.5 14.403 10.5 12.7485C10.5 11.094 9.1545 9.7485 7.5 9.7485Z" fill="#343434"/>
<path d="M23.25 26.2485C19.5285 26.2485 16.5 23.22 16.5 19.4985C16.5 15.777 19.5285 12.7485 23.25 12.7485C26.9715 12.7485 30 15.777 30 19.4985C30 23.22 26.9715 26.2485 23.25 26.2485ZM23.25 14.2485C20.355 14.2485 18 16.6035 18 19.4985C18 22.3935 20.355 24.7485 23.25 24.7485C26.145 24.7485 28.5 22.3935 28.5 19.4985C28.5 16.6035 26.145 14.2485 23.25 14.2485Z" fill="#343434"/>
<path d="M26.25 18.7485H24V16.4985C24 16.0845 23.664 15.7485 23.25 15.7485C22.836 15.7485 22.5 16.0845 22.5 16.4985V18.7485H20.25C19.836 18.7485 19.5 19.0845 19.5 19.4985C19.5 19.9125 19.836 20.2485 20.25 20.2485H22.5V22.4985C22.5 22.9125 22.836 23.2485 23.25 23.2485C23.664 23.2485 24 22.9125 24 22.4985V20.2485H26.25C26.664 20.2485 27 19.9125 27 19.4985C27 19.0845 26.664 18.7485 26.25 18.7485Z" fill="#343434"/>
</svg>
