<svg width="30" height="30" viewBox="0 0 30 30" fill="none" xmlns="http://www.w3.org/2000/svg">
<path d="M22.2478 21.0434L16.1282 15.0001L22.2478 8.95684C22.5568 8.65184 22.5853 8.12518 22.3108 7.78019C22.0364 7.43519 21.5624 7.40519 21.2519 7.71019L15.0003 13.8851L8.7487 7.71019C8.43971 7.40519 7.96574 7.43519 7.68976 7.78019C7.41378 8.12518 7.44228 8.65018 7.75276 8.95684L13.8724 15.0001L7.75276 21.0434C7.44378 21.3483 7.41528 21.875 7.68976 22.22C7.83825 22.405 8.04374 22.5 8.25073 22.5C8.42772 22.5 8.6062 22.43 8.7487 22.29L15.0003 16.1151L21.2519 22.29C21.3944 22.4317 21.5729 22.5 21.7499 22.5C21.9569 22.5 22.1623 22.405 22.3108 22.22C22.5853 21.8767 22.5583 21.35 22.2478 21.0434Z" fill="#343434"/>
<path d="M15 30C10.9926 30 7.22684 28.44 4.39263 25.6074C1.55842 22.7747 0 19.0074 0 15.0016C0 10.9942 1.56 7.22842 4.39263 4.39421C7.22526 1.56 10.9926 0 15 0C19.0074 0 22.7732 1.56 25.6074 4.39421C28.4416 7.22842 30 10.9942 30 15.0016C30 19.0089 28.44 22.7747 25.6074 25.6074C22.7747 28.44 19.0074 30 15 30ZM15 1.57895C7.59947 1.57895 1.57895 7.59947 1.57895 15C1.57895 22.4005 7.59947 28.4211 15 28.4211C22.4005 28.4211 28.4211 22.4005 28.4211 15C28.4211 7.59947 22.4005 1.57895 15 1.57895Z" fill="#343434"/>
</svg>
