<svg width="30" height="30" viewBox="0 0 30 30" fill="none" xmlns="http://www.w3.org/2000/svg">
<path fill-rule="evenodd" clip-rule="evenodd" d="M4 19.5C4 17.0147 6.11066 15 8.71429 15H21.2857C23.8893 15 26 17.0147 26 19.5V25.5C26 27.9853 23.8893 30 21.2857 30H8.71429C6.11066 30 4 27.9853 4 25.5V19.5ZM8.71429 18C7.84641 18 7.14286 18.6716 7.14286 19.5V25.5C7.14286 26.3284 7.84641 27 8.71429 27H21.2857C22.1536 27 22.8571 26.3284 22.8571 25.5V19.5C22.8571 18.6716 22.1536 18 21.2857 18H8.71429Z" fill="#343434"/>
<path fill-rule="evenodd" clip-rule="evenodd" d="M29 6.76C29 3.02656 26.0899 0 22.5 0C18.9101 0 16 3.02656 16 6.76V13H19V6.76C19 4.74968 20.567 3.12 22.5 3.12C24.433 3.12 26 4.74968 26 6.76V13H29V6.76Z" fill="#343434"/>
</svg>
