<svg width="30" height="30" viewBox="0 0 30 30" fill="none" xmlns="http://www.w3.org/2000/svg">
<path d="M22.731 20.6405L16.2034 15.0001L22.731 9.35972C23.0606 9.07505 23.091 8.5835 22.7982 8.26151C22.5054 7.93951 21.9999 7.91151 21.6687 8.19618L15.0003 13.9594L8.33194 8.19618C8.00236 7.91151 7.49679 7.93951 7.20241 8.26151C6.90803 8.5835 6.93843 9.0735 7.26961 9.35972L13.7972 15.0001L7.26961 20.6405C6.94003 20.9251 6.90963 21.4167 7.20241 21.7387C7.3608 21.9113 7.57999 22 7.80078 22C7.98956 22 8.17995 21.9347 8.33194 21.804L15.0003 16.0407L21.6687 21.804C21.8207 21.9362 22.0111 22 22.1999 22C22.4207 22 22.6398 21.9113 22.7982 21.7387C23.091 21.4182 23.0622 20.9267 22.731 20.6405Z" fill="#343434"/>
<path d="M15 30C10.9926 30 7.22684 28.44 4.39263 25.6074C1.55842 22.7747 0 19.0074 0 15.0016C0 10.9942 1.56 7.22842 4.39263 4.39421C7.22526 1.56 10.9926 0 15 0C19.0074 0 22.7732 1.56 25.6074 4.39421C28.4416 7.22842 30 10.9942 30 15.0016C30 19.0089 28.44 22.7747 25.6074 25.6074C22.7747 28.44 19.0074 30 15 30ZM15 1.57895C7.59947 1.57895 1.57895 7.59947 1.57895 15C1.57895 22.4005 7.59947 28.4211 15 28.4211C22.4005 28.4211 28.4211 22.4005 28.4211 15C28.4211 7.59947 22.4005 1.57895 15 1.57895Z" fill="#343434"/>
</svg>
