<svg width="30" height="30" viewBox="0 0 30 30" fill="none" xmlns="http://www.w3.org/2000/svg">
<path d="M22.75 1.5C19.0285 1.5 16 4.5285 16 8.25V12H4.75C3.5095 12 2.5 13.0095 2.5 14.25V26.25C2.5 27.4905 3.5095 28.5 4.75 28.5H19.75C20.9905 28.5 22 27.4905 22 26.25V14.25C22 13.0095 20.9905 12 19.75 12H17.5V8.25C17.5 5.355 19.855 3 22.75 3C25.645 3 28 5.355 28 8.25V9.75C28 10.164 28.336 10.5 28.75 10.5C29.164 10.5 29.5 10.164 29.5 9.75V8.25C29.5 4.5285 26.4715 1.5 22.75 1.5ZM19.75 13.5C20.164 13.5 20.5 13.836 20.5 14.25V26.25C20.5 26.664 20.164 27 19.75 27H4.75C4.336 27 4 26.664 4 26.25V14.25C4 13.836 4.336 13.5 4.75 13.5H19.75Z" fill="#343434"/>
</svg>
