<svg width="30" height="30" viewBox="0 0 30 30" fill="none" xmlns="http://www.w3.org/2000/svg">
<path d="M13.5 30C9.89471 30 6.50382 28.596 3.95471 26.0453C1.40559 23.4946 0 20.1053 0 16.5C0 12.8947 1.404 9.50382 3.95471 6.95471C6.50541 4.40559 9.89471 3 13.5 3C13.9384 3 14.2941 3.35576 14.2941 3.79412V15.7059H26.2059C26.6442 15.7059 27 16.0616 27 16.5C27 20.1053 25.596 23.4962 23.0453 26.0453C20.4946 28.5944 17.1053 30 13.5 30ZM12.7059 4.61365C6.507 5.02341 1.58824 10.1979 1.58824 16.5C1.58824 23.0689 6.93106 28.4118 13.5 28.4118C19.8005 28.4118 24.975 23.493 25.3864 17.2941H13.5C13.0616 17.2941 12.7059 16.9384 12.7059 16.5V4.61365Z" fill="#343434"/>
<path d="M29.25 13.5H17.25C16.836 13.5 16.5 13.164 16.5 12.75V0.75C16.5 0.336 16.836 0 17.25 0C20.655 0 23.8575 1.326 26.265 3.735C28.6725 6.144 30 9.345 30 12.75C30 13.164 29.664 13.5 29.25 13.5ZM18 12H28.476C28.1055 6.393 23.607 1.896 18 1.524V12V12Z" fill="#343434"/>
</svg>
