<svg width="30" height="30" viewBox="0 0 30 30" fill="none" xmlns="http://www.w3.org/2000/svg">
<path d="M3.75041 29.9984C3.5584 29.9984 3.36639 29.921 3.21939 29.7679C2.92687 29.46 2.92687 28.9594 3.21939 28.6515L16.189 14.9994L3.21939 1.34729C2.92687 1.03938 2.92687 0.538837 3.21939 0.23093C3.5119 -0.0769767 3.98742 -0.0769767 4.27994 0.23093L17.7806 14.442C18.0731 14.7499 18.0731 15.2505 17.7806 15.5584L4.27994 29.7695C4.13293 29.9242 3.94092 30 3.74891 30L3.75041 29.9984Z" fill="#343434"/>
<path d="M25.75 30C25.336 30 25 29.58 25 29.0625V0.9375C25 0.42 25.336 0 25.75 0C26.164 0 26.5 0.42 26.5 0.9375V29.0625C26.5 29.58 26.164 30 25.75 30Z" fill="#343434"/>
</svg>
