<svg width="30" height="30" viewBox="0 0 30 30" fill="none" xmlns="http://www.w3.org/2000/svg">
<path d="M23.3462 10.5882H22.4615V7.94118C22.4615 3.56294 18.8895 0 14.5 0C10.1105 0 6.53846 3.56294 6.53846 7.94118V10.5882H5.65385C4.19069 10.5882 3 11.7759 3 13.2353V27.3529C3 28.8124 4.19069 30 5.65385 30H23.3462C24.8093 30 26 28.8124 26 27.3529V13.2353C26 11.7759 24.8093 10.5882 23.3462 10.5882ZM8.30769 7.94118C8.30769 4.53529 11.0854 1.76471 14.5 1.76471C17.9146 1.76471 20.6923 4.53529 20.6923 7.94118V10.5882H8.30769V7.94118ZM24.2308 27.3529C24.2308 27.84 23.8345 28.2353 23.3462 28.2353H5.65385C5.16554 28.2353 4.76923 27.84 4.76923 27.3529V13.2353C4.76923 12.7482 5.16554 12.3529 5.65385 12.3529H23.3462C23.8345 12.3529 24.2308 12.7482 24.2308 13.2353V27.3529Z" fill="#343434"/>
</svg>
