<svg width="30" height="30" viewBox="0 0 30 30" fill="none" xmlns="http://www.w3.org/2000/svg">
<path d="M27 22.9688H25.8208C25.2085 22.9688 24.7176 22.7573 24.3617 22.3402C23.9276 21.8313 23.6981 21.0285 23.6981 20.0183V11.9531C23.6981 7.33488 20.1873 3.4701 15.6792 2.88873V0H13.3208V2.88873C8.81268 3.4701 5.30189 7.33482 5.30189 11.9531V20.3906C5.30189 21.2212 5.08172 21.9009 4.66515 22.3562C4.29858 22.7569 3.78479 22.9688 3.17925 22.9688H2V26.25H11.5173C11.4633 26.4759 11.434 26.7111 11.434 26.9531C11.434 28.6332 12.8094 30 14.5 30C16.1906 30 17.566 28.6332 17.566 26.9531C17.566 26.7111 17.5366 26.4759 17.4827 26.25H27V22.9688ZM14.5 27.6562C14.1098 27.6562 13.7925 27.3408 13.7925 26.9531C13.7925 26.5654 14.1098 26.25 14.5 26.25C14.8902 26.25 15.2075 26.5654 15.2075 26.9531C15.2075 27.3408 14.8902 27.6562 14.5 27.6562ZM6.43443 23.9062C7.23662 23.0147 7.66038 21.7999 7.66038 20.3906V11.9531C7.66038 8.25779 10.683 5.21063 14.3999 5.15701H14.6001C18.317 5.21063 21.3396 8.25779 21.3396 11.9531V20.0183C21.3396 21.591 21.7626 22.918 22.5628 23.8559C22.5772 23.8728 22.5918 23.8896 22.6065 23.9062H6.43443Z" fill="#343434"/>
</svg>
