<svg width="30" height="30" viewBox="0 0 30 30" fill="none" xmlns="http://www.w3.org/2000/svg">
<path d="M27.75 3H24V2.25C24 1.836 23.664 1.5 23.25 1.5C22.836 1.5 22.5 1.836 22.5 2.25V3H7.5V2.25C7.5 1.836 7.164 1.5 6.75 1.5C6.336 1.5 6 1.836 6 2.25V3H2.25C1.0095 3 0 4.0095 0 5.25V26.25C0 27.4905 1.0095 28.5 2.25 28.5H27.75C28.9905 28.5 30 27.4905 30 26.25V5.25C30 4.0095 28.9905 3 27.75 3ZM2.25 4.5H6V6.75C6 7.164 6.336 7.5 6.75 7.5C7.164 7.5 7.5 7.164 7.5 6.75V4.5H22.5V6.75C22.5 7.164 22.836 7.5 23.25 7.5C23.664 7.5 24 7.164 24 6.75V4.5H27.75C28.164 4.5 28.5 4.836 28.5 5.25V9H1.5V5.25C1.5 4.836 1.836 4.5 2.25 4.5ZM27.75 27H2.25C1.836 27 1.5 26.664 1.5 26.25V10.5H28.5V26.25C28.5 26.664 28.164 27 27.75 27Z" fill="#343434"/>
<path d="M11.25 15H9.75C9.336 15 9 14.664 9 14.25C9 13.836 9.336 13.5 9.75 13.5H11.25C11.664 13.5 12 13.836 12 14.25C12 14.664 11.664 15 11.25 15Z" fill="#343434"/>
<path d="M15.75 15H14.25C13.836 15 13.5 14.664 13.5 14.25C13.5 13.836 13.836 13.5 14.25 13.5H15.75C16.164 13.5 16.5 13.836 16.5 14.25C16.5 14.664 16.164 15 15.75 15Z" fill="#343434"/>
<path d="M20.25 15H18.75C18.336 15 18 14.664 18 14.25C18 13.836 18.336 13.5 18.75 13.5H20.25C20.664 13.5 21 13.836 21 14.25C21 14.664 20.664 15 20.25 15Z" fill="#343434"/>
<path d="M24.75 15H23.25C22.836 15 22.5 14.664 22.5 14.25C22.5 13.836 22.836 13.5 23.25 13.5H24.75C25.164 13.5 25.5 13.836 25.5 14.25C25.5 14.664 25.164 15 24.75 15Z" fill="#343434"/>
<path d="M6.75 18H5.25C4.836 18 4.5 17.664 4.5 17.25C4.5 16.836 4.836 16.5 5.25 16.5H6.75C7.164 16.5 7.5 16.836 7.5 17.25C7.5 17.664 7.164 18 6.75 18Z" fill="#343434"/>
<path d="M11.25 18H9.75C9.336 18 9 17.664 9 17.25C9 16.836 9.336 16.5 9.75 16.5H11.25C11.664 16.5 12 16.836 12 17.25C12 17.664 11.664 18 11.25 18Z" fill="#343434"/>
<path d="M15.75 18H14.25C13.836 18 13.5 17.664 13.5 17.25C13.5 16.836 13.836 16.5 14.25 16.5H15.75C16.164 16.5 16.5 16.836 16.5 17.25C16.5 17.664 16.164 18 15.75 18Z" fill="#343434"/>
<path d="M20.25 18H18.75C18.336 18 18 17.664 18 17.25C18 16.836 18.336 16.5 18.75 16.5H20.25C20.664 16.5 21 16.836 21 17.25C21 17.664 20.664 18 20.25 18Z" fill="#343434"/>
<path d="M24.75 18H23.25C22.836 18 22.5 17.664 22.5 17.25C22.5 16.836 22.836 16.5 23.25 16.5H24.75C25.164 16.5 25.5 16.836 25.5 17.25C25.5 17.664 25.164 18 24.75 18Z" fill="#343434"/>
<path d="M6.75 21H5.25C4.836 21 4.5 20.664 4.5 20.25C4.5 19.836 4.836 19.5 5.25 19.5H6.75C7.164 19.5 7.5 19.836 7.5 20.25C7.5 20.664 7.164 21 6.75 21Z" fill="#343434"/>
<path d="M11.25 21H9.75C9.336 21 9 20.664 9 20.25C9 19.836 9.336 19.5 9.75 19.5H11.25C11.664 19.5 12 19.836 12 20.25C12 20.664 11.664 21 11.25 21Z" fill="#343434"/>
<path d="M15.75 21H14.25C13.836 21 13.5 20.664 13.5 20.25C13.5 19.836 13.836 19.5 14.25 19.5H15.75C16.164 19.5 16.5 19.836 16.5 20.25C16.5 20.664 16.164 21 15.75 21Z" fill="#343434"/>
<path d="M20.25 21H18.75C18.336 21 18 20.664 18 20.25C18 19.836 18.336 19.5 18.75 19.5H20.25C20.664 19.5 21 19.836 21 20.25C21 20.664 20.664 21 20.25 21Z" fill="#343434"/>
<path d="M24.75 21H23.25C22.836 21 22.5 20.664 22.5 20.25C22.5 19.836 22.836 19.5 23.25 19.5H24.75C25.164 19.5 25.5 19.836 25.5 20.25C25.5 20.664 25.164 21 24.75 21Z" fill="#343434"/>
<path d="M6.75 24H5.25C4.836 24 4.5 23.664 4.5 23.25C4.5 22.836 4.836 22.5 5.25 22.5H6.75C7.164 22.5 7.5 22.836 7.5 23.25C7.5 23.664 7.164 24 6.75 24Z" fill="#343434"/>
<path d="M11.25 24H9.75C9.336 24 9 23.664 9 23.25C9 22.836 9.336 22.5 9.75 22.5H11.25C11.664 22.5 12 22.836 12 23.25C12 23.664 11.664 24 11.25 24Z" fill="#343434"/>
<path d="M15.75 24H14.25C13.836 24 13.5 23.664 13.5 23.25C13.5 22.836 13.836 22.5 14.25 22.5H15.75C16.164 22.5 16.5 22.836 16.5 23.25C16.5 23.664 16.164 24 15.75 24Z" fill="#343434"/>
<path d="M20.25 24H18.75C18.336 24 18 23.664 18 23.25C18 22.836 18.336 22.5 18.75 22.5H20.25C20.664 22.5 21 22.836 21 23.25C21 23.664 20.664 24 20.25 24Z" fill="#343434"/>
<path d="M24.75 24H23.25C22.836 24 22.5 23.664 22.5 23.25C22.5 22.836 22.836 22.5 23.25 22.5H24.75C25.164 22.5 25.5 22.836 25.5 23.25C25.5 23.664 25.164 24 24.75 24Z" fill="#343434"/>
</svg>
