<svg width="30" height="30" viewBox="0 0 30 30" fill="none" xmlns="http://www.w3.org/2000/svg">
<path d="M25.6074 4.39286C22.7747 1.56008 19.0074 0 15 0C10.9926 0 7.22684 1.56008 4.39263 4.39286C1.55842 7.22564 0 10.9932 0 14.9992C0 19.0052 1.56 22.7728 4.39263 25.6071C7.22526 28.4415 10.9926 30 15 30C19.0074 30 22.7732 28.4399 25.6074 25.6071C28.4416 22.7744 30 19.0068 30 14.9992C30 10.9916 28.44 7.22564 25.6074 4.39286ZM15 28.4225C7.59947 28.4225 1.57895 22.4017 1.57895 15.0008C1.57895 7.59987 7.59947 1.57903 15 1.57903C22.4005 1.57903 28.4211 7.59987 28.4211 15.0008C28.4211 22.4017 22.4005 28.4225 15 28.4225Z" fill="#343434"/>
<path d="M24.6923 14.1923H15.8077V5.30769C15.8077 4.86185 15.4458 4.5 15 4.5C14.5542 4.5 14.1923 4.86185 14.1923 5.30769V14.1923H5.30769C4.86185 14.1923 4.5 14.5542 4.5 15C4.5 15.4458 4.86185 15.8077 5.30769 15.8077H14.1923V24.6923C14.1923 25.1382 14.5542 25.5 15 25.5C15.4458 25.5 15.8077 25.1382 15.8077 24.6923V15.8077H24.6923C25.1382 15.8077 25.5 15.4458 25.5 15C25.5 14.5542 25.1382 14.1923 24.6923 14.1923Z" fill="#343434"/>
</svg>
