<svg width="30" height="30" viewBox="0 0 30 30" fill="none" xmlns="http://www.w3.org/2000/svg">
<path d="M0.789744 27.9984C0.434485 27.9984 0.123435 27.7602 0.0286989 27.4156C-0.0660371 27.071 0.0792247 26.7057 0.383959 26.5231C3.05393 24.9128 4.16077 22.5705 4.55392 21.4747C1.65184 19.2403 0.000278109 16.1484 0.000278109 12.912C0.000278109 11.2779 0.407643 9.69457 1.2129 8.20498C1.98026 6.78526 3.07604 5.51323 4.46708 4.42383C7.28863 2.21645 11.0291 1 15.0001 1C18.9712 1 22.7116 2.21645 25.5332 4.42383C26.9242 5.51165 28.02 6.78367 28.7874 8.20498C29.5926 9.69298 30 11.2763 30 12.912C30 14.5476 29.5926 16.1293 28.7874 17.6189C28.02 19.0386 26.9242 20.3107 25.5332 21.4001C22.7116 23.6075 18.9712 24.8239 15.0001 24.8239C13.3691 24.8239 11.7681 24.619 10.2381 24.2125C9.56072 24.6667 8.29441 25.4718 6.78179 26.2293C4.43234 27.4045 2.41762 28 0.791323 28L0.789744 27.9984ZM15.0001 2.58964C7.59968 2.58964 1.57921 7.22039 1.57921 12.912C1.57921 15.7943 3.16604 18.5686 5.93075 20.5219C6.20233 20.714 6.32548 21.0555 6.24022 21.3778C6.05549 22.0702 5.42707 23.9711 3.74551 25.8053C5.80128 25.0812 8.01494 23.825 9.64914 22.6943C9.84334 22.5593 10.0865 22.5196 10.3139 22.5848C11.8107 23.0151 13.388 23.2343 15.0001 23.2343C22.4006 23.2343 28.4211 18.6035 28.4211 12.912C28.4211 7.22039 22.4006 2.58964 15.0001 2.58964Z" fill="#343434"/>
</svg>
