<svg width="30" height="30" viewBox="0 0 30 30" fill="none" xmlns="http://www.w3.org/2000/svg">
<path d="M28.125 6.7H1.875C1.392 6.7 1 6.3192 1 5.85C1 5.3808 1.392 5 1.875 5H28.125C28.608 5 29 5.3808 29 5.85C29 6.3192 28.608 6.7 28.125 6.7Z" fill="#343434"/>
<path d="M28.125 15.7H1.875C1.392 15.7 1 15.3192 1 14.85C1 14.3808 1.392 14 1.875 14H28.125C28.608 14 29 14.3808 29 14.85C29 15.3192 28.608 15.7 28.125 15.7Z" fill="#343434"/>
<path d="M28.125 24.7H1.875C1.392 24.7 1 24.3192 1 23.85C1 23.3808 1.392 23 1.875 23H28.125C28.608 23 29 23.3808 29 23.85C29 24.3192 28.608 24.7 28.125 24.7Z" fill="#343434"/>
</svg>
