<svg width="30" height="30" viewBox="0 0 30 30" fill="none" xmlns="http://www.w3.org/2000/svg">
<path d="M26.2496 0.00157928C26.4416 0.00157928 26.6336 0.0789509 26.7806 0.232115C27.0731 0.540022 27.0731 1.04057 26.7806 1.34847L13.811 15.0006L26.7806 28.6527C27.0731 28.9606 27.0731 29.4612 26.7806 29.7691C26.4881 30.077 26.0126 30.077 25.7201 29.7691L12.2194 15.558C11.9269 15.2501 11.9269 14.7495 12.2194 14.4416L25.7201 0.230536C25.8671 0.0757923 26.0591 1.90735e-06 26.2511 1.90735e-06L26.2496 0.00157928Z" fill="#343434"/>
<path d="M4.25 0C4.664 0 5 0.42 5 0.9375L5 29.0625C5 29.58 4.664 30 4.25 30C3.836 30 3.5 29.58 3.5 29.0625L3.5 0.9375C3.5 0.42 3.836 0 4.25 0Z" fill="#343434"/>
</svg>
