<svg width="30" height="30" viewBox="0 0 30 30" fill="none" xmlns="http://www.w3.org/2000/svg">
<g id="add">
<path id="Vector" d="M25.6074 4.39286C22.7747 1.56008 19.0074 0 15 0C10.9926 0 7.22684 1.56008 4.39263 4.39286C1.55842 7.22564 0 10.9932 0 14.9992C0 19.0052 1.56 22.7728 4.39263 25.6071C7.22526 28.4415 10.9926 30 15 30C19.0074 30 22.7732 28.4399 25.6074 25.6071C28.4416 22.7744 30 19.0068 30 14.9992C30 10.9916 28.44 7.22564 25.6074 4.39286ZM15 28.4225C7.59947 28.4225 1.57895 22.4017 1.57895 15.0008C1.57895 7.59987 7.59947 1.57903 15 1.57903C22.4005 1.57903 28.4211 7.59987 28.4211 15.0008C28.4211 22.4017 22.4005 28.4225 15 28.4225Z" fill="#343434"/>
<path id="Vector_2" d="M24.2308 14.2308H15.7692V5.76923C15.7692 5.34462 15.4246 5 15 5C14.5754 5 14.2308 5.34462 14.2308 5.76923V14.2308H5.76923C5.34462 14.2308 5 14.5754 5 15C5 15.4246 5.34462 15.7692 5.76923 15.7692H14.2308V24.2308C14.2308 24.6554 14.5754 25 15 25C15.4246 25 15.7692 24.6554 15.7692 24.2308V15.7692H24.2308C24.6554 15.7692 25 15.4246 25 15C25 14.5754 24.6554 14.2308 24.2308 14.2308Z" fill="#343434"/>
</g>
</svg>
