<svg width="30" height="30" viewBox="0 0 30 30" fill="none" xmlns="http://www.w3.org/2000/svg">
<path d="M23.9 3.8H19V3.1C19 1.9422 18.0578 1 16.9 1H14.1C12.9422 1 12 1.9422 12 3.1V3.8H7.1C5.9422 3.8 5 4.7422 5 5.9V7.3C5 8.2128 5.5852 8.9912 6.4 9.2796V26.9C6.4 28.0578 7.3422 29 8.5 29H22.5C23.6578 29 24.6 28.0578 24.6 26.9V9.2796C25.4148 8.9912 26 8.2128 26 7.3V5.9C26 4.7422 25.0578 3.8 23.9 3.8ZM13.4 3.1C13.4 2.7136 13.7136 2.4 14.1 2.4H16.9C17.2864 2.4 17.6 2.7136 17.6 3.1V3.8H13.4V3.1ZM22.5 27.6H8.5C8.1136 27.6 7.8 27.2864 7.8 26.9V9.4H23.2V26.9C23.2 27.2864 22.8864 27.6 22.5 27.6ZM24.6 7.3C24.6 7.6864 24.2864 8 23.9 8H7.1C6.7136 8 6.4 7.6864 6.4 7.3V5.9C6.4 5.5136 6.7136 5.2 7.1 5.2H23.9C24.2864 5.2 24.6 5.5136 24.6 5.9V7.3Z" fill="#343434"/>
<path d="M19.5 11C19.224 11 19 11.3055 19 11.6818V25.3182C19 25.6945 19.224 26 19.5 26C19.776 26 20 25.6945 20 25.3182V11.6818C20 11.3055 19.776 11 19.5 11Z" fill="#343434"/>
<path d="M15.5 11C15.224 11 15 11.3055 15 11.6818V25.3182C15 25.6945 15.224 26 15.5 26C15.776 26 16 25.6945 16 25.3182V11.6818C16 11.3055 15.776 11 15.5 11Z" fill="#343434"/>
<path d="M11.5 11C11.224 11 11 11.3055 11 11.6818V25.3182C11 25.6945 11.224 26 11.5 26C11.776 26 12 25.6945 12 25.3182V11.6818C12 11.3055 11.776 11 11.5 11Z" fill="#343434"/>
</svg>
