<svg width="30" height="30" viewBox="0 0 30 30" fill="none" xmlns="http://www.w3.org/2000/svg">
<path d="M15 30C10.9935 30 7.227 28.44 4.3935 25.6065C1.56 22.773 0 19.0065 0 15C0 10.9935 1.56 7.227 4.3935 4.3935C7.227 1.56 10.9935 0 15 0C19.0065 0 22.773 1.56 25.6065 4.3935C28.44 7.227 30 10.9935 30 15C30 19.0065 28.44 22.773 25.6065 25.6065C22.773 28.44 19.0065 30 15 30ZM15 1.5C7.5555 1.5 1.5 7.5555 1.5 15C1.5 22.4445 7.5555 28.5 15 28.5C22.4445 28.5 28.5 22.4445 28.5 15C28.5 7.5555 22.4445 1.5 15 1.5Z" fill="#343434"/>
<path d="M7.4115 25.8375L11.904 12.8325L22.5885 4.164L18.096 17.169L7.4115 25.8375ZM13.182 13.7265L10.5435 21.3645L16.818 16.2735L19.4565 8.6355L13.182 13.7265Z" fill="#343434"/>
</svg>
