<svg width="30" height="30" viewBox="0 0 30 30" fill="none" xmlns="http://www.w3.org/2000/svg">
<path d="M20.3913 6H5.6087C4.16795 6 3 7.40154 3 9.13044V26.8696C3 28.5985 4.16795 30 5.6087 30H20.3913C21.832 30 23 28.5985 23 26.8696V9.13044C23 7.40154 21.832 6 20.3913 6ZM21.2609 26.8696C21.2609 27.4459 20.8716 27.9131 20.3913 27.9131H5.6087C5.12843 27.9131 4.73911 27.4459 4.73911 26.8696V9.13044C4.73911 8.55412 5.12843 8.08694 5.6087 8.08694H20.3913C20.8716 8.08694 21.2609 8.55412 21.2609 9.13044V26.8696Z" fill="#343434"/>
<path d="M25.375 0H9.625C8.17525 0 7 1.39911 7 3.12499C7 3.70031 7.39175 4.16668 7.87502 4.16668C8.35828 4.16668 8.74998 3.70031 8.74998 3.12499C8.74998 2.54968 9.14173 2.08331 9.625 2.08331H25.375C25.8583 2.08331 26.25 2.54968 26.25 3.12499V21.8749C26.25 22.4503 25.8583 22.9166 25.375 22.9166C24.8917 22.9166 24.5 23.383 24.5 23.9583C24.5 24.5336 24.8917 25 25.375 25C26.8247 25 28 23.6009 28 21.875V3.12499C28 1.39911 26.8247 0 25.375 0Z" fill="#343434"/>
</svg>
