<svg width="30" height="30" viewBox="0 0 30 30" fill="none" xmlns="http://www.w3.org/2000/svg">
<path d="M4.2844 4.28439C1.92197 6.64682 1.84795 10.4167 4.11935 12.6881L4.23322 12.802C5.38197 13.9508 7.40562 14.6044 10.248 14.7447C12.3085 14.8464 14.028 14.6346 14.1002 14.6255L14.5669 14.5669L14.6256 14.1002C14.6346 14.028 14.8465 12.3085 14.7447 10.248C14.6044 7.40564 13.9508 5.38199 12.802 4.23323L12.6882 4.11936C10.4167 1.84794 6.64683 1.92196 4.2844 4.28439ZM11.9661 5.0692C13.9074 7.01054 13.6558 11.9622 13.5224 13.5224C11.9617 13.6558 7.0104 13.9072 5.06921 11.9661L4.95534 11.8522C3.12713 10.024 3.18673 6.98963 5.08818 5.08818C6.98964 3.18672 10.024 3.12713 11.8522 4.95533L11.9661 5.0692Z" fill="#343434" stroke="#343434"/>
<path d="M4.2844 25.7156C6.64683 28.078 10.4167 28.1521 12.6881 25.8807L12.802 25.7668C13.9508 24.618 14.6044 22.5944 14.7447 19.752C14.8464 17.6915 14.6346 15.972 14.6255 15.8998L14.5669 15.4331L14.1002 15.3744C14.028 15.3654 12.3085 15.1535 10.248 15.2553C7.40565 15.3956 5.38199 16.0492 4.23324 17.198L4.11937 17.3118C1.84795 19.5833 1.92197 23.3532 4.2844 25.7156ZM5.06921 18.0339C7.01054 16.0926 11.9622 16.3442 13.5224 16.4776C13.6558 18.0383 13.9073 22.9896 11.9661 24.9308L11.8522 25.0447C10.024 26.8729 6.98964 26.8133 5.08818 24.9118C3.18673 23.0104 3.12713 19.976 4.95534 18.1478L5.06921 18.0339Z" fill="#343434" stroke="#343434"/>
<path d="M25.7156 4.2844C23.3532 1.92197 19.5833 1.84795 17.3119 4.11935L17.198 4.23322C16.0492 5.38197 15.3956 7.40562 15.2553 10.248C15.1535 12.3085 15.3654 14.028 15.3744 14.1002L15.433 14.5669L15.8998 14.6256C15.972 14.6346 17.6915 14.8465 19.752 14.7447C22.5943 14.6044 24.618 13.9508 25.7668 12.802L25.8806 12.6882C28.152 10.4167 28.078 6.64683 25.7156 4.2844ZM24.9308 11.9661C22.9894 13.9074 18.0378 13.6558 16.4776 13.5224C16.3442 11.9617 16.0927 7.0104 18.0339 5.06921L18.1478 4.95534C19.976 3.12713 23.0104 3.18673 24.9118 5.08818C26.8133 6.98964 26.8729 10.024 25.0447 11.8522L24.9308 11.9661Z" fill="#343434" stroke="#343434"/>
<path d="M25.7156 25.7156C28.078 23.3532 28.1521 19.5833 25.8807 17.3119L25.7668 17.198C24.618 16.0492 22.5944 15.3956 19.752 15.2553C17.6915 15.1536 15.972 15.3654 15.8998 15.3745L15.4331 15.4331L15.3744 15.8998C15.3654 15.972 15.1535 17.6915 15.2553 19.752C15.3956 22.5944 16.0492 24.618 17.198 25.7668L17.3118 25.8806C19.5833 28.1521 23.3532 28.078 25.7156 25.7156ZM18.0339 24.9308C16.0926 22.9895 16.3442 18.0378 16.4776 16.4776C18.0383 16.3442 22.9896 16.0928 24.9308 18.0339L25.0447 18.1478C26.8729 19.976 26.8133 23.0104 24.9118 24.9118C23.0104 26.8133 19.976 26.8729 18.1478 25.0447L18.0339 24.9308Z" fill="#343434" stroke="#343434"/>
</svg>
