<svg width="32" height="30" viewBox="0 0 32 30" fill="none" xmlns="http://www.w3.org/2000/svg">
<path d="M15.9999 4.00159C9.9402 4.00159 5.01024 8.93155 5.01024 14.9913C5.01024 21.051 9.9402 25.981 15.9999 25.981C22.0596 25.981 26.9896 21.051 26.9896 14.9913C26.9896 8.93155 22.0596 4.00159 15.9999 4.00159ZM16.7118 24.5309H15.2881C10.5796 24.1829 6.80829 20.4117 6.46026 15.7032V14.2795C6.80829 9.5709 10.5795 5.79971 15.2881 5.45168H16.7118C21.4203 5.79971 25.1915 9.5709 25.5395 14.2795L25.5396 15.7032C25.1915 20.4116 21.4203 24.1829 16.7118 24.5309Z" fill="#343434"/>
<path d="M16.7118 0H15.2882C7.34166 0.372929 0.991302 6.95419 0.991302 14.9913C0.991302 23.2671 7.72412 30 16 30C24.2759 30 31.0087 23.2671 31.0087 14.9913C31.0087 6.95419 24.6583 0.372929 16.7118 0ZM16 28.5014C8.55042 28.5014 2.48981 22.4408 2.48981 14.9913C2.48981 7.54177 8.55042 1.48122 16 1.48122C23.4495 1.48122 29.5101 7.54184 29.5101 14.9914C29.5102 22.4409 23.4496 28.5014 16 28.5014Z" fill="#343434"/>
<path d="M21.2401 9.75141C21.0302 9.54156 20.7123 9.48389 20.4421 9.60664L13.9292 12.567C13.9238 12.5695 13.9187 12.5725 13.9133 12.5751C13.9025 12.5803 13.8916 12.5858 13.881 12.5916C13.8714 12.5968 13.8622 12.6025 13.8529 12.6083C13.8433 12.6141 13.8337 12.6198 13.8244 12.6262C13.8134 12.6336 13.8028 12.6417 13.7922 12.6498C13.7851 12.6552 13.7778 12.6603 13.771 12.666C13.7359 12.695 13.7036 12.7272 13.6746 12.7624C13.6689 12.7694 13.6637 12.7768 13.6582 12.7839C13.6502 12.7944 13.6422 12.8048 13.6349 12.8157C13.6284 12.8252 13.6226 12.8349 13.6166 12.8446C13.6111 12.8537 13.6055 12.8627 13.6004 12.8721C13.5944 12.883 13.589 12.894 13.5836 12.9051C13.581 12.9103 13.5781 12.9153 13.5757 12.9206L10.6153 19.4335C10.4925 19.7036 10.5502 20.0216 10.76 20.2313C10.8964 20.3678 11.0785 20.4398 11.2635 20.4398C11.363 20.4398 11.4633 20.4189 11.5579 20.376L18.0708 17.4156C18.0762 17.4131 18.0812 17.4101 18.0865 17.4076C18.0974 17.4022 18.1083 17.3969 18.119 17.3911C18.1285 17.3858 18.1377 17.3802 18.1468 17.3746C18.1564 17.3688 18.1661 17.363 18.1754 17.3566C18.1863 17.3492 18.1969 17.3411 18.2073 17.3331C18.2145 17.3276 18.2219 17.3225 18.2289 17.3167C18.2639 17.2878 18.2961 17.2555 18.3251 17.2205C18.331 17.2133 18.3364 17.2057 18.342 17.1983C18.3498 17.1881 18.3577 17.1779 18.3649 17.1672C18.3714 17.1576 18.3773 17.1478 18.3834 17.138C18.3889 17.129 18.3944 17.1201 18.3995 17.1108C18.4055 17.0999 18.4109 17.0888 18.4164 17.0777C18.4189 17.0726 18.4218 17.0676 18.4242 17.0623L21.3846 10.5494C21.5076 10.2791 21.4499 9.96119 21.2401 9.75141ZM12.6967 18.2945L14.4466 14.4447L16.5465 16.5446L12.6967 18.2945ZM17.5532 15.538L15.4534 13.4381L19.3031 11.6882L17.5532 15.538Z" fill="#343434"/>
</svg>
