<svg width="30" height="30" viewBox="0 0 30 30" fill="none" xmlns="http://www.w3.org/2000/svg">
<path d="M16.1947 15.0002L25.7491 5.44416C26.0791 5.11411 26.0791 4.57758 25.7491 4.24753C25.4191 3.91749 24.8827 3.91749 24.5527 4.24753L14.9983 13.8036L5.44391 4.24753C5.11392 3.91749 4.57748 3.91749 4.24749 4.24753C3.9175 4.57758 3.9175 5.11411 4.24749 5.44416L13.8019 15.0002L4.24749 24.5563C3.9175 24.8863 3.9175 25.4228 4.24749 25.7529C4.41333 25.9188 4.62994 26 4.84654 26C5.06315 26 5.27976 25.9171 5.4456 25.7529L15 16.1968L24.5544 25.7529C24.7202 25.9188 24.9368 26 25.1535 26C25.3701 26 25.5867 25.9171 25.7525 25.7529C26.0825 25.4228 26.0825 24.8863 25.7525 24.5563L16.1981 15.0002H16.1947Z" fill="#343434"/>
</svg>
