<svg width="30" height="30" viewBox="0 0 30 30" fill="none" xmlns="http://www.w3.org/2000/svg">
<path d="M27.9722 13.1888C28.6273 13.9553 29 15.2212 29 16.4272C29 17.2236 28.8299 17.9211 28.5075 18.4446C28.0875 19.1255 27.4161 19.5005 26.6175 19.5005H22.7457C24.8531 23.3868 25.3855 26.3147 24.3281 28.2106C23.5901 29.532 22.2384 30 21.3037 30C20.934 30 20.6205 29.7225 20.5717 29.3505C20.307 27.3721 18.8147 25.0112 16.478 22.8739C14.239 20.8265 11.4882 19.19 8.66051 18.2091C8.3041 18.9711 7.5395 19.499 6.65511 19.499H2.21837C0.995308 19.499 0 18.4896 0 17.2491V3.74981C0 2.50937 0.995308 1.49993 2.21837 1.49993H6.65511C7.59274 1.49993 8.39431 2.0924 8.71967 2.92785C11.6198 2.55887 12.7113 1.9679 13.7687 1.39493C15.0923 0.677966 16.3405 0 20.4282 0C21.493 0 22.4957 0.281986 23.2529 0.79346C23.9924 1.29294 24.4657 1.9949 24.6224 2.80786C25.2125 3.05085 25.736 3.61182 26.1368 4.44578C26.5273 5.25724 26.7802 6.29369 26.7802 7.08715C26.7802 7.23564 26.7713 7.37213 26.755 7.49813C27.1292 7.77711 27.4649 8.20759 27.7414 8.77456C28.1408 9.59202 28.3803 10.6165 28.3803 11.5134C28.3803 12.1494 28.2635 12.6789 28.0343 13.0898C28.015 13.1228 27.9958 13.1558 27.9766 13.1873L27.9722 13.1888ZM6.65215 3.00135H2.21541C1.80723 3.00135 1.47596 3.33733 1.47596 3.75131V17.2506C1.47596 17.6646 1.80723 18.0006 2.21541 18.0006H6.65215C7.06033 18.0006 7.39161 17.6646 7.39161 17.2506V3.75281V3.75131C7.39161 3.33733 7.06033 3.00135 6.65215 3.00135ZM27.1188 14.5898C26.8955 14.1338 26.6692 13.9688 26.5716 13.9688C26.1634 13.9688 25.8322 13.6328 25.8322 13.2188C25.8322 12.8049 26.1634 12.4689 26.5716 12.4689C26.6337 12.4689 26.6781 12.4689 26.7447 12.3519C26.8423 12.1764 26.8985 11.8719 26.8985 11.5149C26.8985 10.8475 26.7121 10.054 26.4134 9.44203C26.1206 8.84356 25.8233 8.62607 25.6932 8.62607C25.285 8.62607 24.9537 8.29009 24.9537 7.87611C24.9537 7.61062 25.0898 7.37663 25.2953 7.24314C25.3412 6.76766 25.1223 5.49573 24.5544 4.66627C24.3399 4.35278 24.1137 4.17279 23.9362 4.17279C23.528 4.17279 23.1967 3.83681 23.1967 3.42283C23.1967 2.10289 21.7592 1.50143 20.4238 1.50143C16.7073 1.50143 15.6661 2.0654 14.4608 2.71936C13.3339 3.32983 12.0679 4.0168 8.86904 4.42028V16.7002C11.9762 17.7336 15.0095 19.5155 17.4645 21.7594C19.8204 23.9133 21.3673 26.2412 21.8923 28.3981C22.2946 28.2676 22.7486 27.9916 23.04 27.4711C23.5339 26.5862 23.9037 24.3273 20.832 19.136C20.6944 18.9051 20.6915 18.6156 20.8231 18.3801C20.9547 18.1446 21.2002 17.9991 21.4664 17.9991H26.6175C26.9118 17.9991 27.1011 17.8941 27.2534 17.6481C27.4264 17.3676 27.5211 16.9327 27.5211 16.4257C27.5211 15.7897 27.3702 15.1027 27.1188 14.5883V14.5898Z" fill="#343434"/>
</svg>
