<svg width="30" height="30" viewBox="0 0 30 30" fill="none" xmlns="http://www.w3.org/2000/svg">
<path d="M24.75 6H21V2.25C21 1.0095 19.9905 0 18.75 0H7.5C7.3005 0 7.11 0.0795 6.969 0.219L1.719 5.469C1.578 5.61 1.5 5.8005 1.5 6V21.75C1.5 22.9905 2.5095 24 3.75 24H7.5V27.75C7.5 28.9905 8.5095 30 9.75 30H24.75C25.9905 30 27 28.9905 27 27.75V8.25C27 7.0095 25.9905 6 24.75 6ZM7.5 1.8105V5.25C7.5 5.664 7.164 6 6.75 6H3.3105L7.5 1.8105ZM3.75 22.5C3.336 22.5 3 22.164 3 21.75V7.5H6.75C7.9905 7.5 9 6.4905 9 5.25V1.5H18.75C19.164 1.5 19.5 1.836 19.5 2.25V6H13.5C13.3005 6 13.11 6.0795 12.969 6.219L7.719 11.469C7.578 11.61 7.5 11.8005 7.5 12V22.5H3.75ZM13.5 7.8105V11.25C13.5 11.664 13.164 12 12.75 12H9.3105L13.5 7.8105ZM25.5 27.75C25.5 28.164 25.164 28.5 24.75 28.5H9.75C9.336 28.5 9 28.164 9 27.75V13.5H12.75C13.9905 13.5 15 12.4905 15 11.25V7.5H24.75C25.164 7.5 25.5 7.836 25.5 8.25V27.75Z" fill="#343434"/>
</svg>
