<svg width="30" height="30" viewBox="0 0 30 30" fill="none" xmlns="http://www.w3.org/2000/svg">
<path d="M23.7574 12.8953C23.4383 12.592 22.9196 12.592 22.6006 12.8953L15.8165 19.3447V1.77778C15.8165 1.34844 15.45 1 14.9984 1C14.5467 1 14.1802 1.34844 14.1802 1.77778V19.3447L7.39616 12.8953C7.07709 12.592 6.55838 12.592 6.23931 12.8953C5.92023 13.1987 5.92023 13.6918 6.23931 13.9951L14.4208 21.7729C14.5811 21.9253 14.7906 22 15 22C15.2094 22 15.4189 21.9238 15.5792 21.7713L23.7607 13.9936C24.0798 13.6902 24.0798 13.1971 23.7607 12.8938L23.7574 12.8953Z" fill="#343434"/>
<path d="M27.6316 28H2.36842C1.06263 28 0 26.9905 0 25.75V22.75C0 22.336 0.353684 22 0.789474 22C1.22526 22 1.57895 22.336 1.57895 22.75V25.75C1.57895 26.164 1.93263 26.5 2.36842 26.5H27.6316C28.0674 26.5 28.4211 26.164 28.4211 25.75V22.75C28.4211 22.336 28.7747 22 29.2105 22C29.6463 22 30 22.336 30 22.75V25.75C30 26.9905 28.9374 28 27.6316 28Z" fill="#343434"/>
</svg>
