<svg width="30" height="30" viewBox="0 0 30 30" fill="none" xmlns="http://www.w3.org/2000/svg">
<path d="M15.0069 6.20129C10.1591 6.20129 6.21515 10.1453 6.21515 14.993C6.21515 19.8408 10.1591 23.7848 15.0069 23.7848C19.8547 23.7848 23.7986 19.8408 23.7986 14.993C23.7986 10.1453 19.8547 6.20129 15.0069 6.20129ZM15.5764 22.6248H14.4374C10.6706 22.3463 7.65359 19.3294 7.37516 15.5626V14.4236C7.65359 10.6567 10.6705 7.63979 14.4374 7.36136H15.5764C19.3432 7.63979 22.3602 10.6567 22.6386 14.4236L22.6386 15.5626C22.3601 19.3293 19.3432 22.3463 15.5764 22.6248Z" fill="#343434"/>
<path d="M15.5764 3H14.4375C8.08028 3.29834 3 8.56335 3 14.993C3 21.6137 8.38625 27 15.007 27C21.6277 27 27.0139 21.6137 27.0139 14.993C27.0139 8.56335 21.9336 3.29834 15.5764 3ZM15.0069 25.8011C9.04729 25.8011 4.1988 20.9527 4.1988 14.993C4.1988 9.03341 9.04729 4.18498 15.0069 4.18498C20.9665 4.18498 25.815 9.03347 25.815 14.9931C25.8151 20.9527 20.9666 25.8011 15.0069 25.8011Z" fill="#343434"/>
<path d="M19.199 10.8011C19.0311 10.6333 18.7768 10.5871 18.5606 10.6853L13.3503 13.0536C13.346 13.0556 13.3419 13.058 13.3376 13.0601C13.3289 13.0643 13.3202 13.0686 13.3117 13.0733C13.3041 13.0774 13.2967 13.082 13.2893 13.0866C13.2816 13.0913 13.2739 13.0958 13.2665 13.1009C13.2577 13.1069 13.2492 13.1134 13.2407 13.1198C13.235 13.1242 13.2292 13.1282 13.2237 13.1328C13.1957 13.156 13.1699 13.1818 13.1467 13.2099C13.1421 13.2155 13.1379 13.2214 13.1336 13.2271C13.1271 13.2355 13.1207 13.2438 13.1148 13.2526C13.1097 13.2601 13.105 13.2679 13.1002 13.2757C13.0958 13.283 13.0914 13.2902 13.0872 13.2977C13.0825 13.3064 13.0781 13.3152 13.0738 13.324C13.0718 13.3282 13.0694 13.3322 13.0675 13.3364L10.6992 18.5468C10.6009 18.7629 10.6471 19.0173 10.8149 19.185C10.9241 19.2942 11.0698 19.3519 11.2177 19.3519C11.2973 19.3519 11.3776 19.3351 11.4533 19.3008L16.6636 16.9325C16.6679 16.9305 16.6719 16.9281 16.6761 16.9261C16.6849 16.9218 16.6936 16.9175 16.7022 16.9128C16.7098 16.9087 16.7171 16.9042 16.7244 16.8997C16.7321 16.895 16.7398 16.8904 16.7473 16.8852C16.756 16.8793 16.7645 16.8729 16.7728 16.8665C16.7786 16.8621 16.7844 16.858 16.79 16.8534C16.8181 16.8302 16.8439 16.8044 16.867 16.7764C16.8718 16.7706 16.8761 16.7645 16.8806 16.7587C16.8868 16.7504 16.8931 16.7423 16.8989 16.7338C16.9041 16.7261 16.9088 16.7182 16.9136 16.7104C16.918 16.7032 16.9225 16.6961 16.9265 16.6886C16.9313 16.6799 16.9357 16.6711 16.94 16.6622C16.9421 16.6581 16.9444 16.6541 16.9463 16.6498L19.3147 11.4395C19.413 11.2233 19.3669 10.969 19.199 10.8011ZM12.3643 17.6356L13.7643 14.5558L15.4441 16.2357L12.3643 17.6356ZM16.2495 15.4304L14.5696 13.7505L17.6495 12.3506L16.2495 15.4304Z" fill="#343434"/>
</svg>
