<svg width="30" height="30" viewBox="0 0 30 30" fill="none" xmlns="http://www.w3.org/2000/svg">
<path d="M24.009 23.9985H9C4.038 23.9985 0 19.9608 0 14.9993C0 10.0377 4.038 6 9 6C11.403 6 13.7055 6.96442 15.39 8.66228C15.522 8.3713 15.684 8.09233 15.8775 7.82985C16.7235 6.68394 18.078 6 19.5 6C21.981 6 24 8.01883 24 10.4996C24 11.0261 23.9085 11.5405 23.733 12.025C23.8245 12.0205 23.916 12.019 24.009 12.019C27.312 12.019 30 14.7068 30 18.0095C30 21.3122 27.312 24 24.009 24V23.9985ZM9 7.49988C4.8645 7.49988 1.5 10.8641 1.5 14.9993C1.5 19.1344 4.8645 22.4986 9 22.4986H24.009C26.4855 22.4986 28.5 20.4843 28.5 18.008C28.5 15.5317 26.4855 13.5174 24.009 13.5174C23.478 13.5174 22.9605 13.6089 22.47 13.7874C22.143 13.9073 21.777 13.7859 21.585 13.4949C21.393 13.2039 21.429 12.8199 21.669 12.5665C22.2045 12.0025 22.5 11.2691 22.5 10.4981C22.5 8.84376 21.1545 7.49838 19.5 7.49838C18.537 7.49838 17.6565 7.94384 17.085 8.71927C16.74 9.18723 16.5375 9.73619 16.503 10.3046C16.4835 10.6226 16.2645 10.8941 15.9585 10.9796C15.6525 11.0651 15.324 10.9496 15.141 10.6901C14.976 10.4561 14.7975 10.2296 14.61 10.0197C13.1865 8.4178 11.142 7.49838 9 7.49838V7.49988Z" fill="#343434"/>
</svg>
