<svg width="30" height="30" viewBox="0 0 30 30" fill="none" xmlns="http://www.w3.org/2000/svg">
<path d="M23.8 29H6.2C4.98707 29 4 28.0164 4 26.8077V12.1923C4 10.9836 4.98707 10 6.2 10H12.0667C12.4715 10 12.8 10.3274 12.8 10.7308C12.8 11.1342 12.4715 11.4615 12.0667 11.4615H6.2C5.7952 11.4615 5.46667 11.7889 5.46667 12.1923V26.8077C5.46667 27.2111 5.7952 27.5385 6.2 27.5385H23.8C24.2048 27.5385 24.5333 27.2111 24.5333 26.8077V12.1923C24.5333 11.7889 24.2048 11.4615 23.8 11.4615H17.9333C17.5285 11.4615 17.2 11.1342 17.2 10.7308C17.2 10.3274 17.5285 10 17.9333 10H23.8C25.0129 10 26 10.9836 26 12.1923V26.8077C26 28.0164 25.0129 29 23.8 29Z" fill="#343434"/>
<path d="M19.7911 4.66102L15.505 0.216663C15.2264 -0.0722209 14.7736 -0.0722209 14.495 0.216663L10.2089 4.66102C9.93035 4.94991 9.93035 5.41953 10.2089 5.70841C10.4875 5.9973 10.9404 5.9973 11.219 5.70841L14.2864 2.52921V19.2593C14.2864 19.6682 14.6064 20 15.0007 20C15.395 20 15.7151 19.6682 15.7151 19.2593V2.52921L18.7824 5.70841C18.9224 5.8536 19.1053 5.92471 19.2867 5.92471C19.4682 5.92471 19.6525 5.85211 19.7911 5.70841C20.0696 5.41953 20.0696 4.94991 19.7911 4.66102Z" fill="#343434"/>
</svg>
