<svg width="30" height="30" viewBox="0 0 30 30" fill="none" xmlns="http://www.w3.org/2000/svg">
<path d="M27.1097 8.90615C26.8493 8.28122 26.537 7.78662 26.1722 7.422L20.0784 1.32797C19.7137 0.96369 19.2192 0.651057 18.5941 0.390484C17.9694 0.130184 17.3964 0 16.8758 0H4.37502C3.85428 0 3.41153 0.182176 3.04698 0.5468C2.68235 0.91122 2.50011 1.35397 2.50011 1.87491V28.1251C2.50011 28.6462 2.68235 29.0889 3.04698 29.4534C3.4116 29.8177 3.85428 30.0001 4.37508 30.0001H25.6254C26.1461 30.0001 26.5886 29.8177 26.9531 29.4534C27.3176 29.0886 27.4999 28.6462 27.4999 28.1251V10.6249C27.5002 10.1041 27.37 9.53107 27.1097 8.90615ZM17.5003 2.65608C17.8778 2.78627 18.1446 2.92965 18.301 3.0857L24.4145 9.19922C24.5704 9.3556 24.7137 9.6224 24.8439 10H17.5003V2.65608ZM25.0003 27.5002H5.00001V2.50004H15V10.6252C15 11.146 15.1821 11.5886 15.5468 11.9533C15.9115 12.3177 16.354 12.5001 16.8751 12.5001H25.0003V27.5002Z" fill="#343434"/>
</svg>
