<svg width="30" height="30" viewBox="0 0 30 30" fill="none" xmlns="http://www.w3.org/2000/svg">
<path d="M26.662 2.30647C25.9757 1.83353 25.0173 1.41706 23.8146 1.06765C21.4471 0.379412 18.3172 0 14.9983 0C11.6794 0 8.54766 0.379412 6.18198 1.06765C4.9792 1.41706 4.02253 1.83353 3.33449 2.30647C2.2305 3.06529 2 3.87 2 4.41176V5.29412C2 6.04941 2.55633 7.29353 3.10745 8.13353L11.5841 21.0794C12.0191 21.7429 12.4003 23.0259 12.4003 23.8235V29.1176C12.4003 29.4229 12.5563 29.7071 12.8111 29.8676C12.9497 29.9559 13.1075 30 13.2669 30C13.3986 30 13.5321 29.9682 13.6551 29.9065L17.1213 28.1418C17.4142 27.9918 17.5997 27.6865 17.5997 27.3529V23.8235C17.5997 23.0259 17.9809 21.7429 18.4159 21.0794L26.8925 8.13353C27.4419 7.29353 28 6.04765 28 5.29412V4.41176C28 3.87 27.7678 3.06529 26.6655 2.30647H26.662ZM6.65858 2.76529C8.87522 2.12118 11.8371 1.76471 14.9983 1.76471C18.1594 1.76471 21.1231 2.11941 23.338 2.76529C25.7262 3.46059 26.2634 4.20529 26.2634 4.41176C26.2634 4.61824 25.7262 5.36471 23.338 6.05824C21.1213 6.70235 18.1594 7.05882 14.9983 7.05882C11.8371 7.05882 8.87348 6.70412 6.65858 6.05824C4.27036 5.36294 3.7331 4.61824 3.7331 4.41176C3.7331 4.20529 4.27036 3.45882 6.65858 2.76529ZM16.9723 20.1018C16.3518 21.0494 15.8648 22.6853 15.8648 23.8235V26.8076L14.1317 27.69V23.8235C14.1317 22.6835 13.6447 21.0494 13.0243 20.1018L4.56672 7.18412C5.04159 7.39059 5.58059 7.58294 6.18198 7.75588C8.54939 8.44412 11.6794 8.82353 14.9983 8.82353C18.3172 8.82353 21.4489 8.44412 23.8146 7.75588C24.4142 7.58118 24.9549 7.39059 25.4298 7.18235L16.9723 20.1V20.1018Z" fill="#343434"/>
</svg>
