<svg width="30" height="30" viewBox="0 0 30 30" fill="none" xmlns="http://www.w3.org/2000/svg">
<path d="M27.7791 2.22099C26.9913 1.43316 25.9442 1 24.8298 1C23.7154 1 22.6683 1.43316 21.8805 2.22099L4.0081 20.0942C3.93521 20.1671 3.88054 20.254 3.8455 20.3508L1.04199 28.0608C0.949469 28.3173 1.01255 28.6033 1.20459 28.7953C1.33776 28.9285 1.51718 29 1.70081 29C1.78071 29 1.86201 28.986 1.94051 28.9579L9.65017 26.1543C9.74689 26.1193 9.8338 26.0632 9.90669 25.9917L27.7791 8.11845C28.5669 7.33063 29 6.28347 29 5.16902C29 4.05457 28.5669 3.00741 27.7791 2.21959V2.22099ZM9.02498 24.8913L2.87268 27.1286L5.10988 20.976L20.6245 5.4606L24.5396 9.37589L9.02498 24.8913ZM26.7866 7.12737L25.5307 8.3834L21.6155 4.46811L22.8715 3.21208C23.3944 2.6892 24.0896 2.40182 24.8284 2.40182C25.5671 2.40182 26.2624 2.6892 26.7852 3.21208C27.3081 3.73496 27.5954 4.43026 27.5954 5.16902C27.5954 5.90778 27.3081 6.60308 26.7852 7.12596L26.7866 7.12737Z" fill="#343434"/>
</svg>
