<svg width="30" height="30" viewBox="0 0 30 30" fill="none" xmlns="http://www.w3.org/2000/svg">
<path d="M26.781 7.33579L20.031 0.230526C19.89 0.0821053 19.6995 0 19.5 0H5.25C4.0095 0 3 1.06263 3 2.36842V27.6316C3 28.9374 4.0095 30 5.25 30H24.75C25.9905 30 27 28.9374 27 27.6316V7.89474C27 7.68474 26.9205 7.48421 26.781 7.33579ZM25.1895 7.89474H20.25C19.836 7.89474 19.5 7.54105 19.5 7.10526V1.90579L25.1895 7.89474ZM24.75 28.4211H5.25C4.836 28.4211 4.5 28.0674 4.5 27.6316V2.36842C4.5 1.93263 4.836 1.57895 5.25 1.57895H18V7.10526C18 8.41105 19.0095 9.47368 20.25 9.47368H25.5V27.6316C25.5 28.0674 25.164 28.4211 24.75 28.4211Z" fill="#343434"/>
</svg>
