<svg width="30" height="30" viewBox="0 0 30 30" fill="none" xmlns="http://www.w3.org/2000/svg">
<path d="M5.25 30H0.75C0.336 30 0 29.664 0 29.25V18.75C0 18.336 0.336 18 0.75 18H5.25C5.664 18 6 18.336 6 18.75V29.25C6 29.664 5.664 30 5.25 30ZM1.5 28.5H4.5V19.5H1.5V28.5Z" fill="#343434"/>
<path d="M13.245 30H8.74499C8.33099 30 7.99499 29.664 7.99499 29.25V14.25C7.99499 13.836 8.33099 13.5 8.74499 13.5H13.245C13.659 13.5 13.995 13.836 13.995 14.25V29.25C13.995 29.664 13.659 30 13.245 30ZM9.49499 28.5H12.495V15H9.49499V28.5Z" fill="#343434"/>
<path d="M21.24 30H16.74C16.326 30 15.99 29.664 15.99 29.25V15.75C15.99 15.336 16.326 15 16.74 15H21.24C21.654 15 21.99 15.336 21.99 15.75V29.25C21.99 29.664 21.654 30 21.24 30ZM17.49 28.5H20.49V16.5H17.49V28.5Z" fill="#343434"/>
<path d="M29.25 30H24.75C24.336 30 24 29.664 24 29.25V9.75C24 9.336 24.336 9 24.75 9H29.25C29.664 9 30 9.336 30 9.75V29.25C30 29.664 29.664 30 29.25 30ZM25.5 28.5H28.5V10.5H25.5V28.5Z" fill="#343434"/>
<path d="M28.2702 1.72005C28.0573 1.51904 27.7429 1.44854 27.457 1.53854L22.692 3.03859C22.2758 3.1691 22.0503 3.59361 22.1901 3.98662C22.3298 4.37964 22.7793 4.59265 23.1939 4.46064L24.7679 3.96562L17.9461 10.4083C17.6077 10.7279 16.974 10.7714 16.5896 10.4998L12.7776 7.79976C11.7865 7.09773 10.257 7.12773 9.29762 7.86876L1.79118 13.6695C1.45128 13.932 1.40204 14.4045 1.68 14.7255C1.83725 14.907 2.06438 15 2.29468 15C2.47099 15 2.64888 14.9445 2.79659 14.8305L10.303 9.0298C10.6938 8.72679 11.4196 8.71329 11.8231 8.9998L15.635 11.6999C16.6563 12.4229 18.1637 12.3224 19.0674 11.4689L25.8893 5.02616L25.3651 6.51271C25.2269 6.90572 25.4509 7.33024 25.867 7.46074C25.9496 7.48774 26.0354 7.49974 26.118 7.49974C26.45 7.49974 26.7597 7.30024 26.8709 6.98673L28.4592 2.48657C28.5545 2.21656 28.4798 1.91955 28.267 1.71855L28.2702 1.72005Z" fill="#343434"/>
</svg>
