<svg width="30" height="30" viewBox="0 0 30 30" fill="none" xmlns="http://www.w3.org/2000/svg">
<path d="M25.6074 4.39286C22.7747 1.56008 19.0074 0 15 0C10.9926 0 7.22684 1.56008 4.39263 4.39286C1.55842 7.22564 0 10.9932 0 14.9992C0 19.0052 1.56 22.7728 4.39263 25.6071C7.22526 28.4415 10.9926 30 15 30C19.0074 30 22.7732 28.4399 25.6074 25.6071C28.4416 22.7744 30 19.0068 30 14.9992C30 10.9916 28.44 7.22564 25.6074 4.39286ZM15 28.4225C7.59947 28.4225 1.57895 22.4017 1.57895 15.0008C1.57895 7.59987 7.59947 1.57903 15 1.57903C22.4005 1.57903 28.4211 7.59987 28.4211 15.0008C28.4211 22.4017 22.4005 28.4225 15 28.4225Z" fill="#343434"/>
<path d="M15 18C14.448 18 14 17.552 14 17V7C14 6.448 14.448 6 15 6C15.552 6 16 6.448 16 7V17C16 17.552 15.552 18 15 18Z" fill="#343434"/>
<path d="M15 24C14.448 24 14 23.552 14 23V21C14 20.448 14.448 20 15 20C15.552 20 16 20.448 16 21V23C16 23.552 15.552 24 15 24Z" fill="#343434"/>
</svg>
