<svg width="30" height="30" viewBox="0 0 30 30" fill="none" xmlns="http://www.w3.org/2000/svg">
<path d="M0.750194 29.9996C0.555194 29.9996 0.363194 29.9231 0.219194 29.7806C0.013694 29.5751 -0.055306 29.2676 0.045194 28.9946L3.04519 20.7446C3.08269 20.6411 3.14269 20.5481 3.21919 20.4701L23.4692 0.220123C23.7617 -0.0723773 24.2372 -0.0723773 24.5297 0.220123L29.7797 5.47012C30.0722 5.76262 30.0722 6.23812 29.7797 6.53062L9.52969 26.7806C9.45169 26.8586 9.35869 26.9171 9.25519 26.9546L1.00519 29.9546C0.921194 29.9846 0.835694 29.9996 0.748694 29.9996H0.750194ZM4.39819 21.4121L2.00419 27.9956L8.58769 25.6016L28.1897 5.99962L24.0002 1.81012L4.39819 21.4121Z" fill="#343434"/>
</svg>
