<svg width="30" height="30" viewBox="0 0 30 30" fill="none" xmlns="http://www.w3.org/2000/svg">
<path d="M25.6065 4.3935C22.773 1.56 19.0065 0 15 0C10.9935 0 7.227 1.56 4.3935 4.3935C1.56 7.227 0 10.9935 0 15C0 19.0065 1.56 22.773 4.3935 25.6065C7.227 28.44 10.9935 30 15 30C19.0065 30 22.773 28.44 25.6065 25.6065C28.44 22.773 30 19.0065 30 15C30 10.9935 28.44 7.227 25.6065 4.3935V4.3935ZM27.5955 10.1415C27.303 9.615 26.568 9.3645 25.608 9.0375C24.5775 8.6865 24.213 7.6275 23.7915 6.4005C23.4255 5.3355 23.0475 4.236 22.149 3.552C24.6075 5.0925 26.535 7.4025 27.5955 10.1415ZM23.3865 15.2865C23.5005 16.302 23.6175 17.3535 22.356 18.7695C22.0155 19.152 21.816 19.6845 21.6045 20.2485C21.1155 21.555 20.6535 22.7895 18.6855 22.8075C18.63 22.7415 18.474 22.4925 18.3345 21.708C18.207 20.985 18.1335 20.049 18.054 19.0605C17.934 17.5425 17.7975 15.8205 17.4225 14.3925C16.9425 12.567 16.137 11.4885 14.961 11.0955C14.448 10.9245 13.923 10.8405 13.359 10.8405C12.942 10.8405 12.564 10.8855 12.231 10.9245C11.9715 10.9545 11.7255 10.9845 11.5185 10.9845C11.1675 10.9845 10.77 10.9845 10.2795 9.8625C9.576 8.25 10.095 5.6655 12.1605 4.302C13.293 3.555 14.0745 3.2355 14.7735 3.2355C15.3315 3.2355 15.933 3.429 16.7865 3.885C17.7945 4.422 18.585 4.491 19.161 4.491C19.389 4.491 19.596 4.479 19.7955 4.467C19.9635 4.4565 20.121 4.4475 20.268 4.4475C20.598 4.4475 20.865 4.491 21.1785 4.704C21.756 5.0985 22.056 5.97 22.3725 6.891C22.8525 8.289 23.397 9.873 25.125 10.461C25.3575 10.5405 25.7565 10.6755 26.04 10.794C25.7955 11.046 25.3875 11.4105 24.987 11.7675C24.729 11.9985 24.4365 12.2595 24.1125 12.555C23.1765 13.4085 23.2875 14.4075 23.3865 15.288V15.2865ZM1.5015 14.8845C1.6635 14.913 1.8375 14.9475 2.0175 14.985C2.8605 15.165 3.255 15.327 3.4275 15.4185C3.348 15.573 3.1875 15.801 3.081 15.951C2.7105 16.4775 2.2485 17.133 2.424 17.8545C2.5425 18.342 2.442 18.939 2.2695 19.491C1.7715 18.084 1.5 16.572 1.5 14.997C1.5 14.958 1.5015 14.9205 1.5015 14.8815V14.8845ZM15 28.5C9.8625 28.5 5.385 25.614 3.105 21.3795C3.498 20.631 4.227 18.975 3.8865 17.526C3.9105 17.3805 4.158 17.0295 4.3065 16.818C4.713 16.2405 5.2185 15.5235 4.8435 14.763C4.581 14.229 3.8775 13.869 2.4945 13.557C2.1735 13.485 1.8615 13.4265 1.596 13.38C2.4 6.6975 8.103 1.5015 14.9985 1.5015C17.3655 1.5015 19.5915 2.115 21.5265 3.189C21.048 2.9805 20.6145 2.9475 20.2665 2.9475C20.076 2.9475 19.887 2.958 19.704 2.97C19.5255 2.9805 19.341 2.991 19.158 2.991C18.732 2.991 18.201 2.94 17.49 2.5605C16.404 1.983 15.591 1.7355 14.772 1.7355C13.758 1.7355 12.729 2.1285 11.3325 3.0495C10.125 3.846 9.216 5.064 8.772 6.4815C8.3385 7.863 8.385 9.2775 8.9025 10.4625C9.513 11.8605 10.3185 12.4845 11.5155 12.4845C11.811 12.4845 12.099 12.45 12.4035 12.414C12.711 12.378 13.0275 12.3405 13.356 12.3405C13.7625 12.3405 14.121 12.3975 14.4825 12.5175C15.141 12.738 15.627 13.476 15.969 14.7735C16.311 16.071 16.44 17.7225 16.5555 19.1775C16.6515 20.3925 16.7415 21.5385 16.941 22.404C17.0625 22.929 17.2185 23.328 17.421 23.6235C17.7225 24.0645 18.1545 24.3075 18.6375 24.3075C19.9635 24.3075 21.0225 23.88 21.786 23.037C22.4205 22.3365 22.7445 21.471 23.0055 20.775C23.1585 20.3655 23.3175 19.941 23.472 19.767C25.1775 17.8515 25.002 16.2735 24.873 15.12C24.7785 14.274 24.777 13.974 25.119 13.662C25.437 13.3725 25.7265 13.113 25.9815 12.885C26.526 12.399 26.919 12.048 27.195 11.748C27.384 11.541 27.828 11.0565 27.705 10.4505C27.7035 10.4445 27.702 10.44 27.702 10.434C28.2165 11.8605 28.497 13.398 28.497 15C28.497 22.4445 22.4415 28.5 14.997 28.5H15Z" fill="#343434"/>
</svg>
