<svg width="30" height="30" viewBox="0 0 30 30" fill="none" xmlns="http://www.w3.org/2000/svg">
<path d="M23.3387 5.66125C20.9775 3.3 17.8387 2 14.5 2C11.1613 2 8.0225 3.3 5.66125 5.66125C3.3 8.0225 2 11.1613 2 14.5C2 17.8387 3.3 20.9775 5.66125 23.3387C8.0225 25.7 11.1613 27 14.5 27C17.8387 27 20.9775 25.7 23.3387 23.3387C25.7 20.9775 27 17.8387 27 14.5C27 11.1613 25.7 8.0225 23.3387 5.66125ZM24.9963 10.4513C24.7525 10.0125 24.14 9.80375 23.34 9.53125C22.4813 9.23875 22.1775 8.35625 21.8263 7.33375C21.5212 6.44625 21.2062 5.53 20.4575 4.96C22.5063 6.24375 24.1125 8.16875 24.9963 10.4513ZM21.4888 14.7388C21.5837 15.585 21.6812 16.4612 20.63 17.6412C20.3463 17.96 20.18 18.4037 20.0037 18.8737C19.5963 19.9625 19.2113 20.9912 17.5712 21.0063C17.525 20.9513 17.395 20.7437 17.2787 20.09C17.1725 19.4875 17.1112 18.7075 17.045 17.8837C16.945 16.6187 16.8312 15.1838 16.5187 13.9938C16.1187 12.4725 15.4475 11.5737 14.4675 11.2463C14.04 11.1038 13.6025 11.0338 13.1325 11.0338C12.785 11.0338 12.47 11.0712 12.1925 11.1038C11.9763 11.1287 11.7712 11.1537 11.5988 11.1537C11.3062 11.1537 10.975 11.1537 10.5662 10.2188C9.98 8.875 10.4125 6.72125 12.1338 5.585C13.0775 4.9625 13.7288 4.69625 14.3112 4.69625C14.7762 4.69625 15.2775 4.8575 15.9888 5.2375C16.8287 5.685 17.4875 5.7425 17.9675 5.7425C18.1575 5.7425 18.33 5.7325 18.4963 5.7225C18.6362 5.71375 18.7675 5.70625 18.89 5.70625C19.165 5.70625 19.3875 5.7425 19.6488 5.92C20.13 6.24875 20.38 6.975 20.6437 7.7425C21.0438 8.9075 21.4975 10.2275 22.9375 10.7175C23.1313 10.7837 23.4638 10.8962 23.7 10.995C23.4963 11.205 23.1563 11.5087 22.8225 11.8062C22.6075 11.9987 22.3638 12.2162 22.0938 12.4625C21.3138 13.1737 21.4062 14.0063 21.4888 14.74V14.7388ZM3.25125 14.4038C3.38625 14.4275 3.53125 14.4562 3.68125 14.4875C4.38375 14.6375 4.7125 14.7725 4.85625 14.8488C4.79 14.9775 4.65625 15.1675 4.5675 15.2925C4.25875 15.7312 3.87375 16.2775 4.02 16.8787C4.11875 17.285 4.035 17.7825 3.89125 18.2425C3.47625 17.07 3.25 15.81 3.25 14.4975C3.25 14.465 3.25125 14.4337 3.25125 14.4012V14.4038ZM14.5 25.75C10.2188 25.75 6.4875 23.345 4.5875 19.8162C4.915 19.1925 5.5225 17.8125 5.23875 16.605C5.25875 16.4838 5.465 16.1912 5.58875 16.015C5.9275 15.5337 6.34875 14.9362 6.03625 14.3025C5.8175 13.8575 5.23125 13.5575 4.07875 13.2975C3.81125 13.2375 3.55125 13.1888 3.33 13.15C4 7.58125 8.7525 3.25125 14.4987 3.25125C16.4712 3.25125 18.3263 3.7625 19.9387 4.6575C19.54 4.48375 19.1787 4.45625 18.8888 4.45625C18.73 4.45625 18.5725 4.465 18.42 4.475C18.2712 4.48375 18.1175 4.4925 17.965 4.4925C17.61 4.4925 17.1675 4.45 16.575 4.13375C15.67 3.6525 14.9925 3.44625 14.31 3.44625C13.465 3.44625 12.6075 3.77375 11.4437 4.54125C10.4375 5.205 9.68 6.22 9.31 7.40125C8.94875 8.5525 8.9875 9.73125 9.41875 10.7188C9.9275 11.8837 10.5988 12.4037 11.5963 12.4037C11.8425 12.4037 12.0825 12.375 12.3363 12.345C12.5925 12.315 12.8563 12.2838 13.13 12.2838C13.4688 12.2838 13.7675 12.3313 14.0687 12.4313C14.6175 12.615 15.0225 13.23 15.3075 14.3112C15.5925 15.3925 15.7 16.7688 15.7962 17.9812C15.8762 18.9937 15.9512 19.9487 16.1175 20.67C16.2188 21.1075 16.3488 21.44 16.5175 21.6862C16.7688 22.0537 17.1287 22.2563 17.5312 22.2563C18.6362 22.2563 19.5188 21.9 20.155 21.1975C20.6838 20.6138 20.9538 19.8925 21.1712 19.3125C21.2987 18.9713 21.4312 18.6175 21.56 18.4725C22.9812 16.8763 22.835 15.5612 22.7275 14.6C22.6488 13.895 22.6475 13.645 22.9325 13.385C23.1975 13.1438 23.4387 12.9275 23.6512 12.7375C24.105 12.3325 24.4325 12.04 24.6625 11.79C24.82 11.6175 25.19 11.2137 25.0875 10.7087C25.0862 10.7037 25.085 10.7 25.085 10.695C25.5138 11.8837 25.7475 13.165 25.7475 14.5C25.7475 20.7038 20.7013 25.75 14.4975 25.75H14.5Z" fill="#343434"/>
</svg>
