<svg width="30" height="30" viewBox="0 0 30 30" fill="none" xmlns="http://www.w3.org/2000/svg">
<path d="M26.7719 7.33579L19.7406 0.230526C19.5938 0.0821053 19.3953 0 19.1875 0H4.34375C3.05156 0 2 1.06263 2 2.36842V27.6316C2 28.9374 3.05156 30 4.34375 30H24.6562C25.9484 30 27 28.9374 27 27.6316V7.89474C27 7.68474 26.9172 7.48421 26.7719 7.33579ZM25.1141 7.89474H19.9688C19.5375 7.89474 19.1875 7.54105 19.1875 7.10526V1.90579L25.1141 7.89474ZM25.4375 27.6316C25.4375 28.0674 25.0875 28.4211 24.6562 28.4211H4.34375C3.9125 28.4211 3.5625 28.0674 3.5625 27.6316V2.36842C3.5625 1.93263 3.9125 1.57895 4.34375 1.57895H17.625V7.10526C17.625 8.41105 18.6766 9.47368 19.9688 9.47368H25.4375V27.6316Z" fill="#343434"/>
</svg>
