<svg width="30" height="30" viewBox="0 0 30 30" fill="none" xmlns="http://www.w3.org/2000/svg">
<path d="M22.5175 21C22.5175 21 20.4876 21 19.2461 21L19.4756 19.5L17.2635 14.25L13.2065 9.75H6.00468L4.50351 10.5352C4.50351 9.29466 4.50351 3.75 4.50351 3.75C4.50351 2.5095 5.5138 1.5 6.75526 1.5H12.7599V3H6.75526C6.34094 3 6.00468 3.336 6.00468 3.75V9.75H13.2065L17.2635 14.25L19.4756 19.5H23.749L25.5199 17.748V3.75C25.5199 3.336 25.1836 3 24.7693 3H12.7599V1.5H24.7693C26.0108 1.5 27.0211 2.5095 27.0211 3.75V16.3285L25.5199 17.748L23.749 19.5L22.5175 21Z" fill="#343434"/>
<path d="M29.9942 15.2095V27.4649C29.9942 27.7269 30.036 27.9461 29.8948 28.1439C29.7535 28.3417 29.5266 28.4582 29.2845 28.4588L16.371 28.4661C16.0902 28.4668 15.8324 28.3088 15.7036 28.0603C15.5749 27.8119 15.5965 27.5104 15.7604 27.2809C15.7604 27.2809 23.3188 19.9713 28.0843 15.2095C28.3687 14.9253 28.6942 14.4595 29.2102 14.4595C29.7262 14.4595 29.9942 14.9517 29.9942 15.2095ZM28.6535 26.9591V16.7563L18.3267 26.9591H28.6535Z" fill="#343434"/>
<path d="M9.7576 28.5C4.37741 28.5 0 24.126 0 18.75C0 13.374 4.37741 9 9.7576 9C15.1378 9 19.5152 13.374 19.5152 18.75C19.5152 24.126 15.1378 28.5 9.7576 28.5ZM9.7576 10.5C5.20456 10.5 1.50117 14.2005 1.50117 18.75C1.50117 23.2995 5.20456 27 9.7576 27C14.3107 27 18.014 23.2995 18.014 18.75C18.014 14.2005 14.3107 10.5 9.7576 10.5Z" fill="#343434"/>
</svg>
