<svg width="30" height="30" viewBox="0 0 30 30" fill="none" xmlns="http://www.w3.org/2000/svg">
<path d="M25.9688 1.5H4.03125C2.63569 1.5 1.5 2.63569 1.5 4.03125V25.9688C1.5 27.3643 2.63569 28.5 4.03125 28.5H25.9688C27.3643 28.5 28.5 27.3643 28.5 25.9688V4.03125C28.5 2.63569 27.3643 1.5 25.9688 1.5ZM26.8125 4.03125V9.9375H20.0625V3.1875H25.9688C26.4345 3.1875 26.8125 3.5655 26.8125 4.03125ZM11.625 18.375V11.625H18.375V18.375H11.625ZM18.375 20.0625V26.8125H11.625V20.0625H18.375ZM9.9375 18.375H3.1875V11.625H9.9375V18.375ZM11.625 9.9375V3.1875H18.375V9.9375H11.625ZM20.0625 11.625H26.8125V18.375H20.0625V11.625ZM4.03125 3.1875H9.9375V9.9375H3.1875V4.03125C3.1875 3.5655 3.5655 3.1875 4.03125 3.1875ZM3.1875 25.9688V20.0625H9.9375V26.8125H4.03125C3.5655 26.8125 3.1875 26.4345 3.1875 25.9688ZM25.9688 26.8125H20.0625V20.0625H26.8125V25.9688C26.8125 26.4345 26.4345 26.8125 25.9688 26.8125Z" fill="#343434"/>
</svg>
