<svg width="30" height="30" viewBox="0 0 30 30" fill="none" xmlns="http://www.w3.org/2000/svg">
<path d="M29.8084 16.8547L16.564 1.72856C16.153 1.25887 15.598 1 15.0009 1C14.4054 1 13.8504 1.25887 13.4378 1.72856L0.193514 16.8547C-0.0840032 17.1725 -0.0600017 17.6623 0.246017 17.9491C0.390026 18.084 0.570038 18.1491 0.748549 18.1491C0.952562 18.1491 1.15657 18.0638 1.30508 17.8933L4.49878 14.2459V26.6748C4.49878 27.9568 5.50835 29 6.74892 29H23.25C24.4905 29 25.5001 27.9568 25.5001 26.6748V14.2459L28.6938 17.8933C28.9713 18.2111 29.4453 18.2359 29.7529 17.9476C30.0604 17.6592 30.0844 17.171 29.8054 16.8532L29.8084 16.8547ZM18.0011 27.4499H12.0008V20.4743C12.0008 20.0464 12.3368 19.6992 12.7508 19.6992H17.2511C17.6651 19.6992 18.0011 20.0464 18.0011 20.4743V27.4499ZM24.0015 26.6748C24.0015 27.1026 23.6655 27.4499 23.2515 27.4499H19.5012V20.4743C19.5012 19.1923 18.4917 18.1491 17.2511 18.1491H12.7508C11.5102 18.1491 10.5007 19.1923 10.5007 20.4743V27.4499H6.75042C6.3364 27.4499 6.00038 27.1026 6.00038 26.6748V12.533L14.5509 2.76715C14.6739 2.62609 14.8344 2.54858 15.0009 2.54858C15.1674 2.54858 15.328 2.62609 15.451 2.76715L24.0015 12.533V26.6748Z" fill="#343434"/>
</svg>
