<svg width="30" height="30" viewBox="0 0 30 30" fill="none" xmlns="http://www.w3.org/2000/svg">
<path d="M0.75 18C0.57 18 0.39 17.9355 0.2475 17.8065C-0.06 17.529 -0.0840001 17.055 0.195 16.7475L13.4385 2.1105C13.8495 1.656 14.4045 1.4055 15.0015 1.4055C15.597 1.4055 16.152 1.656 16.5645 2.1105L29.808 16.7475C30.0855 17.055 30.0615 17.529 29.7555 17.8065C29.4495 18.084 28.974 18.06 28.6965 17.754L15.453 3.117C15.33 2.9805 15.1695 2.9055 15.003 2.9055C14.8365 2.9055 14.676 2.9805 14.553 3.117L1.3095 17.754C1.161 17.9175 0.957 18.0015 0.753 18.0015L0.75 18Z" fill="#343434"/>
<path d="M23.25 30H6.75C5.5095 30 4.5 28.9905 4.5 27.75V15.75C4.5 15.336 4.836 15 5.25 15C5.664 15 6 15.336 6 15.75V27.75C6 28.164 6.336 28.5 6.75 28.5H23.25C23.664 28.5 24 28.164 24 27.75V15.75C24 15.336 24.336 15 24.75 15C25.164 15 25.5 15.336 25.5 15.75V27.75C25.5 28.9905 24.4905 30 23.25 30Z" fill="#343434"/>
</svg>
