<svg width="30" height="30" viewBox="0 0 30 30" fill="none" xmlns="http://www.w3.org/2000/svg">
<path d="M11.7805 10.719L2.56151 1.5H8.25101C8.66501 1.5 9.00101 1.164 9.00101 0.75C9.00101 0.336 8.66501 0 8.25101 0H0.751007C0.337007 0 0.00100708 0.336 0.00100708 0.75V8.25C0.00100708 8.664 0.337007 9 0.751007 9C1.16501 9 1.50101 8.664 1.50101 8.25V2.5605L10.72 11.7795C10.867 11.9265 11.059 11.9985 11.251 11.9985C11.443 11.9985 11.635 11.925 11.782 11.7795C12.0745 11.487 12.0745 11.0115 11.782 10.719H11.7805Z" fill="#343434"/>
<path d="M29.25 0H21.75C21.336 0 21 0.336 21 0.75C21 1.164 21.336 1.5 21.75 1.5H27.4395L18.2205 10.719C17.928 11.0115 17.928 11.487 18.2205 11.7795C18.3675 11.9265 18.5595 11.9985 18.75 11.9985C18.9405 11.9985 19.134 11.925 19.2795 11.7795L28.5 2.5605V8.25C28.5 8.664 28.836 9 29.25 9C29.664 9 30 8.664 30 8.25V0.75C30 0.336 29.664 0 29.25 0Z" fill="#343434"/>
<path d="M11.781 18.2205C11.4885 17.928 11.013 17.928 10.7205 18.2205L1.5015 27.4395V21.75C1.5015 21.336 1.1655 21 0.751495 21C0.337495 21 0.00149536 21.336 0.00149536 21.75V29.25C0.00149536 29.664 0.337495 30 0.751495 30H8.25149C8.66549 30 9.00149 29.664 9.00149 29.25C9.00149 28.836 8.66549 28.5 8.25149 28.5H2.562L11.781 19.2795C12.0735 18.987 12.0735 18.5115 11.781 18.219V18.2205Z" fill="#343434"/>
<path d="M29.25 21C28.836 21 28.5 21.336 28.5 21.75V27.4395L19.2795 18.2205C18.987 17.928 18.5115 17.928 18.219 18.2205C17.9265 18.513 17.9265 18.9885 18.219 19.281L27.4395 28.5H21.75C21.336 28.5 21 28.836 21 29.25C21 29.664 21.336 30 21.75 30H29.25C29.664 30 30 29.664 30 29.25V21.75C30 21.336 29.664 21 29.25 21Z" fill="#343434"/>
</svg>
