<svg width="30" height="30" viewBox="0 0 30 30" fill="none" xmlns="http://www.w3.org/2000/svg">
<path d="M26.4812 2H3.51879C1.57852 2 0 3.52936 0 5.40913V23.5909C0 25.4707 1.57852 27 3.51879 27H26.4812C28.4215 27 30 25.4707 30 23.5909V5.40908C30 3.52936 28.4215 2 26.4812 2ZM27.6541 23.5909C27.6541 24.2175 27.128 24.7273 26.4812 24.7273H3.51879C2.87203 24.7273 2.34586 24.2175 2.34586 23.5909V18.0334L7.34578 10.9537L9.69357 13.797L3.76283 22.0566L5.68857 23.3545L12.9498 13.2419L20.6255 22.9092H27.6541V23.5909ZM27.6541 20.6364H21.7805L12.8547 9.3945L11.0909 11.851L7.19854 7.13729L2.34586 14.0086V5.40913C2.34586 4.78254 2.87203 4.27277 3.51879 4.27277H26.4812C27.128 4.27277 27.6541 4.78254 27.6541 5.40913V20.6364Z" fill="#343434"/>
<path d="M22.1413 6.0909C20.2011 6.0909 18.6226 7.6202 18.6226 9.49997C18.6226 11.3798 20.2011 12.909 22.1413 12.909C24.0816 12.909 25.6601 11.3798 25.6601 9.49997C25.6601 7.6202 24.0816 6.0909 22.1413 6.0909ZM22.1413 10.6364C21.4946 10.6364 20.9684 10.1266 20.9684 9.50003C20.9684 8.87344 21.4946 8.36367 22.1413 8.36367C22.7881 8.36367 23.3143 8.87344 23.3143 9.50003C23.3143 10.1266 22.7881 10.6364 22.1413 10.6364Z" fill="#343434"/>
</svg>
