<svg width="30" height="30" viewBox="0 0 30 30" fill="none" xmlns="http://www.w3.org/2000/svg">
<path d="M14.9987 28C14.7947 28 14.6013 27.9055 14.4747 27.7422C14.3987 27.6436 12.584 25.2933 10.7453 21.8224C9.66267 19.7799 8.79867 17.7738 8.17867 15.8608C7.396 13.4484 7 11.1736 7 9.1C7 4.6342 10.5893 1 15 1C19.4107 1 23 4.6342 23 9.1C23 11.1736 22.6027 13.447 21.8213 15.8608C21.2013 17.7738 20.3373 19.7799 19.2547 21.8224C17.4147 25.2933 15.6013 27.6436 15.5253 27.7422C15.3987 27.9055 15.2053 28 15.0013 28H14.9987ZM14.9987 2.35C11.3227 2.35 8.332 5.37805 8.332 9.1C8.332 13.4929 10.2827 18.0964 11.92 21.1839C13.1227 23.4532 14.332 25.2528 14.9987 26.1924C15.668 25.2487 16.8853 23.4384 18.0893 21.1623C19.72 18.0802 21.6653 13.4848 21.6653 9.1C21.6653 5.37805 18.6747 2.35 14.9987 2.35Z" fill="#343434"/>
<path d="M15 14C12.7947 14 11 12.2053 11 10C11 7.79467 12.7947 6 15 6C17.2053 6 19 7.79467 19 10C19 12.2053 17.2053 14 15 14ZM15 7.33333C13.5293 7.33333 12.3333 8.52933 12.3333 10C12.3333 11.4707 13.5293 12.6667 15 12.6667C16.4707 12.6667 17.6667 11.4707 17.6667 10C17.6667 8.52933 16.4707 7.33333 15 7.33333Z" fill="#343434"/>
</svg>
