<svg width="30" height="30" viewBox="0 0 30 30" fill="none" xmlns="http://www.w3.org/2000/svg">
<path d="M29.2105 26.25H0.789474C0.353684 26.25 0 25.914 0 25.5V10.5C0 10.086 0.353684 9.75 0.789474 9.75H29.2105C29.6463 9.75 30 10.086 30 10.5V25.5C30 25.914 29.6463 26.25 29.2105 26.25ZM1.57895 24.75H28.4211V11.25H1.57895V24.75Z" fill="#343434"/>
<path d="M18 17.25H12.75V15.75H18C18.414 15.75 18.75 15.414 18.75 15C18.75 14.586 18.414 14.25 18 14.25H15.75V13.5C15.75 13.086 15.414 12.75 15 12.75C14.586 12.75 14.25 13.086 14.25 13.5V14.25H12C11.586 14.25 11.25 14.586 11.25 15V18C11.25 18.414 11.586 18.75 12 18.75H17.25V20.25H12C11.586 20.25 11.25 20.586 11.25 21C11.25 21.414 11.586 21.75 12 21.75H14.25V22.5C14.25 22.914 14.586 23.25 15 23.25C15.414 23.25 15.75 22.914 15.75 22.5V21.75H18C18.414 21.75 18.75 21.414 18.75 21V18C18.75 17.586 18.414 17.25 18 17.25Z" fill="#343434"/>
<path d="M27.7059 8.25H2.29412C1.85576 8.25 1.5 7.914 1.5 7.5C1.5 7.086 1.85576 6.75 2.29412 6.75H27.7059C28.1442 6.75 28.5 7.086 28.5 7.5C28.5 7.914 28.1442 8.25 27.7059 8.25Z" fill="#343434"/>
<path d="M26.2 5.25H3.8C3.3584 5.25 3 4.914 3 4.5C3 4.086 3.3584 3.75 3.8 3.75H26.2C26.6416 3.75 27 4.086 27 4.5C27 4.914 26.6416 5.25 26.2 5.25Z" fill="#343434"/>
</svg>
