<svg width="30" height="30" viewBox="0 0 30 30" fill="none" xmlns="http://www.w3.org/2000/svg">
  <path d="M26.25 8.25H3.75C3.336 8.25 3 7.914 3 7.5C3 7.086 3.336 6.75 3.75 6.75H26.25C26.664 6.75 27 7.086 27 7.5C27 7.914 26.664 8.25 26.25 8.25Z" fill="#343434"/>
  <path d="M26.25 15.75H3.75C3.336 15.75 3 15.414 3 15C3 14.586 3.336 14.25 3.75 14.25H26.25C26.664 14.25 27 14.586 27 15C27 15.414 26.664 15.75 26.25 15.75Z" fill="#343434"/>
  <path d="M26.25 23.25H3.75C3.336 23.25 3 22.914 3 22.5C3 22.086 3.336 21.75 3.75 21.75H26.25C26.664 21.75 27 22.086 27 22.5C27 22.914 26.664 23.25 26.25 23.25Z" fill="#343434"/>
</svg>
