<svg width="30" height="30" viewBox="0 0 30 30" fill="none" xmlns="http://www.w3.org/2000/svg">
<g id="map">
<path id="Vector" d="M26.6868 2.09803C26.4934 1.97829 26.2513 1.96776 26.0473 2.06908L18.4469 5.86918L10.8465 2.06908C10.661 1.97698 10.4439 1.97698 10.2583 2.06908L2.36318 6.01655C2.1408 6.1284 2 6.35604 2 6.60473V26.3421C2 26.5697 2.11843 26.7816 2.31186 26.9013C2.41713 26.9671 2.53687 27 2.65793 27C2.75793 27 2.85926 26.9763 2.95268 26.9303L10.5531 23.1302L18.1535 26.9303C18.339 27.0224 18.5575 27.0224 18.7417 26.9303L26.6368 22.9828C26.8592 22.8709 27 22.6433 27 22.3946V2.65726C27 2.42962 26.8816 2.21777 26.6881 2.09803H26.6868ZM9.89252 21.988L3.31323 25.2776V7.01132L9.89252 3.72176V21.988ZM11.2084 3.72176L17.7877 7.01132V25.2776L11.2084 21.988V3.72176ZM25.6828 21.988L19.1035 25.2776V7.01132L25.6828 3.72176V21.988Z" fill="#343434"/>
</g>
</svg>
