<svg width="30" height="30" viewBox="0 0 30 30" fill="none" xmlns="http://www.w3.org/2000/svg">
<path d="M26.25 0H3.75C1.68187 0 0 1.68187 0 3.75V26.25C0 28.3181 1.68187 30 3.75 30H26.25C28.3181 30 30 28.3181 30 26.25V3.75C30 1.68187 28.3181 0 26.25 0ZM27.5 3.75V6.25H8.75V2.5H26.25C26.9394 2.5 27.5 3.06063 27.5 3.75ZM3.75 2.5H6.25V6.25H2.5V3.75C2.5 3.06063 3.06063 2.5 3.75 2.5ZM2.5 26.25V8.75H6.25V27.5H3.75C3.06063 27.5 2.5 26.9394 2.5 26.25ZM26.25 27.5H8.75V8.75H27.5V26.25C27.5 26.9394 26.9394 27.5 26.25 27.5Z" fill="#343434"/>
</svg>
