<svg width="30" height="30" viewBox="0 0 30 30" fill="none" xmlns="http://www.w3.org/2000/svg">
<path d="M14.5 6.44893C11.306 6.44893 8.70735 8.94742 8.70735 12.0184C8.70735 15.0894 11.306 17.5879 14.5 17.5879C17.6941 17.5879 20.2927 15.0894 20.2927 12.0184C20.2927 8.94742 17.6941 6.44893 14.5 6.44893ZM14.5 15.2429C12.6508 15.2429 11.1463 13.7964 11.1463 12.0184C11.1463 10.2405 12.6508 8.79397 14.5 8.79397C16.3492 8.79397 17.8537 10.2405 17.8537 12.0184C17.8537 13.7964 16.3492 15.2429 14.5 15.2429Z" fill="#343434"/>
<path d="M14.5 0C7.60747 0 2 5.3915 2 12.0185V12.3507C2 15.7022 3.99851 19.6079 7.9402 23.9589C10.7976 27.1131 13.6151 29.3125 13.7336 29.4046L14.5 30L15.2664 29.4046C15.3849 29.3125 18.2024 27.1131 21.0598 23.9589C25.0014 19.6079 27 15.7023 27 12.3507V12.0185C27 5.3915 21.3925 0 14.5 0ZM24.561 12.3507C24.561 18.0147 16.9707 24.8711 14.5 26.9524C12.0286 24.8704 4.439 18.0143 4.439 12.3507V12.0185C4.439 6.68461 8.95238 2.3451 14.5 2.3451C20.0476 2.3451 24.561 6.68461 24.561 12.0185V12.3507Z" fill="#343434"/>
</svg>
