<svg width="30" height="30" viewBox="0 0 30 30" fill="none" xmlns="http://www.w3.org/2000/svg">
<path d="M27.9722 16.8112C28.6273 16.0447 29 14.7788 29 13.5728C29 12.7764 28.8299 12.0789 28.5075 11.5554C28.0875 10.8745 27.4161 10.4995 26.6175 10.4995H22.7457C24.8531 6.61317 25.3855 3.68532 24.3281 1.78941C23.5901 0.467977 22.2384 0 21.3037 0C20.934 0 20.6205 0.277486 20.5717 0.649468C20.307 2.62787 18.8147 4.98875 16.478 7.12614C14.239 9.17354 11.4882 10.81 8.66051 11.7909C8.3041 11.0289 7.5395 10.501 6.65511 10.501H2.21837C0.995308 10.501 0 11.5104 0 12.7509V26.2502C0 27.4906 0.995308 28.5001 2.21837 28.5001H6.65511C7.59274 28.5001 8.39431 27.9076 8.71967 27.0721C11.6198 27.4411 12.7113 28.0321 13.7687 28.6051C15.0923 29.322 16.3405 30 20.4282 30C21.493 30 22.4957 29.718 23.2529 29.2065C23.9924 28.7071 24.4657 28.0051 24.6224 27.1921C25.2125 26.9492 25.736 26.3882 26.1368 25.5542C26.5273 24.7428 26.7802 23.7063 26.7802 22.9129C26.7802 22.7644 26.7713 22.6279 26.755 22.5019C27.1292 22.2229 27.4649 21.7924 27.7414 21.2254C28.1408 20.408 28.3803 19.3835 28.3803 18.4866C28.3803 17.8506 28.2635 17.3211 28.0343 16.9102C28.015 16.8772 27.9958 16.8442 27.9766 16.8127L27.9722 16.8112ZM6.65215 26.9986H2.21541C1.80723 26.9986 1.47596 26.6627 1.47596 26.2487V12.7494C1.47596 12.3354 1.80723 11.9994 2.21541 11.9994H6.65215C7.06033 11.9994 7.39161 12.3354 7.39161 12.7494V26.2472V26.2487C7.39161 26.6627 7.06033 26.9986 6.65215 26.9986ZM27.1188 15.4102C26.8955 15.8662 26.6692 16.0312 26.5716 16.0312C26.1634 16.0312 25.8322 16.3672 25.8322 16.7812C25.8322 17.1951 26.1634 17.5311 26.5716 17.5311C26.6337 17.5311 26.6781 17.5311 26.7447 17.6481C26.8423 17.8236 26.8985 18.1281 26.8985 18.4851C26.8985 19.1525 26.7121 19.946 26.4134 20.558C26.1206 21.1564 25.8233 21.3739 25.6932 21.3739C25.285 21.3739 24.9537 21.7099 24.9537 22.1239C24.9537 22.3894 25.0898 22.6234 25.2953 22.7569C25.3412 23.2323 25.1223 24.5043 24.5544 25.3337C24.3399 25.6472 24.1137 25.8272 23.9362 25.8272C23.528 25.8272 23.1967 26.1632 23.1967 26.5772C23.1967 27.8971 21.7592 28.4986 20.4238 28.4986C16.7073 28.4986 15.6661 27.9346 14.4608 27.2806C13.3339 26.6702 12.0679 25.9832 8.86904 25.5797V13.2998C11.9762 12.2664 15.0095 10.4845 17.4645 8.24059C19.8204 6.0867 21.3673 3.75881 21.8923 1.60192C22.2946 1.73241 22.7486 2.0084 23.04 2.52887C23.5339 3.41383 23.9037 5.67272 20.832 10.864C20.6944 11.0949 20.6915 11.3844 20.8231 11.6199C20.9547 11.8554 21.2002 12.0009 21.4664 12.0009H26.6175C26.9118 12.0009 27.1011 12.1059 27.2534 12.3519C27.4264 12.6324 27.5211 13.0673 27.5211 13.5743C27.5211 14.2103 27.3702 14.8973 27.1188 15.4117V15.4102Z" fill="#343434"/>
</svg>
