<svg width="30" height="30" viewBox="0 0 30 30" fill="none" xmlns="http://www.w3.org/2000/svg">
<path d="M15 30C14.7705 30 14.553 29.895 14.4105 29.7135C14.325 29.604 12.2835 26.9925 10.215 23.136C8.99701 20.8665 8.02501 18.6375 7.32751 16.512C6.44701 13.8315 6.00151 11.304 6.00151 9C6.00151 4.038 10.0395 0 15.0015 0C19.9635 0 24.0015 4.038 24.0015 9C24.0015 11.304 23.5545 13.83 22.6755 16.512C21.978 18.6375 21.006 20.8665 19.788 23.136C17.718 26.9925 15.678 29.604 15.5925 29.7135C15.45 29.895 15.2325 30 15.003 30H15ZM15 1.5C10.8645 1.5 7.50001 4.8645 7.50001 9C7.50001 13.881 9.69451 18.996 11.5365 22.4265C12.8895 24.948 14.25 26.9475 15 27.9915C15.753 26.943 17.1225 24.9315 18.477 22.4025C20.3115 18.978 22.5 13.872 22.5 9C22.5 4.8645 19.1355 1.5 15 1.5Z" fill="#343434"/>
<path d="M15 13.5C12.519 13.5 10.5 11.481 10.5 9C10.5 6.519 12.519 4.5 15 4.5C17.481 4.5 19.5 6.519 19.5 9C19.5 11.481 17.481 13.5 15 13.5ZM15 6C13.3455 6 12 7.3455 12 9C12 10.6545 13.3455 12 15 12C16.6545 12 18 10.6545 18 9C18 7.3455 16.6545 6 15 6Z" fill="#343434"/>
</svg>
