<svg width="30" height="30" viewBox="0 0 30 30" fill="none" xmlns="http://www.w3.org/2000/svg">
<g id="plus">
<path id="Vector" d="M28.3719 12.907H17.093V1.62791C17.093 1.1141 16.3953 0 14.9999 0C13.6046 0 12.9069 1.11416 12.9069 1.62791V12.907H1.6279C1.11416 12.907 0 13.6047 0 14.9999C0 16.3952 1.11416 17.093 1.6279 17.093H12.907V28.3721C12.907 28.8858 13.6046 30 15 30C16.3954 30 17.093 28.8858 17.093 28.3721V17.093H28.3721C28.8858 17.093 30 16.3953 30 14.9999C30 13.6045 28.8857 12.907 28.3719 12.907Z" fill="#343434"/>
</g>
</svg>
