<svg width="30" height="30" viewBox="0 0 30 30" fill="none" xmlns="http://www.w3.org/2000/svg">
<path fill-rule="evenodd" clip-rule="evenodd" d="M3.96946 2H26.0305C28.2142 2 29.9917 3.80972 29.9999 6.03744C30 6.04615 30 6.05486 29.9999 6.06357V22.947C29.9999 25.1818 28.2193 27 26.0305 27H3.96946C1.78067 27 0 25.1818 0 22.947V6.06348L3.96946 2ZM2.52788 5.48322L14.9999 14.3974L27.4721 5.48322C27.2478 4.8937 26.6861 4.4747 26.0305 4.4747H3.96946C3.31381 4.4747 2.75216 4.89369 2.52788 5.48322ZM2.42369 8.42943V22.947C2.42369 23.8173 3.11715 24.5253 3.96946 24.5253H26.0305C26.8828 24.5253 27.5763 23.8173 27.5763 22.947V8.42943L15.6949 16.9215C15.4862 17.0706 15 17.3409 15 17.3409C15 17.3409 14.5137 17.0706 14.305 16.9215L2.42369 8.42943Z" fill="#343434"/>
<path d="M3.96946 2C1.78577 2 0.00826392 3.83583 0 6.06348L3.96946 2Z" fill="#343434"/>
</svg>
