<svg width="30" height="30" viewBox="0 0 30 30" fill="none" xmlns="http://www.w3.org/2000/svg">
<path d="M27.6316 5H2.36842C1.06263 5 0 6.06558 0 7.375V21.625C0 22.9344 1.06263 24 2.36842 24H27.6316C28.9374 24 30 22.9344 30 21.625V7.375C30 6.06558 28.9374 5 27.6316 5ZM27.6316 6.58333C27.6789 6.58333 27.7232 6.58808 27.7689 6.596L15.8763 14.5459C15.4184 14.8515 14.5832 14.8515 14.1253 14.5459L2.23263 6.596C2.27684 6.58808 2.32263 6.58333 2.37 6.58333H27.6332H27.6316ZM27.6316 22.4167H2.36842C1.93263 22.4167 1.57895 22.062 1.57895 21.625V8.06217L13.2489 15.8633C13.74 16.191 14.37 16.3557 15 16.3557C15.63 16.3557 16.26 16.191 16.7511 15.8633L28.4211 8.06217V21.625C28.4211 22.062 28.0674 22.4167 27.6316 22.4167Z" fill="#343434"/>
</svg>
