<svg width="30" height="30" viewBox="0 0 30 30" fill="none" xmlns="http://www.w3.org/2000/svg">
<path d="M5.45449 0C2.45454 0 0 2.45455 0 5.45452V24.5455C0 27.5455 2.45454 30 5.45449 30C8.45444 30 10.909 27.5455 10.909 24.5455V5.45452C10.9091 2.45455 8.4546 0 5.45449 0ZM8.18189 24.5456C8.18189 26.1821 7.09106 27.2729 5.45465 27.2729C3.81824 27.2729 2.7274 26.1821 2.7274 24.5456V5.45452C2.7274 3.8181 3.81824 2.72726 5.45465 2.72726C7.09106 2.72726 8.18189 3.8181 8.18189 5.45452V24.5456Z" fill="#343434"/>
<path d="M24.5455 0C21.5455 0 19.091 2.45455 19.091 5.45452V24.5455C19.091 27.5455 21.5455 30 24.5455 30C27.5455 30 30 27.5455 30 24.5455V5.45452C30 2.45455 27.5455 0 24.5455 0ZM27.2728 24.5456C27.2728 26.1821 26.1819 27.2729 24.5455 27.2729C22.9091 27.2729 21.8183 26.1821 21.8183 24.5456V5.45452C21.8183 3.8181 22.9091 2.72726 24.5455 2.72726C26.1819 2.72726 27.2728 3.8181 27.2728 5.45452V24.5456Z" fill="#343434"/>
</svg>
