<svg width="30" height="30" viewBox="0 0 30 30" fill="none" xmlns="http://www.w3.org/2000/svg">
<path d="M15 22C11.1407 22 8 18.8593 8 15C8 11.1407 11.1407 8 15 8C18.8593 8 22 11.1407 22 15C22 18.8593 18.8593 22 15 22ZM15 9.55556C11.9978 9.55556 9.55556 11.9978 9.55556 15C9.55556 18.0022 11.9978 20.4444 15 20.4444C18.0022 20.4444 20.4444 18.0022 20.4444 15C20.4444 11.9978 18.0022 9.55556 15 9.55556Z" fill="#343434"/>
<path d="M27.6287 27H2.36817C1.06252 27 0 25.9233 0 24.6002V8.60123C0 7.27811 1.06252 6.20139 2.36817 6.20139H4.73634C5.39154 6.20139 6.40985 5.77422 6.87401 5.30385L7.79918 4.36631C8.56805 3.58716 9.96685 3 11.053 3H18.947C20.0332 3 21.432 3.58716 22.2008 4.36631L23.126 5.30385C23.5886 5.77262 24.6085 6.20139 25.2637 6.20139H27.6318C28.9375 6.20139 30 7.27811 30 8.60123V24.6002C30 25.9233 28.9375 27 27.6318 27H27.6287ZM2.36817 7.80128C1.93243 7.80128 1.57878 8.15966 1.57878 8.60123V24.6002C1.57878 25.0417 1.93243 25.4001 2.36817 25.4001H27.6287C28.0644 25.4001 28.4181 25.0417 28.4181 24.6002V8.60123C28.4181 8.15966 28.0644 7.80128 27.6287 7.80128H25.2605C24.1743 7.80128 22.7755 7.21412 22.0066 6.43497L21.0815 5.49743C20.6189 5.02866 19.599 4.59989 18.9438 4.59989H11.0499C10.3947 4.59989 9.37638 5.02706 8.91222 5.49743L7.98705 6.43497C7.21819 7.21412 5.82097 7.80128 4.73319 7.80128H2.36501H2.36817Z" fill="#343434"/>
</svg>
