<svg width="30" height="30" viewBox="0 0 30 30" fill="none" xmlns="http://www.w3.org/2000/svg">
<g id="plus">
<path id="Vector" d="M26.0385 13.5385H15.4615V2.96154C15.4615 2.43077 15.0308 2 14.5 2C13.9692 2 13.5385 2.43077 13.5385 2.96154V13.5385H2.96154C2.43077 13.5385 2 13.9692 2 14.5C2 15.0308 2.43077 15.4615 2.96154 15.4615H13.5385V26.0385C13.5385 26.5692 13.9692 27 14.5 27C15.0308 27 15.4615 26.5692 15.4615 26.0385V15.4615H26.0385C26.5692 15.4615 27 15.0308 27 14.5C27 13.9692 26.5692 13.5385 26.0385 13.5385Z" fill="#343434"/>
</g>
</svg>
