<svg width="30" height="30" viewBox="0 0 30 30" fill="none" xmlns="http://www.w3.org/2000/svg">
<path d="M27.75 30H2.25C1.0095 30 0 28.9905 0 27.75V2.25C0 1.0095 1.0095 0 2.25 0H27.75C28.9905 0 30 1.0095 30 2.25V27.75C30 28.9905 28.9905 30 27.75 30ZM2.25 1.5C1.836 1.5 1.5 1.836 1.5 2.25V27.75C1.5 28.164 1.836 28.5 2.25 28.5H27.75C28.164 28.5 28.5 28.164 28.5 27.75V2.25C28.5 1.836 28.164 1.5 27.75 1.5H2.25Z" fill="#343434"/>
<path d="M20 14C18.3455 14 17 12.6545 17 11C17 9.3455 18.3455 8 20 8C21.6545 8 23 9.3455 23 11C23 12.6545 21.6545 14 20 14ZM20 9.5C19.1735 9.5 18.5 10.1735 18.5 11C18.5 11.8265 19.1735 12.5 20 12.5C20.8265 12.5 21.5 11.8265 21.5 11C21.5 10.1735 20.8265 9.5 20 9.5Z" fill="#343434"/>
<path d="M26.25 3H3.75C3.336 3 3 3.34462 3 3.76923V22.2308C3 22.6554 3.336 23 3.75 23H26.25C26.664 23 27 22.6554 27 22.2308V3.76923C27 3.34462 26.664 3 26.25 3ZM4.5 17.9077L9.3135 12.3523C9.4365 12.2108 9.597 12.1308 9.7665 12.1292C9.936 12.1277 10.098 12.2031 10.224 12.3415L18.5235 21.4615H4.5V17.9077ZM25.5 21.4615H20.5755L11.322 11.2923C10.9035 10.8323 10.3455 10.5831 9.7485 10.5908C9.1515 10.5985 8.5995 10.8615 8.193 11.3308L4.5 15.5923V4.53846H25.5V21.4615Z" fill="#343434"/>
</svg>
