<svg width="30" height="30" viewBox="0 0 30 30" fill="none" xmlns="http://www.w3.org/2000/svg">
<path d="M26.9 10H3.1C1.9422 10 1 9.10267 1 8C1 6.89733 1.9422 6 3.1 6H26.9C28.0578 6 29 6.89733 29 8C29 9.10267 28.0578 10 26.9 10ZM3.1 7.33333C2.7136 7.33333 2.4 7.632 2.4 8C2.4 8.368 2.7136 8.66667 3.1 8.66667H26.9C27.2864 8.66667 27.6 8.368 27.6 8C27.6 7.632 27.2864 7.33333 26.9 7.33333H3.1Z" fill="#343434"/>
<path d="M26.9 17H3.1C1.9422 17 1 16.1027 1 15C1 13.8973 1.9422 13 3.1 13H26.9C28.0578 13 29 13.8973 29 15C29 16.1027 28.0578 17 26.9 17ZM3.1 14.3333C2.7136 14.3333 2.4 14.632 2.4 15C2.4 15.368 2.7136 15.6667 3.1 15.6667H26.9C27.2864 15.6667 27.6 15.368 27.6 15C27.6 14.632 27.2864 14.3333 26.9 14.3333H3.1Z" fill="#343434"/>
<path d="M26.9 24H3.1C1.9422 24 1 23.1027 1 22C1 20.8973 1.9422 20 3.1 20H26.9C28.0578 20 29 20.8973 29 22C29 23.1027 28.0578 24 26.9 24ZM3.1 21.3333C2.7136 21.3333 2.4 21.632 2.4 22C2.4 22.368 2.7136 22.6667 3.1 22.6667H26.9C27.2864 22.6667 27.6 22.368 27.6 22C27.6 21.632 27.2864 21.3333 26.9 21.3333H3.1Z" fill="#343434"/>
</svg>
