<svg width="30" height="30" viewBox="0 0 30 30" fill="none" xmlns="http://www.w3.org/2000/svg">
<path d="M26.8695 18.9555C27.9405 17.9895 28.5 16.8975 28.5 15.75C28.5 14.2215 27.483 12.6975 25.6335 11.457C25.1235 11.115 24.5565 10.7985 23.943 10.512C23.979 10.26 23.9985 10.0065 23.9985 9.75C23.9985 7.7895 23.121 4.5 17.2485 4.5C16.2225 4.5 14.9985 4.2405 14.9985 3C14.9985 2.3205 15.8655 1.578 16.167 1.3725C16.4415 1.188 16.563 0.8475 16.467 0.531C16.371 0.2145 16.08 0 15.75 0C13.3995 0 10.983 0.7725 9.123 2.1195C8.1735 2.8065 7.4205 3.6015 6.8835 4.482C6.297 5.4435 6 6.459 6 7.5C6 7.932 6.036 8.361 6.105 8.7825C4.8315 9.3975 3.756 10.209 2.97 11.154C2.0085 12.309 1.5 13.6395 1.5 15C1.5 15.8415 1.6935 16.6995 2.0625 17.5275C0.711 18.7905 0 20.241 0 21.75C0 24.045 1.6245 26.1645 4.575 27.717C7.3725 29.1885 11.0745 30 15 30C18.9045 30 22.5855 29.355 25.368 28.1835C28.356 26.925 30 25.173 30 23.25C30 21.6885 28.89 20.1705 26.8695 18.9555V18.9555ZM24.7845 26.802C22.1835 27.897 18.708 28.5 15 28.5C11.313 28.5 7.8585 27.75 5.2725 26.3895C2.8395 25.1085 1.5 23.4615 1.5 21.75C1.5 20.577 2.1345 19.5975 2.835 18.8715C2.997 19.0995 3.174 19.323 3.3645 19.5405C4.5585 20.904 6.2205 21.945 8.0415 22.47C8.1105 22.4895 8.181 22.5 8.25 22.5C8.5755 22.5 8.8755 22.287 8.97 21.9585C9.0855 21.561 8.856 21.1455 8.457 21.03C5.346 20.1315 2.9985 17.5395 2.9985 15C2.9985 13.164 4.3185 11.4015 6.492 10.2675C7.278 12.432 8.937 14.229 10.998 14.958C11.0805 14.9865 11.1645 15.0015 11.2485 15.0015C11.5575 15.0015 11.847 14.8095 11.955 14.502C12.093 14.112 11.889 13.683 11.4975 13.545C9.2175 12.7395 7.497 10.1415 7.497 7.5015C7.497 5.9835 8.385 4.5045 9.999 3.336C11.115 2.529 12.4635 1.959 13.866 1.686C13.65 2.073 13.497 2.517 13.497 3.0015C13.497 4.452 14.4825 6.0015 17.247 6.0015C19.164 6.0015 20.5755 6.3825 21.4425 7.1355C22.1415 7.743 22.497 8.6235 22.497 9.7515C22.497 9.8085 22.4955 9.864 22.4925 9.921C21.3705 9.522 20.1435 9.2115 18.8625 9.0105C18.453 8.946 18.069 9.2265 18.0045 9.6345C17.94 10.0425 18.2205 10.428 18.6285 10.4925C21.045 10.872 23.235 11.658 24.7935 12.7035C26.214 13.656 26.9955 14.739 26.9955 15.7515C26.9955 16.7715 26.2005 17.619 25.416 18.207C23.568 17.382 21.2835 16.788 18.831 16.5075C18.42 16.461 18.048 16.7565 18 17.1675C17.952 17.5785 18.249 17.9505 18.66 17.9985C21.489 18.3225 24.057 19.0785 25.893 20.127C27.5715 21.0855 28.4955 22.1955 28.4955 23.253C28.4955 24.516 27.141 25.8105 24.78 26.805L24.7845 26.802Z" fill="#343434"/>
</svg>
