<svg width="30" height="30" viewBox="0 0 30 30" fill="none" xmlns="http://www.w3.org/2000/svg">
<path d="M27.75 25.5H2.25C1.0095 25.5 0 24.4905 0 23.25V6.75C0 5.5095 1.0095 4.5 2.25 4.5H27.75C28.9905 4.5 30 5.5095 30 6.75V23.25C30 24.4905 28.9905 25.5 27.75 25.5ZM2.25 6C1.836 6 1.5 6.336 1.5 6.75V23.25C1.5 23.664 1.836 24 2.25 24H27.75C28.164 24 28.5 23.664 28.5 23.25V6.75C28.5 6.336 28.164 6 27.75 6H2.25Z" fill="#343434"/>
<path d="M12.7515 21C12.7515 21 12.7515 21 12.75 21H5.25C4.836 21 4.5 20.664 4.5 20.25C4.5 20.151 4.5165 19.2585 5.082 18.3525C5.61 17.508 6.7185 16.5 9 16.5C11.2815 16.5 12.3885 17.508 12.918 18.3525C13.425 19.164 13.491 19.9635 13.5 20.193C13.5015 20.211 13.5015 20.2305 13.5015 20.25C13.5015 20.664 13.1655 21 12.7515 21ZM6.1755 19.5H11.8245C11.772 19.371 11.703 19.2345 11.6145 19.0995C11.1315 18.369 10.2525 18 9 18C7.7475 18 6.8685 18.3705 6.3855 19.0995C6.297 19.2345 6.228 19.3695 6.1755 19.5Z" fill="#343434"/>
<path d="M24.75 12H17.25C16.836 12 16.5 11.664 16.5 11.25C16.5 10.836 16.836 10.5 17.25 10.5H24.75C25.164 10.5 25.5 10.836 25.5 11.25C25.5 11.664 25.164 12 24.75 12Z" fill="#343434"/>
<path d="M23.25 15H17.25C16.836 15 16.5 14.664 16.5 14.25C16.5 13.836 16.836 13.5 17.25 13.5H23.25C23.664 13.5 24 13.836 24 14.25C24 14.664 23.664 15 23.25 15Z" fill="#343434"/>
<path d="M23.25 18H17.25C16.836 18 16.5 17.664 16.5 17.25C16.5 16.836 16.836 16.5 17.25 16.5H23.25C23.664 16.5 24 16.836 24 17.25C24 17.664 23.664 18 23.25 18Z" fill="#343434"/>
<path d="M9 15C7.3455 15 6 13.6545 6 12C6 10.3455 7.3455 9 9 9C10.6545 9 12 10.3455 12 12C12 13.6545 10.6545 15 9 15ZM9 10.5C8.1735 10.5 7.5 11.1735 7.5 12C7.5 12.8265 8.1735 13.5 9 13.5C9.8265 13.5 10.5 12.8265 10.5 12C10.5 11.1735 9.8265 10.5 9 10.5Z" fill="#343434"/>
<path d="M24.75 21H17.25C16.836 21 16.5 20.664 16.5 20.25C16.5 19.836 16.836 19.5 17.25 19.5H24.75C25.164 19.5 25.5 19.836 25.5 20.25C25.5 20.664 25.164 21 24.75 21Z" fill="#343434"/>
</svg>
