<svg width="30" height="30" viewBox="0 0 30 30" fill="none" xmlns="http://www.w3.org/2000/svg">
<path d="M27.8121 27.8268L19.3669 18.7492C21.2697 16.7878 22.3155 14.223 22.3155 11.5C22.3155 8.6958 21.2071 6.0582 19.1935 4.0758C17.1799 2.0934 14.5041 1 11.6578 1C8.81144 1 6.1342 2.092 4.12202 4.0758C2.10983 6.0596 1 8.6958 1 11.5C1 14.3042 2.10841 16.9418 4.12202 18.9242C6.13563 20.9066 8.81144 22 11.6578 22C14.1105 22 16.4353 21.1894 18.3196 19.697L26.7648 28.7732C26.9055 28.9244 27.0959 29 27.2892 29C27.4611 29 27.6331 28.9398 27.7695 28.8166C28.0594 28.5548 28.0779 28.1124 27.8135 27.8282L27.8121 27.8268ZM2.41962 11.5C2.41962 6.4824 6.56336 2.4 11.6564 2.4C16.7493 2.4 20.8931 6.4824 20.8931 11.5C20.8931 16.5176 16.7493 20.6 11.6564 20.6C6.56336 20.6 2.41962 16.5176 2.41962 11.5Z" fill="#343434"/>
</svg>
