<svg width="30" height="30" viewBox="0 0 30 30" fill="none" xmlns="http://www.w3.org/2000/svg">
<path d="M20.25 9H17.25C16.836 9 16.5 8.664 16.5 8.25V3.75C16.5 3.336 16.836 3 17.25 3H20.25C20.664 3 21 3.336 21 3.75V8.25C21 8.664 20.664 9 20.25 9ZM18 7.5H19.5V4.5H18V7.5Z" fill="#343434"/>
<path d="M29.781 3.969L26.031 0.219C25.89 0.078 25.6995 0 25.5 0H0.75C0.336 0 0 0.336 0 0.75V29.25C0 29.664 0.336 30 0.75 30H29.25C29.664 30 30 29.664 30 29.25V4.5C30 4.3005 29.9205 4.11 29.781 3.969ZM9 1.5H22.5V10.5H9V1.5ZM24 28.5H6V16.5H24V28.5ZM28.5 28.5H25.5V15.75C25.5 15.336 25.164 15 24.75 15H5.25C4.836 15 4.5 15.336 4.5 15.75V28.5H1.5V1.5H7.5V11.25C7.5 11.664 7.836 12 8.25 12H23.25C23.664 12 24 11.664 24 11.25V1.5H25.1895L28.5 4.8105V28.5Z" fill="#343434"/>
</svg>
