<svg width="30" height="30" viewBox="0 0 30 30" fill="none" xmlns="http://www.w3.org/2000/svg">
<path d="M12.7505 30C12.686 30 12.62 29.991 12.5555 29.9745C12.2285 29.886 12.0005 29.589 12.0005 29.25V17.9995H0.750385C0.411381 17.9995 0.114378 17.7714 0.0258768 17.4444C-0.0626242 17.1174 0.0813775 16.7709 0.373881 16.6014L28.8742 0.100637C29.1682 -0.0688705 29.5402 -0.0208683 29.7802 0.219143C30.0202 0.459154 30.0697 0.83117 29.8987 1.12518L13.3985 29.6265C13.262 29.862 13.0115 30 12.749 30H12.7505ZM3.54342 16.4994H12.7505C13.1645 16.4994 13.5005 16.8354 13.5005 17.2494V26.4568L27.1927 2.80676L3.54342 16.4994Z" fill="#343434"/>
</svg>
