<svg width="30" height="30" viewBox="0 0 30 30" fill="none" xmlns="http://www.w3.org/2000/svg">
  <path d="M25.6065 4.3935C22.773 1.56 19.0065 0 15 0C10.9935 0 7.227 1.56 4.3935 4.3935C1.56 7.227 0 10.9935 0 15C0 19.0065 1.56 22.773 4.3935 25.6065C7.227 28.44 10.9935 30 15 30C19.0065 30 22.773 28.44 25.6065 25.6065C28.44 22.773 30 19.0065 30 15C30 10.9935 28.44 7.227 25.6065 4.3935ZM15 1.5C18.798 1.5 22.2345 3.0765 24.69 5.61L4.3275 23.2575C2.556 20.973 1.5 18.108 1.5 15C1.5 7.5555 7.5555 1.5 15 1.5ZM15 28.5C11.202 28.5 7.7655 26.9235 5.31 24.39L25.6725 6.7425C27.444 9.027 28.5 11.892 28.5 15C28.5 22.4445 22.4445 28.5 15 28.5Z" fill="#343434"/>
</svg>
