<svg width="30" height="30" viewBox="0 0 30 30" fill="none" xmlns="http://www.w3.org/2000/svg">
<circle cx="15" cy="15" r="6" fill="#343434"/>
<path d="M15 22.0942C11.089 22.0942 7.90582 18.9127 7.90582 15C7.90582 11.0874 11.0874 7.90582 15 7.90582C18.9127 7.90582 22.0942 11.0874 22.0942 15C22.0942 18.9127 18.9127 22.0942 15 22.0942ZM15 9.48477C11.959 9.48477 9.48477 11.959 9.48477 15C9.48477 18.0411 11.959 20.5153 15 20.5153C18.0411 20.5153 20.5153 18.0411 20.5153 15C20.5153 11.959 18.0411 9.48477 15 9.48477Z" fill="#343434"/>
<path d="M15 6.31579C14.5642 6.31579 14.2105 5.96211 14.2105 5.52632V0.789474C14.2105 0.353684 14.5642 0 15 0C15.4358 0 15.7895 0.353684 15.7895 0.789474V5.52632C15.7895 5.96211 15.4358 6.31579 15 6.31579Z" fill="#343434"/>
<path d="M15 30C14.5642 30 14.2105 29.6463 14.2105 29.2105V24.4737C14.2105 24.0379 14.5642 23.6842 15 23.6842C15.4358 23.6842 15.7895 24.0379 15.7895 24.4737V29.2105C15.7895 29.6463 15.4358 30 15 30Z" fill="#343434"/>
<path d="M5.52632 15.7895H0.789474C0.353684 15.7895 0 15.4358 0 15C0 14.5642 0.353684 14.2105 0.789474 14.2105H5.52632C5.96211 14.2105 6.31579 14.5642 6.31579 15C6.31579 15.4358 5.96211 15.7895 5.52632 15.7895Z" fill="#343434"/>
<path d="M29.2105 15.7895H24.4737C24.0379 15.7895 23.6842 15.4358 23.6842 15C23.6842 14.5642 24.0379 14.2105 24.4737 14.2105H29.2105C29.6463 14.2105 30 14.5642 30 15C30 15.4358 29.6463 15.7895 29.2105 15.7895Z" fill="#343434"/>
<path d="M7.10526 7.89472C6.90316 7.89472 6.70105 7.81735 6.54632 7.66419L3.38842 4.50629C3.08053 4.1984 3.08053 3.69787 3.38842 3.38998C3.69632 3.08208 4.19684 3.08208 4.50474 3.38998L7.66263 6.54787C7.97053 6.85577 7.97053 7.35629 7.66263 7.66419C7.5079 7.81893 7.30579 7.89472 7.10369 7.89472H7.10526Z" fill="#343434"/>
<path d="M3.94737 26.8421C3.74526 26.8421 3.54316 26.7647 3.38842 26.6115C3.08053 26.3037 3.08053 25.8031 3.38842 25.4952L6.54632 22.3373C6.85421 22.0294 7.35474 22.0294 7.66263 22.3373C7.97053 22.6452 7.97053 23.1458 7.66263 23.4537L4.50474 26.6115C4.35 26.7663 4.1479 26.8421 3.94579 26.8421H3.94737Z" fill="#343434"/>
<path d="M26.0527 26.8421C25.8505 26.8421 25.6484 26.7647 25.4937 26.6115L22.3358 23.4537C22.0279 23.1458 22.0279 22.6452 22.3358 22.3373C22.6437 22.0294 23.1442 22.0294 23.4521 22.3373L26.61 25.4952C26.9179 25.8031 26.9179 26.3037 26.61 26.6115C26.4553 26.7663 26.2532 26.8421 26.0511 26.8421H26.0527Z" fill="#343434"/>
<path d="M22.8948 7.89472C22.6927 7.89472 22.4905 7.81735 22.3358 7.66419C22.0279 7.35629 22.0279 6.85577 22.3358 6.54787L25.4937 3.38998C25.8016 3.08208 26.3021 3.08208 26.61 3.38998C26.9179 3.69787 26.9179 4.1984 26.61 4.50629L23.4521 7.66419C23.2974 7.81893 23.0953 7.89472 22.8932 7.89472H22.8948Z" fill="#343434"/>
</svg>
