<svg width="30" height="30" viewBox="0 0 30 30" fill="none" xmlns="http://www.w3.org/2000/svg">
<path d="M24 18C21.924 18 20.091 19.0605 19.0125 20.6685L11.6595 16.992C11.88 16.368 12 15.699 12 15C12 14.301 11.88 13.632 11.6595 13.008L19.0125 9.3315C20.0895 10.9395 21.924 12 24 12C27.309 12 30 9.309 30 6C30 2.691 27.309 0 24 0C20.691 0 18 2.691 18 6C18 6.6975 18.12 7.368 18.3405 7.9905L10.9875 11.667C9.9105 10.059 8.076 9 6 9C2.691 9 0 11.691 0 15C0 18.309 2.691 21 6 21C8.076 21 9.909 19.9395 10.9875 18.3315L18.3405 22.008C18.12 22.632 18 23.301 18 24C18 27.309 20.691 30 24 30C27.309 30 30 27.309 30 24C30 20.691 27.309 18 24 18ZM24 1.5C26.481 1.5 28.5 3.519 28.5 6C28.5 8.481 26.481 10.5 24 10.5C21.519 10.5 19.5 8.481 19.5 6C19.5 3.519 21.519 1.5 24 1.5ZM6 19.5C3.519 19.5 1.5 17.481 1.5 15C1.5 12.519 3.519 10.5 6 10.5C8.481 10.5 10.5 12.519 10.5 15C10.5 17.481 8.481 19.5 6 19.5ZM24 28.5C21.519 28.5 19.5 26.481 19.5 24C19.5 21.519 21.519 19.5 24 19.5C26.481 19.5 28.5 21.519 28.5 24C28.5 26.481 26.481 28.5 24 28.5Z" fill="#343434"/>
</svg>
