<svg width="30" height="30" viewBox="0 0 30 30" fill="none" xmlns="http://www.w3.org/2000/svg">
<path d="M23.5527 0H6.44727C4.52727 0 3 1.45833 3 3.29167V26.7083C3 28.5417 4.52727 30 6.44727 30H23.5527C25.4727 30 27 28.5417 27 26.7083V3.29167C27 1.45833 25.4727 0 23.5527 0ZM25.2545 26.7083C25.2545 27.625 24.4691 28.3333 23.5527 28.3333H6.44727C5.48727 28.3333 4.74545 27.5833 4.74545 26.7083V3.29167C4.74545 2.375 5.53091 1.66667 6.44727 1.66667H23.5527C24.5127 1.66667 25.2545 2.41667 25.2545 3.29167V26.7083Z" fill="#343434"/>
<path d="M22.3309 20.8333H8.0182C7.5382 20.8333 7.14548 21.2083 7.14548 21.6667C7.14548 22.125 7.5382 22.5 8.0182 22.5H22.3746C22.8546 22.5 23.2473 22.125 23.2473 21.6667C23.2473 21.2083 22.8109 20.8333 22.3309 20.8333Z" fill="#343434"/>
<path d="M22.3309 17.0833H8.0182C7.5382 17.0833 7.14548 17.4583 7.14548 17.9167C7.14548 18.375 7.5382 18.75 8.0182 18.75H22.3746C22.8546 18.75 23.2473 18.375 23.2473 17.9167C23.2473 17.4583 22.8109 17.0833 22.3309 17.0833Z" fill="#343434"/>
<path d="M22.3309 13.3333H8.0182C7.5382 13.3333 7.14548 13.7083 7.14548 14.1667C7.14548 14.625 7.5382 15 8.0182 15H22.3746C22.8546 15 23.2473 14.625 23.2473 14.1667C23.2473 13.7083 22.8109 13.3333 22.3309 13.3333Z" fill="#343434"/>
<path d="M22.8439 9.58334H15.8621C15.6279 9.58334 15.4364 9.95834 15.4364 10.4167C15.4364 10.875 15.6279 11.25 15.8621 11.25H22.8652C23.0993 11.25 23.2909 10.875 23.2909 10.4167C23.2909 9.95834 23.0781 9.58334 22.8439 9.58334Z" fill="#343434"/>
<path d="M22.8439 5.83334H15.8621C15.6279 5.83334 15.4364 6.20834 15.4364 6.66668C15.4364 7.12501 15.6279 7.50001 15.8621 7.50001H22.8652C23.0993 7.50001 23.2909 7.12501 23.2909 6.66668C23.2909 6.20834 23.0781 5.83334 22.8439 5.83334Z" fill="#343434"/>
<path d="M22.3309 24.5833H8.0182C7.5382 24.5833 7.14548 24.9583 7.14548 25.4167C7.14548 25.875 7.5382 26.25 8.0182 26.25H22.3746C22.8546 26.25 23.2473 25.875 23.2473 25.4167C23.2473 24.9583 22.8109 24.5833 22.3309 24.5833Z" fill="#343434"/>
<path fill-rule="evenodd" clip-rule="evenodd" d="M7.14548 9.86947V11.0748H14.1273V9.86947C13.574 9.80581 12.9279 9.56037 12.1888 9.13313C11.9395 8.98926 11.603 8.73248 11.9334 7.35012L11.9404 7.32044C12.1557 7.21334 12.3321 6.96904 12.3911 6.65571C12.4436 6.3785 12.392 6.10775 12.2699 5.9127L12.4291 5.23141C12.4291 5.23141 12.4677 4.93528 12.4602 4.7813C12.4526 4.61958 12.4188 4.50345 12.389 4.37249C12.3215 4.07356 12.0575 3.78818 12.0575 3.78818H12.0546C11.8683 3.59442 11.2974 3.33485 10.6393 3.33334H10.6339C9.97537 3.33485 9.40488 3.59442 9.21818 3.78818H9.2157C9.2157 3.78818 8.95129 4.07356 8.88418 4.37249C8.854 4.50345 8.82021 4.61958 8.81256 4.7813C8.80512 4.93528 8.84364 5.23141 8.84364 5.23141L9.00287 5.9127C8.8808 6.10775 8.82967 6.3785 8.88215 6.65571C8.94138 6.96904 9.1175 7.21334 9.33236 7.32044L9.33934 7.35012C9.66997 8.73248 9.33327 8.98926 9.08395 9.13313C8.34493 9.56037 7.69877 9.80581 7.14548 9.86947Z" fill="#343434"/>
</svg>
