<svg width="30" height="30" viewBox="0 0 30 30" fill="none" xmlns="http://www.w3.org/2000/svg">
<path d="M15.0015 29C14.8046 29 14.6076 28.93 14.4569 28.7914L5.22503 20.2191C4.92499 19.9405 4.92499 19.4876 5.22503 19.209C5.52506 18.9303 6.01281 18.9303 6.31284 19.209L15 27.2755L23.6872 19.209C23.9872 18.9303 24.4749 18.9303 24.775 19.209C25.075 19.4876 25.075 19.9405 24.775 20.2191L15.5431 28.7914C15.3924 28.9314 15.1954 29 14.9985 29H15.0015Z" fill="#343434"/>
<path d="M24.2304 10.9996C24.0334 10.9996 23.8365 10.9296 23.6857 10.7911L14.9992 2.72477L6.31274 10.7911C6.01273 11.0696 5.52502 11.0696 5.22501 10.7911C4.925 10.5125 4.925 10.0596 5.22501 9.78098L14.4561 1.20894C14.7561 0.930352 15.2439 0.930352 15.5439 1.20894L24.775 9.78098C25.075 10.0596 25.075 10.5125 24.775 10.7911C24.6242 10.9311 24.4273 10.9996 24.2304 10.9996Z" fill="#343434"/>
</svg>
