<svg width="30" height="30" viewBox="0 0 30 30" fill="none" xmlns="http://www.w3.org/2000/svg">
<path d="M20.25 6C18.5955 6 17.25 4.6545 17.25 3C17.25 1.3455 18.5955 0 20.25 0C21.9045 0 23.25 1.3455 23.25 3C23.25 4.6545 21.9045 6 20.25 6ZM20.25 1.5C19.4235 1.5 18.75 2.1735 18.75 3C18.75 3.8265 19.4235 4.5 20.25 4.5C21.0765 4.5 21.75 3.8265 21.75 3C21.75 2.1735 21.0765 1.5 20.25 1.5Z" fill="#343434"/>
<path d="M15 30C14.907 30 14.8125 29.982 14.721 29.946C14.337 29.7915 14.1495 29.355 14.3025 28.971L17.1195 21.93L12.969 17.7795C12.741 17.5515 12.684 17.202 12.828 16.914L16.785 9H12.225L7.914 11.874C7.569 12.1035 7.104 12.0105 6.8745 11.6655C6.645 11.3205 6.738 10.8555 7.083 10.626L11.583 7.626C11.706 7.5435 11.8515 7.5 11.9985 7.5H17.9985C18.258 7.5 18.4995 7.635 18.636 7.8555C18.7725 8.076 18.7845 8.352 18.669 8.5845L14.4105 17.1015L18.528 21.219C18.7395 21.4305 18.8055 21.75 18.6945 22.0275L15.6945 29.5275C15.5775 29.82 15.2955 29.9985 14.9985 29.9985L15 30Z" fill="#343434"/>
<path d="M9.75 24H3C2.586 24 2.25 23.664 2.25 23.25C2.25 22.836 2.586 22.5 3 22.5H9.375L11.4 19.8C11.649 19.4685 12.1185 19.401 12.45 19.65C12.7815 19.899 12.849 20.3685 12.6 20.7L10.35 23.7C10.209 23.889 9.9855 24 9.75 24Z" fill="#343434"/>
<path d="M27 15H21C20.7165 15 20.4555 14.8395 20.3295 14.586L18.8295 11.586C18.645 11.2155 18.795 10.7655 19.1655 10.5795C19.536 10.3935 19.986 10.545 20.172 10.9155L21.465 13.5015H27.0015C27.4155 13.5015 27.7515 13.8375 27.7515 14.2515C27.7515 14.6655 27.4155 15.0015 27.0015 15.0015L27 15Z" fill="#343434"/>
</svg>
