<svg width="30" height="30" viewBox="0 0 30 30" fill="none" xmlns="http://www.w3.org/2000/svg">
<path d="M15 17C14.448 17 14 16.6192 14 16.15V0.85C14 0.3808 14.448 0 15 0C15.552 0 16 0.3808 16 0.85V16.15C16 16.6192 15.552 17 15 17Z" fill="#343434"/>
<path d="M15.0017 29C11.5294 29 8.26337 27.6744 5.80864 25.2661C3.35391 22.8579 2 19.6577 2 16.2536C2 13.4527 2.91012 10.7947 4.62982 8.56659C6.29404 6.4116 8.65862 4.80214 11.2867 4.03566C11.7461 3.90139 12.228 4.15802 12.365 4.6084C12.5019 5.05877 12.2402 5.53124 11.7808 5.6655C7.04294 7.04892 3.73183 11.4031 3.73183 16.2553C3.73183 22.3464 8.7869 27.3022 15 27.3022C21.2131 27.3022 26.2682 22.3464 26.2682 16.2553C26.2682 11.4031 22.9588 7.04892 18.2192 5.6655C17.7598 5.53124 17.4998 5.05877 17.635 4.6084C17.7702 4.15802 18.2539 3.90309 18.7133 4.03566C21.3431 4.80214 23.706 6.4116 25.3702 8.56659C27.0916 10.7947 28 13.4527 28 16.2536C28 19.6577 26.6478 22.8596 24.1914 25.2661C21.7349 27.6727 18.4706 29 14.9983 29H15.0017Z" fill="#343434"/>
</svg>
