<svg width="30" height="30" viewBox="0 0 30 30" fill="none" xmlns="http://www.w3.org/2000/svg">
<path d="M27.75 6H25.5V2.25C25.5 1.0095 24.4905 0 23.25 0H6.75C5.5095 0 4.5 1.0095 4.5 2.25V6H2.25C1.0095 6 0 7.0095 0 8.25V21.75C0 22.9905 1.0095 24 2.25 24H4.5V27.75C4.5 28.9905 5.5095 30 6.75 30H23.25C24.4905 30 25.5 28.9905 25.5 27.75V24H27.75C28.9905 24 30 22.9905 30 21.75V8.25C30 7.0095 28.9905 6 27.75 6ZM6 2.25C6 1.836 6.336 1.5 6.75 1.5H23.25C23.664 1.5 24 1.836 24 2.25V6H6V2.25ZM23.25 28.5H6.75C6.336 28.5 6 28.164 6 27.75V18H24V27.75C24 28.164 23.664 28.5 23.25 28.5ZM28.5 21.75C28.5 22.164 28.164 22.5 27.75 22.5H25.5V18H26.25C26.664 18 27 17.664 27 17.25C27 16.836 26.664 16.5 26.25 16.5H3.75C3.336 16.5 3 16.836 3 17.25C3 17.664 3.336 18 3.75 18H4.5V22.5H2.25C1.836 22.5 1.5 22.164 1.5 21.75V8.25C1.5 7.836 1.836 7.5 2.25 7.5H27.75C28.164 7.5 28.5 7.836 28.5 8.25V21.75Z" fill="#343434"/>
<path d="M21.75 21H8.25C7.836 21 7.5 20.664 7.5 20.25C7.5 19.836 7.836 19.5 8.25 19.5H21.75C22.164 19.5 22.5 19.836 22.5 20.25C22.5 20.664 22.164 21 21.75 21Z" fill="#343434"/>
<path d="M21.75 24H8.25C7.836 24 7.5 23.664 7.5 23.25C7.5 22.836 7.836 22.5 8.25 22.5H21.75C22.164 22.5 22.5 22.836 22.5 23.25C22.5 23.664 22.164 24 21.75 24Z" fill="#343434"/>
<path d="M21.75 27H8.25C7.836 27 7.5 26.664 7.5 26.25C7.5 25.836 7.836 25.5 8.25 25.5H21.75C22.164 25.5 22.5 25.836 22.5 26.25C22.5 26.664 22.164 27 21.75 27Z" fill="#343434"/>
<path d="M24.75 13.5C23.5095 13.5 22.5 12.4905 22.5 11.25C22.5 10.0095 23.5095 9 24.75 9C25.9905 9 27 10.0095 27 11.25C27 12.4905 25.9905 13.5 24.75 13.5ZM24.75 10.5C24.336 10.5 24 10.836 24 11.25C24 11.664 24.336 12 24.75 12C25.164 12 25.5 11.664 25.5 11.25C25.5 10.836 25.164 10.5 24.75 10.5Z" fill="#343434"/>
</svg>
