<svg width="30" height="30" viewBox="0 0 30 30" fill="none" xmlns="http://www.w3.org/2000/svg">
<path d="M9.64352 4.75724C10.0871 4.63891 10.5306 4.83612 10.6516 5.26998C10.7726 5.6644 10.5709 6.1377 10.1274 6.25603C8.23223 6.88709 6.86126 8.50421 6.579 10.3974C6.53868 10.7918 6.17578 11.0679 5.77255 11.0679C5.73223 11.0679 5.69191 11.0679 5.65158 11.0679C5.20803 11.0285 4.88545 10.5946 4.9661 10.2002C5.36932 7.71537 7.14352 5.58552 9.64352 4.75724Z" fill="#343434"/>
<path d="M24.9805 5.50743C24.7093 4.63026 24.2422 3.82565 23.6143 3.15392L24.0517 1.18349C23.4307 0.687493 22.7376 0.288437 21.9961 0L20.5021 1.36217C19.6042 1.15662 18.6712 1.15662 17.7733 1.36217L16.278 0C15.5366 0.288437 14.8435 0.687493 14.2225 1.18349L14.6599 3.1527C14.0318 3.82478 13.5647 4.62983 13.2936 5.50743L11.3634 6.11937C11.2444 6.90308 11.2444 7.70017 11.3634 8.48389L13.2936 9.09583C13.5661 9.96993 14.0331 10.7715 14.6599 11.4408L14.2225 13.41C14.8435 13.906 15.5366 14.305 16.278 14.5935L17.7721 13.2313C18.67 13.4368 19.603 13.4368 20.5009 13.2313L21.9949 14.5935C22.7368 14.3052 23.4303 13.9061 24.0517 13.41L23.6143 11.4408C24.2422 10.769 24.7093 9.96443 24.9805 9.08726L26.9107 8.47532C27.0297 7.6916 27.0297 6.89452 26.9107 6.1108L24.9805 5.50743ZM19.1371 10.0713C18.5862 10.0713 18.0477 9.90853 17.5896 9.60366C17.1316 9.29879 16.7746 8.86547 16.5638 8.3585C16.3529 7.85152 16.2978 7.29365 16.4053 6.75545C16.5127 6.21725 16.778 5.72287 17.1675 5.33485C17.5571 4.94683 18.0534 4.68258 18.5937 4.57552C19.134 4.46847 19.694 4.52341 20.203 4.73341C20.7119 4.94341 21.147 5.29902 21.453 5.75529C21.7591 6.21156 21.9224 6.74798 21.9224 7.29673C21.9224 8.03258 21.629 8.73829 21.1066 9.25861C20.5843 9.77894 19.8758 10.0713 19.1371 10.0713Z" fill="#343434"/>
<path fill-rule="evenodd" clip-rule="evenodd" d="M20.6813 15.0725C20.2307 16.0536 19.61 16.9643 18.8371 17.773C17.5468 19.1141 16.7 20.8101 16.4581 22.7427V25.2275C16.4581 26.3714 15.6516 27.318 14.5629 27.5546C14.4419 28.9351 13.2323 30 11.821 30C10.4097 30 9.20001 28.9351 9.07904 27.5546C7.99033 27.318 7.18388 26.3714 7.18388 25.2275V22.7033C6.90162 20.8495 6.05484 19.0746 4.64355 17.6153C2.66775 15.5249 1.74033 12.7639 2.06291 9.96356C2.5871 5.62497 6.21614 2.11465 10.6516 1.64135C11.5687 1.53734 12.4858 1.56189 13.3769 1.70653L12.435 3.16531C12.2185 3.14856 12.0003 3.14013 11.7807 3.14013C11.4581 3.14013 11.1758 3.14013 10.8532 3.17958C7.14356 3.57399 4.11936 6.49269 3.67581 10.1213C3.39355 12.4878 4.15968 14.8149 5.77259 16.5109C7.38549 18.2463 8.43388 20.2973 8.71614 22.5061V22.6244V25.2275C8.71614 25.6614 9.07904 26.0164 9.52259 26.0164H14.0387C14.4823 26.0164 14.8452 25.6614 14.8452 25.2275V23.4527H10.5307C10.0871 23.4527 9.7242 23.0977 9.7242 22.6638C9.7242 22.23 10.0871 21.875 10.5307 21.875H14.9661C15.3694 19.8635 16.2968 18.0886 17.6677 16.6687C18.229 16.0892 18.6939 15.4389 19.0529 14.7406L20.6813 15.0725ZM12.8694 27.594C12.7484 28.0279 12.3048 28.3829 11.7807 28.3829C11.2565 28.3829 10.8129 28.0279 10.6919 27.594H12.8694Z" fill="#343434"/>
</svg>
