<svg width="30" height="30" viewBox="0 0 30 30" fill="none" xmlns="http://www.w3.org/2000/svg">
<path d="M24.1668 28.9999C24.0301 28.9999 23.8935 28.967 23.7685 28.8994L14.9999 24.174L6.23126 28.8994C5.95125 29.051 5.60958 29.0295 5.34957 28.8467C5.08956 28.6639 4.95789 28.351 5.01123 28.0397L6.60794 18.5757L0.244416 12.2873C0.0244092 12.0698 -0.055593 11.747 0.0394098 11.4538C0.134413 11.1607 0.387754 10.9433 0.696096 10.8922L10.2781 9.31432L14.2548 1.45459C14.3965 1.17623 14.6848 1 14.9999 1C15.3149 1 15.6049 1.17623 15.7449 1.45459L19.7217 9.31432L29.3036 10.8922C29.612 10.9433 29.8653 11.159 29.9603 11.4538C30.0553 11.7487 29.977 12.0698 29.7553 12.2873L23.3918 18.5757L24.9885 28.0397C25.0402 28.351 24.9085 28.6639 24.6501 28.8467C24.5068 28.9472 24.3368 28.9999 24.1668 28.9999ZM14.9999 22.4117C15.1365 22.4117 15.2749 22.4446 15.3982 22.5122L23.0634 26.643L21.6784 18.4291C21.6334 18.1672 21.7201 17.8988 21.9117 17.711L27.4336 12.2543L19.03 10.8708C18.7666 10.828 18.5416 10.6616 18.4216 10.4261L14.9999 3.66329L11.5781 10.4261C11.4581 10.6616 11.2331 10.8263 10.9697 10.8708L2.56615 12.2543L8.08799 17.711C8.27799 17.8988 8.36466 18.1656 8.32133 18.4291L6.93628 26.643L14.6015 22.5122C14.7265 22.4446 14.8632 22.4117 14.9999 22.4117Z" fill="#343434"/>
</svg>
