<svg width="30" height="30" viewBox="0 0 30 30" fill="none" xmlns="http://www.w3.org/2000/svg">
<path d="M16.0984 18C14.6931 18 13.2879 17.4777 12.2179 16.433C11.9274 16.1493 11.9274 15.6881 12.2179 15.4044C12.5085 15.1207 12.9809 15.1207 13.2715 15.4044C14.8302 16.9263 17.365 16.9263 18.9238 15.4044L24.3421 10.1142C25.9008 8.59234 25.9008 6.11749 24.3421 4.59562C22.7833 3.07375 20.2485 3.07375 18.6898 4.59562L14.1179 9.05938C13.8273 9.34309 13.3549 9.34309 13.0644 9.05938C12.7738 8.77567 12.7738 8.31445 13.0644 8.03074L17.6362 3.56697C19.7762 1.47768 23.2572 1.47768 25.3956 3.56697C27.534 5.65627 27.5355 9.05502 25.3956 11.1429L19.9773 16.433C18.9074 17.4777 17.5021 18 16.0969 18H16.0984Z" fill="#343434"/>
<path d="M7.48516 27C6.07997 27 4.67478 26.4777 3.60487 25.433C1.46504 23.3437 1.46504 19.945 3.60487 17.8571L9.02297 12.567C11.1628 10.4777 14.6437 10.4777 16.7821 12.567C17.0726 12.8507 17.0726 13.3119 16.7821 13.5956C16.4915 13.8793 16.0191 13.8793 15.7285 13.5956C14.1699 12.0737 11.6352 12.0737 10.0765 13.5956L4.65839 18.8858C3.09971 20.4077 3.09971 22.8825 4.65839 24.4044C6.21706 25.9263 8.75177 25.9263 10.3104 24.4044L14.8822 19.9406C15.1727 19.6569 15.6451 19.6569 15.9357 19.9406C16.2263 20.2243 16.2263 20.6856 15.9357 20.9693L11.364 25.433C10.2941 26.4777 8.88886 27 7.48367 27H7.48516Z" fill="#343434"/>
</svg>
