<svg width="30" height="30" viewBox="0 0 30 30" fill="none" xmlns="http://www.w3.org/2000/svg">
<path fill-rule="evenodd" clip-rule="evenodd" d="M15 2.96791C8.35486 2.96791 2.96791 8.35486 2.96791 15C2.96791 18.3661 4.34844 21.4074 6.5776 23.5927C8.74926 25.7216 11.7203 27.0321 15 27.0321V29.7059C10.9924 29.7059 7.35703 28.1011 4.70582 25.5021C1.98482 22.8346 0.294118 19.1135 0.294118 15C0.294118 6.87817 6.87817 0.294118 15 0.294118C23.1218 0.294118 29.7059 6.87817 29.7059 15H27.0321C27.0321 8.35486 21.6451 2.96791 15 2.96791Z" fill="#343434"/>
<path fill-rule="evenodd" clip-rule="evenodd" d="M15.2941 26.738V30H15C10.9124 30 7.20387 28.3628 4.49993 25.7121C1.72483 22.9916 0 19.1958 0 15C0 6.71573 6.71573 0 15 0C23.2843 0 30 6.71573 30 15V15.2941H26.738V15C26.738 8.5173 21.4827 3.26203 15 3.26203C8.5173 3.26203 3.26203 8.5173 3.26203 15C3.26203 18.2839 4.60845 21.2504 6.7835 23.3827C8.90239 25.4599 11.8003 26.738 15 26.738H15.2941ZM14.7059 29.703C10.8148 29.6266 7.29202 28.0373 4.70582 25.5021C1.98482 22.8346 0.294118 19.1135 0.294118 15C0.294118 6.87817 6.87817 0.294118 15 0.294118C23.0236 0.294118 29.5463 6.71981 29.703 14.7059C29.7049 14.8037 29.7059 14.9017 29.7059 15H27.0321C27.0321 8.35486 21.6451 2.96791 15 2.96791C8.35486 2.96791 2.96791 8.35486 2.96791 15C2.96791 18.3661 4.34844 21.4074 6.5776 23.5927C8.74926 25.7216 11.7203 27.0321 15 27.0321V29.7059C14.9017 29.7059 14.8037 29.7049 14.7059 29.703Z" fill="#343434"/>
</svg>
