<svg width="30" height="30" viewBox="0 0 30 30" fill="none" xmlns="http://www.w3.org/2000/svg">
<path d="M15.6392 0L1.0265 14.6408C-0.340723 16.0104 -0.340723 18.2388 1.02662 19.6085L10.3729 28.9685C11.0365 29.633 11.9191 29.9994 12.8582 30C12.859 30 12.8598 30 12.8607 30C13.7988 30 14.681 29.635 15.3451 28.9719L29.9989 14.3334V0H15.6392ZM27.6552 13.3619L13.6888 27.3135C13.4674 27.5346 13.1735 27.6562 12.8607 27.6562C12.861 27.6562 12.8604 27.6562 12.8607 27.6562C12.5477 27.656 12.2526 27.5339 12.0314 27.3124L2.68518 17.9525C2.22943 17.496 2.22943 16.7532 2.68523 16.2966L16.6114 2.34375H27.6552V13.3619Z" fill="#343434"/>
<path d="M22.0301 9.84375C23.0656 9.84375 23.9051 9.00428 23.9051 7.96875C23.9051 6.93322 23.0656 6.09375 22.0301 6.09375C20.9945 6.09375 20.1551 6.93322 20.1551 7.96875C20.1551 9.00428 20.9945 9.84375 22.0301 9.84375Z" fill="#343434"/>
</svg>
