<svg width="30" height="30" viewBox="0 0 30 30" fill="none" xmlns="http://www.w3.org/2000/svg">
<path d="M26.8571 25H11.1429C9.96143 25 9 24.1025 9 22.9997C9 22.9357 9.01571 21.4127 10.32 19.9125C11.07 19.051 12.0929 18.3682 13.36 17.8828C14.89 17.296 16.7886 17 19 17C21.2114 17 23.1086 17.2974 24.64 17.8828C25.9071 18.3682 26.93 19.051 27.68 19.9125C28.9857 21.4127 29 22.9357 29 22.9997C29 24.1025 28.0386 25 26.8571 25ZM10.4286 23.0037C10.43 23.3704 10.75 23.6664 11.1429 23.6664H26.8571C27.25 23.6664 27.57 23.3691 27.5714 23.0037C27.57 22.957 27.5257 21.8101 26.5157 20.6913C25.1243 19.1484 22.5257 18.3336 19 18.3336C15.4743 18.3336 12.8757 19.1497 11.4843 20.6913C10.4743 21.8115 10.43 22.957 10.4286 23.0037Z" fill="#343434"/>
<path d="M19.5 15C16.4667 15 14 12.5332 14 9.5C14 6.46675 16.4667 4 19.5 4C22.5332 4 25 6.46675 25 9.5C25 12.5332 22.5332 15 19.5 15ZM19.5 5.375C17.2257 5.375 15.375 7.22575 15.375 9.5C15.375 11.7743 17.2257 13.625 19.5 13.625C21.7743 13.625 23.625 11.7743 23.625 9.5C23.625 7.22575 21.7743 5.375 19.5 5.375Z" fill="#343434"/>
<path d="M6.99834 24.9986H2.99945C1.89709 24.9986 1 24.0566 1 22.899C1 22.8472 1.01066 21.6015 1.88376 20.3795C2.38762 19.6727 3.07543 19.1142 3.92719 18.7167C4.94558 18.2408 6.2039 18 7.66616 18C7.90476 18 8.14069 18.007 8.36863 18.0196C8.73653 18.0406 9.01778 18.3695 8.99912 18.7558C8.98046 19.1422 8.66588 19.4389 8.29798 19.4179C8.09404 19.4067 7.8821 19.4011 7.66749 19.4011C2.47693 19.4011 2.33963 22.7311 2.33563 22.9046C2.33696 23.2881 2.63555 23.6003 3.00211 23.6003H7.00101C7.36891 23.6003 7.66749 23.9138 7.66749 24.3001C7.66749 24.6865 7.36891 25 7.00101 25L6.99834 24.9986Z" fill="#343434"/>
<path d="M8 17C5.79467 17 4 14.981 4 12.5C4 10.019 5.79467 8 8 8C10.2053 8 12 10.019 12 12.5C12 14.981 10.2053 17 8 17ZM8 9.5C6.52933 9.5 5.33333 10.8455 5.33333 12.5C5.33333 14.1545 6.52933 15.5 8 15.5C9.47067 15.5 10.6667 14.1545 10.6667 12.5C10.6667 10.8455 9.47067 9.5 8 9.5Z" fill="#343434"/>
</svg>
