<svg width="30" height="30" viewBox="0 0 30 30" fill="none" xmlns="http://www.w3.org/2000/svg">
<path d="M27.8269 14.0438C27.7634 13.9715 26.2312 12.2641 23.8364 10.5362C22.423 9.51614 21.0014 8.70334 19.611 8.11828C17.8493 7.3764 16.1294 7 14.5 7C12.8706 7 11.1507 7.3764 9.38903 8.11828C7.99856 8.70334 6.57705 9.5175 5.16363 10.5362C2.76879 12.2641 1.23658 13.9729 1.17313 14.0438C0.942289 14.3029 0.942289 14.6971 1.17313 14.9562C1.23658 15.0285 2.76879 16.7359 5.16363 18.4638C6.57705 19.4839 7.99856 20.2967 9.38903 20.8817C11.1507 21.6236 12.8706 22 14.5 22C16.1294 22 17.8493 21.6236 19.611 20.8817C21.0014 20.2967 22.423 19.4825 23.8364 18.4638C26.2312 16.7359 27.7634 15.0271 27.8269 14.9562C28.0577 14.6971 28.0577 14.3029 27.8269 14.0438ZM17.9748 8.95972C19.1992 10.0003 19.8999 11.514 19.8999 13.1356C19.8999 16.144 17.478 18.5906 14.5 18.5906C11.522 18.5906 9.10013 16.144 9.10013 13.1356C9.10013 11.5154 9.80077 10.0003 11.0252 8.95972C12.1349 8.59424 13.308 8.3624 14.5 8.3624C15.692 8.3624 16.8651 8.59424 17.9748 8.95972ZM23.0277 17.3714C20.9582 18.8606 17.7993 20.6362 14.5 20.6362C11.2007 20.6362 8.04176 18.8606 5.97226 17.3714C4.41035 16.2477 3.21563 15.1103 2.6122 14.4993C3.21563 13.8884 4.41035 12.7523 5.97226 11.6272C6.68775 11.1117 7.53282 10.5635 8.4697 10.0657C8.00126 11.004 7.75017 12.05 7.75017 13.1356C7.75017 16.8954 10.7781 19.9544 14.5 19.9544C18.2219 19.9544 21.2498 16.8954 21.2498 13.1356C21.2498 12.05 20.9987 11.004 20.5303 10.0657C21.4672 10.5635 22.3123 11.1131 23.0277 11.6272C24.5896 12.751 25.7844 13.8884 26.3878 14.4993C25.7844 15.1103 24.5896 16.2463 23.0277 17.3714Z" fill="#343434"/>
</svg>
