<svg width="30" height="30" viewBox="0 0 30 30" fill="none" xmlns="http://www.w3.org/2000/svg">
<path d="M29.2105 27.75H0.79007C0.509023 27.75 0.250081 27.609 0.107979 27.378C-0.0341231 27.147 -0.035702 26.8636 0.101663 26.6311L14.3119 2.63248C14.4524 2.39699 14.7145 2.25 15.0003 2.25C15.2861 2.25 15.5482 2.39549 15.6887 2.63248L29.8989 26.6311C30.0363 26.8636 30.0331 27.147 29.8926 27.378C29.7521 27.609 29.4916 27.75 29.2105 27.75ZM2.14004 26.2501H27.8605L15.0003 4.53137L2.14004 26.2501Z" fill="#343434"/>
<path d="M15 20.25C14.586 20.25 14.25 19.914 14.25 19.5V12C14.25 11.586 14.586 11.25 15 11.25C15.414 11.25 15.75 11.586 15.75 12V19.5C15.75 19.914 15.414 20.25 15 20.25Z" fill="#343434"/>
<path d="M15 24.75C14.586 24.75 14.25 24.414 14.25 24V22.5C14.25 22.086 14.586 21.75 15 21.75C15.414 21.75 15.75 22.086 15.75 22.5V24C15.75 24.414 15.414 24.75 15 24.75Z" fill="#343434"/>
</svg>
