<svg width="30" height="30" viewBox="0 0 30 30" fill="none" xmlns="http://www.w3.org/2000/svg">
<path d="M27.75 26.25H11.25C10.0095 26.25 9 25.2405 9 24C9 23.928 9.0165 22.215 10.386 20.5275C11.1735 19.5585 12.2475 18.7905 13.578 18.2445C15.1845 17.5845 17.178 17.2515 19.5 17.2515C21.822 17.2515 23.814 17.586 25.422 18.2445C26.7525 18.7905 27.8265 19.5585 28.614 20.5275C29.985 22.215 30 23.928 30 24C30 25.2405 28.9905 26.25 27.75 26.25ZM10.5 24.0045C10.5015 24.417 10.8375 24.75 11.25 24.75H27.75C28.1625 24.75 28.4985 24.4155 28.5 24.0045C28.4985 23.952 28.452 22.662 27.3915 21.4035C25.9305 19.668 23.202 18.7515 19.5 18.7515C15.798 18.7515 13.0695 19.6695 11.6085 21.4035C10.548 22.6635 10.5015 23.952 10.5 24.0045Z" fill="#343434"/>
<path d="M19.5 15.75C16.191 15.75 13.5 13.059 13.5 9.75C13.5 6.441 16.191 3.75 19.5 3.75C22.809 3.75 25.5 6.441 25.5 9.75C25.5 13.059 22.809 15.75 19.5 15.75ZM19.5 5.25C17.019 5.25 15 7.269 15 9.75C15 12.231 17.019 14.25 19.5 14.25C21.981 14.25 24 12.231 24 9.75C24 7.269 21.981 5.25 19.5 5.25Z" fill="#343434"/>
<path d="M6.75 26.25H2.25C1.0095 26.25 0 25.2405 0 24C0 23.9445 0.012 22.6095 0.9945 21.3C1.5615 20.5425 2.3355 19.944 3.294 19.518C4.44 19.008 5.856 18.75 7.5015 18.75C7.77 18.75 8.0355 18.7575 8.292 18.771C8.706 18.7935 9.0225 19.146 9.0015 19.56C8.9805 19.974 8.6265 20.292 8.2125 20.2695C7.983 20.2575 7.7445 20.2515 7.503 20.2515C1.662 20.2515 1.5075 23.82 1.503 24.006C1.5045 24.417 1.8405 24.7515 2.253 24.7515H6.753C7.167 24.7515 7.503 25.0875 7.503 25.5015C7.503 25.9155 7.167 26.2515 6.753 26.2515L6.75 26.25Z" fill="#343434"/>
<path d="M7.5 17.25C5.019 17.25 3 15.231 3 12.75C3 10.269 5.019 8.25 7.5 8.25C9.981 8.25 12 10.269 12 12.75C12 15.231 9.981 17.25 7.5 17.25ZM7.5 9.75C5.8455 9.75 4.5 11.0955 4.5 12.75C4.5 14.4045 5.8455 15.75 7.5 15.75C9.1545 15.75 10.5 14.4045 10.5 12.75C10.5 11.0955 9.1545 9.75 7.5 9.75Z" fill="#343434"/>
</svg>
