<svg width="30" height="30" viewBox="0 0 30 30" fill="none" xmlns="http://www.w3.org/2000/svg">
<path d="M25.6074 4.39286C22.7747 1.56008 19.0074 0 15 0C10.9926 0 7.22684 1.56008 4.39263 4.39286C1.56 7.22564 0 10.9932 0 14.9992C0 19.0052 1.56 22.7728 4.39263 25.6071C7.22526 28.4415 10.9926 30 15 30C19.0074 30 22.7732 28.4399 25.6074 25.6071C28.4416 22.7744 30 19.0068 30 14.9992C30 10.9916 28.44 7.22564 25.6074 4.39286V4.39286ZM15 28.4225C7.59947 28.4225 1.57895 22.4017 1.57895 15.0008C1.57895 7.59987 7.59947 1.57903 15 1.57903C22.4005 1.57903 28.4211 7.59987 28.4211 15.0008C28.4211 22.4017 22.4005 28.4225 15 28.4225Z" fill="#343434"/>
<path d="M23.8926 9.46877C23.6713 9.02064 23.1807 8.86689 22.7975 9.12564L14.9092 14.4525L8.76048 9.41814C8.39813 9.12189 7.8979 9.22502 7.64457 9.64877C7.39125 10.0725 7.47943 10.6575 7.84178 10.9538L14.409 16.3313C14.4106 16.3331 14.4122 16.3331 14.4138 16.335C14.4266 16.3462 14.441 16.3556 14.4555 16.365C14.4587 16.3669 14.4635 16.3706 14.4667 16.3725C14.4811 16.3819 14.4955 16.3913 14.51 16.3988C14.5132 16.4006 14.5164 16.4025 14.5196 16.4044C14.5356 16.4138 14.5517 16.4213 14.5693 16.4306C14.5789 16.4344 14.5885 16.44 14.5998 16.4438C14.6078 16.4475 14.6142 16.4494 14.6222 16.4531C14.6334 16.4569 14.643 16.4606 14.6543 16.4644C14.6607 16.4663 14.6687 16.4681 14.6751 16.47C14.6863 16.4738 14.6976 16.4756 14.7072 16.4794C14.7152 16.4813 14.7216 16.4831 14.7296 16.485C14.7392 16.4869 14.7505 16.4887 14.7601 16.4906C14.7697 16.4925 14.7793 16.4925 14.7889 16.4944C14.797 16.4962 14.8066 16.4962 14.8146 16.4981C14.8338 16.5 14.8515 16.5 14.8707 16.5C14.9012 16.5 14.9316 16.4981 14.9621 16.4944H14.9637C14.9926 16.4906 15.023 16.4831 15.0519 16.4756C15.0535 16.4756 15.0567 16.4738 15.0583 16.4738C15.0856 16.4663 15.1128 16.4569 15.1401 16.4438C15.1449 16.4419 15.1481 16.44 15.1513 16.4381C15.1769 16.4269 15.2026 16.4138 15.2266 16.3988C15.2315 16.395 15.2363 16.3931 15.2411 16.3894C15.2507 16.3838 15.2587 16.3781 15.2683 16.3725L23.5992 10.7475C23.9823 10.4888 24.1138 9.91502 23.8926 9.46689V9.46877Z" fill="#343434"/>
</svg>
