<svg width="30" height="30" viewBox="0 0 30 30" fill="none" xmlns="http://www.w3.org/2000/svg">
<path d="M28.9577 12.6787C29.3802 12.275 29.1513 11.562 28.5728 11.4796L19.9792 10.2556C19.7524 10.2233 19.5558 10.082 19.4527 9.87737L15.6252 2.27574C15.3666 1.76215 14.6334 1.76215 14.3748 2.27574L10.5473 9.87737C10.4442 10.082 10.2476 10.2233 10.0208 10.2556L1.42716 11.4796C0.84866 11.562 0.619802 12.275 1.0423 12.6787L7.24458 18.6046C7.41356 18.7661 7.49082 19.0012 7.45053 19.2314L5.99011 27.5774C5.89037 28.1473 6.48593 28.5853 7.00027 28.3203L14.6794 24.3632C14.8805 24.2595 15.1195 24.2595 15.3206 24.3632L22.9997 28.3203C23.5141 28.5853 24.1096 28.1473 24.0099 27.5774L22.5495 19.2314C22.5092 19.0012 22.5864 18.7661 22.7554 18.6046L28.9577 12.6787ZM15.3082 21.7084C15.1138 21.613 14.8862 21.613 14.6918 21.7084L9 24.5L9.98487 18.3955C10.0216 18.168 9.94398 17.937 9.77738 17.7779L5.1802 13.3856L11.5781 12.4086C11.7981 12.375 11.989 12.2388 12.0923 12.0418L15 6.5L17.9056 12.0379C18.0101 12.2371 18.204 12.374 18.4268 12.4057L24.8829 13.3252L20.2226 17.7779C20.056 17.937 19.9784 18.168 20.0151 18.3955L21 24.5L15.3082 21.7084Z" fill="#343434"/>
</svg>
