<svg width="30" height="30" viewBox="0 0 30 30" fill="none" xmlns="http://www.w3.org/2000/svg">
<path d="M11.8365 20.1865C11.7232 20.1865 11.609 20.1497 11.5159 20.0748L8.31091 17.4971C8.20036 17.4081 8.13679 17.2781 8.13679 17.1408C8.13679 17.0037 8.20064 16.8737 8.31091 16.7847L11.5159 14.2071C11.724 14.0395 12.0366 14.0633 12.214 14.2598C12.3912 14.4567 12.4224 14.977 12.214 15.1443L9.76551 17.1408L12.214 19C12.4224 19.1676 12.3912 19.8252 12.214 20.0218C12.1159 20.1306 11.9766 20.1865 11.8365 20.1865Z" fill="#343434"/>
<path d="M18.1635 20.1865C18.0234 20.1865 17.8841 20.1306 17.7862 20.0218C17.6088 19.8252 17.5781 19.3821 17.7862 19.2145L20.3579 17.1408L17.7862 15.0968C17.5781 14.9295 17.6088 14.4567 17.7862 14.2598C17.9634 14.0633 18.2763 14.0395 18.4841 14.2071L21.6891 16.7847C21.7996 16.8737 21.8632 17.0037 21.8632 17.1408C21.8632 17.2781 21.7996 17.4081 21.6891 17.4971L18.4841 20.0748C18.391 20.1497 18.2768 20.1865 18.1635 20.1865Z" fill="#343434"/>
<path d="M13.8654 22.1198C13.8314 22.1198 13.7972 22.1165 13.7626 22.1097C13.4951 22.0564 13.3237 21.8081 13.3801 21.5555L15.3775 12.598C15.4339 12.3453 15.6965 12.1834 15.9643 12.2367C16.2318 12.2899 16.4032 12.5379 16.3468 12.7909L14.3494 21.7484C14.3002 21.9687 14.0946 22.1198 13.8654 22.1198Z" fill="#343434"/>
<path d="M26.6745 27H3.32547C1.49193 27 0 25.5911 0 23.859V5.14099C0 3.40916 1.49193 2 3.32547 2H26.6745C28.5081 2 30 3.40916 30 5.14099V23.859C30 25.5911 28.5081 27 26.6745 27ZM3.32547 3.5C2.5 3.5 1.57123 4.27716 1.57123 5.14099V23.859C1.57123 24.5 2.5 25.5 3.32547 25.5H26.6745C27.5 25.5 28.3335 24.6425 28.3335 23.859V5.14099C28.3335 4.25668 27.5 3.5 26.6745 3.5H3.32547Z" fill="#343434"/>
<path d="M29.5047 9.49091H0.495283C0.221661 9.49091 0 9.28155 0 9.02311C0 8.76493 0.226378 8 0.5 8H29.5C29.7736 8 30 8.76493 30 9.02311C30 9.28155 29.7783 9.49091 29.5047 9.49091Z" fill="#343434"/>
<path d="M8.46237 7.25239C7.59839 7.25239 6.89499 6.58801 6.89499 5.77195C6.89499 4.95564 7.59839 4.29152 8.46237 4.29152C9.32663 4.29152 10.0298 4.95564 10.0298 5.77195C10.0298 6.58801 9.32663 7.25239 8.46237 7.25239Z" fill="#343434"/>
<path d="M3.64663 7.23803C2.78238 7.23803 2.07925 6.57391 2.07925 5.7576C2.07925 4.94128 2.78238 4.27716 3.64663 4.27716C4.51089 4.27716 5.21401 4.94128 5.21401 5.7576C5.21401 6.57391 4.51089 7.23803 3.64663 7.23803Z" fill="#343434"/>
<path d="M13.2781 7.26648C12.4141 7.26648 11.711 6.60236 11.711 5.78605C11.711 4.97 12.4141 4.30588 13.2781 4.30588C14.1424 4.30588 14.8455 4.97 14.8455 5.78605C14.8455 6.60236 14.1424 7.26648 13.2781 7.26648Z" fill="#343434"/>
</svg>
