<svg width="30" height="30" viewBox="0 0 30 30" fill="none" xmlns="http://www.w3.org/2000/svg">
<path d="M27.9241 5.41437C28.063 5.55332 28.1437 5.74212 28.1447 5.9447C28.1447 6.21623 27.9973 6.46761 27.7586 6.60019L22.9857 9.25184C22.8743 9.31442 22.7491 9.34624 22.6219 9.34624L15.815 9.25184V11.5434C15.815 11.5434 21.2563 11.5434 24.7429 11.5434C25.1478 11.5434 25.4928 11.8884 25.4928 12.2933L23.9929 13.0432L7.59302 13.0432L4.17027 14.945L7.59302 16.8467L23.9929 16.8467V13.0432L25.4928 12.2933C25.4928 14.3644 25.4928 15.5256 25.4929 17.5966C25.4929 18 25.1607 18.3465 24.7429 18.3465C21.2563 18.3465 15.815 18.3465 15.815 18.3465C15.815 18.3465 15.815 24.8776 15.815 29.0625C15.815 29.5726 15.479 30 15.065 30C14.6511 30 14.315 29.5944 14.315 29.0625C14.315 24.8776 14.315 18.3465 14.315 18.3465C14.315 18.3465 10.0992 18.3465 7.39786 18.3465C7.27058 18.3465 7.14542 18.3147 7.03405 18.2521C5.17009 17.2166 2.26108 15.6005 2.26108 15.6005C2.26108 15.6005 2.16023 15.5242 2.09562 15.4753C1.9527 15.3333 1.875 15.1465 1.875 14.945C1.87524 14.6761 2.02603 14.4201 2.26108 14.2895C4.12504 13.254 5.17009 12.6734 7.03405 11.6378C7.14912 11.5738 7.26617 11.5434 7.39786 11.5434C10.0992 11.5434 14.315 11.5434 14.315 11.5434V9.25184L5.27687 9.34624C4.86321 9.34624 4.5269 9.01001 4.5269 8.59635L4.52687 3.29305C4.52687 2.87939 4.86321 2.54316 5.27687 2.54316H14.315C14.315 2.54316 14.315 1.56455 14.315 0.9375C14.315 0.434439 14.651 0 15.065 0C15.479 0 15.815 0.418161 15.815 0.9375C15.815 1.56455 15.815 2.54316 15.815 2.54316L22.6219 2.54316C22.7491 2.54316 22.8743 2.57498 22.9857 2.63756L27.7586 5.28921C27.8201 5.32315 27.8764 5.36664 27.9241 5.41437ZM22.4267 7.84646L25.8494 5.9447L22.4267 4.04294L6.02687 4.04294L6.02687 7.84646L22.4267 7.84646Z" fill="#343434"/>
</svg>
