<svg width="30" height="30" viewBox="0 0 30 30" fill="none" xmlns="http://www.w3.org/2000/svg">
<path d="M29.25 11.25C29.25 10.0095 28.2405 8.99996 27 8.99996C25.7595 8.99996 24.75 10.0095 24.75 11.25C24.75 12.075 25.197 12.798 25.8615 13.1895C25.443 14.8635 24.345 19.434 23.715 23.823C22.824 23.5155 21.6015 23.2935 20.2545 23.1435C20.3295 19.146 21.264 11.1765 21.5355 8.93546C22.518 8.69396 23.25 7.80596 23.25 6.74996C23.25 5.50946 22.2405 4.49996 21 4.49996C19.7595 4.49996 18.75 5.50946 18.75 6.74996C18.75 7.64846 19.2795 8.42546 20.0415 8.78546C19.7625 11.0775 18.8475 18.8745 18.7575 23.007C17.7555 22.9335 16.728 22.8945 15.75 22.881V4.37246C16.623 4.06346 17.25 3.22946 17.25 2.25146C17.25 1.01096 16.2405 0.00146484 15 0.00146484C13.7595 0.00146484 12.75 1.01096 12.75 2.25146C12.75 3.22946 13.377 4.06346 14.25 4.37246V22.881C13.272 22.8945 12.2445 22.935 11.2425 23.007C11.1525 18.8745 10.236 11.0775 9.9585 8.78546C10.7205 8.42546 11.25 7.64846 11.25 6.74996C11.25 5.50946 10.2405 4.49996 9 4.49996C7.7595 4.49996 6.75 5.50946 6.75 6.74996C6.75 7.80596 7.482 8.69396 8.4645 8.93546C8.736 11.1765 9.6705 19.146 9.7455 23.1435C8.3985 23.295 7.176 23.5155 6.285 23.823C5.6535 19.434 4.557 14.8635 4.1385 13.1895C4.803 12.798 5.25 12.075 5.25 11.25C5.25 10.0095 4.2405 8.99996 3 8.99996C1.7595 8.99996 0.75 10.0095 0.75 11.25C0.75 12.3765 1.581 13.311 2.6625 13.4745C3.222 15.714 5.25 24.1935 5.25 29.25C5.25 29.5095 5.385 29.751 5.6055 29.8875C5.826 30.024 6.102 30.036 6.3345 29.9205C7.5855 29.295 11.067 28.875 14.9985 28.875C18.93 28.875 22.4115 29.295 23.6625 29.9205C23.769 29.973 23.883 30 23.9985 30C24.135 30 24.273 29.9625 24.393 29.8875C24.6135 29.751 24.7485 29.5095 24.7485 29.25C24.7485 24.1935 26.778 15.714 27.336 13.4745C28.4175 13.311 29.2485 12.375 29.2485 11.25H29.25ZM21 5.99996C21.414 5.99996 21.75 6.33596 21.75 6.74996C21.75 7.16396 21.414 7.49996 21 7.49996C20.586 7.49996 20.25 7.16396 20.25 6.74996C20.25 6.33596 20.586 5.99996 21 5.99996ZM9 5.99996C9.414 5.99996 9.75 6.33596 9.75 6.74996C9.75 7.16396 9.414 7.49996 9 7.49996C8.586 7.49996 8.25 7.16396 8.25 6.74996C8.25 6.33596 8.586 5.99996 9 5.99996ZM15 1.49996C15.414 1.49996 15.75 1.83596 15.75 2.24996C15.75 2.66396 15.414 2.99996 15 2.99996C14.586 2.99996 14.25 2.66396 14.25 2.24996C14.25 1.83596 14.586 1.49996 15 1.49996ZM2.25 11.25C2.25 10.836 2.586 10.5 3 10.5C3.414 10.5 3.75 10.836 3.75 11.25C3.75 11.664 3.414 12 3 12C2.586 12 2.25 11.664 2.25 11.25ZM15 27.375C12.2025 27.375 8.8035 27.5955 6.7245 28.1865C6.6855 27.2955 6.6 26.337 6.4845 25.3515C7.8465 24.765 11.214 24.375 15 24.375C18.786 24.375 22.152 24.765 23.5155 25.3515C23.4 26.337 23.3145 27.294 23.2755 28.1865C21.1965 27.597 17.7975 27.375 15 27.375ZM27 12C26.586 12 26.25 11.664 26.25 11.25C26.25 10.836 26.586 10.5 27 10.5C27.414 10.5 27.75 10.836 27.75 11.25C27.75 11.664 27.414 12 27 12Z" fill="#343434"/>
</svg>
