<svg width="30" height="30" viewBox="0 0 30 30" fill="none" xmlns="http://www.w3.org/2000/svg">
  <path d="M26.6667 6.60526H25.8889V5.84211C25.8889 4.57984 24.842 3.55263 23.5556 3.55263H22.7778V2.78947C22.7778 1.52721 21.7309 0.5 20.4444 0.5H3.33333C2.04689 0.5 1 1.52721 1 2.78947V21.1053C1 22.3675 2.04689 23.3947 3.33333 23.3947H4.11111V24.1579C4.11111 25.4202 5.158 26.4474 6.44444 26.4474H7.22222V27.2105C7.22222 28.4728 8.26911 29.5 9.55556 29.5H26.6667C27.9531 29.5 29 28.4728 29 27.2105V8.89474C29 7.63247 27.9531 6.60526 26.6667 6.60526ZM2.55556 21.1053V2.78947C2.55556 2.36821 2.904 2.02632 3.33333 2.02632H20.4444C20.8738 2.02632 21.2222 2.36821 21.2222 2.78947V21.1053C21.2222 21.5265 20.8738 21.8684 20.4444 21.8684H3.33333C2.904 21.8684 2.55556 21.5265 2.55556 21.1053ZM5.66667 24.1579V23.3947H20.4444C21.7309 23.3947 22.7778 22.3675 22.7778 21.1053V5.07895H23.5556C23.9849 5.07895 24.3333 5.42084 24.3333 5.84211V24.1579C24.3333 24.5792 23.9849 24.9211 23.5556 24.9211H6.44444C6.01511 24.9211 5.66667 24.5792 5.66667 24.1579ZM27.4444 27.2105C27.4444 27.6318 27.096 27.9737 26.6667 27.9737H9.55556C9.12622 27.9737 8.77778 27.6318 8.77778 27.2105V26.4474H23.5556C24.842 26.4474 25.8889 25.4202 25.8889 24.1579V8.13158H26.6667C27.096 8.13158 27.4444 8.47347 27.4444 8.89474V27.2105Z" fill="#343434"/>
</svg>
