<svg width="30" height="30" viewBox="0 0 30 30" fill="none" xmlns="http://www.w3.org/2000/svg">
<path d="M29.2105 28.8431H0.79007C0.509023 28.8431 0.250081 28.6947 0.107979 28.4515C-0.0341231 28.2084 -0.035702 27.91 0.101663 27.6652L14.3119 2.40262C14.4524 2.15473 14.7145 2 15.0003 2C15.2861 2 15.5482 2.15315 15.6887 2.40262L29.8989 27.6652C30.0363 27.91 30.0331 28.2084 29.8926 28.4515C29.7521 28.6947 29.4916 28.8431 29.2105 28.8431ZM2.14004 27.2642H27.8605L15.0003 4.40153L2.14004 27.2642Z" fill="#343434"/>
<path d="M15.0002 20.9485C14.5645 20.9485 14.2108 20.5949 14.2108 20.1591V12.2645C14.2108 11.8287 14.5645 11.4751 15.0002 11.4751C15.436 11.4751 15.7897 11.8287 15.7897 12.2645V20.1591C15.7897 20.5949 15.436 20.9485 15.0002 20.9485Z" fill="#343434"/>
<path d="M15.0002 25.6853C14.5645 25.6853 14.2108 25.3316 14.2108 24.8958V23.3169C14.2108 22.8811 14.5645 22.5275 15.0002 22.5275C15.436 22.5275 15.7897 22.8811 15.7897 23.3169V24.8958C15.7897 25.3316 15.436 25.6853 15.0002 25.6853Z" fill="#343434"/>
</svg>
