<svg width="30" height="30" viewBox="0 0 30 30" fill="none" xmlns="http://www.w3.org/2000/svg">
<path d="M14.1184 2.99996C13.8095 2.99996 13.5201 2.80797 13.4122 2.50047C13.2007 1.90197 12.6324 1.49996 11.9981 1.49996C11.3638 1.49996 10.7955 1.90197 10.5841 2.50047C10.4461 2.89047 10.0173 3.09596 9.62739 2.95796C9.23751 2.81996 9.03208 2.39096 9.17003 2.00096C9.5929 0.805465 10.7295 0.00146484 11.9981 0.00146484C13.2667 0.00146484 14.4033 0.805465 14.8262 2.00096C14.9642 2.39096 14.7602 2.81996 14.3689 2.95796C14.2864 2.98646 14.2024 3.00146 14.1184 3.00146V2.99996Z" fill="#343434"/>
<path d="M25.4973 13.5C24.8794 13.5 24.3065 13.6875 23.828 14.0085C23.4171 12.84 22.3042 12 20.9978 12C20.3799 12 19.807 12.1875 19.3285 12.5085C18.9176 11.34 17.8047 10.5 16.4983 10.5C15.9524 10.5 15.4394 10.647 14.9985 10.9035V8.24998C14.9985 7.83598 14.6625 7.49998 14.2486 7.49998C13.8346 7.49998 13.4987 7.83598 13.4987 8.24998V15.75C13.4987 16.164 13.8346 16.5 14.2486 16.5C14.6625 16.5 14.9985 16.164 14.9985 15.75V13.5C14.9985 12.6735 15.6719 12 16.4983 12C17.3247 12 17.9982 12.6735 17.9982 13.5V15.75C17.9982 16.164 18.3341 16.5 18.7481 16.5C19.162 16.5 19.498 16.164 19.498 15.75V15C19.498 14.1735 20.1714 13.5 20.9978 13.5C21.8242 13.5 22.4977 14.1735 22.4977 15V17.25C22.4977 17.664 22.8336 18 23.2476 18C23.6615 18 23.9975 17.664 23.9975 17.25V16.5C23.9975 15.6735 24.6709 15 25.4973 15C26.3237 15 26.9972 15.6735 26.9972 16.5C26.9972 20.6745 26.3432 23.8185 25.0519 25.848C23.9315 27.6075 22.3162 28.5 20.2479 28.5H12.7637C12.7053 28.4955 12.0738 28.425 11.1214 27.7125C10.172 27.0015 8.7142 25.5045 7.16487 22.4025C4.12471 16.3215 3.19031 14.406 3.18131 14.388C3.17981 14.385 3.17981 14.3835 3.17831 14.382C2.80185 13.6275 3.06882 12.639 3.76175 12.2235C4.07371 12.036 4.43817 11.9865 4.78913 12.081C5.16259 12.183 5.47606 12.435 5.66953 12.789C5.67253 12.7935 5.67553 12.7995 5.67853 12.804L8.01977 16.8615C8.49822 17.736 9.03666 18.1035 9.6201 17.955C10.205 17.8065 10.5005 17.2215 10.5005 16.2195V8.24998C10.5005 7.83598 10.1645 7.49998 9.75058 7.49998C9.33663 7.49998 9.00066 7.83598 9.00066 8.24998V15.5595L6.98189 12.06C6.59043 11.3475 5.9515 10.8405 5.18359 10.6305C4.43517 10.4265 3.65676 10.5345 2.99083 10.9335C1.63048 11.7495 1.11154 13.5945 1.83596 15.0465C1.88096 15.138 2.83785 17.0985 5.82552 23.0715C7.23236 25.884 8.77569 27.8955 10.4135 29.0475C11.6989 29.952 12.5868 29.9985 12.7517 29.9985H20.2509C21.5183 29.9985 22.6701 29.724 23.6765 29.1825C24.7204 28.62 25.6098 27.7695 26.3207 26.652C27.7666 24.3795 28.5 20.964 28.5 16.5C28.5 14.8455 27.1546 13.5 25.5003 13.5H25.4973Z" fill="#343434"/>
<path d="M18.7444 1.49998C18.4445 1.49998 17.5298 1.49998 14.4108 3.08098C13.3957 3.59548 12.487 4.10398 11.9966 4.38448C11.5063 4.10398 10.5976 3.59548 9.5824 3.08098C6.4634 1.49998 5.5487 1.49998 5.24879 1.49998C3.18246 1.49998 1.5 3.18298 1.5 5.24998C1.5 7.31698 3.18246 8.99998 5.24879 8.99998C5.5487 8.99998 6.4634 8.99998 9.5824 7.41898C10.5976 6.90448 11.5063 6.39598 11.9966 6.11548C12.487 6.39598 13.3957 6.90448 14.4108 7.41898C17.5298 8.99998 18.4445 8.99998 18.7444 8.99998C20.8108 8.99998 22.4932 7.31698 22.4932 5.24998C22.4932 3.18298 20.8108 1.49998 18.7444 1.49998ZM8.89862 6.08398C6.37643 7.36198 5.50671 7.49998 5.24879 7.49998C4.00869 7.49998 2.99952 6.49048 2.99952 5.24998C2.99952 4.00948 4.00869 2.99998 5.24879 2.99998C5.50521 2.99998 6.37643 3.13798 8.89862 4.41598C9.47593 4.70848 10.0233 5.00248 10.4746 5.24998C10.0233 5.49748 9.47593 5.79148 8.89862 6.08398ZM18.7444 7.49998C18.488 7.49998 17.6168 7.36198 15.0946 6.08398C14.5173 5.79148 13.97 5.49748 13.5186 5.24998C13.97 5.00248 14.5173 4.70848 15.0946 4.41598C17.6168 3.13798 18.4865 2.99998 18.7444 2.99998C19.9845 2.99998 20.9937 4.00948 20.9937 5.24998C20.9937 6.49048 19.9845 7.49998 18.7444 7.49998Z" fill="#343434"/>
</svg>
