<svg width="30" height="30" viewBox="0 0 30 30" fill="none" xmlns="http://www.w3.org/2000/svg">
<path d="M25.7417 1.33084C25.2958 0.664664 24.6171 0.213048 23.8302 0.0600091C22.2146 -0.253571 20.6124 0.798199 20.2611 2.40511L18.5853 10.0616L15.6588 2.01201C15.0957 0.463613 13.3689 -0.360099 11.8103 0.175539C10.2517 0.711176 9.39583 2.42312 9.90035 3.98952L12.0296 10.6017C11.7833 10.5357 11.525 10.5012 11.2578 10.5012C9.94991 10.5012 8.83425 11.3414 8.42433 12.5102C7.94684 12.1891 7.37174 12.0016 6.7531 12.0016C5.09689 12.0016 3.75 13.3474 3.75 15.0023V18.0031C3.75 19.7511 4.23951 22.7338 5.61793 25.382C6.32816 26.7474 7.17954 27.8336 8.14804 28.6093C9.30274 29.5351 10.6016 30.0047 12.0085 30.0047H18.0147C22.2011 30.0047 24.7717 25.199 24.7717 21.7526C24.7717 19.0804 24.6396 17.6925 24.533 16.5778C24.4594 15.8111 24.3963 15.1479 24.3963 14.2507C24.3963 13.2034 25.4684 7.29337 26.1907 3.57391C26.3483 2.79071 26.1892 1.99251 25.7432 1.32783L25.7417 1.33084ZM11.2578 12.0031C12.0851 12.0031 12.7593 12.6767 12.7593 13.5035V15.5485L10.5265 15.0939C10.2712 15.0279 10.013 14.9963 9.75621 14.9978V13.5035C9.75621 12.6767 10.4304 12.0031 11.2578 12.0031V12.0031ZM5.25155 15.0038C5.25155 14.1771 5.92575 13.5035 6.7531 13.5035C7.58046 13.5035 8.25465 14.1771 8.25465 15.0038V15.4105C7.56845 15.8126 7.07894 16.4547 6.87173 17.2229C6.66902 17.9806 6.76662 18.7698 7.14651 19.454C7.01888 19.4885 6.88674 19.5065 6.7531 19.5065C5.92575 19.5065 5.25155 18.8328 5.25155 18.0061V15.0053V15.0038ZM21.8062 26.2072C21.0839 27.256 19.8406 28.5073 18.0147 28.5073H12.0085C8.47989 28.5073 6.32967 24.3663 5.56688 20.7608C5.93175 20.9184 6.33117 21.0054 6.7531 21.0054C7.29066 21.0054 7.8117 20.8614 8.26667 20.5958C8.4919 20.7263 8.73515 20.8268 8.99192 20.8959L14.8134 22.4788C14.8795 22.4968 14.9456 22.5058 15.0116 22.5058C15.342 22.5058 15.6453 22.2867 15.7354 21.9521C15.8435 21.553 15.6078 21.1404 15.2083 21.0309L9.38382 19.4465C9.15408 19.385 8.94687 19.2724 8.77419 19.1194C8.76819 19.1149 8.76368 19.1089 8.75767 19.1044C8.64656 19.0024 8.54896 18.8823 8.47238 18.7473C8.27117 18.4007 8.21862 17.9956 8.32222 17.6085C8.42583 17.2214 8.67509 16.8973 9.02195 16.6978C9.36881 16.4982 9.77422 16.4442 10.1616 16.5477C10.1766 16.5522 10.1917 16.5552 10.2067 16.5582L13.3569 17.1989C13.3584 17.1989 13.3599 17.1989 13.3614 17.2004L17.8661 18.1171C19.0583 18.3602 20.4217 18.6873 21.5058 19.2739C22.6936 19.9161 23.2717 20.7278 23.2717 21.7556C23.2717 23.1899 22.7116 24.8944 21.8077 26.2072H21.8062ZM24.7177 3.28434C24.7177 3.28584 24.7162 3.28734 24.7162 3.29034C24.53 4.25209 22.8948 12.7263 22.8948 14.2537C22.8948 15.2214 22.9608 15.9176 23.0374 16.7218C23.087 17.2454 23.1425 17.8306 23.1876 18.5898C22.9023 18.3617 22.581 18.1502 22.2191 17.9551C20.9623 17.2739 19.4637 16.9123 18.1634 16.6483L14.2594 15.8546V13.1299C14.2594 12.6602 13.6542 10.7593 13.5341 10.3827L11.3298 3.5334C11.0731 2.7382 11.5085 1.86947 12.2998 1.5979C13.0912 1.32633 13.9636 1.74344 14.2488 2.52664L18.0598 13.0113C18.1739 13.3249 18.4817 13.526 18.8151 13.5035C19.1484 13.481 19.4277 13.2409 19.4983 12.9153L21.7281 2.72769C21.9068 1.90998 22.7221 1.37435 23.5435 1.53489C23.9339 1.61141 24.2717 1.83496 24.4939 2.16655C24.7162 2.49814 24.7957 2.89574 24.7177 3.28584V3.28434Z" fill="#343434"/>
</svg>
