<svg width="30" height="30" viewBox="0 0 30 30" fill="none" xmlns="http://www.w3.org/2000/svg">
<path d="M6 21.7408C5.586 21.7408 5.25 21.4048 5.25 20.9908C5.25 20.5768 5.586 20.2408 6 20.2408C6.414 20.2408 6.75 20.5768 6.75 20.9908C6.75 21.4048 6.414 21.7408 6 21.7408Z" fill="#343434"/>
<path d="M16.5 24.75C17.7405 24.75 18.75 23.74 18.75 22.4989C18.75 22.2063 18.693 21.9257 18.591 21.669C19.5465 21.4094 20.25 20.5345 20.25 19.4975C20.25 19.2049 20.193 18.9243 20.091 18.6676C21.0465 18.4065 21.75 17.5331 21.75 16.4961C21.75 16.2335 21.705 15.9799 21.621 15.7458H25.5C26.7405 15.7458 27.75 14.7358 27.75 13.4947C27.75 12.2536 26.7405 11.2436 25.5 11.2436H16.551L18.2205 9.13364C18.582 8.67743 18.762 8.09065 18.729 7.48587C18.696 6.88108 18.45 6.31682 18.039 5.90562C17.1675 5.03371 15.741 5.03071 14.859 5.90112L9.5745 11.1221C9.234 10.3117 8.4315 9.74293 7.5 9.74293H4.5C3.2595 9.74293 2.25 10.7529 2.25 11.994V22.4989C2.25 23.74 3.2595 24.75 4.5 24.75H7.5C8.3115 24.75 9.024 24.3178 9.42 23.671C10.374 24.1632 12.117 24.75 15 24.75H16.5ZM16.977 6.96662C17.2875 7.27727 17.3175 7.85504 17.043 8.20171L14.412 11.5273C14.2335 11.7524 14.199 12.06 14.325 12.3196C14.451 12.5793 14.712 12.7428 15 12.7428H25.5C25.914 12.7428 26.25 13.079 26.25 13.4932C26.25 13.9074 25.914 14.2436 25.5 14.2436H18C17.586 14.2436 17.25 14.5797 17.25 14.9939C17.25 15.4081 17.586 15.7443 18 15.7443H19.5C19.914 15.7443 20.25 16.0804 20.25 16.4946C20.25 16.9088 19.914 17.245 19.5 17.245H18C17.586 17.245 17.25 17.5811 17.25 17.9953C17.25 18.4095 17.586 18.7457 18 18.7457C18.414 18.7457 18.75 19.0818 18.75 19.496C18.75 19.9102 18.414 20.2464 18 20.2464H16.5C16.086 20.2464 15.75 20.5825 15.75 20.9967C15.75 21.4109 16.086 21.7471 16.5 21.7471C16.914 21.7471 17.25 22.0832 17.25 22.4974C17.25 22.9116 16.914 23.2478 16.5 23.2478H15C11.847 23.2478 10.2915 22.4734 9.75 22.1253V13.0565L15.912 6.96812C16.203 6.67999 16.6905 6.67999 16.977 6.96512V6.96662ZM4.5 23.2493C4.086 23.2493 3.75 22.9131 3.75 22.4989V11.994C3.75 11.5798 4.086 11.2436 4.5 11.2436H7.5C7.914 11.2436 8.25 11.5798 8.25 11.994V22.4989C8.25 22.9131 7.914 23.2493 7.5 23.2493H4.5Z" fill="#343434"/>
</svg>
