<svg width="30" height="30" viewBox="0 0 30 30" fill="none" xmlns="http://www.w3.org/2000/svg">
<path d="M21.7486 26.25C21.7486 26.664 21.4124 27 20.9982 27C20.584 27 20.2479 26.664 20.2479 26.25C20.2479 25.836 20.584 25.5 20.9982 25.5C21.4124 25.5 21.7486 25.836 21.7486 26.25Z" fill="#343434"/>
<path d="M24.75 15.75C24.75 14.5095 23.74 13.5 22.4989 13.5C22.2063 13.5 21.9257 13.557 21.669 13.659C21.4094 12.7035 20.5345 12 19.4975 12C19.2049 12 18.9243 12.057 18.6676 12.159C18.4065 11.2035 17.5331 10.5 16.4961 10.5C16.2335 10.5 15.9799 10.545 15.7458 10.629V6.75C15.7458 5.5095 14.7358 4.5 13.4947 4.5C12.2536 4.5 11.2436 5.5095 11.2436 6.75V15.699L9.13364 14.0295C8.67743 13.668 8.09215 13.488 7.48587 13.521C6.87958 13.554 6.31682 13.8 5.90562 14.211C5.03371 15.0825 5.03071 16.509 5.90112 17.391L11.1221 22.6755C10.3117 23.016 9.74293 23.8185 9.74293 24.75V27.75C9.74293 28.9905 10.7529 30 11.994 30H22.4989C23.74 30 24.75 28.9905 24.75 27.75V24.75C24.75 23.9385 24.3178 23.226 23.671 22.83C24.1632 21.876 24.75 20.133 24.75 17.25V15.75ZM6.96662 15.273C7.27727 14.9625 7.85504 14.9325 8.20171 15.207L11.5273 17.838C11.7524 18.0165 12.06 18.051 12.3196 17.925C12.5793 17.799 12.7428 17.538 12.7428 17.25V6.75C12.7428 6.336 13.079 6 13.4932 6C13.9074 6 14.2436 6.336 14.2436 6.75V14.25C14.2436 14.664 14.5797 15 14.9939 15C15.4081 15 15.7443 14.664 15.7443 14.25V12.75C15.7443 12.336 16.0804 12 16.4946 12C16.9088 12 17.245 12.336 17.245 12.75V14.25C17.245 14.664 17.5811 15 17.9953 15C18.4095 15 18.7457 14.664 18.7457 14.25C18.7457 13.836 19.0818 13.5 19.496 13.5C19.9102 13.5 20.2464 13.836 20.2464 14.25V15.75C20.2464 16.164 20.5825 16.5 20.9967 16.5C21.4109 16.5 21.7471 16.164 21.7471 15.75C21.7471 15.336 22.0832 15 22.4974 15C22.9116 15 23.2478 15.336 23.2478 15.75V17.25C23.2478 20.403 22.4734 21.9585 22.1253 22.5H13.0565L6.96812 16.338C6.67999 16.047 6.67999 15.5595 6.96512 15.273H6.96662ZM23.2493 27.75C23.2493 28.164 22.9131 28.5 22.4989 28.5H11.994C11.5798 28.5 11.2436 28.164 11.2436 27.75V24.75C11.2436 24.336 11.5798 24 11.994 24H22.4989C22.9131 24 23.2493 24.336 23.2493 24.75V27.75Z" fill="#343434"/>
<path d="M19.4975 9C19.0833 9 18.7472 8.664 18.7472 8.25V6.75C18.7472 3.855 16.3911 1.5 13.4947 1.5C10.5983 1.5 8.24222 3.855 8.24222 6.75V8.25C8.24222 8.664 7.90606 9 7.49187 9C7.07767 9 6.74152 8.664 6.74152 8.25V6.75C6.74152 3.0285 9.77144 0 13.4947 0C17.218 0 20.2479 3.0285 20.2479 6.75V8.25C20.2479 8.664 19.9117 9 19.4975 9Z" fill="#343434"/>
</svg>
