<svg width="30" height="30" viewBox="0 0 30 30" fill="none" xmlns="http://www.w3.org/2000/svg">
<path d="M27 12C26.382 12 25.809 12.1875 25.3305 12.5085C24.9195 11.34 23.8065 10.5 22.5 10.5C21.882 10.5 21.309 10.6875 20.8305 11.0085C20.4195 9.84 19.3065 9 18 9C17.454 9 16.941 9.147 16.5 9.4035V4.5C16.5 2.8455 15.1545 1.5 13.5 1.5C11.8455 1.5 10.5 2.8455 10.5 4.5V15.5595L8.481 12.06C8.0895 11.3475 7.4505 10.8405 6.6825 10.6305C5.934 10.4265 5.1555 10.5345 4.4895 10.9335C3.129 11.7495 2.61 13.5945 3.3345 15.0465C3.3795 15.138 4.3365 17.0985 7.3245 23.0715C8.7315 25.884 10.275 27.8955 11.913 29.0475C13.1985 29.952 14.0865 29.9985 14.2515 29.9985H21.7515C23.0235 29.9985 24.1995 29.631 25.248 28.9035C26.262 28.2015 27.1365 27.1755 27.849 25.854C29.2575 23.2395 30.0015 19.485 30.0015 14.9985C30.0015 13.344 28.656 11.9985 27.0015 11.9985L27 12ZM26.5275 25.1445C25.704 26.676 24.2055 28.5 21.75 28.5H14.265C14.2065 28.4955 13.575 28.425 12.6225 27.7125C11.673 27.0015 10.215 25.5045 8.6655 22.4025C5.625 16.3215 4.6905 14.406 4.6815 14.388C4.68 14.385 4.68 14.3835 4.6785 14.382C4.302 13.6275 4.569 12.639 5.262 12.2235C5.574 12.036 5.9385 11.9865 6.2895 12.081C6.663 12.183 6.9765 12.435 7.17 12.789C7.173 12.7935 7.176 12.7995 7.179 12.804L9.5205 16.8615C9.999 17.736 10.5375 18.1035 11.121 17.955C11.706 17.8065 12.0015 17.2215 12.0015 16.2195V4.5015C12.0015 3.675 12.675 3.0015 13.5015 3.0015C14.328 3.0015 15.0015 3.675 15.0015 4.5015V14.2515C15.0015 14.6655 15.3375 15.0015 15.7515 15.0015C16.1655 15.0015 16.5015 14.6655 16.5015 14.2515V12.0015C16.5015 11.175 17.175 10.5015 18.0015 10.5015C18.828 10.5015 19.5015 11.175 19.5015 12.0015V14.2515C19.5015 14.6655 19.8375 15.0015 20.2515 15.0015C20.6655 15.0015 21.0015 14.6655 21.0015 14.2515V13.5015C21.0015 12.675 21.675 12.0015 22.5015 12.0015C23.328 12.0015 24.0015 12.675 24.0015 13.5015V15.7515C24.0015 16.1655 24.3375 16.5015 24.7515 16.5015C25.1655 16.5015 25.5015 16.1655 25.5015 15.7515V15.0015C25.5015 14.175 26.175 13.5015 27.0015 13.5015C27.828 13.5015 28.5015 14.175 28.5015 15.0015C28.5015 19.2405 27.819 22.749 26.529 25.146L26.5275 25.1445Z" fill="#343434"/>
<path d="M8.25 0H5.25C4.836 0 4.5 0.336 4.5 0.75C4.5 1.164 4.836 1.5 5.25 1.5H6.4395L1.5 6.4395V5.25C1.5 4.836 1.164 4.5 0.75 4.5C0.336 4.5 0 4.836 0 5.25V8.25C0 8.664 0.336 9 0.75 9H3.75C4.164 9 4.5 8.664 4.5 8.25C4.5 7.836 4.164 7.5 3.75 7.5H2.5605L7.5 2.5605V3.75C7.5 4.164 7.836 4.5 8.25 4.5C8.664 4.5 9 4.164 9 3.75V0.75C9 0.336 8.664 0 8.25 0Z" fill="#343434"/>
</svg>
