<svg width="30" height="30" viewBox="0 0 30 30" fill="none" xmlns="http://www.w3.org/2000/svg">
<path d="M27.767 11.8672C27.1144 11.3666 26.3003 11.1468 25.4769 11.2506C24.6534 11.3544 23.9232 11.768 23.4198 12.4136L21.5212 14.8526L19.8354 8.99632L22.0059 4.98533C22.3959 4.26493 22.4767 3.43923 22.2343 2.65932C21.9919 1.8794 21.4544 1.2399 20.721 0.856811C19.5185 0.227995 18.0797 0.458459 17.1366 1.3269C16.3691 0.64161 15.2738 0.339412 14.2064 0.620242C13.4078 0.830865 12.7381 1.33758 12.3249 2.04576C11.9116 2.75394 11.8013 3.57659 12.0188 4.36109L13.1297 8.38429L11.071 12.1892C10.5024 11.5726 9.68048 11.185 8.76846 11.185C7.41519 11.185 6.2608 12.0397 5.83664 13.2286C5.34257 12.902 4.7475 12.7112 4.10738 12.7112C2.39366 12.7112 1 14.0803 1 15.7637V18.8162C1 20.9591 1.86851 23.5705 3.26684 25.6309C4.96036 28.1264 7.18991 29.5 9.5453 29.5H15.7601C17.4427 29.5 19.1844 28.4896 21.083 26.4093C22.5854 24.7656 23.8968 22.7646 24.8554 21.304C25.191 20.7912 25.4815 20.3501 25.7192 20.0143L28.432 16.1911C29.3984 14.8281 29.1016 12.8883 27.7701 11.8657L27.767 11.8672ZM19.9908 2.20449C20.3574 2.39527 20.6262 2.71579 20.7474 3.10651C20.8686 3.49723 20.8282 3.90932 20.634 4.26951L19.2233 6.87483L18.0393 2.75852C18.0285 2.72342 18.0176 2.68832 18.0067 2.65474C18.4542 2.05034 19.3009 1.8443 19.9923 2.20602L19.9908 2.20449ZM7.21166 14.2375C7.21166 13.3965 7.90927 12.7112 8.76535 12.7112C9.62144 12.7112 10.319 13.3965 10.319 14.2375V18.8162C10.319 19.6572 9.62144 20.3425 8.76535 20.3425C7.90927 20.3425 7.21166 19.6572 7.21166 18.8162V14.2375ZM2.55058 15.7637C2.55058 14.9228 3.24819 14.2375 4.10428 14.2375C4.96036 14.2375 5.65797 14.9228 5.65797 15.7637V18.8162C5.65797 19.6572 4.96036 20.3425 4.10428 20.3425C3.24819 20.3425 2.55058 19.6572 2.55058 18.8162V15.7637ZM27.1548 15.3196L24.4421 19.1428C24.1888 19.5 23.8905 19.9533 23.5472 20.4783C21.8288 23.0974 18.6313 27.9737 15.757 27.9737H9.5422C7.08736 27.9737 5.36432 25.9759 4.5564 24.7839C3.92249 23.8513 3.40667 22.7692 3.05553 21.6902C3.38336 21.8062 3.73605 21.8687 4.10428 21.8687C5.03183 21.8687 5.86461 21.4673 6.43481 20.8324C7.00502 21.4673 7.8378 21.8687 8.76535 21.8687C10.4791 21.8687 11.8727 20.4997 11.8727 18.8162V14.2375C11.8727 14.1489 11.8681 14.062 11.8603 13.975L13.7201 10.5378L15.0065 15.2005C15.1184 15.608 15.5457 15.8477 15.9589 15.7378C16.3722 15.6279 16.6177 15.2082 16.5058 14.8022L13.515 3.96426C13.4078 3.57354 13.4622 3.16298 13.6688 2.80889C13.8754 2.4548 14.2095 2.20144 14.6072 2.09613C15.44 1.87635 16.307 2.36017 16.5416 3.17519L20.4445 16.7359C20.5252 17.0137 20.7567 17.2243 21.0457 17.2778C21.3347 17.3312 21.6299 17.2213 21.8086 16.9924L24.6503 13.3431C24.9004 13.0226 25.2625 12.8181 25.6711 12.7662C26.0797 12.7143 26.4836 12.8226 26.8068 13.0714C27.4889 13.5949 27.6458 14.6251 27.1517 15.3211L27.1548 15.3196Z" fill="#343434"/>
</svg>
