<svg width="30" height="30" viewBox="0 0 30 30" fill="none" xmlns="http://www.w3.org/2000/svg">
<path d="M21.7504 24.7504C21.7504 25.1644 21.4144 25.5004 21.0004 25.5004C20.5864 25.5004 20.2504 25.1644 20.2504 24.7504C20.2504 24.3364 20.5864 24.0004 21.0004 24.0004C21.4144 24.0004 21.7504 24.3364 21.7504 24.7504Z" fill="#343434"/>
<path d="M24.7504 14.2504C24.7504 13.0099 23.7409 12.0004 22.5004 12.0004C22.2079 12.0004 21.9274 12.0574 21.6709 12.1594C21.4114 11.2039 20.5369 10.5004 19.5004 10.5004C19.2379 10.5004 18.9859 10.5469 18.7504 10.6294V3.75037C18.7504 2.50987 17.7409 1.50037 16.5004 1.50037C15.4639 1.50037 14.5894 2.20387 14.3299 3.15787C14.0734 3.05587 13.7929 3.00037 13.5004 3.00037C12.2599 3.00037 11.2504 4.00987 11.2504 5.25037V14.1994L9.14138 12.5299C8.68538 12.1684 8.10038 11.9884 7.49438 12.0214C6.88838 12.0544 6.32588 12.3004 5.91488 12.7114C5.04338 13.5829 5.04038 15.0094 5.91038 15.8914L11.1289 21.1759C10.3189 21.5164 9.75038 22.3189 9.75038 23.2504V26.2504C9.75038 27.4909 10.7599 28.5004 12.0004 28.5004H22.5004C23.7409 28.5004 24.7504 27.4909 24.7504 26.2504V23.2504C24.7504 22.4389 24.3184 21.7264 23.6719 21.3304C24.1639 20.3764 24.7504 18.6334 24.7504 15.7504V14.2504ZM6.97538 13.7734C7.28588 13.4629 7.86338 13.4329 8.20988 13.7074L11.5339 16.3384C11.7589 16.5169 12.0664 16.5514 12.3259 16.4254C12.5854 16.2994 12.7489 16.0384 12.7489 15.7504V5.25037C12.7489 4.83637 13.0849 4.50037 13.4989 4.50037C13.9129 4.50037 14.2489 4.83637 14.2489 5.25037V12.7504C14.2489 13.1644 14.5849 13.5004 14.9989 13.5004C15.4129 13.5004 15.7489 13.1644 15.7489 12.7504V3.75037C15.7489 3.33637 16.0849 3.00037 16.4989 3.00037C16.9129 3.00037 17.2489 3.33637 17.2489 3.75037V12.7504C17.2489 13.1644 17.5849 13.5004 17.9989 13.5004C18.4129 13.5004 18.7489 13.1644 18.7489 12.7504C18.7489 12.3364 19.0849 12.0004 19.4989 12.0004C19.9129 12.0004 20.2489 12.3364 20.2489 12.7504V14.2504C20.2489 14.6644 20.5849 15.0004 20.9989 15.0004C21.4129 15.0004 21.7489 14.6644 21.7489 14.2504C21.7489 13.8364 22.0849 13.5004 22.4989 13.5004C22.9129 13.5004 23.2489 13.8364 23.2489 14.2504V15.7504C23.2489 18.9034 22.4749 20.4589 22.1269 21.0004H13.0624L6.97688 14.8384C6.68888 14.5474 6.68888 14.0599 6.97388 13.7734H6.97538ZM23.2504 26.2504C23.2504 26.6644 22.9144 27.0004 22.5004 27.0004H12.0004C11.5864 27.0004 11.2504 26.6644 11.2504 26.2504V23.2504C11.2504 22.8364 11.5864 22.5004 12.0004 22.5004H22.5004C22.9144 22.5004 23.2504 22.8364 23.2504 23.2504V26.2504Z" fill="#343434"/>
<path d="M28.2814 4.71938L25.2814 1.71938C24.9889 1.42687 24.5134 1.42687 24.2209 1.71938C23.9284 2.01188 23.9284 2.48738 24.2209 2.77988L25.9399 4.49888H21.0004C20.5864 4.49888 20.2504 4.83488 20.2504 5.24888C20.2504 5.66288 20.5864 5.99888 21.0004 5.99888H25.9399L24.2209 7.71788C23.9284 8.01038 23.9284 8.48588 24.2209 8.77838C24.3679 8.92538 24.5599 8.99738 24.7519 8.99738C24.9439 8.99738 25.1359 8.92388 25.2829 8.77838L28.2829 5.77838C28.5754 5.48588 28.5754 5.01038 28.2829 4.71788L28.2814 4.71938Z" fill="#343434"/>
<path d="M9.00037 4.50036H4.06087L5.77987 2.78136C6.07237 2.48886 6.07237 2.01336 5.77987 1.72086C5.48737 1.42836 5.01187 1.42836 4.71937 1.72086L1.71937 4.72086C1.42687 5.01336 1.42687 5.48886 1.71937 5.78136L4.71937 8.78136C4.86637 8.92836 5.05837 9.00036 5.25037 9.00036C5.44237 9.00036 5.63437 8.92686 5.78137 8.78136C6.07387 8.48886 6.07387 8.01336 5.78137 7.72086L4.06237 6.00186H9.00187C9.41587 6.00186 9.75187 5.66586 9.75187 5.25186C9.75187 4.83786 9.41587 4.50186 9.00187 4.50186L9.00037 4.50036Z" fill="#343434"/>
</svg>
