<svg width="30" height="30" viewBox="0 0 30 30" fill="none" xmlns="http://www.w3.org/2000/svg">
<path d="M25.5 26.25C25.5 26.664 25.164 27 24.75 27C24.336 27 24 26.664 24 26.25C24 25.836 24.336 25.5 24.75 25.5C25.164 25.5 25.5 25.836 25.5 26.25Z" fill="#343434"/>
<path d="M28.5 15.75C28.5 14.5095 27.4905 13.5 26.25 13.5C25.9575 13.5 25.677 13.557 25.4205 13.659C25.161 12.7035 24.2865 12 23.25 12C22.9575 12 22.677 12.057 22.4205 12.159C22.1595 11.2035 21.2865 10.5 20.25 10.5C19.9875 10.5 19.734 10.545 19.5 10.629V6.75C19.5 5.5095 18.4905 4.5 17.25 4.5C16.0095 4.5 15 5.5095 15 6.75V15.699L12.891 14.0295C12.435 13.668 11.85 13.488 11.244 13.521C10.638 13.554 10.0755 13.8 9.66451 14.211C8.79301 15.0825 8.79001 16.509 9.66001 17.391L14.8785 22.6755C14.0685 23.016 13.5 23.8185 13.5 24.75V27.75C13.5 28.9905 14.5095 30 15.75 30H26.25C27.4905 30 28.5 28.9905 28.5 27.75V24.75C28.5 23.9385 28.068 23.226 27.4215 22.83C27.9135 21.876 28.5 20.133 28.5 17.25V15.75ZM10.725 15.273C11.0355 14.9625 11.613 14.9325 11.9595 15.207L15.2835 17.838C15.5085 18.0165 15.816 18.051 16.0755 17.925C16.335 17.799 16.4985 17.538 16.4985 17.25V6.75C16.4985 6.336 16.8345 6 17.2485 6C17.6625 6 17.9985 6.336 17.9985 6.75V14.25C17.9985 14.664 18.3345 15 18.7485 15C19.1625 15 19.4985 14.664 19.4985 14.25V12.75C19.4985 12.336 19.8345 12 20.2485 12C20.6625 12 20.9985 12.336 20.9985 12.75V14.25C20.9985 14.664 21.3345 15 21.7485 15C22.1625 15 22.4985 14.664 22.4985 14.25C22.4985 13.836 22.8345 13.5 23.2485 13.5C23.6625 13.5 23.9985 13.836 23.9985 14.25V15.75C23.9985 16.164 24.3345 16.5 24.7485 16.5C25.1625 16.5 25.4985 16.164 25.4985 15.75C25.4985 15.336 25.8345 15 26.2485 15C26.6625 15 26.9985 15.336 26.9985 15.75V17.25C26.9985 20.403 26.2245 21.9585 25.8765 22.5H16.812L10.7265 16.338C10.4385 16.047 10.4385 15.5595 10.7235 15.273H10.725ZM27 27.75C27 28.164 26.664 28.5 26.25 28.5H15.75C15.336 28.5 15 28.164 15 27.75V24.75C15 24.336 15.336 24 15.75 24H26.25C26.664 24 27 24.336 27 24.75V27.75Z" fill="#343434"/>
<path d="M12.75 4.5H10.0605L13.2795 1.281C13.572 0.9885 13.572 0.513 13.2795 0.2205C12.987 -0.072 12.5115 -0.072 12.219 0.2205L9 3.4395V0.75C9 0.336 8.664 0 8.25 0C7.836 0 7.5 0.336 7.5 0.75V5.25C7.5 5.664 7.836 6 8.25 6H12.75C13.164 6 13.5 5.664 13.5 5.25C13.5 4.836 13.164 4.5 12.75 4.5Z" fill="#343434"/>
<path d="M7.5 6.7485C7.4985 6.3345 7.164 6 6.75 6H2.25C1.836 6 1.5 6.336 1.5 6.75C1.5 7.164 1.836 7.5 2.25 7.5H4.9395L1.7205 10.719C1.428 11.0115 1.428 11.487 1.7205 11.7795C1.8675 11.9265 2.0595 11.9985 2.2515 11.9985C2.4435 11.9985 2.6355 11.925 2.7825 11.7795L6.006 8.556L6.012 11.2515C6.0135 11.6655 6.348 12 6.762 12H6.7635C7.1775 11.9985 7.512 11.6625 7.512 11.2485L7.5015 6.7485H7.5Z" fill="#343434"/>
</svg>
