<svg width="30" height="30" viewBox="0 0 30 30" fill="none" xmlns="http://www.w3.org/2000/svg">
<path d="M21.7486 24.75C21.7486 25.164 21.4124 25.5 20.9982 25.5C20.584 25.5 20.2479 25.164 20.2479 24.75C20.2479 24.336 20.584 24 20.9982 24C21.4124 24 21.7486 24.336 21.7486 24.75Z" fill="#343434"/>
<path d="M24.75 9.75C24.75 8.5095 23.74 7.5 22.4989 7.5C22.2363 7.5 21.9842 7.5465 21.7486 7.629V5.25C21.7486 4.0095 20.7386 3 19.4975 3C19.2049 3 18.9243 3.057 18.6676 3.159C18.408 2.2035 17.5331 1.5 16.4961 1.5C15.4591 1.5 14.5842 2.2035 14.3246 3.159C14.068 3.057 13.7873 3 13.4947 3C12.2536 3 11.2436 4.0095 11.2436 5.25V14.199L9.13364 12.5295C8.67743 12.168 8.09065 11.988 7.48587 12.021C6.88108 12.054 6.31682 12.3 5.90562 12.711C5.03371 13.5825 5.03071 15.009 5.90112 15.891L11.1221 21.1755C10.3117 21.516 9.74293 22.3185 9.74293 23.25V26.25C9.74293 27.4905 10.7529 28.5 11.994 28.5H22.4989C23.74 28.5 24.75 27.4905 24.75 26.25V23.25C24.75 22.4385 24.3178 21.726 23.671 21.33C24.1632 20.376 24.75 18.633 24.75 15.75V9.75ZM6.96662 13.773C7.27727 13.4625 7.85504 13.4325 8.20171 13.707L11.5273 16.338C11.7524 16.5165 12.06 16.551 12.3196 16.425C12.5793 16.299 12.7428 16.038 12.7428 15.75V5.25C12.7428 4.836 13.079 4.5 13.4932 4.5C13.9074 4.5 14.2436 4.836 14.2436 5.25V12.75C14.2436 13.164 14.5797 13.5 14.9939 13.5C15.4081 13.5 15.7443 13.164 15.7443 12.75V3.75C15.7443 3.336 16.0804 3 16.4946 3C16.9088 3 17.245 3.336 17.245 3.75V12.75C17.245 13.164 17.5811 13.5 17.9953 13.5C18.4095 13.5 18.7457 13.164 18.7457 12.75V5.25C18.7457 4.836 19.0818 4.5 19.496 4.5C19.9102 4.5 20.2464 4.836 20.2464 5.25V14.25C20.2464 14.664 20.5825 15 20.9967 15C21.4109 15 21.7471 14.664 21.7471 14.25V9.75C21.7471 9.336 22.0832 9 22.4974 9C22.9116 9 23.2478 9.336 23.2478 9.75V15.75C23.2478 18.903 22.4734 20.4585 22.1253 21H13.0565L6.96812 14.838C6.67549 14.5425 6.67399 14.064 6.96512 13.773H6.96662ZM23.2493 26.25C23.2493 26.664 22.9131 27 22.4989 27H11.994C11.5798 27 11.2436 26.664 11.2436 26.25V23.25C11.2436 22.836 11.5798 22.5 11.994 22.5H22.4989C22.9131 22.5 23.2493 22.836 23.2493 23.25V26.25Z" fill="#343434"/>
</svg>
