<svg width="30" height="30" viewBox="0 0 30 30" fill="none" xmlns="http://www.w3.org/2000/svg">
<path d="M21.7486 6C21.7486 5.586 21.4124 5.25 20.9982 5.25C20.584 5.25 20.2479 5.586 20.2479 6C20.2479 6.414 20.584 6.75 20.9982 6.75C21.4124 6.75 21.7486 6.414 21.7486 6Z" fill="#343434"/>
<path d="M24.75 16.5C24.75 17.7405 23.74 18.75 22.4989 18.75C22.2063 18.75 21.9257 18.693 21.669 18.591C21.4094 19.5465 20.5345 20.25 19.4975 20.25C19.2049 20.25 18.9243 20.193 18.6676 20.091C18.4065 21.0465 17.5331 21.75 16.4961 21.75C16.2335 21.75 15.9799 21.705 15.7458 21.621V25.5C15.7458 26.7405 14.7358 27.75 13.4947 27.75C12.2536 27.75 11.2436 26.7405 11.2436 25.5V16.551L9.13364 18.2205C8.67743 18.582 8.09065 18.762 7.48587 18.729C6.88108 18.696 6.31682 18.45 5.90562 18.039C5.03371 17.1675 5.03071 15.741 5.90112 14.859L11.1221 9.5745C10.3117 9.234 9.74293 8.4315 9.74293 7.5V4.5C9.74293 3.2595 10.7529 2.25 11.994 2.25H22.4989C23.74 2.25 24.75 3.2595 24.75 4.5V7.5C24.75 8.3115 24.3178 9.024 23.671 9.42C24.1632 10.374 24.75 12.117 24.75 15V16.5ZM6.96662 16.977C7.27727 17.2875 7.85504 17.3175 8.20171 17.043L11.5273 14.412C11.7524 14.2335 12.06 14.199 12.3196 14.325C12.5793 14.451 12.7428 14.712 12.7428 15V25.5C12.7428 25.914 13.079 26.25 13.4932 26.25C13.9074 26.25 14.2436 25.914 14.2436 25.5V18C14.2436 17.586 14.5797 17.25 14.9939 17.25C15.4081 17.25 15.7443 17.586 15.7443 18V19.5C15.7443 19.914 16.0804 20.25 16.4946 20.25C16.9088 20.25 17.245 19.914 17.245 19.5V18C17.245 17.586 17.5811 17.25 17.9953 17.25C18.4095 17.25 18.7457 17.586 18.7457 18C18.7457 18.414 19.0818 18.75 19.496 18.75C19.9102 18.75 20.2464 18.414 20.2464 18V16.5C20.2464 16.086 20.5825 15.75 20.9967 15.75C21.4109 15.75 21.7471 16.086 21.7471 16.5C21.7471 16.914 22.0832 17.25 22.4974 17.25C22.9116 17.25 23.2478 16.914 23.2478 16.5V15C23.2478 11.847 22.4734 10.2915 22.1253 9.75H13.0565L6.96812 15.912C6.67999 16.203 6.67999 16.6905 6.96512 16.977H6.96662ZM23.2493 4.5C23.2493 4.086 22.9131 3.75 22.4989 3.75H11.994C11.5798 3.75 11.2436 4.086 11.2436 4.5V7.5C11.2436 7.914 11.5798 8.25 11.994 8.25H22.4989C22.9131 8.25 23.2493 7.914 23.2493 7.5V4.5Z" fill="#343434"/>
</svg>
