<svg width="30" height="30" viewBox="0 0 30 30" fill="none" xmlns="http://www.w3.org/2000/svg">
<path d="M24 21.7486C24.414 21.7486 24.75 21.4124 24.75 20.9982C24.75 20.584 24.414 20.2479 24 20.2479C23.586 20.2479 23.25 20.584 23.25 20.9982C23.25 21.4124 23.586 21.7486 24 21.7486Z" fill="#343434"/>
<path d="M13.5 24.75C12.2595 24.75 11.25 23.74 11.25 22.4989C11.25 22.2063 11.307 21.9257 11.409 21.669C10.4535 21.4094 9.75 20.5345 9.75 19.4975C9.75 19.2049 9.807 18.9243 9.909 18.6676C8.9535 18.4065 8.25 17.5331 8.25 16.4961C8.25 16.2335 8.295 15.9799 8.379 15.7458H4.5C3.2595 15.7458 2.25 14.7358 2.25 13.4947C2.25 12.2536 3.2595 11.2436 4.5 11.2436H13.449L11.7795 9.13364C11.418 8.67743 11.238 8.09065 11.271 7.48587C11.304 6.88108 11.55 6.31682 11.961 5.90562C12.8325 5.03371 14.259 5.03071 15.141 5.90112L20.4255 11.1221C20.766 10.3117 21.5685 9.74293 22.5 9.74293H25.5C26.7405 9.74293 27.75 10.7529 27.75 11.994V22.4989C27.75 23.74 26.7405 24.75 25.5 24.75H22.5C21.6885 24.75 20.976 24.3178 20.58 23.671C19.626 24.1632 17.883 24.75 15 24.75H13.5ZM13.023 6.96662C12.7125 7.27727 12.6825 7.85504 12.957 8.20171L15.588 11.5273C15.7665 11.7524 15.801 12.06 15.675 12.3196C15.549 12.5793 15.288 12.7428 15 12.7428H4.5C4.086 12.7428 3.75 13.079 3.75 13.4932C3.75 13.9074 4.086 14.2436 4.5 14.2436H12C12.414 14.2436 12.75 14.5797 12.75 14.9939C12.75 15.4081 12.414 15.7443 12 15.7443H10.5C10.086 15.7443 9.75 16.0804 9.75 16.4946C9.75 16.9088 10.086 17.245 10.5 17.245H12C12.414 17.245 12.75 17.5811 12.75 17.9953C12.75 18.4095 12.414 18.7457 12 18.7457C11.586 18.7457 11.25 19.0818 11.25 19.496C11.25 19.9102 11.586 20.2464 12 20.2464H13.5C13.914 20.2464 14.25 20.5825 14.25 20.9967C14.25 21.4109 13.914 21.7471 13.5 21.7471C13.086 21.7471 12.75 22.0832 12.75 22.4974C12.75 22.9116 13.086 23.2478 13.5 23.2478H15C18.153 23.2478 19.7085 22.4734 20.25 22.1253V13.0565L14.088 6.96812C13.797 6.67999 13.3095 6.67999 13.023 6.96512V6.96662ZM25.5 23.2493C25.914 23.2493 26.25 22.9131 26.25 22.4989V11.994C26.25 11.5798 25.914 11.2436 25.5 11.2436H22.5C22.086 11.2436 21.75 11.5798 21.75 11.994V22.4989C21.75 22.9131 22.086 23.2493 22.5 23.2493H25.5Z" fill="#343434"/>
</svg>
