<svg width="30" height="30" viewBox="0 0 30 30" fill="none" xmlns="http://www.w3.org/2000/svg">
<path d="M11.1848 25.8867C11.1848 25.2457 11.3756 24.6513 11.7022 24.155C10.5132 23.7287 9.65838 22.5742 9.65838 21.219C9.65838 20.578 9.84918 19.9837 10.1758 19.4873C8.98676 19.061 8.13198 17.9065 8.13198 16.5514C8.13198 15.985 8.28157 15.4529 8.54258 14.9955H3.55279C1.86918 14.9955 0.5 13.5999 0.5 11.8837C0.5 10.1676 1.86918 8.77195 3.55279 8.77195H14.8069L11.2458 6.67773C10.5208 6.27165 10.0049 5.60884 9.79117 4.81223C9.58358 4.03584 9.69348 3.22834 10.0995 2.53753C10.9299 1.12634 12.8073 0.588003 14.2849 1.3395C14.378 1.38617 16.373 2.37883 22.4511 5.47815C25.3131 6.93757 27.36 8.53857 28.5323 10.2376C29.4527 11.571 29.5 12.4921 29.5 12.6632V20.4426C29.5 21.762 29.126 22.9818 28.3857 24.0694C27.6714 25.1212 26.6273 26.0283 25.2826 26.7673C22.6221 28.2283 18.8015 29 14.236 29C12.5524 29 11.1832 27.6044 11.1832 25.8882L11.1848 25.8867ZM24.5606 25.3966C26.119 24.5424 27.9751 22.9881 27.9751 20.4411V12.6772C27.9705 12.6165 27.8988 11.9615 27.1738 10.9735C26.4503 9.98865 24.9269 8.47633 21.7703 6.86911C15.5823 3.71533 13.6331 2.74601 13.6148 2.73668C13.6117 2.73512 13.6102 2.73512 13.6087 2.73357C12.8409 2.34304 11.835 2.61999 11.4122 3.33881C11.2214 3.66243 11.171 4.04051 11.2672 4.40459C11.371 4.792 11.6274 5.11718 11.9877 5.31789C11.9922 5.321 11.9983 5.32411 12.0029 5.32723L16.1318 7.75596C17.0217 8.25229 17.3957 8.81085 17.2446 9.41609C17.0935 10.0229 16.4982 10.3294 15.4785 10.3294H3.55432C2.71327 10.3294 2.02792 11.028 2.02792 11.8853C2.02792 12.7426 2.71327 13.4412 3.55432 13.4412H13.4759C13.8972 13.4412 14.2391 13.7897 14.2391 14.2191C14.2391 14.6485 13.8972 14.997 13.4759 14.997H11.1863C10.3453 14.997 9.6599 15.6956 9.6599 16.5529C9.6599 17.4102 10.3453 18.1088 11.1863 18.1088H13.4759C13.8972 18.1088 14.2391 18.4573 14.2391 18.8868C14.2391 19.3162 13.8972 19.6647 13.4759 19.6647H12.7127C11.8717 19.6647 11.1863 20.3633 11.1863 21.2206C11.1863 22.0779 11.8717 22.7765 12.7127 22.7765H15.0023C15.4236 22.7765 15.7655 23.125 15.7655 23.5544C15.7655 23.9838 15.4236 24.3323 15.0023 24.3323H14.2391C13.398 24.3323 12.7127 25.0309 12.7127 25.8882C12.7127 26.7455 13.398 27.4441 14.2391 27.4441C18.5527 27.4441 22.1229 26.7362 24.5621 25.3981L24.5606 25.3966Z" fill="#343434"/>
</svg>
