<svg width="30" height="30" viewBox="0 0 30 30" fill="none" xmlns="http://www.w3.org/2000/svg">
<path d="M25.4979 6.0003C24.9518 6.0003 24.4386 6.14731 23.9976 6.40382V4.50022C23.9976 2.84564 22.6518 1.50007 20.9969 1.50007C20.3788 1.50007 19.8057 1.68758 19.3271 2.0086C18.916 0.840042 17.8027 0 16.496 0C15.1892 0 14.0745 0.840042 13.6649 2.0086C13.1878 1.68758 12.6131 1.50007 11.995 1.50007C10.3402 1.50007 8.99438 2.84564 8.99438 4.50022V15.5603L6.97496 12.0606C6.58337 11.3481 5.94424 10.841 5.17608 10.631C4.42742 10.427 3.64875 10.535 2.98261 10.934C1.62183 11.7501 1.10272 13.5952 1.82737 15.0473C1.87238 15.1388 2.82958 17.0994 5.81821 23.0727C7.22551 25.8853 8.76934 27.8969 10.4077 29.049C11.6935 29.9535 12.5816 30 12.7467 30H20.2483C21.525 30 22.7118 29.5845 23.777 28.7669C24.7777 27.9974 25.6464 26.8843 26.3575 25.4608C27.7588 22.6586 28.5 18.7824 28.5 14.2492V8.99895C28.5 7.34437 27.1542 5.9988 25.4994 5.9988L25.4979 6.0003ZM26.9982 14.2507C26.9982 18.5514 26.3125 22.1951 25.0148 24.7902C24.1686 26.4823 22.6533 28.5014 20.2468 28.5014H12.7602C12.7017 28.4969 12.07 28.4264 11.1173 27.7139C10.1676 27.0029 8.70932 25.5058 7.1595 22.4036C4.11835 16.3223 3.18366 14.4067 3.17465 14.3887C3.17315 14.3857 3.17315 14.3842 3.17165 14.3827C2.79507 13.6282 3.06213 12.6396 3.75528 12.2241C4.06734 12.0366 4.43192 11.9871 4.78299 12.0816C5.15657 12.1836 5.47014 12.4356 5.66368 12.7896C5.66668 12.7941 5.66968 12.8001 5.67268 12.8046L8.01468 16.8623C8.49328 17.7369 9.03189 18.1044 9.61551 17.9559C10.2006 17.8074 10.4962 17.2224 10.4962 16.2203V4.50022C10.4962 3.67368 11.1698 3.00015 11.9965 3.00015C12.8232 3.00015 13.4968 3.67368 13.4968 4.50022V14.2507C13.4968 14.6647 13.8329 15.0007 14.247 15.0007C14.6611 15.0007 14.9972 14.6647 14.9972 14.2507V3.00015C14.9972 2.17361 15.6708 1.50007 16.4975 1.50007C17.3241 1.50007 17.9978 2.17361 17.9978 3.00015V14.2507C17.9978 14.6647 18.3339 15.0007 18.7479 15.0007C19.162 15.0007 19.4981 14.6647 19.4981 14.2507V4.50022C19.4981 3.67368 20.1717 3.00015 20.9984 3.00015C21.8251 3.00015 22.4987 3.67368 22.4987 4.50022V15.7508C22.4987 16.1648 22.8348 16.5008 23.2489 16.5008C23.663 16.5008 23.9991 16.1648 23.9991 15.7508V9.00045C23.9991 8.17391 24.6727 7.50037 25.4994 7.50037C26.326 7.50037 26.9997 8.17391 26.9997 9.00045V14.2507H26.9982Z" fill="#343434"/>
</svg>
