<svg width="188" height="45" viewBox="0 0 188 45" fill="none" xmlns="http://www.w3.org/2000/svg">
  <path d="M7.53021 22.4932C7.53021 22.9562 7.55458 23.4192 7.60332 23.8823C7.60332 23.931 7.62769 23.9797 7.62769 24.0528C7.67643 24.4183 7.72517 24.7839 7.79828 25.1495C7.82265 25.32 7.87139 25.4663 7.89576 25.6369C7.9445 25.8562 7.99324 26.0998 8.06635 26.3192C8.13945 26.5628 8.18819 26.8066 8.2613 27.0503C8.28567 27.1478 8.33441 27.2209 8.35878 27.3184C9.0655 29.4142 10.2596 31.3881 11.9167 33.0696C12.9159 34.0688 14.0125 34.8729 15.2066 35.5309C15.3772 35.6284 15.5235 35.7259 15.694 35.799C15.7428 35.8234 15.7915 35.8478 15.8403 35.8721C16.4495 36.1889 17.1075 36.4569 17.7655 36.6763V36.6519C18.7403 36.9687 19.715 37.188 20.7386 37.3099C20.7629 37.3099 20.7873 37.3343 20.8117 37.3586C21.4209 37.4318 21.9814 37.4561 22.5176 37.4561C23.2486 37.4561 23.9797 37.383 24.6865 37.2855C24.7108 37.2855 24.7596 37.2855 24.784 37.2611C25.1495 37.2124 25.515 37.1393 25.8562 37.0662C25.8562 37.0662 25.8562 37.0662 25.8806 37.0662C26.5141 36.92 27.1478 36.7251 27.7571 36.4813C27.8788 36.4326 28.0251 36.3838 28.147 36.3351C28.3662 36.2377 28.5612 36.1645 28.7561 36.067C28.9024 35.9939 29.0486 35.9452 29.1948 35.8721C30.1209 35.4091 30.9982 34.8486 31.8024 34.2149H31.8267C31.8755 34.1663 31.9242 34.1419 31.973 34.0931C32.0217 34.0444 32.0704 34.02 32.1191 33.9713C32.4847 33.6788 32.8016 33.3863 33.1183 33.0939C33.8006 32.4116 34.3856 31.6805 34.8973 30.925C34.8973 30.9007 34.9217 30.9007 34.9217 30.8763C35.141 30.5595 35.3116 30.2427 35.5065 29.9259C35.5796 29.8284 35.6284 29.7066 35.7015 29.6091C35.8478 29.341 35.9696 29.073 36.0914 28.8049C36.1889 28.61 36.2621 28.4393 36.3595 28.2443C36.4326 28.0494 36.5057 27.8301 36.5788 27.6352C36.6763 27.3671 36.7737 27.099 36.8712 26.831C36.92 26.7091 36.9444 26.5628 36.9687 26.4411C37.0662 26.0998 37.1636 25.7343 37.2368 25.3688C37.2368 25.3444 37.2368 25.2956 37.2611 25.2713C37.4318 24.3697 37.5293 23.4436 37.5293 22.4932C37.5293 21.5427 37.4318 20.5923 37.2611 19.6907C37.2611 19.6663 37.2611 19.6663 37.2611 19.6419C37.188 19.2764 37.0906 18.9108 36.9931 18.5453C36.9687 18.4235 36.9444 18.326 36.8956 18.2041C36.7981 17.9117 36.7007 17.6436 36.6032 17.3512C36.5301 17.1562 36.4813 16.9613 36.3838 16.7907C36.3107 16.5957 36.1889 16.4007 36.1158 16.1814C35.9939 15.9377 35.8721 15.6697 35.7503 15.426C35.6771 15.3041 35.604 15.1823 35.5309 15.0604C35.3604 14.7436 35.1654 14.4512 34.9705 14.1587C34.9461 14.11 34.9217 14.0856 34.8973 14.0613C34.3856 13.3058 33.8006 12.5991 33.1427 11.9411C32.4847 11.2831 31.7536 10.6982 31.0226 10.1865C30.9982 10.1621 30.9494 10.1377 30.9251 10.1134C30.6326 9.91842 30.3159 9.72346 29.999 9.55287C29.8772 9.47977 29.7797 9.40666 29.6578 9.35792C29.4142 9.2117 29.1461 9.11423 28.878 8.99238C28.683 8.8949 28.4881 8.79742 28.2931 8.72431C28.0982 8.6512 27.9032 8.57809 27.7083 8.50498C27.4402 8.4075 27.1721 8.31003 26.9041 8.21255C26.7822 8.16381 26.636 8.13944 26.5141 8.11507C26.173 8.01759 25.8074 7.92011 25.4663 7.847C25.4175 7.847 25.3931 7.847 25.3444 7.82263C24.4427 7.65205 23.541 7.55457 22.5907 7.55457C21.6646 7.55457 20.7386 7.65205 19.8612 7.82263C19.8125 7.82263 19.7637 7.82263 19.7394 7.847C19.3982 7.92011 19.0327 8.01759 18.6915 8.0907C18.5453 8.11507 18.4234 8.16381 18.2772 8.18818C18.0091 8.26129 17.7411 8.35876 17.4731 8.45624C17.2781 8.52935 17.0588 8.60247 16.8638 8.67557C16.6688 8.74868 16.4982 8.84616 16.3033 8.94363C16.0352 9.06548 15.7672 9.18733 15.4991 9.33355C15.4016 9.38229 15.2798 9.4554 15.1823 9.52851C14.8655 9.72346 14.5487 9.89405 14.2319 10.1134C14.2075 10.1377 14.1831 10.1377 14.1588 10.1621C13.4033 10.6739 12.6722 11.2587 11.9899 11.9411C11.3319 12.5991 10.747 13.3302 10.2352 14.0856C10.2109 14.11 10.1865 14.1587 10.1621 14.1831C9.96718 14.4755 9.77222 14.7923 9.60164 15.1092C9.52852 15.231 9.45542 15.3285 9.40667 15.4503C9.26046 15.694 9.16298 15.9621 9.04113 16.2058C8.94365 16.4007 8.84617 16.5957 8.77307 16.7907C8.69996 16.9856 8.62684 17.1805 8.55374 17.3755C8.45626 17.6436 8.35878 17.9361 8.2613 18.2041C8.23693 18.326 8.21256 18.4478 8.16382 18.5696C8.06634 18.9352 7.96887 19.2764 7.89576 19.6419C7.89576 19.6663 7.89576 19.6907 7.89576 19.715C7.65206 20.6167 7.53021 21.5427 7.53021 22.4932ZM20.2511 33.1427C20.2511 32.5578 20.5923 31.9242 21.2503 31.9242L24.1991 31.8998C25.32 31.8998 25.6369 31.1688 25.6369 30.6326C25.6369 30.0965 25.1495 29.3654 24.3696 29.3654H23.7604V26.9285H23.8823C24.6621 26.9285 25.2469 27.0015 25.6369 27.1721C26.0998 27.3428 26.636 27.6839 27.0015 28.0982C27.5864 28.7805 28.0007 29.5847 28.0007 30.6083C28.0007 31.6318 27.5621 32.4848 26.9771 33.1671C26.6116 33.5813 26.0998 33.8738 25.6369 34.0444C25.1495 34.2149 24.5646 34.288 23.8823 34.288L21.2503 34.2393C20.6898 34.2149 20.2511 33.7276 20.2511 33.1427ZM15.889 25.7099C15.889 24.6864 16.1571 24.0772 16.7176 23.3705C17.1075 22.8587 17.6436 22.5663 18.0335 22.3713C18.594 22.0789 19.2763 22.0058 19.9587 22.0058L25.6369 22.0545C26.6847 22.0545 27.0746 21.3234 27.0746 20.7873C27.0746 20.2511 26.7335 19.5201 25.7099 19.5201H23.736V17.0831H25.2225C26.9528 17.0344 27.7571 17.7411 28.1713 18.1553C28.7805 18.8134 29.2436 19.7393 29.2436 20.7629C29.2436 21.7865 28.9511 22.5419 28.415 23.2242C28.0251 23.736 27.5133 24.0284 27.0503 24.199C26.5629 24.3697 25.8806 24.4671 25.2225 24.4671L19.4713 24.4427C18.594 24.4427 18.2041 25.1738 18.2041 25.7099C18.2041 26.2461 18.594 26.9771 19.4713 26.9771H21.2016V29.4142H19.9587C19.1789 29.4142 18.594 29.341 18.2041 29.1704C17.7411 28.9999 17.2537 28.6587 16.8881 28.2443C16.3033 27.562 15.889 26.7335 15.889 25.7099ZM14.4756 15.8402C14.4756 14.8167 14.9142 13.9638 15.4991 13.2814C15.8646 12.8671 16.4008 12.5503 16.8881 12.3798C17.3756 12.2092 17.9605 12.1604 18.6184 12.1604H21.2016H23.1999H30.2184L28.5856 14.5974H23.8579H23.1999H21.2016H20.0806H18.2041C17.1806 14.5974 16.815 15.3285 16.815 15.8646C16.815 16.4007 17.2049 17.1319 18.0822 17.1319H21.1772V19.5688H18.594C17.8142 19.5688 17.2293 19.4957 16.8394 19.3251C16.3764 19.1545 15.8646 18.8864 15.5234 18.4721C14.9629 17.7654 14.4756 16.8638 14.4756 15.8402Z" fill="#F25F5C"/>
  <path d="M22.4932 44.9863C10.089 44.9863 0 34.8973 0 22.4932C0 10.089 10.089 0 22.4932 0C34.8973 0 44.9863 10.089 44.9863 22.4932C44.9863 34.8973 34.8973 44.9863 22.4932 44.9863ZM22.4932 2.51007C11.4781 2.51007 2.51007 11.4781 2.51007 22.4932C2.51007 33.5082 11.4781 42.4762 22.4932 42.4762C33.5082 42.4762 42.4762 33.5082 42.4762 22.4932C42.4762 11.4781 33.5082 2.51007 22.4932 2.51007Z" fill="#00A5AE"/>
  <path d="M73.5964 23.736H62.5325C62.63 25.2956 63.0199 25.8318 63.751 26.5629C64.4821 27.2695 65.5544 27.6352 66.9922 27.6352C67.8451 27.6352 68.7224 27.4889 69.5753 27.1965C70.4283 26.904 71.2325 26.4897 71.9636 25.9293L73.2795 29.3167C72.4753 29.9502 71.5006 30.462 70.3064 30.8275C69.1367 31.1931 67.9426 31.3637 66.7485 31.3637C63.9216 31.3637 61.704 30.5839 60.0956 29.0242C58.4872 27.4645 57.683 25.3444 57.683 22.6394C57.683 20.9335 58.0241 19.4226 58.7309 18.0822C59.4376 16.7419 60.4124 15.7184 61.6552 14.9629C62.9224 14.2318 64.3359 13.8419 65.9199 13.8419C68.2837 13.8419 70.1602 14.6217 71.525 16.1327C72.8896 17.6679 73.572 19.7394 73.572 22.3469V23.736H73.5964ZM63.7754 18.2285C63.1905 18.789 62.8006 19.5932 62.63 20.641H69.2829C69.0148 18.4721 67.9426 17.3999 66.0661 17.3999C65.1157 17.3999 64.3602 17.6679 63.7754 18.2285Z" fill="#005461"/>
  <path d="M77.0812 29.1217L78.3971 25.6855C79.2744 26.3192 80.2492 26.8066 81.2971 27.1478C82.3694 27.4889 83.466 27.6595 84.5627 27.6595C85.4156 27.6595 86.0736 27.5377 86.5122 27.2696C86.9753 27.0015 87.1945 26.636 87.1945 26.1242C87.1945 25.7099 87.024 25.3931 86.7071 25.1495C86.3904 24.9057 85.8055 24.7108 84.9769 24.5402L82.2719 23.9309C80.6879 23.5898 79.5181 23.0293 78.7627 22.2738C78.0072 21.5184 77.6417 20.4948 77.6417 19.2276C77.6417 18.2041 77.9341 17.278 78.5434 16.4739C79.1526 15.6697 79.9812 15.036 81.0534 14.5974C82.1257 14.1587 83.3442 13.915 84.7576 13.915C85.9274 13.915 87.0971 14.0856 88.2181 14.4512C89.3635 14.8167 90.3626 15.3285 91.2643 15.9621L89.8996 19.2764C89.0467 18.6915 88.1937 18.2528 87.292 17.936C86.4147 17.6192 85.5618 17.473 84.7332 17.473C83.929 17.473 83.2954 17.6192 82.8324 17.8873C82.3694 18.1797 82.1501 18.5696 82.1501 19.057C82.1501 19.4226 82.2963 19.7394 82.5643 19.9587C82.8324 20.178 83.3198 20.373 84.0265 20.5192L86.8046 21.1284C88.5105 21.5184 89.729 22.1032 90.5089 22.8831C91.2643 23.6629 91.6542 24.7108 91.6542 26.0268C91.6542 27.5864 91.0206 28.8293 89.7534 29.7553C88.4861 30.6814 86.7559 31.12 84.5627 31.12C81.3702 31.1444 78.8845 30.462 77.0812 29.1217Z" fill="#005461"/>
  <path d="M112.686 14.305V30.8763H107.812V28.415C107.3 29.2679 106.593 29.9259 105.691 30.4133C104.765 30.9007 103.742 31.1443 102.597 31.1443C101.159 31.1443 99.8915 30.8032 98.7949 30.0965C97.6982 29.3898 96.8209 28.3906 96.2117 27.099C95.6024 25.8074 95.2856 24.2966 95.2856 22.615C95.2856 20.9091 95.6024 19.3982 96.2117 18.0579C96.8209 16.7175 97.6982 15.694 98.8192 14.9629C99.9402 14.2318 101.183 13.8663 102.621 13.8663C103.766 13.8663 104.814 14.11 105.716 14.6218C106.642 15.1335 107.349 15.7915 107.836 16.6444V14.2806L112.686 14.305ZM106.837 26.1486C107.495 25.32 107.812 24.1259 107.812 22.5419C107.812 20.9822 107.495 19.7637 106.837 18.9352C106.179 18.1066 105.253 17.668 104.034 17.668C102.816 17.668 101.865 18.1066 101.183 18.9839C100.501 19.8612 100.16 21.0553 100.16 22.615C100.16 24.1747 100.501 25.3444 101.159 26.173C101.817 27.0015 102.767 27.3914 104.01 27.3914C105.253 27.3914 106.179 26.9771 106.837 26.1486Z" fill="#005461"/>
  <path d="M134.276 20.8361V30.8764H129.329V21.0554C129.329 19.91 129.11 19.0571 128.696 18.521C128.281 17.9848 127.599 17.7168 126.673 17.7168C125.576 17.7168 124.699 18.0579 124.066 18.7647C123.408 19.4714 123.091 20.3974 123.091 21.5672V30.852H118.144V19.0084C118.144 17.2537 118.046 15.6697 117.876 14.2563H122.53L122.847 16.8638C123.432 15.889 124.212 15.1336 125.162 14.5975C126.113 14.0857 127.185 13.8176 128.379 13.8176C132.302 13.8907 134.276 16.2059 134.276 20.8361Z" fill="#005461"/>
  <path d="M155.502 14.305V30.8764H150.702V28.4638C150.19 29.3411 149.483 29.999 148.63 30.4621C147.777 30.9251 146.827 31.1444 145.755 31.1444C143.683 31.1444 142.148 30.5596 141.1 29.4141C140.076 28.2688 139.565 26.5142 139.565 24.1747V14.305H144.512V24.2722C144.512 26.2705 145.365 27.2697 147.095 27.2697C148.118 27.2697 148.947 26.9285 149.581 26.2218C150.214 25.5151 150.531 24.6134 150.531 23.468V14.2806H155.502V14.305Z" fill="#005461"/>
  <path d="M186.111 15.5965C187.037 16.7419 187.5 18.4965 187.5 20.836V30.8763H182.553V21.0066C182.553 19.8612 182.358 19.0083 181.992 18.4965C181.627 17.9848 181.018 17.7167 180.165 17.7167C179.165 17.7167 178.386 18.0579 177.849 18.7646C177.313 19.4713 177.021 20.4461 177.021 21.7133V30.8763H172.074V21.0066C172.074 19.8856 171.879 19.0327 171.513 18.5209C171.123 18.0091 170.539 17.7411 169.71 17.7411C168.711 17.7411 167.931 18.0822 167.371 18.789C166.81 19.4957 166.542 20.4705 166.542 21.7377V30.9007H161.595V19.057C161.595 17.3024 161.497 15.7184 161.327 14.305H165.981L166.274 16.7907C166.786 15.8646 167.468 15.1335 168.394 14.6218C169.296 14.11 170.344 13.8663 171.513 13.8663C173.975 13.8663 175.607 14.8898 176.412 16.9369C176.948 16.0108 177.703 15.2554 178.678 14.6949C179.653 14.1344 180.701 13.8663 181.871 13.8663C183.771 13.8907 185.185 14.4512 186.111 15.5965Z" fill="#005461"/>
</svg>
