<svg width="328" height="45" viewBox="0 0 328 45" fill="none" xmlns="http://www.w3.org/2000/svg">
  <path fill-rule="evenodd" clip-rule="evenodd" d="M56.0923 24.4329C56.0923 21.6172 53.8306 19.3263 51.0507 19.3263C48.2708 19.3263 46.0091 21.6172 46.0091 24.4329C46.0091 27.2488 48.2707 29.5397 51.0507 29.5397C53.8307 29.5397 56.0923 27.2488 56.0923 24.4329ZM51.0507 28.3537C48.9164 28.3537 47.1799 26.5948 47.1799 24.4329C47.1799 22.271 48.9163 20.5122 51.0507 20.5122C53.1851 20.5122 54.9215 22.271 54.9215 24.4329C54.9215 26.5948 53.185 28.3537 51.0507 28.3537Z" fill="#EAAA2F"/>
  <path fill-rule="evenodd" clip-rule="evenodd" d="M66.7044 28.0959C67.0166 28.1811 67.2016 28.5063 67.1176 28.8224C66.2557 32.0666 64.4683 34.952 61.9486 37.1664C59.4054 39.4015 56.2986 40.7876 52.9642 41.175C52.9417 41.1776 52.9192 41.179 52.8968 41.179C52.6033 41.179 52.3502 40.956 52.316 40.6535L52.3159 40.6527C51.9192 37.1079 53.1187 33.6295 55.6069 31.1093C58.4973 28.1815 62.7495 27.027 66.7032 28.0956L66.7044 28.0959ZM53.4289 39.9152C56.3006 39.4666 58.9699 38.2141 61.1813 36.2707C63.3706 34.3467 64.9645 31.8786 65.8179 29.1031C62.4365 28.4004 58.8891 29.4618 56.4348 31.9478C54.3418 34.0679 53.2643 36.943 53.4289 39.9152Z" fill="#EAAA2F"/>
  <path fill-rule="evenodd" clip-rule="evenodd" d="M35.3979 28.0957L35.397 28.0959C35.0848 28.181 34.8998 28.5063 34.9838 28.8226C35.8456 32.0668 37.6331 34.9521 40.1528 37.1665C42.696 39.4016 45.8027 40.7878 49.137 41.1752C49.1597 41.1778 49.1822 41.1792 49.2044 41.1792C49.4979 41.1792 49.7511 40.956 49.7854 40.6537L49.7855 40.6529C50.1822 37.1081 48.9827 33.6297 46.4946 31.1095C43.6039 28.1815 39.3519 27.0268 35.3979 28.0957ZM48.6724 39.9152C45.8007 39.4667 43.1313 38.2141 40.92 36.2707C38.7308 34.3467 37.1367 31.8786 36.2835 29.1031C39.6646 28.4004 43.2122 29.4619 45.6666 31.9478C47.7596 34.0678 48.8371 36.9431 48.6724 39.9152Z" fill="#EAAA2F"/>
  <path fill-rule="evenodd" clip-rule="evenodd" d="M51.0507 7.58097C55.4523 7.58097 59.602 9.30539 62.735 12.4366C65.865 15.5646 67.6234 19.7378 67.6858 24.187C67.6894 24.4388 67.5356 24.6653 67.3023 24.7521C67.069 24.8388 66.807 24.7671 66.6489 24.5728C63.1596 20.2877 57.3286 17.7294 51.0506 17.7294C44.7725 17.7294 38.9414 20.2877 35.4523 24.5728C35.3389 24.7123 35.1719 24.7886 35.0005 24.7886C34.933 24.7886 34.8648 24.7768 34.7988 24.7522C34.5656 24.6654 34.4118 24.4389 34.4153 24.1871C34.4779 19.7378 36.2362 15.5646 39.3662 12.4366C42.4994 9.30539 46.649 7.58097 51.0507 7.58097ZM35.6949 22.5466C39.458 18.7617 45.0689 16.5436 51.0507 16.5436C57.0324 16.5436 62.6433 18.7617 66.4066 22.5466C65.9931 19.0394 64.4303 15.7967 61.9128 13.2808C59.0003 10.3699 55.1428 8.76688 51.0508 8.76688C46.9587 8.76688 43.1012 10.3699 40.1886 13.2808C37.6711 15.7967 36.1083 19.0394 35.6949 22.5466Z" fill="#EAAA2F"/>
  <path fill-rule="evenodd" clip-rule="evenodd" d="M51.0507 4.27336C40.0762 4.27336 31.1478 13.3168 31.1478 24.4329C31.1478 35.549 40.0762 44.5924 51.0507 44.5924C62.0253 44.5924 70.9537 35.5489 70.9537 24.4329C70.9537 13.3169 62.0253 4.27336 51.0507 4.27336ZM51.0507 43.4065C40.7218 43.4065 32.3186 34.8949 32.3186 24.4329C32.3186 13.9709 40.7218 5.45927 51.0507 5.45927C61.3796 5.45927 69.7828 13.9708 69.7828 24.4329C69.7828 34.895 61.3796 43.4065 51.0507 43.4065Z" fill="#EAAA2F"/>
  <path fill-rule="evenodd" clip-rule="evenodd" d="M32.3186 24.4329C32.3186 34.8949 40.7218 43.4065 51.0507 43.4065C61.3796 43.4065 69.7828 34.895 69.7828 24.4329C69.7828 13.9708 61.3796 5.45927 51.0507 5.45927C40.7218 5.45927 32.3186 13.9709 32.3186 24.4329ZM56.0923 24.4329C56.0923 21.6172 53.8306 19.3263 51.0507 19.3263C48.2708 19.3263 46.0091 21.6172 46.0091 24.4329C46.0091 27.2488 48.2707 29.5397 51.0507 29.5397C53.8307 29.5397 56.0923 27.2488 56.0923 24.4329ZM66.7044 28.0959C67.0166 28.1811 67.2016 28.5063 67.1176 28.8224C66.2557 32.0666 64.4683 34.952 61.9486 37.1664C59.4054 39.4015 56.2986 40.7876 52.9642 41.175C52.9417 41.1776 52.9192 41.179 52.8968 41.179C52.6033 41.179 52.3502 40.956 52.316 40.6535L52.3159 40.6527C51.9192 37.1079 53.1187 33.6295 55.6069 31.1093C58.4973 28.1815 62.7495 27.027 66.7032 28.0956L66.7044 28.0959ZM35.397 28.0959C35.0848 28.181 34.8998 28.5063 34.9838 28.8226C35.8456 32.0668 37.6331 34.9521 40.1528 37.1665C42.696 39.4016 45.8027 40.7878 49.137 41.1752C49.1597 41.1778 49.1822 41.1792 49.2044 41.1792C49.4979 41.1792 49.7511 40.956 49.7854 40.6537L49.7855 40.6529C50.1822 37.1081 48.9827 33.6297 46.4946 31.1095C43.6039 28.1815 39.3519 27.0268 35.3979 28.0957L35.397 28.0959ZM51.0507 7.58097C55.4523 7.58097 59.602 9.30539 62.735 12.4366C65.865 15.5646 67.6234 19.7378 67.6858 24.187C67.6894 24.4388 67.5356 24.6653 67.3023 24.7521C67.069 24.8388 66.807 24.7671 66.6489 24.5728C63.1596 20.2877 57.3286 17.7294 51.0506 17.7294C44.7725 17.7294 38.9414 20.2877 35.4523 24.5728C35.3389 24.7123 35.1719 24.7886 35.0005 24.7886C34.933 24.7886 34.8648 24.7768 34.7988 24.7522C34.5656 24.6654 34.4118 24.4389 34.4153 24.1871C34.4779 19.7378 36.2362 15.5646 39.3662 12.4366C42.4994 9.30539 46.649 7.58097 51.0507 7.58097Z" fill="#EAAA2F"/>
  <path d="M12.0645 42.2584C9.52206 42.2584 7.21079 41.8237 5.13064 40.9541C3.05049 40.0511 1.35006 38.7636 0.0293274 37.0914L5.37828 30.6701C7.22729 33.1115 9.2249 34.3322 11.3711 34.3322C12.7909 34.3322 13.864 33.8975 14.5904 33.0279C15.3498 32.1584 15.7295 30.8875 15.7295 29.2153V14.1154H3.74387V6.44005H25.4368V28.6133C25.4368 33.1617 24.2977 36.573 22.0194 38.8472C19.7742 41.1214 16.4559 42.2584 12.0645 42.2584Z" fill="#3C69BB"/>
  <path d="M93.2135 13.9148C95.6569 13.9148 97.8691 14.4833 99.8502 15.6204C101.864 16.7575 103.449 18.3962 104.605 20.5366C105.793 22.6436 106.388 25.1017 106.388 27.911C106.388 30.7203 105.793 33.1952 104.605 35.3356C103.449 37.476 101.864 39.1314 99.8502 40.302C97.8691 41.4391 95.6569 42.0076 93.2135 42.0076C89.6806 42.0076 87.0391 40.9541 85.2891 38.8472V41.5561H76.3247V4.33309H85.7349V16.724C87.5509 14.8512 90.0438 13.9148 93.2135 13.9148ZM91.2324 34.4326C92.8833 34.4326 94.2371 33.864 95.2937 32.7269C96.3502 31.5564 96.8785 29.9511 96.8785 27.911C96.8785 25.9044 96.3502 24.3325 95.2937 23.1954C94.2371 22.0583 92.8833 21.4898 91.2324 21.4898C89.5815 21.4898 88.2278 22.0583 87.1712 23.1954C86.1146 24.3325 85.5863 25.9044 85.5863 27.911C85.5863 29.9511 86.1146 31.5564 87.1712 32.7269C88.2278 33.864 89.5815 34.4326 91.2324 34.4326Z" fill="#3C69BB"/>
  <path d="M111.207 6.44005H127.601C131.398 6.44005 134.766 7.1591 137.705 8.59718C140.643 10.0353 142.921 12.0753 144.539 14.7174C146.157 17.3595 146.966 20.453 146.966 23.9981C146.966 27.5431 146.157 30.6367 144.539 33.2788C142.921 35.9208 140.643 37.9609 137.705 39.399C134.766 40.8371 131.398 41.5561 127.601 41.5561H111.207V6.44005ZM127.205 33.6299C130.176 33.6299 132.554 32.7771 134.337 31.0715C136.153 29.3658 137.061 27.008 137.061 23.9981C137.061 20.9881 136.153 18.6303 134.337 16.9247C132.554 15.2191 130.176 14.3662 127.205 14.3662H121.014V33.6299H127.205Z" fill="#3C69BB"/>
  <path d="M159.675 17.627C160.632 16.3896 161.87 15.4699 163.389 14.8679C164.941 14.2325 166.707 13.9148 168.688 13.9148V22.4931C167.83 22.3928 167.12 22.3426 166.559 22.3426C164.545 22.3426 162.96 22.8944 161.804 23.9981C160.682 25.1017 160.12 26.7907 160.12 29.0648V41.5561H150.71V14.3662H159.675V17.627Z" fill="#3C69BB"/>
  <path d="M171.602 14.3662H181.012V41.5561H171.602V14.3662ZM176.307 11.3563C174.59 11.3563 173.203 10.8714 172.147 9.90149C171.09 8.93162 170.562 7.72764 170.562 6.28956C170.562 4.85147 171.09 3.64749 172.147 2.67762C173.203 1.70774 174.59 1.22281 176.307 1.22281C178.024 1.22281 179.411 1.69102 180.467 2.62745C181.524 3.53044 182.052 4.70097 182.052 6.13906C182.052 7.64403 181.524 8.89818 180.467 9.90149C179.411 10.8714 178.024 11.3563 176.307 11.3563Z" fill="#3C69BB"/>
  <path d="M214.438 14.3662L203.344 41.5561H193.637L182.592 14.3662H192.25L198.689 30.9711L205.474 14.3662H214.438Z" fill="#3C69BB"/>
  <path d="M242.614 28.0114C242.614 28.0782 242.564 28.8642 242.465 30.3691H222.952C223.348 31.7738 224.107 32.8607 225.23 33.6299C226.385 34.3657 227.822 34.7336 229.539 34.7336C230.826 34.7336 231.932 34.5496 232.857 34.1817C233.815 33.8139 234.772 33.2119 235.73 32.3758L240.682 37.593C238.074 40.5361 234.26 42.0076 229.241 42.0076C226.105 42.0076 223.348 41.4056 220.97 40.2016C218.593 38.9977 216.744 37.3255 215.423 35.1851C214.136 33.0447 213.492 30.62 213.492 27.911C213.492 25.2355 214.119 22.8443 215.374 20.7373C216.662 18.5969 218.428 16.9247 220.673 15.7207C222.918 14.5167 225.444 13.9148 228.251 13.9148C230.925 13.9148 233.352 14.4833 235.531 15.6204C237.711 16.724 239.428 18.3461 240.682 20.4865C241.97 22.5934 242.614 25.1017 242.614 28.0114ZM228.3 20.6871C226.848 20.6871 225.626 21.1052 224.635 21.9413C223.678 22.7774 223.067 23.9145 222.803 25.3526H233.798C233.534 23.9145 232.906 22.7774 231.916 21.9413C230.958 21.1052 229.753 20.6871 228.3 20.6871Z" fill="#3C69BB"/>
  <path d="M254.947 17.627C255.905 16.3896 257.143 15.4699 258.662 14.8679C260.214 14.2325 261.98 13.9148 263.961 13.9148V22.4931C263.103 22.3928 262.393 22.3426 261.832 22.3426C259.818 22.3426 258.233 22.8944 257.077 23.9981C255.954 25.1017 255.393 26.7907 255.393 29.0648V41.5561H245.983V14.3662H254.947V17.627Z" fill="#3C69BB"/>
  <path d="M292.624 33.6801V41.5561H265.631V35.3356L278.608 23.0449C279.862 21.8409 280.704 20.8209 281.134 19.9848C281.563 19.1153 281.777 18.2457 281.777 17.3762C281.777 16.2391 281.398 15.3528 280.638 14.7174C279.879 14.082 278.773 13.7642 277.32 13.7642C276.032 13.7642 274.844 14.0652 273.754 14.6672C272.697 15.2358 271.822 16.0719 271.129 17.1755L263.849 13.0619C265.202 10.7877 267.101 8.9985 269.544 7.69419C271.988 6.38987 274.877 5.73772 278.211 5.73772C280.853 5.73772 283.181 6.17249 285.195 7.04203C287.242 7.91157 288.827 9.16571 289.949 10.8045C291.105 12.4098 291.683 14.2826 291.683 16.423C291.683 18.3293 291.27 20.1353 290.445 21.8409C289.652 23.5131 288.1 25.4194 285.789 27.5598L279.252 33.6801H292.624Z" fill="#EAAA2F"/>
  <path d="M326.955 34.8339H321.804V41.5561H312.245V34.8339H293.92V28.3625L309.472 6.44004H319.625L305.51 26.9579H312.542V20.9881H321.804V26.9579H326.955V34.8339Z" fill="#EAAA2F"/>
</svg>
