<svg width="662" height="662" viewBox="0 0 662 662" fill="none" xmlns="http://www.w3.org/2000/svg">
<path d="M0 47.4221C0 21.2453 21.9128 0 48.9282 0H613.072C640.096 0 662 21.2453 662 47.4221V614.587C662 640.772 640.096 662 613.072 662H48.9282C21.9128 662 0 640.772 0 614.595V47.4135V47.4221Z" fill="#006699"/>
<path d="M200.676 554.159V255.231H100.688V554.159H200.685H200.676ZM150.699 214.425C185.561 214.425 207.264 191.469 207.264 162.783C206.609 133.446 185.561 111.133 151.363 111.133C117.14 111.133 94.79 133.446 94.79 162.783C94.79 191.469 116.484 214.425 150.044 214.425H150.691H150.699ZM256.018 554.159H355.997V387.244C355.997 378.319 356.653 369.376 359.291 363.003C366.517 345.144 382.969 326.66 410.596 326.66C446.768 326.66 461.246 354.069 461.246 394.259V554.159H561.225V382.764C561.225 290.95 511.904 248.225 446.121 248.225C392.187 248.225 368.5 278.178 355.342 298.581H356.006V255.24H256.026C257.328 283.283 256.018 554.168 256.018 554.168V554.159Z" fill="white"/>
</svg>
