<svg width="236" height="94" viewBox="0 0 236 94" fill="none" xmlns="http://www.w3.org/2000/svg">
<path d="M134.399 33.7136V68.9467H129.596L129.173 63.8823C123.993 67.8857 119.049 69.8872 114.341 69.8872C108.078 69.8872 104.947 66.6557 104.947 60.1927V33.7136H110.95V58.4563C110.903 60.675 111.304 62.2425 112.151 63.1589C112.999 64.0752 114.411 64.5336 116.389 64.5336C118.131 64.5336 119.897 64.1356 121.686 63.3398C123.475 62.5438 125.712 61.2538 128.396 59.4693V33.7136H134.399ZM148.176 33.7136L148.6 39.2844C154.156 34.9919 159.288 32.8455 163.997 32.8455C170.212 32.8455 173.32 36.077 173.32 42.5399V68.9467H167.316V44.2763C167.316 41.9612 166.94 40.3455 166.186 39.4291C165.433 38.5127 164.162 38.0544 162.372 38.0544C160.489 38.0544 158.594 38.4887 156.687 39.3568C154.78 40.2248 152.249 41.6478 149.094 43.6253V68.9467H143.091V33.7136H148.176ZM190.416 38.561V59.252C190.416 60.9404 190.769 62.1461 191.476 62.8695C192.182 63.5929 193.382 63.9546 195.077 63.9546H200.304L201.01 68.6571C198.844 69.2842 196.255 69.5978 193.241 69.5978C190.369 69.5978 188.179 68.7778 186.673 67.138C185.166 65.498 184.413 63.1348 184.413 60.048V38.561H178.197V34.0755L184.413 33.7861V23.2957H190.416V33.7136H201.364V38.561H190.416ZM227.077 54.3325H211.044C211.373 58.384 212.339 61.1091 213.94 62.5078C215.54 63.9065 218.201 64.6059 221.921 64.6059C225.829 64.6059 229.807 64.3165 233.857 63.7376L234.493 67.8614C231.432 69.1638 226.982 69.8148 221.144 69.8148C215.211 69.8148 210.985 68.4041 208.466 65.5826C205.947 62.7609 204.687 57.974 204.687 51.2216C204.687 44.421 205.911 39.6581 208.36 36.933C210.808 34.2079 214.858 32.8455 220.508 32.8455C225.64 32.8455 229.384 33.7982 231.738 35.7033C234.092 37.6084 235.269 40.4902 235.269 44.3487C235.364 51.0046 232.633 54.3325 227.077 54.3325ZM210.973 49.5576H225.523C228.018 49.5576 229.266 47.8214 229.266 44.3487C229.219 42.0819 228.56 40.4661 227.288 39.5014C226.017 38.5368 223.851 38.0544 220.79 38.0544C217.165 38.0544 214.646 38.8624 213.233 40.4781C211.821 42.0939 211.067 45.1204 210.973 49.5576Z" fill="#3949AB"/>
<path d="M85.2103 20.6172C85.182 19.0684 84.6484 15.7816 84.0568 14.3906C83.4652 12.9996 82.6623 11.8022 81.6482 10.7983C80.6058 9.79448 79.4157 9.01294 78.0775 8.45367C76.7396 7.89438 75.324 7.61476 73.8308 7.61476C64.4134 7.61476 57.3503 7.61476 52.6416 7.61476C47.9307 7.61476 40.8643 7.61476 31.4425 7.61476V0H74.0422C76.5494 0 78.9227 0.473229 81.1622 1.4197C83.4018 2.36617 85.3667 3.69983 87.0568 5.42067C88.7472 7.11284 90.0642 9.09896 91.008 11.3791C91.9515 13.6592 92.743 18.3729 92.743 20.9256V24.6814H85.2103C85.2103 23.8361 85.2173 20.771 85.2103 20.6172Z" fill="#933183"/>
<path d="M72.1733 85.6144C73.7148 85.586 76.9862 85.0497 78.3708 84.4555C79.7551 83.8611 80.9468 83.0544 81.946 82.0355C82.945 80.9882 83.7231 79.7925 84.2795 78.4479C84.8362 77.1034 85.1145 75.6811 85.1145 74.1811V31.5922H92.6933V74.3933C92.6933 76.9124 92.2225 79.2971 91.2805 81.5473C90.3384 83.7974 89.0112 85.7716 87.2983 87.4698C85.6141 89.1681 83.6374 90.4913 81.3679 91.4394C79.0986 92.3876 74.4069 93.1828 71.8665 93.1828H68.1282V85.6144C68.9697 85.6144 72.0202 85.6213 72.1733 85.6144Z" fill="#3949AB"/>
<path d="M7.53278 72.5142C7.56097 74.063 8.09464 77.3496 8.68622 78.7408C9.2778 80.1319 10.0807 81.3293 11.0948 82.333C12.1371 83.3369 13.3273 84.1184 14.6654 84.6777C16.0036 85.2368 17.4191 85.5166 18.9122 85.5166H61.3005V93.1314H18.7009C16.1937 93.1314 13.8203 92.6581 11.5808 91.7116C9.34119 90.7653 7.37629 89.4315 5.68605 87.7106C3.9958 86.0186 2.67883 84.0323 1.73512 81.7523C0.791393 79.472 0 74.7584 0 72.2057V68.45H7.53278C7.53278 69.2952 7.52577 72.3604 7.53278 72.5142Z" fill="#76B515"/>
<path d="M24.5652 7.66377H20.5201C18.9786 7.6921 15.7073 8.22829 14.3228 8.82267C12.9383 9.41706 11.7465 10.2237 10.7475 11.2427C9.74833 12.2899 8.97048 13.4857 8.41385 14.8302C7.85719 16.1747 7.57888 17.5969 7.57888 19.097C7.57888 24.7739 7.57888 29.0316 7.57888 31.87C7.57888 38.4958 7.57888 48.4345 7.57888 61.6861C6.77801 61.6861 0.282285 61.6861 0 61.6861V18.8848C0 16.3657 0.471 13.9811 1.41301 11.7309C2.35502 9.48074 3.6824 7.50654 5.39513 5.80831C7.07933 4.11005 9.0561 2.78685 11.3255 1.83867C13.5949 0.890475 18.2864 0.0953369 20.827 0.0953369C21.0942 0.0953369 24.5652 0.0953369 24.5652 0.0953369C24.5652 2.18586 24.5652 6.0536 24.5652 7.66377Z" fill="#FD5C02"/>
<path fill-rule="evenodd" clip-rule="evenodd" d="M34.2271 35.434C28.1294 35.434 23.1862 40.4007 23.1862 46.5272C23.1862 52.6537 28.1294 57.6204 34.2271 57.6204H58.5172C64.6148 57.6204 69.5581 52.6537 69.5581 46.5272C69.5581 40.4007 64.6148 35.434 58.5172 35.434H34.2271ZM34.6246 53.1831C38.2833 53.1831 41.2492 50.2033 41.2492 46.5272C41.2492 42.8511 38.2833 39.8712 34.6246 39.8712C30.9661 39.8712 28 42.8511 28 46.5272C28 50.2033 30.9661 53.1831 34.6246 53.1831Z" fill="#F3F4FC"/>
</svg>
