<svg width="236" height="94" viewBox="0 0 236 94" fill="none" xmlns="http://www.w3.org/2000/svg">
<path d="M134.4 33.7136V68.9467H129.597L129.173 63.8823C123.993 67.8857 119.049 69.8872 114.341 69.8872C108.078 69.8872 104.947 66.6557 104.947 60.1927V33.7136H110.951V58.4563C110.904 60.675 111.304 62.2425 112.152 63.1589C112.999 64.0752 114.412 64.5335 116.389 64.5335C118.131 64.5335 119.897 64.1356 121.686 63.3398C123.476 62.5439 125.712 61.2538 128.396 59.4693V33.7136H134.4ZM148.176 33.7136L148.6 39.2844C154.156 34.9919 159.288 32.8455 163.997 32.8455C170.212 32.8455 173.32 36.077 173.32 42.5399V68.9467H167.317V44.2763C167.317 41.9612 166.94 40.3455 166.187 39.4291C165.433 38.5127 164.162 38.0544 162.373 38.0544C160.489 38.0544 158.594 38.4887 156.687 39.3568C154.78 40.2248 152.249 41.6478 149.094 43.6253V68.9467H143.091V33.7136H148.176ZM190.416 38.561V59.252C190.416 60.9404 190.77 62.1461 191.476 62.8695C192.182 63.5929 193.383 63.9546 195.078 63.9546H200.304L201.011 68.6571C198.845 69.2842 196.255 69.5978 193.241 69.5978C190.369 69.5978 188.18 68.7778 186.673 67.138C185.166 65.498 184.413 63.1348 184.413 60.048V38.561H178.198V34.0755L184.413 33.7861V23.2957H190.416V33.7136H201.364V38.561H190.416ZM227.077 54.3325H211.044C211.374 58.384 212.339 61.1091 213.94 62.5078C215.541 63.9065 218.201 64.6059 221.921 64.6059C225.829 64.6059 229.808 64.3165 233.857 63.7376L234.493 67.8614C231.432 69.1638 226.983 69.8148 221.144 69.8148C215.211 69.8148 210.985 68.4041 208.466 65.5826C205.947 62.7609 204.687 57.974 204.687 51.2216C204.687 44.421 205.912 39.6581 208.36 36.933C210.809 34.2079 214.858 32.8455 220.508 32.8455C225.641 32.8455 229.384 33.7982 231.738 35.7033C234.093 37.6084 235.27 40.4902 235.27 44.3487C235.364 51.0046 232.633 54.3325 227.077 54.3325ZM210.974 49.5576H225.523C228.018 49.5576 229.266 47.8214 229.266 44.3487C229.219 42.0819 228.56 40.4661 227.289 39.5014C226.017 38.5368 223.851 38.0544 220.791 38.0544C217.165 38.0544 214.646 38.8624 213.234 40.4781C211.821 42.0939 211.067 45.1204 210.974 49.5576Z" fill="#3949AB"/>
<path d="M85.2111 20.6172C85.1828 19.0684 84.6493 15.7816 84.0577 14.3906C83.4661 12.9996 82.6631 11.8022 81.649 10.7983C80.6066 9.79448 79.4166 9.01294 78.0784 8.45367C76.7404 7.89438 75.3249 7.61476 73.8317 7.61476C64.4143 7.61476 57.3511 7.61476 52.6424 7.61476C47.9315 7.61476 40.8652 7.61476 31.4434 7.61476V0H74.043C76.5503 0 78.9236 0.473229 81.1631 1.4197C83.4026 2.36617 85.3676 3.69983 87.0577 5.42067C88.7481 7.11284 90.065 9.09896 91.0088 11.3791C91.9524 13.6592 92.7439 18.3729 92.7439 20.9256V24.6814H85.2111C85.2111 23.8361 85.2182 20.771 85.2111 20.6172Z" fill="#933183"/>
<path d="M72.174 85.6145C73.7155 85.586 76.9869 85.0497 78.3715 84.4556C79.7558 83.8612 80.9476 83.0544 81.9468 82.0355C82.9457 80.9882 83.7238 79.7925 84.2803 78.448C84.837 77.1034 85.1152 75.6812 85.1152 74.1812V31.5922H92.6941V74.3933C92.6941 76.9124 92.2233 79.2972 91.2812 81.5473C90.3391 83.7974 89.0119 85.7716 87.2991 87.4698C85.6148 89.1682 83.6381 90.4914 81.3686 91.4394C79.0993 92.3876 74.4077 93.1829 71.8672 93.1829H68.1289V85.6145C68.9704 85.6145 72.021 85.6213 72.174 85.6145Z" fill="#3949AB"/>
<path d="M7.53278 72.5142C7.56097 74.063 8.09464 77.3496 8.68622 78.7408C9.2778 80.1319 10.0807 81.3293 11.0948 82.333C12.1371 83.3369 13.3273 84.1184 14.6654 84.6777C16.0036 85.2368 17.4191 85.5166 18.9122 85.5166H61.3005V93.1314H18.7009C16.1937 93.1314 13.8203 92.6581 11.5808 91.7116C9.34119 90.7653 7.37629 89.4315 5.68605 87.7106C3.9958 86.0186 2.67883 84.0323 1.73512 81.7523C0.791393 79.472 0 74.7584 0 72.2057V68.45H7.53278C7.53278 69.2952 7.52577 72.3604 7.53278 72.5142Z" fill="#76B515"/>
<path d="M24.5652 7.66377H20.5201C18.9786 7.6921 15.7073 8.22829 14.3228 8.82267C12.9383 9.41706 11.7465 10.2237 10.7475 11.2427C9.74833 12.2899 8.97048 13.4857 8.41385 14.8302C7.85719 16.1747 7.57888 17.5969 7.57888 19.097C7.57888 24.7739 7.57888 29.0316 7.57888 31.87C7.57888 38.4958 7.57888 48.4345 7.57888 61.6861C6.77801 61.6861 0.282285 61.6861 0 61.6861V18.8848C0 16.3657 0.471 13.9811 1.41301 11.7309C2.35502 9.48074 3.6824 7.50654 5.39513 5.80831C7.07933 4.11005 9.0561 2.78685 11.3255 1.83866C13.5949 0.890475 18.2864 0.0953369 20.827 0.0953369C21.0942 0.0953369 24.5652 0.0953369 24.5652 0.0953369C24.5652 2.18586 24.5652 6.0536 24.5652 7.66377Z" fill="#FD5C02"/>
<path fill-rule="evenodd" clip-rule="evenodd" d="M34.2265 35.434C28.1288 35.434 23.1855 40.4007 23.1855 46.5272C23.1855 52.6537 28.1288 57.6204 34.2265 57.6204H58.5166C64.6142 57.6204 69.5575 52.6537 69.5575 46.5272C69.5575 40.4007 64.6142 35.434 58.5166 35.434H34.2265ZM58.5166 53.1832C62.1753 53.1832 65.1412 50.2033 65.1412 46.5272C65.1412 42.8511 62.1753 39.8713 58.5166 39.8713C54.8581 39.8713 51.892 42.8511 51.892 46.5272C51.892 50.2033 54.8581 53.1832 58.5166 53.1832Z" fill="#3949AB"/>
</svg>
