<svg width="280" height="101" viewBox="0 0 280 101" fill="none" xmlns="http://www.w3.org/2000/svg">
<path d="M23.6109 33.8419L48.8314 48.3438L23.6109 62.8453V57.1708L38.7432 48.3438L23.6109 39.5165V33.8419ZM48.8314 58.4319H74.0518V63.4759H48.8314V58.4319Z" fill="white"/>
<path d="M89.5782 21.5718C89.5486 19.9513 88.9876 16.5123 88.3657 15.0569C87.7438 13.6014 86.8998 12.3486 85.8336 11.2983C84.7379 10.248 83.4867 9.43023 82.08 8.84506C80.6733 8.25989 79.1852 7.96731 77.6156 7.96731C67.7156 7.96731 60.2905 7.96731 55.3405 7.96731C50.3881 7.96731 42.9596 7.96731 33.0549 7.96731V0H77.8378C80.4735 0 82.9684 0.495138 85.3228 1.48543C87.6772 2.47572 89.7427 3.87111 91.5196 5.67164C93.2965 7.44216 94.681 9.52024 95.6731 11.9059C96.6651 14.2917 97.4971 19.2236 97.4971 21.8944V25.8241H89.5782C89.5782 24.9397 89.5856 21.7327 89.5782 21.5718Z" fill="#A4087D"/>
<path d="M75.8716 89.5783C77.4921 89.5487 80.9311 88.9877 82.3865 88.3657C83.842 87.7438 85.0948 86.8998 86.1451 85.8337C87.1954 84.738 88.0132 83.4868 88.5983 82.0801C89.1835 80.6734 89.4761 79.1853 89.4761 77.6157V33.0549H97.4434V77.8378C97.4434 80.4735 96.9483 82.9685 95.958 85.3229C94.9677 87.6772 93.5723 89.7428 91.7718 91.5197C90.0012 93.2966 87.9232 94.681 85.5375 95.6731C83.1518 96.6652 78.2198 97.4972 75.549 97.4972H71.6193V89.5783C72.5037 89.5783 75.7107 89.5857 75.8716 89.5783Z" fill="white"/>
<path d="M7.91886 75.8713C7.94847 77.4918 8.5095 80.9308 9.1314 82.3862C9.75331 83.8416 10.5973 85.0945 11.6634 86.1448C12.7592 87.1951 14.0104 88.0128 15.4171 88.598C16.8238 89.1832 18.3119 89.4757 19.8814 89.4757H64.4422V97.4431H19.6593C17.0236 97.4431 14.5286 96.9479 12.1743 95.9576C9.81993 94.9673 7.75434 93.5719 5.97747 91.7714C4.20059 90.0009 2.81613 87.9228 1.82404 85.5371C0.831953 83.1514 0 78.2195 0 75.5487V71.6189H7.91886C7.91886 72.5034 7.91147 75.7103 7.91886 75.8713Z" fill="#76B515"/>
<path d="M25.8241 8.01207H21.5718C19.9513 8.04169 16.5123 8.60271 15.0569 9.22462C13.6014 9.84653 12.3486 10.6905 11.2983 11.7567C10.248 12.8524 9.43023 14.1036 8.84506 15.5103C8.25989 16.917 7.96731 18.4051 7.96731 19.9747C7.96731 25.9144 7.96731 30.3692 7.96731 33.339C7.96731 40.2716 7.96731 50.6704 7.96731 64.5354C7.1254 64.5354 0.296753 64.5354 0 64.5354L0 19.7526C0 17.1169 0.495138 14.6219 1.48543 12.2675C2.47572 9.91315 3.87111 7.84756 5.67164 6.07068C7.44216 4.29381 9.52024 2.90935 11.9059 1.91726C14.2916 0.925169 19.2236 0.0932159 21.8944 0.0932159C22.1753 0.0932159 25.8241 0.0932159 25.8241 0.0932159C25.8241 2.28052 25.8241 6.32734 25.8241 8.01207Z" fill="#FD5C02"/>
<path d="M147.335 33.0486V78.2756H141.02L140.463 71.7748C133.653 76.9135 127.152 79.4829 120.961 79.4829C112.726 79.4829 108.609 75.3348 108.609 67.0385V33.0486H116.503V64.8096C116.441 67.6576 116.967 69.6698 118.082 70.8461C119.196 72.0224 121.053 72.6106 123.654 72.6106C125.945 72.6106 128.266 72.0998 130.619 71.0783C132.972 70.0567 135.912 68.4006 139.441 66.1098V33.0486H147.335ZM165.45 33.0486L166.007 40.1995C173.313 34.6893 180.061 31.9342 186.253 31.9342C194.425 31.9342 198.511 36.0823 198.511 44.3786V78.2756H190.617V46.6074C190.617 43.6356 190.122 41.5616 189.132 40.3852C188.141 39.2089 186.469 38.6207 184.117 38.6207C181.64 38.6207 179.148 39.1779 176.641 40.2924C174.133 41.4068 170.806 43.2332 166.657 45.7716V78.2756H158.764V33.0486H165.45ZM220.991 39.2708V65.8312C220.991 67.9981 221.455 69.5459 222.384 70.4746C223.313 71.4033 224.891 71.8677 227.12 71.8677H233.993L234.921 77.9041C232.073 78.709 228.668 79.1114 224.706 79.1114C220.929 79.1114 218.05 78.0589 216.069 75.9539C214.088 73.8488 213.097 70.8152 213.097 66.8528V39.2708H204.925V33.5129L213.097 33.1415V19.6755H220.991V33.0486H235.386V39.2708H220.991ZM269.195 59.5161H248.114C248.547 64.7168 249.817 68.2148 251.922 70.0103C254.027 71.8057 257.525 72.7035 262.416 72.7035C267.555 72.7035 272.786 72.332 278.111 71.589L278.946 76.8826C274.922 78.5542 269.071 79.39 261.394 79.39C253.593 79.39 248.037 77.5791 244.724 73.9572C241.412 70.3353 239.756 64.1906 239.756 55.5228C239.756 46.7931 241.366 40.6793 244.585 37.1813C247.804 33.6832 253.129 31.9342 260.558 31.9342C267.307 31.9342 272.229 33.1569 275.324 35.6025C278.42 38.048 279.968 41.7473 279.968 46.7003C280.092 55.2442 276.501 59.5161 269.195 59.5161ZM248.021 53.3868H267.152C270.433 53.3868 272.074 51.158 272.074 46.7003C272.012 43.7904 271.145 41.7163 269.474 40.4781C267.802 39.2398 264.954 38.6207 260.93 38.6207C256.163 38.6207 252.85 39.6577 250.993 41.7318C249.136 43.8059 248.145 47.6908 248.021 53.3868Z" fill="white"/>
<path d="M112.283 100.739H113.517V92.9315H116.577V91.8486H109.223V92.9315H112.283V100.739ZM123.82 100.739V91.8486H126.641C127.497 91.8486 127.925 91.9241 128.291 92.0878C129.147 92.4656 129.701 93.2841 129.701 94.4174C129.701 95.5507 129.084 96.5329 128.114 96.8603V96.8855C128.114 96.8855 128.215 97.0114 128.366 97.2885L130.255 100.739H128.845L126.968 97.2003H125.067V100.739H123.82ZM125.067 96.1174H126.855C127.825 96.1174 128.442 95.4626 128.442 94.4804C128.442 93.8382 128.165 93.3219 127.611 93.0826C127.384 92.9819 127.107 92.9315 126.54 92.9315H125.067V96.1174ZM137.499 97.5907C137.499 99.5803 138.922 100.89 141.012 100.89C143.09 100.89 144.488 99.5803 144.488 97.5907V91.8486H143.241V97.5655C143.241 98.9507 142.359 99.744 140.999 99.744C139.639 99.744 138.745 98.9507 138.745 97.5781V91.8486H137.499V97.5907ZM152.613 100.739H158.002V99.6558H153.859V96.7974H157.045V95.7144H153.859V92.9315H157.788V91.8486H152.613V100.739ZM173.95 99.7188C174.719 100.474 175.802 100.89 176.872 100.89C178.685 100.89 179.705 99.7566 179.705 98.3588C179.705 95.5004 175.424 96.0041 175.424 94.1026C175.424 93.3345 176.116 92.8434 177.023 92.8434C177.728 92.8434 178.496 93.1708 178.987 93.6241L179.554 92.6041C178.899 91.9871 177.955 91.6975 177.073 91.6975C175.424 91.6975 174.165 92.6671 174.165 94.1656C174.165 96.9359 178.459 96.4952 178.459 98.4596C178.459 99.2277 177.829 99.7314 176.897 99.7314C176.053 99.7314 175.197 99.2907 174.656 98.7744L173.95 99.7188ZM186.785 96.2307C186.785 93.6745 188.712 91.6975 191.356 91.6975C194.001 91.6975 195.915 93.6745 195.915 96.2307C195.915 98.8499 194.001 100.89 191.356 100.89C188.712 100.89 186.785 98.8499 186.785 96.2307ZM188.07 96.2307C188.07 98.2203 189.455 99.744 191.356 99.744C193.245 99.744 194.63 98.2203 194.63 96.2307C194.63 94.3041 193.245 92.8308 191.356 92.8308C189.455 92.8308 188.07 94.3041 188.07 96.2307ZM203.574 100.739H204.821V96.9485H207.931V95.8655H204.821V92.9315H208.472V91.8486H203.574V100.739ZM217.995 100.739H219.229V92.9315H222.289V91.8486H214.935V92.9315H217.995V100.739ZM230.994 100.739H232.429L233.978 94.9715C234.142 94.3922 234.255 93.7248 234.255 93.7248H234.306C234.306 93.7248 234.419 94.3922 234.57 94.9715L236.131 100.739H237.554L239.897 91.8486H238.612L236.963 98.3714C236.849 98.8499 236.799 99.3158 236.799 99.3158H236.774C236.774 99.3158 236.698 98.8625 236.572 98.3714L234.834 91.8486H233.739L231.989 98.3714C231.863 98.8625 231.787 99.3158 231.787 99.3158H231.762C231.762 99.3158 231.699 98.8499 231.586 98.3714L230.037 91.8486H228.727L230.994 100.739ZM245.906 100.739L249.092 91.8486H250.414L253.6 100.739H252.316L251.422 98.1825H248.072L247.178 100.739H245.906ZM248.4 97.15H251.094L250.112 94.3419C249.961 93.876 249.76 93.07 249.76 93.07H249.734C249.734 93.07 249.545 93.876 249.394 94.3419L248.4 97.15ZM260.831 100.739V91.8486H263.652C264.508 91.8486 264.936 91.9241 265.302 92.0878C266.158 92.4656 266.712 93.2841 266.712 94.4174C266.712 95.5507 266.095 96.5329 265.125 96.8603V96.8855C265.125 96.8855 265.226 97.0114 265.377 97.2885L267.266 100.739H265.856L263.979 97.2003H262.078V100.739H260.831ZM262.078 96.1174H263.866C264.836 96.1174 265.453 95.4626 265.453 94.4804C265.453 93.8382 265.176 93.3219 264.622 93.0826C264.395 92.9819 264.118 92.9315 263.551 92.9315H262.078V96.1174ZM274.611 100.739H280V99.6558H275.857V96.7974H279.043V95.7144H275.857V92.9315H279.786V91.8486H274.611V100.739Z" fill="white"/>
</svg>
