<svg width="97" height="38" viewBox="0 0 97 38" fill="none" xmlns="http://www.w3.org/2000/svg">
<path d="M55.0675 13.7484V28.1165H53.0996L52.926 26.0512C50.8038 27.6838 48.7781 28.5 46.8489 28.5C44.2829 28.5 43 27.1822 43 24.5466V13.7484H45.4598V23.8385C45.4405 24.7433 45.6045 25.3825 45.9518 25.7562C46.299 26.1299 46.8778 26.3168 47.6881 26.3168C48.4019 26.3168 49.1254 26.1545 49.8585 25.83C50.5916 25.5054 51.508 24.9793 52.6077 24.2516V13.7484H55.0675ZM60.7122 13.7484L60.8858 16.0202C63.1624 14.2697 65.2652 13.3944 67.1945 13.3944C69.7411 13.3944 71.0144 14.7122 71.0144 17.3478V28.1165H68.5546V18.0559C68.5546 17.1118 68.4003 16.4529 68.0916 16.0792C67.7829 15.7055 67.262 15.5186 66.5289 15.5186C65.7572 15.5186 64.9807 15.6957 64.1993 16.0497C63.418 16.4037 62.381 16.984 61.0884 17.7904V28.1165H58.6286V13.7484H60.7122ZM78.0193 15.7252V24.163C78.0193 24.8515 78.164 25.3432 78.4534 25.6382C78.7427 25.9332 79.2347 26.0807 79.9292 26.0807H82.0707L82.3601 27.9984C81.4726 28.2541 80.4116 28.382 79.1768 28.382C78 28.382 77.1029 28.0476 76.4855 27.3789C75.8682 26.7101 75.5595 25.7464 75.5595 24.4876V15.7252H73.0129V13.896L75.5595 13.778V9.5H78.0193V13.7484H82.5048V15.7252H78.0193ZM93.0402 22.1568H86.4711C86.6061 23.809 87.0016 24.9203 87.6576 25.4907C88.3135 26.0611 89.4035 26.3463 90.9277 26.3463C92.5289 26.3463 94.1591 26.2283 95.8183 25.9922L96.0788 27.6739C94.8247 28.205 93.0016 28.4705 90.6093 28.4705C88.1785 28.4705 86.447 27.8952 85.4148 26.7446C84.3827 25.5939 83.8666 23.6418 83.8666 20.8882C83.8666 18.1149 84.3682 16.1726 85.3714 15.0613C86.3746 13.95 88.0338 13.3944 90.3489 13.3944C92.4518 13.3944 93.9855 13.7829 94.9501 14.5598C95.9148 15.3367 96.3971 16.5119 96.3971 18.0854C96.4357 20.7997 95.3167 22.1568 93.0402 22.1568ZM86.4422 20.2096H92.4035C93.426 20.2096 93.9373 19.5016 93.9373 18.0854C93.918 17.161 93.6479 16.5021 93.127 16.1087C92.6061 15.7153 91.7187 15.5186 90.4646 15.5186C88.9791 15.5186 87.947 15.8481 87.3682 16.507C86.7894 17.1659 86.4807 18.4001 86.4422 20.2096Z" fill="white"/>
<path d="M34.9136 8.4077C34.902 7.77611 34.6834 6.43575 34.441 5.86849C34.1986 5.30123 33.8696 4.81292 33.4541 4.40356C33.027 3.99419 32.5394 3.67548 31.9911 3.44741C31.4429 3.21933 30.8629 3.1053 30.2511 3.1053C26.3925 3.1053 23.4985 3.1053 21.5692 3.1053C19.639 3.1053 16.7437 3.1053 12.8833 3.1053V0H30.3377C31.365 0 32.3374 0.192983 33.255 0.578954C34.1726 0.964925 34.9777 1.50879 35.6702 2.21055C36.3628 2.90062 36.9024 3.71056 37.2891 4.6404C37.6757 5.57024 38 7.49249 38 8.53345V10.0651H34.9136C34.9136 9.72038 34.9165 8.47043 34.9136 8.4077Z" fill="#933183"/>
<path d="M29.5712 34.9136C30.2028 34.902 31.5432 34.6833 32.1105 34.441C32.6777 34.1986 33.166 33.8696 33.5754 33.4541C33.9847 33.027 34.3035 32.5394 34.5315 31.9911C34.7596 31.4428 34.8736 30.8628 34.8736 30.2511V12.8833H37.9789V30.3376C37.9789 31.3649 37.786 32.3374 37.4 33.255C37.014 34.1726 36.4702 34.9777 35.7684 35.6702C35.0783 36.3628 34.2684 36.9024 33.3385 37.289C32.4087 37.6757 30.4864 38 29.4455 38H27.9138V34.9136C28.2586 34.9136 29.5085 34.9164 29.5712 34.9136Z" fill="white"/>
<path d="M3.08641 29.5713C3.09796 30.2029 3.31662 31.5432 3.55901 32.1105C3.8014 32.6778 4.13036 33.1661 4.54588 33.5754C4.97295 33.9848 5.46061 34.3035 6.00888 34.5316C6.55715 34.7596 7.13715 34.8737 7.74889 34.8737H25.1167V37.979H7.66233C6.63505 37.979 5.66261 37.786 4.74499 37.4C3.82737 37.0141 3.02229 36.4702 2.32975 35.7684C1.6372 35.0784 1.0976 34.2684 0.71093 33.3386C0.324258 32.4087 0 30.4865 0 29.4455V27.9139H3.08641C3.08641 28.2586 3.08354 29.5086 3.08641 29.5713Z" fill="#76B515"/>
<path d="M10.0651 3.12529H8.4077C7.77611 3.13684 6.43575 3.3555 5.86849 3.59789C5.30123 3.84028 4.81292 4.16924 4.40356 4.58476C3.99419 5.01183 3.67548 5.49949 3.44741 6.04776C3.21933 6.59603 3.1053 7.17602 3.1053 7.78777C3.1053 10.1028 3.1053 11.8391 3.1053 12.9966C3.1053 15.6986 3.1053 19.7516 3.1053 25.1556C2.77716 25.1556 0.115661 25.1556 0 25.1556L0 7.70121C0 6.67393 0.192983 5.70149 0.578954 4.78387C0.964925 3.86625 1.50879 3.06117 2.21055 2.36863C2.90062 1.67608 3.71056 1.13648 4.6404 0.749809C5.57024 0.363137 7.49249 0.0388794 8.53345 0.0388794C8.64294 0.0388794 10.0651 0.0388794 10.0651 0.0388794C10.0651 0.891394 10.0651 2.46866 10.0651 3.12529Z" fill="#FD5C02"/>
<path fill-rule="evenodd" clip-rule="evenodd" d="M14.0238 14.45C11.5254 14.45 9.5 16.4754 9.5 18.9738C9.5 21.4722 11.5254 23.4976 14.0238 23.4976H23.9762C26.4746 23.4976 28.5 21.4722 28.5 18.9738C28.5 16.4754 26.4746 14.45 23.9762 14.45H14.0238ZM23.9762 21.6881C25.4753 21.6881 26.6905 20.4729 26.6905 18.9738C26.6905 17.4747 25.4753 16.2595 23.9762 16.2595C22.4772 16.2595 21.2619 17.4747 21.2619 18.9738C21.2619 20.4729 22.4772 21.6881 23.9762 21.6881Z" fill="white"/>
</svg>
