<svg width="112" height="51" viewBox="0 0 112 51" fill="none" xmlns="http://www.w3.org/2000/svg">
  <path d="M47.4041 11.4509C47.3885 10.6199 47.0944 8.85627 46.7684 8.10988C46.4424 7.36348 45.9999 6.72098 45.441 6.18234C44.8666 5.6437 44.2107 5.22434 43.4733 4.92425C42.7358 4.62415 41.9557 4.4741 41.1329 4.4741C35.943 4.4741 32.0505 4.4741 29.4555 4.4741C26.8593 4.4741 22.9651 4.4741 17.7727 4.4741V0.388184H41.2493C42.6311 0.388184 43.939 0.642108 45.1732 1.14996C46.4075 1.65782 47.4903 2.37343 48.4218 3.2968C49.3533 4.20479 50.0791 5.2705 50.5992 6.49398C51.1193 7.71745 51.5554 10.2467 51.5554 11.6164V13.6317H47.4041C47.4041 13.1782 47.4079 11.5335 47.4041 11.4509Z" fill="#933183"/>
  <path d="M4.59565 39.2975C4.61118 40.1285 4.90529 41.8922 5.23131 42.6386C5.55733 43.3849 5.99979 44.0275 6.55868 44.5661C7.13311 45.1047 7.78902 45.5241 8.52646 45.8242C9.26389 46.1243 10.044 46.2743 10.8668 46.2743H34.227V50.3603H10.7504C9.36867 50.3603 8.06072 50.1063 6.82649 49.5985C5.59226 49.0906 4.50941 48.375 3.57792 47.4516C2.64642 46.5436 1.92064 45.4779 1.40056 44.2545C0.880472 43.031 0.444336 40.5017 0.444336 39.132V37.1167H4.59565C4.59565 37.5703 4.59178 39.2149 4.59565 39.2975Z" fill="#76B515"/>
  <path d="M13.9822 4.48978H11.7529C10.9034 4.50497 9.10061 4.79269 8.33762 5.11162C7.57464 5.43056 6.91786 5.86339 6.36725 6.41014C5.81665 6.97207 5.38797 7.61373 5.0812 8.33513C4.77443 9.05654 4.62105 9.81969 4.62105 10.6246C4.62105 13.6707 4.62105 15.9553 4.62105 17.4783C4.62105 21.0336 4.62105 26.3665 4.62105 33.477C4.1797 33.477 0.599903 33.477 0.444336 33.477L0.444336 10.5107C0.444336 9.15904 0.703903 7.87952 1.22305 6.67212C1.74219 5.46472 2.4737 4.40541 3.41759 3.49417C4.34576 2.58292 5.43515 1.87292 6.68581 1.36414C7.93648 0.855366 10.522 0.428711 11.9221 0.428711C12.0693 0.428711 13.9822 0.428711 13.9822 0.428711C13.9822 1.55044 13.9822 3.62579 13.9822 4.48978Z" fill="#FD5C02"/>
  <path d="M23.6222 24.9883C23.6222 26.2772 23.1777 27.3512 22.2888 28.2105C21.4148 29.0549 20.074 29.4772 18.2666 29.4772H15.2888V35.9438H13.2666V20.4549H18.2666C20.0148 20.4549 21.3407 20.8772 22.2444 21.7216C23.1629 22.566 23.6222 23.6549 23.6222 24.9883ZM18.2666 27.8105C19.3925 27.8105 20.2222 27.566 20.7555 27.0772C21.2888 26.5883 21.5555 25.892 21.5555 24.9883C21.5555 23.0772 20.4592 22.1216 18.2666 22.1216H15.2888V27.8105H18.2666Z" fill="#3949AB"/>
  <path d="M28.1578 25.7438C28.5133 25.0475 29.017 24.5068 29.6689 24.1216C30.3355 23.7364 31.1429 23.5438 32.0911 23.5438V25.6327H31.5577C29.2911 25.6327 28.1578 26.8623 28.1578 29.3216V35.9438H26.1355V23.766H28.1578V25.7438Z" fill="#3949AB"/>
  <path d="M39.7366 36.1438C38.5958 36.1438 37.5588 35.8846 36.6255 35.366C35.7069 34.8475 34.981 34.1142 34.4477 33.166C33.9292 32.2031 33.6699 31.092 33.6699 29.8327C33.6699 28.5883 33.9366 27.492 34.4699 26.5438C35.0181 25.5809 35.7588 24.8475 36.6921 24.3438C37.6255 23.8253 38.6699 23.566 39.8255 23.566C40.981 23.566 42.0255 23.8253 42.9588 24.3438C43.8921 24.8475 44.6255 25.5735 45.1588 26.5216C45.7069 27.4698 45.981 28.5735 45.981 29.8327C45.981 31.092 45.6995 32.2031 45.1366 33.166C44.5884 34.1142 43.8403 34.8475 42.8921 35.366C41.944 35.8846 40.8921 36.1438 39.7366 36.1438ZM39.7366 34.366C40.4625 34.366 41.144 34.1957 41.781 33.8549C42.4181 33.5142 42.9292 33.0031 43.3144 32.3216C43.7143 31.6401 43.9143 30.8105 43.9143 29.8327C43.9143 28.8549 43.7218 28.0253 43.3366 27.3438C42.9514 26.6623 42.4477 26.1586 41.8255 25.8327C41.2032 25.492 40.5292 25.3216 39.8032 25.3216C39.0625 25.3216 38.381 25.492 37.7588 25.8327C37.1514 26.1586 36.6625 26.6623 36.2921 27.3438C35.9218 28.0253 35.7366 28.8549 35.7366 29.8327C35.7366 30.8253 35.9143 31.6623 36.2699 32.3438C36.6403 33.0253 37.1292 33.5364 37.7366 33.8772C38.344 34.2031 39.0106 34.366 39.7366 34.366Z" fill="#3949AB"/>
  <path d="M49.7288 21.7883C49.3436 21.7883 49.0176 21.6549 48.751 21.3883C48.4991 21.1216 48.3732 20.7957 48.3732 20.4105C48.3732 20.0253 48.4991 19.6994 48.751 19.4327C49.0176 19.166 49.3436 19.0327 49.7288 19.0327C50.1139 19.0327 50.4325 19.166 50.6843 19.4327C50.951 19.6994 51.0843 20.0253 51.0843 20.4105C51.0843 20.7957 50.951 21.1216 50.6843 21.3883C50.4325 21.6549 50.1139 21.7883 49.7288 21.7883ZM50.7288 38.5883C50.7288 39.6698 50.4547 40.4623 49.9065 40.966C49.3584 41.4698 48.5584 41.7216 47.5065 41.7216H46.3288V40.0105H47.1732C47.7362 40.0105 48.1288 39.8994 48.351 39.6772C48.588 39.4549 48.7065 39.0772 48.7065 38.5438V23.766H50.7288V38.5883Z" fill="#3949AB"/>
  <path d="M65.2631 29.3883C65.2631 29.7735 65.2409 30.1809 65.1965 30.6105H55.4631C55.5372 31.8105 55.9446 32.7512 56.6854 33.4327C57.4409 34.0994 58.352 34.4327 59.4187 34.4327C60.2928 34.4327 61.0187 34.2327 61.5965 33.8327C62.1891 33.4179 62.6039 32.8698 62.8409 32.1883H65.0187C64.6928 33.3586 64.0409 34.3142 63.0631 35.0549C62.0854 35.7809 60.8705 36.1438 59.4187 36.1438C58.2631 36.1438 57.2261 35.8846 56.3076 35.366C55.4039 34.8475 54.6928 34.1142 54.1742 33.166C53.6557 32.2031 53.3965 31.092 53.3965 29.8327C53.3965 28.5735 53.6483 27.4698 54.152 26.5216C54.6557 25.5735 55.3594 24.8475 56.2631 24.3438C57.1817 23.8253 58.2335 23.566 59.4187 23.566C60.5742 23.566 61.5965 23.8179 62.4854 24.3216C63.3742 24.8253 64.0557 25.5216 64.5298 26.4105C65.0187 27.2846 65.2631 28.2772 65.2631 29.3883ZM63.1742 28.966C63.1742 28.1957 63.0039 27.5364 62.6631 26.9883C62.3224 26.4253 61.8557 26.0031 61.2631 25.7216C60.6854 25.4253 60.0409 25.2772 59.3298 25.2772C58.3076 25.2772 57.4335 25.6031 56.7076 26.2549C55.9965 26.9068 55.5891 27.8105 55.4854 28.966H63.1742Z" fill="#3949AB"/>
  <path d="M67.1769 29.8327C67.1769 28.5735 67.4287 27.4772 67.9324 26.5438C68.4361 25.5957 69.1324 24.8623 70.0213 24.3438C70.925 23.8253 71.9546 23.566 73.1102 23.566C74.6065 23.566 75.8361 23.929 76.7991 24.6549C77.7769 25.3809 78.4213 26.3883 78.7324 27.6772H76.5546C76.3472 26.9364 75.9398 26.3512 75.3324 25.9216C74.7398 25.492 73.9991 25.2772 73.1102 25.2772C71.9546 25.2772 71.0213 25.6772 70.3102 26.4772C69.5991 27.2623 69.2435 28.3809 69.2435 29.8327C69.2435 31.2994 69.5991 32.4327 70.3102 33.2327C71.0213 34.0327 71.9546 34.4327 73.1102 34.4327C73.9991 34.4327 74.7398 34.2253 75.3324 33.8105C75.925 33.3957 76.3324 32.8031 76.5546 32.0327H78.7324C78.4065 33.2772 77.7546 34.2772 76.7769 35.0327C75.7991 35.7735 74.5769 36.1438 73.1102 36.1438C71.9546 36.1438 70.925 35.8846 70.0213 35.366C69.1324 34.8475 68.4361 34.1142 67.9324 33.166C67.4287 32.2179 67.1769 31.1068 67.1769 29.8327Z" fill="#3949AB"/>
  <path d="M83.8973 25.4327V32.6105C83.8973 33.2031 84.0233 33.6253 84.2751 33.8772C84.527 34.1142 84.964 34.2327 85.5862 34.2327H87.0751V35.9438H85.2529C84.127 35.9438 83.2825 35.6846 82.7196 35.166C82.1566 34.6475 81.8751 33.7957 81.8751 32.6105V25.4327H80.2973V23.766H81.8751V20.6994H83.8973V23.766H87.0751V25.4327H83.8973Z" fill="#3949AB"/>
  <path d="M94.8364 36.1438C93.6957 36.1438 92.6586 35.8846 91.7253 35.366C90.8068 34.8475 90.0808 34.1142 89.5475 33.166C89.029 32.2031 88.7697 31.092 88.7697 29.8327C88.7697 28.5883 89.0364 27.492 89.5697 26.5438C90.1179 25.5809 90.8586 24.8475 91.792 24.3438C92.7253 23.8253 93.7697 23.566 94.9253 23.566C96.0808 23.566 97.1253 23.8253 98.0586 24.3438C98.992 24.8475 99.7253 25.5735 100.259 26.5216C100.807 27.4698 101.081 28.5735 101.081 29.8327C101.081 31.092 100.799 32.2031 100.236 33.166C99.6883 34.1142 98.9401 34.8475 97.992 35.366C97.0438 35.8846 95.992 36.1438 94.8364 36.1438ZM94.8364 34.366C95.5623 34.366 96.2438 34.1957 96.8809 33.8549C97.5179 33.5142 98.029 33.0031 98.4142 32.3216C98.8142 31.6401 99.0142 30.8105 99.0142 29.8327C99.0142 28.8549 98.8216 28.0253 98.4364 27.3438C98.0512 26.6623 97.5475 26.1586 96.9253 25.8327C96.3031 25.492 95.629 25.3216 94.9031 25.3216C94.1623 25.3216 93.4809 25.492 92.8586 25.8327C92.2512 26.1586 91.7623 26.6623 91.392 27.3438C91.0216 28.0253 90.8364 28.8549 90.8364 29.8327C90.8364 30.8253 91.0142 31.6623 91.3697 32.3438C91.7401 33.0253 92.229 33.5364 92.8364 33.8772C93.4438 34.2031 94.1105 34.366 94.8364 34.366Z" fill="#3949AB"/>
  <path d="M105.762 25.7438C106.117 25.0475 106.621 24.5068 107.273 24.1216C107.94 23.7364 108.747 23.5438 109.695 23.5438V25.6327H109.162C106.895 25.6327 105.762 26.8623 105.762 29.3216V35.9438H103.74V23.766H105.762V25.7438Z" fill="#3949AB"/>
  <path d="M77.4556 9.27724C77.4556 6.20899 79.9429 3.72168 83.0111 3.72168H106C109.068 3.72168 111.556 6.20899 111.556 9.27724V11.4995C111.556 14.5677 109.068 17.055 106 17.055H83.0111C79.9429 17.055 77.4556 14.5677 77.4556 11.4995V9.27724Z" fill="#6F74DD" fill-opacity="0.33"/>
  <path fill-rule="evenodd" clip-rule="evenodd" d="M83.0111 4.27724C80.2497 4.27724 78.0111 6.51581 78.0111 9.27724V11.4995C78.0111 14.2609 80.2497 16.4995 83.0111 16.4995H106C108.761 16.4995 111 14.2609 111 11.4995V9.27724C111 6.51581 108.761 4.27724 106 4.27724H83.0111ZM83.0111 3.72168C79.9429 3.72168 77.4556 6.20899 77.4556 9.27724V11.4995C77.4556 14.5677 79.9429 17.055 83.0111 17.055H106C109.068 17.055 111.556 14.5677 111.556 11.4995V9.27724C111.556 6.20899 109.068 3.72168 106 3.72168H83.0111Z" fill="white"/>
  <path d="M87.3354 12.0637C87.3354 11.8177 87.2486 11.6297 87.075 11.4995C86.9013 11.3664 86.5888 11.2275 86.1375 11.0828C85.6861 10.9352 85.3287 10.7905 85.0654 10.6488C84.3478 10.261 83.989 9.73875 83.989 9.08192C83.989 8.74049 84.0845 8.43667 84.2755 8.17046C84.4693 7.90137 84.7457 7.69159 85.1045 7.54112C85.4662 7.39066 85.8712 7.31543 86.3197 7.31543C86.7711 7.31543 87.1733 7.39789 87.5263 7.56283C87.8793 7.72486 88.1528 7.9549 88.3467 8.25293C88.5434 8.55096 88.6418 8.8895 88.6418 9.26855H87.3397C87.3397 8.9792 87.2486 8.75496 87.0663 8.59581C86.884 8.43377 86.6279 8.35276 86.298 8.35276C85.9798 8.35276 85.7324 8.42075 85.5559 8.55675C85.3793 8.68985 85.2911 8.86636 85.2911 9.08626C85.2911 9.2917 85.3938 9.46387 85.5993 9.60276C85.8076 9.74165 86.1129 9.87185 86.5151 9.99338C87.2558 10.2162 87.7954 10.4925 88.134 10.8224C88.4725 11.1522 88.6418 11.5631 88.6418 12.055C88.6418 12.6019 88.4349 13.0316 88.0211 13.3441C87.6074 13.6537 87.0504 13.8085 86.3501 13.8085C85.864 13.8085 85.4213 13.7202 85.022 13.5437C84.6227 13.3643 84.3174 13.1198 84.1062 12.8102C83.8979 12.5006 83.7937 12.1418 83.7937 11.7338H85.1001C85.1001 12.4312 85.5168 12.7798 86.3501 12.7798C86.6597 12.7798 86.9013 12.7176 87.075 12.5932C87.2486 12.4659 87.3354 12.2894 87.3354 12.0637Z" fill="#3949AB"/>
  <path d="M90.8293 11.4951V13.7217H89.5272V7.40224H91.9925C92.467 7.40224 92.8837 7.48904 93.2425 7.66265C93.6042 7.83626 93.882 8.08366 94.0758 8.40484C94.2697 8.72313 94.3666 9.08626 94.3666 9.49425C94.3666 10.1135 94.1539 10.6025 93.7286 10.9613C93.3061 11.3172 92.7202 11.4951 91.9708 11.4951H90.8293ZM90.8293 10.4404H91.9925C92.3368 10.4404 92.5987 10.3594 92.7781 10.1974C92.9604 10.0353 93.0515 9.80386 93.0515 9.50293C93.0515 9.19332 92.9604 8.94303 92.7781 8.75206C92.5958 8.56109 92.344 8.46271 92.0229 8.45692H90.8293V10.4404Z" fill="#3949AB"/>
  <path d="M99.0671 10.983H96.5671V12.6757H99.5012V13.7217H95.2651V7.40224H99.4925V8.45692H96.5671V9.963H99.0671V10.983Z" fill="#3949AB"/>
  <path d="M105.226 11.6166C105.177 12.2966 104.925 12.8319 104.471 13.2225C104.019 13.6132 103.423 13.8085 102.683 13.8085C101.872 13.8085 101.234 13.5365 100.769 12.9925C100.306 12.4456 100.074 11.6962 100.074 10.7442V10.358C100.074 9.75033 100.181 9.21502 100.395 8.75206C100.609 8.2891 100.915 7.93464 101.311 7.68869C101.71 7.43985 102.173 7.31543 102.7 7.31543C103.429 7.31543 104.017 7.51074 104.462 7.90137C104.908 8.29199 105.165 8.84031 105.235 9.54633H103.933C103.901 9.13835 103.786 8.84321 103.59 8.66092C103.396 8.47573 103.099 8.38314 102.7 8.38314C102.266 8.38314 101.94 8.53939 101.723 8.85189C101.509 9.16149 101.399 9.64327 101.394 10.2972V10.7746C101.394 11.4575 101.496 11.9566 101.702 12.272C101.91 12.5874 102.237 12.7451 102.683 12.7451C103.085 12.7451 103.384 12.654 103.581 12.4717C103.781 12.2865 103.895 12.0015 103.924 11.6166H105.226Z" fill="#3949AB"/>
</svg>
