<svg width="112" height="51" viewBox="0 0 112 51" fill="none" xmlns="http://www.w3.org/2000/svg">
  <path d="M47.4128 11.4509C47.3973 10.6199 47.1034 8.85627 46.7777 8.10988C46.452 7.36348 46.01 6.72098 45.4517 6.18234C44.8778 5.6437 44.2226 5.22434 43.4859 4.92425C42.7492 4.62415 41.9699 4.4741 41.1479 4.4741C35.9631 4.4741 32.0745 4.4741 29.4822 4.4741C26.8886 4.4741 22.9982 4.4741 17.811 4.4741V0.388184H41.2642C42.6445 0.388184 43.9512 0.642108 45.1842 1.14996C46.4172 1.65782 47.4989 2.37343 48.4295 3.2968C49.36 4.20479 50.0851 5.2705 50.6047 6.49398C51.1242 7.71745 51.5599 10.2467 51.5599 11.6164V13.6317H47.4128C47.4128 13.1782 47.4166 11.5335 47.4128 11.4509Z" fill="#933183"/>
  <path d="M4.64717 39.298C4.66268 40.129 4.95649 41.8926 5.28219 42.639C5.60788 43.3854 6.04989 44.0279 6.60823 44.5666C7.18208 45.1052 7.83734 45.5246 8.57404 45.8247C9.31073 46.1248 10.0901 46.2748 10.9121 46.2748H34.2489V50.3607H10.7957C9.41541 50.3607 8.10876 50.1068 6.87577 49.599C5.64277 49.0911 4.56101 48.3755 3.63045 47.4521C2.69988 46.5441 1.97483 45.4784 1.45526 44.2549C0.9357 43.0315 0.5 40.5022 0.5 39.1325V37.1172H4.64717C4.64717 37.5708 4.6433 39.2154 4.64717 39.298Z" fill="#76B515"/>
  <path d="M14.0243 4.49076H11.7973C10.9486 4.50595 9.14761 4.79366 8.38539 5.1126C7.62317 5.43153 6.96705 5.86437 6.41699 6.41112C5.86694 6.97305 5.43869 7.61471 5.13223 8.33611C4.82577 9.05751 4.67254 9.82067 4.67254 10.6256C4.67254 13.6717 4.67254 15.9563 4.67254 17.4793C4.67254 21.0346 4.67254 26.3675 4.67254 33.478C4.23163 33.478 0.655412 33.478 0.5 33.478L0.5 10.5117C0.5 9.16002 0.759308 7.8805 1.27793 6.6731C1.79655 5.4657 2.52733 4.40639 3.47028 3.49515C4.39752 2.5839 5.48583 1.8739 6.73524 1.36512C7.98465 0.856343 10.5675 0.429687 11.9663 0.429687C12.1134 0.429687 14.0243 0.429687 14.0243 0.429687C14.0243 1.55142 14.0243 3.62677 14.0243 4.49076Z" fill="#FD5C02"/>
  <path d="M23.6545 24.9883C23.6545 26.2772 23.2105 27.3512 22.3225 28.2105C21.4493 29.0549 20.1099 29.4772 18.3043 29.4772H15.3295V35.9438H13.3093V20.4549H18.3043C20.0507 20.4549 21.3753 20.8772 22.2781 21.7216C23.1957 22.566 23.6545 23.6549 23.6545 24.9883ZM18.3043 27.8105C19.4291 27.8105 20.2579 27.566 20.7907 27.0772C21.3235 26.5883 21.5899 25.892 21.5899 24.9883C21.5899 23.0772 20.4947 22.1216 18.3043 22.1216H15.3295V27.8105H18.3043Z" fill="#3949AB"/>
  <path d="M28.1856 25.7438C28.5408 25.0475 29.044 24.5068 29.6952 24.1216C30.3612 23.7364 31.1678 23.5438 32.115 23.5438V25.6327H31.5822C29.3178 25.6327 28.1856 26.8623 28.1856 29.3216V35.9438H26.1654V23.766H28.1856V25.7438Z" fill="#3949AB"/>
  <path d="M39.7528 36.1438C38.6132 36.1438 37.5772 35.8846 36.6448 35.366C35.7272 34.8475 35.002 34.1142 34.4692 33.166C33.9512 32.2031 33.6922 31.092 33.6922 29.8327C33.6922 28.5883 33.9586 27.492 34.4914 26.5438C35.039 25.5809 35.779 24.8475 36.7114 24.3438C37.6438 23.8253 38.6872 23.566 39.8416 23.566C40.996 23.566 42.0394 23.8253 42.9718 24.3438C43.9042 24.8475 44.6368 25.5735 45.1696 26.5216C45.7172 27.4698 45.991 28.5735 45.991 29.8327C45.991 31.092 45.7098 32.2031 45.1474 33.166C44.5998 34.1142 43.8524 34.8475 42.9052 35.366C41.958 35.8846 40.9072 36.1438 39.7528 36.1438ZM39.7528 34.366C40.478 34.366 41.1588 34.1957 41.7952 33.8549C42.4316 33.5142 42.9422 33.0031 43.327 32.3216C43.7266 31.6401 43.9264 30.8105 43.9264 29.8327C43.9264 28.8549 43.734 28.0253 43.3492 27.3438C42.9644 26.6623 42.4612 26.1586 41.8396 25.8327C41.218 25.492 40.5446 25.3216 39.8194 25.3216C39.0794 25.3216 38.3986 25.492 37.777 25.8327C37.1702 26.1586 36.6818 26.6623 36.3118 27.3438C35.9418 28.0253 35.7568 28.8549 35.7568 29.8327C35.7568 30.8253 35.9344 31.6623 36.2896 32.3438C36.6596 33.0253 37.148 33.5364 37.7548 33.8772C38.3616 34.2031 39.0276 34.366 39.7528 34.366Z" fill="#3949AB"/>
  <path d="M49.735 21.7883C49.3502 21.7883 49.0246 21.6549 48.7582 21.3883C48.5066 21.1216 48.3808 20.7957 48.3808 20.4105C48.3808 20.0253 48.5066 19.6994 48.7582 19.4327C49.0246 19.166 49.3502 19.0327 49.735 19.0327C50.1198 19.0327 50.438 19.166 50.6896 19.4327C50.956 19.6994 51.0892 20.0253 51.0892 20.4105C51.0892 20.7957 50.956 21.1216 50.6896 21.3883C50.438 21.6549 50.1198 21.7883 49.735 21.7883ZM50.734 38.5883C50.734 39.6698 50.4602 40.4623 49.9126 40.966C49.365 41.4698 48.5658 41.7216 47.515 41.7216H46.3384V40.0105H47.182C47.7444 40.0105 48.1366 39.8994 48.3586 39.6772C48.5954 39.4549 48.7138 39.0772 48.7138 38.5438V23.766H50.734V38.5883Z" fill="#3949AB"/>
  <path d="M65.2539 29.3883C65.2539 29.7735 65.2317 30.1809 65.1873 30.6105H55.4637C55.5377 31.8105 55.9447 32.7512 56.6847 33.4327C57.4395 34.0994 58.3497 34.4327 59.4153 34.4327C60.2885 34.4327 61.0137 34.2327 61.5909 33.8327C62.1829 33.4179 62.5973 32.8698 62.8341 32.1883H65.0097C64.6841 33.3586 64.0329 34.3142 63.0561 35.0549C62.0793 35.7809 60.8657 36.1438 59.4153 36.1438C58.2609 36.1438 57.2249 35.8846 56.3073 35.366C55.4045 34.8475 54.6941 34.1142 54.1761 33.166C53.6581 32.2031 53.3991 31.092 53.3991 29.8327C53.3991 28.5735 53.6507 27.4698 54.1539 26.5216C54.6571 25.5735 55.3601 24.8475 56.2629 24.3438C57.1805 23.8253 58.2313 23.566 59.4153 23.566C60.5697 23.566 61.5909 23.8179 62.4789 24.3216C63.3669 24.8253 64.0477 25.5216 64.5213 26.4105C65.0097 27.2846 65.2539 28.2772 65.2539 29.3883ZM63.1671 28.966C63.1671 28.1957 62.9969 27.5364 62.6565 26.9883C62.3161 26.4253 61.8499 26.0031 61.2579 25.7216C60.6807 25.4253 60.0369 25.2772 59.3265 25.2772C58.3053 25.2772 57.4321 25.6031 56.7069 26.2549C55.9965 26.9068 55.5895 27.8105 55.4859 28.966H63.1671Z" fill="#3949AB"/>
  <path d="M67.1657 29.8327C67.1657 28.5735 67.4173 27.4772 67.9205 26.5438C68.4237 25.5957 69.1193 24.8623 70.0073 24.3438C70.9101 23.8253 71.9387 23.566 73.0931 23.566C74.5879 23.566 75.8163 23.929 76.7783 24.6549C77.7551 25.3809 78.3989 26.3883 78.7097 27.6772H76.5341C76.3269 26.9364 75.9199 26.3512 75.3131 25.9216C74.7211 25.492 73.9811 25.2772 73.0931 25.2772C71.9387 25.2772 71.0063 25.6772 70.2959 26.4772C69.5855 27.2623 69.2303 28.3809 69.2303 29.8327C69.2303 31.2994 69.5855 32.4327 70.2959 33.2327C71.0063 34.0327 71.9387 34.4327 73.0931 34.4327C73.9811 34.4327 74.7211 34.2253 75.3131 33.8105C75.9051 33.3957 76.3121 32.8031 76.5341 32.0327H78.7097C78.3841 33.2772 77.7329 34.2772 76.7561 35.0327C75.7793 35.7735 74.5583 36.1438 73.0931 36.1438C71.9387 36.1438 70.9101 35.8846 70.0073 35.366C69.1193 34.8475 68.4237 34.1142 67.9205 33.166C67.4173 32.2179 67.1657 31.1068 67.1657 29.8327Z" fill="#3949AB"/>
  <path d="M83.8694 25.4327V32.6105C83.8694 33.2031 83.9952 33.6253 84.2468 33.8772C84.4984 34.1142 84.935 34.2327 85.5566 34.2327H87.044V35.9438H85.2236C84.0988 35.9438 83.2552 35.6846 82.6928 35.166C82.1304 34.6475 81.8492 33.7957 81.8492 32.6105V25.4327H80.273V23.766H81.8492V20.6994H83.8694V23.766H87.044V25.4327H83.8694Z" fill="#3949AB"/>
  <path d="M94.7975 36.1438C93.658 36.1438 92.622 35.8846 91.6896 35.366C90.7719 34.8475 90.0467 34.1142 89.5139 33.166C88.9959 32.2031 88.7369 31.092 88.7369 29.8327C88.7369 28.5883 89.0033 27.492 89.5361 26.5438C90.0837 25.5809 90.8238 24.8475 91.7561 24.3438C92.6886 23.8253 93.7319 23.566 94.8864 23.566C96.0407 23.566 97.0842 23.8253 98.0165 24.3438C98.949 24.8475 99.6816 25.5735 100.214 26.5216C100.762 27.4698 101.036 28.5735 101.036 29.8327C101.036 31.092 100.755 32.2031 100.192 33.166C99.6445 34.1142 98.8971 34.8475 97.95 35.366C97.0028 35.8846 95.952 36.1438 94.7975 36.1438ZM94.7975 34.366C95.5228 34.366 96.2036 34.1957 96.84 33.8549C97.4763 33.5142 97.9869 33.0031 98.3717 32.3216C98.7713 31.6401 98.9712 30.8105 98.9712 29.8327C98.9712 28.8549 98.7787 28.0253 98.3939 27.3438C98.0091 26.6623 97.506 26.1586 96.8844 25.8327C96.2628 25.492 95.5893 25.3216 94.8641 25.3216C94.1241 25.3216 93.4434 25.492 92.8217 25.8327C92.215 26.1586 91.7265 26.6623 91.3566 27.3438C90.9865 28.0253 90.8016 28.8549 90.8016 29.8327C90.8016 30.8253 90.9792 31.6623 91.3344 32.3438C91.7044 33.0253 92.1927 33.5364 92.7996 33.8772C93.4063 34.2031 94.0723 34.366 94.7975 34.366Z" fill="#3949AB"/>
  <path d="M105.712 25.7438C106.067 25.0475 106.571 24.5068 107.222 24.1216C107.888 23.7364 108.694 23.5438 109.642 23.5438V25.6327H109.109C106.844 25.6327 105.712 26.8623 105.712 29.3216V35.9438H103.692V23.766H105.712V25.7438Z" fill="#3949AB"/>
  <rect x="74.75" y="3.97168" width="36.1559" height="12.8333" rx="4.75" fill="#6F74DD" fill-opacity="0.33" stroke="white" stroke-width="0.5"/>
  <path d="M85.7368 8.0909H83.7224V13.5462H82.3674V8.0909H80.3801V6.99805H85.7368V8.0909Z" fill="#3949AB"/>
  <path d="M90.4702 10.7083H87.8687V12.4623H90.9219V13.5462H86.5137V6.99805H90.9128V8.0909H87.8687V9.65147H90.4702V10.7083Z" fill="#3949AB"/>
  <path d="M95.4294 12.197H93.0537L92.6021 13.5462H91.1613L93.6093 6.99805H94.8649L97.3264 13.5462H95.8856L95.4294 12.197ZM93.4196 11.1041H95.0636L94.2371 8.65306L93.4196 11.1041Z" fill="#3949AB"/>
  <path d="M99.7112 6.99805L101.4 11.7472L103.081 6.99805H104.86V13.5462H103.501V11.7562L103.636 8.66656L101.861 13.5462H100.931L99.1602 8.67105L99.2957 11.7562V13.5462H97.9407V6.99805H99.7112Z" fill="#3949AB"/>
</svg>
