<svg id="eegdi2d3swbt1" xmlns="http://www.w3.org/2000/svg" viewBox="0 0 30 30" shape-rendering="geometricPrecision"
     text-rendering="geometricPrecision" width="30" height="30"><style><![CDATA[#eegdi2d3swbt2_tr {animation: eegdi2d3swbt2_tr__tr 870ms linear infinite reverse forwards}@keyframes eegdi2d3swbt2_tr__tr { 0% {transform: translate(15.000459px,0px) rotate(0deg)} 9.195402% {transform: translate(15.000459px,0px) rotate(-7.100000deg)} 18.390805% {transform: translate(15.000459px,0px) rotate(0deg)} 27.586207% {transform: translate(15.000459px,0px) rotate(7.100000deg)} 36.781609% {transform: translate(15.000459px,0px) rotate(0deg)} 45.977011% {transform: translate(15.000459px,0px) rotate(-7.100000deg)} 54.022989% {transform: translate(15.000459px,0px) rotate(0deg)} 63.218391% {transform: translate(15.000459px,0px) rotate(7.100000deg)} 72.413793% {transform: translate(15.000459px,0px) rotate(0deg)} 100% {transform: translate(15.000459px,0px) rotate(0deg)} }#eegdi2d3swbt3_to {animation: eegdi2d3swbt3_to__to 870ms linear infinite reverse forwards}@keyframes eegdi2d3swbt3_to__to { 0% {transform: translate(15px,0px)} 9.195402% {transform: translate(15px,0px)} 18.390805% {transform: translate(14px,0px)} 27.586207% {transform: translate(15px,0px)} 36.781609% {transform: translate(16px,0px)} 45.977011% {transform: translate(15px,0px)} 54.022989% {transform: translate(14px,0px)} 63.218391% {transform: translate(15px,0px)} 72.413793% {transform: translate(16px,0px)} 81.609195% {transform: translate(15px,0px)} 90.804598% {transform: translate(14px,0px)} 100% {transform: translate(15px,0px)} }#eegdi2d3swbt3_tr {animation: eegdi2d3swbt3_tr__tr 870ms linear infinite reverse forwards}@keyframes eegdi2d3swbt3_tr__tr { 0% {transform: rotate(0deg)} 9.195402% {transform: rotate(0deg)} 18.390805% {transform: rotate(2.913691deg)} 27.586207% {transform: rotate(0deg)} 36.781609% {transform: rotate(-2.781610deg)} 45.977011% {transform: rotate(0deg)} 54.022989% {transform: rotate(2.910000deg)} 63.218391% {transform: rotate(0deg)} 72.413793% {transform: rotate(-2.910000deg)} 81.609195% {transform: rotate(0deg)} 90.804598% {transform: rotate(2.910000deg)} 100% {transform: rotate(0deg)} }]]></style><g id="eegdi2d3swbt2_tr" transform="translate(15.000459,0) rotate(0)"><path id="eegdi2d3swbt2" d="M26.682500,23.830000C24.851900,22.470000,23.802200,19.636500,23.802200,17.374100L23.802200,12.624300C23.802200,8.645640,21.091500,4.535440,17.401500,3.500000L17.401500,2.370000C17.401500,1.060660,16.324600,0,15.001300,0C13.677900,0,12.601000,1.060660,12.601000,2.370000L12.601000,3.500000C8.911010,4.537030,6.200320,8.645640,6.200320,12.624300L6.200320,17.374100C6.200320,19.636500,5.150600,22.468400,3.320010,23.830000C3.044780,24.034200,2.932770,24.387000,3.041580,24.710000C3.150390,25.033000,3.456020,25.250000,3.800060,25.250000L26.200900,25.250000C26.544900,25.250000,26.850500,25.033000,26.959300,24.710000C27.068200,24.387000,26.956100,24.034200,26.680900,23.830000L26.682500,23.830000ZM14.201200,2.370000C14.201200,1.933020,14.559600,1.580000,15.001300,1.580000C15.442900,1.580000,15.801300,1.933020,15.801300,2.370000L15.801300,3.200000C15.537300,3.176250,15.271700,3.170000,15.001300,3.170000C14.730800,3.170000,14.465200,3.176250,14.201200,3.200000L14.201200,2.370000ZM5.787470,23.830000C6.195510,23.340800,6.550750,21.892700,6.841980,21.330600C7.478850,20.098800,7.800490,18.767300,7.800490,17.374100L7.800490,12.624300C7.800490,8.696310,11.031200,4.750000,15.001300,4.750000C18.971300,4.750000,22.202000,8.696310,22.202000,12.624300L22.202000,17.374100C22.202000,18.767300,22.525300,20.098800,23.160500,21.330600C23.451800,21.894200,23.807000,23.340800,24.215000,23.830000L5.785870,23.830000L5.787470,23.830000Z" transform="translate(-15.000459,0)" stroke-width="1"/></g><g id="eegdi2d3swbt3_to" transform="translate(15,0)"><g id="eegdi2d3swbt3_tr" transform="rotate(0)"><path id="eegdi2d3swbt3" d="M18.920000,25.258400L18.850000,25L11.150000,25L11.081600,25.258400C11.028800,25.517500,11,25.779900,11,26.047000C11,28.224800,12.795200,30,15,30C17.204800,30,19,28.224800,19,26.047000C19,25.781400,18.972800,25.517500,18.920000,25.258400ZM17.150000,25C16.879600,25,13.114000,24.976300,12.850000,25L17.150000,25ZM17.401600,26.047000C17.401600,27.354000,16.324800,28.422800,15.001600,28.422800C13.678400,28.422800,12.601600,27.354000,12.601600,26.047000C12.601600,25.776700,12.760400,25.252900,12.850000,25L17.150000,25C17.239600,25.252900,17.401600,25.776700,17.401600,26.047000Z" transform="translate(-15,0)" stroke-width="1"/></g></g></svg>
