<svg viewBox="0 0 24 24" xmlns="http://www.w3.org/2000/svg">
  <style>
    [data-bell] {
      animation: pendulum 0.9s linear normal infinite;
    }
    [data-pendulum] {
      animation: pendulum2 0.9s linear normal infinite;
    }
    @keyframes pendulum {
      0% {transform: translate(12px,0px) rotate(0deg)}
      9% {transform: translate(12px,0px) rotate(-7deg)}
      18% { transform: translate(12px,0px) rotate(0deg)}
      27.6% { transform: translate(12px,0px) rotate(7deg)}
      37% { transform: translate(12px,0px) rotate(0deg)}
      46% { transform: translate(12px,0px) rotate(-7deg)}
      54% { transform: translate(12px,0px) rotate(0deg)}
      63% { transform: translate(12px,0px) rotate(7deg)}
      72% { transform: translate(12px,0px) rotate(0deg)}
      100% { transform: translate(12px,0px) rotate(0deg)}
    }

    @keyframes pendulum2 {
      0% { transform: translate(12px,0px) rotate(0deg)}
      9% { transform: translate(12px,0px) rotate(0deg)}
      18% { transform: translate(11px,0px) rotate(3deg)}
      27% { transform: translate(12px,0px) rotate(0deg)}
      37% { transform: translate(13px,0px)
      rotate(-3deg)}
      46% {transform: translate(12px,0px) rotate(0deg)}
      54% {transform: translate(11px,0px) rotate(3deg)}
      63% {transform: translate(12px,0px) rotate(0deg)}
      72% {transform: translate(13px,0px) rotate(-3deg)}
      82% {transform: translate(12px,0px) rotate(0deg)}
      91% {transform: translate(11px,0px) rotate(3deg)}
      100% {transform: translate(12px,0px) rotate(0deg)}
    }
  </style>
  <g data-pendulum="" transform="translate(12,0) rotate(0)">
    <path transform="translate(-12,0) rotate(0)" d="M9.708 18.709C9.708 19.974 10.734 21 12 21C13.266 21 14.292 19.974 14.292 18.708" fill="none" stroke-linecap="round" stroke-linejoin="round"/>
  </g>
  <g data-bell="" transform="translate(12,0) rotate(0)">
    <path transform="translate(-12,0) rotate(0)" d="M13.833 5.751V4.833C13.833 3.821 13.013 3 12 3V3C10.987 3 10.167 3.821 10.167 4.833V5.751" fill="none" stroke-linecap="round" stroke-linejoin="round"/>
    <path transform="translate(-12,0) rotate(0)" fill-rule="evenodd" clip-rule="evenodd" d="M6.563 10.188V10.188C6.563 7.68498 8.592 5.65698 11.094 5.65698H12.907C15.41 5.65698 17.438 7.68598 17.438 10.188V10.188V12.985C17.438 13.515 17.649 14.024 18.024 14.399L18.665 15.04C19.04 15.415 19.251 15.924 19.251 16.454V16.454C19.251 17.498 18.405 18.344 17.361 18.344H6.64C5.596 18.344 4.75 17.498 4.75 16.454V16.454C4.75 15.924 4.961 15.415 5.336 15.04L5.977 14.399C6.352 14.024 6.563 13.515 6.563 12.985V10.188Z" fill="none" stroke-linecap="round" stroke-linejoin="round"/>
  </g>
</svg>
