<svg id="epd5q4rdn4i1" xmlns="http://www.w3.org/2000/svg" viewBox="0 0 30 30" shape-rendering="geometricPrecision"
     text-rendering="geometricPrecision" width="30" height="30"><style><![CDATA[#epd5q4rdn4i4_tr {animation: epd5q4rdn4i4_tr__tr 1000ms linear infinite normal forwards}@keyframes epd5q4rdn4i4_tr__tr { 0% {transform: translate(17.249305px,15px) rotate(0deg)} 30% {transform: translate(17.249305px,15px) rotate(-90deg)} 52% {transform: translate(17.249305px,15px) rotate(-180deg)} 66% {transform: translate(17.249305px,15px) rotate(-270deg)} 80% {transform: translate(17.249305px,15px) rotate(-360deg)} 100% {transform: translate(17.249305px,15px) rotate(-360deg)} }#epd5q4rdn4i5_to {animation: epd5q4rdn4i5_to__to 1000ms linear infinite normal forwards}@keyframes epd5q4rdn4i5_to__to { 0% {transform: translate(0px,0px)} 30% {transform: translate(0px,17px)} 31% {transform: translate(-10.539325px,16.994678px)} 35% {transform: translate(-10.539325px,-19.160004px)} 73% {transform: translate(-0.015398px,-19.160004px)} 80% {transform: translate(0.004602px,0.004678px)} 100% {transform: translate(0.004602px,0.004678px)} }#epd5q4rdn4i5 {animation: epd5q4rdn4i5_c_o 1000ms linear infinite normal forwards}@keyframes epd5q4rdn4i5_c_o { 0% {opacity: 1} 30% {opacity: 0} 73% {opacity: 0} 80% {opacity: 1} 100% {opacity: 1} }]]></style><defs><clipPath id="epd5q4rdn4i2"><rect id="epd5q4rdn4i3" width="30" height="30" rx="0" ry="0" stroke="none" stroke-width="1"/></clipPath></defs><g id="epd5q4rdn4i4_tr" transform="translate(17.249305,15) rotate(0)"><path id="epd5q4rdn4i4" d="M17.247800,2C20.652600,2,23.854900,3.353530,26.262200,5.808230L26.265200,5.808230C28.674100,8.262940,30,11.528200,30,15C30,18.471800,28.672600,21.735500,26.265200,24.191800C23.857900,26.648000,20.655600,28,17.250800,28C16.836800,28,16.500900,27.657400,16.500900,27.235300C16.500900,26.813200,16.836800,26.470600,17.250800,26.470600C23.454400,26.470600,28.500100,21.325600,28.500100,15C28.500100,8.674350,23.454400,3.529410,17.250800,3.529410C11.047200,3.529410,6.001510,8.674350,6.001510,15C6.000010,15.359900,5.685600,15.710000,5.250060,15.710000C4.814530,15.710000,4.500010,15.359900,4.498610,15C4.498610,11.528200,5.826020,8.264470,8.233370,5.808230C10.640700,3.352000,13.843000,2,17.247800,2Z" transform="translate(-17.249305,-15)" stroke="none" stroke-width="1"/></g><g id="epd5q4rdn4i5_to" transform="translate(0,0)"><g id="epd5q4rdn4i5" transform="translate(0,0)"><path id="epd5q4rdn4i6" d="M5.249260,14.245700C5.662780,14.247000,5.997030,14.579200,5.995840,14.985600L5.969980,18.427800C5.968780,18.834200,5.630830,19.161300,5.217310,19.160000C4.803790,19.158800,4.469540,18.825700,4.470740,18.419300L4.496580,14.979300C4.499390,14.573200,4.832660,14.243800,5.249260,14.245700Z" stroke="none" stroke-width="1"/><path id="epd5q4rdn4i7" d="M4.967850,19.083200C4.861930,19.046600,4.762560,18.985500,4.677750,18.899700C4.386570,18.606100,4.386420,18.134100,4.675900,17.847000L9.269350,13.300700C9.558820,13.013600,10.029800,13.021100,10.321000,13.314700C10.612100,13.608400,10.611700,14.080900,10.322200,14.368100L5.730380,18.912800C5.524070,19.115800,5.227710,19.173100,4.967850,19.083200Z" stroke="none" stroke-width="1"/><path id="epd5q4rdn4i8" d="M0.061000,13.502900C0.099465,13.397700,0.162161,13.299400,0.249313,13.216000C0.547594,12.929600,1.018820,12.936300,1.300330,13.229400L5.757720,17.880600C6.039230,18.173800,6.023390,18.643800,5.725100,18.930200C5.426820,19.216600,4.955040,19.209300,4.673530,18.916200L0.217682,14.266500C0.018667,14.057700,-0.033370,13.761000,0.061000,13.502900Z" stroke="none" stroke-width="1"/></g></g></svg>
