<svg viewBox="0 0 24 24" xmlns="http://www.w3.org/2000/svg">
  <style>
    [data-reload-icon] {
      animation: reload-rotate1 1s linear infinite;
    }

    [data-reload-arrow] {
      animation: reload-arrow-move 1s linear infinite;
    }

    [data-reload-circle] {
      animation: reload-rotate2 1s linear infinite;
    }

    @keyframes reload-rotate2 {
      0% {
        transform: translate(12px,12px) rotate(0deg)
      }
      13% {
        transform: translate(12px,12px) rotate(0deg)
      }
      100% {
        transform: translate(12px,12px) rotate(-315deg)
      }
    }

    @keyframes reload-rotate1 {
      0% {
        transform: translate(12px,12px) rotate(0deg)
      }
      13% {
        transform: translate(12px,12px) rotate(-45deg)
      }
      100% {
        transform: translate(12px,12px) rotate(-45deg)
      }
    }

    @keyframes reload-arrow-move {
      0% {
        transform: translate(17px,6px)
      }
      13% {
        transform: translate(17px,6px);
        opacity: 1;
      }
      40% {
        transform: translate(8px,-3px);
        opacity: 0;
      }
      100% {
        transform: translate(8px,-3px)
      }
    }
  </style>
  <g data-reload-icon="" transform="translate(12,12) rotate(0)">
    <g transform="translate(-12,-12)">
      <g data-reload-circle="" transform="translate(12,12) rotate(0)">
        <path transform="translate(-12,-12)" fill-rule="evenodd" clip-rule="evenodd" d="M3.31561 10.9134C3.86356 6.53393 7.58628 3.24747 11.9999 3.2468C12.4141 3.24673 12.7499 3.58247 12.75 3.99668C12.7501 4.41089 12.4143 4.74673 12.0001 4.7468C8.34284 4.74735 5.25806 7.47064 4.80401 11.0996C4.34995 14.7286 6.66867 18.128 10.2131 19.0296C13.7575 19.9312 17.4187 18.053 18.7539 14.6482C20.0891 11.2433 18.6806 7.37706 15.4681 5.62898C15.1043 5.431 14.9698 4.97556 15.1678 4.61172C15.3658 4.24789 15.8212 4.11344 16.1851 4.31142C20.0619 6.421 21.7617 11.0868 20.1504 15.1958C18.539 19.3048 14.1207 21.5714 9.84328 20.4833C5.5659 19.3952 2.76766 15.2929 3.31561 10.9134Z"/>
      </g>
      <g data-reload-arrow="" transform="translate(17,6)">
        <path transform="translate(-17,-6)" fill-rule="evenodd" clip-rule="evenodd" d="M15.0766 4.509C15.0766 4.09479 15.4124 3.759 15.8266 3.759H19.3641C19.7783 3.759 20.1141 4.09479 20.1141 4.509C20.1141 4.92322 19.7783 5.259 19.3641 5.259H16.5766V8.04648C16.5766 8.46069 16.2408 8.79648 15.8266 8.79648C15.4124 8.79648 15.0766 8.46069 15.0766 8.04648V4.509Z"/>
      </g>
    </g>
  </g>
</svg>
