<svg id="ez2whecr1afj1" xmlns="http://www.w3.org/2000/svg" xmlns:xlink="http://www.w3.org/1999/xlink" viewBox="0 0 30 30" shape-rendering="geometricPrecision" text-rendering="geometricPrecision" width="30" height="30"><style><![CDATA[#ez2whecr1afj4_tr {animation: ez2whecr1afj4_tr__tr 800ms linear infinite normal forwards}@keyframes ez2whecr1afj4_tr__tr { 0% {transform: translate(17.350000px,15px) rotate(0deg)} 25% {transform: translate(17.350000px,15px) rotate(-90deg)} 50% {transform: translate(17.350000px,15px) rotate(-180deg)} 75% {transform: translate(17.350000px,15px) rotate(-270deg)} 100% {transform: translate(17.350000px,15px) rotate(-360deg)} }]]></style><defs><clipPath id="ez2whecr1afj2"><rect id="ez2whecr1afj3" width="30" height="30" rx="0" ry="0" stroke="none" stroke-width="1"/></clipPath></defs><g id="ez2whecr1afj4_tr" transform="translate(17.350000,15) rotate(0)"><g id="ez2whecr1afj4" transform="translate(-17.350000,-15)" clip-path="url(#ez2whecr1afj2)"><path id="ez2whecr1afj5" d="M17.247800,2C20.652600,2,23.854900,3.353530,26.262200,5.808230L26.265200,5.808230C28.674100,8.262940,30,11.528200,30,15C30,18.471800,28.672600,21.735500,26.265200,24.191800C23.857900,26.648000,20.655600,28,17.250800,28C16.836800,28,16.500900,27.657400,16.500900,27.235300C16.500900,26.813200,16.836800,26.470600,17.250800,26.470600C23.454400,26.470600,28.500100,21.325600,28.500100,15C28.500100,8.674350,23.454400,3.529410,17.250800,3.529410C11.047200,3.529410,6.001510,8.674350,6.001510,15C6.000010,15.359900,5.685600,15.710000,5.250060,15.710000C4.814530,15.710000,4.500010,15.359900,4.498610,15C4.498610,11.528200,5.826020,8.264470,8.233370,5.808230C10.640700,3.352000,13.843000,2,17.247800,2Z" stroke="none" stroke-width="1"/></g></g></svg>
