<svg id="evj62kaz6gbh1" xmlns="http://www.w3.org/2000/svg" xmlns:xlink="http://www.w3.org/1999/xlink" viewBox="0 0 30 30" shape-rendering="geometricPrecision" text-rendering="geometricPrecision" width="30" height="30"><style><![CDATA[#evj62kaz6gbh4_tr {animation: evj62kaz6gbh4_tr__tr 2200ms linear infinite normal backwards}@keyframes evj62kaz6gbh4_tr__tr { 0% {transform: translate(15px,15px) rotate(195.321348deg)} 59.090909% {transform: translate(15px,15px) rotate(195.321348deg)} 63.636364% {transform: translate(15px,15px) rotate(172.045874deg)} 68.181818% {transform: translate(15px,15px) rotate(195.321348deg)} 81.818182% {transform: translate(15px,15px) rotate(40.525154deg)} 90.909091% {transform: translate(15px,15px) rotate(-35.657296deg)} 100% {transform: translate(15px,15px) rotate(-35.657296deg)} }#evj62kaz6gbh4 {animation: evj62kaz6gbh4_c_o 2200ms linear infinite normal backwards}@keyframes evj62kaz6gbh4_c_o { 0% {opacity: 0} 40.909091% {opacity: 0} 59.090909% {opacity: 0} 68.181818% {opacity: 1} 100% {opacity: 1} }#evj62kaz6gbh5_tr {animation: evj62kaz6gbh5_tr__tr 2200ms linear infinite normal backwards}@keyframes evj62kaz6gbh5_tr__tr { 0% {transform: translate(15px,15px) rotate(-38.200000deg)} 40.909091% {transform: translate(15px,15px) rotate(-38.200000deg)} 45.454545% {transform: translate(15px,15px) rotate(-38.200000deg)} 46.818182% {transform: translate(15px,15px) rotate(-38.200000deg)} 49.545455% {transform: translate(15px,15px) rotate(-38.200000deg)} 50% {transform: translate(15px,15px) rotate(-398.202910deg)} 77.272727% {transform: translate(15px,15px) rotate(-447.435791deg)} 90.909091% {transform: translate(15px,15px) rotate(-398.202910deg)} 100% {transform: translate(15px,15px) rotate(-398.202910deg)} }#evj62kaz6gbh5 {animation: evj62kaz6gbh5_c_o 2200ms linear infinite normal backwards}@keyframes evj62kaz6gbh5_c_o { 0% {opacity: 0} 40.909091% {opacity: 0} 50% {opacity: 1} 100% {opacity: 1} }#evj62kaz6gbh6_tr {animation: evj62kaz6gbh6_tr__tr 2200ms linear infinite normal backwards}@keyframes evj62kaz6gbh6_tr__tr { 0% {transform: translate(15px,15px) rotate(-38.200000deg)} 40.909091% {transform: translate(15px,15px) rotate(-38.200000deg)} 45.454545% {transform: translate(15px,15px) rotate(-38.200000deg)} 45.909091% {transform: translate(15px,15px) rotate(-38.200000deg)} 46.363636% {transform: translate(15px,15px) rotate(-38.200000deg)} 46.818182% {transform: translate(15px,15px) rotate(-38.200000deg)} 47.727273% {transform: translate(15px,15px) rotate(-38.200000deg)} 48.636364% {transform: translate(15px,15px) rotate(-38.200000deg)} 49.545455% {transform: translate(15px,15px) rotate(-38.200000deg)} 50% {transform: translate(15px,15px) rotate(-398.202910deg)} 63.636364% {transform: translate(15px,15px) rotate(-449.211842deg)} 77.272727% {transform: translate(15px,15px) rotate(-449.211842deg)} 90.909091% {transform: translate(15px,15px) rotate(-394.738056deg)} 100% {transform: translate(15px,15px) rotate(-394.738056deg)} }#evj62kaz6gbh6 {animation: evj62kaz6gbh6_c_o 2200ms linear infinite normal backwards}@keyframes evj62kaz6gbh6_c_o { 0% {opacity: 0} 40.909091% {opacity: 0} 50% {opacity: 1} 100% {opacity: 1} }#evj62kaz6gbh7_tr {animation: evj62kaz6gbh7_tr__tr 2200ms linear infinite normal backwards}@keyframes evj62kaz6gbh7_tr__tr { 0% {transform: translate(15px,15px) rotate(51.870000deg)} 40.909091% {transform: translate(15px,15px) rotate(51.870000deg)} 50% {transform: translate(15px,15px) rotate(51.870863deg)} 63.636364% {transform: translate(15px,15px) rotate(-37.454075deg)} 100% {transform: translate(15px,15px) rotate(-37.454075deg)} }#evj62kaz6gbh7 {animation: evj62kaz6gbh7_c_o 2200ms linear infinite normal backwards}@keyframes evj62kaz6gbh7_c_o { 0% {opacity: 0} 40.909091% {opacity: 0} 50% {opacity: 1} 100% {opacity: 1} }#evj62kaz6gbh8_tr {animation: evj62kaz6gbh8_tr__tr 2200ms linear infinite normal backwards}@keyframes evj62kaz6gbh8_tr__tr { 0% {transform: translate(15px,15px) rotate(141.366797deg)} 54.545455% {transform: translate(15px,15px) rotate(141.366797deg)} 63.636364% {transform: translate(15px,15px) rotate(55.657940deg)} 77.272727% {transform: translate(15px,15px) rotate(-35.408613deg)} 100% {transform: translate(15px,15px) rotate(-35.408613deg)} }#evj62kaz6gbh8 {animation: evj62kaz6gbh8_c_o 2200ms linear infinite normal backwards}@keyframes evj62kaz6gbh8_c_o { 0% {opacity: 0} 40.909091% {opacity: 0} 54.545455% {opacity: 0} 63.636364% {opacity: 1} 100% {opacity: 1} }#evj62kaz6gbh9_to {animation: evj62kaz6gbh9_to__to 2200ms linear infinite normal backwards}@keyframes evj62kaz6gbh9_to__to { 0% {transform: translate(-1px,-1px)} 9.090909% {transform: translate(-1px,-1px)} 13.636364% {transform: translate(0px,0px)} 100% {transform: translate(0px,0px)} }#evj62kaz6gbh9 {animation: evj62kaz6gbh9_c_o 2200ms linear infinite normal backwards}@keyframes evj62kaz6gbh9_c_o { 0% {opacity: 0} 13.636364% {opacity: 1} 100% {opacity: 1} }#evj62kaz6gbh10_to {animation: evj62kaz6gbh10_to__to 2200ms linear infinite normal backwards}@keyframes evj62kaz6gbh10_to__to { 0% {transform: translate(-0.996978px,-0.996979px)} 13.636364% {transform: translate(-0.996978px,-0.996979px)} 22.727273% {transform: translate(0px,0px)} 100% {transform: translate(0px,0px)} }#evj62kaz6gbh10 {animation: evj62kaz6gbh10_c_o 2200ms linear infinite normal backwards}@keyframes evj62kaz6gbh10_c_o { 0% {opacity: 0} 13.636364% {opacity: 1} 100% {opacity: 1} }#evj62kaz6gbh11 {animation: evj62kaz6gbh11_c_o 2200ms linear infinite normal backwards}@keyframes evj62kaz6gbh11_c_o { 0% {opacity: 0} 13.636364% {opacity: 0} 22.727273% {opacity: 1} 100% {opacity: 1} }#evj62kaz6gbh12_to {animation: evj62kaz6gbh12_to__to 2200ms linear infinite normal backwards}@keyframes evj62kaz6gbh12_to__to { 0% {transform: translate(0px,0px)} 22.727273% {transform: translate(0px,0px)} 31.818182% {transform: translate(1.434531px,-1.470055px)} 40.909091% {transform: translate(0px,-0.000055px)} 100% {transform: translate(0px,-0.000055px)} }#evj62kaz6gbh12 {animation: evj62kaz6gbh12_c_o 2200ms linear infinite normal backwards}@keyframes evj62kaz6gbh12_c_o { 0% {opacity: 0} 13.636364% {opacity: 0} 22.727273% {opacity: 1} 100% {opacity: 1} }]]></style><defs><clipPath id="evj62kaz6gbh2"><rect id="evj62kaz6gbh3" width="30" height="30" rx="0" ry="0" fill="rgb(255,255,255)" stroke="none" stroke-width="1"/></clipPath></defs><g id="evj62kaz6gbh4_tr" transform="translate(15,15) rotate(195.321348)"><path id="evj62kaz6gbh4" d="M25.606600,25.606500C28.440100,22.773000,30,19.006500,30,15C30,14.700000,29.625100,14.400000,29.250000,14.400000C28.874900,14.400000,28.500000,14.700000,28.500000,15C28.500000,22.444500,22.444500,28.500000,15,28.500000C14.700000,28.500000,14.400000,28.874900,14.400000,29.250000C14.400000,29.625100,14.700000,30,15,30C19.006500,30,22.773100,28.440000,25.606600,25.606500Z" transform="translate(-15,-15)" opacity="0" fill="#00CCB1" stroke="none" stroke-width="1"/></g><g id="evj62kaz6gbh5_tr" transform="translate(15,15) rotate(-38.200000)"><path id="evj62kaz6gbh5" d="M25.606500,4.393430C22.773000,1.559930,19.006500,0,15,0C14.700000,0,14.400000,0.374914,14.400000,0.750000C14.400000,1.125090,14.700000,1.500000,15,1.500000C22.444500,1.500000,28.500000,7.555500,28.500000,15C28.500000,15.300000,28.874900,15.600000,29.250000,15.600000C29.625100,15.600000,30,15.300000,30,15C30,10.993500,28.440000,7.226930,25.606500,4.393430Z" transform="translate(-15,-15)" opacity="0" fill="#00CCB1" stroke="none" stroke-width="1"/></g><g id="evj62kaz6gbh6_tr" transform="translate(15,15) rotate(-38.200000)"><path id="evj62kaz6gbh6" d="M25.606500,4.393430C22.773000,1.559930,19.006500,0,15,0C14.700000,0,14.400000,0.374914,14.400000,0.750000C14.400000,1.125090,14.700000,1.500000,15,1.500000C22.444500,1.500000,28.500000,7.555500,28.500000,15C28.500000,15.300000,28.874900,15.600000,29.250000,15.600000C29.625100,15.600000,30,15.300000,30,15C30,10.993500,28.440000,7.226930,25.606500,4.393430Z" transform="translate(-15,-15)" opacity="0" fill="#00CCB1" stroke="none" stroke-width="1"/></g><g id="evj62kaz6gbh7_tr" transform="translate(15,15) rotate(51.870000)"><path id="evj62kaz6gbh7" d="M4.393430,4.393500C1.559930,7.227000,0,10.993500,0,15C0,15.300000,0.374914,15.600000,0.750000,15.600000C1.125090,15.600000,1.500000,15.300000,1.500000,15C1.500000,7.555500,7.555500,1.500000,15,1.500000C15.300000,1.500000,15.600000,1.125090,15.600000,0.750000C15.600000,0.374914,15.300000,0,15,0C10.993500,0,7.226930,1.560000,4.393430,4.393500Z" transform="translate(-15,-15)" opacity="0" fill="#00CCB1" stroke="none" stroke-width="1"/></g><g id="evj62kaz6gbh8_tr" transform="translate(15,15) rotate(141.366797)"><path id="evj62kaz6gbh8" d="M4.393500,25.606600C7.227000,28.440100,10.993500,30,15,30C15.300000,30,15.600000,29.625100,15.600000,29.250000C15.600000,28.874900,15.300000,28.500000,15,28.500000C7.555500,28.500000,1.500000,22.444500,1.500000,15C1.500000,14.700000,1.125090,14.400000,0.750000,14.400000C0.374914,14.400000,0,14.700000,0,15C0,19.006500,1.560000,22.773100,4.393500,25.606600Z" transform="translate(-15,-15)" opacity="0" fill="#00CCB1" stroke="none" stroke-width="1"/></g><g id="evj62kaz6gbh9_to" transform="translate(-1,-1)"><path id="evj62kaz6gbh9" d="M12.850000,21.093900L6.431090,14.634900C6.204140,14.407900,6.257540,13.986200,6.550280,13.693400C6.843030,13.400700,7.264800,13.347300,7.491750,13.574200L13.950700,19.971300C14.177700,20.198200,14.243500,20.801100,13.950700,21.093900C13.658000,21.386600,13.076900,21.320800,12.850000,21.093900Z" transform="translate(0,0)" opacity="0" fill="#00CCB1" stroke="none" stroke-width="1"/></g><g id="evj62kaz6gbh10_to" transform="translate(-0.996978,-0.996979)"><path id="evj62kaz6gbh10" d="M12.850000,21.093900L6.431090,14.634900C6.204140,14.407900,6.257540,13.986200,6.550280,13.693400C6.843030,13.400700,7.264800,13.347300,7.491750,13.574200L13.950700,19.971300C14.177700,20.198200,14.243500,20.801100,13.950700,21.093900C13.658000,21.386600,13.076900,21.320800,12.850000,21.093900Z" transform="translate(0,0)" opacity="0" fill="#00CCB1" stroke="none" stroke-width="1"/></g><path id="evj62kaz6gbh11" d="M13.015400,19.940800L23.312600,9.643560C23.667900,9.288300,24.193800,9.237570,24.486500,9.530310C24.779300,9.823050,24.728500,10.349000,24.373300,10.704200L14.076000,21.001500C13.720800,21.356700,13.194900,21.407500,12.902100,21.114700C12.609400,20.822000,12.660100,20.296100,13.015400,19.940800Z" opacity="0" fill="#00CCB1" stroke="none" stroke-width="1"/><g id="evj62kaz6gbh12_to" transform="translate(0,0)"><path id="evj62kaz6gbh12" d="M13.015400,19.940800L23.312600,9.643560C23.667900,9.288300,24.193800,9.237570,24.486500,9.530310C24.779300,9.823050,24.728500,10.349000,24.373300,10.704200L14.076000,21.001500C13.720800,21.356700,13.194900,21.407500,12.902100,21.114700C12.609400,20.822000,12.660100,20.296100,13.015400,19.940800Z" transform="translate(0,0)" opacity="0" fill="#00CCB1" stroke="none" stroke-width="1"/></g></svg>
