<svg data-icon viewBox="0 0 30 30" fill="none" xmlns="http://www.w3.org/2000/svg">
  <style>
    [data-warning] {
  animation: opacity 2s linear forwards;
}


[data-stroke] {
  fill: none;
  stroke: #343434;
  stroke-width: 1.5;
  stroke-miterlimit: 5;
  stroke-dasharray: 90;
  stroke-dashoffset: 0;
  animation: dash 2s ease-in-out forwards;
}

@keyframes dash {
  0% {stroke-dashoffset: 90;}
  100% {stroke-dashoffset: 0;}
}

@keyframes opacity {
  0% {opacity: 0}
  70% {opacity: 0}
  80% {opacity: 0.5}
  90% {opacity: 1}
  100% {opacity: 1}
}
  </style>
<path data-stroke d="M14.1391 5.95694C14.5261 5.30191 15.4739 5.30191 15.8609 5.95694L27.1085 24.9913C27.5024 25.6579 27.0218 26.5 26.2475 26.5H3.75244C2.97814 26.5 2.4976 25.6579 2.89151 24.9913L14.1391 5.95694Z"/>
  <g data-warning fill="#343434">
<path d="M15 20.25C14.586 20.25 14.25 19.914 14.25 19.5V12C14.25 11.586 14.586 11.25 15 11.25C15.414 11.25 15.75 11.586 15.75 12V19.5C15.75 19.914 15.414 20.25 15 20.25Z"/>
<path d="M15 24.75C14.586 24.75 14.25 24.414 14.25 24V22.5C14.25 22.086 14.586 21.75 15 21.75C15.414 21.75 15.75 22.086 15.75 22.5V24C15.75 24.414 15.414 24.75 15 24.75Z"/>
  </g>
</svg>
