<svg width="30" height="30" viewBox="0 0 30 30" fill="none" xmlns="http://www.w3.org/2000/svg">
<path d="M15 30C10.9926 30 7.22684 28.44 4.39263 25.6074C1.55842 22.7747 0 19.0074 0 15.0016C0 10.9942 1.56 7.22842 4.39263 4.39421C7.22526 1.56 10.9926 0 15 0C19.0074 0 22.7732 1.56 25.6074 4.39421C28.4416 7.22842 30 10.9942 30 15.0016C30 19.0089 28.44 22.7747 25.6074 25.6074C22.7747 28.44 19.0074 30 15 30ZM15 1.5C7.59947 1.5 1.5 7.59947 1.5 15C1.5 22.4005 7.59947 28.5 15 28.5C22.4005 28.5 28.5 22.4005 28.5 15C28.5 7.59947 22.4005 1.5 15 1.5Z" fill="#343434"/>
<path d="M24.2308 14H5.76923C5.34462 14 5 14.352 5 14.7857C5 20.4177 9.48615 25 15 25C20.5138 25 25 20.4177 25 14.7857C25 14.352 24.6554 14 24.2308 14ZM14.2308 23.3924C13.1308 23.2903 12.0923 22.9744 11.1538 22.4826V15.5H14.2308V23.3924ZM15.7692 15.5H18.8462V22.4826C17.9077 22.9744 16.8692 23.2903 15.7692 23.3924V15.5ZM6.57385 15.5H9.61538V21.447C7.92308 20.017 6.78154 17.8587 6.57231 15.5H6.57385ZM20.3846 21.447V15.5H23.4262C23.2169 17.8587 22.0769 20.0186 20.3846 21.447Z" fill="#343434"/>
<path d="M12.9038 7.914C12.902 7.911 12.8968 7.9035 12.8915 7.893V7.8915C12.7533 7.6665 11.6562 6 9.49878 6C7.23462 6 6.13753 7.836 6.09204 7.914C5.87682 8.2845 6.05179 8.7345 6.48398 8.9205C6.60996 8.9745 6.74294 9 6.87417 9C7.19437 9 7.50408 8.8485 7.65805 8.5845C7.66505 8.574 8.3247 7.4985 9.50053 7.4985C10.6746 7.4985 11.3378 8.577 11.3447 8.5875L11.343 8.583C11.4865 8.829 11.7822 8.9985 12.1251 8.9985C12.6081 8.9985 13 8.6625 13 8.2485C13 8.1285 12.9668 8.0145 12.9073 7.914H12.9038Z" fill="#343434"/>
<path d="M23.9055 7.914C23.9038 7.911 23.8985 7.9035 23.8933 7.893C23.8933 7.8915 23.8915 7.8915 23.8915 7.8915C23.7515 7.665 22.6545 6 20.4988 6C18.2346 6 17.1375 7.836 17.092 7.914C16.8768 8.2845 17.0518 8.7345 17.484 8.9205C17.61 8.9745 17.7429 9 17.8742 9C18.1944 9 18.5041 8.8485 18.6581 8.5845C18.6651 8.574 19.3247 7.4985 20.5005 7.4985C21.6746 7.4985 22.3377 8.577 22.3447 8.5875L22.343 8.583C22.4865 8.829 22.7822 8.9985 23.1251 8.9985C23.6081 8.9985 24 8.6625 24 8.2485C24 8.1285 23.9668 8.0145 23.9073 7.914H23.9055Z" fill="#343434"/>
</svg>
