<svg width="30" height="30" viewBox="0 0 30 30" fill="none" xmlns="http://www.w3.org/2000/svg">
<path d="M15 30C10.9926 30 7.22684 28.44 4.39263 25.6074C1.55842 22.7747 0 19.0074 0 15.0016C0 10.9942 1.56 7.22842 4.39263 4.39421C7.22526 1.56 10.9926 0 15 0C19.0074 0 22.7732 1.56 25.6074 4.39421C28.4416 7.22842 30 10.9942 30 15.0016C30 19.0089 28.44 22.7747 25.6074 25.6074C22.7747 28.44 19.0074 30 15 30ZM15 1.5C7.59947 1.5 1.5 7.59947 1.5 15C1.5 22.4005 7.59947 28.5 15 28.5C22.4005 28.5 28.5 22.4005 28.5 15C28.5 7.59947 22.4005 1.5 15 1.5Z" fill="#343434"/>
<path d="M10.5 11C9.12167 11 8 9.87833 8 8.5C8 7.12167 9.12167 6 10.5 6C11.8783 6 13 7.12167 13 8.5C13 9.87833 11.8783 11 10.5 11ZM10.5 7.5C10.04 7.5 9.5 8.04 9.5 8.5C9.5 8.96 10.04 9.5 10.5 9.5C10.96 9.5 11.5 8.96 11.5 8.5C11.5 8.04 10.96 7.5 10.5 7.5Z" fill="#343434"/>
<path d="M19.5 11C18.1217 11 17 9.87833 17 8.5C17 7.12167 18.1217 6 19.5 6C20.8783 6 22 7.12167 22 8.5C22 9.87833 20.8783 11 19.5 11ZM19.5 7.5C19.04 7.5 18.5 8.04 18.5 8.5C18.5 8.96 19.04 9.5 19.5 9.5C19.96 9.5 20.5 8.96 20.5 8.5C20.5 8.04 19.96 7.5 19.5 7.5Z" fill="#343434"/>
<path d="M8.77701 21.9983C8.61369 21.9983 8.45038 21.9433 8.31039 21.8317C7.96664 21.555 7.8982 21.0333 8.1564 20.665C8.93722 19.5517 9.95913 18.63 11.1132 17.9983C12.3234 17.335 13.6315 17 15.0002 17C16.369 17 17.6771 17.3367 18.8872 17.9983C20.0413 18.63 21.0632 19.5517 21.8441 20.665C22.1023 21.0333 22.0323 21.555 21.6901 21.8317C21.3479 22.1083 20.8595 22.0333 20.6013 21.6667C19.2652 19.76 17.2229 18.5 15.0002 18.5C12.7775 18.5 10.7368 19.76 9.39918 21.6667C9.24675 21.885 9.01344 22 8.77701 22V21.9983Z" fill="#343434"/>
</svg>
