<svg width="30" height="30" viewBox="0 0 30 30" fill="none" xmlns="http://www.w3.org/2000/svg">
<path d="M15 30C10.9926 30 7.22684 28.44 4.39263 25.6074C1.55842 22.7747 0 19.0074 0 15.0016C0 10.9942 1.56 7.22842 4.39263 4.39421C7.22526 1.56 10.9926 0 15 0C19.0074 0 22.7732 1.56 25.6074 4.39421C28.4416 7.22842 30 10.9942 30 15.0016C30 19.0089 28.44 22.7747 25.6074 25.6074C22.7747 28.44 19.0074 30 15 30ZM15 1.5C7.59947 1.5 1.5 7.59947 1.5 15C1.5 22.4005 7.59947 28.5 15 28.5C22.4005 28.5 28.5 22.4005 28.5 15C28.5 7.59947 22.4005 1.5 15 1.5Z" fill="#343434"/>
<path d="M19.5 11C18.1217 11 17 9.87833 17 8.5C17 7.12167 18.1217 6 19.5 6C20.8783 6 22 7.12167 22 8.5C22 9.87833 20.8783 11 19.5 11ZM19.5 7.5C19.04 7.5 18.5 8.04 18.5 8.5C18.5 8.96 19.04 9.5 19.5 9.5C19.96 9.5 20.5 8.96 20.5 8.5C20.5 8.04 19.96 7.5 19.5 7.5Z" fill="#343434"/>
<path d="M15 25C9.48615 25 5 20.4177 5 14.7857C5 14.352 5.34462 14 5.76923 14C6.19385 14 6.53846 14.352 6.53846 14.7857C6.53846 19.5519 10.3338 23.4286 15 23.4286C19.6662 23.4286 23.4615 19.5519 23.4615 14.7857C23.4615 14.352 23.8062 14 24.2308 14C24.6554 14 25 14.352 25 14.7857C25 20.4177 20.5138 25 15 25Z" fill="#343434"/>
<path d="M12.5177 8.07888C12.0854 7.89443 11.5603 8.04439 11.3433 8.41478C11.3363 8.42527 10.6765 9.50045 9.50035 9.50045C8.32598 9.50045 7.66267 8.42227 7.65567 8.41178L7.65742 8.41628C7.5139 8.17035 7.21812 8.0009 6.87509 8.0009C6.39204 8.0009 6 8.3368 6 8.75068C6 8.87064 6.03325 8.98461 6.09276 9.08508C6.09451 9.08807 6.09801 9.09407 6.10326 9.10157C6.10501 9.10457 6.10676 9.10757 6.10851 9.11057C6.25377 9.346 7.35113 11 9.50035 11C11.7651 11 12.8624 9.16455 12.9079 9.08657C13.1232 8.71619 12.9482 8.26632 12.5159 8.08038L12.5177 8.07888Z" fill="#343434"/>
</svg>
