<svg width="30" height="30" viewBox="0 0 30 30" fill="none" xmlns="http://www.w3.org/2000/svg">
<path d="M12.5295 10.281C12.585 10.2255 12.633 10.161 12.6705 10.086C12.855 9.71551 12.705 9.26551 12.3345 9.07951L9.3345 7.57951C8.964 7.39501 8.514 7.54501 8.328 7.91551C8.142 8.28601 8.2935 8.73601 8.664 8.92201L9.399 9.28951C8.7135 9.67501 8.2485 10.41 8.2485 11.2515C8.2485 12.492 9.258 13.5015 10.4985 13.5015C11.739 13.5015 12.7485 12.492 12.7485 11.2515C12.7485 10.905 12.669 10.575 12.528 10.2825L12.5295 10.281ZM10.5 12C10.086 12 9.75 11.664 9.75 11.25C9.75 10.836 10.086 10.5 10.5 10.5C10.914 10.5 11.25 10.836 11.25 11.25C11.25 11.664 10.914 12 10.5 12Z" fill="#343434"/>
<path d="M20.5995 9.28805L21.3345 8.92055C21.705 8.73605 21.855 8.28455 21.6705 7.91405C21.486 7.54355 21.0345 7.39355 20.664 7.57805L17.664 9.07805C17.2935 9.26255 17.1435 9.71405 17.328 10.0845C17.3655 10.158 17.4135 10.224 17.469 10.2795C17.328 10.5735 17.2485 10.902 17.2485 11.2485C17.2485 12.489 18.258 13.4985 19.4985 13.4985C20.739 13.4985 21.7485 12.489 21.7485 11.2485C21.7485 10.407 21.2835 9.67355 20.598 9.28655L20.5995 9.28805ZM19.5 12C19.086 12 18.75 11.664 18.75 11.25C18.75 10.836 19.086 10.5 19.5 10.5C19.914 10.5 20.25 10.836 20.25 11.25C20.25 11.664 19.914 12 19.5 12Z" fill="#343434"/>
<path d="M27.1695 8.32816C27.7365 7.47916 28.23 6.08716 28.6695 4.10416C29.0475 2.39716 29.2365 0.906156 29.244 0.843156C29.286 0.510156 29.1 0.189156 28.791 0.0586558C28.482 -0.0718442 28.122 0.0196558 27.9135 0.282156C27.1785 1.20616 25.083 3.58966 23.5935 4.38016C21.132 2.51116 18.144 1.50016 15 1.50016C11.856 1.50016 8.868 2.51266 6.4065 4.38016C4.9185 3.58966 2.823 1.20616 2.0865 0.282156C1.8765 0.0196558 1.518 -0.0718442 1.209 0.0586558C0.9 0.189156 0.714 0.510156 0.756 0.843156C0.7635 0.906156 0.9525 2.39716 1.3305 4.10416C1.77 6.08716 2.2635 7.47916 2.8305 8.32816C1.476 10.5407 0.75 13.0892 0.75 15.7502C0.75 19.5572 2.232 23.1347 4.9245 25.8257C7.617 28.5167 11.1945 29.9987 15 29.9987C18.8055 29.9987 22.3845 28.5167 25.0755 25.8257C27.7665 23.1347 29.2485 19.5557 29.2485 15.7502C29.2485 13.0892 28.524 10.5407 27.168 8.32816H27.1695ZM27.3285 3.21016C27.0435 4.60066 26.6595 6.03166 26.22 6.96166C25.8675 6.51316 25.4865 6.08266 25.0755 5.67316C24.984 5.58166 24.891 5.49166 24.7965 5.40166C25.6695 4.82866 26.574 3.98866 27.327 3.20866L27.3285 3.21016ZM2.6715 3.21166C3.4245 3.99166 4.329 4.83016 5.202 5.40316C5.1075 5.49166 5.016 5.58166 4.923 5.67466C4.5135 6.08416 4.1325 6.51466 3.7785 6.96316C3.3405 6.03316 2.9565 4.60216 2.67 3.21166H2.6715ZM15 28.5002C7.9695 28.5002 2.25 22.7807 2.25 15.7502C2.25 8.71966 7.9695 3.00016 15 3.00016C22.0305 3.00016 27.75 8.71966 27.75 15.7502C27.75 22.7807 22.0305 28.5002 15 28.5002Z" fill="#343434"/>
<path d="M15 24.0001C13.68 24.0001 12.4185 23.6971 11.2515 23.1016C10.1385 22.5331 9.15302 21.7021 8.40002 20.7016C8.15102 20.3701 8.21852 19.9006 8.54852 19.6516C8.87852 19.4026 9.34952 19.4701 9.59852 19.8001C10.887 21.5161 12.8565 22.5001 15 22.5001C17.1435 22.5001 19.1115 21.5161 20.4015 19.8001C20.6505 19.4686 21.12 19.4026 21.4515 19.6516C21.783 19.9006 21.849 20.3701 21.6 20.7016C20.847 21.7036 19.8615 22.5331 18.7485 23.1016C17.5815 23.6986 16.32 24.0001 15 24.0001V24.0001Z" fill="#343434"/>
</svg>
