<svg width="30" height="30" viewBox="0 0 30 30" fill="none" xmlns="http://www.w3.org/2000/svg">
  <path d="M22.75 0C19.0285 0 16 3.0285 16 6.75V12H2.25C1.0095 12 0 13.0095 0 14.25V27.75C0 28.9905 1.0095 30 2.25 30H19.75C20.9905 30 22 28.9905 22 27.75V14.25C22 13.0095 20.9905 12 19.75 12H17.5V6.75C17.5 3.855 19.855 1.5 22.75 1.5C25.645 1.5 28.5 3.855 28.5 6.75V9.75C28.5 10.164 28.836 10.5 29.25 10.5C29.664 10.5 30 10.164 30 9.75V6.75C30 3.0285 26.4715 0 22.75 0ZM19.75 13.5C20.164 13.5 20.5 13.836 20.5 14.25V27.75C20.5 28.164 20.164 28.5 19.75 28.5H2.25C1.836 28.5 1.5 28.164 1.5 27.75V14.25C1.5 13.836 1.836 13.5 2.25 13.5H19.75Z" fill="#343434"/>
</svg>
