<svg width="30" height="30" viewBox="0 0 30 30" fill="none" xmlns="http://www.w3.org/2000/svg">
<path d="M14.4706 0.238768L5.4694 9.96784C5.17687 10.284 5.17687 10.7981 5.4694 11.1142C5.76194 11.4304 6.23751 11.4304 6.53005 11.1142L14.2501 2.76995V29.1892C14.2501 29.6368 14.5861 30 15.0002 30C15.4142 30 15.7503 29.6368 15.7503 29.1892V2.76995L23.4703 11.1142C23.7629 11.4304 24.2384 11.4304 24.531 11.1142C24.678 10.9553 24.75 10.7478 24.75 10.5402C24.75 10.3327 24.6765 10.1251 24.531 9.96622L15.5298 0.237146C15.2372 -0.0790487 14.7617 -0.0790487 14.4691 0.237146L14.4706 0.238768Z" fill="#343434"/>
</svg>
