<svg width="30" height="30" viewBox="0 0 30 30" fill="none" xmlns="http://www.w3.org/2000/svg">
  <path d="M11 14V16C11 19.3137 13.6863 22 17 22H24C27.3137 22 30 19.3137 30 16V14C30 10.6863 27.3137 8 24 8H19.75C19.3358 8 19 8.33579 19 8.75C19 9.16421 19.3358 9.5 19.75 9.5H24C26.4853 9.5 28.5 11.5147 28.5 14V16C28.5 18.4853 26.4853 20.5 24 20.5H17C14.5147 20.5 12.5 18.4853 12.5 16V14H11Z" fill="#343434"/>
  <path d="M19 16V14C19 10.6863 16.3137 8 13 8H6C2.68629 8 0 10.6863 0 14V16C0 19.3137 2.68629 22 6 22H10.25C10.6642 22 11 21.6642 11 21.25C11 20.8358 10.6642 20.5 10.25 20.5H6C3.51472 20.5 1.5 18.4853 1.5 16V14C1.5 11.5147 3.51472 9.5 6 9.5H13C15.4853 9.5 17.5 11.5147 17.5 14V16H19Z" fill="#343434"/>
</svg>
