<svg width="30" height="30" viewBox="0 0 30 30" fill="none" xmlns="http://www.w3.org/2000/svg">
<path d="M15.5294 29.7612L24.5306 20.0322C24.8231 19.716 24.8231 19.2019 24.5306 18.8858C24.2381 18.5696 23.7625 18.5696 23.47 18.8858L15.7499 27.2301V0.810756C15.7499 0.363219 15.4139 0 14.9998 0C14.5858 0 14.2497 0.363219 14.2497 0.810756V27.2301L6.52967 18.8858C6.23713 18.5696 5.76157 18.5696 5.46903 18.8858C5.32201 19.0447 5.25 19.2522 5.25 19.4598C5.25 19.6673 5.32351 19.8749 5.46903 20.0338L14.4702 29.7629C14.7628 30.0791 15.2383 30.0791 15.5309 29.7629L15.5294 29.7612Z" fill="#343434"/>
</svg>
