<svg width="30" height="30" viewBox="0 0 30 30" fill="none" xmlns="http://www.w3.org/2000/svg">
  <path d="M18.75 26.25C18.75 28.317 17.067 30 15 30C12.933 30 11.25 28.317 11.25 26.25C11.25 24.183 12.933 22.5 15 22.5C17.067 22.5 18.75 24.183 18.75 26.25Z" fill="#343434"/>
  <path d="M18.75 15C18.75 17.067 17.067 18.75 15 18.75C12.933 18.75 11.25 17.067 11.25 15C11.25 12.933 12.933 11.25 15 11.25C17.067 11.25 18.75 12.933 18.75 15Z" fill="#343434"/>
  <path d="M18.75 3.75C18.75 5.817 17.067 7.5 15 7.5C12.933 7.5 11.25 5.817 11.25 3.75C11.25 1.683 12.933 0 15 0C17.067 0 18.75 1.683 18.75 3.75Z" fill="#343434"/>
</svg>
