<svg width="30" height="30" viewBox="0 0 30 30" fill="none" xmlns="http://www.w3.org/2000/svg">
  <path d="M26.75 11.25H24.75V7C24.75 3.2785 20.72 0 15 0C9.28 0 5.25 3.2785 5.25 7V11.25H3.25C2.0095 11.25 1 12.2595 1 13.5V27.75C1 28.9905 2.0095 30 3.25 30H26.75C27.9905 30 29 28.9905 29 27.75V13.5C29 12.2595 27.9905 11.25 26.75 11.25ZM6.75 7C6.75 4.105 10.11 1.5 15 1.5C19.89 1.5 23.25 4.105 23.25 7V11.25H6.75V7ZM27.5 27.75C27.5 28.164 27.164 28.5 26.75 28.5H3.25C2.836 28.5 2.5 28.164 2.5 27.75V13.5C2.5 13.086 2.836 12.75 3.25 12.75H26.75C27.164 12.75 27.5 13.086 27.5 13.5V27.75Z" fill="#343434"/>
</svg>
