<svg width="30" height="30" viewBox="0 0 30 30" fill="none" xmlns="http://www.w3.org/2000/svg">
<path d="M27.709 17.3684H25.3027C25.2042 15.6332 24.7785 13.9689 24.0622 12.4705C25.7077 11.9889 26.9133 10.4747 26.9133 8.68421C26.9133 8.24842 26.5575 7.89474 26.1191 7.89474C25.6807 7.89474 25.3249 8.24842 25.3249 8.68421C25.3249 9.88579 24.4196 10.8821 23.2506 11.0321C22.9742 10.6121 22.6708 10.2095 22.3436 9.82895C22.1721 9.63 21.9958 9.44053 21.8147 9.25737C22.0371 8.56421 22.1483 7.84263 22.1483 7.10526C22.1483 3.18789 18.9414 0 15.0008 0C11.0602 0 7.85332 3.18789 7.85332 7.10526C7.85332 7.84263 7.96609 8.56421 8.18686 9.25737C8.00579 9.44053 7.82949 9.63 7.65795 9.82895C7.32917 10.2095 7.02738 10.6121 6.75101 11.0321C5.582 10.8821 4.67666 9.88579 4.67666 8.68421C4.67666 8.24842 4.32087 7.89474 3.88249 7.89474C3.44411 7.89474 3.08833 8.24842 3.08833 8.68421C3.08833 10.4747 4.29387 11.9889 5.93938 12.4705C5.22304 13.9689 4.79896 15.6332 4.69889 17.3684H2.29416C1.85579 17.3684 1.5 17.7221 1.5 18.1579C1.5 18.5937 1.85579 18.9474 2.29416 18.9474H4.70048C4.79896 20.6826 5.22463 22.3468 5.94097 23.8453C4.29546 24.3268 3.08992 25.8411 3.08992 27.6316C3.08992 28.0674 3.4457 28.4211 3.88408 28.4211C4.32246 28.4211 4.67825 28.0674 4.67825 27.6316C4.67825 26.43 5.58359 25.4337 6.7526 25.2837C7.02897 25.7037 7.33234 26.1063 7.65954 26.4868C9.61318 28.7526 12.2196 30 15.0008 30C17.782 30 20.39 28.7526 22.3421 26.4868C22.6708 26.1063 22.9726 25.7037 23.249 25.2837C24.418 25.4337 25.3233 26.43 25.3233 27.6316C25.3233 28.0674 25.6791 28.4211 26.1175 28.4211C26.5559 28.4211 26.9117 28.0674 26.9117 27.6316C26.9117 25.8411 25.7061 24.3268 24.0606 23.8453C24.777 22.3468 25.201 20.6826 25.3011 18.9474H27.7058C28.1442 18.9474 28.5 18.5937 28.5 18.1579C28.5 17.7221 28.1442 17.3684 27.7058 17.3684H27.709ZM15.0024 1.57895C18.0679 1.57895 20.5615 4.05789 20.5615 7.10526C20.5615 7.44474 20.5314 7.77789 20.471 8.10632C18.8477 6.94105 16.9687 6.31579 15.0024 6.31579C13.036 6.31579 11.157 6.93947 9.53377 8.10632C9.47341 7.77789 9.44323 7.44474 9.44323 7.10526C9.44323 4.05789 11.9369 1.57895 15.0024 1.57895ZM6.26657 18.1579C6.26657 12.8132 9.76249 8.41105 14.2082 7.93737V28.3784C9.76249 27.9047 6.26657 23.5026 6.26657 18.1579ZM15.7965 28.3784V7.93737C20.2423 8.41105 23.7382 12.8132 23.7382 18.1579C23.7382 23.5026 20.2423 27.9047 15.7965 28.3784Z" fill="#343434"/>
</svg>
