<svg width="30" height="30" viewBox="0 0 30 30" fill="none" xmlns="http://www.w3.org/2000/svg">
<path d="M6.00058 14.2526C6.00058 14.0606 6.07408 13.8686 6.21958 13.7216L15.2196 4.72162C15.5121 4.42912 15.9876 4.42912 16.2801 4.72162C16.5726 5.01412 16.5726 5.48962 16.2801 5.78212L7.81108 14.2511L16.2801 22.7201C16.5726 23.0126 16.5726 23.4881 16.2801 23.7806C15.9876 24.0731 15.5121 24.0731 15.2196 23.7806L6.21958 14.7806C6.07258 14.6336 6.00058 14.4416 6.00058 14.2496V14.2526Z" fill="#343434"/>
<path d="M12.0011 14.2521C12.0011 14.0601 12.0746 13.8681 12.2201 13.7211L21.2201 4.72107C21.5126 4.42857 21.9881 4.42857 22.2806 4.72107C22.5731 5.01357 22.5731 5.48907 22.2806 5.78157L13.8116 14.2506L22.2806 22.7196C22.5731 23.0121 22.5731 23.4876 22.2806 23.7801C21.9881 24.0726 21.5126 24.0726 21.2201 23.7801L12.2201 14.7801C12.0731 14.6331 12.0011 14.4411 12.0011 14.2491V14.2521Z" fill="#343434"/>
</svg>
