<svg width="30" height="30" viewBox="0 0 30 30" fill="none" xmlns="http://www.w3.org/2000/svg">
  <path fill-rule="evenodd" clip-rule="evenodd" d="M25 2H5C3.34315 2 2 3.34315 2 5V25C2 26.6569 3.34315 28 5 28H25C26.6569 28 28 26.6569 28 25V5C28 3.34315 26.6569 2 25 2ZM5 0C2.23858 0 0 2.23858 0 5V25C0 27.7614 2.23858 30 5 30H25C27.7614 30 30 27.7614 30 25V5C30 2.23858 27.7614 0 25 0H5Z" fill="#343434"/>
  <path d="M6 8C6 6.89543 6.89543 6 8 6H22C23.1046 6 24 6.89543 24 8V22C24 23.1046 23.1046 24 22 24H8C6.89543 24 6 23.1046 6 22V8Z" fill="#343434"/>
</svg>
