<svg width="30" height="30" viewBox="0 0 30 30" fill="none" xmlns="http://www.w3.org/2000/svg">
<path d="M14.9996 21C14.3981 21 13.8341 20.766 13.4081 20.3415C12.5306 19.464 12.5306 18.0375 13.4081 17.16C14.0111 16.557 19.7861 12.564 20.9366 11.769C21.2351 11.5635 21.6371 11.5995 21.8921 11.856C22.1471 12.1125 22.1846 12.5145 21.9791 12.8115C21.1856 13.9635 17.1926 19.737 16.5881 20.34C16.1636 20.7645 15.5981 20.9985 14.9966 20.9985L14.9996 21ZM18.3581 15.3915C16.3406 16.809 14.7041 17.9865 14.4686 18.2205C14.1761 18.513 14.1761 18.9885 14.4686 19.281C14.6096 19.422 14.7986 19.5 14.9996 19.5C15.2006 19.5 15.3881 19.422 15.5306 19.281C15.7631 19.0455 16.9421 17.409 18.3581 15.3915Z" fill="#343434"/>
<path d="M25.6044 7.4528C22.772 4.5824 19.0048 3 14.9976 3C10.9905 3 7.22488 4.5808 4.3924 7.4528C1.55992 10.3248 0 14.1408 0 18.2C0 21.2224 0.873112 24.1424 2.52618 26.6448C2.67302 26.8672 2.91932 27 3.18299 27H26.817C27.0807 27 27.327 26.8672 27.4738 26.6448C29.1269 24.1424 30 21.2224 30 18.2C30 14.1392 28.4401 10.3232 25.6076 7.4528H25.6044ZM26.3844 25.4H3.60928C2.41724 23.4688 1.73044 21.2768 1.59939 19H2.36514C2.80091 19 3.15457 18.6416 3.15457 18.2C3.15457 17.7584 2.80091 17.4 2.36514 17.4H1.59939C1.99411 10.536 7.43329 5.024 14.2066 4.624V5.4C14.2066 5.8416 14.5603 6.2 14.9961 6.2C15.4318 6.2 15.7855 5.8416 15.7855 5.4V4.624C22.5588 5.024 27.998 10.536 28.3927 17.4H27.627C27.1912 17.4 26.8375 17.7584 26.8375 18.2C26.8375 18.6416 27.1912 19 27.627 19H28.3927C28.2617 21.2768 27.5749 23.4688 26.3828 25.4H26.3844Z" fill="#343434"/>
</svg>
