<svg width="30" height="30" viewBox="0 0 30 30" fill="none" xmlns="http://www.w3.org/2000/svg">
<path d="M14.25 16.5C9.7005 16.5 6 12.7995 6 8.25C6 3.7005 9.7005 0 14.25 0C18.7995 0 22.5 3.7005 22.5 8.25C22.5 12.7995 18.7995 16.5 14.25 16.5ZM14.25 1.5C10.5285 1.5 7.5 4.5285 7.5 8.25C7.5 11.9715 10.5285 15 14.25 15C17.9715 15 21 11.9715 21 8.25C21 4.5285 17.9715 1.5 14.25 1.5Z" fill="#343434"/>
<path d="M17.25 30H2.25C1.0095 30 0 28.9905 0 27.75C0 27.648 0.0210001 25.2225 1.8375 22.8C2.895 21.39 4.3425 20.2695 6.141 19.4715C8.337 18.495 11.0655 18 14.25 18C14.7765 18 15.297 18.0165 15.7965 18.0465C16.2105 18.072 16.524 18.429 16.4985 18.8415C16.473 19.254 16.116 19.5705 15.7035 19.5435C15.234 19.515 14.745 19.5 14.25 19.5C9.0195 19.5 5.16 20.9295 3.0885 23.634C1.536 25.6605 1.5015 27.732 1.5 27.753C1.5 28.164 1.836 28.5 2.25 28.5H17.25C17.664 28.5 18 28.836 18 29.25C18 29.664 17.664 30 17.25 30Z" fill="#343434"/>
<path d="M23.25 30C19.5285 30 16.5 26.9715 16.5 23.25C16.5 19.5285 19.5285 16.5 23.25 16.5C26.9715 16.5 30 19.5285 30 23.25C30 26.9715 26.9715 30 23.25 30ZM23.25 18C20.355 18 18 20.355 18 23.25C18 26.145 20.355 28.5 23.25 28.5C26.145 28.5 28.5 26.145 28.5 23.25C28.5 20.355 26.145 18 23.25 18Z" fill="#343434"/>
<path d="M26.25 24H20.25C19.836 24 19.5 23.664 19.5 23.25C19.5 22.836 19.836 22.5 20.25 22.5H26.25C26.664 22.5 27 22.836 27 23.25C27 23.664 26.664 24 26.25 24Z" fill="#343434"/>
</svg>
