<svg width="30" height="30" viewBox="0 0 30 30" fill="none" xmlns="http://www.w3.org/2000/svg">
  <path d="M28.4722 13.1888C29.1273 13.9553 29.5 15.2212 29.5 16.4272C29.5 17.2236 29.3299 17.9211 29.0075 18.4446C28.5875 19.1255 27.9161 19.5005 27.1175 19.5005H23.2457C25.3531 23.3868 25.8855 26.3147 24.8281 28.2106C24.0901 29.532 22.7384 30 21.8037 30C21.434 30 21.1205 29.7225 21.0717 29.3505C20.807 27.3721 19.3147 25.0112 16.978 22.8739C14.739 20.8265 11.9882 19.19 9.16051 18.2091C8.8041 18.9711 8.0395 19.499 7.15511 19.499H2.71837C1.49531 19.499 0.5 18.4896 0.5 17.2491V3.74981C0.5 2.50937 1.49531 1.49993 2.71837 1.49993H7.15511C8.09274 1.49993 8.89431 2.0924 9.21967 2.92785C12.1198 2.55887 13.2113 1.9679 14.2687 1.39493C15.5923 0.677966 16.8405 0 20.9282 0C21.993 0 22.9957 0.281986 23.7529 0.79346C24.4924 1.29294 24.9657 1.9949 25.1224 2.80786C25.7125 3.05085 26.236 3.61182 26.6368 4.44578C27.0273 5.25724 27.2802 6.29369 27.2802 7.08715C27.2802 7.23564 27.2713 7.37213 27.255 7.49813C27.6292 7.77711 27.9649 8.20759 28.2414 8.77456C28.6408 9.59202 28.8803 10.6165 28.8803 11.5134C28.8803 12.1494 28.7635 12.6789 28.5343 13.0898C28.515 13.1228 28.4958 13.1558 28.4766 13.1873L28.4722 13.1888ZM7.15215 3.00135H2.71541C2.30723 3.00135 1.97596 3.33733 1.97596 3.75131V17.2506C1.97596 17.6646 2.30723 18.0006 2.71541 18.0006H7.15215C7.56033 18.0006 7.89161 17.6646 7.89161 17.2506V3.75281V3.75131C7.89161 3.33733 7.56033 3.00135 7.15215 3.00135ZM27.6188 14.5898C27.3955 14.1338 27.1692 13.9688 27.0716 13.9688C26.6634 13.9688 26.3322 13.6328 26.3322 13.2188C26.3322 12.8049 26.6634 12.4689 27.0716 12.4689C27.1337 12.4689 27.1781 12.4689 27.2447 12.3519C27.3423 12.1764 27.3985 11.8719 27.3985 11.5149C27.3985 10.8475 27.2121 10.054 26.9134 9.44203C26.6206 8.84356 26.3233 8.62607 26.1932 8.62607C25.785 8.62607 25.4537 8.29009 25.4537 7.87611C25.4537 7.61062 25.5898 7.37663 25.7953 7.24314C25.8412 6.76766 25.6223 5.49573 25.0544 4.66627C24.8399 4.35278 24.6137 4.17279 24.4362 4.17279C24.028 4.17279 23.6967 3.83681 23.6967 3.42283C23.6967 2.10289 22.2592 1.50143 20.9238 1.50143C17.2073 1.50143 16.1661 2.0654 14.9608 2.71936C13.8339 3.32983 12.5679 4.0168 9.36904 4.42028V16.7002C12.4762 17.7336 15.5095 19.5155 17.9645 21.7594C20.3204 23.9133 21.8673 26.2412 22.3923 28.3981C22.7946 28.2676 23.2486 27.9916 23.54 27.4711C24.0339 26.5862 24.4037 24.3273 21.332 19.136C21.1944 18.9051 21.1915 18.6156 21.3231 18.3801C21.4547 18.1446 21.7002 17.9991 21.9664 17.9991H27.1175C27.4118 17.9991 27.6011 17.8941 27.7534 17.6481C27.9264 17.3676 28.0211 16.9327 28.0211 16.4257C28.0211 15.7897 27.8702 15.1027 27.6188 14.5883V14.5898Z" fill="#343434"/>
</svg>
