<svg width="30" height="30" viewBox="0 0 30 30" fill="none" xmlns="http://www.w3.org/2000/svg">
  <path d="M27.87 6.0105C27.462 5.943 27.0775 6.219 27.01 6.627L23.51 27.648C23.4335 28.1025 22.9605 28.5015 22.5 28.5015H7.5C7.0395 28.5015 6.565 28.1025 6.49 27.648L2.99 6.627C2.9225 6.219 2.538 5.943 2.13 6.0105C1.722 6.078 1.4425 6.465 1.51 6.873L5.01 27.894C5.2065 29.0745 6.3015 30 7.5 30H22.5C23.697 30 24.792 29.0745 24.99 27.894L28.49 6.873C28.5575 6.465 28.288 6.078 27.88 6.0105H27.87Z" fill="#343434"/>
  <path d="M29.25 3H19.125L17.1 0.3C16.959 0.111 16.7355 0 16.5 0H13.5C13.2645 0 13.041 0.111 12.9 0.3L10.875 3H0.75C0.336 3 0 3.336 0 3.75C0 4.164 0.336 4.5 0.75 4.5H29.25C29.664 4.5 30 4.164 30 3.75C30 3.336 29.664 3 29.25 3ZM13.875 1.5H16.125L17.25 3H12.75L13.875 1.5Z" fill="#343434"/>
</svg>
