<svg width="30" height="30" viewBox="0 0 30 30" fill="none" xmlns="http://www.w3.org/2000/svg">
  <path d="M25.6065 4.3935C22.773 1.56 19.0065 0 15 0C10.9935 0 7.227 1.56 4.3935 4.3935C1.56 7.227 0 10.9935 0 15C0 19.0065 1.56 22.773 4.3935 25.6065C7.227 28.44 10.9935 30 15 30C19.0065 30 22.773 28.44 25.6065 25.6065C28.44 22.773 30 19.0065 30 15C30 10.9935 28.44 7.227 25.6065 4.3935V4.3935ZM15 22.5C10.8645 22.5 7.5 19.1355 7.5 15C7.5 10.8645 10.8645 7.5 15 7.5C19.1355 7.5 22.5 10.8645 22.5 15C22.5 19.1355 19.1355 22.5 15 22.5ZM1.5 15C1.5 14.493 1.5285 13.992 1.584 13.5H6.126C6.0435 13.9875 6 14.4885 6 15C6 15.5115 6.0435 16.0125 6.126 16.5H1.584C1.53 16.008 1.5 15.507 1.5 15V15ZM23.874 13.5H28.416C28.47 13.992 28.5 14.493 28.5 15C28.5 15.507 28.4715 16.008 28.416 16.5H23.874C23.9565 16.0125 24 15.5115 24 15C24 14.4885 23.9565 13.9875 23.874 13.5V13.5ZM28.164 12H23.4855C22.5795 9.447 20.553 7.4205 18 6.5145V1.836C23.04 2.9835 27.015 6.96 28.164 12ZM16.5 1.584V6.126C16.0125 6.0435 15.5115 6 15 6C14.4885 6 13.9875 6.0435 13.5 6.126V1.584C13.992 1.53 14.493 1.5 15 1.5C15.507 1.5 16.008 1.5285 16.5 1.584V1.584ZM12 1.836V6.5145C9.447 7.4205 7.4205 9.447 6.5145 12H1.836C2.9835 6.96 6.96 2.985 12 1.836V1.836ZM1.836 18H6.5145C7.4205 20.553 9.447 22.5795 12 23.4855V28.164C6.96 27.0165 2.985 23.04 1.836 18V18ZM13.5 28.416V23.874C13.9875 23.9565 14.4885 24 15 24C15.5115 24 16.0125 23.9565 16.5 23.874V28.416C16.008 28.4715 15.507 28.5 15 28.5C14.493 28.5 13.992 28.4715 13.5 28.416ZM18 28.164V23.4855C20.553 22.5795 22.5795 20.553 23.4855 18H28.164C27.0165 23.04 23.04 27.015 18 28.164Z" fill="#343434"/>
</svg>
