<svg width="30" height="30" viewBox="0 0 30 30" fill="none" xmlns="http://www.w3.org/2000/svg">
<path d="M20.25 13.5C18.183 13.5 16.5 11.817 16.5 9.75C16.5 7.683 18.183 6 20.25 6C22.317 6 24 7.683 24 9.75C24 11.817 22.317 13.5 20.25 13.5ZM20.25 7.5C19.0095 7.5 18 8.5095 18 9.75C18 10.9905 19.0095 12 20.25 12C21.4905 12 22.5 10.9905 22.5 9.75C22.5 8.5095 21.4905 7.5 20.25 7.5Z" fill="#343434"/>
<path d="M27.75 0H2.25C1.0095 0 0 1.0095 0 2.25V27.75C0 28.9905 1.0095 30 2.25 30H27.75C28.9905 30 30 28.9905 30 27.75V2.25C30 1.0095 28.9905 0 27.75 0ZM1.5 27.75V20.5395L7.7955 13.614C7.923 13.4745 8.0895 13.3965 8.2665 13.3935C8.4435 13.3905 8.613 13.4655 8.7435 13.602L22.9935 28.5H2.2485C1.8345 28.5 1.4985 28.164 1.4985 27.75H1.5ZM28.5 27.75C28.5 28.164 28.164 28.5 27.75 28.5H25.071L9.8295 12.5655C9.408 12.1245 8.847 11.8875 8.25 11.895C7.653 11.9025 7.098 12.1545 6.687 12.606L1.5015 18.3105V2.25C1.5015 1.836 1.8375 1.5 2.2515 1.5H27.7515C28.1655 1.5 28.5015 1.836 28.5015 2.25V27.75H28.5Z" fill="#343434"/>
</svg>
