<svg width="30" height="30" viewBox="0 0 30 30" fill="none" xmlns="http://www.w3.org/2000/svg">
<path d="M29.4585 9.65479L15.2487 5.03923C15.086 4.98692 14.9108 4.98692 14.7498 5.03923L0.539972 9.65479C0.217883 9.75941 0 10.0533 0 10.3841C0 10.7148 0.217883 11.0087 0.539972 11.1133L4.73659 12.4764V16.5381C4.73659 16.7428 4.82027 16.9382 4.96711 17.0828C5.10605 17.2182 8.43114 20.3844 14.9992 20.3844C17.388 20.3844 19.6158 19.966 21.6225 19.1398C22.0236 18.9752 22.2115 18.5228 22.0425 18.132C21.8736 17.7413 21.4094 17.5582 21.0084 17.7228C19.1974 18.469 17.1765 18.8459 15.0008 18.8459C11.9299 18.8459 9.67054 18.0705 8.31588 17.4212C7.3133 16.9397 6.64228 16.4535 6.31704 16.192V12.9903L14.7513 15.7304C14.8319 15.7566 14.9171 15.7704 15.0008 15.7704C15.0845 15.7704 15.1697 15.7566 15.2503 15.7304L23.6845 12.9903V14.3627C22.7656 14.6796 22.1057 15.535 22.1057 16.5381C22.1057 17.4782 22.6851 18.2874 23.514 18.6474L22.1294 24.0446C22.0709 24.2738 22.123 24.5184 22.273 24.7046C22.423 24.8908 22.652 25 22.8951 25H26.0528C26.296 25 26.5249 24.8908 26.6749 24.7046C26.8249 24.5184 26.877 24.2738 26.8186 24.0446L25.4339 18.6474C26.2628 18.2874 26.8423 17.4782 26.8423 16.5381C26.8423 15.535 26.1823 14.6796 25.2634 14.3627V12.4764L29.46 11.1133C29.7821 11.0087 30 10.7148 30 10.3841C30 10.0533 29.7821 9.75941 29.46 9.65479H29.4585ZM24.4724 15.7689C24.9082 15.7689 25.2618 16.1135 25.2618 16.5381C25.2618 16.9628 24.9082 17.3074 24.4724 17.3074C24.0366 17.3074 23.683 16.9628 23.683 16.5381C23.683 16.1135 24.0366 15.7689 24.4724 15.7689ZM23.904 23.4615L24.4724 21.2491L25.0408 23.4615H23.9056H23.904ZM24.6541 11.1715L15.1303 9.62402C14.6992 9.55479 14.2935 9.83788 14.2224 10.2564C14.1514 10.6748 14.4419 11.0718 14.8713 11.141L21.6538 12.2425L15.0008 14.385L2.29 10.3825L15.0008 6.32927L27.71 10.3825L24.6544 11.1698L24.6541 11.1715Z" fill="#343434"/>
</svg>
