<svg width="30" height="30" viewBox="0 0 30 30" fill="none" xmlns="http://www.w3.org/2000/svg">
<g id="map">
<path id="Vector" d="M29.6242 0.117638C29.3921 -0.02605 29.1015 -0.038682 28.8568 0.0829001L19.7363 4.64302L10.6158 0.0829001C10.3932 -0.0276291 10.1326 -0.0276291 9.91 0.0829001L0.435812 4.81987C0.168956 4.95408 0 5.22725 0 5.52567V29.2105C0 29.4837 0.142113 29.7379 0.37423 29.8816C0.500553 29.9605 0.644244 30 0.789515 30C0.909522 30 1.03111 29.9716 1.14322 29.9163L10.2637 25.3562L19.3842 29.9163C19.6068 30.0268 19.8689 30.0268 20.09 29.9163L29.5642 25.1793C29.831 25.0451 30 24.772 30 24.4735V0.788708C30 0.515543 29.8579 0.261326 29.6258 0.117638H29.6242ZM9.47103 23.9856L1.57587 27.9331V6.01358L9.47103 2.06611V23.9856ZM11.0501 2.06611L18.9452 6.01358V27.9331L11.0501 23.9856V2.06611V2.06611ZM28.4194 23.9856L20.5242 27.9331V6.01358L28.4194 2.06611V23.9856Z" fill="#343434"/>
</g>
</svg>
