<svg width="30" height="30" viewBox="0 0 30 30" fill="none" xmlns="http://www.w3.org/2000/svg">
<path d="M24.5455 2.3067e-05C21.5455 2.3067e-05 19.091 2.45457 19.091 5.45454V24.5455C19.091 27.5455 21.5455 30 24.5455 30C27.5455 30 30 27.5455 30 24.5455V5.45454C30 2.45457 27.5455 2.3067e-05 24.5455 2.3067e-05ZM28.5 24.5457C28.5 26.5 27.091 28.5 24.5455 28.5C22 28.5 20.59 26.5 20.59 24.5457V5.45454C20.59 3.50002 22.091 1.50002 24.5455 1.50002C27 1.50002 28.5 3.50002 28.5 5.45454V24.5457Z" fill="#343434"/>
<path d="M5.45449 2.3067e-05C2.45454 2.3067e-05 0 2.45457 0 5.45454V24.5455C0 27.5455 2.45454 30 5.45449 30C8.45444 30 10.909 27.5455 10.909 24.5455V5.45454C10.9091 2.45457 8.4546 2.3067e-05 5.45449 2.3067e-05ZM9.40899 24.5456C9.40899 26.5 8 28.5 5.45449 28.5C2.90899 28.5 1.49899 26.5 1.49899 24.5456V5.45452C1.49899 3.5 3 1.5 5.45449 1.5C7.90899 1.5 9.40899 3.5 9.40899 5.45452V24.5456Z" fill="#343434"/>
</svg>
