<svg width="30" height="30" viewBox="0 0 30 30" fill="none" xmlns="http://www.w3.org/2000/svg">
  <path d="M23.25 14H6.75C6.33 14 6 13.67 6 13.25V5C6 4.595 6.33 4.25 6.75 4.25H24.75C25.245 4.25 25.5 3.92 25.5 3.5C25.5 3.08 25.245 2.75 24.75 2.75H15.75V0.8C15.75 0.454938 15.42 0 15 0C14.58 0 14.25 0.454938 14.25 0.8V2.75H6.75C5.505 2.75 4.50007 3.755 4.5 5V13.25C4.50007 14.495 5.505 15.5 6.75 15.5H23.25C23.67 15.5 24 15.83 24.0001 16.25V24.5C24.0001 24.92 23.67 25.25 23.25 25.25H5.25007C4.75507 25.25 4.50007 25.58 4.50007 26C4.50007 26.42 4.75507 26.75 5.25007 26.75H14.25V29.115C14.25 29.595 14.58 30 15 30C15.42 30 15.75 29.595 15.75 29.115V26.75H23.25C24.495 26.75 25.5001 25.745 25.5 24.5V16.25C25.5001 15.005 24.495 14 23.25 14Z" fill="#343434"/>
  <path d="M15 30C14.586 30 14.25 29.601 14.25 29.1094V0.8C14.25 0.308375 14.586 0 15 0C15.414 0 15.75 0.308375 15.75 0.8V29.1094C15.75 29.601 15.414 30 15 30Z" fill="#343434"/>
</svg>
