<svg width="30" height="30" viewBox="0 0 30 30" fill="none" xmlns="http://www.w3.org/2000/svg">
<path d="M15.3741 29.997C11.2674 29.997 7.40658 28.3981 4.50274 25.4944C1.59891 22.5906 0 18.7299 0 14.6232C0 11.247 1.08444 8.06121 3.13482 5.40942C4.11726 4.13902 5.2932 3.03211 6.63112 2.11868C7.97954 1.19775 9.46296 0.494306 11.0379 0.0308421C11.3259 -0.0546512 11.6363 0.0413413 11.8283 0.272323C12.0203 0.503305 12.0548 0.82578 11.9183 1.09276C10.9509 2.97811 10.5009 4.77497 10.5009 6.75032C10.5009 13.7803 16.2201 19.4993 23.2502 19.4993C25.2256 19.4993 27.0225 19.0494 28.9078 18.0819C29.1748 17.9454 29.4973 17.9799 29.7283 18.1719C29.9593 18.3639 30.0538 18.6744 29.9698 18.9624C29.5048 20.5372 28.8029 22.0206 27.8819 23.369C26.9685 24.7069 25.8615 25.8828 24.5911 26.8652C21.9392 28.9156 18.7519 30 15.3771 30L15.3741 29.997ZM9.85444 2.04668C4.79373 4.21402 1.49991 9.07963 1.49991 14.6232C1.49991 22.2726 7.72456 28.4971 15.3741 28.4971C20.9178 28.4971 25.7835 25.2019 27.9509 20.1428C26.415 20.7172 24.8641 20.9977 23.2487 20.9977C19.4419 20.9977 15.8646 19.5158 13.1737 16.825C10.4829 14.1342 8.99948 10.5555 8.99948 6.74882C8.99948 5.13344 9.28147 3.58256 9.85444 2.04668Z" fill="#343434"/>
</svg>
