<svg width="30" height="30" viewBox="0 0 30 30" fill="none" xmlns="http://www.w3.org/2000/svg">
<path d="M15.75 30H14.25C13.836 30 13.5 29.664 13.5 29.25C13.5 28.836 13.836 28.5 14.25 28.5H15.75C16.164 28.5 16.5 28.836 16.5 29.25C16.5 29.664 16.164 30 15.75 30Z" fill="#343434"/>
<path d="M15 0C10.038 0 6 4.038 6 9C6 12.171 7.521 14.742 7.5855 14.85C7.9845 15.516 8.553 16.692 8.8245 17.418L10.0215 20.6085C10.203 21.0915 10.551 21.528 10.983 21.8595C10.6815 22.242 10.5 22.725 10.5 23.25C10.5 23.826 10.7175 24.351 11.0745 24.75C10.7175 25.149 10.5 25.674 10.5 26.25C10.5 27.4905 11.5095 28.5 12.75 28.5H17.25C18.4905 28.5 19.5 27.4905 19.5 26.25C19.5 25.674 19.2825 25.149 18.9255 24.75C19.2825 24.351 19.5 23.826 19.5 23.25C19.5 22.725 19.3185 22.242 19.017 21.8595C19.449 21.528 19.797 21.093 19.9785 20.6085L21.174 17.418C21.447 16.692 22.014 15.516 22.413 14.85C22.4775 14.742 24 12.171 24 9C24 4.038 19.962 0 15 0ZM17.25 27H12.75C12.336 27 12 26.664 12 26.25C12 25.836 12.336 25.5 12.75 25.5H17.25C17.664 25.5 18 25.836 18 26.25C18 26.664 17.664 27 17.25 27ZM18 23.25C18 23.664 17.664 24 17.25 24H12.75C12.336 24 12 23.664 12 23.25C12 22.836 12.336 22.5 12.75 22.5H17.25C17.664 22.5 18 22.836 18 23.25ZM21.1275 14.0775C20.682 14.8185 20.073 16.0815 19.77 16.8915L18.5745 20.082C18.3945 20.562 17.763 21 17.25 21H12.75C12.237 21 11.6055 20.562 11.4255 20.082L10.2285 16.8915C9.9255 16.0815 9.3165 14.82 8.871 14.0775C8.8575 14.055 7.5 11.76 7.5 9C7.5 4.8645 10.8645 1.5 15 1.5C19.1355 1.5 22.5 4.8645 22.5 9C22.5 11.7435 21.141 14.0565 21.1275 14.0775Z" fill="#343434"/>
</svg>
