<svg width="30" height="30" viewBox="0 0 30 30" fill="none" xmlns="http://www.w3.org/2000/svg">
  <path d="M24 15C24 19.9706 19.9706 24 15 24C10.0294 24 6 19.9706 6 15C6 10.0294 10.0294 6 15 6C19.9706 6 24 10.0294 24 15Z" fill="#343434"/>
  <path d="M30 15C30 23.2843 23.2843 30 15 30C6.71573 30 0 23.2843 0 15C0 6.71573 6.71573 0 15 0C23.2843 0 30 6.71573 30 15ZM1.89053 15C1.89053 22.2402 7.75984 28.1095 15 28.1095C22.2402 28.1095 28.1095 22.2402 28.1095 15C28.1095 7.75984 22.2402 1.89053 15 1.89053C7.75984 1.89053 1.89053 7.75984 1.89053 15Z" fill="#343434"/>
</svg>
