<svg width="30" height="30" viewBox="0 0 30 30" fill="none" xmlns="http://www.w3.org/2000/svg">
  <path d="M30 2.25V27.75C30 28.9905 28.9905 30 27.75 30H2.25C1.0095 30 0 28.9905 0 27.75L0 2.25C0 1.0095 1.0095 0 2.25 0H27.75C28.9905 0 30 1.0095 30 2.25ZM1.5 27.75C1.5 28.164 1.836 28.5 2.25 28.5H27.75C28.164 28.5 28.5 28.164 28.5 27.75V2.25C28.5 1.836 28.164 1.5 27.75 1.5H2.25C1.836 1.5 1.5 1.836 1.5 2.25L1.5 27.75Z" fill="#343434"/>
  <path d="M21.25 10.5H9.25C8.0095 10.5 7 9.4905 7 8.25V1.5L23.5 1.5V8.25C23.5 9.4905 22.4905 10.5 21.25 10.5ZM9.25 1.5L8.5 1.5V8.25C8.5 8.664 8.836 9 9.25 9H21.25C21.664 9 22 8.664 22 8.25V1.5H21.25H9.25Z" fill="#343434"/>
  <path d="M22.32 17H7.18182C5.97891 17 5 18.0095 5 19.25V28.5L24.5 28.5V19.25C24.5 18.0095 23.5229 17 22.32 17ZM9.18182 28.5H6.5L6.45455 19.25C6.45455 18.836 6.78036 18.5 7.18182 18.5H22.32C22.7215 18.5 23.05 18.836 23.05 19.25V28.5L20.8182 28.5L9.18182 28.5Z" fill="#343434"/>
</svg>
