<svg width="30" height="30" viewBox="0 0 30 30" fill="none" xmlns="http://www.w3.org/2000/svg">
<path d="M30 2.5V27.5C30 28.8783 28.9443 30 27.6471 30H12.3529C11.0557 30 10 28.8783 10 27.5V19.1667C10 18.7067 10.3514 18.3333 10.7843 18.3333C11.2173 18.3333 11.5686 18.7067 11.5686 19.1667V27.5C11.5686 27.96 11.92 28.3333 12.3529 28.3333H27.6471C28.08 28.3333 28.4314 27.96 28.4314 27.5V2.5C28.4314 2.04 28.08 1.66667 27.6471 1.66667H12.3529C11.92 1.66667 11.5686 2.04 11.5686 2.5V10.8333C11.5686 11.2933 11.2173 11.6667 10.7843 11.6667C10.3514 11.6667 10 11.2933 10 10.8333V2.5C10 1.12167 11.0557 0 12.3529 0H27.6471C28.9443 0 30 1.12167 30 2.5Z" fill="#343434"/>
<path d="M16.5664 20.3656L21.3664 15.5656C21.6784 15.2536 21.6784 14.7464 21.3664 14.4344L16.5664 9.63439C16.2544 9.32239 15.7472 9.32239 15.4352 9.63439C15.1232 9.94639 15.1232 10.4536 15.4352 10.7656L18.8688 14.2008H0.8C0.3584 14.2008 0 14.5592 0 15.0008C0 15.4424 0.3584 15.8008 0.8 15.8008H18.8688L15.4352 19.236C15.2784 19.3928 15.2016 19.5976 15.2016 19.8008C15.2016 20.004 15.28 20.2104 15.4352 20.3656C15.7472 20.6776 16.2544 20.6776 16.5664 20.3656Z" fill="#343434"/>
</svg>
