<svg width="30" height="30" viewBox="0 0 30 30" fill="none" xmlns="http://www.w3.org/2000/svg">
<path d="M30 2.5V27.5C30 28.8783 28.9443 30 27.6471 30H12.3529C11.0557 30 10 28.8783 10 27.5V19.1667C10 18.7067 10.3514 18.3333 10.7843 18.3333C11.2173 18.3333 11.5686 18.7067 11.5686 19.1667V27.5C11.5686 27.96 11.92 28.3333 12.3529 28.3333H27.6471C28.08 28.3333 28.4314 27.96 28.4314 27.5V2.5C28.4314 2.04 28.08 1.66667 27.6471 1.66667H12.3529C11.92 1.66667 11.5686 2.04 11.5686 2.5V10.8333C11.5686 11.2933 11.2173 11.6667 10.7843 11.6667C10.3514 11.6667 10 11.2933 10 10.8333V2.5C10 1.12167 11.0557 0 12.3529 0H27.6471C28.9443 0 30 1.12167 30 2.5Z" fill="#343434"/>
<path d="M5.034 9.63439L0.234 14.4344C-0.078 14.7464 -0.078 15.2536 0.234 15.5656L5.034 20.3656C5.346 20.6776 5.8532 20.6776 6.1652 20.3656C6.4772 20.0536 6.4772 19.5464 6.1652 19.2344L2.7316 15.7992H20.8004C21.242 15.7992 21.6004 15.4408 21.6004 14.9992C21.6004 14.5576 21.242 14.1992 20.8004 14.1992H2.7316L6.1652 10.764C6.322 10.6072 6.3988 10.4024 6.3988 10.1992C6.3988 9.99599 6.3204 9.78959 6.1652 9.63439C5.8532 9.32239 5.346 9.32239 5.034 9.63439V9.63439Z" fill="#343434"/>
</svg>
