<svg width="30" height="30" viewBox="0 0 30 30" fill="none" xmlns="http://www.w3.org/2000/svg">
<path d="M11.3392 30C11.2758 30 11.2109 29.9923 11.1459 29.9753C9.75766 29.6182 8.4235 29.0678 7.18209 28.3381C6.82188 28.1263 6.69512 27.6672 6.89454 27.3008C7.14035 26.8494 7.27021 26.3392 7.27021 25.8213C7.27021 24.1162 5.88349 22.7295 4.1783 22.7295C3.66195 22.7295 3.15023 22.8593 2.69881 23.1051C2.33242 23.3046 1.87327 23.1778 1.66148 22.8176C0.931785 21.5746 0.381424 20.2421 0.0243074 18.8538C-0.0761798 18.4611 0.143346 18.0576 0.526744 17.9293C1.78515 17.5057 2.63234 16.3277 2.63234 14.9998C2.63234 13.6718 1.7867 12.4938 0.526744 12.0702C0.143346 11.9404 -0.0761798 11.5384 0.0243074 11.1458C0.381424 9.75752 0.931785 8.42338 1.66148 7.18199C1.87327 6.82179 2.33242 6.69502 2.69881 6.89445C3.14869 7.14025 3.6604 7.27011 4.1783 7.27011C5.88349 7.27011 7.27021 5.8834 7.27021 4.17824C7.27021 3.66189 7.14035 3.15019 6.89454 2.69878C6.69512 2.33239 6.82188 1.87325 7.18209 1.66145C8.42504 0.931771 9.75766 0.381418 11.1459 0.0243071C11.5386 -0.0761787 11.9421 0.143344 12.0704 0.526736C12.494 1.78513 13.672 2.6323 15 2.6323C16.328 2.6323 17.506 1.78667 17.9296 0.526736C18.0594 0.143344 18.4629 -0.0761787 18.8541 0.0243071C20.2423 0.381418 21.5765 0.931771 22.8179 1.66145C23.1781 1.87325 23.3049 2.33239 23.1055 2.69878C22.8596 3.15019 22.7298 3.66035 22.7298 4.17824C22.7298 5.8834 24.1165 7.27011 25.8217 7.27011C26.3381 7.27011 26.8498 7.14025 27.3012 6.89445C27.6676 6.69502 28.1267 6.82179 28.3385 7.18199C29.0682 8.42492 29.6186 9.75752 29.9757 11.1458C30.0762 11.5384 29.8567 11.9419 29.4733 12.0702C28.2148 12.4938 27.3677 13.6718 27.3677 14.9998C27.3677 16.3277 28.2133 17.5057 29.4733 17.9293C29.8567 18.0592 30.0762 18.4611 29.9757 18.8538C29.6186 20.2421 29.0682 21.5762 28.3385 22.8176C28.1267 23.1778 27.6676 23.3046 27.3012 23.1051C26.8498 22.8593 26.3396 22.7295 25.8217 22.7295C24.1165 22.7295 22.7298 24.1162 22.7298 25.8213C22.7298 26.3377 22.8596 26.8494 23.1055 27.3008C23.3049 27.6672 23.1781 28.1263 22.8179 28.3381C21.575 29.0678 20.2423 29.6182 18.8541 29.9753C18.4614 30.0758 18.0579 29.8562 17.9296 29.4728C17.506 28.2144 16.328 27.3673 15 27.3673C13.672 27.3673 12.494 28.2129 12.0704 29.4728C11.9622 29.7928 11.6623 30 11.3376 30H11.3392ZM15.0015 25.8229C16.7438 25.8229 18.313 26.7937 19.1061 28.2995C19.91 28.0506 20.6922 27.729 21.4405 27.3379C21.2735 26.8525 21.1869 26.3392 21.1869 25.8229C21.1869 23.2659 23.2678 21.1851 25.8248 21.1851C26.3411 21.1851 26.8544 21.2716 27.3398 21.4386C27.731 20.6904 28.0541 19.9097 28.3014 19.1042C26.7957 18.3127 25.8248 16.7436 25.8248 14.9998C25.8248 13.256 26.7957 11.6884 28.3014 10.8953C28.0525 10.0914 27.731 9.3092 27.3398 8.56096C26.8544 8.72793 26.3411 8.8145 25.8248 8.8145C23.2678 8.8145 21.1869 6.73367 21.1869 4.17669C21.1869 3.66035 21.2735 3.1471 21.4405 2.66167C20.6922 2.27055 19.9115 1.94745 19.1061 1.7001C18.3145 3.20584 16.7454 4.17669 15.0015 4.17669C13.2577 4.17669 11.6901 3.20584 10.897 1.7001C10.0931 1.94745 9.31088 2.27055 8.56263 2.66167C8.7296 3.1471 8.81617 3.66035 8.81617 4.17669C8.81617 6.73367 6.73531 8.8145 4.1783 8.8145C3.66195 8.8145 3.14869 8.72793 2.66326 8.56096C2.27213 9.3092 1.94902 10.0899 1.70167 10.8953C3.20743 11.6868 4.1783 13.256 4.1783 14.9998C4.1783 16.7436 3.20743 18.3112 1.70167 19.1042C1.94902 19.9081 2.27213 20.6904 2.66326 21.4386C3.14869 21.2716 3.66195 21.1851 4.1783 21.1851C6.73531 21.1851 8.81617 23.2659 8.81617 25.8229C8.81617 26.3392 8.7296 26.8525 8.56263 27.3379C9.31088 27.729 10.0916 28.0521 10.897 28.2995C11.6886 26.7937 13.2577 25.8229 15.0015 25.8229Z" fill="#343434"/>
<path d="M15 19.5C12.519 19.5 10.5 17.481 10.5 15C10.5 12.519 12.519 10.5 15 10.5C17.481 10.5 19.5 12.519 19.5 15C19.5 17.481 17.481 19.5 15 19.5ZM15 12C13.3455 12 12 13.3455 12 15C12 16.6545 13.3455 18 15 18C16.6545 18 18 16.6545 18 15C18 13.3455 16.6545 12 15 12Z" fill="#343434"/>
</svg>
