<svg width="30" height="30" viewBox="0 0 30 30" fill="none" xmlns="http://www.w3.org/2000/svg">
  <path d="M15.0594 17.2853C16.3214 17.2853 17.3445 16.2623 17.3445 15.0002C17.3445 13.7382 16.3214 12.7151 15.0594 12.7151C13.7974 12.7151 12.7743 13.7382 12.7743 15.0002C12.7743 16.2623 13.7974 17.2853 15.0594 17.2853Z" fill="#343434"/>
  <path d="M15.0593 8.32046C11.3762 8.32046 8.37976 11.3169 8.37976 15C8.37976 18.6831 11.3762 21.6795 15.0593 21.6795C18.7424 21.6795 21.7388 18.6831 21.7388 15C21.7388 11.3169 18.7424 8.32046 15.0593 8.32046ZM15.0593 19.3358C12.6685 19.3358 10.7235 17.3908 10.7235 15C10.7235 12.6092 12.6685 10.6642 15.0593 10.6642C17.4501 10.6642 19.3951 12.6092 19.3951 15C19.3951 17.3908 17.4501 19.3358 15.0593 19.3358Z" fill="#343434"/>
  <path d="M29.2411 12.4421C28.6189 11.4867 26.8633 9.0339 24.0056 6.89721C21.1088 4.73128 18.0878 3.633 15.0263 3.633C11.9692 3.633 8.94548 4.72829 6.03922 6.88836C3.16882 9.02177 1.39911 11.4715 0.771448 12.4257C-0.25717 13.9895 -0.25717 16.0104 0.771448 17.5742C1.39911 18.5285 3.16882 20.9782 6.03922 23.1116C8.94548 25.2717 11.9691 26.367 15.0263 26.367C19.7329 26.367 23.5176 23.7427 25.8637 21.5413C26.3356 21.0984 26.3593 20.3568 25.9164 19.8849C25.4735 19.4128 24.732 19.3893 24.26 19.8321C22.2223 21.7442 18.9662 24.0234 15.0262 24.0234C9.33648 24.0234 4.61955 19.16 2.72937 16.2863C2.21538 15.5049 2.21538 14.4952 2.72937 13.7138C4.61955 10.8401 9.33648 5.97681 15.0262 5.97681C20.7157 5.97681 25.4039 10.8448 27.2771 13.7212C27.783 14.4981 27.783 15.502 27.2771 16.2789C26.9239 16.8213 27.0773 17.5472 27.6196 17.9004C28.1619 18.2535 28.8879 18.1003 29.2411 17.5579C30.2529 16.004 30.2529 13.9959 29.2411 12.4421Z" fill="#343434"/>
</svg>
