<svg width="30" height="30" viewBox="0 0 30 30" fill="none" xmlns="http://www.w3.org/2000/svg">
<path d="M29.6568 27.9991L23.4812 21.8235C23.4718 21.8137 23.4623 21.8042 23.4525 21.7948L8.2191 6.56136C8.20878 6.55064 8.19835 6.54021 8.18769 6.52995L2.00145 0.343716C1.54378 -0.113962 0.80186 -0.113962 0.344241 0.343716C-0.113378 0.801394 -0.113437 1.54331 0.344241 2.00093L5.58184 7.23853C2.91212 9.34047 1.25702 11.6876 0.77145 12.4259C-0.257109 13.9896 -0.257109 16.0105 0.77145 17.5743C1.39911 18.5285 3.16882 20.9782 6.03917 23.1116C8.94537 25.2717 11.9691 26.3669 15.0262 26.3669C17.546 26.3669 20.0492 25.6172 22.4796 24.1364L27.9997 29.6564C28.2285 29.8852 28.5284 29.9997 28.8282 29.9997C29.1281 29.9997 29.4281 29.8852 29.6568 29.6564C30.1144 29.1987 30.1144 28.4568 29.6568 27.9991ZM11.2193 12.876L12.8318 14.4884C12.6623 15.2295 12.8662 16.0386 13.4434 16.6158C14.0206 17.193 14.8297 17.3968 15.5708 17.2274L17.1252 18.7818C16.4838 19.1435 15.757 19.3358 15.0006 19.3358C12.6098 19.3358 10.6648 17.3908 10.6648 15.0001C10.6647 14.2465 10.8576 13.5185 11.2193 12.876ZM15.0261 24.0231C9.33648 24.0231 4.61961 19.1599 2.72943 16.2862C2.21544 15.5049 2.21544 14.4951 2.72943 13.7137C3.17597 13.0349 4.7327 10.829 7.25188 8.90863L9.52135 11.1781C8.74187 12.2924 8.32105 13.6185 8.32105 15C8.32105 18.6831 11.3174 21.6795 15.0005 21.6795C16.3876 21.6795 17.7101 21.2595 18.823 20.4797L20.7664 22.4231C18.8671 23.4857 16.9416 24.0231 15.0261 24.0231Z" fill="#343434"/>
<path d="M29.2593 12.4714C29.2532 12.4616 29.2471 12.4519 29.2408 12.4421C28.6186 11.4868 26.863 9.03396 24.0054 6.89727C21.1086 4.73134 18.0876 3.63312 15.0262 3.63312C13.8609 3.63312 12.6797 3.79783 11.5155 4.12255C10.8921 4.29652 10.5277 4.94287 10.7016 5.56619C10.8755 6.18957 11.5216 6.55385 12.1452 6.38012C13.1044 6.11252 14.0737 5.97688 15.0261 5.97688C20.6916 5.97688 25.3641 10.8037 27.253 13.6845C27.259 13.6943 27.2652 13.7041 27.2716 13.7137C27.5233 14.0965 27.6564 14.5412 27.6564 15C27.6564 15.4588 27.5233 15.9035 27.2716 16.2863C26.7079 17.1432 25.9526 18.0832 25.1446 18.9332C24.6987 19.4023 24.7174 20.144 25.1865 20.5899C25.4133 20.8054 25.7037 20.9124 25.9937 20.9124C26.3036 20.9124 26.6129 20.7902 26.8433 20.5479C27.9981 19.333 28.7785 18.2601 29.2297 17.5741C29.7337 16.8078 30.0001 15.9177 30.0001 14.9999C30 14.1003 29.7441 13.2273 29.2593 12.4714Z" fill="#343434"/>
<path d="M21.5246 13.5623C20.9738 11.0539 19.0003 9.06249 16.4965 8.48909C15.8657 8.34489 15.2372 8.73894 15.0927 9.36976C14.9483 10.0006 15.3425 10.6291 15.9734 10.7736C17.5977 11.1456 18.8781 12.4374 19.2354 14.0649C19.3556 14.6124 19.8405 14.9856 20.3789 14.9856C20.4621 14.9856 20.5466 14.9767 20.6313 14.9581C21.2634 14.8194 21.6634 14.1944 21.5246 13.5623Z" fill="#343434"/>
</svg>
