<svg width="30" height="30" viewBox="0 0 30 30" fill="none" xmlns="http://www.w3.org/2000/svg">
<path d="M29.808 14.4975C29.7375 14.418 28.035 12.54 25.374 10.6395C23.8035 9.5175 22.224 8.6235 20.679 7.98C18.7215 7.164 16.8105 6.75 15 6.75C13.1895 6.75 11.2785 7.164 9.32101 7.98C7.77601 8.6235 6.19651 9.519 4.62601 10.6395C1.96501 12.54 0.262509 14.4195 0.192009 14.4975C-0.0644912 14.7825 -0.0644912 15.216 0.192009 15.501C0.262509 15.5805 1.96501 17.4585 4.62601 19.359C6.19651 20.481 7.77601 21.375 9.32101 22.0185C11.2785 22.8345 13.1895 23.2485 15 23.2485C16.8105 23.2485 18.7215 22.8345 20.679 22.0185C22.224 21.375 23.8035 20.4795 25.374 19.359C28.035 17.4585 29.7375 15.579 29.808 15.501C30.0645 15.216 30.0645 14.7825 29.808 14.4975ZM18.861 8.9055C20.2215 10.05 21 11.715 21 13.4985C21 16.8075 18.309 19.4985 15 19.4985C11.691 19.4985 9.00001 16.8075 9.00001 13.4985C9.00001 11.7165 9.77851 10.05 11.139 8.9055C12.372 8.5035 13.6755 8.2485 15 8.2485C16.3245 8.2485 17.628 8.5035 18.861 8.9055V8.9055ZM24.4755 18.1575C22.176 19.7955 18.666 21.7485 15 21.7485C11.334 21.7485 7.82401 19.7955 5.52451 18.1575C3.78901 16.9215 2.46151 15.6705 1.79101 14.9985C2.46151 14.3265 3.78901 13.077 5.52451 11.8395C6.31951 11.2725 7.25851 10.6695 8.29951 10.122C7.77901 11.154 7.50001 12.3045 7.50001 13.4985C7.50001 17.634 10.8645 20.9985 15 20.9985C19.1355 20.9985 22.5 17.634 22.5 13.4985C22.5 12.3045 22.221 11.154 21.7005 10.122C22.7415 10.6695 23.6805 11.274 24.4755 11.8395C26.211 13.0755 27.5385 14.3265 28.209 14.9985C27.5385 15.6705 26.211 16.92 24.4755 18.1575Z" fill="#343434"/>
</svg>
