<svg width="30" height="30" viewBox="0 0 30 30" fill="none" xmlns="http://www.w3.org/2000/svg">
  <path
    d="M23 17.0003L24.6 15.4002C27.6 12.4002 28.4 5.40017 26.5 3.50027C24.6 1.60036 17.6 2.40028 14.6 5.40018L13 7.00026M23 17.0003L24 24.0002L20 28.0002L17 23.0003M23 17.0003L17 23.0003M17 23.0003L15 25.0003L12 22.0003M13 7.00026L6 6.00026L2 10.0003L7.00003 13.0003M13 7.00026L7.00003 13.0003M7.00003 13.0003L5.00003 15.0003L8.00003 18.0003M3 27.0002L7.00005 23.0003M2 22.0002L4 20.0002M8 28.0002L10 26.0002"
    stroke="#343434" stroke-linecap="round" stroke-linejoin="round" fill="none"/>
  <circle stroke="#343434" cx="18.9002" cy="10.9002" r="2.7" fill="none"/>
</svg>
