<svg width="30" height="30" viewBox="0 0 30 30" fill="none" xmlns="http://www.w3.org/2000/svg">
  <path d="M15.8175 15.0001L29.8283 0.988065C30.0541 0.762255 30.0541 0.395168 29.8283 0.169358C29.6026 -0.0564526 29.2355 -0.0564525 29.0097 0.169358L14.9988 14.1814L0.987948 0.169358C0.762164 -0.0564525 0.395121 -0.0564525 0.169338 0.169358C-0.0564459 0.395168 -0.0564459 0.762255 0.169338 0.988065L14.1802 15.0001L0.169338 29.0122C-0.0564458 29.238 -0.0564458 29.6051 0.169338 29.8309C0.396279 30.0579 0.762164 30.0556 0.989106 29.8309L15 15.8189L29.0109 29.8309C29.2378 30.0579 29.6037 30.0556 29.8307 29.8309C30.0564 29.6051 30.0564 29.238 29.8307 29.0122L15.8198 15.0001H15.8175Z" fill="#343434"/>
</svg>
