<svg width="30" height="30" viewBox="0 0 30 30" fill="none" xmlns="http://www.w3.org/2000/svg">
  <g id="arrow-right">
    <path id="Vector" d="M29.7612 14.4706L20.0322 5.4694C19.716 5.17687 19.2019 5.17687 18.8858 5.4694C18.5696 5.76194 18.5696 6.23751 18.8858 6.53005L27.2301 14.2501H0.810756C0.363219 14.2501 0 14.5861 0 15.0002C0 15.4142 0.363219 15.7503 0.810756 15.7503H27.2301L18.8858 23.4703C18.5696 23.7629 18.5696 24.2384 18.8858 24.531C19.0447 24.678 19.2522 24.75 19.4598 24.75C19.6673 24.75 19.8749 24.6765 20.0338 24.531L29.7629 15.5298C30.0791 15.2372 30.0791 14.7617 29.7629 14.4691L29.7612 14.4706Z" fill="#343434"/>
  </g>
</svg>
