<svg width="30" height="30" viewBox="0 0 30 30" fill="none" xmlns="http://www.w3.org/2000/svg">
  <g id="arrow-left">
    <path d="M0.238768 14.4706L9.96784 5.4694C10.284 5.17687 10.7981 5.17687 11.1142 5.4694C11.4304 5.76194 11.4304 6.23751 11.1142 6.53005L2.76995 14.2501H29.1892C29.6368 14.2501 30 14.5861 30 15.0002C30 15.4142 29.6368 15.7503 29.1892 15.7503H2.76995L11.1142 23.4703C11.4304 23.7629 11.4304 24.2384 11.1142 24.531C10.9553 24.678 10.7478 24.75 10.5402 24.75C10.3327 24.75 10.1251 24.6765 9.96622 24.531L0.237146 15.5298C-0.0790487 15.2372 -0.0790487 14.7617 0.237146 14.4691L0.238768 14.4706Z" fill="#343434"/>
  </g>
</svg>

