<svg width="30" height="30" viewBox="0 0 30 30" fill="none" xmlns="http://www.w3.org/2000/svg">
  <path d="M29.7189 1.88991L29.5914 1.18869C29.5193 0.792021 29.2089 0.481725 28.8123 0.409565L28.1111 0.28212C25.1298 -0.259779 22.0441 -0.0148693 19.1879 0.99078C15.4716 2.29916 13.0342 4.45218 10.8869 7.12025L9.75276 6.73101C7.913 6.09929 5.876 6.51998 4.43672 7.82848L0.854955 11.0847C-0.87393 12.6563 0.18912 15.5409 2.52535 15.6137L5.69357 15.7125C5.53038 16.6962 5.84219 17.7223 6.57389 18.454L11.5471 23.4272C12.2541 24.1342 13.269 24.477 14.2887 24.3078L14.3874 27.4758C14.4604 29.8187 17.35 30.8694 18.9165 29.1462L22.1726 25.5644C23.4811 24.1251 23.9016 22.0881 23.2702 20.2484L22.8809 19.1142C25.4791 17.023 27.6692 14.6228 29.0103 10.8133C30.0159 7.95684 30.261 4.87117 29.7189 1.88991ZM2.15687 12.5168L5.73864 9.26062C6.65525 8.42742 7.95262 8.15953 9.12431 8.5617L9.64733 8.74123C8.51769 10.2963 7.455 11.9897 6.50222 13.8011L2.58553 13.679C1.98339 13.6603 1.71084 12.9223 2.15687 12.5168ZM21.4394 20.8767C21.8415 22.0484 21.5738 23.3457 20.7404 24.2624L17.4841 27.8441C17.079 28.29 16.3407 28.018 16.322 27.4155L16.1999 23.4989C17.961 22.5726 19.6527 21.5212 21.2598 20.3537L21.4394 20.8767ZM22.6107 16.8224C20.0892 18.9853 17.2949 20.8254 14.3053 22.2915C13.8412 22.5192 13.2827 22.4255 12.9157 22.0585C12.9218 22.0585 12.9608 22.1037 7.94246 17.0852C7.57549 16.7183 7.48186 16.1598 7.70947 15.6956C7.9574 15.19 8.21695 14.6905 8.48605 14.1964L13.7359 19.4463C14.1138 19.8242 14.7265 19.8242 15.1045 19.4463C15.4824 19.0683 15.4824 18.4555 15.1045 18.0776L9.48819 12.4614C10.618 10.6165 11.8623 8.91887 13.2581 7.29777C16.7603 3.24033 22.2676 1.18905 27.8068 2.19404C28.7845 7.5826 26.9023 13.131 22.6107 16.8224ZM17.1099 6.99171C14.487 9.61447 16.3608 14.111 20.0596 14.111C23.755 14.111 25.6352 9.61749 23.0093 6.99171C21.3827 5.36517 18.7364 5.36517 17.1099 6.99171ZM21.6407 11.5225C20.7688 12.3942 19.3503 12.3942 18.4785 11.5225C17.6067 10.6507 17.6067 9.23213 18.4785 8.36034C19.3504 7.48855 20.7688 7.48855 21.6407 8.36034C22.5125 9.23213 22.5125 10.6507 21.6407 11.5225ZM1.48619 22.6344C1.10821 22.2565 1.10821 21.6437 1.48619 21.2658L2.73941 20.0126C3.11733 19.6347 3.73012 19.6347 4.10804 20.0126C4.48602 20.3905 4.48602 21.0033 4.10804 21.3812L2.85482 22.6344C2.47684 23.0124 1.86411 23.0124 1.48619 22.6344ZM10.0366 25.9412C10.4146 26.3191 10.4146 26.9319 10.0366 27.3098L8.78347 28.563C8.59445 28.752 8.34681 28.8465 8.09912 28.8465C7.24475 28.8465 6.80332 27.8059 7.41478 27.1945L8.66794 25.9412C9.04598 25.5633 9.65871 25.5631 10.0366 25.9412ZM7.92268 23.447L3.6674 27.7022C3.28936 28.0802 2.67669 28.0802 2.29877 27.7022C1.92079 27.3243 1.92079 26.7115 2.29877 26.3336L6.55405 22.0783C6.93203 21.7003 7.54476 21.7003 7.92268 22.0783C8.30066 22.4563 8.30066 23.069 7.92268 23.447Z" fill="#343434"/>
</svg>
