<svg width="30" height="30" viewBox="0 0 30 30" fill="none" xmlns="http://www.w3.org/2000/svg">
  <path d="M26.6825 23.83C24.8519 22.47 23.8022 19.6365 23.8022 17.3741V12.6243C23.8022 8.64564 21.0915 4.53544 17.4015 3.5V2.37C17.4015 1.06066 16.3246 0 15.0013 0C13.6779 0 12.601 1.06066 12.601 2.37V3.5C8.91104 4.53703 6.20035 8.64564 6.20035 12.6243V17.3741C6.20035 19.6365 5.15063 22.4684 3.32004 23.83C3.04481 24.0342 2.9328 24.387 3.04161 24.71C3.15042 25.033 3.45605 25.25 3.80009 25.25H11.0809C11.0281 25.5097 10.9993 25.7724 10.9993 26.04C10.9993 28.2217 12.7947 30 14.9997 30C17.2047 30 19.0001 28.2217 19.0001 26.04C19.0001 25.774 18.9729 25.5097 18.9201 25.25H26.2009C26.5449 25.25 26.8506 25.033 26.9594 24.71C27.0682 24.387 26.9562 24.0342 26.6809 23.83H26.6825ZM14.2012 2.37C14.2012 1.93302 14.5596 1.58 15.0013 1.58C15.4429 1.58 15.8014 1.93302 15.8014 2.37V3.2C15.5373 3.17625 15.2717 3.17 15.0013 3.17C14.7309 3.17 14.4652 3.17625 14.2012 3.2V2.37ZM17.4015 26.04C17.4015 27.3493 16.3246 28.42 15.0013 28.42C13.6779 28.42 12.601 27.3493 12.601 26.04C12.601 25.7693 12.649 25.5033 12.7386 25.25H17.2639C17.3535 25.5033 17.4015 25.7693 17.4015 26.04ZM5.7875 23.83C6.19555 23.3408 6.55078 21.8927 6.84201 21.3306C7.47888 20.0988 7.80052 18.7673 7.80052 17.3741V12.6243C7.80052 8.69631 11.0313 4.75 15.0013 4.75C18.9713 4.75 22.2021 8.69631 22.2021 12.6243V17.3741C22.2021 18.7673 22.5253 20.0988 23.1606 21.3306C23.4518 21.8942 23.807 23.3408 24.2151 23.83H5.7859H5.7875Z" fill="#343434"/>
</svg>
