<svg width="30" height="30" viewBox="0 0 30 30" fill="none" xmlns="http://www.w3.org/2000/svg">
<path d="M18.75 26.25C18.75 28.317 17.067 30 15 30C12.933 30 11.25 28.317 11.25 26.25C11.25 24.183 12.933 22.5 15 22.5C17.067 22.5 18.75 24.183 18.75 26.25ZM12.75 26.25C12.75 27.4905 13.7595 28.5 15 28.5C16.2405 28.5 17.25 27.4905 17.25 26.25C17.25 25.0095 16.2405 24 15 24C13.7595 24 12.75 25.0095 12.75 26.25Z" fill="#343434"/>
<path d="M18.75 15C18.75 17.067 17.067 18.75 15 18.75C12.933 18.75 11.25 17.067 11.25 15C11.25 12.933 12.933 11.25 15 11.25C17.067 11.25 18.75 12.933 18.75 15ZM12.75 15C12.75 16.2405 13.7595 17.25 15 17.25C16.2405 17.25 17.25 16.2405 17.25 15C17.25 13.7595 16.2405 12.75 15 12.75C13.7595 12.75 12.75 13.7595 12.75 15Z" fill="#343434"/>
<path d="M18.75 3.75C18.75 5.817 17.067 7.5 15 7.5C12.933 7.5 11.25 5.817 11.25 3.75C11.25 1.683 12.933 0 15 0C17.067 0 18.75 1.683 18.75 3.75ZM12.75 3.75C12.75 4.9905 13.7595 6 15 6C16.2405 6 17.25 4.9905 17.25 3.75C17.25 2.5095 16.2405 1.5 15 1.5C13.7595 1.5 12.75 2.5095 12.75 3.75Z" fill="#343434"/>
</svg>
