<svg width="30" height="30" viewBox="0 0 30 30" fill="none" xmlns="http://www.w3.org/2000/svg">
  <path d="M27.75 1.5H24V0.75C24 0.336 23.664 0 23.25 0C22.836 0 22.5 0.336 22.5 0.75V1.5H7.5V0.75C7.5 0.336 7.164 0 6.75 0C6.336 0 6 0.336 6 0.75V1.5H2.25C1.0095 1.5 0 2.5095 0 3.75V27.75C0 28.9905 1.0095 30 2.25 30H27.75C28.9905 30 30 28.9905 30 27.75V3.75C30 2.5095 28.9905 1.5 27.75 1.5ZM2.25 3H6V5.25C6 5.664 6.336 6 6.75 6C7.164 6 7.5 5.664 7.5 5.25V3H22.5V5.25C22.5 5.664 22.836 6 23.25 6C23.664 6 24 5.664 24 5.25V3H27.75C28.164 3 28.5 3.336 28.5 3.75V9H1.5V3.75C1.5 3.336 1.836 3 2.25 3ZM27.75 28.5H2.25C1.836 28.5 1.5 28.164 1.5 27.75V10.5H28.5V27.75C28.5 28.164 28.164 28.5 27.75 28.5Z" fill="#343434"/>
  <path d="M11.25 14.5H9.75C9.336 14.5 9 14.164 9 13.75C9 13.336 9.336 13 9.75 13H11.25C11.664 13 12 13.336 12 13.75C12 14.164 11.664 14.5 11.25 14.5Z" fill="#343434"/>
  <path d="M15.75 14.5H14.25C13.836 14.5 13.5 14.164 13.5 13.75C13.5 13.336 13.836 13 14.25 13H15.75C16.164 13 16.5 13.336 16.5 13.75C16.5 14.164 16.164 14.5 15.75 14.5Z" fill="#343434"/>
  <path d="M20.25 14.5H18.75C18.336 14.5 18 14.164 18 13.75C18 13.336 18.336 13 18.75 13H20.25C20.664 13 21 13.336 21 13.75C21 14.164 20.664 14.5 20.25 14.5Z" fill="#343434"/>
  <path d="M24.75 14.5H23.25C22.836 14.5 22.5 14.164 22.5 13.75C22.5 13.336 22.836 13 23.25 13H24.75C25.164 13 25.5 13.336 25.5 13.75C25.5 14.164 25.164 14.5 24.75 14.5Z" fill="#343434"/>
  <path d="M6.75 18H5.25C4.836 18 4.5 17.664 4.5 17.25C4.5 16.836 4.836 16.5 5.25 16.5H6.75C7.164 16.5 7.5 16.836 7.5 17.25C7.5 17.664 7.164 18 6.75 18Z" fill="#343434"/>
  <path d="M11.25 18H9.75C9.336 18 9 17.664 9 17.25C9 16.836 9.336 16.5 9.75 16.5H11.25C11.664 16.5 12 16.836 12 17.25C12 17.664 11.664 18 11.25 18Z" fill="#343434"/>
  <path d="M15.75 18H14.25C13.836 18 13.5 17.664 13.5 17.25C13.5 16.836 13.836 16.5 14.25 16.5H15.75C16.164 16.5 16.5 16.836 16.5 17.25C16.5 17.664 16.164 18 15.75 18Z" fill="#343434"/>
  <path d="M20.25 18H18.75C18.336 18 18 17.664 18 17.25C18 16.836 18.336 16.5 18.75 16.5H20.25C20.664 16.5 21 16.836 21 17.25C21 17.664 20.664 18 20.25 18Z" fill="#343434"/>
  <path d="M24.75 18H23.25C22.836 18 22.5 17.664 22.5 17.25C22.5 16.836 22.836 16.5 23.25 16.5H24.75C25.164 16.5 25.5 16.836 25.5 17.25C25.5 17.664 25.164 18 24.75 18Z" fill="#343434"/>
  <path d="M6.75 21.5H5.25C4.836 21.5 4.5 21.164 4.5 20.75C4.5 20.336 4.836 20 5.25 20H6.75C7.164 20 7.5 20.336 7.5 20.75C7.5 21.164 7.164 21.5 6.75 21.5Z" fill="#343434"/>
  <path d="M11.25 21.5H9.75C9.336 21.5 9 21.164 9 20.75C9 20.336 9.336 20 9.75 20H11.25C11.664 20 12 20.336 12 20.75C12 21.164 11.664 21.5 11.25 21.5Z" fill="#343434"/>
  <path d="M15.75 21.5H14.25C13.836 21.5 13.5 21.164 13.5 20.75C13.5 20.336 13.836 20 14.25 20H15.75C16.164 20 16.5 20.336 16.5 20.75C16.5 21.164 16.164 21.5 15.75 21.5Z" fill="#343434"/>
  <path d="M20.25 21.5H18.75C18.336 21.5 18 21.164 18 20.75C18 20.336 18.336 20 18.75 20H20.25C20.664 20 21 20.336 21 20.75C21 21.164 20.664 21.5 20.25 21.5Z" fill="#343434"/>
  <path d="M24.75 21.5H23.25C22.836 21.5 22.5 21.164 22.5 20.75C22.5 20.336 22.836 20 23.25 20H24.75C25.164 20 25.5 20.336 25.5 20.75C25.5 21.164 25.164 21.5 24.75 21.5Z" fill="#343434"/>
  <path d="M6.75 25H5.25C4.836 25 4.5 24.664 4.5 24.25C4.5 23.836 4.836 23.5 5.25 23.5H6.75C7.164 23.5 7.5 23.836 7.5 24.25C7.5 24.664 7.164 25 6.75 25Z" fill="#343434"/>
  <path d="M11.25 25H9.75C9.336 25 9 24.664 9 24.25C9 23.836 9.336 23.5 9.75 23.5H11.25C11.664 23.5 12 23.836 12 24.25C12 24.664 11.664 25 11.25 25Z" fill="#343434"/>
  <path d="M15.75 25H14.25C13.836 25 13.5 24.664 13.5 24.25C13.5 23.836 13.836 23.5 14.25 23.5H15.75C16.164 23.5 16.5 23.836 16.5 24.25C16.5 24.664 16.164 25 15.75 25Z" fill="#343434"/>
  <path d="M20.25 25H18.75C18.336 25 18 24.664 18 24.25C18 23.836 18.336 23.5 18.75 23.5H20.25C20.664 23.5 21 23.836 21 24.25C21 24.664 20.664 25 20.25 25Z" fill="#343434"/>
  <path d="M24.75 25H23.25C22.836 25 22.5 24.664 22.5 24.25C22.5 23.836 22.836 23.5 23.25 23.5H24.75C25.164 23.5 25.5 23.836 25.5 24.25C25.5 24.664 25.164 25 24.75 25Z" fill="#343434"/>
</svg>
