<svg width="30" height="30" viewBox="0 0 30 30" fill="none" xmlns="http://www.w3.org/2000/svg">
<path d="M22.5 11.25H21.75V9C21.75 5.2785 18.7215 2.25 15 2.25C11.2785 2.25 8.25 5.2785 8.25 9V11.25H7.5C6.2595 11.25 5.25 12.2595 5.25 13.5V25.5C5.25 26.7405 6.2595 27.75 7.5 27.75H22.5C23.7405 27.75 24.75 26.7405 24.75 25.5V13.5C24.75 12.2595 23.7405 11.25 22.5 11.25ZM9.75 9C9.75 6.105 12.105 3.75 15 3.75C17.895 3.75 20.25 6.105 20.25 9V11.25H9.75V9ZM23.25 25.5C23.25 25.914 22.914 26.25 22.5 26.25H7.5C7.086 26.25 6.75 25.914 6.75 25.5V13.5C6.75 13.086 7.086 12.75 7.5 12.75H22.5C22.914 12.75 23.25 13.086 23.25 13.5V25.5Z" fill="#343434"/>
</svg>
