<svg width="30" height="30" viewBox="0 0 30 30" fill="none" xmlns="http://www.w3.org/2000/svg">
  <path d="M15.8175 15.0001L25.8283 4.98806C26.0541 4.76225 26.0541 4.39517 25.8283 4.16936C25.6026 3.94355 25.2355 3.94355 25.0097 4.16936L14.9988 14.1814L4.98795 4.16936C4.76216 3.94355 4.39512 3.94355 4.16934 4.16936C3.94355 4.39517 3.94355 4.76225 4.16934 4.98806L14.1802 15.0001L4.16934 25.0122C3.94355 25.238 3.94355 25.6051 4.16934 25.8309C4.28281 25.9444 4.43102 26 4.57922 26C4.72743 26 4.87563 25.9433 4.98911 25.8309L15 15.8189L25.0109 25.8309C25.1244 25.9444 25.2726 26 25.4208 26C25.569 26 25.7172 25.9433 25.8307 25.8309C26.0564 25.6051 26.0564 25.238 25.8307 25.0122L15.8198 15.0001H15.8175Z" fill="#343434"/>
</svg>
