<svg width="30" height="30" viewBox="0 0 30 30" fill="none" xmlns="http://www.w3.org/2000/svg">
  <path d="M24.6667 19.8333H21.09V10.1667H24.6667C27.3318 10.1667 29.5 7.99843 29.5 5.33333C29.5 2.66823 27.3318 0.5 24.6667 0.5C22.0016 0.5 19.8333 2.66823 19.8333 5.33333V8.91H10.1667V5.33333C10.1667 2.66823 7.99843 0.5 5.33333 0.5C2.66823 0.5 0.5 2.66823 0.5 5.33333C0.5 7.99843 2.66823 10.1667 5.33333 10.1667H8.91V19.8333H5.33333C2.66823 19.8333 0.5 22.0016 0.5 24.6667C0.5 27.3318 2.66823 29.5 5.33333 29.5C7.99843 29.5 10.1667 27.3318 10.1667 24.6667V21.09H19.8333V24.6667C19.8333 27.3318 22.0016 29.5 24.6667 29.5C27.3318 29.5 29.5 27.3318 29.5 24.6667C29.5 22.0016 27.3318 19.8333 24.6667 19.8333ZM21.09 5.33333C21.09 3.342 22.6753 1.75667 24.6667 1.75667C26.658 1.75667 28.2433 3.342 28.2433 5.33333C28.2433 7.32467 26.658 8.91 24.6667 8.91H21.09V5.33333ZM5.33333 8.91C3.342 8.91 1.75667 7.32467 1.75667 5.33333C1.75667 3.342 3.342 1.75667 5.33333 1.75667C7.32467 1.75667 8.91 3.342 8.91 5.33333V8.91H5.33333ZM8.91 24.6667C8.91 26.658 7.32467 28.2433 5.33333 28.2433C3.342 28.2433 1.75667 26.658 1.75667 24.6667C1.75667 22.6753 3.342 21.09 5.33333 21.09H8.91V24.6667ZM10.1667 19.8333V10.1667H19.8333V19.8333H10.1667ZM24.6667 28.2433C22.6753 28.2433 21.09 26.658 21.09 24.6667V21.09H24.6667C26.658 21.09 28.2433 22.6753 28.2433 24.6667C28.2433 26.658 26.658 28.2433 24.6667 28.2433Z" fill="#343434"/>
</svg>
