<svg width="30" height="30" viewBox="0 0 30 30" fill="none" xmlns="http://www.w3.org/2000/svg">
<path d="M27.75 3H19.125L17.1 0.3C16.959 0.111 16.7355 0 16.5 0H13.5C13.2645 0 13.041 0.111 12.9 0.3L10.875 3H2.25C1.836 3 1.5 3.336 1.5 3.75C1.5 4.164 1.836 4.5 2.25 4.5H27.75C28.164 4.5 28.5 4.164 28.5 3.75C28.5 3.336 28.164 3 27.75 3ZM13.875 1.5H16.125L17.25 3H12.75L13.875 1.5Z" fill="#343434"/>
<path d="M26.373 6.0105C25.965 5.943 25.578 6.219 25.5105 6.627L22.0065 27.648C21.93 28.1025 21.4605 28.5015 21 28.5015H9C8.5395 28.5015 8.0685 28.1025 7.9935 27.648L4.4895 6.627C4.422 6.219 4.035 5.943 3.627 6.0105C3.219 6.078 2.943 6.465 3.0105 6.873L6.5145 27.894C6.711 29.0745 7.803 30 9.0015 30H21.0015C22.1985 30 23.2905 29.0745 23.4885 27.894L26.9925 6.873C27.06 6.465 26.784 6.078 26.376 6.0105H26.373Z" fill="#343434"/>
</svg>
