<svg width="30" height="30" viewBox="0 0 30 30" fill="none" xmlns="http://www.w3.org/2000/svg">
  <path d="M25 20H21.3V10H25C27.757 10 30 7.757 30 5C30 2.243 27.757 0 25 0C22.243 0 20 2.243 20 5V8.7H10V5C10 2.243 7.757 0 5 0C2.243 0 0 2.243 0 5C0 7.757 2.243 10 5 10H8.7V20H5C2.243 20 0 22.243 0 25C0 27.757 2.243 30 5 30C7.757 30 10 27.757 10 25V21.3H20V25C20 27.757 22.243 30 25 30C27.757 30 30 27.757 30 25C30 22.243 27.757 20 25 20ZM21.3 5C21.3 2.94 22.94 1.3 25 1.3C27.06 1.3 28.7 2.94 28.7 5C28.7 7.06 27.06 8.7 25 8.7H21.3V5ZM5 8.7C2.94 8.7 1.3 7.06 1.3 5C1.3 2.94 2.94 1.3 5 1.3C7.06 1.3 8.7 2.94 8.7 5V8.7H5ZM8.7 25C8.7 27.06 7.06 28.7 5 28.7C2.94 28.7 1.3 27.06 1.3 25C1.3 22.94 2.94 21.3 5 21.3H8.7V25ZM10 20V10H20V20H10ZM25 28.7C22.94 28.7 21.3 27.06 21.3 25V21.3H25C27.06 21.3 28.7 22.94 28.7 25C28.7 27.06 27.06 28.7 25 28.7Z" fill="#343434"/>
</svg>
