<svg width="30" height="30" viewBox="0 0 30 30" fill="none" xmlns="http://www.w3.org/2000/svg">
<path d="M27.75 4.5H2.25C1.0095 4.5 0 5.5095 0 6.75V23.25C0 24.4905 1.0095 25.5 2.25 25.5H27.75C28.9905 25.5 30 24.4905 30 23.25V6.75C30 5.5095 28.9905 4.5 27.75 4.5ZM2.25 6H27.75C28.164 6 28.5 6.336 28.5 6.75V7.5H1.5V6.75C1.5 6.336 1.836 6 2.25 6ZM28.5 9V13.5H1.5V9H28.5ZM27.75 24H2.25C1.836 24 1.5 23.664 1.5 23.25V15H28.5V23.25C28.5 23.664 28.164 24 27.75 24Z" fill="#343434"/>
<path d="M25.5 21H27V22.5H25.5V21Z" fill="#343434"/>
<path d="M19.5 21H24V22.5H19.5V21Z" fill="#343434"/>
<path d="M15 21H18V22.5H15V21Z" fill="#343434"/>
</svg>
