<svg width="30" height="30" viewBox="0 0 30 30" fill="none" xmlns="http://www.w3.org/2000/svg">
<path d="M23.9994 15.7474C23.9994 15.9394 23.9259 16.1314 23.7804 16.2784L14.7804 25.2784C14.4879 25.5709 14.0124 25.5709 13.7199 25.2784C13.4274 24.9859 13.4274 24.5104 13.7199 24.2179L22.1889 15.7489L13.7199 7.27988C13.4274 6.98738 13.4274 6.51188 13.7199 6.21938C14.0124 5.92688 14.4879 5.92688 14.7804 6.21938L23.7804 15.2194C23.9274 15.3664 23.9994 15.5584 23.9994 15.7504V15.7474Z" fill="#343434"/>
<path d="M17.9989 15.7479C17.9989 15.9399 17.9254 16.1319 17.7799 16.2789L8.77987 25.2789C8.48737 25.5714 8.01188 25.5714 7.71938 25.2789C7.42687 24.9864 7.42687 24.5109 7.71938 24.2184L16.1884 15.7494L7.71938 7.28043C7.42687 6.98793 7.42687 6.51243 7.71938 6.21993C8.01188 5.92743 8.48737 5.92743 8.77987 6.21993L17.7799 15.2199C17.9269 15.3669 17.9989 15.5589 17.9989 15.7509V15.7479Z" fill="#343434"/>
</svg>
