<svg width="30" height="30" viewBox="0 0 30 30" fill="none" xmlns="http://www.w3.org/2000/svg">
<path d="M25.7059 0H5.82353C4.55871 0 3.52941 1.06263 3.52941 2.36842V4.73684H2.76471C2.34259 4.73684 2 5.09053 2 5.52632C2 5.96211 2.34259 6.31579 2.76471 6.31579H3.52941V7.89474H2.76471C2.34259 7.89474 2 8.24842 2 8.68421C2 9.12 2.34259 9.47368 2.76471 9.47368H3.52941V11.0526H2.76471C2.34259 11.0526 2 11.4063 2 11.8421C2 12.2779 2.34259 12.6316 2.76471 12.6316H3.52941V14.2105H2.76471C2.34259 14.2105 2 14.5642 2 15C2 15.4358 2.34259 15.7895 2.76471 15.7895H3.52941V17.3684H2.76471C2.34259 17.3684 2 17.7221 2 18.1579C2 18.5937 2.34259 18.9474 2.76471 18.9474H3.52941V20.5263H2.76471C2.34259 20.5263 2 20.88 2 21.3158C2 21.7516 2.34259 22.1053 2.76471 22.1053H3.52941V23.6842H2.76471C2.34259 23.6842 2 24.0379 2 24.4737C2 24.9095 2.34259 25.2632 2.76471 25.2632H3.52941V27.6316C3.52941 28.9374 4.55871 30 5.82353 30H25.7059C26.9707 30 28 28.9374 28 27.6316V2.36842C28 1.06263 26.9707 0 25.7059 0ZM26.4706 27.6316C26.4706 28.0674 26.128 28.4211 25.7059 28.4211H5.82353C5.40141 28.4211 5.05882 28.0674 5.05882 27.6316V25.2632H7.35294C7.77506 25.2632 8.11765 24.9095 8.11765 24.4737C8.11765 24.0379 7.77506 23.6842 7.35294 23.6842H5.05882V22.1053H7.35294C7.77506 22.1053 8.11765 21.7516 8.11765 21.3158C8.11765 20.88 7.77506 20.5263 7.35294 20.5263H5.05882V18.9474H7.35294C7.77506 18.9474 8.11765 18.5937 8.11765 18.1579C8.11765 17.7221 7.77506 17.3684 7.35294 17.3684H5.05882V15.7895H7.35294C7.77506 15.7895 8.11765 15.4358 8.11765 15C8.11765 14.5642 7.77506 14.2105 7.35294 14.2105H5.05882V12.6316H7.35294C7.77506 12.6316 8.11765 12.2779 8.11765 11.8421C8.11765 11.4063 7.77506 11.0526 7.35294 11.0526H5.05882V9.47368H7.35294C7.77506 9.47368 8.11765 9.12 8.11765 8.68421C8.11765 8.24842 7.77506 7.89474 7.35294 7.89474H5.05882V6.31579H7.35294C7.77506 6.31579 8.11765 5.96211 8.11765 5.52632C8.11765 5.09053 7.77506 4.73684 7.35294 4.73684H5.05882V2.36842C5.05882 1.93263 5.40141 1.57895 5.82353 1.57895H25.7059C26.128 1.57895 26.4706 1.93263 26.4706 2.36842V27.6316Z" fill="#343434"/>
<path d="M17.4685 22.309H17.4669C15.9498 22.309 12.3495 22.2853 11.7026 22.0658C11.0419 21.8416 10.7085 21.0837 10.8553 20.1347C11.0128 19.1132 11.6705 18.0442 12.6126 17.2753C13.4415 16.5995 14.9266 15.7926 17.2926 15.7911H17.3002C19.1569 15.7911 20.7628 16.2932 21.9451 17.2453C22.8979 18.0126 23.5448 19.0437 23.7192 20.0763C23.8813 21.0379 23.5616 21.8163 22.9055 22.0595C22.722 22.1274 22.3978 22.2047 20.8531 22.26C19.9415 22.2932 18.7394 22.3105 17.4685 22.3105V22.309ZM12.3495 20.5895C12.9965 20.6621 14.9144 20.73 17.4685 20.73H17.47C20.1969 20.73 21.708 20.6558 22.2356 20.5942C22.2402 20.3716 22.1607 19.909 21.8074 19.3642C21.3226 18.619 20.0929 17.3684 17.3033 17.3684H17.2972C14.5167 17.37 13.2809 18.6174 12.7915 19.3611C12.4367 19.9011 12.3511 20.3621 12.3526 20.5879L12.3495 20.5895Z" fill="#343434"/>
<path d="M17.2941 14.2105C15.6072 14.2105 14.2353 12.7942 14.2353 11.0526C14.2353 9.31105 15.6072 7.89474 17.2941 7.89474C18.9811 7.89474 20.3529 9.31105 20.3529 11.0526C20.3529 12.7942 18.9811 14.2105 17.2941 14.2105ZM17.2941 9.47368C16.4514 9.47368 15.7647 10.1826 15.7647 11.0526C15.7647 11.9226 16.4514 12.6316 17.2941 12.6316C18.1368 12.6316 18.8235 11.9226 18.8235 11.0526C18.8235 10.1826 18.1368 9.47368 17.2941 9.47368Z" fill="#343434"/>
</svg>
