<svg width="30" height="30" viewBox="0 0 30 30" fill="none" xmlns="http://www.w3.org/2000/svg">
  <path d="M28.662 2.30647C27.9757 1.83353 27.0173 1.41706 25.8146 1.06765C23.4471 0.379412 18.3172 0 14.9983 0C11.6794 0 6.54766 0.379412 4.18198 1.06765C2.9792 1.41706 2.02253 1.83353 1.33449 2.30647C0.230502 3.06529 0 3.87 0 4.41176V5.29412C0 6.04941 0.556326 7.29353 1.10745 8.13353L10.5841 21.0794C11.0191 21.7429 11.4003 23.0259 11.4003 23.8235V29.1176C11.4003 29.4229 11.5563 29.7071 11.8111 29.8676C11.9497 29.9559 12.1075 30 12.2669 30C12.3986 30 12.5321 29.9682 12.6551 29.9065L18.1213 28.1418C18.4142 27.9918 18.5997 27.6865 18.5997 27.3529V23.8235C18.5997 23.0259 18.9809 21.7429 19.4159 21.0794L28.8925 8.13353C29.4419 7.29353 30 6.04765 30 5.29412V4.41176C30 3.87 29.7678 3.06529 28.6655 2.30647H28.662ZM4.65858 2.76529C6.87522 2.12118 11.8371 1.76471 14.9983 1.76471C18.1594 1.76471 23.1231 2.11941 25.338 2.76529C27.7262 3.46059 28.2634 4.20529 28.2634 4.41176C28.2634 4.61824 27.7262 5.36471 25.338 6.05824C23.1213 6.70235 18.1594 7.05882 14.9983 7.05882C11.8371 7.05882 6.87348 6.70412 4.65858 6.05824C2.27036 5.36294 1.7331 4.61824 1.7331 4.41176C1.7331 4.20529 2.27036 3.45882 4.65858 2.76529ZM17.9723 20.1018C17.3518 21.0494 16.8648 22.6853 16.8648 23.8235V26.8076L13.1317 27.69V23.8235C13.1317 22.6835 12.6447 21.0494 12.0243 20.1018L2.56672 7.18412C3.04159 7.39059 3.58059 7.58294 4.18198 7.75588C6.54939 8.44412 11.6794 8.82353 14.9983 8.82353C18.3172 8.82353 23.4489 8.44412 25.8146 7.75588C26.4142 7.58118 26.9549 7.39059 27.4298 7.18235L17.9723 20.1V20.1018Z" fill="#343434"/>
</svg>
