<svg width="30" height="30" viewBox="0 0 30 30" fill="none" xmlns="http://www.w3.org/2000/svg">
<path d="M29.25 0H21.75C21.336 0 21 0.336 21 0.75C21 1.164 21.336 1.5 21.75 1.5H27.4995L10.7205 18.219C10.4265 18.5115 10.4265 18.9855 10.719 19.2795C10.866 19.4265 11.058 19.5 11.25 19.5C11.442 19.5 11.6325 19.4265 11.7795 19.281L28.5 2.6205V8.25C28.5 8.664 28.836 9 29.25 9C29.664 9 30 8.664 30 8.25V0.75C30 0.336 29.664 0 29.25 0Z" fill="#343434"/>
<path d="M24.75 30H2.25C1.0095 30 0 28.9905 0 27.75V5.25C0 4.0095 1.0095 3 2.25 3H17.25C17.664 3 18 3.336 18 3.75C18 4.164 17.664 4.5 17.25 4.5H2.25C1.836 4.5 1.5 4.836 1.5 5.25V27.75C1.5 28.164 1.836 28.5 2.25 28.5H24.75C25.164 28.5 25.5 28.164 25.5 27.75V12.75C25.5 12.336 25.836 12 26.25 12C26.664 12 27 12.336 27 12.75V27.75C27 28.9905 25.9905 30 24.75 30Z" fill="#343434"/>
</svg>
