<svg width="30" height="30" viewBox="0 0 30 30" fill="none" xmlns="http://www.w3.org/2000/svg">
<path d="M0.78939 30C0.353647 30 0 29.664 0 29.2499V3.74737C0 3.33333 0.353647 2.99729 0.78939 2.99729C1.22513 2.99729 1.57878 3.33333 1.57878 3.74737V29.2499C1.57878 29.664 1.22513 30 0.78939 30Z" fill="#343434"/>
<path d="M22.8923 17.9988C19.408 17.9988 17.6081 16.2886 16.0183 14.7795C14.4474 13.2868 13.0913 11.9982 10.2621 11.9982C7.43291 11.9982 6.07516 13.2868 4.50585 14.7795C4.19799 15.072 3.69751 15.072 3.38965 14.7795C3.08179 14.487 3.08179 14.0114 3.38965 13.7189C4.9779 12.2097 6.77771 10.4996 10.2637 10.4996C13.7496 10.4996 15.5478 12.2097 17.1377 13.7189C18.7086 15.2115 20.0647 16.5002 22.8939 16.5002C25.5841 16.5002 26.9435 15.336 28.4196 13.9394V5.49655C27.095 6.58116 25.4468 7.49925 22.8939 7.49925C19.4095 7.49925 17.6097 5.78908 16.0199 4.27993C14.449 2.78728 13.0928 1.49865 10.2637 1.49865C7.43449 1.49865 6.07673 2.78728 4.50743 4.27993C4.19956 4.57246 3.69909 4.57246 3.39123 4.27993C3.08337 3.9874 3.08337 3.51185 3.39123 3.21932C4.97948 1.71017 6.77929 0 10.2652 0C13.7512 0 15.5494 1.71017 17.1393 3.21932C18.7101 4.71197 20.0663 6.0006 22.8955 6.0006C25.7247 6.0006 27.0824 4.71197 28.6517 3.21932C28.8775 3.0048 29.2169 2.94029 29.5122 3.05731C29.8074 3.17432 30 3.44735 30 3.75038V14.2514C30 14.4509 29.9163 14.6415 29.7695 14.7825C28.1812 16.2916 26.3814 18.0018 22.8955 18.0018L22.8923 17.9988Z" fill="#343434"/>
</svg>
