<svg width="30" height="30" viewBox="0 0 30 30" fill="none" xmlns="http://www.w3.org/2000/svg">
  <path d="M28.4722 16.8112C29.1273 16.0447 29.5 14.7788 29.5 13.5728C29.5 12.7764 29.3299 12.0789 29.0075 11.5554C28.5875 10.8745 27.9161 10.4995 27.1175 10.4995H23.2457C25.3531 6.61317 25.8855 3.68532 24.8281 1.78941C24.0901 0.467977 22.7384 0 21.8037 0C21.434 0 21.1205 0.277486 21.0717 0.649468C20.807 2.62787 19.3147 4.98875 16.978 7.12614C14.739 9.17354 11.9882 10.81 9.16051 11.7909C8.8041 11.0289 8.0395 10.501 7.15511 10.501H2.71837C1.49531 10.501 0.5 11.5104 0.5 12.7509V26.2502C0.5 27.4906 1.49531 28.5001 2.71837 28.5001H7.15511C8.09274 28.5001 8.89431 27.9076 9.21967 27.0721C12.1198 27.4411 13.2113 28.0321 14.2687 28.6051C15.5923 29.322 16.8405 30 20.9282 30C21.993 30 22.9957 29.718 23.7529 29.2065C24.4924 28.7071 24.9657 28.0051 25.1224 27.1921C25.7125 26.9492 26.236 26.3882 26.6368 25.5542C27.0273 24.7428 27.2802 23.7063 27.2802 22.9129C27.2802 22.7644 27.2713 22.6279 27.255 22.5019C27.6292 22.2229 27.9649 21.7924 28.2414 21.2254C28.6408 20.408 28.8803 19.3835 28.8803 18.4866C28.8803 17.8506 28.7635 17.3211 28.5343 16.9102C28.515 16.8772 28.4958 16.8442 28.4766 16.8127L28.4722 16.8112ZM7.15215 26.9986H2.71541C2.30723 26.9986 1.97596 26.6627 1.97596 26.2487V12.7494C1.97596 12.3354 2.30723 11.9994 2.71541 11.9994H7.15215C7.56033 11.9994 7.89161 12.3354 7.89161 12.7494V26.2472V26.2487C7.89161 26.6627 7.56033 26.9986 7.15215 26.9986ZM27.6188 15.4102C27.3955 15.8662 27.1692 16.0312 27.0716 16.0312C26.6634 16.0312 26.3322 16.3672 26.3322 16.7812C26.3322 17.1951 26.6634 17.5311 27.0716 17.5311C27.1337 17.5311 27.1781 17.5311 27.2447 17.6481C27.3423 17.8236 27.3985 18.1281 27.3985 18.4851C27.3985 19.1525 27.2121 19.946 26.9134 20.558C26.6206 21.1564 26.3233 21.3739 26.1932 21.3739C25.785 21.3739 25.4537 21.7099 25.4537 22.1239C25.4537 22.3894 25.5898 22.6234 25.7953 22.7569C25.8412 23.2323 25.6223 24.5043 25.0544 25.3337C24.8399 25.6472 24.6137 25.8272 24.4362 25.8272C24.028 25.8272 23.6967 26.1632 23.6967 26.5772C23.6967 27.8971 22.2592 28.4986 20.9238 28.4986C17.2073 28.4986 16.1661 27.9346 14.9608 27.2806C13.8339 26.6702 12.5679 25.9832 9.36904 25.5797V13.2998C12.4762 12.2664 15.5095 10.4845 17.9645 8.24059C20.3204 6.0867 21.8673 3.75881 22.3923 1.60192C22.7946 1.73241 23.2486 2.0084 23.54 2.52887C24.0339 3.41383 24.4037 5.67272 21.332 10.864C21.1944 11.0949 21.1915 11.3844 21.3231 11.6199C21.4547 11.8554 21.7002 12.0009 21.9664 12.0009H27.1175C27.4118 12.0009 27.6011 12.1059 27.7534 12.3519C27.9264 12.6324 28.0211 13.0673 28.0211 13.5743C28.0211 14.2103 27.8702 14.8973 27.6188 15.4117V15.4102Z" fill="#343434"/>
</svg>
