<svg width="30" height="30" viewBox="0 0 30 30" fill="none" xmlns="http://www.w3.org/2000/svg">
  <path d="M23.25 30C19.5285 30 16.5 26.9715 16.5 23.25C16.5 19.5285 19.5285 16.5 23.25 16.5C26.9715 16.5 30 19.5285 30 23.25C30 26.9715 26.9715 30 23.25 30ZM23.25 18C20.355 18 18 20.355 18 23.25C18 26.145 20.355 28.5 23.25 28.5C26.145 28.5 28.5 26.145 28.5 23.25C28.5 20.355 26.145 18 23.25 18Z" fill="#343434"/>
  <path d="M16.5 29.1561C16.5 29.2878 16.473 29.4211 16.4175 29.5426C16.2885 29.8245 16.032 30 15.75 30H0.750677C0.470189 30 0.212201 29.8228 0.0832063 29.5426C-0.0457882 29.2625 -0.023289 28.9232 0.140204 28.6667L7.63988 16.8527C7.78088 16.6316 8.00737 16.5 8.25035 16.5C8.49334 16.5 8.71983 16.6316 8.86083 16.8527L16.3605 28.6667C16.4535 28.8119 16.5 28.984 16.5 29.1578V29.1561ZM1.98 28.5H14.49L8.25185 18.6L1.98 28.5Z" fill="#343434"/>
  <path d="M29.25 0H17.25C16.8915 0 16.4939 0.39115 16.5001 0.74933L16.5 12.7507C16.5 13.1643 16.836 13.5 17.25 13.5H29.25C29.664 13.5 30 13.1643 30 12.7507V0.74933C30 0.3357 29.664 0 29.25 0ZM18 12.0013V1.49866H28.5V12.0013H18Z" fill="#343434"/>
  <path d="M15.45 6.75C15.4503 6.3 14.8501 5.33587 14.8501 5.33587L12.4531 1.50037C12.4531 1.50037 11.7001 0.11913 11.4751 0L3.97507 6.40154e-05C3.75 0.119034 2.99707 1.50037 2.99707 1.50037L0.600073 5.33587C0.600073 5.33587 0.000112515 6.3 1.58271e-08 6.75C-0.000112533 7.2 0.600073 8.16487 0.600073 8.16487L2.99707 12.0004C2.99707 12.0004 3.78015 13.3968 3.97507 13.5H11.4751C11.6628 13.4003 12.4501 12.0004 12.4501 12.0004L14.8471 8.16487C14.8471 8.16487 15.4497 7.2 15.45 6.75ZM10.6846 12.0004H4.76557L1.48357 6.75037L4.76557 1.50037H10.6846L13.9666 6.75037L10.6846 12.0004Z" fill="#343434"/>
</svg>
