<svg width="30" height="30" viewBox="0 0 30 30" fill="none" xmlns="http://www.w3.org/2000/svg">
<path d="M15 30C10.9926 30 7.22684 28.44 4.39263 25.6074C1.55842 22.7747 0 19.0074 0 15.0016C0 10.9942 1.56 7.22842 4.39263 4.39421C7.22526 1.56 10.9926 0 15 0C19.0074 0 22.7732 1.56 25.6074 4.39421C28.4416 7.22842 30 10.9942 30 15.0016C30 19.0089 28.44 22.7747 25.6074 25.6074C22.7747 28.44 19.0074 30 15 30ZM15 1.57895C7.59947 1.57895 1.57895 7.59947 1.57895 15C1.57895 22.4005 7.59947 28.4211 15 28.4211C22.4005 28.4211 28.4211 22.4005 28.4211 15C28.4211 7.59947 22.4005 1.57895 15 1.57895Z" fill="#343434"/>
<path d="M14.3571 25.5C13.884 25.5 13.5 25.1382 13.5 24.6923V5.30769C13.5 4.86185 13.884 4.5 14.3571 4.5C20.5011 4.5 25.5 9.21046 25.5 15C25.5 20.7895 20.5011 25.5 14.3571 25.5ZM15.2143 6.15254V23.8491C20.0126 23.4404 23.7857 19.6281 23.7857 15.0016C23.7857 10.3752 20.0126 6.56285 15.2143 6.15415V6.15254Z" fill="#343434"/>
</svg>
