<svg width="30" height="30" viewBox="0 0 30 30" fill="none" xmlns="http://www.w3.org/2000/svg">
  <path d="M27.75 30H2.25C1.0095 30 0 28.9905 0 27.75V2.25C0 1.0095 1.0095 0 2.25 0H27.75C28.9905 0 30 1.0095 30 2.25V27.75C30 28.9905 28.9905 30 27.75 30ZM2.25 1.5C1.836 1.5 1.5 1.836 1.5 2.25V27.75C1.5 28.164 1.836 28.5 2.25 28.5H27.75C28.164 28.5 28.5 28.164 28.5 27.75V2.25C28.5 1.836 28.164 1.5 27.75 1.5H2.25Z" fill="#343434"/>
  <path d="M20 30C19.586 30 19.25 29.58 19.25 29.0625V0.9375C19.25 0.42 19.586 0 20 0C20.414 0 20.75 0.42 20.75 0.9375V29.0625C20.75 29.58 20.414 30 20 30Z" fill="#343434"/>
  <path d="M10 30C9.586 30 9.25 29.58 9.25 29.0625V0.9375C9.25 0.42 9.586 0 10 0C10.414 0 10.75 0.42 10.75 0.9375V29.0625C10.75 29.58 10.414 30 10 30Z" fill="#343434"/>
  <path d="M30 10C30 10.414 29.58 10.75 29.0625 10.75L0.9375 10.75C0.42 10.75 0 10.414 0 10C0 9.586 0.42 9.25 0.9375 9.25L29.0625 9.25C29.58 9.25 30 9.586 30 10Z" fill="#343434"/>
  <path d="M30 20C30 20.414 29.58 20.75 29.0625 20.75L0.9375 20.75C0.42 20.75 0 20.414 0 20C0 19.586 0.42 19.25 0.9375 19.25H29.0625C29.58 19.25 30 19.586 30 20Z" fill="#343434"/>
</svg>
