<svg width="30" height="30" viewBox="0 0 30 30" fill="none" xmlns="http://www.w3.org/2000/svg">
  <path d="M15 17C14.448 17 14.25 16.6192 14.25 16.15V0.85C14.25 0.3808 14.448 0 15 0C15.552 0 15.75 0.3808 15.75 0.85V16.15C15.75 16.6192 15.552 17 15 17Z" fill="#343434"/>
  <path d="M15.0017 30C11.5294 30 8.26337 28.6744 5.80864 26.2661C3.35391 23.8579 2 20.6577 2 17.2536C2 14.4527 2.91012 11.7947 4.62982 9.5666C6.29404 7.4116 8.65862 5.80214 11.2867 5.03566C11.7461 4.90139 12.228 5.15802 12.365 5.6084C12.5019 6.05877 12.2402 6.53124 11.7808 6.6655C7.04294 8.04892 3.73183 12.4031 3.73183 17.2553C3.73183 23.3464 8.7869 28.3022 15 28.3022C21.2131 28.3022 26.2682 23.3464 26.2682 17.2553C26.2682 12.4031 22.9588 8.04892 18.2192 6.6655C17.7598 6.53124 17.4998 6.05877 17.635 5.6084C17.7702 5.15802 18.2539 4.90309 18.7133 5.03566C21.3431 5.80214 23.706 7.4116 25.3702 9.5666C27.0916 11.7947 28 14.4527 28 17.2536C28 20.6577 26.6478 23.8596 24.1914 26.2661C21.7349 28.6727 18.4706 30 14.9983 30H15.0017Z" fill="#343434"/>
</svg>
