<svg width="30" height="30" viewBox="0 0 30 30" fill="none" xmlns="http://www.w3.org/2000/svg">
<g id="plus">
<path id="Vector" d="M27.3158 14.3158H15.6842V2.68421C15.6842 2.30653 15.3777 2 15 2C14.6223 2 14.3158 2.30653 14.3158 2.68421V14.3158H2.68421C2.30653 14.3158 2 14.6223 2 15C2 15.3777 2.30653 15.6842 2.68421 15.6842H14.3158V27.3158C14.3158 27.6935 14.6223 28 15 28C15.3777 28 15.6842 27.6935 15.6842 27.3158V15.6842H27.3158C27.6935 15.6842 28 15.3777 28 15C28 14.6223 27.6935 14.3158 27.3158 14.3158Z" fill="#343434"/>
</g>
</svg>
