<svg width="30" height="30" viewBox="0 0 30 30" fill="none" xmlns="http://www.w3.org/2000/svg">
  <path d="M15 21.75C11.2785 21.75 8.25 18.7215 8.25 15C8.25 11.2785 11.2785 8.25 15 8.25C18.7215 8.25 21.75 11.2785 21.75 15C21.75 18.7215 18.7215 21.75 15 21.75ZM15 9.75C12.105 9.75 9.75 12.105 9.75 15C9.75 17.895 12.105 20.25 15 20.25C17.895 20.25 20.25 17.895 20.25 15C20.25 12.105 17.895 9.75 15 9.75Z" fill="#343434"/>
  <path d="M2.36817 26.25C1.06252 26.25 0 25.2406 0 24.0002V9.00115C0 7.76073 1.06252 6.7513 2.36817 6.7513H4.73634C5.39154 6.7513 6.40985 6.35083 6.87401 5.90986L7.79918 5.03091C8.56805 4.30046 9.96684 3.75 11.053 3.75H18.947C20.0332 3.75 21.432 4.30046 22.2008 5.03091L23.126 5.90986C23.5886 6.34933 24.6085 6.7513 25.2637 6.7513H27.6318C28.9375 6.7513 30 7.76073 30 9.00115V24.0002C30 25.2406 28.9375 26.25 27.6318 26.25H2.36817ZM2.36817 8.2512C1.93243 8.2512 1.57878 8.58718 1.57878 9.00115V24.0002C1.57878 24.4141 1.93243 24.7501 2.36817 24.7501H27.6287C28.0644 24.7501 28.4181 24.4141 28.4181 24.0002V9.00115C28.4181 8.58718 28.0644 8.2512 27.6287 8.2512H25.2605C24.1743 8.2512 22.7755 7.70074 22.0066 6.97029L21.0815 6.09134C20.6189 5.65187 19.599 5.2499 18.9438 5.2499H11.0499C10.3947 5.2499 9.37638 5.65037 8.91222 6.09134L7.98705 6.97029C7.21819 7.70074 5.82097 8.2512 4.73319 8.2512H2.36501H2.36817Z" fill="#343434"/>
</svg>
