<svg width="30" height="30" viewBox="0 0 30 30" fill="none" xmlns="http://www.w3.org/2000/svg">
<path d="M27.624 18.1149C27.675 17.7182 27.7148 17.2977 27.7148 16.8654C27.7148 11.7936 24.6641 7.22969 20.0336 5.23132C19.9189 2.55341 17.7054 0.410156 15 0.410156C12.2944 0.410156 10.0809 2.55363 9.96643 5.23155C5.33821 7.23061 2.28516 11.8014 2.28516 16.8654C2.28516 17.3014 2.32475 17.7258 2.37465 18.1158C0.950089 19.007 0 20.5893 0 22.3899C0 25.1685 2.26044 27.429 5.03906 27.429C5.83946 27.429 6.59637 27.2406 7.26906 26.9071C9.47502 28.6061 12.206 29.5383 15 29.5383C17.8033 29.5383 20.522 28.6082 22.7307 26.9069C23.4036 27.2406 24.1605 27.429 24.9609 27.429C27.7396 27.429 30 25.1685 30 22.3899C30 20.5886 29.0492 19.0059 27.624 18.1149ZM15 2.75391C16.4861 2.75391 17.6953 3.96309 17.6953 5.44922C17.6953 6.93535 16.4861 8.14453 15 8.14453C13.5139 8.14453 12.3047 6.93535 12.3047 5.44922C12.3047 3.96309 13.5139 2.75391 15 2.75391ZM5.03906 25.0852C3.55293 25.0852 2.34375 23.876 2.34375 22.3899C2.34375 20.9038 3.55293 19.6946 5.03906 19.6946C6.52519 19.6946 7.73438 20.9038 7.73438 22.3899C7.73438 23.876 6.52519 25.0852 5.03906 25.0852ZM9.11201 25.3521C9.71878 24.5199 10.0781 23.4963 10.0781 22.3899C10.0781 19.6113 7.81769 17.3508 5.03906 17.3508C4.9086 17.3508 4.77951 17.3575 4.65134 17.3673C4.63737 17.1975 4.62891 17.0311 4.62891 16.8654C4.62891 12.9073 6.92093 9.31778 10.4407 7.59247C11.2477 9.30199 12.9874 10.4883 15 10.4883C17.0126 10.4883 18.7525 9.30199 19.5593 7.59224C23.0809 9.31664 25.3711 12.9012 25.3711 16.8654C25.3711 17.03 25.3619 17.1977 25.3477 17.3673C25.2198 17.3575 25.0912 17.3508 24.9609 17.3508C22.1823 17.3508 19.9219 19.6113 19.9219 22.3899C19.9219 23.4963 20.2812 24.5199 20.888 25.3521C19.1675 26.5462 17.1133 27.1946 15 27.1946C12.8938 27.1946 10.8318 26.5448 9.11201 25.3521ZM24.9609 25.0852C23.4748 25.0852 22.2656 23.876 22.2656 22.3899C22.2656 20.9038 23.4748 19.6946 24.9609 19.6946C26.4471 19.6946 27.6562 20.9038 27.6562 22.3899C27.6562 23.876 26.4471 25.0852 24.9609 25.0852Z" fill="#343434"/>
</svg>
