<svg width="30" height="30" viewBox="0 0 30 30" fill="none" xmlns="http://www.w3.org/2000/svg">
  <path id="Vector" d="M29.3158 14.3158H15.6842V0.684211C15.6842 0.306526 15.3777 0 15 0C14.6223 0 14.3158 0.306526 14.3158 0.684211V14.3158H0.684211C0.306526 14.3158 0 14.6223 0 15C0 15.3777 0.306526 15.6842 0.684211 15.6842H14.3158V29.3158C14.3158 29.6935 14.6223 30 15 30C15.3777 30 15.6842 29.6935 15.6842 29.3158V15.6842H29.3158C29.6935 15.6842 30 15.3777 30 15C30 14.6223 29.6935 14.3158 29.3158 14.3158Z" fill="#343434"/>
</svg>
