<svg width="30" height="30" viewBox="0 0 30 30" fill="none" xmlns="http://www.w3.org/2000/svg">
  <path d="M23.25 15H6.75C6.33 15 6 14.67 6 14.25V6C6 5.595 6.33 5.25 6.75 5.25H24.75C25.245 5.25 25.5 4.92 25.5 4.5C25.5 4.08 25.245 3.75 24.75 3.75H15.75V2.25006C15.75 1.905 15.42 1.5 15 1.5C14.58 1.5 14.25 1.905 14.25 2.25006V3.75H6.75C5.505 3.75 4.50007 4.755 4.5 6V14.25C4.50007 15.495 5.505 16.5 6.75 16.5H23.25C23.67 16.5 24 16.83 24.0001 17.25V25.5C24.0001 25.92 23.67 26.25 23.25 26.25H5.25007C4.75507 26.25 4.50007 26.58 4.50007 27C4.50007 27.42 4.75507 27.75 5.25007 27.75H14.25V29.115C14.25 29.595 14.58 30 15 30C15.42 30 15.75 29.595 15.75 29.115V27.75H23.25C24.495 27.75 25.5001 26.745 25.5 25.5V17.25C25.5001 16.005 24.495 15 23.25 15Z" fill="#343434"/>
  <path d="M15 30C14.586 30 14.25 29.601 14.25 29.1094V2.39062C14.25 1.899 14.586 1.5 15 1.5C15.414 1.5 15.75 1.899 15.75 2.39062V29.1094C15.75 29.601 15.414 30 15 30Z" fill="#343434"/>
</svg>
