<svg width="30" height="30" viewBox="0 0 30 30" fill="none" xmlns="http://www.w3.org/2000/svg">
<path d="M26.2622 5.80823C23.8549 3.35353 20.6526 2 17.2478 2C13.843 2 10.6407 3.352 8.23336 5.80823C5.82601 8.26447 4.49859 11.5282 4.49859 15V16.9775L1.27979 13.6954C0.987313 13.3972 0.511843 13.3972 0.219361 13.6954C-0.0731204 13.9936 -0.0731204 14.4785 0.219361 14.7767L4.71908 19.3649C4.86607 19.5148 5.05806 19.5882 5.25005 19.5882C5.44203 19.5882 5.63402 19.5133 5.78101 19.3649L10.2807 14.7767C10.5732 14.4785 10.5732 13.9936 10.2807 13.6954C9.98825 13.3972 9.51278 13.3972 9.2203 13.6954L6.0015 16.9775V15C6.0015 8.67435 11.0472 3.52941 17.2508 3.52941C23.4544 3.52941 28.5001 8.67435 28.5001 15C28.5001 21.3256 23.4544 26.4706 17.2508 26.4706C16.8368 26.4706 16.5008 26.8132 16.5008 27.2353C16.5008 27.6574 16.8368 28 17.2508 28C20.6556 28 23.8579 26.648 26.2652 24.1918C28.6726 21.7355 30 18.4718 30 15C30 11.5282 28.6741 8.26294 26.2652 5.80823H26.2622Z" fill="#343434"/>
</svg>
