<svg width="31" height="32" viewBox="0 0 31 32" fill="none" xmlns="http://www.w3.org/2000/svg">
<path d="M13.75 19C13.552 19 13.36 18.9205 13.2205 18.7795C13.081 18.6385 13 18.4465 13 18.25C13 18.0535 13.0795 17.8585 13.2205 17.7205C13.36 17.581 13.5535 17.5 13.75 17.5C13.9465 17.5 14.1415 17.5795 14.2795 17.7205C14.419 17.86 14.5 18.0535 14.5 18.25C14.5 18.4465 14.4205 18.6415 14.2795 18.7795C14.14 18.919 13.9465 19 13.75 19Z" fill="#343434"/>
<path d="M29.9695 23.3725C28.8475 21.598 27.0505 20.494 25.2805 20.494C24.5485 20.494 23.848 20.692 23.254 21.067C22.306 21.6655 21.6895 22.654 21.493 23.8705L19.531 20.8465C19.5265 20.8405 19.522 20.833 19.519 20.827L6.87851 1.34199C6.74051 1.12899 6.50351 0.999993 6.25001 0.999993H6.24851C5.99351 1.00149 5.75651 1.13049 5.61851 1.34499L4.50551 3.08199C3.91601 4.00299 3.82751 5.43999 4.30151 6.42699L10.9255 20.2225C11.404 21.22 12.6445 22 13.7515 22L18.49 21.9955L22.357 27.958C22.39 28.0135 22.423 28.069 22.4575 28.123C23.5795 29.8975 25.3765 31.0015 27.1465 31.0015C27.8785 31.0015 28.579 30.8035 29.1715 30.4285C30.2065 29.7745 30.847 28.657 30.976 27.283C31.0975 25.9825 30.7405 24.5935 29.9695 23.3725ZM13.75 20.5C13.2115 20.5 12.5095 20.0575 12.277 19.573L5.65301 5.77749C5.40851 5.26749 5.46251 4.36749 5.76851 3.89199L6.25301 3.13449L17.515 20.4955L13.7485 20.5H13.75ZM29.4835 27.142C29.3995 28.042 29.0035 28.759 28.3705 29.1595C28.0135 29.386 27.601 29.5 27.1465 29.5C25.987 29.5 24.739 28.753 23.8975 27.5755L23.635 27.1705C23.1025 26.2675 22.858 25.2745 22.945 24.352C23.029 23.452 23.425 22.735 24.058 22.3345C24.415 22.108 24.8275 21.994 25.282 21.994C26.524 21.994 27.8665 22.849 28.7035 24.1735C29.299 25.1155 29.5765 26.1685 29.485 27.142H29.4835Z" fill="#343434"/>
<path d="M21.25 18.8755C21.1405 18.8755 21.031 18.8515 20.926 18.802C20.5525 18.622 20.395 18.175 20.575 17.8015L26.347 5.77749C26.5915 5.26749 26.5375 4.36749 26.2315 3.89199L25.747 3.13449L18.88 13.72C18.655 14.068 18.19 14.167 17.842 13.9405C17.494 13.714 17.395 13.2505 17.6215 12.9025L25.1215 1.34049C25.2595 1.12749 25.4965 0.998489 25.75 0.998489H25.7515C26.0065 0.999989 26.2435 1.12899 26.3815 1.34349L27.4945 3.08049C28.084 4.00149 28.1725 5.43849 27.6985 6.42549L21.9265 18.4495C21.7975 18.718 21.529 18.8755 21.25 18.8755Z" fill="#343434"/>
<path d="M11.563 23.6215C11.215 23.3965 10.7515 23.4955 10.525 23.842L10.5055 23.872C10.309 22.654 9.69252 21.667 8.74452 21.0685C8.15202 20.6935 7.45152 20.4955 6.71802 20.4955C4.94802 20.4955 3.15102 21.598 2.02902 23.374C1.25802 24.5935 0.899521 25.9825 1.02252 27.2845C1.15152 28.6585 1.79202 29.7745 2.82702 30.43C3.41952 30.805 4.12002 31.003 4.85202 31.003C6.62202 31.003 8.41902 29.9005 9.54102 28.1245C9.57552 28.0705 9.60852 28.015 9.64152 27.9595L11.782 24.6595C12.007 24.3115 11.908 23.848 11.5615 23.6215H11.563ZM4.85352 29.5C4.39902 29.5 3.98652 29.386 3.62952 29.1595C2.99652 28.759 2.60052 28.0435 2.51652 27.142C2.42502 26.1685 2.70252 25.1155 3.29802 24.1735C4.13502 22.849 5.47752 21.994 6.71952 21.994C7.17402 21.994 7.58652 22.108 7.94352 22.3345C8.57652 22.735 8.97252 23.4505 9.05652 24.352C9.14352 25.273 8.89752 26.2675 8.36652 27.169L8.10402 27.574C7.26252 28.7515 6.01452 29.4985 4.85502 29.4985L4.85352 29.5Z" fill="#343434"/>
</svg>
