<svg width="30" height="30" viewBox="0 0 30 30" fill="none" xmlns="http://www.w3.org/2000/svg">
<path d="M29.052 28.743L20.1375 19.017C22.146 16.9155 23.25 14.1675 23.25 11.25C23.25 8.2455 22.08 5.4195 19.9545 3.2955C17.829 1.1715 15.0045 0 12 0C8.9955 0 6.1695 1.17 4.0455 3.2955C1.9215 5.421 0.75 8.2455 0.75 11.25C0.75 14.2545 1.92 17.0805 4.0455 19.2045C6.171 21.3285 8.9955 22.5 12 22.5C14.589 22.5 17.043 21.6315 19.032 20.0325L27.9465 29.757C28.095 29.919 28.296 30 28.5 30C28.6815 30 28.863 29.9355 29.007 29.8035C29.313 29.523 29.3325 29.049 29.0535 28.7445L29.052 28.743ZM2.2485 11.25C2.2485 5.874 6.6225 1.5 11.9985 1.5C17.3745 1.5 21.7485 5.874 21.7485 11.25C21.7485 16.626 17.3745 21 11.9985 21C6.6225 21 2.2485 16.626 2.2485 11.25Z" fill="#343434"/>
</svg>
