<svg width="30" height="30" viewBox="0 0 30 30" fill="none" xmlns="http://www.w3.org/2000/svg">
  <path d="M29.7503 0.212165C29.5343 -0.00284353 29.2268 -0.0595123 28.9598 0.0654926L0.45956 13.3993C0.171558 13.5344 -0.0114436 13.8527 0.0005565 14.1994C0.0125566 14.5461 0.216558 14.8477 0.51356 14.9577L9.00062 18.1012V27.5016C9.00062 27.8549 9.20012 28.1683 9.50013 28.2866C9.58263 28.3183 9.66663 28.3349 9.75063 28.3349C9.97263 28.3349 10.1871 28.2249 10.3326 28.0266L14.4772 22.358L21.2227 29.76C21.3652 29.9167 21.5542 30 21.7492 30C21.8122 30 21.8752 29.9917 21.9367 29.9733C22.1917 29.9 22.3942 29.6833 22.4692 29.4016L29.9693 1.0672C30.0518 0.758853 29.9648 0.425507 29.7488 0.210498L29.7503 0.212165ZM24.1957 4.10232L9.60963 16.5695L2.87758 14.076L24.1957 4.10232ZM10.5006 17.9112L24.6232 5.84072L13.8322 20.598C13.8322 20.598 13.8322 20.5996 13.8307 20.5996L10.5006 25.1548V17.9112ZM21.3847 27.5966L15.4267 21.0597L27.4763 4.58067L21.3847 27.5949V27.5966Z" fill="#343434"/>
</svg>
