<svg width="30" height="30" viewBox="0 0 30 30" fill="none" xmlns="http://www.w3.org/2000/svg">
<path d="M29.7495 1.69051C29.5335 1.49701 29.226 1.44601 28.959 1.55851L0.459007 13.5585C0.171007 13.68 -0.0119928 13.9665 7.17993e-06 14.2785C0.0120072 14.5905 0.216007 14.862 0.513007 14.961L9.00001 17.79V26.25C9.00001 26.568 9.19951 26.85 9.49951 26.9565C9.58201 26.985 9.66601 27 9.75001 27C9.97201 27 10.1865 26.901 10.332 26.7225L14.4765 21.621L21.222 28.2825C21.3645 28.4235 21.5535 28.4985 21.7485 28.4985C21.8115 28.4985 21.8745 28.491 21.936 28.4745C22.191 28.4085 22.3935 28.2135 22.4685 27.96L29.9685 2.46001C30.051 2.18251 29.964 1.88251 29.748 1.68901L29.7495 1.69051ZM24.195 5.19151L9.60901 16.4115L2.87701 14.1675L24.195 5.19151V5.19151ZM10.5 17.619L24.6225 6.75601L13.8315 20.037C13.8315 20.037 13.8315 20.0385 13.83 20.0385L10.5 24.138V17.619V17.619ZM21.384 26.3355L15.426 20.4525L27.4755 5.62201L21.384 26.334V26.3355Z" fill="#343434"/>
</svg>
