<svg width="30" height="30" viewBox="0 0 30 30" fill="none" xmlns="http://www.w3.org/2000/svg">
<path d="M29.7766 12.7951C29.4807 12.5077 28.9998 12.5077 28.7039 12.7951L26.9606 14.4886C26.8832 11.4525 25.6284 8.60796 23.4087 6.45321C21.1162 4.22623 18.068 3 14.8257 3C10.3134 3 6.19863 5.40973 4.08814 9.2874C3.89242 9.64702 4.03352 10.0936 4.40373 10.2837C4.77394 10.4738 5.23366 10.3368 5.42939 9.97716C7.27587 6.5829 10.8763 4.47384 14.8257 4.47384C20.5745 4.47384 25.2719 8.93515 25.4418 14.4797L23.7076 12.7951C23.4118 12.5077 22.9308 12.5077 22.6349 12.7951C22.3391 13.0825 22.3391 13.5497 22.6349 13.8371L25.6694 16.7848C25.8181 16.9293 26.0123 17 26.2065 17C26.4007 17 26.5949 16.9278 26.7436 16.7848L29.7781 13.8371C30.074 13.5497 30.074 13.0825 29.7781 12.7951H29.7766Z" fill="#343434"/>
<path d="M25.5947 19.7165C25.2245 19.5264 24.7648 19.6634 24.569 20.023C22.7224 23.4172 19.1218 25.5262 15.1722 25.5262C9.42301 25.5262 4.72535 21.065 4.55541 15.5206L6.28972 17.2051C6.43842 17.3496 6.63264 17.4203 6.82685 17.4203C7.02107 17.4203 7.21529 17.3481 7.36399 17.2051C7.65987 16.9177 7.65987 16.4505 7.36399 16.1631L4.32933 13.2155C4.03345 12.9282 3.55245 12.9282 3.25657 13.2155L0.22191 16.1631C-0.0739699 16.4505 -0.0739699 16.9177 0.22191 17.2051C0.517789 17.4925 0.998784 17.4925 1.29466 17.2051L3.03808 15.5117C3.11546 18.5478 4.37029 21.3922 6.59015 23.5469C8.88284 25.7738 11.9312 27 15.1737 27C19.6862 27 23.8012 24.5903 25.9119 20.7128C26.1076 20.3532 25.9665 19.9066 25.5963 19.7165H25.5947Z" fill="#343434"/>
</svg>
