<svg width="30" height="30" viewBox="0 0 30 30" fill="none" xmlns="http://www.w3.org/2000/svg">
  <path d="M11.5628 30C10.8586 30 10.1967 29.7261 9.69974 29.231L0.769096 20.3008C0.272169 19.8039 0 19.1437 0 18.4379C0 17.7321 0.273924 17.0719 0.769096 16.575L15.95 1.49947C16.8051 0.644387 18.2546 0 19.4644 0H27.3661C28.8183 0 30 1.18167 30 2.63374V10.5349C30 11.7429 29.3556 13.2986 28.5022 14.1537L13.4258 29.2292C12.9289 29.7261 12.2687 29.9982 11.5628 29.9982V30ZM19.4644 1.75758C18.7357 1.75758 17.7045 2.22638 17.19 2.7426L2.01229 17.8181C1.84723 17.9831 1.75768 18.2026 1.75768 18.4397C1.75768 18.6767 1.84899 18.8962 2.01229 19.0595L10.9429 27.9896C11.108 28.1546 11.3275 28.2442 11.5645 28.2442C11.8016 28.2442 12.0211 28.1529 12.1861 27.9896L27.2625 12.9141C27.777 12.3996 28.2476 11.2654 28.2476 10.5367V2.63549C28.2476 2.15088 27.8543 1.75758 27.3696 1.75758H19.4644Z" fill="#343434"/>
  <path d="M21.75 10.5C20.5095 10.5 19.5 9.4905 19.5 8.25C19.5 7.0095 20.5095 6 21.75 6C22.9905 6 24 7.0095 24 8.25C24 9.4905 22.9905 10.5 21.75 10.5ZM21.75 7.5C21.336 7.5 21 7.836 21 8.25C21 8.664 21.336 9 21.75 9C22.164 9 22.5 8.664 22.5 8.25C22.5 7.836 22.164 7.5 21.75 7.5Z" fill="#343434"/>
</svg>
