<svg width="30" height="30" viewBox="0 0 30 30" fill="none" xmlns="http://www.w3.org/2000/svg">
<path d="M26.8421 18.825V16.5C26.8421 15.2595 25.7795 14.25 24.4737 14.25H15.7895V11.175C17.5895 10.827 18.9474 9.312 18.9474 7.5C18.9474 5.433 17.1758 3.75 15 3.75C12.8242 3.75 11.0526 5.433 11.0526 7.5C11.0526 9.3105 12.4105 10.8255 14.2105 11.175V14.25H5.52632C4.22053 14.25 3.15789 15.2595 3.15789 16.5V18.825C1.35789 19.173 0 20.688 0 22.5C0 24.567 1.77158 26.25 3.94737 26.25C6.12316 26.25 7.89474 24.567 7.89474 22.5C7.89474 20.6895 6.53684 19.1745 4.73684 18.825V16.5C4.73684 16.086 5.09053 15.75 5.52632 15.75H14.2105V18.825C12.4105 19.173 11.0526 20.688 11.0526 22.5C11.0526 24.567 12.8242 26.25 15 26.25C17.1758 26.25 18.9474 24.567 18.9474 22.5C18.9474 20.6895 17.5895 19.1745 15.7895 18.825V15.75H24.4737C24.9095 15.75 25.2632 16.086 25.2632 16.5V18.825C23.4632 19.173 22.1053 20.688 22.1053 22.5C22.1053 24.567 23.8768 26.25 26.0526 26.25C28.2284 26.25 30 24.567 30 22.5C30 20.6895 28.6421 19.1745 26.8421 18.825ZM12.6316 7.5C12.6316 6.2595 13.6942 5.25 15 5.25C16.3058 5.25 17.3684 6.2595 17.3684 7.5C17.3684 8.7405 16.3058 9.75 15 9.75C13.6942 9.75 12.6316 8.7405 12.6316 7.5ZM6.31579 22.5C6.31579 23.7405 5.25316 24.75 3.94737 24.75C2.64158 24.75 1.57895 23.7405 1.57895 22.5C1.57895 21.2595 2.64158 20.25 3.94737 20.25C5.25316 20.25 6.31579 21.2595 6.31579 22.5ZM17.3684 22.5C17.3684 23.7405 16.3058 24.75 15 24.75C13.6942 24.75 12.6316 23.7405 12.6316 22.5C12.6316 21.2595 13.6942 20.25 15 20.25C16.3058 20.25 17.3684 21.2595 17.3684 22.5ZM26.0526 24.75C24.7468 24.75 23.6842 23.7405 23.6842 22.5C23.6842 21.2595 24.7468 20.25 26.0526 20.25C27.3584 20.25 28.4211 21.2595 28.4211 22.5C28.4211 23.7405 27.3584 24.75 26.0526 24.75Z" fill="#343434"/>
</svg>
