<svg width="30" height="30" viewBox="0 0 30 30" fill="none" xmlns="http://www.w3.org/2000/svg">
<path d="M15 16C10.5884 16 7 12.4116 7 8C7 3.58836 10.5884 0 15 0C19.4116 0 23 3.58836 23 8C23 12.4116 19.4116 16 15 16ZM15 1.45455C11.3913 1.45455 8.45455 4.39127 8.45455 8C8.45455 11.6087 11.3913 14.5455 15 14.5455C18.6087 14.5455 21.5455 11.6087 21.5455 8C21.5455 4.39127 18.6087 1.45455 15 1.45455Z" fill="#343434"/>
<path d="M26.7895 29H3.21053C1.99179 29 1 28.0746 1 26.9375C1 26.844 1.02063 24.6206 2.80526 22.4C3.84421 21.1075 5.26632 20.0804 7.03326 19.3489C9.19074 18.4537 11.8714 18 15 18C18.1286 18 20.8093 18.4537 22.9667 19.3489C24.7337 20.0817 26.1558 21.1075 27.1947 22.4C28.9794 24.6206 29 26.844 29 26.9375C29 28.0746 28.0082 29 26.7895 29ZM15 19.375C9.86126 19.375 6.06947 20.6854 4.03432 23.1645C2.50905 25.0221 2.47516 26.921 2.47368 26.9403C2.47368 27.317 2.80379 27.625 3.21053 27.625H26.7895C27.1962 27.625 27.5263 27.317 27.5263 26.9375C27.5263 26.921 27.4924 25.0221 25.9657 23.1645C23.9291 20.6854 20.1373 19.375 15 19.375Z" fill="#343434"/>
</svg>
