<svg width="30" height="30" viewBox="0 0 30 30" fill="none" xmlns="http://www.w3.org/2000/svg">
<path d="M11.9065 28.5C11.2728 28.5 10.677 28.2535 10.2298 27.8079L2.19219 19.7708C1.74495 19.3235 1.5 18.7294 1.5 18.0941C1.5 17.4589 1.74653 16.8647 2.19219 16.4175L15.7609 2.84953C16.5306 2.07995 17.9291 1.5 19.018 1.5H26.1295C27.4364 1.5 28.5 2.5635 28.5 3.87036V10.9814C28.5 12.0687 27.92 13.4687 27.152 14.2383L13.5832 27.8063C13.136 28.2535 12.5418 28.4984 11.9065 28.4984V28.5ZM19.018 3.08182C18.3622 3.08182 17.3428 3.50375 16.8798 3.96834L3.31106 17.5363C3.16251 17.6848 3.08191 17.8824 3.08191 18.0957C3.08191 18.309 3.16409 18.5066 3.31106 18.6535L11.3486 26.6906C11.4972 26.8392 11.6947 26.9198 11.9081 26.9198C12.1214 26.9198 12.319 26.8376 12.4675 26.6906L26.0363 13.1227C26.4993 12.6597 26.9228 11.6388 26.9228 10.983V3.87194C26.9228 3.4358 26.5688 3.08182 26.1327 3.08182H19.018Z" fill="#343434"/>
<path d="M21.75 10.5C20.5095 10.5 19.5 9.4905 19.5 8.25C19.5 7.0095 20.5095 6 21.75 6C22.9905 6 24 7.0095 24 8.25C24 9.4905 22.9905 10.5 21.75 10.5ZM21.75 7.5C21.336 7.5 21 7.836 21 8.25C21 8.664 21.336 9 21.75 9C22.164 9 22.5 8.664 22.5 8.25C22.5 7.836 22.164 7.5 21.75 7.5Z" fill="#343434"/>
</svg>
