<svg width="30" height="30" viewBox="0 0 30 30" fill="none" xmlns="http://www.w3.org/2000/svg">
  <path d="M15 16C10.5884 16 7 12.4116 7 8C7 3.58836 10.5884 0 15 0C19.4116 0 23 3.58836 23 8C23 12.4116 19.4116 16 15 16ZM15 1.45455C11.3913 1.45455 8.45455 4.39127 8.45455 8C8.45455 11.6087 11.3913 14.5455 15 14.5455C18.6087 14.5455 21.5455 11.6087 21.5455 8C21.5455 4.39127 18.6087 1.45455 15 1.45455Z" fill="#343434"/>
  <path d="M27.6316 30H2.36842C1.06263 30 0 29.0746 0 27.9375C0 27.844 0.0221053 24.6206 1.93421 22.4C3.04737 21.1075 4.57105 20.0804 6.46421 19.3489C8.77579 18.4537 11.6479 18 15 18C18.3521 18 21.2242 18.4537 23.5358 19.3489C25.4289 20.0817 26.9526 21.1075 28.0658 22.4C29.9779 24.6206 30 27.844 30 27.9375C30 29.0746 28.9374 30 27.6316 30ZM15 19.375C9.49421 19.375 5.43158 20.6854 3.25105 23.1645C1.61684 25.0221 1.58053 27.921 1.57895 27.9403C1.57895 28.317 1.93263 28.625 2.36842 28.625H27.6316C28.0674 28.625 28.4211 28.317 28.4211 27.9375C28.4211 27.921 28.3847 25.0221 26.7489 23.1645C24.5668 20.6854 20.5042 19.375 15 19.375Z" fill="#343434"/>
</svg>
