<svg width="30" height="30" viewBox="0 0 30 30" fill="none" xmlns="http://www.w3.org/2000/svg">
<path d="M28.1393 7.6125C27.9147 7.476 27.6335 7.464 27.3966 7.5795C27.3844 7.5855 26.1404 8.193 24.6993 8.6535C22.2907 9.4245 21.4288 9.1425 21.1705 8.985C21.0773 8.928 20.8603 8.7975 20.8603 8.25C20.8603 7.7775 21.1018 7.3695 21.4059 6.8535C21.843 6.1125 22.3885 5.19 22.3885 3.75C22.3885 2.7465 21.681 1.7595 20.4477 1.0425C19.2908 0.3705 17.8099 0 16.2756 0C14.7412 0 13.2603 0.3705 12.1035 1.0425C10.8702 1.7595 10.1626 2.7465 10.1626 3.75C10.1626 5.19 10.7082 6.1125 11.1452 6.8535C11.4494 7.3695 11.6908 7.7775 11.6908 8.25C11.6908 8.652 11.5395 8.805 11.3928 8.9025C11.0887 9.102 10.051 9.477 6.9823 8.6775C5.17897 8.208 3.59571 7.563 3.5789 7.557C3.37411 7.473 3.14029 7.4805 2.94162 7.5795C2.74295 7.6785 2.59776 7.8555 2.54275 8.0685C2.52441 8.1435 2.0751 9.9165 1.77098 11.913C1.18567 15.753 1.67318 16.8945 2.09039 17.4195C2.38839 17.7945 2.81325 18.0015 3.28395 18.0015C4.32163 18.0015 5.00628 17.2215 5.66801 16.4685C6.32974 15.7155 6.95632 15.0015 7.86868 15.0015C8.78105 15.0015 10.1611 16.797 10.1611 19.5015C10.1611 22.206 8.78105 24.0015 7.86868 24.0015C6.95632 24.0015 6.33127 23.289 5.66801 22.5345C5.00475 21.78 4.3201 21.0015 3.28395 21.0015C2.76893 21.0015 2.31657 21.225 2.01092 21.6285C1.63344 22.128 1.19789 23.1585 1.79238 26.3385C2.09803 27.9735 2.53358 29.406 2.55192 29.466C2.6482 29.7825 2.9462 30 3.28395 30H24.6794C26.7853 30 28.5 28.317 28.5 26.25V8.25C28.5 7.9905 28.3625 7.749 28.1378 7.6125H28.1393ZM26.9733 26.25C26.9733 27.4905 25.9448 28.5 24.6809 28.5H3.86468C3.70116 27.906 3.44136 26.8905 3.25491 25.8315C2.76587 23.0475 3.22129 22.536 3.25797 22.503C3.26255 22.5015 3.27172 22.5015 3.287 22.5015C3.62322 22.5015 4.07711 23.016 4.51418 23.5155C5.29206 24.4005 6.25944 25.5015 7.87174 25.5015C8.89414 25.5015 9.89972 24.807 10.6302 23.5965C11.3149 22.461 11.6924 21.0075 11.6924 19.5015C11.6924 17.9955 11.3149 16.542 10.6302 15.4065C9.89972 14.196 8.89414 13.5015 7.87174 13.5015C6.25944 13.5015 5.29206 14.6025 4.51418 15.4875C4.08322 15.978 3.63697 16.4865 3.30076 16.5C3.21823 16.4025 2.76587 15.693 3.25338 12.342C3.42607 11.154 3.66448 10.0035 3.83106 9.2625C4.49432 9.504 5.48768 9.84 6.57426 10.1235C9.31899 10.8405 11.1727 10.8495 12.241 10.1505C12.6872 9.858 13.2206 9.291 13.2206 8.25C13.2206 7.374 12.8385 6.7275 12.4687 6.102C12.0698 5.4255 11.6924 4.788 11.6924 3.75C11.6924 2.8545 13.5217 1.5 16.2771 1.5C19.0325 1.5 20.8618 2.8545 20.8618 3.75C20.8618 4.7865 20.4844 5.4255 20.0855 6.102C19.7156 6.7275 19.3336 7.374 19.3336 8.25C19.3336 9.393 19.896 9.975 20.3682 10.2615C21.3555 10.86 22.9341 10.8 25.1913 10.074C25.8607 9.8595 26.4812 9.6195 26.9748 9.414V26.25H26.9733Z" fill="#343434"/>
</svg>
