<svg width="30" height="30" viewBox="0 0 30 30" fill="none" xmlns="http://www.w3.org/2000/svg">
<path d="M5.25 20.25H3.75V18.75H5.25V20.25Z" fill="#343434"/>
<path d="M5.25 2.25H3.75V0.75H5.25V2.25Z" fill="#343434"/>
<path d="M8.25 2.25H6.75V0.75H8.25V2.25Z" fill="#343434"/>
<path d="M11.25 2.25H9.75V0.75H11.25V2.25Z" fill="#343434"/>
<path d="M14.25 2.25H12.75V0.75H14.25V2.25Z" fill="#343434"/>
<path d="M17.25 2.25H15.75V0.75H17.25V2.25Z" fill="#343434"/>
<path d="M2.25 8.25H0.75V6.75H2.25V8.25Z" fill="#343434"/>
<path d="M2.25 11.25H0.75V9.75H2.25V11.25Z" fill="#343434"/>
<path d="M2.25 5.25H0.75V3.75H2.25V5.25Z" fill="#343434"/>
<path d="M2.25 17.25H0.75V15.75H2.25V17.25Z" fill="#343434"/>
<path d="M2.25 14.25H0.75V12.75H2.25V14.25Z" fill="#343434"/>
<path d="M20.25 5.25H18.75V3.75H20.25V5.25Z" fill="#343434"/>
<path d="M8.25 20.25H6.75V18.75H8.25V20.25Z" fill="#343434"/>
<path d="M12 29.25H27C28.2405 29.25 29.25 28.2405 29.25 27V12C29.25 10.7595 28.2405 9.75 27 9.75H12C10.755 9.75 9.75 10.755 9.75 12V27C9.75 28.2405 10.7595 29.25 12 29.25ZM11.25 12C11.25 11.58 11.58 11.25 12 11.25H27C27.414 11.25 27.75 11.586 27.75 12V27C27.75 27.414 27.414 27.75 27 27.75H12C11.586 27.75 11.25 27.414 11.25 27V12Z" fill="#343434"/>
<path d="M20.25 8.25H18.75V6.75H20.25V8.25Z" fill="#343434"/>
<path d="M2.25 20.25H0.75V18.75H2.25V20.25Z" fill="#343434"/>
<path d="M2.25 2.25H0.75V0.75H2.25V2.25Z" fill="#343434"/>
<path d="M20.25 2.25H18.75V0.75H20.25V2.25Z" fill="#343434"/>
</svg>
