<svg width="30" height="30" viewBox="0 0 30 30" fill="none" xmlns="http://www.w3.org/2000/svg">
<path d="M25.6065 4.3935C22.773 1.56 19.0065 0 15 0C10.9935 0 7.227 1.56 4.3935 4.3935C1.56 7.227 0 10.9935 0 15C0 19.0065 1.56 22.773 4.3935 25.6065C7.227 28.44 10.9935 30 15 30C17.3535 30 19.6065 29.4705 21.6975 28.425C23.691 27.429 25.47 25.971 26.8425 24.207C27.0975 23.88 27.039 23.409 26.712 23.154C26.385 22.899 25.914 22.9575 25.659 23.2845C23.079 26.598 19.194 28.4985 15 28.4985C7.5555 28.4985 1.5 22.443 1.5 14.9985C1.5 7.554 7.5555 1.4985 15 1.4985C22.4445 1.4985 28.5 7.554 28.5 14.9985C28.5 17.6475 26.958 19.4985 24.75 19.4985C22.683 19.4985 21 17.8155 21 15.7485V9.7485C21 9.3345 20.664 8.9985 20.25 8.9985C19.836 8.9985 19.5 9.3345 19.5 9.7485V11.034C18.399 9.786 16.791 8.9985 15 8.9985C11.691 8.9985 9 11.6895 9 14.9985C9 18.3075 11.691 20.9985 15 20.9985C17.145 20.9985 19.0305 19.866 20.0925 18.168C20.9685 19.848 22.728 20.9985 24.75 20.9985C26.202 20.9985 27.5295 20.409 28.491 19.338C29.478 18.237 30 16.737 30 14.9985C30 10.992 28.44 7.2255 25.6065 4.392V4.3935ZM15 19.5C12.519 19.5 10.5 17.481 10.5 15C10.5 12.519 12.519 10.5 15 10.5C17.481 10.5 19.5 12.519 19.5 15C19.5 17.481 17.481 19.5 15 19.5Z" fill="#343434"/>
</svg>
