<svg width="30" height="30" viewBox="0 0 30 30" fill="none" xmlns="http://www.w3.org/2000/svg">
<path d="M28.2814 14.4709L23.7814 9.97087C23.4889 9.67837 23.0134 9.67837 22.7209 9.97087C22.4284 10.2634 22.4284 10.7389 22.7209 11.0314L25.9399 14.2504H15.7504V4.06088L18.9694 7.27988C19.1164 7.42688 19.3084 7.49888 19.5004 7.49888C19.6924 7.49888 19.8844 7.42538 20.0314 7.27988C20.3239 6.98738 20.3239 6.51188 20.0314 6.21938L15.5314 1.71937C15.2389 1.42688 14.7634 1.42688 14.4709 1.71937L9.97087 6.21938C9.67837 6.51188 9.67837 6.98738 9.97087 7.27988C10.2634 7.57238 10.7389 7.57238 11.0314 7.27988L14.2504 4.06088V14.2504H4.06087L7.27988 11.0314C7.57238 10.7389 7.57238 10.2634 7.27988 9.97087C6.98738 9.67837 6.51187 9.67837 6.21937 9.97087L1.71937 14.4709C1.42688 14.7634 1.42688 15.2389 1.71937 15.5314L6.21937 20.0314C6.36637 20.1784 6.55837 20.2504 6.75037 20.2504C6.94237 20.2504 7.13437 20.1769 7.28137 20.0314C7.57387 19.7389 7.57387 19.2634 7.28137 18.9709L4.06237 15.7519H14.2519V25.9414L11.0329 22.7224C10.7404 22.4299 10.2649 22.4299 9.97237 22.7224C9.67987 23.0149 9.67987 23.4904 9.97237 23.7829L14.4724 28.2829C14.6194 28.4299 14.8114 28.5019 15.0034 28.5019C15.1954 28.5019 15.3874 28.4284 15.5344 28.2829L20.0344 23.7829C20.3269 23.4904 20.3269 23.0149 20.0344 22.7224C19.7419 22.4299 19.2664 22.4299 18.9739 22.7224L15.7549 25.9414V15.7519H25.9444L22.7254 18.9709C22.4329 19.2634 22.4329 19.7389 22.7254 20.0314C22.8724 20.1784 23.0644 20.2504 23.2564 20.2504C23.4484 20.2504 23.6404 20.1769 23.7874 20.0314L28.2874 15.5314C28.5799 15.2389 28.5799 14.7634 28.2874 14.4709H28.2814Z" fill="#343434"/>
</svg>
