<svg width="30" height="30" viewBox="0 0 30 30" fill="none" xmlns="http://www.w3.org/2000/svg">
  <path d="M27.3722 18.9735C27.09 18.5025 26.6591 18.189 26.1277 18.0675C25.5722 17.94 24.9732 18.042 24.4508 18.2115C24.6564 17.0985 24.7345 16.263 24.7585 15.9375C24.766 15.8715 24.769 15.81 24.769 15.75C24.769 15.741 24.769 15.732 24.7675 15.7215C24.7675 15.7185 24.7675 15.714 24.7675 15.711C24.7435 14.658 23.7677 13.791 21.8641 13.1325C20.2742 12.582 18.0749 12.2025 15.6713 12.0615C15.257 12.0375 14.9027 12.3525 14.8787 12.7665C14.8547 13.1805 15.1699 13.5345 15.5843 13.5585C17.8542 13.6905 19.9094 14.043 21.3732 14.55C22.8819 15.072 23.2497 15.582 23.2678 15.738C23.2663 15.7485 23.2663 15.762 23.2648 15.7785C23.2197 15.987 22.7033 16.5885 20.7351 17.1495C18.815 17.697 16.2493 18 13.511 18C10.7727 18 8.20553 17.6985 6.28691 17.1495C4.31875 16.587 3.80231 15.9855 3.75727 15.7785C3.75577 15.762 3.75427 15.7485 3.75427 15.7365C3.7858 15.39 5.07539 14.328 9.1138 13.7805C9.52515 13.725 9.81189 13.347 9.75634 12.936C9.7008 12.525 9.32248 12.2385 8.91113 12.294C7.07057 12.543 5.50025 12.939 4.36979 13.4385C2.98262 14.052 2.26952 14.817 2.2515 15.7125V15.717C2.2515 15.7275 2.25 15.738 2.25 15.7485C2.25 15.807 2.253 15.87 2.26051 15.936C2.31305 16.6365 2.6103 19.6905 3.9029 22.788C5.87106 27.5055 9.19186 30 13.5095 30C16.2794 30 18.6409 28.9725 20.4964 26.991C20.5655 26.9805 20.633 26.961 20.6991 26.931C20.7591 26.9025 22.1898 26.2365 23.7452 25.224C25.9235 23.8065 27.2266 22.4385 27.6199 21.159C27.8556 20.3925 27.7701 19.638 27.3707 18.975L27.3722 18.9735ZM13.511 28.5C9.80588 28.5 7.04505 26.3955 5.30358 22.2435C4.65203 20.688 4.2677 19.1175 4.04402 17.907C4.54994 18.1605 5.16246 18.39 5.87256 18.5925C7.92329 19.1775 10.6346 19.5 13.5095 19.5C16.3844 19.5 19.0972 19.1775 21.1465 18.5925C21.8566 18.39 22.4691 18.1605 22.975 17.907C22.7528 19.119 22.3685 20.6895 21.7154 22.2435C19.974 26.394 17.2131 28.5 13.508 28.5H13.511ZM26.1847 20.718C25.907 21.624 24.754 22.7745 22.9405 23.9565C22.7588 24.075 22.5787 24.189 22.4015 24.297C22.6567 23.823 22.8954 23.319 23.1176 22.788C23.5125 21.8415 23.8142 20.901 24.0439 20.028C24.4928 19.77 25.302 19.416 25.7914 19.5285C25.9265 19.56 26.0106 19.6215 26.0841 19.7445C26.2643 20.0445 26.2973 20.355 26.1847 20.7165V20.718Z" fill="#343434"/>
  <path d="M15.0033 16.5C15.0153 16.5 15.0243 16.5 15.0273 16.5C15.4416 16.491 15.7734 16.149 15.7644 15.735C15.7554 15.321 15.4146 14.991 15.0003 15C14.9897 15 13.9674 15.0015 13.3233 14.3625C12.9495 13.992 12.7589 13.449 12.7589 12.75C12.7589 10.59 13.2978 9.60599 13.8698 8.56349C14.4313 7.54049 15.0108 6.48149 15.0108 4.49999C15.0108 2.09999 14.2151 0.482985 14.1806 0.413985C13.9944 0.0434855 13.544 -0.106515 13.1732 0.0779855C12.8024 0.262486 12.6523 0.713986 12.8369 1.08449C12.8429 1.09799 13.508 2.44949 13.508 4.49849C13.508 6.09599 13.0651 6.90449 12.5517 7.84199C11.9452 8.94899 11.2561 10.2045 11.2561 12.7485C11.2561 13.8705 11.5999 14.7765 12.2785 15.4395C13.3203 16.4595 14.7871 16.4985 15.0018 16.4985L15.0033 16.5Z" fill="#343434"/>
</svg>
