<svg width="30" height="30" viewBox="0 0 30 30" fill="none" xmlns="http://www.w3.org/2000/svg">
  <path d="M29.78 14.4709L25.28 9.97086C24.9876 9.67836 24.5124 9.67836 24.22 9.97086C23.9276 10.2634 23.9276 10.7389 24.22 11.0314L27.44 14.2504H15.7468V2.56L18.965 5.78C19.2589 6.074 19.7328 6.071 20.0267 5.78C20.3192 5.4875 20.3192 5.0125 20.0267 4.72L15.5279 0.219981C15.2354 -0.0725186 14.7601 -0.0725107 14.4676 0.219989L9.96876 4.72C9.67633 5.0125 9.67633 5.4875 9.96876 5.78C10.2612 6.0725 10.7366 6.0725 11.029 5.78L14.2472 2.56V14.2504H2.56L5.78 11.0314C6.07243 10.7389 6.07243 10.2634 5.78 9.97086C5.48757 9.67836 5.01243 9.67836 4.72 9.97086L0.219987 14.4709C-0.0724398 14.7634 -0.0724309 15.2389 0.219996 15.5314L4.72 20.0314C5.01393 20.3254 5.48607 20.3224 5.78 20.0314C6.07243 19.7389 6.07243 19.2634 5.78 18.9709L2.56 15.7519H14.2487V27.44L11.0305 24.22C10.7381 23.9275 10.2627 23.9275 9.97026 24.22C9.67783 24.5125 9.67783 24.9875 9.97026 25.28L14.4691 29.78C14.6161 29.927 14.808 30 15 30C15.192 30 15.3839 29.9255 15.5309 29.78L20.0297 25.28C20.3222 24.9875 20.3222 24.5125 20.0297 24.22C19.7373 23.9275 19.2619 23.9275 18.9695 24.22L15.7513 27.44V15.7519H27.44L24.22 18.9709C23.9276 19.2634 23.9276 19.7389 24.22 20.0314C24.5139 20.3254 24.9861 20.3224 25.28 20.0314L29.78 15.5314C30.0724 15.2389 30.0724 14.7634 29.78 14.4709Z" fill="#343434"/>
</svg>
