<svg width="30" height="30" viewBox="0 0 30 30" fill="none" xmlns="http://www.w3.org/2000/svg">
  <path d="M25.6074 4.39286C22.7747 1.56008 19.0074 0 15 0C10.9926 0 7.22684 1.56008 4.39263 4.39286C1.55842 7.22564 0 10.9932 0 14.9992C0 19.0052 1.56 22.7728 4.39263 25.6071C7.22526 28.4415 10.9926 30 15 30C19.0074 30 22.7732 28.4399 25.6074 25.6071C28.4416 22.7744 30 19.0068 30 14.9992C30 10.9916 28.44 7.22564 25.6074 4.39286ZM15 28.4225C7.59947 28.4225 1.57895 22.4017 1.57895 15.0008C1.57895 7.59987 7.59947 1.57903 15 1.57903C22.4005 1.57903 28.4211 7.59987 28.4211 15.0008C28.4211 22.4017 22.4005 28.4225 15 28.4225Z" fill="#343434"/>
  <path d="M15 22C14.5707 22 14.2222 21.6538 14.2222 21.2273V18.1364C14.2222 17.7098 14.5707 17.3636 15 17.3636C18.0022 17.3636 20.4444 14.9373 20.4444 11.9545C20.4444 8.97182 18.0022 6.54545 15 6.54545C11.9978 6.54545 9.55556 8.97182 9.55556 11.9545C9.55556 12.3811 9.20711 12.7273 8.77778 12.7273C8.34844 12.7273 8 12.3811 8 11.9545C8 8.12027 11.1407 5 15 5C18.8593 5 22 8.12027 22 11.9545C22 15.5276 19.2731 18.481 15.7778 18.8658V21.2273C15.7778 21.6538 15.4293 22 15 22Z" fill="#343434"/>
  <path d="M15 27C14.448 27 14 26.664 14 26.25V24.75C14 24.336 14.448 24 15 24C15.552 24 16 24.336 16 24.75V26.25C16 26.664 15.552 27 15 27Z" fill="#343434"/>
</svg>
