<svg width="30" height="30" viewBox="0 0 30 30" fill="none" xmlns="http://www.w3.org/2000/svg">
<path d="M9.75001 21C9.55801 21 9.36601 20.9265 9.21901 20.781C8.92651 20.4885 8.92651 20.013 9.21901 19.7205L19.719 9.22047C20.0115 8.92797 20.487 8.92797 20.7795 9.22047C21.072 9.51297 21.072 9.98847 20.7795 10.281L10.2795 20.781C10.1325 20.928 9.94051 21 9.74851 21H9.75001Z" fill="#343434"/>
<path d="M21.5 17.0001C21.1855 17.0001 20.8676 16.9831 20.5565 16.9474C20.0907 16.8964 19.7431 16.575 19.7941 16.1076C19.8451 15.6401 20.2555 15.4039 20.7213 15.4566C20.9712 15.4838 21.2507 15.5014 21.504 15.5014C25.2542 15.5014 28.5 12.249 28.5 8.49921C28.5 4.74939 25.2502 1.50006 21.5 1.50006C17.7498 1.50006 14.5001 4.74939 14.5001 8.49921C14.5001 8.75249 14.5111 9.02099 14.5383 9.27086C14.5893 9.73662 14.3221 10.153 13.8563 10.2039C13.3905 10.2549 13.102 9.90837 13.051 9.44262C13.017 9.13155 13 8.81368 13 8.49921C13 3.81278 16.8131 6.10352e-05 21.5 6.10352e-05C26.1869 6.10352e-05 30 3.81278 30 8.49921C30 13.1856 26.1869 16.9984 21.5 16.9984V17.0001Z" fill="#343434"/>
<path d="M8.5 13C8.8145 13 9.1324 13.017 9.4435 13.0527C9.9093 13.1037 10.2569 13.425 10.2059 13.8925C10.1549 14.36 9.74455 14.5961 9.27875 14.5434C9.02885 14.5162 8.74935 14.4987 8.49605 14.4987C4.74585 14.4987 1.5 17.751 1.5 21.5009C1.5 25.2507 4.7498 28.5 8.5 28.5C12.2502 28.5 15.4999 25.2507 15.4999 21.5009C15.4999 21.2476 15.489 20.9791 15.4618 20.7292C15.4108 20.2634 15.6779 19.8471 16.1437 19.7961C16.6095 19.7451 16.898 20.0917 16.949 20.5574C16.983 20.8685 17 21.1864 17 21.5009C17 26.1873 13.1869 30 8.5 30C3.8131 30 0 26.1873 0 21.5009C0 16.8144 3.8131 13.0017 8.5 13.0017V13Z" fill="#343434"/>
</svg>
