<svg width="30" height="30" viewBox="0 0 30 30" fill="none" xmlns="http://www.w3.org/2000/svg">
<path d="M15 30C10.9926 30 7.22684 28.44 4.39263 25.6074C1.55842 22.7747 0 19.0074 0 15.0016C0 10.9942 1.56 7.22842 4.39263 4.39421C7.22526 1.56 10.9926 0 15 0C19.0074 0 22.7732 1.56 25.6074 4.39421C28.4416 7.22842 30 10.9942 30 15.0016C30 19.0089 28.44 22.7747 25.6074 25.6074C22.7747 28.44 19.0074 30 15 30ZM15 1.5C7.59947 1.5 1.5 7.59947 1.5 15C1.5 22.4005 7.59947 28.5 15 28.5C22.4005 28.5 28.5 22.4005 28.5 15C28.5 7.59947 22.4005 1.5 15 1.5Z" fill="#343434"/>
<path d="M21.2222 19.5H8.77778C8.34844 19.5 8 19.302 8 18.75C8 18.198 8.34844 18 8.77778 18H21.2222C21.6516 18 22 18.198 22 18.75C22 19.302 21.6516 19.5 21.2222 19.5Z" fill="#343434"/>
<path d="M19.5 11C18.1217 11 17 9.87833 17 8.5C17 7.12167 18.1217 6 19.5 6C20.8783 6 22 7.12167 22 8.5C22 9.87833 20.8783 11 19.5 11ZM19.5 7.5C19.04 7.5 18.5 8.04 18.5 8.5C18.5 8.96 19.04 9.5 19.5 9.5C19.96 9.5 20.5 8.96 20.5 8.5C20.5 8.04 19.96 7.5 19.5 7.5Z" fill="#343434"/>
<path d="M10.5 11C9.12167 11 8 9.87833 8 8.5C8 7.12167 9.12167 6 10.5 6C11.8783 6 13 7.12167 13 8.5C13 9.87833 11.8783 11 10.5 11ZM10.5 7.5C10.04 7.5 9.5 8.04 9.5 8.5C9.5 8.96 10.04 9.5 10.5 9.5C10.96 9.5 11.5 8.96 11.5 8.5C11.5 8.04 10.96 7.5 10.5 7.5Z" fill="#343434"/>
</svg>
