<svg width="30" height="30" viewBox="0 0 30 30" fill="none" xmlns="http://www.w3.org/2000/svg">
<path d="M15 30C10.9926 30 7.22684 28.44 4.39263 25.6074C1.55842 22.7747 0 19.0074 0 15.0016C0 10.9942 1.56 7.22842 4.39263 4.39421C7.22526 1.56 10.9926 0 15 0C19.0074 0 22.7732 1.56 25.6074 4.39421C28.4416 7.22842 30 10.9942 30 15.0016C30 19.0089 28.44 22.7747 25.6074 25.6074C22.7747 28.44 19.0074 30 15 30ZM15 1.57895C7.59947 1.57895 1.57895 7.59947 1.57895 15C1.57895 22.4005 7.59947 28.4211 15 28.4211C22.4005 28.4211 28.4211 22.4005 28.4211 15C28.4211 7.59947 22.4005 1.57895 15 1.57895Z" fill="#343434"/>
<path d="M20.25 22.5H9.75C9.336 22.5 9 22.164 9 21.75C9 21.336 9.336 21 9.75 21H20.25C20.664 21 21 21.336 21 21.75C21 22.164 20.664 22.5 20.25 22.5Z" fill="#343434"/>
<path d="M19.6154 5C17.6585 5 15.9431 6.07171 15 7.66986C14.0569 6.07171 12.3415 5 10.3846 5C7.41538 5 5 7.46714 5 10.5C5 13.5329 7.41538 16 10.3846 16C12.3415 16 14.0569 14.9283 15 13.3301C15.9431 14.9283 17.6585 16 19.6154 16C22.5846 16 25 13.5329 25 10.5C25 7.46714 22.5846 5 19.6154 5ZM10.3846 14.5C8.26462 14.5 6.5 12.6654 6.5 10.5C6.5 8.33457 8.26462 6.5 10.3846 6.5C12.5046 6.5 14.25 8.33457 14.25 10.5C14.25 12.6654 12.5046 14.5 10.3846 14.5ZM19.6154 14.5C17.4954 14.5 15.75 12.6654 15.75 10.5C15.75 8.33457 17.4954 6.5 19.6154 6.5C21.7354 6.5 23.5 8.33457 23.5 10.5C23.5 12.6654 21.7354 14.5 19.6154 14.5Z" fill="#343434"/>
<path d="M10.5 11.5C10.236 11.5 9.98 11.394 9.794 11.206C9.608 11.018 9.5 10.762 9.5 10.5C9.5 10.238 9.606 9.978 9.794 9.794C9.98 9.608 10.238 9.5 10.5 9.5C10.762 9.5 11.02 9.606 11.206 9.794C11.392 9.98 11.5 10.238 11.5 10.5C11.5 10.762 11.394 11.022 11.206 11.206C11.02 11.392 10.762 11.5 10.5 11.5Z" fill="#343434"/>
<path d="M19.5 11.5C19.236 11.5 18.978 11.394 18.794 11.206C18.61 11.018 18.5 10.762 18.5 10.5C18.5 10.238 18.606 9.98 18.794 9.794C18.98 9.608 19.238 9.5 19.5 9.5C19.762 9.5 20.022 9.606 20.206 9.794C20.392 9.98 20.5 10.238 20.5 10.5C20.5 10.762 20.394 11.022 20.206 11.206C20.02 11.392 19.762 11.5 19.5 11.5Z" fill="#343434"/>
</svg>
