<svg width="30" height="30" viewBox="0 0 30 30" fill="none" xmlns="http://www.w3.org/2000/svg">
<path d="M25.4979 12C24.8797 12 24.3066 12.1875 23.828 12.5085C23.4169 11.34 22.3037 10.5 20.9969 10.5C20.4508 10.5 19.9377 10.647 19.4966 10.9035V2.99999C19.4966 1.34549 18.1508 -9.67196e-06 16.496 -9.67196e-06C15.1892 -9.67196e-06 14.0745 0.83999 13.6649 2.00849C13.1878 1.68749 12.6131 1.49999 11.995 1.49999C10.3402 1.49999 8.99438 2.84549 8.99438 4.49999V15.5595L6.97496 12.06C6.58337 11.3475 5.94424 10.8405 5.17608 10.6305C4.42742 10.4265 3.64875 10.5345 2.98261 10.9335C1.62183 11.7495 1.10272 13.5945 1.82737 15.0465C1.87238 15.138 2.82958 17.0985 5.81821 23.0715C7.22551 25.884 8.76934 27.8955 10.4077 29.0475C11.6935 29.952 12.5816 29.9985 12.7467 29.9985H20.2483C21.5205 29.9985 22.6968 29.631 23.7455 28.9035C24.7597 28.2015 25.6344 27.1755 26.347 25.854C27.7558 23.2395 28.5 19.485 28.5 14.9985C28.5 13.344 27.1542 11.9985 25.4994 11.9985L25.4979 12ZM25.0253 25.1445C24.2016 26.676 22.7028 28.5 20.2468 28.5H12.7602C12.7017 28.4955 12.07 28.425 11.1173 27.7125C10.1676 27.0015 8.70932 25.5045 7.1595 22.4025C4.11835 16.3215 3.18366 14.406 3.17465 14.388C3.17315 14.385 3.17315 14.3835 3.17165 14.382C2.79507 13.6275 3.06213 12.639 3.75528 12.2235C4.06734 12.036 4.43192 11.9865 4.78299 12.081C5.15657 12.183 5.47014 12.435 5.66368 12.789C5.66668 12.7935 5.66968 12.7995 5.67268 12.804L8.01468 16.8615C8.49328 17.736 9.03189 18.1035 9.61551 17.955C10.2006 17.8065 10.4962 17.2215 10.4962 16.2195V4.50149C10.4962 3.67499 11.1698 3.00149 11.9965 3.00149C12.8232 3.00149 13.4968 3.67499 13.4968 4.50149V14.2515C13.4968 14.6655 13.8329 15.0015 14.247 15.0015C14.6611 15.0015 14.9972 14.6655 14.9972 14.2515V3.00149C14.9972 2.17499 15.6708 1.50149 16.4975 1.50149C17.3241 1.50149 17.9978 2.17499 17.9978 3.00149V14.2515C17.9978 14.6655 18.3339 15.0015 18.7479 15.0015C19.162 15.0015 19.4981 14.6655 19.4981 14.2515V13.5015C19.4981 12.675 20.1717 12.0015 20.9984 12.0015C21.8251 12.0015 22.4987 12.675 22.4987 13.5015V15.7515C22.4987 16.1655 22.8348 16.5015 23.2489 16.5015C23.663 16.5015 23.9991 16.1655 23.9991 15.7515V15.0015C23.9991 14.175 24.6727 13.5015 25.4994 13.5015C26.326 13.5015 26.9997 14.175 26.9997 15.0015C26.9997 19.2405 26.317 22.749 25.0268 25.146L25.0253 25.1445Z" fill="#343434"/>
<path d="M6.7428 2.99999C6.6303 2.99999 6.5163 2.97449 6.4083 2.92049L3.4083 1.42049C3.0378 1.23599 2.8878 0.784485 3.0723 0.413985C3.2568 0.0434855 3.7083 -0.106515 4.0788 0.0779855L7.0788 1.57799C7.4493 1.76249 7.5993 2.21399 7.4148 2.58449C7.2828 2.84699 7.0188 2.99999 6.7428 2.99999Z" fill="#343434"/>
<path d="M3.7428 7.49999C3.4683 7.49999 3.2028 7.34849 3.0708 7.08449C2.8863 6.71399 3.0363 6.26399 3.4068 6.07799L6.4068 4.57799C6.7773 4.39349 7.2273 4.54349 7.4133 4.91399C7.5993 5.28449 7.4478 5.73449 7.0773 5.92049L4.0773 7.42049C3.9693 7.47449 3.8553 7.49999 3.7428 7.49999Z" fill="#343434"/>
<path d="M21.7428 2.99999C21.4683 2.99999 21.2028 2.84849 21.0708 2.58449C20.8863 2.21399 21.0363 1.76399 21.4068 1.57799L24.4068 0.0779855C24.7773 -0.106515 25.2273 0.0434855 25.4133 0.413985C25.5993 0.784485 25.4478 1.23449 25.0773 1.42049L22.0773 2.92049C21.9693 2.97449 21.8553 2.99999 21.7428 2.99999Z" fill="#343434"/>
<path d="M24.7428 7.49999C24.6303 7.49999 24.5163 7.47449 24.4083 7.42049L21.4083 5.92049C21.0378 5.73599 20.8878 5.28449 21.0723 4.91399C21.2568 4.54349 21.7083 4.39349 22.0788 4.57799L25.0788 6.07799C25.4493 6.26249 25.5993 6.71399 25.4148 7.08449C25.2828 7.34699 25.0188 7.49999 24.7428 7.49999Z" fill="#343434"/>
</svg>
