<svg width="30" height="30" viewBox="0 0 30 30" fill="none" xmlns="http://www.w3.org/2000/svg">
<path d="M21 26.25C21 26.664 20.664 27 20.25 27C19.836 27 19.5 26.664 19.5 26.25C19.5 25.836 19.836 25.5 20.25 25.5C20.664 25.5 21 25.836 21 26.25Z" fill="#343434"/>
<path d="M24 15.75C24 14.5095 22.9905 13.5 21.75 13.5C21.4575 13.5 21.177 13.557 20.9205 13.659C20.661 12.7035 19.7865 12 18.75 12C18.4875 12 18.2355 12.0465 18 12.129V5.25C18 4.0095 16.9905 3 15.75 3C14.7135 3 13.839 3.7035 13.5795 4.6575C13.323 4.5555 13.0425 4.5 12.75 4.5C11.5095 4.5 10.5 5.5095 10.5 6.75V15.699L8.391 14.0295C7.935 13.668 7.35 13.488 6.744 13.521C6.138 13.554 5.5755 13.8 5.1645 14.211C4.293 15.0825 4.29 16.509 5.16 17.391L10.3785 22.6755C9.5685 23.016 9 23.8185 9 24.75V27.75C9 28.9905 10.0095 30 11.25 30H21.75C22.9905 30 24 28.9905 24 27.75V24.75C24 23.9385 23.568 23.226 22.9215 22.83C23.4135 21.876 24 20.133 24 17.25V15.75ZM6.225 15.273C6.5355 14.9625 7.113 14.9325 7.4595 15.207L10.7835 17.838C11.0085 18.0165 11.316 18.051 11.5755 17.925C11.835 17.799 11.9985 17.538 11.9985 17.25V6.75C11.9985 6.336 12.3345 6 12.7485 6C13.1625 6 13.4985 6.336 13.4985 6.75V14.25C13.4985 14.664 13.8345 15 14.2485 15C14.6625 15 14.9985 14.664 14.9985 14.25V5.25C14.9985 4.836 15.3345 4.5 15.7485 4.5C16.1625 4.5 16.4985 4.836 16.4985 5.25V14.25C16.4985 14.664 16.8345 15 17.2485 15C17.6625 15 17.9985 14.664 17.9985 14.25C17.9985 13.836 18.3345 13.5 18.7485 13.5C19.1625 13.5 19.4985 13.836 19.4985 14.25V15.75C19.4985 16.164 19.8345 16.5 20.2485 16.5C20.6625 16.5 20.9985 16.164 20.9985 15.75C20.9985 15.336 21.3345 15 21.7485 15C22.1625 15 22.4985 15.336 22.4985 15.75V17.25C22.4985 20.403 21.7245 21.9585 21.3765 22.5H12.312L6.2265 16.338C5.9385 16.047 5.9385 15.5595 6.2235 15.273H6.225ZM22.5 27.75C22.5 28.164 22.164 28.5 21.75 28.5H11.25C10.836 28.5 10.5 28.164 10.5 27.75V24.75C10.5 24.336 10.836 24 11.25 24H21.75C22.164 24 22.5 24.336 22.5 24.75V27.75Z" fill="#343434"/>
<path d="M27.219 8.46904L25.5 10.188V3.30904L27.219 5.02804C27.366 5.17504 27.558 5.24704 27.75 5.24704C27.942 5.24704 28.134 5.17354 28.281 5.02804C28.5735 4.73554 28.5735 4.26004 28.281 3.96754L25.281 0.967544C24.9885 0.675044 24.513 0.675044 24.2205 0.967544L21.2205 3.96754C20.928 4.26004 20.928 4.73554 21.2205 5.02804C21.513 5.32054 21.9885 5.32054 22.281 5.02804L24 3.30904V10.188L22.281 8.46904C21.9885 8.17654 21.513 8.17654 21.2205 8.46904C20.928 8.76154 20.928 9.23704 21.2205 9.52954L24.2205 12.5295C24.3675 12.6765 24.5595 12.7485 24.7515 12.7485C24.9435 12.7485 25.1355 12.675 25.2825 12.5295L28.2825 9.52954C28.575 9.23704 28.575 8.76154 28.2825 8.46904C27.99 8.17654 27.5145 8.17654 27.222 8.46904H27.219Z" fill="#343434"/>
</svg>
