<svg width="30" height="30" viewBox="0 0 30 30" fill="none" xmlns="http://www.w3.org/2000/svg">
<path d="M25.5 12C24.882 12 24.309 12.1875 23.8305 12.5085C23.4195 11.34 22.3065 10.5 21 10.5C20.454 10.5 19.941 10.647 19.5 10.9035V3.00001C19.5 1.34551 18.1545 5.85616e-06 16.5 5.85616e-06C15.1935 5.85616e-06 14.079 0.840006 13.6695 2.00851C13.1925 1.68751 12.618 1.50001 12 1.50001C10.3455 1.50001 9.00001 2.84551 9.00001 4.50001V15.5595L6.98101 12.06C6.58951 11.3475 5.95051 10.8405 5.18251 10.6305C4.43401 10.4265 3.65551 10.5345 2.98951 10.9335C1.62901 11.7495 1.11001 13.5945 1.83451 15.0465C1.87951 15.138 2.83651 17.0985 5.82451 23.0715C7.23151 25.884 8.77501 27.8955 10.413 29.0475C11.6985 29.952 12.5865 29.9985 12.7515 29.9985H20.2515C21.5235 29.9985 22.6995 29.631 23.748 28.9035C24.762 28.2015 25.6365 27.1755 26.349 25.854C27.7575 23.2395 28.5015 19.485 28.5015 14.9985C28.5015 13.344 27.156 11.9985 25.5015 11.9985L25.5 12ZM25.0275 25.1445C24.204 26.676 22.7055 28.5 20.25 28.5H12.765C12.7065 28.4955 12.075 28.425 11.1225 27.7125C10.173 27.0015 8.71501 25.5045 7.16551 22.4025C4.12501 16.3215 3.19051 14.406 3.18151 14.388C3.18001 14.385 3.18001 14.3835 3.17851 14.382C2.80201 13.6275 3.06901 12.639 3.76201 12.2235C4.07401 12.036 4.43851 11.9865 4.78951 12.081C5.16301 12.183 5.47651 12.435 5.67001 12.789C5.67301 12.7935 5.67601 12.7995 5.67901 12.804L8.02051 16.8615C8.49901 17.736 9.03751 18.1035 9.62101 17.955C10.206 17.8065 10.5015 17.2215 10.5015 16.2195V4.50151C10.5015 3.67501 11.175 3.00151 12.0015 3.00151C12.828 3.00151 13.5015 3.67501 13.5015 4.50151V14.2515C13.5015 14.6655 13.8375 15.0015 14.2515 15.0015C14.6655 15.0015 15.0015 14.6655 15.0015 14.2515V3.00151C15.0015 2.17501 15.675 1.50151 16.5015 1.50151C17.328 1.50151 18.0015 2.17501 18.0015 3.00151V14.2515C18.0015 14.6655 18.3375 15.0015 18.7515 15.0015C19.1655 15.0015 19.5015 14.6655 19.5015 14.2515V13.5015C19.5015 12.675 20.175 12.0015 21.0015 12.0015C21.828 12.0015 22.5015 12.675 22.5015 13.5015V15.7515C22.5015 16.1655 22.8375 16.5015 23.2515 16.5015C23.6655 16.5015 24.0015 16.1655 24.0015 15.7515V15.0015C24.0015 14.175 24.675 13.5015 25.5015 13.5015C26.328 13.5015 27.0015 14.175 27.0015 15.0015C27.0015 19.2405 26.319 22.749 25.029 25.146L25.0275 25.1445Z" fill="#343434"/>
<path d="M27.531 3.21901L24.531 0.219009C24.2385 -0.0734912 23.763 -0.0734912 23.4705 0.219009C23.178 0.511509 23.178 0.987009 23.4705 1.27951L25.1895 2.99851H21.75C21.336 2.99851 21 3.33451 21 3.74851C21 4.16251 21.336 4.49851 21.75 4.49851H25.1895L23.4705 6.21751C23.178 6.51001 23.178 6.98551 23.4705 7.27801C23.6175 7.42501 23.8095 7.49701 24.0015 7.49701C24.1935 7.49701 24.3855 7.42351 24.5325 7.27801L27.5325 4.27801C27.825 3.98551 27.825 3.51001 27.5325 3.21751L27.531 3.21901Z" fill="#343434"/>
<path d="M6.75001 3H3.31051L5.02951 1.281C5.32201 0.988497 5.32201 0.512997 5.02951 0.220497C4.73701 -0.0720029 4.26151 -0.0720029 3.96901 0.220497L0.969009 3.2205C0.676509 3.513 0.676509 3.9885 0.969009 4.281L3.96901 7.281C4.11601 7.428 4.30801 7.5 4.50001 7.5C4.69201 7.5 4.88401 7.4265 5.03101 7.281C5.32351 6.9885 5.32351 6.513 5.03101 6.2205L3.31201 4.5015H6.75151C7.16551 4.5015 7.50151 4.1655 7.50151 3.7515C7.50151 3.3375 7.16551 3.0015 6.75151 3.0015L6.75001 3Z" fill="#343434"/>
</svg>
