<svg width="30" height="30" viewBox="0 0 30 30" fill="none" xmlns="http://www.w3.org/2000/svg">
<path d="M25.8867 11.1848C25.2457 11.1848 24.6513 11.3756 24.155 11.7022C23.7287 10.5132 22.5742 9.65838 21.219 9.65838C20.578 9.65838 19.9837 9.84918 19.4873 10.1758C19.061 8.98676 17.9065 8.13198 16.5514 8.13198C15.985 8.13198 15.4529 8.28157 14.9955 8.54258V3.55279C14.9955 1.86918 13.5999 0.5 11.8837 0.5C10.1676 0.5 8.77195 1.86918 8.77195 3.55279V14.8069L6.67773 11.2458C6.27165 10.5208 5.60884 10.0049 4.81223 9.79117C4.03584 9.58358 3.22834 9.69348 2.53753 10.0995C1.12634 10.9299 0.588003 12.8073 1.3395 14.2849C1.38617 14.378 2.37883 16.373 5.47815 22.4511C6.93757 25.3131 8.53857 27.36 10.2376 28.5323C11.571 29.4527 12.4921 29.5 12.6632 29.5H20.4426C21.762 29.5 22.9818 29.126 24.0694 28.3857C25.1212 27.6714 26.0283 26.6273 26.7673 25.2826C28.2283 22.6221 29 18.8015 29 14.236C29 12.5524 27.6044 11.1832 25.8882 11.1832L25.8867 11.1848ZM25.3966 24.5606C24.5424 26.119 22.9881 27.9751 20.4411 27.9751H12.6772C12.6165 27.9705 11.9615 27.8988 10.9735 27.1738C9.98865 26.4503 8.47633 24.9269 6.86911 21.7703C3.71533 15.5823 2.74601 13.6331 2.73668 13.6148C2.73512 13.6117 2.73512 13.6102 2.73357 13.6087C2.34304 12.8409 2.61999 11.835 3.33881 11.4122C3.66243 11.2214 4.04051 11.171 4.40459 11.2672C4.792 11.371 5.11718 11.6274 5.31789 11.9877C5.321 11.9922 5.32411 11.9983 5.32723 12.0029L7.75596 16.1318C8.25229 17.0217 8.81085 17.3957 9.41609 17.2446C10.0229 17.0935 10.3294 16.4982 10.3294 15.4785V3.55432C10.3294 2.71327 11.028 2.02792 11.8853 2.02792C12.7426 2.02792 13.4412 2.71327 13.4412 3.55432V13.4759C13.4412 13.8972 13.7897 14.2391 14.2191 14.2391C14.6485 14.2391 14.997 13.8972 14.997 13.4759V11.1863C14.997 10.3453 15.6956 9.6599 16.5529 9.6599C17.4102 9.6599 18.1088 10.3453 18.1088 11.1863V13.4759C18.1088 13.8972 18.4573 14.2391 18.8868 14.2391C19.3162 14.2391 19.6647 13.8972 19.6647 13.4759V12.7127C19.6647 11.8717 20.3633 11.1863 21.2206 11.1863C22.0779 11.1863 22.7765 11.8717 22.7765 12.7127V15.0023C22.7765 15.4236 23.125 15.7655 23.5544 15.7655C23.9838 15.7655 24.3323 15.4236 24.3323 15.0023V14.2391C24.3323 13.398 25.0309 12.7127 25.8882 12.7127C26.7455 12.7127 27.4441 13.398 27.4441 14.2391C27.4441 18.5527 26.7362 22.1229 25.3981 24.5621L25.3966 24.5606Z" fill="#343434"/>
</svg>
