<svg width="30" height="30" viewBox="0 0 30 30" fill="none" xmlns="http://www.w3.org/2000/svg">
<path d="M12.0004 4.02898C12.0004 4.65263 12.1879 5.23088 12.5089 5.71376C11.3404 6.12852 10.5004 7.25171 10.5004 8.57017C10.5004 9.12117 10.6474 9.63886 10.9039 10.0839H3.00037C1.34587 10.0839 0.000372067 11.4417 0.000372067 13.1114C0.000372067 14.4298 0.840372 15.5545 2.00887 15.9678C1.68787 16.4491 1.50037 17.0289 1.50037 17.6526C1.50037 19.3222 2.84587 20.68 4.50037 20.68H15.5599L12.0604 22.7175C11.3479 23.1126 10.8409 23.7574 10.6309 24.5325C10.4269 25.2878 10.5349 26.0734 10.9339 26.7455C11.7499 28.1185 13.5949 28.6422 15.0469 27.9111C15.1384 27.8657 17.0989 26.8999 23.0719 23.8846C25.8844 22.4647 27.8959 20.9071 29.0479 19.2541C29.9524 17.9568 29.9989 17.0607 29.9989 16.8942V9.32552C29.9989 8.04188 29.6314 6.85511 28.9039 5.79701C28.2019 4.77373 27.1759 3.89123 25.8544 3.1722C23.2399 1.75081 19.4854 1 14.9989 1C13.3444 1 11.9989 2.35782 11.9989 4.02746L12.0004 4.02898ZM25.1449 4.5058C26.6764 5.33684 28.5004 6.84906 28.5004 9.32703V16.8806C28.4959 16.9396 28.4254 17.5769 27.7129 18.5381C27.0019 19.4963 25.5049 20.9676 22.4029 22.5313C16.3219 25.5996 14.4064 26.5427 14.3884 26.5518C14.3854 26.5533 14.3839 26.5533 14.3824 26.5548C13.6279 26.9347 12.6394 26.6653 12.2239 25.966C12.0364 25.6511 11.9869 25.2833 12.0814 24.9291C12.1834 24.5521 12.4354 24.2358 12.7894 24.0405C12.7939 24.0375 12.7999 24.0344 12.8044 24.0314L16.8619 21.6685C17.7364 21.1856 18.1039 20.6422 17.9554 20.0533C17.8069 19.463 17.2219 19.1648 16.2199 19.1648H4.50187C3.67537 19.1648 3.00187 18.4851 3.00187 17.651C3.00187 16.817 3.67537 16.1373 4.50187 16.1373H14.2519C14.6659 16.1373 15.0019 15.7982 15.0019 15.3804C15.0019 14.9627 14.6659 14.6236 14.2519 14.6236H3.00187C2.17537 14.6236 1.50187 13.9439 1.50187 13.1098C1.50187 12.2758 2.17537 11.5961 3.00187 11.5961H14.2519C14.6659 11.5961 15.0019 11.257 15.0019 10.8393C15.0019 10.4215 14.6659 10.0824 14.2519 10.0824H13.5019C12.6754 10.0824 12.0019 9.40272 12.0019 8.56865C12.0019 7.73459 12.6754 7.05492 13.5019 7.05492H15.7519C16.1659 7.05492 16.5019 6.71585 16.5019 6.29806C16.5019 5.88027 16.1659 5.54119 15.7519 5.54119H15.0019C14.1754 5.54119 13.5019 4.86153 13.5019 4.02746C13.5019 3.1934 14.1754 2.51373 15.0019 2.51373C19.2409 2.51373 22.7494 3.20248 25.1464 4.50429L25.1449 4.5058Z" fill="#343434"/>
<path d="M3.21938 1.97918L0.219375 5.006C-0.073125 5.30112 -0.073125 5.78087 0.219375 6.07598C0.511875 6.3711 0.987375 6.3711 1.27987 6.07598L2.99887 4.34161V7.81187C2.99887 8.22957 3.33488 8.56857 3.74888 8.56857C4.16288 8.56857 4.49888 8.22957 4.49888 7.81187V4.34161L6.21787 6.07598C6.51037 6.3711 6.98588 6.3711 7.27838 6.07598C7.42537 5.92767 7.49738 5.73395 7.49738 5.54024C7.49738 5.34652 7.42388 5.1528 7.27838 5.00449L4.27838 1.97767C3.98588 1.68255 3.51038 1.68255 3.21788 1.97767L3.21938 1.97918Z" fill="#343434"/>
<path d="M3.00037 22.946V26.4162L1.28137 24.6819C0.988871 24.3867 0.513371 24.3867 0.220871 24.6819C-0.0716291 24.977 -0.0716291 25.4567 0.220871 25.7518L3.22087 28.7787C3.51337 29.0738 3.98887 29.0738 4.28137 28.7787L7.28137 25.7518C7.42837 25.6035 7.50037 25.4098 7.50037 25.2161C7.50037 25.0224 7.42687 24.8287 7.28137 24.6803C6.98887 24.3852 6.51337 24.3852 6.22087 24.6803L4.50187 26.4147V22.9445C4.50187 22.5268 4.16587 22.1878 3.75187 22.1878C3.33787 22.1878 3.00187 22.5268 3.00187 22.9445L3.00037 22.946Z" fill="#343434"/>
</svg>
