<svg width="30" height="30" viewBox="0 0 30 30" fill="none" xmlns="http://www.w3.org/2000/svg">
<path d="M25.8867 18.8152C25.2457 18.8152 24.6513 18.6244 24.155 18.2978C23.7287 19.4868 22.5742 20.3416 21.219 20.3416C20.578 20.3416 19.9837 20.1508 19.4873 19.8242C19.061 21.0132 17.9065 21.868 16.5514 21.868C15.985 21.868 15.4529 21.7184 14.9955 21.4574V26.4472C14.9955 28.1308 13.5999 29.5 11.8837 29.5C10.1676 29.5 8.77195 28.1308 8.77195 26.4472V15.1931L6.67773 18.7542C6.27165 19.4792 5.60884 19.9951 4.81223 20.2088C4.03584 20.4164 3.22834 20.3065 2.53753 19.9005C1.12634 19.0701 0.588003 17.1927 1.3395 15.7151C1.38617 15.622 2.37883 13.627 5.47815 7.5489C6.93757 4.6869 8.53857 2.64001 10.2376 1.46774C11.571 0.547318 12.4921 0.5 12.6632 0.5H20.4426C21.762 0.5 22.9818 0.873967 24.0694 1.61427C25.1212 2.32862 26.0283 3.37268 26.7673 4.71743C28.2283 7.37794 29 11.1985 29 15.764C29 17.4476 27.6044 18.8168 25.8882 18.8168L25.8867 18.8152ZM25.3966 5.43942C24.5424 3.88097 22.9881 2.02487 20.4411 2.02487H12.6772C12.6165 2.02945 11.9615 2.10119 10.9735 2.82623C9.98865 3.54974 8.47633 5.07308 6.86911 8.22967C3.71533 14.4177 2.74601 16.3669 2.73668 16.3852C2.73512 16.3883 2.73512 16.3898 2.73357 16.3913C2.34304 17.1591 2.61999 18.165 3.33881 18.5878C3.66243 18.7786 4.04051 18.829 4.40459 18.7328C4.792 18.629 5.11718 18.3726 5.31789 18.0123C5.321 18.0078 5.32411 18.0017 5.32723 17.9971L7.75596 13.8682C8.25229 12.9783 8.81085 12.6043 9.41609 12.7554C10.0229 12.9065 10.3294 13.5018 10.3294 14.5215V26.4457C10.3294 27.2867 11.028 27.9721 11.8853 27.9721C12.7426 27.9721 13.4412 27.2867 13.4412 26.4457V16.5241C13.4412 16.1028 13.7897 15.7609 14.2191 15.7609C14.6485 15.7609 14.997 16.1028 14.997 16.5241V18.8137C14.997 19.6547 15.6956 20.3401 16.5529 20.3401C17.4102 20.3401 18.1088 19.6547 18.1088 18.8137V16.5241C18.1088 16.1028 18.4573 15.7609 18.8868 15.7609C19.3162 15.7609 19.6647 16.1028 19.6647 16.5241V17.2873C19.6647 18.1283 20.3633 18.8137 21.2206 18.8137C22.0779 18.8137 22.7765 18.1283 22.7765 17.2873V14.9977C22.7765 14.5764 23.125 14.2345 23.5544 14.2345C23.9838 14.2345 24.3323 14.5764 24.3323 14.9977V15.7609C24.3323 16.6019 25.0309 17.2873 25.8882 17.2873C26.7455 17.2873 27.4441 16.6019 27.4441 15.7609C27.4441 11.4473 26.7362 7.87707 25.3981 5.43789L25.3966 5.43942Z" fill="#343434"/>
</svg>
