<svg width="30" height="30" viewBox="0 0 30 30" fill="none" xmlns="http://www.w3.org/2000/svg">
<path d="M21.7408 24C21.7408 24.414 21.4048 24.75 20.9908 24.75C20.5768 24.75 20.2408 24.414 20.2408 24C20.2408 23.586 20.5768 23.25 20.9908 23.25C21.4048 23.25 21.7408 23.586 21.7408 24Z" fill="#343434"/>
<path d="M24.75 13.5C24.75 12.2595 23.74 11.25 22.4989 11.25C22.2063 11.25 21.9257 11.307 21.669 11.409C21.4094 10.4535 20.5345 9.75 19.4975 9.75C19.2049 9.75 18.9243 9.807 18.6676 9.909C18.4065 8.9535 17.5331 8.25 16.4961 8.25C16.2335 8.25 15.9799 8.295 15.7458 8.379V4.5C15.7458 3.2595 14.7358 2.25 13.4947 2.25C12.2536 2.25 11.2436 3.2595 11.2436 4.5V13.449L9.13364 11.7795C8.67743 11.418 8.09065 11.238 7.48587 11.271C6.88108 11.304 6.31682 11.55 5.90562 11.961C5.03371 12.8325 5.03071 14.259 5.90112 15.141L11.1221 20.4255C10.3117 20.766 9.74293 21.5685 9.74293 22.5V25.5C9.74293 26.7405 10.7529 27.75 11.994 27.75H22.4989C23.74 27.75 24.75 26.7405 24.75 25.5V22.5C24.75 21.6885 24.3178 20.976 23.671 20.58C24.1632 19.626 24.75 17.883 24.75 15V13.5ZM6.96662 13.023C7.27727 12.7125 7.85504 12.6825 8.20171 12.957L11.5273 15.588C11.7524 15.7665 12.06 15.801 12.3196 15.675C12.5793 15.549 12.7428 15.288 12.7428 15V4.5C12.7428 4.086 13.079 3.75 13.4932 3.75C13.9074 3.75 14.2436 4.086 14.2436 4.5V12C14.2436 12.414 14.5797 12.75 14.9939 12.75C15.4081 12.75 15.7443 12.414 15.7443 12V10.5C15.7443 10.086 16.0804 9.75 16.4946 9.75C16.9088 9.75 17.245 10.086 17.245 10.5V12C17.245 12.414 17.5811 12.75 17.9953 12.75C18.4095 12.75 18.7457 12.414 18.7457 12C18.7457 11.586 19.0818 11.25 19.496 11.25C19.9102 11.25 20.2464 11.586 20.2464 12V13.5C20.2464 13.914 20.5825 14.25 20.9967 14.25C21.4109 14.25 21.7471 13.914 21.7471 13.5C21.7471 13.086 22.0832 12.75 22.4974 12.75C22.9116 12.75 23.2478 13.086 23.2478 13.5V15C23.2478 18.153 22.4734 19.7085 22.1253 20.25H13.0565L6.96812 14.088C6.67999 13.797 6.67999 13.3095 6.96512 13.023H6.96662ZM23.2493 25.5C23.2493 25.914 22.9131 26.25 22.4989 26.25H11.994C11.5798 26.25 11.2436 25.914 11.2436 25.5V22.5C11.2436 22.086 11.5798 21.75 11.994 21.75H22.4989C22.9131 21.75 23.2493 22.086 23.2493 22.5V25.5Z" fill="#343434"/>
</svg>
