<svg width="30" height="30" viewBox="0 0 30 30" fill="none" xmlns="http://www.w3.org/2000/svg">
<path d="M21.7488 24.75C21.7488 25.164 21.4127 25.5 20.9985 25.5C20.5844 25.5 20.2482 25.164 20.2482 24.75C20.2482 24.336 20.5844 24 20.9985 24C21.4127 24 21.7488 24.336 21.7488 24.75Z" fill="#343434"/>
<path d="M14.9962 4.5C14.582 4.5 14.2459 4.164 14.2459 3.75C14.2459 3.336 13.9097 3 13.4956 3C13.0814 3 12.7453 3.336 12.7453 3.75C12.7453 4.164 12.4091 4.5 11.995 4.5C11.5808 4.5 11.2447 4.164 11.2447 3.75C11.2447 2.5095 12.2546 1.5 13.4956 1.5C14.7366 1.5 15.7464 2.5095 15.7464 3.75C15.7464 4.164 15.4103 4.5 14.9962 4.5Z" fill="#343434"/>
<path d="M23.6711 21.33C24.1633 20.376 24.75 18.633 24.75 15.75C24.75 14.5095 23.7401 13.5 22.4991 13.5C22.2065 13.5 21.9259 13.5555 21.6693 13.6575C21.4082 12.7035 20.5333 12 19.4979 12C19.2053 12 18.9247 12.0555 18.6681 12.1575C18.407 11.2035 17.5322 10.5 16.4967 10.5C16.2341 10.5 15.9805 10.545 15.7465 10.629V9.75C15.7465 9.336 15.4103 9 14.9962 9C14.582 9 14.2459 9.336 14.2459 9.75V12.75C14.2459 13.164 14.582 13.5 14.9962 13.5C15.4103 13.5 15.7465 13.164 15.7465 12.75C15.7465 12.336 16.0826 12 16.4967 12C16.9109 12 17.247 12.336 17.247 12.75V14.25C17.247 14.664 17.5832 15 17.9973 15C18.4115 15 18.7476 14.664 18.7476 14.25C18.7476 13.836 19.0838 13.5 19.4979 13.5C19.9121 13.5 20.2482 13.836 20.2482 14.25V15.75C20.2482 16.164 20.5844 16.5 20.9985 16.5C21.4127 16.5 21.7488 16.164 21.7488 15.75C21.7488 15.336 22.0849 15 22.4991 15C22.9133 15 23.2494 15.336 23.2494 15.75C23.2494 18.903 22.4751 20.4585 22.127 21H13.0589L6.97099 14.838C6.68288 14.547 6.68288 14.0595 6.96799 13.773C7.27862 13.4625 7.85634 13.4325 8.20298 13.707L11.5283 16.338C11.7534 16.5165 12.061 16.551 12.3206 16.425C12.5802 16.299 12.7438 16.038 12.7438 15.75V9.75C12.7438 9.336 12.4076 9 11.9935 9C11.5793 9 11.2432 9.336 11.2432 9.75V14.199L9.13335 12.5295C8.67717 12.168 8.09043 11.988 7.4857 12.021C6.88096 12.054 6.31674 12.3 5.90557 12.711C5.03373 13.5825 5.03073 15.009 5.90107 15.891L11.1216 21.1755C10.3128 21.516 9.74259 22.3185 9.74259 23.25V26.25C9.74259 27.4905 10.7525 28.5 11.9935 28.5H22.4976C23.7386 28.5 24.7485 27.4905 24.7485 26.25V23.25C24.7485 22.4385 24.3163 21.726 23.6696 21.33H23.6711ZM23.2494 26.25C23.2494 26.664 22.9133 27 22.4991 27H11.995C11.5808 27 11.2447 26.664 11.2447 26.25V23.25C11.2447 22.836 11.5808 22.5 11.995 22.5H22.4991C22.9133 22.5 23.2494 22.836 23.2494 23.25V26.25Z" fill="#343434"/>
<path d="M17.9973 4.5C17.172 4.5 14.618 5.4885 13.4956 5.94C12.3731 5.4885 9.81911 4.5 8.99379 4.5C7.7528 4.5 6.7429 5.5095 6.7429 6.75C6.7429 7.9905 7.7528 9 8.99379 9C9.81911 9 12.3731 8.0115 13.4956 7.56C14.618 8.0115 17.172 9 17.9973 9C19.2383 9 20.2482 7.9905 20.2482 6.75C20.2482 5.5095 19.2383 4.5 17.9973 4.5ZM8.99379 7.5C8.57963 7.5 8.24349 7.164 8.24349 6.75C8.24349 6.336 8.57963 6 8.99379 6C9.2804 6.0045 10.2873 6.33 11.4247 6.75C10.2873 7.17 9.2804 7.4955 8.99379 7.5ZM17.9973 7.5C17.7092 7.4955 16.7023 7.17 15.5664 6.75C16.7038 6.33 17.7107 6.0045 17.9973 6C18.4115 6 18.7476 6.336 18.7476 6.75C18.7476 7.164 18.4115 7.5 17.9973 7.5Z" fill="#343434"/>
</svg>
