<svg width="30" height="30" viewBox="0 0 30 30" xmlns="http://www.w3.org/2000/svg">
<path d="M15.462 22C19.328 22 22.462 18.866 22.462 15C22.462 11.134 19.328 8 15.462 8C11.596 8 8.462 11.134 8.462 15C8.462 18.866 11.596 22 15.462 22Z"/>
<path d="M18.0132 6.04743C16.4286 5.60503 14.7564 5.58185 13.1602 5.98015L15.5724 0.992653L18.0132 6.04743Z"/>
<path d="M18.0131 23.9526L15.5723 29.0074L13.1634 24.0199C14.7596 24.4182 16.4319 24.395 18.0164 23.9526H18.0131Z"/>
<path d="M24.5195 17.4066C24.9431 15.8302 24.9431 14.1698 24.5195 12.5934L29.5798 15L24.5195 17.4066Z"/>
<path d="M6.08704 15C6.08626 15.8124 6.19307 16.6212 6.40469 17.4055L1.34439 15L6.40469 12.5945C6.19307 13.3788 6.08626 14.1877 6.08704 15Z"/>
<path d="M25.5549 24.9044L20.1924 23.0294C21.6354 22.1924 22.8284 20.9849 23.6479 19.532L25.5549 24.9044Z"/>
<path d="M10.814 6.92097C9.41429 7.71396 8.24214 8.85382 7.41037 10.2309L5.58942 5.0956L10.814 6.92097Z"/>
<path d="M25.5549 5.0956L23.6479 10.4669C22.8284 9.01397 21.6354 7.80649 20.1924 6.96949L25.5549 5.0956Z"/>
<path d="M10.814 23.0791L5.58942 24.9044L7.41037 19.7691C8.24214 21.1462 9.41429 22.2861 10.814 23.0791Z"/>
</svg>
