<svg width="30" height="30" viewBox="0 0 30 30" fill="none" xmlns="http://www.w3.org/2000/svg">
<path d="M24.75 9.00003C25.164 9.00003 25.5 9.33603 25.5 9.75003C25.5 10.164 25.164 10.5 24.75 10.5C24.336 10.5 24 10.164 24 9.75003C24 9.33603 24.336 9.00003 24.75 9.00003Z" fill="#343434"/>
<path d="M14.25 6.00003C13.0095 6.00003 12 7.00953 12 8.25003C12 8.54253 12.057 8.82303 12.159 9.07953C11.2035 9.33903 10.5 10.2135 10.5 11.25C10.5 11.5125 10.5465 11.7645 10.629 12H3.75001C2.50951 12 1.50001 13.0095 1.50001 14.25C1.50001 15.2865 2.20351 16.161 3.15751 16.4205C3.05551 16.677 3.00001 16.9575 3.00001 17.25C3.00001 18.4905 4.00951 19.5 5.25001 19.5H14.199L12.5295 21.609C12.168 22.065 11.988 22.65 12.021 23.256C12.054 23.862 12.3 24.4245 12.711 24.8355C13.5825 25.707 15.009 25.71 15.891 24.84L21.1755 19.6215C21.516 20.4315 22.3185 21 23.25 21H26.25C27.4905 21 28.5 19.9905 28.5 18.75V8.25003C28.5 7.00953 27.4905 6.00003 26.25 6.00003H23.25C22.4385 6.00003 21.726 6.43203 21.33 7.07853C20.376 6.58653 18.633 6.00003 15.75 6.00003H14.25ZM13.773 23.775C13.4625 23.4645 13.4325 22.887 13.707 22.5405L16.338 19.2165C16.5165 18.9915 16.551 18.684 16.425 18.4245C16.299 18.165 16.038 18.0015 15.75 18.0015H5.25001C4.83601 18.0015 4.50001 17.6655 4.50001 17.2515C4.50001 16.8375 4.83601 16.5015 5.25001 16.5015H12.75C13.164 16.5015 13.5 16.1655 13.5 15.7515C13.5 15.3375 13.164 15.0015 12.75 15.0015H3.75001C3.33601 15.0015 3.00001 14.6655 3.00001 14.2515C3.00001 13.8375 3.33601 13.5015 3.75001 13.5015H12.75C13.164 13.5015 13.5 13.1655 13.5 12.7515C13.5 12.3375 13.164 12.0015 12.75 12.0015C12.336 12.0015 12 11.6655 12 11.2515C12 10.8375 12.336 10.5015 12.75 10.5015H14.25C14.664 10.5015 15 10.1655 15 9.75153C15 9.33753 14.664 9.00153 14.25 9.00153C13.836 9.00153 13.5 8.66553 13.5 8.25153C13.5 7.83753 13.836 7.50153 14.25 7.50153H15.75C18.903 7.50153 20.4585 8.27553 21 8.62353V17.688L14.838 23.7735C14.547 24.0615 14.0595 24.0615 13.773 23.7765V23.775ZM26.25 7.50003C26.664 7.50003 27 7.83603 27 8.25003V18.75C27 19.164 26.664 19.5 26.25 19.5H23.25C22.836 19.5 22.5 19.164 22.5 18.75V8.25003C22.5 7.83603 22.836 7.50003 23.25 7.50003H26.25Z" fill="#343434"/>
<path d="M4.71901 2.46904L1.71901 5.46904C1.42651 5.76154 1.42651 6.23704 1.71901 6.52954C2.01151 6.82204 2.48701 6.82204 2.77951 6.52954L4.49851 4.81054V9.75004C4.49851 10.164 4.83451 10.5 5.24851 10.5C5.66251 10.5 5.99851 10.164 5.99851 9.75004V4.81054L7.71751 6.52954C8.01001 6.82204 8.48551 6.82204 8.77801 6.52954C8.92501 6.38254 8.99701 6.19054 8.99701 5.99854C8.99701 5.80654 8.92351 5.61454 8.77801 5.46754L5.77801 2.46754C5.48551 2.17504 5.01001 2.17504 4.71751 2.46754L4.71901 2.46904Z" fill="#343434"/>
<path d="M4.50001 21.75V26.6895L2.78101 24.9705C2.48851 24.678 2.01301 24.678 1.72051 24.9705C1.42801 25.263 1.42801 25.7385 1.72051 26.031L4.72051 29.031C5.01301 29.3235 5.48851 29.3235 5.78101 29.031L8.78101 26.031C8.92801 25.884 9.00001 25.692 9.00001 25.5C9.00001 25.308 8.92651 25.116 8.78101 24.969C8.48851 24.6765 8.01301 24.6765 7.72051 24.969L6.00151 26.688V21.7485C6.00151 21.3345 5.66551 20.9985 5.25151 20.9985C4.83751 20.9985 4.50151 21.3345 4.50151 21.7485L4.50001 21.75Z" fill="#343434"/>
</svg>
