<svg width="30" height="30" viewBox="0 0 30 30" fill="none" xmlns="http://www.w3.org/2000/svg">
<path d="M24.5588 25.3158C24.5588 25.7225 24.2294 26.0526 23.8235 26.0526C23.4176 26.0526 23.0882 25.7225 23.0882 25.3158C23.0882 24.9091 23.4176 24.5789 23.8235 24.5789C24.2294 24.5789 24.5588 24.9091 24.5588 25.3158Z" fill="#343434"/>
<path d="M27.5 15C27.5 13.7813 26.5103 12.7895 25.2941 12.7895C25.0074 12.7895 24.7324 12.8455 24.4809 12.9457C24.2265 12.0069 23.3691 11.3158 22.3529 11.3158C22.0662 11.3158 21.7912 11.3718 21.5397 11.472C21.2838 10.5333 20.4279 9.8421 19.4118 9.8421C19.1544 9.8421 18.9059 9.88632 18.6765 9.96884V6.15789C18.6765 4.93916 17.6868 3.94737 16.4706 3.94737C15.2544 3.94737 14.2647 4.93916 14.2647 6.15789V14.9499L12.1971 13.3097C11.75 12.9545 11.1765 12.7777 10.5824 12.8101C9.98824 12.8425 9.43677 13.0842 9.03383 13.488C8.17942 14.3442 8.17647 15.7457 9.02942 16.6122L14.1456 21.804C13.3515 22.1385 12.7941 22.9269 12.7941 23.8421V26.7895C12.7941 28.0082 13.7838 29 15 29H25.2941C26.5103 29 27.5 28.0082 27.5 26.7895V23.8421C27.5 23.0448 27.0765 22.3448 26.4426 21.9558C26.925 21.0185 27.5 19.3061 27.5 16.4737V15ZM10.0735 14.5314C10.3779 14.2263 10.9441 14.1968 11.2838 14.4665L14.5426 17.0514C14.7632 17.2267 15.0647 17.2606 15.3191 17.1368C15.5735 17.0131 15.7338 16.7566 15.7338 16.4737V6.15789C15.7338 5.75116 16.0632 5.42105 16.4691 5.42105C16.875 5.42105 17.2044 5.75116 17.2044 6.15789V13.5263C17.2044 13.9331 17.5338 14.2632 17.9397 14.2632C18.3456 14.2632 18.675 13.9331 18.675 13.5263V12.0526C18.675 11.6459 19.0044 11.3158 19.4103 11.3158C19.8162 11.3158 20.1456 11.6459 20.1456 12.0526V13.5263C20.1456 13.9331 20.475 14.2632 20.8809 14.2632C21.2868 14.2632 21.6162 13.9331 21.6162 13.5263C21.6162 13.1196 21.9456 12.7895 22.3515 12.7895C22.7574 12.7895 23.0868 13.1196 23.0868 13.5263V15C23.0868 15.4067 23.4162 15.7368 23.8221 15.7368C24.2279 15.7368 24.5574 15.4067 24.5574 15C24.5574 14.5933 24.8868 14.2632 25.2926 14.2632C25.6985 14.2632 26.0279 14.5933 26.0279 15V16.4737C26.0279 19.5714 25.2691 21.0996 24.9279 21.6316H16.0412L10.075 15.5777C9.79265 15.2918 9.79265 14.8128 10.0721 14.5314H10.0735ZM26.0294 26.7895C26.0294 27.1962 25.7 27.5263 25.2941 27.5263H15C14.5941 27.5263 14.2647 27.1962 14.2647 26.7895V23.8421C14.2647 23.4354 14.5941 23.1053 15 23.1053H25.2941C25.7 23.1053 26.0294 23.4354 26.0294 23.8421V26.7895Z" fill="#343434"/>
<path d="M7.65735 9.8421H5.01029L11.3235 3.51558V6.15789C11.3235 6.56463 11.6529 6.89474 12.0588 6.89474C12.4647 6.89474 12.7941 6.56463 12.7941 6.15789V1.73684C12.7941 1.33011 12.4647 1 12.0588 1H7.64706C7.24118 1 6.91176 1.33011 6.91176 1.73684C6.91176 2.14358 7.24118 2.47368 7.64706 2.47368H10.2838L3.97059 8.80021V6.15789C3.97059 5.75116 3.64118 5.42105 3.23529 5.42105C2.82941 5.42105 2.5 5.75116 2.5 6.15789V10.5789C2.5 10.9857 2.82941 11.3158 3.23529 11.3158H7.65735C8.06323 11.3158 8.39265 10.9857 8.39265 10.5789C8.39265 10.1722 8.06323 9.8421 7.65735 9.8421Z" fill="#343434"/>
</svg>
