<svg width="30" height="30" viewBox="0 0 30 30" fill="none" xmlns="http://www.w3.org/2000/svg">
<path d="M18.8152 25.8867C18.8152 25.2457 18.6244 24.6513 18.2978 24.155C19.4868 23.7287 20.3416 22.5742 20.3416 21.219C20.3416 20.578 20.1508 19.9837 19.8242 19.4873C21.0132 19.061 21.868 17.9065 21.868 16.5514C21.868 15.985 21.7184 15.4529 21.4574 14.9955H26.4472C28.1308 14.9955 29.5 13.5999 29.5 11.8837C29.5 10.1676 28.1308 8.77195 26.4472 8.77195H15.1931L18.7542 6.67773C19.4792 6.27165 19.9951 5.60884 20.2088 4.81223C20.4164 4.03584 20.3065 3.22834 19.9005 2.53753C19.0701 1.12634 17.1927 0.588003 15.7151 1.3395C15.622 1.38617 13.627 2.37883 7.5489 5.47815C4.6869 6.93757 2.64001 8.53857 1.46774 10.2376C0.547318 11.571 0.5 12.4921 0.5 12.6632V20.4426C0.5 21.762 0.873967 22.9818 1.61427 24.0694C2.32862 25.1212 3.37268 26.0283 4.71743 26.7673C7.37794 28.2283 11.1985 29 15.764 29C17.4476 29 18.8168 27.6044 18.8168 25.8882L18.8152 25.8867ZM5.43942 25.3966C3.88097 24.5424 2.02487 22.9881 2.02487 20.4411V12.6772C2.02945 12.6165 2.10119 11.9615 2.82623 10.9735C3.54974 9.98865 5.07308 8.47633 8.22967 6.86911C14.4177 3.71533 16.3669 2.74601 16.3852 2.73668C16.3883 2.73512 16.3898 2.73512 16.3913 2.73357C17.1591 2.34304 18.165 2.61999 18.5878 3.33881C18.7786 3.66243 18.829 4.04051 18.7328 4.40459C18.629 4.792 18.3726 5.11718 18.0123 5.31789C18.0078 5.321 18.0017 5.32411 17.9971 5.32723L13.8682 7.75596C12.9783 8.25229 12.6043 8.81085 12.7554 9.41609C12.9065 10.0229 13.5018 10.3294 14.5215 10.3294H26.4457C27.2867 10.3294 27.9721 11.028 27.9721 11.8853C27.9721 12.7426 27.2867 13.4412 26.4457 13.4412H16.5241C16.1028 13.4412 15.7609 13.7897 15.7609 14.2191C15.7609 14.6485 16.1028 14.997 16.5241 14.997H18.8137C19.6547 14.997 20.3401 15.6956 20.3401 16.5529C20.3401 17.4102 19.6547 18.1088 18.8137 18.1088H16.5241C16.1028 18.1088 15.7609 18.4573 15.7609 18.8868C15.7609 19.3162 16.1028 19.6647 16.5241 19.6647H17.2873C18.1283 19.6647 18.8137 20.3633 18.8137 21.2206C18.8137 22.0779 18.1283 22.7765 17.2873 22.7765H14.9977C14.5764 22.7765 14.2345 23.125 14.2345 23.5544C14.2345 23.9838 14.5764 24.3323 14.9977 24.3323H15.7609C16.6019 24.3323 17.2873 25.0309 17.2873 25.8882C17.2873 26.7455 16.6019 27.4441 15.7609 27.4441C11.4473 27.4441 7.87707 26.7362 5.43789 25.3981L5.43942 25.3966Z" fill="#343434"/>
</svg>
