<svg width="30" height="30" viewBox="0 0 30 30" fill="none" xmlns="http://www.w3.org/2000/svg">
<path d="M25.5 30H4.5C3.2595 30 2.25 28.9905 2.25 27.75V6.75C2.25 5.5095 3.2595 4.5 4.5 4.5H6C6.414 4.5 6.75 4.836 6.75 5.25C6.75 5.664 6.414 6 6 6H4.5C4.086 6 3.75 6.336 3.75 6.75V27.75C3.75 28.164 4.086 28.5 4.5 28.5H25.5C25.914 28.5 26.25 28.164 26.25 27.75V6.75C26.25 6.336 25.914 6 25.5 6H24C23.586 6 23.25 5.664 23.25 5.25C23.25 4.836 23.586 4.5 24 4.5H25.5C26.7405 4.5 27.75 5.5095 27.75 6.75V27.75C27.75 28.9905 26.7405 30 25.5 30Z" fill="#343434"/>
<path d="M21.0015 7.5C21.0015 7.5 21.0015 7.5 21 7.5H9C8.586 7.5 8.25 7.164 8.25 6.75C8.25 5.2425 8.9295 4.071 10.164 3.4545C10.5765 3.2475 10.9845 3.135 11.31 3.0735C11.6295 1.3275 13.1625 0 14.9985 0C16.8345 0 18.3675 1.3275 18.687 3.0735C19.014 3.135 19.4205 3.2475 19.833 3.4545C21.057 4.0665 21.735 5.2215 21.747 6.7095C21.7485 6.723 21.7485 6.7365 21.7485 6.75C21.7485 7.164 21.4125 7.5 20.9985 7.5H21.0015ZM9.84 6H20.16C20.016 5.466 19.6995 5.0745 19.203 4.815C18.6195 4.5105 18.003 4.5 17.9955 4.5C17.5815 4.5 17.25 4.164 17.25 3.75C17.25 2.5095 16.2405 1.5 15 1.5C13.7595 1.5 12.75 2.5095 12.75 3.75C12.75 4.164 12.414 4.5 12 4.5C11.9985 4.5 11.3805 4.5105 10.797 4.815C10.3005 5.0745 9.984 5.4645 9.84 6V6Z" fill="#343434"/>
<path d="M15 4.5C14.802 4.5 14.6085 4.4205 14.4705 4.2795C14.3325 4.1385 14.25 3.9465 14.25 3.75C14.25 3.5535 14.3295 3.3585 14.4705 3.2205C14.61 3.081 14.8035 3 15 3C15.1965 3 15.3915 3.0795 15.5295 3.2205C15.669 3.36 15.75 3.5535 15.75 3.75C15.75 3.9465 15.6705 4.14 15.5295 4.2795C15.39 4.419 15.1965 4.5 15 4.5V4.5Z" fill="#343434"/>
<path d="M19.5 25.5H10.5C9.8625 25.5 9.306 25.2345 8.9715 24.771C8.637 24.3075 8.562 23.6955 8.763 23.091C8.796 22.9935 9.1065 22.1175 10.0365 21.243C10.8825 20.448 12.4305 19.5015 15 19.5015C17.5695 19.5015 19.1175 20.448 19.9635 21.243C20.8935 22.1175 21.204 22.9935 21.237 23.091C21.438 23.6955 21.363 24.3075 21.0285 24.771C20.694 25.2345 20.1375 25.5 19.5 25.5V25.5ZM15 21C11.0865 21 10.194 23.538 10.1865 23.5635C10.14 23.703 10.1415 23.826 10.1895 23.892C10.2375 23.958 10.3545 23.9985 10.5015 23.9985H19.5015C19.6485 23.9985 19.7655 23.958 19.8135 23.892C19.8615 23.826 19.863 23.7045 19.818 23.5665C19.77 23.433 18.8415 20.9985 15.003 20.9985L15 21Z" fill="#343434"/>
<path d="M15 18C12.933 18 11.25 16.317 11.25 14.25C11.25 12.183 12.933 10.5 15 10.5C17.067 10.5 18.75 12.183 18.75 14.25C18.75 16.317 17.067 18 15 18ZM15 12C13.7595 12 12.75 13.0095 12.75 14.25C12.75 15.4905 13.7595 16.5 15 16.5C16.2405 16.5 17.25 15.4905 17.25 14.25C17.25 13.0095 16.2405 12 15 12Z" fill="#343434"/>
</svg>
