<svg width="31" height="30" viewBox="0 0 31 30" fill="none" xmlns="http://www.w3.org/2000/svg">
  <path d="M28.5 27H3C1.7595 27 0.75 25.9905 0.75 24.75V5.25C0.75 4.0095 1.7595 3 3 3H28.5C29.7405 3 30.75 4.0095 30.75 5.25V24.75C30.75 25.9905 29.7405 27 28.5 27ZM3 4.5C2.586 4.5 2.25 4.836 2.25 5.25V24.75C2.25 25.164 2.586 25.5 3 25.5H28.5C28.914 25.5 29.25 25.164 29.25 24.75V5.25C29.25 4.836 28.914 4.5 28.5 4.5H3Z" fill="#343434"/>
  <path d="M15 9H6C5.586 9 5.25 8.664 5.25 8.25C5.25 7.836 5.586 7.5 6 7.5H15C15.414 7.5 15.75 7.836 15.75 8.25C15.75 8.664 15.414 9 15 9Z" fill="#343434"/>
  <path d="M15 13.5H6C5.586 13.5 5.25 13.164 5.25 12.75C5.25 12.336 5.586 12 6 12H15C15.414 12 15.75 12.336 15.75 12.75C15.75 13.164 15.414 13.5 15 13.5Z" fill="#343434"/>
  <path d="M15 16.5H6C5.586 16.5 5.25 16.164 5.25 15.75C5.25 15.336 5.586 15 6 15H15C15.414 15 15.75 15.336 15.75 15.75C15.75 16.164 15.414 16.5 15 16.5Z" fill="#343434"/>
  <path d="M15 19.5H6C5.586 19.5 5.25 19.164 5.25 18.75C5.25 18.336 5.586 18 6 18H15C15.414 18 15.75 18.336 15.75 18.75C15.75 19.164 15.414 19.5 15 19.5Z" fill="#343434"/>
  <path d="M9.11514 22.5H6C5.586 22.5 5.25 22.164 5.25 21.75C5.25 21.336 5.586 21 6 21H9.11514C9.52914 21 9.86514 21.336 9.86514 21.75C9.86514 22.164 9.52914 22.5 9.11514 22.5Z" fill="#343434"/>
  <path d="M27.6645 9.81601L26.445 8.92951L25.9785 7.49551H24.471L23.2515 6.60901L22.032 7.49551H20.5245L20.058 8.92951L18.8385 9.81601L19.305 11.25L18.8385 12.684L20.058 13.5705L20.256 14.1795C20.253 14.2035 20.253 14.226 20.253 14.25V21.75C20.253 22.053 20.436 22.3275 20.7165 22.443C20.997 22.5585 21.3195 22.4955 21.534 22.281L23.253 20.562L24.972 22.281C25.116 22.425 25.3065 22.5015 25.503 22.5C25.599 22.5 25.6965 22.482 25.7895 22.443C26.07 22.3275 26.253 22.053 26.253 21.75V14.25C26.253 14.226 26.2515 14.202 26.25 14.1795L26.448 13.5705L27.6675 12.684L27.201 11.25L27.6675 9.81601H27.6645ZM20.5995 10.389L21.3315 9.85651L21.612 8.99551H22.518L23.25 8.46301L23.982 8.99551H24.888L25.1685 9.85651L25.9005 10.389L25.62 11.25L25.9005 12.111L25.1685 12.6435L24.888 13.5045H23.982L23.25 14.037L22.518 13.5045H21.612L21.3315 12.6435L20.5995 12.111L20.88 11.25L20.5995 10.389ZM23.781 18.969C23.4885 18.6765 23.013 18.6765 22.7205 18.969L21.7515 19.938V15.003H22.032L23.2515 15.8895L24.471 15.003H24.7515V19.938L23.7825 18.969H23.781Z" fill="#343434"/>
</svg>
