<svg width="30" height="30" viewBox="0 0 30 30" fill="none" xmlns="http://www.w3.org/2000/svg">
<path d="M27.75 27H2.25C1.0095 27 0 25.9905 0 24.75V5.25C0 4.0095 1.0095 3 2.25 3H27.75C28.9905 3 30 4.0095 30 5.25V24.75C30 25.9905 28.9905 27 27.75 27ZM2.25 4.5C1.836 4.5 1.5 4.836 1.5 5.25V24.75C1.5 25.164 1.836 25.5 2.25 25.5H27.75C28.164 25.5 28.5 25.164 28.5 24.75V5.25C28.5 4.836 28.164 4.5 27.75 4.5H2.25Z" fill="#343434"/>
<path d="M14.25 9H5.25C4.836 9 4.5 8.664 4.5 8.25C4.5 7.836 4.836 7.5 5.25 7.5H14.25C14.664 7.5 15 7.836 15 8.25C15 8.664 14.664 9 14.25 9Z" fill="#343434"/>
<path d="M14.25 13.5H5.25C4.836 13.5 4.5 13.164 4.5 12.75C4.5 12.336 4.836 12 5.25 12H14.25C14.664 12 15 12.336 15 12.75C15 13.164 14.664 13.5 14.25 13.5Z" fill="#343434"/>
<path d="M14.25 16.5H5.25C4.836 16.5 4.5 16.164 4.5 15.75C4.5 15.336 4.836 15 5.25 15H14.25C14.664 15 15 15.336 15 15.75C15 16.164 14.664 16.5 14.25 16.5Z" fill="#343434"/>
<path d="M14.25 19.5H5.25C4.836 19.5 4.5 19.164 4.5 18.75C4.5 18.336 4.836 18 5.25 18H14.25C14.664 18 15 18.336 15 18.75C15 19.164 14.664 19.5 14.25 19.5Z" fill="#343434"/>
<path d="M12.75 22.5H5.25C4.836 22.5 4.5 22.164 4.5 21.75C4.5 21.336 4.836 21 5.25 21H12.75C13.164 21 13.5 21.336 13.5 21.75C13.5 22.164 13.164 22.5 12.75 22.5Z" fill="#343434"/>
<path d="M26.9145 9.81601L25.695 8.92951L25.2285 7.49551H23.721L22.5015 6.60901L21.282 7.49551H19.7745L19.308 8.92951L18.0885 9.81601L18.555 11.25L18.0885 12.684L19.308 13.5705L19.506 14.1795C19.503 14.2035 19.503 14.226 19.503 14.25V21.75C19.503 22.053 19.686 22.3275 19.9665 22.443C20.247 22.5585 20.5695 22.4955 20.784 22.281L22.503 20.562L24.222 22.281C24.366 22.425 24.5565 22.5015 24.753 22.5C24.849 22.5 24.9465 22.482 25.0395 22.443C25.32 22.3275 25.503 22.053 25.503 21.75V14.25C25.503 14.226 25.5015 14.202 25.5 14.1795L25.698 13.5705L26.9175 12.684L26.451 11.25L26.9175 9.81601H26.9145ZM19.8495 10.389L20.5815 9.85651L20.862 8.99551H21.768L22.5 8.46301L23.232 8.99551H24.138L24.4185 9.85651L25.1505 10.389L24.87 11.25L25.1505 12.111L24.4185 12.6435L24.138 13.5045H23.232L22.5 14.037L21.768 13.5045H20.862L20.5815 12.6435L19.8495 12.111L20.13 11.25L19.8495 10.389V10.389ZM23.031 18.969C22.7385 18.6765 22.263 18.6765 21.9705 18.969L21.0015 19.938V15.003H21.282L22.5015 15.8895L23.721 15.003H24.0015V19.938L23.0325 18.969H23.031Z" fill="#343434"/>
</svg>
