<svg width="30" height="31" viewBox="0 0 30 31" fill="none" xmlns="http://www.w3.org/2000/svg">
<path d="M24.6569 4.3935C21.8234 1.56 18.0569 0 14.0504 0C9.40937 0 5.08787 2.1375 2.27087 5.7105V3.75C2.27087 3.336 1.93487 3 1.52087 3C1.10687 3 0.770869 3.336 0.770869 3.75V8.208C0.770869 8.5515 1.00337 8.85 1.33637 8.9355C1.48187 8.973 1.62887 8.964 1.76237 8.919L6.04187 7.461C6.43337 7.3275 6.64337 6.9015 6.50987 6.51C6.37637 6.1185 5.95037 5.9085 5.55887 6.042L3.32387 6.804C5.85587 3.492 9.80387 1.503 14.0519 1.503C21.4964 1.503 27.5519 7.5585 27.5519 15.003C27.5519 22.4475 21.4964 28.503 14.0519 28.503C9.07787 28.503 4.52087 25.7805 2.15987 21.3975C1.96337 21.033 1.50887 20.8965 1.14437 21.093C0.779869 21.2895 0.643369 21.744 0.839869 22.1085C3.46337 26.9775 8.52737 30.003 14.0534 30.003C18.0599 30.003 21.8264 28.443 24.6599 25.6095C27.4934 22.776 29.0534 19.0095 29.0534 15.003C29.0534 10.9965 27.4934 7.23 24.6599 4.3965L24.6569 4.3935Z" fill="#343434"/>
<path d="M15 15.75C14.874 15.75 14.7495 15.7185 14.6355 15.6555L7.88548 11.9055C7.52398 11.7045 7.39348 11.2485 7.59448 10.8855C7.79548 10.5225 8.25148 10.3935 8.61448 10.5945L14.9745 14.127L22.848 9.117C23.1975 8.895 23.661 8.997 23.883 9.3465C24.105 9.696 24.003 10.1595 23.6535 10.3815L15.4035 15.6315C15.2805 15.7095 15.141 15.7485 15.0015 15.7485L15 15.75Z" fill="#343434"/>
</svg>
