<svg width="30" height="30" viewBox="0 0 30 30" fill="none" xmlns="http://www.w3.org/2000/svg">
  <path d="M24.7569 4.3935C21.9234 1.56 18.1569 0 14.1504 0C9.50937 0 5.18787 2.1375 2.37087 5.7105V3.75C2.37087 3.336 2.03487 3 1.62087 3C1.20687 3 0.87087 3.336 0.87087 3.75V8.208C0.87087 8.5515 1.10337 8.85 1.43637 8.9355C1.58187 8.973 1.72887 8.964 1.86237 8.919L6.14187 7.461C6.53337 7.3275 6.74337 6.9015 6.60987 6.51C6.47637 6.1185 6.05037 5.9085 5.65887 6.042L3.42387 6.804C5.95587 3.492 9.90387 1.503 14.1519 1.503C21.5964 1.503 27.6519 7.5585 27.6519 15.003C27.6519 22.4475 21.5964 28.503 14.1519 28.503C9.17787 28.503 4.62087 25.7805 2.25987 21.3975C2.06337 21.033 1.60887 20.8965 1.24437 21.093C0.87987 21.2895 0.74337 21.744 0.93987 22.1085C3.56337 26.9775 8.62737 30.003 14.1534 30.003C18.1599 30.003 21.9264 28.443 24.7599 25.6095C27.5934 22.776 29.1534 19.0095 29.1534 15.003C29.1534 10.9965 27.5934 7.23 24.7599 4.3965L24.7569 4.3935Z" fill="#343434"/>
  <path d="M15.1 15.75C14.974 15.75 14.8495 15.7185 14.7355 15.6555L9.66242 12.6832C9.30092 12.4822 9.17042 12.0262 9.37142 11.6632C9.57242 11.3002 10.0284 11.1712 10.3914 11.3722L15.0745 14.127L22.948 9.117C23.2975 8.895 23.761 8.997 23.983 9.3465C24.205 9.696 24.103 10.1595 23.7535 10.3815L15.5035 15.6315C15.3805 15.7095 15.241 15.7485 15.1015 15.7485L15.1 15.75Z" fill="#343434"/>
</svg>
