<svg width="30" height="30" viewBox="0 0 30 30" fill="none" xmlns="http://www.w3.org/2000/svg">
  <path d="M24.4737 6.31579H27.6316C28.9374 6.31579 30 7.37842 30 8.68421L30 27.6316C30 28.9374 28.9374 30 27.6316 30L13.4211 30V28.4211L27.6316 28.4211C28.0674 28.4211 28.4211 28.0674 28.4211 27.6316L28.4211 8.68421C28.4211 8.24842 28.0674 7.89474 27.6316 7.89474H24.4737C24.0379 7.89474 23.6842 7.54105 23.6842 7.10526C23.6842 6.66947 24.0379 6.31579 24.4737 6.31579Z" fill="#343434"/>
  <path d="M18.1579 6.31579L2.36842 6.31579C1.06263 6.31579 -1.90735e-06 7.37842 -1.90735e-06 8.68421L-1.90735e-06 27.6316C-1.90735e-06 28.9374 1.06263 30 2.36842 30H13.4211V28.4211H2.36842C1.93263 28.4211 1.57895 28.0674 1.57895 27.6316L1.57895 8.68421C1.57895 8.24842 1.93263 7.89474 2.36842 7.89474L18.1579 7.89474C18.5937 7.89474 18.9474 7.54105 18.9474 7.10526C18.9474 6.66947 18.5937 6.31579 18.1579 6.31579Z" fill="#343434"/>
  <path d="M18.1579 18.9474C19.0828 18.9474 20.5263 18.9474 20.5263 18.9474L20.5263 1.57895C20.5263 1.57895 19.0828 1.57895 18.1579 1.57895C17.759 1.57895 17.3684 1.22526 17.3684 0.789473C17.3684 0.353683 17.759 -1.90735e-06 18.1579 -1.90735e-06C20.6244 -1.90735e-06 24.4737 -1.90735e-06 24.4737 -1.90735e-06C24.8612 0 25.2632 0.353683 25.2632 0.789473C25.2632 1.22526 24.8415 1.57895 24.4737 1.57895C23.5488 1.57895 22.1053 1.57895 22.1053 1.57895L22.1053 18.9474C22.1053 18.9474 23.5648 18.9794 24.5 19C24.8865 19.0085 25.2632 19.3008 25.2632 19.7368C25.2632 20.1729 24.8657 20.53 24.4737 20.5263C22.0072 20.5263 20.6244 20.5263 18.1579 20.5263C17.7716 20.5263 17.3684 20.1971 17.3684 19.7368C17.3684 19.3401 17.7612 18.9474 18.1579 18.9474C17.76 18.95 17.3684 19.3613 17.3684 19.7368C17.3684 20.1729 17.76 20.53 18.1579 20.5263C20.6244 20.5263 22.0072 20.5263 24.4737 20.5263C24.87 20.53 25.2632 20.1729 25.2632 19.7368C25.2632 19.3008 24.8963 19.0026 24.5 19C24.8865 19.0085 25.2632 19.3008 25.2632 19.7368C25.2632 20.1729 24.8657 20.53 24.4737 20.5263C22.0072 20.5263 20.6244 20.5263 18.1579 20.5263C17.7716 20.5263 17.3684 20.1971 17.3684 19.7368C17.3684 19.3401 17.7612 18.9474 18.1579 18.9474Z" fill="#343434"/>
</svg>


