<svg width="30" height="30" viewBox="0 0 30 30" fill="none" xmlns="http://www.w3.org/2000/svg">
<path d="M27.75 6.75H21V4.5C21 3.2595 19.9905 2.25 18.75 2.25H11.25C10.0095 2.25 9 3.2595 9 4.5V6.75H2.25C1.0095 6.75 0 7.7595 0 9V25.5C0 26.7405 1.0095 27.75 2.25 27.75H27.75C28.9905 27.75 30 26.7405 30 25.5V9C30 7.7595 28.9905 6.75 27.75 6.75ZM10.5 4.5C10.5 4.086 10.836 3.75 11.25 3.75H18.75C19.164 3.75 19.5 4.086 19.5 4.5V6.75H10.5V4.5ZM2.25 8.25H27.75C28.164 8.25 28.5 8.586 28.5 9V20.25H25.5V19.5C25.5 19.086 25.164 18.75 24.75 18.75H21.75C21.336 18.75 21 19.086 21 19.5V20.25H9V19.5C9 19.086 8.664 18.75 8.25 18.75H5.25C4.836 18.75 4.5 19.086 4.5 19.5V20.25H1.5V9C1.5 8.586 1.836 8.25 2.25 8.25ZM24 20.25V21.75H22.5V20.25H24ZM7.5 20.25V21.75H6V20.25H7.5ZM27.75 26.25H2.25C1.836 26.25 1.5 25.914 1.5 25.5V21.75H4.5V22.5C4.5 22.914 4.836 23.25 5.25 23.25H8.25C8.664 23.25 9 22.914 9 22.5V21.75H21V22.5C21 22.914 21.336 23.25 21.75 23.25H24.75C25.164 23.25 25.5 22.914 25.5 22.5V21.75H28.5V25.5C28.5 25.914 28.164 26.25 27.75 26.25Z" fill="#343434"/>
</svg>
