<svg width="31" height="30" viewBox="0 0 31 30" fill="none" xmlns="http://www.w3.org/2000/svg">
<path d="M19.5 9.699C19.494 9.45 19.443 8.3355 18.9735 7.2105C18.6525 6.4395 18.2025 5.8185 17.637 5.367C17.493 5.2515 17.34 5.148 17.1825 5.055C17.6895 4.518 18 3.795 18 3C18 1.3455 16.6545 0 15 0C13.3455 0 12 1.3455 12 3C12 3.795 12.312 4.518 12.8175 5.055C12.66 5.148 12.5085 5.2515 12.363 5.367C11.7975 5.82 11.3475 6.441 11.0265 7.2105C10.506 8.46 10.5 9.6975 10.5 9.7485C10.5 10.1625 10.836 10.4985 11.25 10.4985H18.75C18.75 10.4985 18.75 10.4985 18.7515 10.4985C19.1655 10.4985 19.5015 10.1625 19.5015 9.7485C19.5015 9.732 19.5015 9.7155 19.5 9.699ZM13.5 2.9985C13.5 2.172 14.1735 1.4985 15 1.4985C15.8265 1.4985 16.5 2.172 16.5 2.9985C16.5 3.825 15.8265 4.4985 15 4.4985C14.1735 4.4985 13.5 3.825 13.5 2.9985ZM12.075 8.9985C12.132 8.6475 12.234 8.214 12.411 7.7865C12.912 6.5835 13.7595 5.9985 15 5.9985C17.1435 5.9985 17.7555 7.9005 17.9295 8.9985H12.0735H12.075Z" fill="#343434"/>
<path d="M9 26.199C8.994 25.95 8.943 24.8355 8.4735 23.7105C8.1525 22.9395 7.7025 22.32 7.137 21.867C6.993 21.7515 6.84 21.648 6.6825 21.555C7.1895 21.018 7.5 20.295 7.5 19.5C7.5 17.8455 6.1545 16.5 4.5 16.5C2.8455 16.5 1.5 17.8455 1.5 19.5C1.5 20.295 1.812 21.018 2.3175 21.555C2.16 21.648 2.0085 21.7515 1.863 21.867C1.2975 22.32 0.8475 22.941 0.5265 23.7105C0.00600001 24.96 0 26.1975 0 26.2485C0 26.6625 0.336 26.9985 0.75 26.9985H8.25C8.25 26.9985 8.25 26.9985 8.2515 26.9985C8.6655 26.9985 9.0015 26.6625 9.0015 26.2485C9.0015 26.232 9.0015 26.2155 9 26.199ZM3 19.4985C3 18.672 3.6735 17.9985 4.5 17.9985C5.3265 17.9985 6 18.672 6 19.4985C6 20.325 5.3265 20.9985 4.5 20.9985C3.6735 20.9985 3 20.325 3 19.4985ZM1.575 25.4985C1.632 25.1475 1.734 24.714 1.911 24.2865C2.412 23.0835 3.2595 22.4985 4.5 22.4985C6.6435 22.4985 7.2555 24.4005 7.4295 25.4985H1.5735H1.575Z" fill="#343434"/>
<path d="M30 26.199C29.994 25.95 29.943 24.8355 29.4735 23.7105C29.1525 22.9395 28.7025 22.32 28.137 21.867C27.993 21.7515 27.84 21.648 27.6825 21.555C28.1895 21.018 28.5 20.295 28.5 19.5C28.5 17.8455 27.1545 16.5 25.5 16.5C23.8455 16.5 22.5 17.8455 22.5 19.5C22.5 20.295 22.812 21.018 23.3175 21.555C23.16 21.648 23.0085 21.7515 22.863 21.867C22.2975 22.32 21.8475 22.941 21.5265 23.7105C21.006 24.96 21 26.1975 21 26.2485C21 26.6625 21.336 26.9985 21.75 26.9985H29.25C29.25 26.9985 29.25 26.9985 29.2515 26.9985C29.6655 26.9985 30.0015 26.6625 30.0015 26.2485C30.0015 26.232 30.0015 26.2155 30 26.199V26.199ZM24 19.4985C24 18.672 24.6735 17.9985 25.5 17.9985C26.3265 17.9985 27 18.672 27 19.4985C27 20.325 26.3265 20.9985 25.5 20.9985C24.6735 20.9985 24 20.325 24 19.4985ZM22.575 25.4985C22.632 25.1475 22.734 24.714 22.911 24.2865C23.412 23.0835 24.2595 22.4985 25.5 22.4985C27.6435 22.4985 28.2555 24.4005 28.4295 25.4985H22.5735H22.575Z" fill="#343434"/>
<path d="M15 29.9985C13.05 29.9985 11.1135 29.52 9.39896 28.614C9.03296 28.4205 8.89346 27.966 9.08696 27.6C9.28046 27.234 9.73496 27.0945 10.101 27.288C11.5995 28.08 13.293 28.4985 15 28.4985C16.707 28.4985 18.4005 28.08 19.899 27.288C20.265 27.0945 20.7195 27.234 20.913 27.6C21.1065 27.966 20.967 28.4205 20.601 28.614C18.888 29.52 16.9515 29.9985 15 29.9985Z" fill="#343434"/>
<path d="M25.845 15.7485C25.5165 15.7485 25.2135 15.531 25.122 15.198C24.426 12.678 22.8195 10.518 20.5995 9.11401C20.25 8.89201 20.145 8.43001 20.3655 8.07901C20.586 7.72801 21.0495 7.62451 21.4005 7.84501C23.9385 9.44851 25.773 11.9175 26.568 14.7975C26.6775 15.1965 26.4435 15.6105 26.0445 15.72C25.9785 15.738 25.911 15.747 25.845 15.747V15.7485Z" fill="#343434"/>
<path d="M4.15498 15.7485C4.08898 15.7485 4.02148 15.7395 3.95548 15.7215C3.55648 15.612 3.32248 15.198 3.43198 14.799C4.22698 11.919 6.06298 9.45003 8.59948 7.84653C8.94898 7.62603 9.41248 7.72953 9.63448 8.08053C9.85648 8.43153 9.75148 8.89353 9.40048 9.11553C7.17898 10.518 5.57248 12.6795 4.87798 15.1995C4.78648 15.5325 4.48498 15.75 4.15498 15.75V15.7485Z" fill="#343434"/>
</svg>
