<svg width="30" height="30" viewBox="0 0 30 30" fill="none" xmlns="http://www.w3.org/2000/svg">
  <path d="M4.81367 20.25H3.31367V18.75H4.81367V20.25Z" fill="#343434"/>
  <path d="M4.81367 1.5H3.31367V0H4.81367V1.5Z" fill="#343434"/>
  <path d="M7.9773 1.5H6.4773V0H7.9773V1.5Z" fill="#343434"/>
  <path d="M10.9773 1.5H9.4773V0H10.9773V1.5Z" fill="#343434"/>
  <path d="M14.0318 1.5H12.5318V0H14.0318V1.5Z" fill="#343434"/>
  <path d="M17.25 1.5H15.75V2.08616e-07H17.25V1.5Z" fill="#343434"/>
  <path d="M1.5 7.97729H0V6.47729H1.5V7.97729Z" fill="#343434"/>
  <path d="M1.5 11.1955H0V9.69545H1.5V11.1955Z" fill="#343434"/>
  <path d="M1.5 4.86821H0V3.36821H1.5V4.86821Z" fill="#343434"/>
  <path d="M1.5 17.25H1.43051e-06V15.75H1.5V17.25Z" fill="#343434"/>
  <path d="M1.5 14.25H1.43051e-06V12.75H1.5V14.25Z" fill="#343434"/>
  <path d="M20.25 4.86821H18.75V3.36821H20.25V4.86821Z" fill="#343434"/>
  <path d="M7.9773 20.25H6.4773V18.75H7.9773V20.25Z" fill="#343434"/>
  <path d="M12 30H27C28.2405 30 30 28.9905 30 27.75V12C30 10.7595 28.9905 9.75 27.75 9.75H12C10.755 9.75 9.75 10.755 9.75 12V27.75C9.75 28.9905 10.7595 30 12 30ZM11.25 12C11.25 11.58 11.58 11.25 12 11.25H27.75C28.164 11.25 28.5 11.586 28.5 12V27.75C28.5 28.164 27.414 28.5 27 28.5H12C11.586 28.5 11.25 28.164 11.25 27.75V12Z" fill="#343434"/>
  <path d="M20.25 7.97729H18.75V6.47729H20.25V7.97729Z" fill="#343434"/>
  <path d="M1.5 20.25H0V18.75H1.5V20.25Z" fill="#343434"/>
  <path d="M1.5 1.5H0V0H1.5V1.5Z" fill="#343434"/>
  <path d="M20.25 1.5H18.75V2.08616e-07H20.25V1.5Z" fill="#343434"/>
</svg>
