<svg width="30" height="30" viewBox="0 0 30 30" fill="none" xmlns="http://www.w3.org/2000/svg">
<path d="M5.99984 13C4.34984 13 2.99985 11.65 2.99985 9.99999C2.99985 8.35 4.34984 7 5.99984 7C7.64984 7 8.99984 8.35 8.99984 9.99999C8.99984 11.65 7.64984 13 5.99984 13ZM5.99984 8.5C5.09984 8.5 4.49984 9.1 4.49984 9.99999C4.49984 10.9 5.09984 11.5 5.99984 11.5C6.89984 11.5 7.49984 10.9 7.49984 9.99999C7.49984 9.1 6.89984 8.5 5.99984 8.5Z" fill="#343434"/>
<path d="M0.75 20.4999C0.3 20.4999 0 20.1999 0 19.7499V18.2499C0 16.1499 1.65 14.4999 3.75 14.4999H8.25C8.7 14.4999 9 14.7999 9 15.2499C9 15.6999 8.7 15.9999 8.25 15.9999H3.75C2.55 15.9999 1.5 17.0499 1.5 18.2499V19.7499C1.5 20.1999 1.2 20.4999 0.75 20.4999Z" fill="#343434"/>
<path d="M24.0002 13C25.6502 13 27.0002 11.65 27.0002 9.99999C27.0002 8.35 25.6502 7 24.0002 7C22.3502 7 21.0002 8.35 21.0002 9.99999C21.0002 11.65 22.3502 13 24.0002 13ZM24.0002 8.5C24.9002 8.5 25.5002 9.1 25.5002 9.99999C25.5002 10.9 24.9002 11.5 24.0002 11.5C23.1002 11.5 22.5002 10.9 22.5002 9.99999C22.5002 9.1 23.1002 8.5 24.0002 8.5Z" fill="#343434"/>
<path d="M29.25 20.4999C29.7 20.4999 30 20.1999 30 19.7499V18.2499C30 16.1499 28.35 14.4999 26.25 14.4999H21.75C21.3 14.4999 21 14.7999 21 15.2499C21 15.6999 21.3 15.9999 21.75 15.9999H26.25C27.45 15.9999 28.5 17.0499 28.5 18.2499V19.7499C28.5 20.1999 28.8 20.4999 29.25 20.4999Z" fill="#343434"/>
<path d="M21.25 23.5C20.8 23.5 20.5 23.2 20.5 22.75V19.75C20.5 18.55 19.45 17.5 18.25 17.5H11.75C10.55 17.5 9.5 18.55 9.5 19.75V22.75C9.5 23.2 9.2 23.5 8.75 23.5C8.3 23.5 8 23.2 8 22.75V19.75C8 17.65 9.65 16 11.75 16H18.25C20.35 16 22 17.65 22 19.75V22.75C22 23.2 21.7 23.5 21.25 23.5Z" fill="#343434"/>
<path fill-rule="evenodd" d="M15 12.5C16.3807 12.5 17.5 11.3807 17.5 10C17.5 8.61929 16.3807 7.5 15 7.5C13.6193 7.5 12.5 8.61929 12.5 10C12.5 11.3807 13.6193 12.5 15 12.5ZM15 14C17.2091 14 19 12.2091 19 10C19 7.79086 17.2091 6 15 6C12.7909 6 11 7.79086 11 10C11 12.2091 12.7909 14 15 14Z" fill="#343434"/>
</svg>
