<svg width="31" height="30" viewBox="0 0 31 30" fill="none" xmlns="http://www.w3.org/2000/svg">
<path d="M18.3438 4H17.4062C17.0333 4 16.6756 4.14816 16.4119 4.41188C16.1482 4.6756 16 5.03329 16 5.40625V24.1562C16 24.5292 16.1482 24.8869 16.4119 25.1506C16.6756 25.4143 17.0333 25.5625 17.4062 25.5625H18.3438C18.7167 25.5625 19.0744 25.4143 19.3381 25.1506C19.6018 24.8869 19.75 24.5292 19.75 24.1562V5.40625C19.75 5.03329 19.6018 4.6756 19.3381 4.41188C19.0744 4.14816 18.7167 4 18.3438 4V4ZM18.8125 7.75H16.9375V5.40625C16.9375 5.28193 16.9869 5.1627 17.0748 5.07479C17.1627 4.98689 17.2819 4.9375 17.4062 4.9375H18.3438C18.4681 4.9375 18.5873 4.98689 18.6752 5.07479C18.7631 5.1627 18.8125 5.28193 18.8125 5.40625V7.75Z" fill="#343434"/>
<path d="M23.5 4H22.5625C22.1895 4 21.8319 4.14816 21.5681 4.41188C21.3044 4.6756 21.1562 5.03329 21.1562 5.40625V24.1562C21.1562 24.5292 21.3044 24.8869 21.5681 25.1506C21.8319 25.4143 22.1895 25.5625 22.5625 25.5625H23.5C23.873 25.5625 24.2306 25.4143 24.4944 25.1506C24.7581 24.8869 24.9062 24.5292 24.9062 24.1562V5.40625C24.9062 5.03329 24.7581 4.6756 24.4944 4.41188C24.2306 4.14816 23.873 4 23.5 4V4ZM23.9688 14.3125H22.0938V5.40625C22.0938 5.28193 22.1431 5.1627 22.231 5.07479C22.319 4.98689 22.4382 4.9375 22.5625 4.9375H23.5C23.6243 4.9375 23.7435 4.98689 23.8315 5.07479C23.9194 5.1627 23.9688 5.28193 23.9688 5.40625V14.3125Z" fill="#343434"/>
<path d="M28.6562 4H27.7188C27.3458 4 26.9881 4.14816 26.7244 4.41188C26.4607 4.6756 26.3125 5.03329 26.3125 5.40625V24.1562C26.3125 24.5292 26.4607 24.8869 26.7244 25.1506C26.9881 25.4143 27.3458 25.5625 27.7188 25.5625H28.6562C29.0292 25.5625 29.3869 25.4143 29.6506 25.1506C29.9143 24.8869 30.0625 24.5292 30.0625 24.1562V5.40625C30.0625 5.03329 29.9143 4.6756 29.6506 4.41188C29.3869 4.14816 29.0292 4 28.6562 4V4ZM29.125 11.0312H27.25V5.40625C27.25 5.28193 27.2994 5.1627 27.3873 5.07479C27.4752 4.98689 27.5944 4.9375 27.7188 4.9375H28.6562C28.7806 4.9375 28.8998 4.98689 28.9877 5.07479C29.0756 5.1627 29.125 5.28193 29.125 5.40625V11.0312Z" fill="#343434"/>
<path d="M7.0976 15C4.6166 15 2.5976 12.981 2.5976 10.5C2.5976 8.019 4.6166 6 7.0976 6C9.5786 6 11.5976 8.019 11.5976 10.5C11.5976 12.981 9.5786 15 7.0976 15ZM7.0976 7.5C5.4431 7.5 4.0976 8.8455 4.0976 10.5C4.0976 12.1545 5.4431 13.5 7.0976 13.5C8.7521 13.5 10.0976 12.1545 10.0976 10.5C10.0976 8.8455 8.7521 7.5 7.0976 7.5Z" fill="#343434"/>
<path d="M12.3476 22.5H1.8476C1.2101 22.5 0.653595 22.2345 0.319095 21.771C-0.0154048 21.3075 -0.0904047 20.6955 0.110595 20.091C0.160095 19.944 1.3736 16.5015 7.0976 16.5015C12.8216 16.5015 14.0366 19.9455 14.0846 20.091C14.2856 20.6955 14.2106 21.3075 13.8761 21.771C13.5416 22.2345 12.9851 22.5 12.3476 22.5V22.5ZM1.53109 20.571C1.48609 20.7075 1.4876 20.829 1.5356 20.8935C1.5836 20.958 1.7006 21 1.8476 21H12.3476C12.4946 21 12.6116 20.9595 12.6596 20.8935C12.7076 20.8275 12.7091 20.7075 12.6641 20.571C12.6476 20.5275 12.4016 19.908 11.6456 19.3005C10.5896 18.45 9.0176 18.0015 7.0976 18.0015C5.1776 18.0015 3.6071 18.4515 2.5496 19.3005C1.7936 19.9095 1.54759 20.5275 1.53109 20.571Z" fill="#343434"/>
</svg>
