<svg width="20" height="20" viewBox="0 0 20 20" fill="none" xmlns="http://www.w3.org/2000/svg">
<path d="M6.75377 20C7.63767 20 8.48537 19.6481 9.11038 19.0216C9.73539 18.3952 10.0865 17.5456 10.0865 16.6596V13.2542H6.75377C5.86987 13.2542 5.02217 13.6061 4.39716 14.2326C3.77215 14.859 3.42102 15.7086 3.42102 16.5946C3.42102 17.4805 3.77215 18.3301 4.39716 18.9566C5.02217 19.583 5.86987 19.9349 6.75377 19.9349V20Z" fill="#0ACF83"/>
<path d="M3.33447 10.0006C3.34569 9.56186 3.44305 9.12967 3.62099 8.72869C3.79893 8.32771 4.05396 7.9658 4.3715 7.66364C4.68904 7.36149 5.06288 7.12501 5.47164 6.96772C5.88041 6.81043 6.31608 6.73542 6.75379 6.74696H9.99997V13.2542H6.75379C6.31608 13.2657 5.88041 13.1907 5.47164 13.0334C5.06288 12.8761 4.68904 12.6397 4.3715 12.3375C4.05396 12.0353 3.79893 11.6734 3.62099 11.2725C3.44305 10.8715 3.34569 10.4393 3.33447 10.0006Z" fill="#A259FF"/>
<path d="M3.33447 3.31981C3.3372 2.87558 3.4283 2.43635 3.60246 2.02784C3.77662 1.61933 4.03032 1.24974 4.34873 0.940709C4.66714 0.631673 5.04385 0.389399 5.45681 0.228066C5.86978 0.0667323 6.3107 -0.0104185 6.75378 0.0011287H9.99996V6.74695H6.75378C6.30151 6.75889 5.85154 6.6784 5.43131 6.5104C5.01107 6.34239 4.62937 6.09038 4.30945 5.76973C3.98954 5.44909 3.7381 5.06651 3.57048 4.64531C3.40286 4.22411 3.32256 3.77312 3.33447 3.31981Z" fill="#F24E1E"/>
<path d="M9.99988 0.00111389H13.2461C14.1386 0.00111389 14.9945 0.356472 15.6256 0.989016C16.2567 1.62156 16.6113 2.47947 16.6113 3.37402C16.6113 4.26858 16.2567 5.12649 15.6256 5.75903C14.9945 6.39158 14.1386 6.74694 13.2461 6.74694H9.99988V0.00111389Z" fill="#FF7262"/>
<path d="M16.6656 10.0006C16.6825 10.6609 16.5036 11.3115 16.1517 11.87C15.7997 12.4285 15.2905 12.8698 14.6883 13.1383C14.0861 13.4067 13.418 13.4902 12.7685 13.3781C12.119 13.2661 11.5173 12.9635 11.0393 12.5087C10.5613 12.0539 10.2286 11.4673 10.0832 10.823C9.93787 10.1787 9.98636 9.50564 10.2226 8.88896C10.4588 8.27228 10.8721 7.73963 11.4103 7.35837C11.9485 6.9771 12.5874 6.76433 13.2463 6.74696C13.684 6.73542 14.1196 6.81043 14.5284 6.96772C14.9372 7.12501 15.311 7.36149 15.6285 7.66364C15.9461 7.9658 16.2011 8.32771 16.379 8.72869C16.557 9.12967 16.6543 9.56186 16.6656 10.0006Z" fill="#1ABCFE"/>
</svg>
