<svg width="20" height="20" viewBox="0 0 20 20" fill="none" xmlns="http://www.w3.org/2000/svg">
<path fill-rule="evenodd" clip-rule="evenodd" d="M1.15643 7.69637L0.0373722 11.4353C-0.0646986 11.7763 0.0470932 12.1499 0.314326 12.3607L10 20L1.15643 7.69637Z" fill="#FCA326"/>
<path fill-rule="evenodd" clip-rule="evenodd" d="M18.8436 7.69637L19.9626 11.4353C20.0647 11.7763 19.9529 12.1499 19.6857 12.3607L10 20L18.8436 7.69637Z" fill="#FCA326"/>
<path fill-rule="evenodd" clip-rule="evenodd" d="M9.99997 19.9999L6.31741 7.69629H1.1564L9.99997 19.9999Z" fill="#FC6D26"/>
<path fill-rule="evenodd" clip-rule="evenodd" d="M10 19.9999L13.6826 7.69629H18.8436L10 19.9999Z" fill="#FC6D26"/>
<path fill-rule="evenodd" clip-rule="evenodd" d="M18.8435 7.69635H13.6825L15.9005 0.285978C16.0146 -0.0953779 16.5115 -0.0952744 16.6256 0.285978L18.8435 7.69635Z" fill="#E24329"/>
<path fill-rule="evenodd" clip-rule="evenodd" d="M1.15659 7.69635H6.3176L4.09958 0.285978C3.9855 -0.0953779 3.48859 -0.0952744 3.37451 0.285978L1.15659 7.69635Z" fill="#E24329"/>
<path fill-rule="evenodd" clip-rule="evenodd" d="M9.99994 20L13.6825 7.69637H6.31738L9.99994 20Z" fill="#E24329"/>
</svg>
