<svg width="120" height="70" viewBox="0 0 120 70" fill="none" xmlns="http://www.w3.org/2000/svg">
<g clip-path="url(#clip0)">
<path d="M65.5955 30.569V44.2002H63.7114L63.5451 42.2409C61.5133 43.7897 59.5738 44.5641 57.7266 44.5641C55.2699 44.5641 54.0415 43.3139 54.0415 40.8134V30.569H56.3967V40.1417C56.3782 41 56.5352 41.6065 56.8677 41.961C57.2002 42.3156 57.7543 42.4928 58.5301 42.4928C59.2136 42.4928 59.9062 42.3389 60.6082 42.031C61.3101 41.7231 62.1875 41.224 63.2404 40.5335V30.569H65.5955ZM71 30.569L71.1663 32.7243C73.3459 31.0635 75.3593 30.2332 77.2065 30.2332C79.6447 30.2332 80.8638 31.4834 80.8638 33.9838V44.2002H78.5087V34.6556C78.5087 33.7599 78.3609 33.1348 78.0654 32.7803C77.7699 32.4257 77.2711 32.2484 76.5692 32.2484C75.8303 32.2484 75.0869 32.4164 74.3388 32.7523C73.5907 33.0882 72.5978 33.6386 71.3602 34.4037V44.2002H69.0051V30.569H71ZM87.5706 32.4444V40.4496C87.5706 41.1027 87.7092 41.5692 87.9862 41.8491C88.2633 42.129 88.7343 42.2689 89.3993 42.2689H91.4497L91.7267 44.0883C90.877 44.3309 89.8611 44.4521 88.6789 44.4521C87.5522 44.4521 86.6932 44.1349 86.1021 43.5005C85.5111 42.866 85.2155 41.9517 85.2155 40.7574V32.4444H82.7773V30.709L85.2155 30.597V26.5385H87.5706V30.569H91.8653V32.4444H87.5706ZM101.952 38.5462H95.6628C95.7921 40.1137 96.1708 41.168 96.7988 41.7091C97.4268 42.2503 98.4705 42.5208 99.9297 42.5208C101.463 42.5208 103.024 42.4089 104.612 42.1849L104.862 43.7804C103.661 44.2842 101.915 44.5361 99.6249 44.5361C97.2975 44.5361 95.6397 43.9903 94.6515 42.8987C93.6632 41.8071 93.1691 39.9551 93.1691 37.3427C93.1691 34.7116 93.6494 32.8689 94.6099 31.8146C95.5704 30.7603 97.159 30.2332 99.3756 30.2332C101.389 30.2332 102.857 30.6017 103.781 31.3388C104.705 32.0758 105.166 33.1908 105.166 34.6836C105.203 37.2587 104.132 38.5462 101.952 38.5462ZM95.6351 36.6989H101.343C102.322 36.6989 102.811 36.0271 102.811 34.6836C102.793 33.8066 102.534 33.1815 102.035 32.8083C101.537 32.435 100.687 32.2484 99.4864 32.2484C98.0641 32.2484 97.0759 32.561 96.5217 33.1861C95.9676 33.8112 95.672 34.9821 95.6351 36.6989Z" fill="white"/>
<path d="M48.3083 26.1864C48.2973 25.5715 48.0887 24.2664 47.8575 23.7141C47.6262 23.1617 47.3124 22.6863 46.916 22.2877C46.5085 21.8891 46.0433 21.5788 45.5202 21.3567C44.9972 21.1346 44.4438 21.0236 43.8602 21.0236C40.179 21.0236 37.4181 21.0236 35.5775 21.0236C33.7361 21.0236 30.9739 21.0236 27.291 21.0236V18H43.9428C44.9228 18 45.8506 18.1879 46.726 18.5637C47.6014 18.9395 48.3695 19.4691 49.0302 20.1524C49.6909 20.8243 50.2057 21.6129 50.5746 22.5183C50.9435 23.4237 51.2528 25.2953 51.2528 26.3089V27.8002H48.3083C48.3083 27.4646 48.3111 26.2475 48.3083 26.1864Z" fill="#933183"/>
<path d="M43.2116 51.9948C43.8142 51.9835 45.0929 51.7706 45.6341 51.5346C46.1753 51.2986 46.6411 50.9783 47.0317 50.5737C47.4222 50.1579 47.7263 49.6831 47.9438 49.1492C48.1614 48.6154 48.2702 48.0506 48.2702 47.455V30.5443H51.2328V47.5393C51.2328 48.5395 51.0486 49.4864 50.6804 50.3798C50.3122 51.2733 49.7933 52.0572 49.1238 52.7315C48.4655 53.4058 47.6928 53.9313 46.8057 54.3077C45.9186 54.6842 44.0847 55 43.0917 55H41.6304V51.9948C41.9593 51.9948 43.1518 51.9976 43.2116 51.9948Z" fill="white"/>
<path d="M17.9445 46.7931C17.9555 47.4081 18.1641 48.7132 18.3954 49.2655C18.6266 49.8178 18.9405 50.2933 19.3369 50.6919C19.7443 51.0905 20.2095 51.4008 20.7326 51.6229C21.2557 51.8449 21.809 51.956 22.3926 51.956H38.9619V54.9795H22.31C21.33 54.9795 20.4023 54.7916 19.5268 54.4158C18.6514 54.04 17.8833 53.5105 17.2226 52.8272C16.5619 52.1552 16.0471 51.3666 15.6782 50.4613C15.3093 49.5559 15 47.6842 15 46.6707V45.1793H17.9445C17.9445 45.515 17.9418 46.732 17.9445 46.7931Z" fill="#76B515"/>
<path d="M24.6023 21.0421H23.0211C22.4186 21.0533 21.1398 21.2662 20.5987 21.5022C20.0575 21.7383 19.5916 22.0586 19.2011 22.4631C18.8105 22.879 18.5065 23.3538 18.2889 23.8876C18.0713 24.4215 17.9625 24.9862 17.9625 25.5819C17.9625 27.836 17.9625 29.5266 17.9625 30.6536C17.9625 33.2845 17.9625 37.2308 17.9625 42.4926C17.6495 42.4926 15.1103 42.4926 15 42.4926L15 25.4976C15 24.4973 15.1841 23.5505 15.5523 22.657C15.9206 21.7635 16.4394 20.9797 17.1089 20.3053C17.7673 19.631 18.54 19.1056 19.427 18.7291C20.3141 18.3526 22.148 18.0369 23.1411 18.0369C23.2456 18.0369 24.6023 18.0369 24.6023 18.0369C24.6023 18.867 24.6023 20.4027 24.6023 21.0421Z" fill="#FD5C02"/>
<path d="M35.6039 37.7401C35.6039 39.6511 35.0433 41.1081 33.9221 42.111C32.8009 43.1139 31.2072 43.6154 29.1412 43.6154C27.0751 43.6154 25.4752 43.1139 24.3414 42.111C23.2202 41.1081 22.6596 39.6511 22.6596 37.7401V29.3846H26.8358V37.6791C26.8358 38.4652 27.031 39.0954 27.4216 39.5698C27.8121 40.0306 28.379 40.261 29.1223 40.261C29.8656 40.261 30.4325 40.0238 30.823 39.5495C31.2261 39.0751 31.4277 38.4516 31.4277 37.6791V29.3846H35.6039V37.7401Z" fill="white"/>
<path d="M38.5898 43.3714V29.3846H42.766V43.3714H38.5898Z" fill="white"/>
</g>
<defs>
<clipPath id="clip0">
<rect width="90" height="37" fill="white" transform="translate(15 18)"/>
</clipPath>
</defs>
</svg>
