<svg width="115" height="70" viewBox="0 0 115 70" fill="none" xmlns="http://www.w3.org/2000/svg">
<path d="M46.706 23.398C46.6928 22.6808 46.4423 21.1588 46.1645 20.5147C45.8867 19.8706 45.5098 19.3161 45.0337 18.8513C44.5443 18.3865 43.9855 18.0246 43.3572 17.7656C42.729 17.5066 42.0644 17.3771 41.3634 17.3771C36.9418 17.3771 33.6257 17.3771 31.4149 17.3771C29.2031 17.3771 25.8854 17.3771 21.4619 17.3771V13.8511H41.4626C42.6397 13.8511 43.754 14.0702 44.8055 14.5085C45.857 14.9467 46.7795 15.5643 47.5731 16.3611C48.3667 17.1447 48.985 18.0644 49.4281 19.1202C49.8712 20.1761 50.2427 22.3588 50.2427 23.5408V25.28H46.706C46.706 24.8885 46.7093 23.4692 46.706 23.398Z" fill="#933183"/>
<path d="M40.5843 53.4953C41.3081 53.4822 42.844 53.2339 43.494 52.9587C44.144 52.6835 44.7035 52.3099 45.1726 51.8381C45.6417 51.3532 46.0069 50.7994 46.2683 50.1769C46.5296 49.5543 46.6603 48.8957 46.6603 48.2011V28.48H50.2186V48.2994C50.2186 49.4659 49.9975 50.5701 49.5552 51.612C49.1129 52.654 48.4897 53.5682 47.6856 54.3545C46.8948 55.1409 45.9667 55.7536 44.9012 56.1927C43.8357 56.6318 41.6331 57 40.4402 57H38.6852V53.4953C39.0802 53.4953 40.5124 53.4986 40.5843 53.4953Z" fill="white"/>
<path d="M10.2357 47.4292C10.2489 48.1464 10.4995 49.6684 10.7773 50.3125C11.055 50.9566 11.432 51.5111 11.9081 51.9759C12.3975 52.4407 12.9563 52.8026 13.5845 53.0616C14.2128 53.3206 14.8774 53.4501 15.5784 53.4501H35.4799V56.9761H15.4792C14.302 56.9761 13.1877 56.757 12.1363 56.3187C11.0848 55.8805 10.1622 55.2629 9.36866 54.4661C8.57508 53.6825 7.95676 52.7628 7.51368 51.707C7.0706 50.6511 6.69904 48.4684 6.69904 47.2864V45.5472H10.2357C10.2357 45.9387 10.2324 47.358 10.2357 47.4292Z" fill="#76B515"/>
<path d="M18.2325 17.3987H16.3333C15.6096 17.4118 14.0737 17.6601 13.4237 17.9353C12.7736 18.2106 12.2141 18.5841 11.745 19.0559C11.2759 19.5409 10.9107 20.0946 10.6494 20.7172C10.388 21.3397 10.2574 21.9983 10.2574 22.6929C10.2574 25.3217 10.2574 27.2932 10.2574 28.6076C10.2574 31.6757 10.2574 36.2778 10.2574 42.414C9.88135 42.414 6.83157 42.414 6.69904 42.414L6.69904 22.5946C6.69904 21.4282 6.92017 20.324 7.36245 19.282C7.80473 18.2401 8.42793 17.3259 9.23208 16.5395C10.0228 15.7531 10.9509 15.1404 12.0164 14.7013C13.0819 14.2623 15.2846 13.8941 16.4774 13.8941C16.6029 13.8941 18.2325 13.8941 18.2325 13.8941C18.2325 14.8621 18.2325 16.6531 18.2325 17.3987Z" fill="#FD5C02"/>
<path d="M31.3928 36.6789C31.3928 38.6103 30.8262 40.0829 29.6931 41.0965C28.5599 42.1102 26.9493 42.617 24.8613 42.617C22.7732 42.617 21.1563 42.1102 20.0104 41.0965C18.8772 40.0829 18.3107 38.6103 18.3107 36.6789V28.234H22.5313V36.6173C22.5313 37.4118 22.7287 38.0487 23.1234 38.5281C23.518 38.9939 24.091 39.2267 24.8422 39.2267C25.5934 39.2267 26.1663 38.987 26.561 38.5076C26.9684 38.0282 27.1721 37.3981 27.1721 36.6173V28.234H31.3928V36.6789Z" fill="white"/>
<path d="M34.4104 42.3705V28.234H38.6311V42.3705H34.4104Z" fill="white"/>
<path d="M67.4698 28.5089V44.4054H65.2068L65.0071 42.1205C62.5666 43.9267 60.2371 44.8298 58.0184 44.8298C55.0676 44.8298 53.5922 43.3718 53.5922 40.4558V28.5089H56.421V39.6724C56.3988 40.6734 56.5874 41.3806 56.9867 41.7941C57.3861 42.2076 58.0517 42.4143 58.9835 42.4143C59.8044 42.4143 60.6364 42.2348 61.4795 41.8757C62.3226 41.5167 63.3764 40.9345 64.641 40.1294V28.5089H67.4698ZM73.9613 28.5089L74.1609 31.0223C76.7789 29.0856 79.1972 28.1172 81.4159 28.1172C84.3445 28.1172 85.8088 29.5752 85.8088 32.4912V44.4054H82.98V33.2746C82.98 32.2301 82.8025 31.5011 82.4476 31.0876C82.0926 30.6742 81.4935 30.4674 80.6505 30.4674C79.763 30.4674 78.87 30.6633 77.9715 31.055C77.0729 31.4467 75.8804 32.0886 74.3939 32.9808V44.4054H71.5651V28.5089H73.9613ZM93.8644 30.6959V40.0315C93.8644 40.7931 94.0308 41.3371 94.3636 41.6635C94.6964 41.99 95.2621 42.1532 96.0608 42.1532H98.5235L98.8563 44.2749C97.8358 44.5578 96.6155 44.6992 95.1956 44.6992C93.8422 44.6992 92.8105 44.3293 92.1006 43.5894C91.3906 42.8495 91.0356 41.7832 91.0356 40.3905V30.6959H88.107V28.6721L91.0356 28.5416V23.8085H93.8644V28.5089H99.0227V30.6959H93.8644ZM111.138 37.8118H103.584C103.739 39.6398 104.194 40.8693 104.948 41.5003C105.703 42.1314 106.956 42.4469 108.709 42.4469C110.551 42.4469 112.425 42.3164 114.333 42.0552L114.633 43.9158C113.191 44.5034 111.094 44.7971 108.343 44.7971C105.547 44.7971 103.556 44.1606 102.369 42.8876C101.182 41.6146 100.589 39.4548 100.589 36.4082C100.589 33.3399 101.166 31.191 102.319 29.9615C103.473 28.732 105.381 28.1172 108.043 28.1172C110.462 28.1172 112.226 28.547 113.335 29.4066C114.444 30.2661 114.999 31.5664 114.999 33.3073C115.043 36.3103 113.756 37.8118 111.138 37.8118ZM103.551 35.6575H110.406C111.582 35.6575 112.17 34.8741 112.17 33.3073C112.148 32.2845 111.837 31.5555 111.238 31.1203C110.639 30.685 109.619 30.4674 108.177 30.4674C106.468 30.4674 105.281 30.8319 104.616 31.5609C103.95 32.2899 103.595 33.6554 103.551 35.6575Z" fill="white"/>
</svg>
