<svg width="103" height="47" viewBox="0 0 103 47" fill="none" xmlns="http://www.w3.org/2000/svg">
<path d="M41.8324 16.629C41.8205 15.9807 41.5961 14.6051 41.3473 14.0229C41.0986 13.4407 40.7609 12.9396 40.3345 12.5194C39.8962 12.0993 39.3957 11.7722 38.833 11.5381C38.2703 11.3041 37.675 11.187 37.0472 11.187C33.087 11.187 30.1169 11.187 28.1369 11.187C26.1559 11.187 23.1844 11.187 19.2224 11.187V8H37.136C38.1903 8 39.1884 8.19806 40.1301 8.59419C41.0719 8.99032 41.8982 9.54849 42.6089 10.2687C43.3197 10.977 43.8735 11.8082 44.2704 12.7625C44.6672 13.7168 45 15.6897 45 16.758V18.33H41.8324C41.8324 17.9762 41.8353 16.6933 41.8324 16.629Z" fill="#933183"/>
<path d="M36.3494 43.8323C36.9977 43.8205 38.3733 43.596 38.9555 43.3473C39.5377 43.0985 40.0388 42.7609 40.459 42.3344C40.8791 41.8961 41.2062 41.3956 41.4403 40.8329C41.6743 40.2702 41.7914 39.675 41.7914 39.0471V21.2223H44.9784V39.136C44.9784 40.1903 44.7803 41.1883 44.3842 42.1301C43.9881 43.0718 43.4299 43.8981 42.7097 44.6089C42.0014 45.3196 41.1702 45.8734 40.2159 46.2703C39.2616 46.6671 37.2887 46.9999 36.2204 46.9999H34.6484V43.8323C35.0022 43.8323 36.2851 43.8353 36.3494 43.8323Z" fill="white"/>
<path d="M9.16764 38.3494C9.17948 38.9977 9.4039 40.3733 9.65267 40.9555C9.90144 41.5377 10.2391 42.0388 10.6655 42.459C11.1038 42.8791 11.6043 43.2062 12.167 43.4403C12.7297 43.6743 13.325 43.7914 13.9528 43.7914H31.7776V46.9784H13.864C12.8097 46.9784 11.8116 46.7803 10.8699 46.3842C9.92809 45.9881 9.10183 45.4299 8.39106 44.7097C7.68029 44.0014 7.12649 43.1702 6.72964 42.2159C6.33279 41.2616 6 39.2887 6 38.2204V36.6484H9.16764C9.16764 37.0022 9.16468 38.2851 9.16764 38.3494Z" fill="#76B515"/>
<path d="M16.33 11.2066H14.629C13.9807 11.2184 12.6051 11.4428 12.0229 11.6916C11.4407 11.9404 10.9396 12.278 10.5194 12.7045C10.0993 13.1428 9.7722 13.6433 9.53813 14.206C9.30405 14.7686 9.18702 15.3639 9.18702 15.9918C9.18702 18.3677 9.18702 20.1497 9.18702 21.3377C9.18702 24.1108 9.18702 28.2704 9.18702 33.8166C8.85024 33.8166 6.1187 33.8166 6 33.8166L6 15.9029C6 14.8486 6.19806 13.8506 6.59419 12.9088C6.99032 11.967 7.54849 11.1408 8.26872 10.43C8.97695 9.71923 9.80821 9.16543 10.7625 8.76858C11.7168 8.37173 13.6897 8.03894 14.758 8.03894C14.8704 8.03894 16.33 8.03894 16.33 8.03894C16.33 8.91389 16.33 10.5327 16.33 11.2066Z" fill="#FD5C02"/>
<path d="M28.117 28.6329C28.117 30.3786 27.6096 31.7095 26.5947 32.6257C25.5798 33.5419 24.1372 34 22.2671 34C20.3969 34 18.9487 33.5419 17.9224 32.6257C16.9075 31.7095 16.4 30.3786 16.4 28.6329V21H20.1803V28.5771C20.1803 29.2952 20.357 29.871 20.7105 30.3043C21.064 30.7252 21.5772 30.9357 22.25 30.9357C22.9228 30.9357 23.4359 30.719 23.7894 30.2857C24.1544 29.8524 24.3368 29.2829 24.3368 28.5771V21H28.117V28.6329Z" fill="white"/>
<path d="M30.8198 33.7771V21H34.6V33.7771H30.8198Z" fill="white"/>
<path d="M60.4295 21.2484V35.6165H58.4026L58.2238 33.5512C56.0379 35.1838 53.9515 36 51.9643 36C49.3214 36 48 34.6822 48 32.0466V21.2484H50.5336V31.3385C50.5137 32.2433 50.6826 32.8825 51.0403 33.2562C51.398 33.6299 51.9941 33.8168 52.8287 33.8168C53.564 33.8168 54.3091 33.6545 55.0642 33.33C55.8193 33.0054 56.7632 32.4793 57.8959 31.7516V21.2484H60.4295ZM66.2436 21.2484L66.4224 23.5202C68.7672 21.7697 70.9332 20.8944 72.9203 20.8944C75.5433 20.8944 76.8548 22.2122 76.8548 24.8478V35.6165H74.3212V25.5559C74.3212 24.6118 74.1623 23.9529 73.8443 23.5792C73.5264 23.2055 72.9899 23.0186 72.2348 23.0186C71.4399 23.0186 70.6401 23.1957 69.8353 23.5497C69.0305 23.9037 67.9625 24.484 66.6311 25.2904V35.6165H64.0975V21.2484H66.2436ZM84.0699 23.2252V31.663C84.0699 32.3515 84.2189 32.8432 84.517 33.1382C84.815 33.4332 85.3217 33.5807 86.0371 33.5807H88.2428L88.5409 35.4984C87.6268 35.7541 86.5339 35.882 85.2621 35.882C84.05 35.882 83.126 35.5476 82.4901 34.8789C81.8542 34.2101 81.5363 33.2464 81.5363 31.9876V23.2252H78.9133V21.396L81.5363 21.278V17H84.0699V21.2484H88.6899V23.2252H84.0699ZM99.5414 29.6568H92.7752C92.9143 31.309 93.3217 32.4203 93.9973 32.9907C94.6729 33.5611 95.7957 33.8463 97.3655 33.8463C99.0148 33.8463 100.694 33.7283 102.403 33.4922L102.671 35.1739C101.379 35.705 99.5017 35.9705 97.0376 35.9705C94.5338 35.9705 92.7504 35.3952 91.6873 34.2446C90.6242 33.0939 90.0926 31.1418 90.0926 28.3882C90.0926 25.6149 90.6093 23.6726 91.6426 22.5613C92.6759 21.45 94.3848 20.8944 96.7694 20.8944C98.9353 20.8944 100.515 21.2829 101.509 22.0598C102.502 22.8367 102.999 24.0119 102.999 25.5854C103.039 28.2997 101.886 29.6568 99.5414 29.6568ZM92.7454 27.7096H98.8856C99.9388 27.7096 100.465 27.0016 100.465 25.5854C100.446 24.661 100.167 24.0021 99.6308 23.6087C99.0943 23.2153 98.1802 23.0186 96.8886 23.0186C95.3585 23.0186 94.2954 23.3481 93.6992 24.007C93.1031 24.6659 92.7852 25.9001 92.7454 27.7096Z" fill="white"/>
</svg>
