<svg width="120" height="70" viewBox="0 0 120 70" fill="none" xmlns="http://www.w3.org/2000/svg">
<path d="M70.0675 31.7484V46.1165H68.0996L67.926 44.0512C65.8038 45.6838 63.7781 46.5 61.8489 46.5C59.2829 46.5 58 45.1822 58 42.5466V31.7484H60.4598V41.8385C60.4405 42.7433 60.6045 43.3825 60.9518 43.7562C61.299 44.1299 61.8778 44.3168 62.6881 44.3168C63.4019 44.3168 64.1254 44.1545 64.8585 43.83C65.5916 43.5054 66.508 42.9793 67.6077 42.2516V31.7484H70.0675ZM75.7122 31.7484L75.8858 34.0202C78.1624 32.2697 80.2652 31.3944 82.1945 31.3944C84.7411 31.3944 86.0144 32.7122 86.0144 35.3478V46.1165H83.5546V36.0559C83.5546 35.1118 83.4003 34.4529 83.0916 34.0792C82.7829 33.7055 82.262 33.5186 81.5289 33.5186C80.7572 33.5186 79.9807 33.6957 79.1993 34.0497C78.418 34.4037 77.381 34.984 76.0884 35.7904V46.1165H73.6286V31.7484H75.7122ZM93.0193 33.7252V42.163C93.0193 42.8515 93.164 43.3432 93.4534 43.6382C93.7427 43.9332 94.2347 44.0807 94.9292 44.0807H97.0707L97.3601 45.9984C96.4726 46.2541 95.4116 46.382 94.1768 46.382C93 46.382 92.1029 46.0476 91.4855 45.3789C90.8682 44.7101 90.5595 43.7464 90.5595 42.4876V33.7252H88.0129V31.896L90.5595 31.778V27.5H93.0193V31.7484H97.5048V33.7252H93.0193ZM108.04 40.1568H101.471C101.606 41.809 102.002 42.9203 102.658 43.4907C103.314 44.0611 104.404 44.3463 105.928 44.3463C107.529 44.3463 109.159 44.2283 110.818 43.9922L111.079 45.6739C109.825 46.205 108.002 46.4705 105.609 46.4705C103.178 46.4705 101.447 45.8952 100.415 44.7446C99.3827 43.5939 98.8666 41.6418 98.8666 38.8882C98.8666 36.1149 99.3682 34.1726 100.371 33.0613C101.375 31.95 103.034 31.3944 105.349 31.3944C107.452 31.3944 108.986 31.7829 109.95 32.5598C110.915 33.3367 111.397 34.5119 111.397 36.0854C111.436 38.7997 110.317 40.1568 108.04 40.1568ZM101.442 38.2096H107.404C108.426 38.2096 108.937 37.5016 108.937 36.0854C108.918 35.161 108.648 34.5021 108.127 34.1087C107.606 33.7153 106.719 33.5186 105.465 33.5186C103.979 33.5186 102.947 33.8481 102.368 34.507C101.789 35.1659 101.481 36.4001 101.442 38.2096Z" fill="white"/>
<path d="M49.9136 26.4077C49.902 25.7761 49.6834 24.4357 49.441 23.8685C49.1986 23.3012 48.8696 22.8129 48.4541 22.4036C48.027 21.9942 47.5394 21.6755 46.9911 21.4474C46.4428 21.2193 45.8628 21.1053 45.2511 21.1053C41.3925 21.1053 38.4985 21.1053 36.5692 21.1053C34.639 21.1053 31.7437 21.1053 27.8833 21.1053V18H45.3377C46.3649 18 47.3374 18.193 48.255 18.579C49.1726 18.9649 49.9777 19.5088 50.6702 20.2106C51.3628 20.9006 51.9024 21.7106 52.2891 22.6404C52.6757 23.5702 53 25.4925 53 26.5334V28.0651H49.9136C49.9136 27.7204 49.9164 26.4704 49.9136 26.4077Z" fill="#933183"/>
<path d="M44.5712 52.9136C45.2028 52.902 46.5432 52.6833 47.1105 52.441C47.6777 52.1986 48.166 51.8696 48.5754 51.4541C48.9847 51.027 49.3035 50.5394 49.5315 49.9911C49.7596 49.4428 49.8736 48.8628 49.8736 48.2511V30.8833H52.9789V48.3376C52.9789 49.3649 52.786 50.3374 52.4 51.255C52.014 52.1726 51.4702 52.9777 50.7684 53.6702C50.0783 54.3628 49.2684 54.9024 48.3385 55.289C47.4087 55.6757 45.4864 56 44.4455 56H42.9138V52.9136C43.2586 52.9136 44.5085 52.9164 44.5712 52.9136Z" fill="white"/>
<path d="M18.0864 47.5713C18.098 48.2029 18.3166 49.5432 18.559 50.1105C18.8014 50.6778 19.1304 51.1661 19.5459 51.5754C19.973 51.9848 20.4606 52.3035 21.0089 52.5316C21.5571 52.7597 22.1371 52.8737 22.7489 52.8737H40.1167V55.979H22.6623C21.635 55.979 20.6626 55.786 19.745 55.4C18.8274 55.0141 18.0223 54.4702 17.3297 53.7684C16.6372 53.0784 16.0976 52.2684 15.7109 51.3386C15.3243 50.4087 15 48.4865 15 47.4455V45.9139H18.0864C18.0864 46.2586 18.0835 47.5086 18.0864 47.5713Z" fill="#76B515"/>
<path d="M25.0651 21.1253H23.4077C22.7761 21.1368 21.4357 21.3555 20.8685 21.5979C20.3012 21.8403 19.8129 22.1692 19.4036 22.5848C18.9942 23.0118 18.6755 23.4995 18.4474 24.0478C18.2193 24.596 18.1053 25.176 18.1053 25.7878C18.1053 28.1028 18.1053 29.8391 18.1053 30.9966C18.1053 33.6986 18.1053 37.7516 18.1053 43.1556C17.7772 43.1556 15.1157 43.1556 15 43.1556L15 25.7012C15 24.6739 15.193 23.7015 15.579 22.7839C15.9649 21.8663 16.5088 21.0612 17.2106 20.3686C17.9006 19.6761 18.7106 19.1365 19.6404 18.7498C20.5702 18.3631 22.4925 18.0389 23.5334 18.0389C23.6429 18.0389 25.0651 18.0389 25.0651 18.0389C25.0651 18.8914 25.0651 20.4687 25.0651 21.1253Z" fill="#FD5C02"/>
<path d="M36.5682 38.5813C36.5682 40.544 35.9805 42.0403 34.8053 43.0703C33.6301 44.1004 31.9596 44.6154 29.794 44.6154C27.6284 44.6154 25.9513 44.1004 24.7629 43.0703C23.5876 42.0403 23 40.544 23 38.5813V30H27.3775V38.5187C27.3775 39.326 27.5821 39.9733 27.9915 40.4604C28.4009 40.9337 28.9951 41.1703 29.7742 41.1703C30.5533 41.1703 31.1475 40.9267 31.5569 40.4396C31.9794 39.9524 32.1907 39.3121 32.1907 38.5187V30H36.5682V38.5813Z" fill="white"/>
<path d="M39.6979 44.3648V30H44.0754V44.3648H39.6979Z" fill="white"/>
</svg>
