<svg width="103" height="39" viewBox="0 0 103 39" fill="none" xmlns="http://www.w3.org/2000/svg">
<path d="M35.8324 8.62896C35.8205 7.98075 35.5961 6.60511 35.3473 6.02292C35.0986 5.44073 34.7609 4.93958 34.3345 4.51944C33.8962 4.09931 33.3957 3.7722 32.833 3.53813C32.2703 3.30405 31.675 3.18702 31.0472 3.18702C27.087 3.18702 24.1169 3.18702 22.1369 3.18702C20.1559 3.18702 17.1844 3.18702 13.2224 3.18702V0H31.136C32.1903 0 33.1884 0.198061 34.1301 0.594189C35.0719 0.990318 35.8982 1.54849 36.6089 2.26872C37.3197 2.97695 37.8735 3.80821 38.2704 4.76252C38.6672 5.71683 39 7.68966 39 8.75801V10.33H35.8324C35.8324 9.97617 35.8353 8.69334 35.8324 8.62896Z" fill="#933183"/>
<path d="M30.3494 35.8323C30.9977 35.8205 32.3733 35.596 32.9555 35.3473C33.5377 35.0985 34.0388 34.7609 34.459 34.3344C34.8791 33.8961 35.2062 33.3956 35.4403 32.8329C35.6743 32.2702 35.7914 31.675 35.7914 31.0471V13.2223H38.9784V31.136C38.9784 32.1903 38.7803 33.1883 38.3842 34.1301C37.9881 35.0718 37.4299 35.8981 36.7097 36.6089C36.0014 37.3196 35.1702 37.8735 34.2159 38.2703C33.2616 38.6671 31.2887 38.9999 30.2204 38.9999H28.6484V35.8323C29.0022 35.8323 30.2851 35.8353 30.3494 35.8323Z" fill="white"/>
<path d="M3.16764 30.3494C3.17948 30.9977 3.4039 32.3733 3.65267 32.9555C3.90144 33.5377 4.23905 34.0388 4.66551 34.459C5.10382 34.8791 5.60432 35.2062 6.16701 35.4403C6.7297 35.6743 7.32497 35.7914 7.95281 35.7914H25.7776V38.9784H7.86397C6.80966 38.9784 5.81163 38.7803 4.86986 38.3842C3.92809 37.9881 3.10183 37.4299 2.39106 36.7097C1.68029 36.0014 1.12649 35.1702 0.729638 34.2159C0.332791 33.2616 0 31.2887 0 30.2204V28.6484H3.16764C3.16764 29.0022 3.16468 30.2851 3.16764 30.3494Z" fill="#76B515"/>
<path d="M10.33 3.20658H8.62896C7.98075 3.21842 6.60511 3.44284 6.02292 3.69161C5.44073 3.94038 4.93958 4.27799 4.51944 4.70445C4.09931 5.14276 3.7722 5.64326 3.53813 6.20595C3.30405 6.76864 3.18702 7.36391 3.18702 7.99175C3.18702 10.3677 3.18702 12.1497 3.18702 13.3377C3.18702 16.1108 3.18702 20.2704 3.18702 25.8166C2.85024 25.8166 0.118705 25.8166 0 25.8166L0 7.90291C0 6.8486 0.198061 5.85057 0.594189 4.9088C0.990318 3.96703 1.54849 3.14077 2.26872 2.43C2.97695 1.71923 3.80821 1.16543 4.76252 0.768579C5.71683 0.371732 7.68966 0.0389404 8.75801 0.0389404C8.87038 0.0389404 10.33 0.0389404 10.33 0.0389404C10.33 0.91389 10.33 2.53266 10.33 3.20658Z" fill="#FD5C02"/>
<path d="M22.117 20.6329C22.117 22.3786 21.6096 23.7095 20.5947 24.6257C19.5798 25.5419 18.1372 26 16.2671 26C14.3969 26 12.9487 25.5419 11.9224 24.6257C10.9075 23.7095 10.4 22.3786 10.4 20.6329V13H14.1803V20.5771C14.1803 21.2952 14.357 21.871 14.7105 22.3043C15.064 22.7252 15.5772 22.9357 16.25 22.9357C16.9228 22.9357 17.4359 22.719 17.7894 22.2857C18.1544 21.8524 18.3368 21.2829 18.3368 20.5771V13H22.117V20.6329Z" fill="white"/>
<path d="M24.8198 25.7771V13H28.6V25.7771H24.8198Z" fill="white"/>
<path d="M56.5594 13.4721V28.5963H54.3483L54.1532 26.4224C51.7686 28.1408 49.4925 29 47.3247 29C44.4416 29 43 27.6129 43 24.8385V13.4721H45.7639V24.0932C45.7422 25.0456 45.9265 25.7184 46.3167 26.1118C46.7069 26.5052 47.3572 26.7019 48.2677 26.7019C49.0698 26.7019 49.8827 26.5311 50.7064 26.1894C51.5302 25.8478 52.5599 25.294 53.7955 24.528V13.4721H56.5594ZM62.9021 13.4721L63.0972 15.8634C65.6552 14.0207 68.018 13.0994 70.1858 13.0994C73.0473 13.0994 74.478 14.4865 74.478 17.2609V28.5963H71.7141V18.0062C71.7141 17.0124 71.5407 16.3188 71.1938 15.9255C70.847 15.5321 70.2617 15.3354 69.4379 15.3354C68.5708 15.3354 67.6983 15.5217 66.8203 15.8944C65.9424 16.2671 64.7772 16.8778 63.3248 17.7267V28.5963H60.5609V13.4721H62.9021ZM82.3489 15.5528V24.4348C82.3489 25.1594 82.5115 25.677 82.8367 25.9876C83.1619 26.2981 83.7146 26.4534 84.495 26.4534H86.9013L87.2264 28.4721C86.2293 28.7412 85.037 28.8758 83.6496 28.8758C82.3273 28.8758 81.3193 28.5238 80.6256 27.8199C79.9319 27.1159 79.585 26.1015 79.585 24.7764V15.5528H76.7236V13.6273L79.585 13.5031V9H82.3489V13.4721H87.389V15.5528H82.3489ZM99.227 22.323H91.8457C91.9975 24.0621 92.4418 25.2319 93.1789 25.8323C93.9159 26.4327 95.1407 26.7329 96.8533 26.7329C98.6525 26.7329 100.484 26.6087 102.349 26.3602L102.641 28.1304C101.232 28.6894 99.1836 28.9689 96.4956 28.9689C93.7642 28.9689 91.8186 28.3634 90.6588 27.1522C89.4991 25.941 88.9192 23.8861 88.9192 20.9876C88.9192 18.0683 89.4828 16.0238 90.6101 14.854C91.7373 13.6843 93.6016 13.0994 96.2029 13.0994C98.5658 13.0994 100.289 13.5083 101.373 14.3261C102.457 15.1439 102.999 16.3809 102.999 18.0373C103.042 20.8944 101.785 22.323 99.227 22.323ZM91.8132 20.2733H98.5116C99.6605 20.2733 100.235 19.528 100.235 18.0373C100.213 17.0642 99.9098 16.3706 99.3245 15.9565C98.7392 15.5424 97.7421 15.3354 96.333 15.3354C94.6638 15.3354 93.5041 15.6822 92.8537 16.3758C92.2034 17.0694 91.8565 18.3685 91.8132 20.2733Z" fill="white"/>
</svg>
