<svg width="100" height="70" viewBox="0 0 100 70" fill="none" xmlns="http://www.w3.org/2000/svg">
<path d="M36.9587 24.8599C36.9482 24.2807 36.7499 23.0514 36.5302 22.5311C36.3104 22.0109 36.0121 21.563 35.6353 21.1876C35.2481 20.8121 34.8059 20.5198 34.3088 20.3107C33.8116 20.1015 33.2857 19.9969 32.731 19.9969C29.2322 19.9969 26.6082 19.9969 24.8588 19.9969C23.1086 19.9969 20.4833 19.9969 16.9828 19.9969V17.1489H32.8095C33.741 17.1489 34.6227 17.3259 35.4548 17.6799C36.2868 18.0339 37.0168 18.5327 37.6448 19.1763C38.2727 19.8092 38.762 20.552 39.1126 21.4048C39.4633 22.2576 39.7573 24.0205 39.7573 24.9752V26.38H36.9587C36.9587 26.0638 36.9613 24.9174 36.9587 24.8599Z" fill="#933183"/>
<path d="M32.1145 49.1693C32.6872 49.1587 33.9026 48.9582 34.4169 48.7359C34.9313 48.5136 35.3741 48.2119 35.7453 47.8308C36.1164 47.4391 36.4054 46.9919 36.6122 46.489C36.819 45.9862 36.9225 45.4543 36.9225 44.8932V28.9646H39.7382V44.9726C39.7382 45.9147 39.5632 46.8066 39.2132 47.6482C38.8632 48.4898 38.3701 49.2281 37.7338 49.8633C37.108 50.4984 36.3736 50.9933 35.5305 51.3479C34.6874 51.7026 32.9444 52 32.0005 52H30.6117V49.1693C30.9243 49.1693 32.0576 49.172 32.1145 49.1693Z" fill="white"/>
<path d="M8.09956 44.2697C8.11002 44.849 8.30829 46.0783 8.52808 46.5985C8.74787 47.1188 9.04614 47.5666 9.42292 47.9421C9.81017 48.3175 10.2523 48.6098 10.7495 48.819C11.2466 49.0282 11.7725 49.1328 12.3272 49.1328H28.0754V51.9807H12.2487C11.3173 51.9807 10.4355 51.8037 9.60346 51.4497C8.77141 51.0958 8.04141 50.597 7.41345 49.9534C6.78549 49.3205 6.29621 48.5776 5.9456 47.7249C5.59498 46.8721 5.30096 45.1091 5.30096 44.1544V42.7497H8.09956C8.09956 43.0658 8.09694 44.2122 8.09956 44.2697Z" fill="#76B515"/>
<path d="M14.4274 20.0143H12.9246C12.3519 20.0249 11.1365 20.2255 10.6222 20.4478C10.1078 20.6701 9.66506 20.9718 9.29387 21.3529C8.92268 21.7445 8.63369 22.1918 8.42688 22.6946C8.22008 23.1975 8.11668 23.7294 8.11668 24.2905C8.11668 26.4136 8.11668 28.006 8.11668 29.0676C8.11668 31.5457 8.11668 35.2629 8.11668 40.219C7.81914 40.219 5.40584 40.219 5.30096 40.219L5.30096 24.2111C5.30096 23.2689 5.47595 22.3771 5.82593 21.5355C6.17591 20.6939 6.66905 19.9555 7.30537 19.3204C7.93109 18.6852 8.6655 18.1903 9.50863 17.8357C10.3518 17.4811 12.0947 17.1837 13.0386 17.1837C13.1379 17.1837 14.4274 17.1837 14.4274 17.1837C14.4274 17.9656 14.4274 19.4121 14.4274 20.0143Z" fill="#FD5C02"/>
<path d="M24.8412 35.5868C24.8412 37.1468 24.3929 38.3362 23.4963 39.1549C22.5996 39.9736 21.3251 40.383 19.6728 40.383C18.0206 40.383 16.7411 39.9736 15.8343 39.1549C14.9377 38.3362 14.4893 37.1468 14.4893 35.5868V28.766H17.8291V35.537C17.8291 36.1787 17.9853 36.6932 18.2976 37.0804C18.6099 37.4566 19.0633 37.6447 19.6577 37.6447C20.2521 37.6447 20.7055 37.4511 21.0178 37.0638C21.3402 36.6766 21.5014 36.1677 21.5014 35.537V28.766H24.8412V35.5868Z" fill="white"/>
<path d="M27.2291 40.1838V28.766H30.5689V40.1838H27.2291Z" fill="white"/>
<path d="M53.3891 28.988V41.8275H51.5984L51.4404 39.982C49.5092 41.4408 47.6658 42.1702 45.9102 42.1702C43.5752 42.1702 42.4077 40.9926 42.4077 38.6374V28.988H44.6462V38.0046C44.6286 38.8131 44.7778 39.3844 45.0938 39.7183C45.4099 40.0523 45.9365 40.2192 46.6739 40.2192C47.3235 40.2192 47.9818 40.0742 48.649 39.7842C49.3161 39.4942 50.15 39.024 51.1507 38.3737V28.988H53.3891ZM58.5259 28.988L58.6839 31.018C60.7555 29.4537 62.6691 28.6716 64.4247 28.6716C66.7422 28.6716 67.9009 29.8492 67.9009 32.2044V41.8275H65.6624V32.8372C65.6624 31.9935 65.522 31.4047 65.2411 31.0708C64.9602 30.7368 64.4862 30.5698 63.819 30.5698C63.1168 30.5698 62.4102 30.728 61.6991 31.0444C60.9881 31.3608 60.0445 31.8793 58.8682 32.5999V41.8275H56.6298V28.988H58.5259ZM74.2753 30.7544V38.2946C74.2753 38.9098 74.407 39.3492 74.6703 39.6129C74.9336 39.8765 75.3813 40.0083 76.0134 40.0083H77.9621L78.2254 41.722C77.4178 41.9505 76.4523 42.0647 75.3287 42.0647C74.2577 42.0647 73.4414 41.766 72.8796 41.1684C72.3178 40.5708 72.0369 39.7095 72.0369 38.5846V30.7544H69.7195V29.1198L72.0369 29.0143V25.1915H74.2753V28.988H78.3571V30.7544H74.2753ZM87.9443 36.5018H81.9664C82.0893 37.9783 82.4492 38.9713 83.0461 39.481C83.6431 39.9907 84.635 40.2456 86.0219 40.2456C87.4791 40.2456 88.9626 40.1401 90.4724 39.9292L90.7094 41.432C89.5683 41.9066 87.9092 42.1438 85.7322 42.1438C83.5201 42.1438 81.9445 41.6297 81.0052 40.6015C80.066 39.5733 79.5964 37.8289 79.5964 35.3682C79.5964 32.8899 80.0528 31.1543 80.9657 30.1612C81.8787 29.1681 83.3885 28.6716 85.4952 28.6716C87.4089 28.6716 88.8046 29.0187 89.6824 29.713C90.5602 30.4073 90.9991 31.4574 90.9991 32.8635C91.0342 35.2891 90.016 36.5018 87.9443 36.5018ZM81.9401 34.7618H87.365C88.2954 34.7618 88.7607 34.129 88.7607 32.8635C88.7431 32.0375 88.4973 31.4487 88.0233 31.0971C87.5493 30.7456 86.7417 30.5698 85.6006 30.5698C84.2487 30.5698 83.3095 30.8642 82.7828 31.453C82.2561 32.0419 81.9752 33.1448 81.9401 34.7618Z" fill="white"/>
<path d="M40.932 21.25C43.1119 19.1181 45.0525 14.7107 44.6165 10.4468C43.7445 14.7108 40.932 15.7068 34.3922 15.7068L36.2384 16.0937C38.7797 16.6264 40.6717 18.7049 40.932 21.25Z" fill="white"/>
<path d="M4.12629 21.25C1.94634 19.1181 0.0057381 14.7107 0.441728 10.4468C1.31372 14.7108 4.12629 15.7068 10.6661 15.7068L8.81989 16.0937C6.27852 16.6264 4.38652 18.7049 4.12629 21.25Z" fill="white"/>
</svg>
