<svg width="30" height="30" viewBox="0 0 30 30" fill="none" xmlns="http://www.w3.org/2000/svg">
<path d="M15 22C16.6569 22 18 23.3431 18 25C18 26.6569 16.6569 28 15 28C13.3431 28 12 26.6569 12 25C12 23.3431 13.3431 22 15 22Z" fill="#343434"/>
<path d="M15 12C16.6569 12 18 13.3431 18 15C18 16.6569 16.6569 18 15 18C13.3431 18 12 16.6569 12 15C12 13.3431 13.3431 12 15 12Z" fill="#343434"/>
<path d="M18 5C18 3.34315 16.6569 2 15 2C13.3431 2 12 3.34315 12 5C12 6.65685 13.3431 8 15 8C16.6569 8 18 6.65685 18 5Z" fill="#343434"/>
</svg>
