<svg width="30" height="30" viewBox="0 0 30 30" fill="none" xmlns="http://www.w3.org/2000/svg">
<path d="M30 25.0781H25.0781V30H22.7344V25.0781H17.8125V22.7344H22.7344V17.8125H25.0781V22.7344H30V25.0781ZM17.5374 13.092C17.6404 13.5555 17.6953 14.0371 17.6953 14.5312C17.6953 16.5557 16.7816 18.3707 15.3454 19.5861C15.3864 19.6024 15.4278 19.6181 15.4688 19.6349V22.2247C14.214 21.541 12.7766 21.1523 11.25 21.1523V21.1501C11.2305 21.1505 11.2109 21.1505 11.1914 21.151V21.1523C6.31279 21.1523 2.34375 25.1214 2.34375 30H0C0 25.3493 2.85187 21.3526 6.89827 19.6653C5.4071 18.4504 4.45312 16.6001 4.45312 14.5312C4.45312 10.8804 7.42332 7.91016 11.0742 7.91016C11.5082 7.91016 11.9323 7.9525 12.3431 8.03261C12.2415 7.57301 12.1875 7.09579 12.1875 6.60622C12.1875 2.96356 15.1511 0 18.7937 0C22.4364 0 25.3999 2.96356 25.3999 6.60622C25.3999 8.65082 24.4661 10.4814 23.0029 11.694C24.9371 12.4622 26.6043 13.7517 27.8254 15.4102H24.6703C23.2143 14.1197 21.3318 13.3008 19.2636 13.1955C19.1082 13.2065 18.9516 13.2124 18.7937 13.2124C18.3641 13.2124 17.9441 13.1708 17.5374 13.092ZM14.5312 6.60622C14.5312 8.9566 16.4433 10.8687 18.7937 10.8687C21.1439 10.8687 23.0562 8.9566 23.0562 6.60622C23.0562 4.25583 21.1439 2.34375 18.7937 2.34375C16.4433 2.34375 14.5312 4.25583 14.5312 6.60622ZM15.3516 14.5312C15.3516 12.1726 13.4328 10.2539 11.0742 10.2539C8.71559 10.2539 6.79688 12.1726 6.79688 14.5312C6.79688 16.8899 8.71559 18.8086 11.0742 18.8086C13.4328 18.8086 15.3516 16.8899 15.3516 14.5312Z" fill="#343434"/>
</svg>
