<svg width="30" height="30" viewBox="0 0 30 30" fill="none" xmlns="http://www.w3.org/2000/svg">
<path d="M14.9708 0.0292358C10.1984 0.0292358 6.31582 3.91189 6.31582 8.68418C6.31582 11.6402 7.8058 14.2544 10.0738 15.8164C7.95633 16.5472 6.01547 17.7542 4.38492 19.3848C1.55725 22.2125 0 25.9719 0 29.9708H2.33918C2.33918 23.0057 8.00566 17.3392 14.9708 17.3392C19.7431 17.3392 23.6257 13.4565 23.6257 8.68418C23.6257 3.91184 19.7431 0.0292358 14.9708 0.0292358ZM14.9708 15C11.4882 15 8.655 12.1668 8.655 8.68424C8.655 5.20172 11.4882 2.36842 14.9708 2.36842C18.4533 2.36842 21.2865 5.20166 21.2865 8.68424C21.2865 12.1668 18.4533 15 14.9708 15Z" fill="#343434"/>
<path d="M25.0877 22.7193V17.807H22.7486V22.7193H17.8362V25.0585H22.7486V29.9708H25.0877V25.0585H30V22.7193H25.0877Z" fill="#343434"/>
</svg>
