<svg width="30" height="30" viewBox="0 0 30 30" fill="none" xmlns="http://www.w3.org/2000/svg">
<path d="M12.1004 13.6139L25.3237 1.57467C26.1648 0.808443 27.5286 0.808443 28.3694 1.57467C29.2102 2.34023 29.2102 3.58187 28.3694 4.34736L16.6688 15.0002L28.369 25.6527C29.2099 26.4185 29.2099 27.6601 28.369 28.4256C27.5282 29.1915 26.1645 29.1915 25.3233 28.4256L12.1001 16.3862C11.6796 16.0033 11.4697 15.5019 11.4697 15.0003C11.4697 14.4984 11.6801 13.9966 12.1004 13.6139Z" fill="#343434"/>
<path fill-rule="evenodd" clip-rule="evenodd" d="M2.94781 1C4.02356 1 4.89563 1.83573 4.89563 2.86667L4.89563 27.1333C4.89563 28.1643 4.02356 29 2.94781 29C1.87207 29 1 28.1643 1 27.1333L1 2.86667C1 1.83574 1.87207 1 2.94781 1Z" fill="#343434"/>
</svg>
