<svg width="30" height="30" viewBox="0 0 30 30" fill="none" xmlns="http://www.w3.org/2000/svg">
<path d="M0 6.57895C0 5.70692 0.671573 5 1.5 5H28.5C29.3284 5 30 5.70692 30 6.57895C30 7.45098 29.3284 8.15789 28.5 8.15789H1.5C0.671573 8.15789 0 7.45098 0 6.57895Z" fill="#343434"/>
<path d="M0 15C0 14.128 0.671573 13.4211 1.5 13.4211H28.5C29.3284 13.4211 30 14.128 30 15C30 15.872 29.3284 16.5789 28.5 16.5789H1.5C0.671573 16.5789 0 15.872 0 15Z" fill="#343434"/>
<path d="M1.5 21.8421C0.671573 21.8421 0 22.549 0 23.4211C0 24.2931 0.671573 25 1.5 25H28.5C29.3284 25 30 24.2931 30 23.4211C30 22.549 29.3284 21.8421 28.5 21.8421H1.5Z" fill="#343434"/>
</svg>
