<svg width="30" height="30" viewBox="0 0 30 30" fill="none" xmlns="http://www.w3.org/2000/svg">
<path d="M15 0C6.729 0 0 6.729 0 15C0 23.271 6.729 30 15 30C23.271 30 30 23.271 30 15C30 6.729 23.2708 0 15 0ZM15 27C8.14704 27 3 21.853 3 15C3 8.14704 8.14704 3 15 3C21.853 3 27 8.14704 27 15C27 21.853 21.8528 27 15 27Z" fill="#343434"/>
<path d="M20.8041 9.19663C20.3018 8.69439 19.5014 8.49776 19 9L15 13L11 9C10.4978 8.49776 9.69818 8.69439 9.19595 9.19663C8.69371 9.69886 8.49776 10.4978 9 11L13 15L9.00002 19C8.49778 19.5022 8.69391 20.3044 9.19577 20.8056C9.69722 21.3064 10.5 21.5 11 21L15 17L19 21C19.5 21.5 20.3028 21.3064 20.8042 20.8056C21.3061 20.3044 21.5023 19.5022 21 19L17 15.001L21 11C21.5022 10.4978 21.3063 9.69886 20.8041 9.19663Z" fill="#343434"/>
</svg>
