<svg width="30" height="30" viewBox="0 0 30 30" fill="none" xmlns="http://www.w3.org/2000/svg">
<g id="cancel" clip-path="url(#clip0)">
<path id="Vector" d="M12.0312 9.9099C11.4454 9.32412 10.4957 9.32412 9.9099 9.9099C9.32412 10.4957 9.32412 11.4454 9.9099 12.0312L13.0919 15.2132L9.9099 18.3952C9.32412 18.981 9.32412 19.9307 9.9099 20.5165C10.4957 21.1023 11.4454 21.1023 12.0312 20.5165L15.2132 17.3345L18.3952 20.5165C18.981 21.1023 19.9307 21.1023 20.5165 20.5165C21.1023 19.9307 21.1023 18.981 20.5165 18.3952L17.3345 15.2132L20.5165 12.0312C21.1023 11.4454 21.1023 10.4957 20.5165 9.9099C19.9307 9.32412 18.981 9.32412 18.3952 9.9099L15.2132 13.0919L12.0312 9.9099ZM4.6066 4.6066C-1.24824 10.4614 -1.24824 19.965 4.6066 25.8198C10.4614 31.6746 19.965 31.6746 25.8198 25.8198C31.6746 19.965 31.6746 10.4614 25.8198 4.6066C19.965 -1.24824 10.4614 -1.24824 4.6066 4.6066ZM23.6985 23.6985C19.021 28.376 11.4054 28.376 6.72792 23.6985C2.05041 19.021 2.05041 11.4054 6.72792 6.72792C11.4054 2.05041 19.021 2.05041 23.6985 6.72792C28.376 11.4054 28.376 19.021 23.6985 23.6985Z" fill="#343434"/>
</g>
<defs>
<clipPath id="clip0">
<rect width="30" height="30" fill="white"/>
</clipPath>
</defs>
</svg>
