<svg width="30" height="30" viewBox="0 0 30 30" fill="none" xmlns="http://www.w3.org/2000/svg">

<path d="M11.9111 9.64197C11.3356 9.04605 10.386 9.02948 9.79006 9.60495V9.60495C9.19414 10.1804 9.17756 11.13 9.75304 11.7259L12.879 14.963L9.64197 18.0889C9.04605 18.6644 9.02947 19.614 9.60495 20.2099V20.2099C10.1804 20.8059 11.13 20.8224 11.7259 20.247L14.963 17.121L18.0889 20.358C18.6644 20.9539 19.614 20.9705 20.2099 20.395V20.395C20.8059 19.8196 20.8224 18.87 20.247 18.2741L17.121 15.037L20.358 11.9111C20.9539 11.3356 20.9705 10.386 20.395 9.79006V9.79006C19.8196 9.19414 18.87 9.17757 18.274 9.75304L15.037 12.879L11.9111 9.64197ZM4.58012 4.2099C-1.37601 9.96168 -1.54187 19.4637 4.2099 25.4199C9.96167 31.376 19.4637 31.5419 25.4199 25.7901C31.376 20.0383 31.5419 10.5363 25.7901 4.58012C20.0383 -1.37601 10.5363 -1.54187 4.58012 4.2099ZM23.3359 23.6321C18.5775 28.2272 10.9631 28.0943 6.36792 23.3359C1.77275 18.5775 1.90566 10.9631 6.6641 6.36792C11.4225 1.77276 19.0369 1.90567 23.6321 6.6641C28.2272 11.4225 28.0943 19.0369 23.3359 23.6321Z" fill="#343434"/>

</svg>
