<svg width="30" height="30" viewBox="0 0 30 30" fill="none" xmlns="http://www.w3.org/2000/svg">
<path d="M28.7943 8.13627C28.0321 6.57715 26.9117 5.25633 25.4643 4.21055C22.8986 2.35682 19.2801 1.37695 15 1.37695C10.7199 1.37695 7.10139 2.35676 4.53568 4.21055C3.0883 5.25633 1.96793 6.57715 1.20574 8.13627C0.405703 9.77291 0 11.678 0 13.7988C0 18.3858 1.8917 21.8948 5.48525 24.0056C4.98814 25.7593 4.34314 26.8222 4.33734 26.8317L3.22506 28.6199L5.3318 28.623H5.33789C5.34393 28.623 5.35008 28.623 5.35658 28.623C6.02145 28.623 9.07178 28.4796 11.552 25.9917C12.6454 26.1438 13.8022 26.2207 15 26.2207C19.2801 26.2207 22.8986 25.2408 25.4643 23.3871C26.9117 22.3413 28.0321 21.0205 28.7943 19.4614C29.5943 17.8247 30 15.9196 30 13.7988C30 11.678 29.5943 9.77285 28.7943 8.13627ZM24.0916 21.4873C21.9279 23.0506 18.7842 23.877 15 23.877C13.6997 23.877 12.4591 23.7782 11.3124 23.5835L10.6599 23.4727L10.2281 23.9742C9.30035 25.0518 8.22926 25.6271 7.32 25.9335C7.55613 25.2965 7.79525 24.532 7.9882 23.6609L8.18713 22.7632L7.36254 22.3565C4.0323 20.7138 2.34375 17.8346 2.34375 13.7988C2.34375 10.4061 3.54305 7.81928 5.90836 6.11033C8.07199 4.54705 11.2158 3.7207 15 3.7207C18.7842 3.7207 21.928 4.54699 24.0916 6.11033C26.457 7.81928 27.6562 10.4061 27.6562 13.7988C27.6562 17.1915 26.457 19.7783 24.0916 21.4873Z" fill="#343434"/>
</svg>
