<svg width="30" height="30" viewBox="0 0 30 30" fill="none" xmlns="http://www.w3.org/2000/svg">
<path d="M13.43 13.8768L22.48 4.40164C23 3.94588 23.99 3.79153 24.57 4.4025C25.14 5.0044 25.14 5.98205 24.57 6.58481L16.56 14.972L24.57 23.3592C25.14 23.962 25.1436 24.9397 24.57 25.5424C23.99 26.1525 23.06 26.1525 22.48 25.5424L13.43 16.0673C13.14 15.7586 13 15.369 13 14.972C13 14.5751 13.14 14.1781 13.43 13.8768Z" fill="#343434"/>
<path d="M5.43 13.8768L14.48 4.40164C15 3.94588 15.99 3.79153 16.57 4.4025C17.14 5.0044 17.14 5.98205 16.57 6.58481L8.56 14.972L16.57 23.3592C17.14 23.962 17.1436 24.9397 16.57 25.5424C15.99 26.1525 15.06 26.1525 14.48 25.5424L5.43 16.0673C5.14 15.7586 5 15.369 5 14.972C5.00001 14.5751 5.14 14.1781 5.43 13.8768Z" fill="#343434"/>
</svg>
