<svg width="30" height="30" viewBox="0 0 30 30" fill="none" xmlns="http://www.w3.org/2000/svg">
<path d="M17.5683 16.4852L8.51655 29.3843C7.94075 30.2052 7.00719 30.2052 6.43167 29.3843C5.85611 28.564 5.85611 27.2337 6.43167 26.4135L14.441 14.9998L6.43191 3.58643C5.85634 2.76586 5.85634 1.43566 6.43191 0.615424C7.00747 -0.205141 7.94098 -0.205141 8.51678 0.615424L17.5685 13.5147C17.8563 13.9251 18 14.4623 18 14.9997C18 15.5374 17.856 16.075 17.5683 16.4852Z" fill="#343434"/>
<path d="M25.5683 16.4852L16.5165 29.3843C15.9408 30.2052 15.0072 30.2052 14.4317 29.3843C13.8561 28.564 13.8561 27.2337 14.4317 26.4135L22.441 14.9998L14.4319 3.58643C13.8563 2.76586 13.8563 1.43566 14.4319 0.615424C15.0075 -0.205141 15.941 -0.205141 16.5168 0.615424L25.5685 13.5147C25.8563 13.9251 26 14.4623 26 14.9997C26 15.5374 25.856 16.075 25.5683 16.4852Z" fill="#343434"/>
</svg>
