<svg width="30" height="30" viewBox="0 0 30 30" fill="none" xmlns="http://www.w3.org/2000/svg">
<path d="M13.43 13.4683L22.48 0.547688C23 -0.0737947 23.99 -0.284273 24.57 0.54887C25.14 1.36964 25.14 2.7028 24.57 3.52475L16.56 14.9619L24.57 26.399C25.14 27.2209 25.1436 28.5541 24.57 29.376C23.99 30.208 23.06 30.208 22.48 29.376L13.43 16.4554C13.14 16.0344 13 15.5031 13 14.9619C13 14.4206 13.14 13.8793 13.43 13.4683Z" fill="#343434"/>
<path d="M5.43 13.4683L14.48 0.547688C15 -0.0737947 15.99 -0.284273 16.57 0.54887C17.14 1.36964 17.14 2.7028 16.57 3.52475L8.56 14.9619L16.57 26.399C17.14 27.2209 17.1436 28.5541 16.57 29.376C15.99 30.208 15.06 30.208 14.48 29.376L5.43 16.4554C5.14 16.0344 5 15.5031 5 14.9619C5.00001 14.4206 5.14 13.8793 5.43 13.4683Z" fill="#343434"/>
</svg>
