<svg width="30" height="30" viewBox="0 0 30 30" fill="none" xmlns="http://www.w3.org/2000/svg">
<path d="M24.5689 16.1232L15.5189 25.5984C14.9989 26.0541 14.0089 26.2085 13.4289 25.5975C12.8589 24.9956 12.8589 24.0179 13.4289 23.4152L21.4389 15.028L13.4289 6.64075C12.8589 6.03799 12.8553 5.06034 13.4289 4.45758C14.0089 3.84747 14.9389 3.84747 15.5189 4.45758L24.5689 13.9327C24.8589 14.2414 24.9989 14.631 24.9989 15.028C24.9989 15.4249 24.8589 15.8218 24.5689 16.1232Z" fill="#343434"/>
<path d="M16.5689 16.1232L7.51887 25.5984C6.99886 26.0541 6.00887 26.2085 5.42887 25.5975C4.85887 24.9956 4.85887 24.0179 5.42887 23.4152L13.4389 15.028L5.42887 6.64075C4.85887 6.03799 4.85526 5.06034 5.42887 4.45758C6.00887 3.84747 6.93887 3.84747 7.51887 4.45758L16.5689 13.9327C16.8589 14.2414 16.9989 14.631 16.9989 15.028C16.9989 15.4249 16.8589 15.8218 16.5689 16.1232Z" fill="#343434"/>
</svg>
