<svg width="30" height="30" viewBox="0 0 30 30" fill="none" xmlns="http://www.w3.org/2000/svg">
<g clip-path="url(#clip0)">
<path d="M12.4317 13.5148L21.4835 0.615722C22.0593 -0.205242 22.9928 -0.205242 23.5683 0.615723C24.1439 1.43596 24.1439 2.76629 23.5683 3.58646L15.559 15.0002L23.5681 26.4136C24.1437 27.2341 24.1437 28.5643 23.5681 29.3846C22.9925 30.2051 22.059 30.2051 21.4832 29.3846L12.4315 16.4853C12.1437 16.0749 12 15.5377 12 15.0003C12 14.4626 12.144 13.925 12.4317 13.5148Z" fill="#343434"/>
<path d="M4.43175 13.5148L13.4835 0.615722C14.0593 -0.205242 14.9928 -0.205242 15.5683 0.615723C16.1439 1.43596 16.1439 2.76629 15.5683 3.58646L7.55896 15.0002L15.5681 26.4136C16.1437 27.2341 16.1437 28.5643 15.5681 29.3846C14.9925 30.2051 14.059 30.2051 13.4832 29.3846L4.43151 16.4853C4.14373 16.0749 4 15.5377 4 15.0003C4 14.4626 4.14401 13.925 4.43175 13.5148Z" fill="#343434"/>
</g>
<defs>
<clipPath id="clip0">
<rect width="30" height="30" fill="white" transform="translate(30 30) rotate(-180)"/>
</clipPath>
</defs>
</svg>
