<svg width="30" height="30" viewBox="0 0 30 30" fill="none" xmlns="http://www.w3.org/2000/svg">
<path d="M24.5689 16.1232L15.5189 25.5984C14.9989 26.0541 14.0089 26.2085 13.4289 25.5975C12.8589 24.9956 12.8589 24.0179 13.4289 23.4152L21.4389 15.028L13.4289 6.64076C12.8589 6.038 12.8553 5.06035 13.4289 4.45759C14.0089 3.84747 14.9389 3.84747 15.5189 4.45759L24.5689 13.9327C24.8589 14.2414 24.9989 14.631 24.9989 15.028C24.9989 15.4249 24.8589 15.8219 24.5689 16.1232Z" fill="#343434"/>
<path d="M16.5689 16.1232L7.5189 25.5984C6.99889 26.0541 6.0089 26.2085 5.4289 25.5975C4.8589 24.9956 4.8589 24.0179 5.4289 23.4152L13.4389 15.028L5.4289 6.64076C4.8589 6.038 4.85529 5.06035 5.4289 4.45759C6.0089 3.84747 6.9389 3.84747 7.5189 4.45759L16.5689 13.9327C16.8589 14.2414 16.9989 14.631 16.9989 15.028C16.9989 15.4249 16.8589 15.8219 16.5689 16.1232Z" fill="#343434"/>
</svg>
