<svg width="30" height="30" viewBox="0 0 30 30" fill="none" xmlns="http://www.w3.org/2000/svg">
<path d="M27.59 5.23C28.3687 4.45128 28.3687 3.18872 27.59 2.41C26.8113 1.63128 25.5487 1.63128 24.77 2.41L15 12.18L5.23 2.41C4.45128 1.63128 3.18872 1.63128 2.41 2.41C1.63128 3.18872 1.63128 4.45128 2.41 5.23L12.18 15L2.41 24.77C1.63128 25.5487 1.63128 26.8113 2.41 27.59C3.18872 28.3687 4.45128 28.3687 5.23 27.59L15 17.82L24.77 27.59C25.5487 28.3687 26.8113 28.3687 27.59 27.59C28.3687 26.8113 28.3687 25.5487 27.59 24.77L17.82 15L27.59 5.23Z" fill="#343434"/>
</svg>
