<svg width="30" height="30" viewBox="0 0 30 30" fill="none" xmlns="http://www.w3.org/2000/svg">
<path d="M24.3824 13.3658C24.244 8.26179 20.049 4.15202 14.9123 4.15202C12.5525 4.15202 10.2914 5.02507 8.54566 6.61027C7.04139 7.97609 6.0249 9.77175 5.62687 11.739C4.20475 12.0448 2.90672 12.7803 1.90248 13.863C0.675645 15.1858 0 16.9084 0 18.7134C0 22.6474 3.20051 25.8479 7.13449 25.8479C7.14387 25.8479 7.15307 25.8478 7.1598 25.8477L23.7047 25.8475C23.7173 25.8478 23.73 25.8479 23.7427 25.8479C27.193 25.8479 30 23.0409 30 19.5907C30 16.3562 27.5335 13.6872 24.3824 13.3658ZM23.7439 23.5088L23.7115 23.5084L7.15008 23.5086L7.12781 23.5088C4.48676 23.5052 2.33918 21.3554 2.33918 18.7135C2.33918 16.2312 4.27459 14.1317 6.74537 13.9339L7.71615 13.8562L7.81559 12.8874C8.18971 9.24107 11.2407 6.49126 14.9123 6.49126C18.8463 6.49126 22.0468 9.69177 22.0468 13.6258V15.6726H23.7427C25.9031 15.6726 27.6608 17.4302 27.6608 19.5907C27.6608 21.7507 25.9038 23.5081 23.7439 23.5088Z" fill="#343434"/>
</svg>
