<svg width="30" height="30" viewBox="0 0 30 30" fill="none" xmlns="http://www.w3.org/2000/svg">
<path d="M20.9198 7.91301C16.3027 4.44077 9.89082 5.24534 6.62666 9.70653C3.36249 14.1677 4.4632 20.6221 9.08031 24.0943C13.6974 27.5665 20.1093 26.762 23.3735 22.3008C26.6376 17.8396 25.5369 11.3853 20.9198 7.91301ZM10.4038 23.4347L10.8978 22.7594C11.1096 22.47 11.0385 22.0527 10.7389 21.8275C10.4394 21.6022 10.0249 21.6542 9.81309 21.9436L9.319 22.6189C5.9189 19.6647 5.07686 14.7274 7.34799 11.0615L8.04687 11.5871C8.34643 11.8124 8.76095 11.7603 8.97269 11.4709C9.18447 11.1815 9.11332 10.7642 8.81376 10.539L8.11489 10.0134C10.9164 6.74633 15.8212 6.13087 19.5963 8.57268L19.1023 9.24796C18.8905 9.53735 18.9616 9.95462 19.2612 10.1799C19.5608 10.4052 19.9753 10.3531 20.187 10.0637L20.6811 9.38846C24.0812 12.3427 24.9233 17.28 22.652 20.9459L21.9532 20.4203C21.6536 20.195 21.2392 20.247 21.0274 20.5365C20.8156 20.8259 20.8867 21.2432 21.1863 21.4684L21.8852 21.994C19.0837 25.2609 14.1788 25.8764 10.4038 23.4347Z" fill="#343434"/>
<path d="M23.6177 5.3749L24.1159 4.69407L24.9872 5.34933C25.2868 5.57461 25.7012 5.5226 25.913 5.23315L27.4017 3.1985C27.6135 2.90905 27.5424 2.49183 27.2428 2.26655L24.4152 0.140066C24.1156 -0.0852154 23.7011 -0.033206 23.4894 0.25624L22.0006 2.29089C21.7889 2.58034 21.86 2.99756 22.1596 3.22284L23.0312 3.87837L22.5331 4.5592C16.2774 0.28033 7.89379 1.48671 3.56447 7.40366C-0.893444 13.4964 0.609742 22.3111 6.91543 27.0532C13.2211 31.7953 21.9779 30.6965 26.4358 24.6038C30.7651 18.6868 29.4716 10.2028 23.6177 5.3749ZM23.4688 2.58262L24.1906 1.59604L25.9335 2.90679L25.2117 3.89336L23.4688 2.58262ZM7.72261 25.9499C2.04656 21.6813 0.693419 13.7467 4.70623 8.26231C8.71904 2.77793 16.6014 1.78889 22.2775 6.05749C27.9535 10.3261 29.3067 18.2607 25.2939 23.7451C21.2811 29.2295 13.3987 30.2185 7.72261 25.9499Z" fill="#343434"/>
<path d="M21.8153 15.1487C21.7684 14.8739 21.5572 14.6493 21.2852 14.5848L14.7282 13.0324C14.7227 13.0311 14.7172 13.0304 14.7117 13.0292C14.7006 13.0269 14.6895 13.0246 14.6782 13.0228C14.6681 13.0212 14.658 13.0201 14.6478 13.019C14.6374 13.0178 14.627 13.0165 14.6165 13.0159C14.6041 13.015 14.5916 13.015 14.5792 13.0148C14.5709 13.0148 14.5626 13.0143 14.5543 13.0146C14.5119 13.0158 14.47 13.0211 14.429 13.0303C14.4208 13.0322 14.4129 13.0347 14.4049 13.0368C14.3932 13.0399 14.3814 13.043 14.37 13.0468C14.36 13.0501 14.3503 13.0539 14.3405 13.0577C14.3314 13.0611 14.3223 13.0646 14.3133 13.0686C14.3029 13.0731 14.2929 13.0781 14.2827 13.0832C14.278 13.0856 14.2731 13.0876 14.2684 13.0901L8.50449 16.1886C8.2654 16.3171 8.1381 16.5843 8.18497 16.8589C8.21539 17.0375 8.31535 17.1949 8.45627 17.3009C8.53209 17.3579 8.6198 17.4 8.71498 17.4226L15.272 18.9751C15.2775 18.9764 15.2829 18.977 15.2883 18.9782C15.2995 18.9805 15.3107 18.9828 15.322 18.9846C15.3321 18.9862 15.342 18.9873 15.3521 18.9885C15.3625 18.9897 15.373 18.991 15.3836 18.9916C15.3959 18.9924 15.4082 18.9925 15.4205 18.9926C15.429 18.9927 15.4373 18.9931 15.4457 18.9928C15.488 18.9916 15.53 18.9863 15.5709 18.9771C15.5793 18.9753 15.5875 18.9727 15.5957 18.9705C15.6072 18.9674 15.6186 18.9644 15.6299 18.9607C15.6401 18.9574 15.6499 18.9536 15.6597 18.9498C15.6688 18.9463 15.6778 18.9429 15.6867 18.939C15.6971 18.9344 15.7072 18.9294 15.7173 18.9243C15.722 18.922 15.727 18.92 15.7317 18.9175L21.4956 15.819C21.7348 15.6905 21.8621 15.4234 21.8153 15.1487ZM10.7039 16.5428L14.111 14.7112L14.5798 17.4604L10.7039 16.5428ZM15.8891 17.2962L15.4203 14.547L19.2962 15.4647L15.8891 17.2962Z" fill="#343434"/>
</svg>
