<svg width="30" height="31" viewBox="0 0 30 31" fill="none" xmlns="http://www.w3.org/2000/svg">
<path d="M20.7838 8.87597C16.1787 5.45993 9.78345 6.25148 6.52776 10.6405C3.27207 15.0294 4.36992 21.3793 8.97504 24.7953C13.5802 28.2113 19.9754 27.4198 23.2311 23.0308C26.4868 18.6419 25.389 12.292 20.7838 8.87597ZM10.2951 24.1464L10.7879 23.482C10.9991 23.1973 10.9281 22.7868 10.6293 22.5652C10.3306 22.3435 9.91715 22.3947 9.70592 22.6795L9.21312 23.3438C5.82184 20.4374 4.98198 15.58 7.24723 11.9735L7.94429 12.4906C8.24307 12.7122 8.65651 12.661 8.86771 12.3763C9.07894 12.0915 9.00797 11.681 8.70919 11.4594L8.01213 10.9423C10.8064 7.72817 15.6985 7.12267 19.4638 9.52496L18.971 10.1893C18.7598 10.474 18.8307 10.8845 19.1295 11.1062C19.4283 11.3278 19.8417 11.2766 20.0529 10.9919L20.5457 10.3275C23.937 13.2339 24.7769 18.0913 22.5115 21.6978L21.8145 21.1808C21.5157 20.9592 21.1023 21.0103 20.8911 21.2951C20.6799 21.5798 20.7508 21.9903 21.0496 22.212L21.7467 22.729C18.9524 25.9431 14.0603 26.5486 10.2951 24.1464Z" fill="#343434"/>
<path d="M23.4748 6.37894L23.9716 5.70913L24.8407 6.35378C25.1394 6.57542 25.5528 6.52425 25.7641 6.23949L27.2489 4.23777C27.4602 3.95301 27.3892 3.54254 27.0904 3.32091L24.2701 1.22885C23.9713 1.00721 23.5579 1.05838 23.3467 1.34314L21.8619 3.34486C21.6506 3.62962 21.7216 4.04008 22.0204 4.26172L22.8898 4.90664L22.3929 5.57644C16.1535 1.36684 7.7916 2.55369 3.47352 8.37486C-0.972825 14.3689 0.52646 23.041 6.81579 27.7063C13.1051 32.3717 21.8391 31.2906 26.2855 25.2965C30.6036 19.4754 29.3134 11.1287 23.4748 6.37894ZM23.3262 3.63186L24.0461 2.66125L25.7845 3.95078L25.0646 4.92139L23.3262 3.63186ZM7.62087 26.6209C1.95955 22.4214 0.60992 14.6152 4.61232 9.21961C8.61471 3.82401 16.4767 2.85098 22.138 7.05048C27.7993 11.25 29.1489 19.0562 25.1465 24.4517C21.1442 29.8474 13.2822 30.8204 7.62087 26.6209Z" fill="#343434"/>
<path d="M21.6769 15.9945C21.6302 15.7242 21.4196 15.5032 21.1483 15.4398L14.6083 13.9125C14.6028 13.9112 14.5973 13.9105 14.5918 13.9094C14.5808 13.907 14.5696 13.9049 14.5584 13.9031C14.5483 13.9014 14.5383 13.9004 14.5281 13.8993C14.5177 13.8982 14.5074 13.8969 14.4969 13.8962C14.4845 13.8954 14.4721 13.8953 14.4597 13.8952C14.4514 13.8951 14.4431 13.8947 14.4349 13.895C14.3926 13.8962 14.3508 13.9014 14.3099 13.9104C14.3017 13.9123 14.2938 13.9147 14.2858 13.9168C14.2741 13.9199 14.2624 13.9229 14.251 13.9267C14.241 13.9299 14.2313 13.9336 14.2216 13.9373C14.2125 13.9408 14.2034 13.9442 14.1944 13.9481C14.1841 13.9526 14.1741 13.9575 14.164 13.9625C14.1593 13.9648 14.1543 13.9668 14.1497 13.9692L8.40072 17.0176C8.16225 17.144 8.03528 17.4069 8.08204 17.677C8.11237 17.8528 8.21207 18.0076 8.35263 18.1119C8.42825 18.168 8.51573 18.2094 8.61067 18.2316L15.1507 19.759C15.1562 19.7602 15.1616 19.7609 15.167 19.762C15.1781 19.7643 15.1893 19.7665 15.2005 19.7683C15.2106 19.7699 15.2205 19.771 15.2305 19.7721C15.241 19.7733 15.2514 19.7746 15.262 19.7752C15.2742 19.776 15.2866 19.7761 15.2988 19.7762C15.3072 19.7763 15.3156 19.7767 15.324 19.7764C15.3661 19.7752 15.408 19.7701 15.4488 19.761C15.4572 19.7591 15.4653 19.7566 15.4736 19.7545C15.485 19.7515 15.4964 19.7485 15.5077 19.7449C15.5178 19.7416 15.5275 19.7378 15.5374 19.7341C15.5464 19.7307 15.5554 19.7274 15.5643 19.7235C15.5746 19.719 15.5848 19.714 15.5949 19.709C15.5995 19.7067 15.6045 19.7048 15.6091 19.7023L21.3581 16.654C21.5967 16.5275 21.7237 16.2647 21.6769 15.9945ZM10.5944 17.366L13.9927 15.5641L14.4603 18.2688L10.5944 17.366ZM15.7662 18.1073L15.2985 15.4026L19.1644 16.3054L15.7662 18.1073Z" fill="#343434"/>
<path d="M20.7838 8.87597C16.1787 5.45993 9.78345 6.25148 6.52776 10.6405C3.27207 15.0294 4.36992 21.3793 8.97504 24.7953C13.5802 28.2113 19.9754 27.4198 23.2311 23.0308C26.4868 18.6419 25.389 12.292 20.7838 8.87597ZM10.2951 24.1464L10.7879 23.482C10.9991 23.1973 10.9281 22.7868 10.6293 22.5652C10.3306 22.3435 9.91715 22.3947 9.70592 22.6795L9.21312 23.3438C5.82184 20.4374 4.98198 15.58 7.24723 11.9735L7.94429 12.4906C8.24307 12.7122 8.65651 12.661 8.86771 12.3763C9.07894 12.0915 9.00797 11.681 8.70919 11.4594L8.01213 10.9423C10.8064 7.72817 15.6985 7.12267 19.4638 9.52496L18.971 10.1893C18.7598 10.474 18.8307 10.8845 19.1295 11.1062C19.4283 11.3278 19.8417 11.2766 20.0529 10.9919L20.5457 10.3275C23.937 13.2339 24.7769 18.0913 22.5115 21.6978L21.8145 21.1808C21.5157 20.9592 21.1023 21.0103 20.8911 21.2951C20.6799 21.5798 20.7508 21.9903 21.0496 22.212L21.7467 22.729C18.9524 25.9431 14.0603 26.5486 10.2951 24.1464Z" stroke="#343434" stroke-width="0.5"/>
<path d="M23.4748 6.37894L23.9716 5.70913L24.8407 6.35378C25.1394 6.57542 25.5528 6.52425 25.7641 6.23949L27.2489 4.23777C27.4602 3.95301 27.3892 3.54254 27.0904 3.32091L24.2701 1.22885C23.9713 1.00721 23.5579 1.05838 23.3467 1.34314L21.8619 3.34486C21.6506 3.62962 21.7216 4.04008 22.0204 4.26172L22.8898 4.90664L22.3929 5.57644C16.1535 1.36684 7.7916 2.55369 3.47352 8.37486C-0.972825 14.3689 0.52646 23.041 6.81579 27.7063C13.1051 32.3717 21.8391 31.2906 26.2855 25.2965C30.6036 19.4754 29.3134 11.1287 23.4748 6.37894ZM23.3262 3.63186L24.0461 2.66125L25.7845 3.95078L25.0646 4.92139L23.3262 3.63186ZM7.62087 26.6209C1.95955 22.4214 0.60992 14.6152 4.61232 9.21961C8.61471 3.82401 16.4767 2.85098 22.138 7.05048C27.7993 11.25 29.1489 19.0562 25.1465 24.4517C21.1442 29.8474 13.2822 30.8204 7.62087 26.6209Z" stroke="#343434" stroke-width="0.5"/>
<path d="M21.6769 15.9945C21.6302 15.7242 21.4196 15.5032 21.1483 15.4398L14.6083 13.9125C14.6028 13.9112 14.5973 13.9105 14.5918 13.9094C14.5808 13.907 14.5696 13.9049 14.5584 13.9031C14.5483 13.9014 14.5383 13.9004 14.5281 13.8993C14.5177 13.8982 14.5074 13.8969 14.4969 13.8962C14.4845 13.8954 14.4721 13.8953 14.4597 13.8952C14.4514 13.8951 14.4431 13.8947 14.4349 13.895C14.3926 13.8962 14.3508 13.9014 14.3099 13.9104C14.3017 13.9123 14.2938 13.9147 14.2858 13.9168C14.2741 13.9199 14.2624 13.9229 14.251 13.9267C14.241 13.9299 14.2313 13.9336 14.2216 13.9373C14.2125 13.9408 14.2034 13.9442 14.1944 13.9481C14.1841 13.9526 14.1741 13.9575 14.164 13.9625C14.1593 13.9648 14.1543 13.9668 14.1497 13.9692L8.40072 17.0176C8.16225 17.144 8.03528 17.4069 8.08204 17.677C8.11237 17.8528 8.21207 18.0076 8.35263 18.1119C8.42825 18.168 8.51573 18.2094 8.61067 18.2316L15.1507 19.759C15.1562 19.7602 15.1616 19.7609 15.167 19.762C15.1781 19.7643 15.1893 19.7665 15.2005 19.7683C15.2106 19.7699 15.2205 19.771 15.2305 19.7721C15.241 19.7733 15.2514 19.7746 15.262 19.7752C15.2742 19.776 15.2866 19.7761 15.2988 19.7762C15.3072 19.7763 15.3156 19.7767 15.324 19.7764C15.3661 19.7752 15.408 19.7701 15.4488 19.761C15.4572 19.7591 15.4653 19.7566 15.4736 19.7545C15.485 19.7515 15.4964 19.7485 15.5077 19.7449C15.5178 19.7416 15.5275 19.7378 15.5374 19.7341C15.5464 19.7307 15.5554 19.7274 15.5643 19.7235C15.5746 19.719 15.5848 19.714 15.5949 19.709C15.5995 19.7067 15.6045 19.7048 15.6091 19.7023L21.3581 16.654C21.5967 16.5275 21.7237 16.2647 21.6769 15.9945ZM10.5944 17.366L13.9927 15.5641L14.4603 18.2688L10.5944 17.366ZM15.7662 18.1073L15.2985 15.4026L19.1644 16.3054L15.7662 18.1073Z" stroke="#343434" stroke-width="0.5"/>
</svg>
