<svg width="30" height="30" viewBox="0 0 30 30" fill="none" xmlns="http://www.w3.org/2000/svg">
<path d="M27 4H3C1.35 4 0 5.29375 0 6.875V24.125C0 25.7062 1.35 27 3 27H27C28.65 27 30 25.7062 30 24.125V6.875C30 5.29375 28.65 4 27 4ZM27 24.125H3V6.875H27V24.125ZM13.5 18.5187H6V21.1062H13.5V18.5187ZM13.5 14.2063H6V16.7937H13.5V14.2063ZM13.5 9.89375H6V12.4812H13.5V9.89375ZM23.85 19.0938C23.85 19.0938 21.3 18.4543 21.3 17.1994C21.3 16.0031 22.95 15.5 22.95 13.0562C22.95 11.0716 22.3206 9.89375 20.25 9.89375C18.1788 9.89375 17.55 11.0716 17.55 13.0562C17.55 15.5 19.1994 16.0031 19.1994 17.1994C19.1994 18.4543 16.65 19.0938 16.65 19.0938C16.5 19.0938 16.5 21.1062 16.5 21.1062H24C24 21.1062 24 19.0938 23.85 19.0938Z" fill="#343434"/>
</svg>
