<svg width="30" height="32" viewBox="0 0 30 32" fill="none" xmlns="http://www.w3.org/2000/svg">
<path d="M19.3068 6.24675H5.36045C4.05182 6.24675 2.98895 7.30962 2.98895 8.61824V28.6285C2.98895 29.9371 4.05182 31 5.36045 31H19.3068C20.6154 31 21.6783 29.9371 21.6783 28.6285V8.61824C21.6721 7.30962 20.6093 6.24675 19.3068 6.24675ZM20.0133 28.6223C20.0133 29.0155 19.6938 29.335 19.3006 29.335H5.3543C4.9611 29.335 4.64163 29.0155 4.64163 28.6223V8.61824C4.64163 8.22504 4.9611 7.90557 5.3543 7.90557H19.3006C19.6938 7.90557 20.0133 8.22504 20.0133 8.61824V28.6223Z" fill="#343434"/>
<path d="M24.6396 1H10.6932C9.38462 1 8.32175 2.06287 8.32175 3.37149C8.32175 3.83228 8.69037 4.2009 9.15115 4.2009C9.61194 4.2009 9.98056 3.83228 9.98056 3.37149C9.98056 2.97829 10.3 2.65882 10.6932 2.65882H24.6396C25.0328 2.65882 25.3523 2.97829 25.3523 3.37149V23.3817C25.3523 23.7749 25.0328 24.0944 24.6396 24.0944C24.1788 24.0944 23.8102 24.463 23.8102 24.9238C23.8102 25.3846 24.1788 25.7532 24.6396 25.7532C25.9482 25.7532 27.0111 24.6904 27.0111 23.3817V3.37149C27.0111 2.06287 25.9482 1 24.6396 1Z" fill="#343434"/>
<path d="M19.3068 6.24675H5.36045C4.05182 6.24675 2.98895 7.30962 2.98895 8.61824V28.6285C2.98895 29.9371 4.05182 31 5.36045 31H19.3068C20.6154 31 21.6783 29.9371 21.6783 28.6285V8.61824C21.6721 7.30962 20.6093 6.24675 19.3068 6.24675ZM20.0133 28.6223C20.0133 29.0155 19.6938 29.335 19.3006 29.335H5.3543C4.9611 29.335 4.64163 29.0155 4.64163 28.6223V8.61824C4.64163 8.22504 4.9611 7.90557 5.3543 7.90557H19.3006C19.6938 7.90557 20.0133 8.22504 20.0133 8.61824V28.6223Z" stroke="#343434" stroke-width="0.5"/>
<path d="M24.6396 1H10.6932C9.38462 1 8.32175 2.06287 8.32175 3.37149C8.32175 3.83228 8.69037 4.2009 9.15115 4.2009C9.61194 4.2009 9.98056 3.83228 9.98056 3.37149C9.98056 2.97829 10.3 2.65882 10.6932 2.65882H24.6396C25.0328 2.65882 25.3523 2.97829 25.3523 3.37149V23.3817C25.3523 23.7749 25.0328 24.0944 24.6396 24.0944C24.1788 24.0944 23.8102 24.463 23.8102 24.9238C23.8102 25.3846 24.1788 25.7532 24.6396 25.7532C25.9482 25.7532 27.0111 24.6904 27.0111 23.3817V3.37149C27.0111 2.06287 25.9482 1 24.6396 1Z" stroke="#343434" stroke-width="0.5"/>
</svg>
