<svg width="30" height="30" viewBox="0 0 30 30" fill="none" xmlns="http://www.w3.org/2000/svg">
<path d="M25.6065 5.56377C22.7734 2.73164 19.0066 1.17188 15 1.17188C10.9934 1.17188 7.2266 2.73164 4.39348 5.56377C1.56029 8.39607 0 12.1618 0 16.1673C0 19.1767 0.88875 22.08 2.5701 24.5633L4.51078 23.2492C3.09311 21.1554 2.34375 18.7065 2.34375 16.1673C2.34375 9.19113 8.02131 3.51562 15 3.51562C21.9787 3.51562 27.6562 9.19113 27.6562 16.1673C27.6562 18.7065 26.9069 21.1554 25.4892 23.2492L27.4299 24.5633C29.1112 22.08 30 19.1767 30 16.1673C30 12.1618 28.4397 8.39607 25.6065 5.56377Z" fill="#343434"/>
<path d="M15 8.20312C15.6472 8.20312 16.1719 7.67846 16.1719 7.03125C16.1719 6.38404 15.6472 5.85938 15 5.85938C14.3528 5.85938 13.8281 6.38404 13.8281 7.03125C13.8281 7.67846 14.3528 8.20312 15 8.20312Z" fill="#343434"/>
<path d="M5.85938 17.3438C6.50658 17.3438 7.03125 16.8191 7.03125 16.1719C7.03125 15.5247 6.50658 15 5.85938 15C5.21217 15 4.6875 15.5247 4.6875 16.1719C4.6875 16.8191 5.21217 17.3438 5.85938 17.3438Z" fill="#343434"/>
<path d="M8.55469 10.8984C9.2019 10.8984 9.72656 10.3738 9.72656 9.72656C9.72656 9.07935 9.2019 8.55469 8.55469 8.55469C7.90748 8.55469 7.38281 9.07935 7.38281 9.72656C7.38281 10.3738 7.90748 10.8984 8.55469 10.8984Z" fill="#343434"/>
<path d="M24.1406 17.3438C24.7878 17.3438 25.3125 16.8191 25.3125 16.1719C25.3125 15.5247 24.7878 15 24.1406 15C23.4934 15 22.9688 15.5247 22.9688 16.1719C22.9688 16.8191 23.4934 17.3438 24.1406 17.3438Z" fill="#343434"/>
<path d="M22.8892 9.94002L21.2319 8.2827L15.2062 14.3084C15.1384 14.301 15.0697 14.2969 15 14.2969C13.9645 14.2969 13.125 15.1363 13.125 16.1719C13.125 17.2074 13.9645 18.0469 15 18.0469C16.0355 18.0469 16.875 17.2074 16.875 16.1719C16.875 16.1022 16.8709 16.0335 16.8635 15.9657L22.8892 9.94002Z" fill="#343434"/>
<path d="M8.55469 21.7969V28.8281H21.4453V21.7969H8.55469ZM19.1016 26.4844H10.8984V24.1406H19.1016V26.4844Z" fill="#343434"/>
</svg>
