<svg width="30" height="30" viewBox="0 0 30 30" fill="none" xmlns="http://www.w3.org/2000/svg">
<path d="M30 19.8606L28.3437 18.2043L24.1273 22.4207L19.9109 18.2043L18.2545 19.8606L22.4709 24.077L18.2545 28.2934L19.9109 29.9497L24.1273 25.7333L28.3437 29.9497L30 28.2934L25.7836 24.077L30 19.8606Z" fill="#343434"/>
<path d="M14.9917 0.0083313C10.2127 0.0083313 6.32461 3.89638 6.32461 8.6754C6.32461 11.6356 7.8167 14.2534 10.0879 15.8176C7.96734 16.5493 6.02379 17.7581 4.39096 19.3909C1.55941 22.2226 0 25.9873 0 29.9917H2.34246C2.34246 23.0169 8.01686 17.3425 14.9917 17.3425C19.7707 17.3425 23.6588 13.4545 23.6588 8.6754C23.6588 3.89638 19.7707 0.0083313 14.9917 0.0083313ZM14.9917 15C11.5043 15 8.66707 12.1628 8.66707 8.6754C8.66707 5.18796 11.5043 2.35079 14.9917 2.35079C18.4791 2.35079 21.3163 5.18796 21.3163 8.6754C21.3163 12.1628 18.4791 15 14.9917 15Z" fill="#343434"/>
</svg>
