<svg width="31" height="31" viewBox="0 0 31 31" fill="none" xmlns="http://www.w3.org/2000/svg">
<path d="M28.75 19.66L24.53 23.87L28.75 28.09L27.09 29.75L22.87 25.53L18.66 29.75L17 28.09L21.22 23.87L17 19.66L18.66 18L22.87 22.22L27.09 18L28.75 19.66ZM18.0374 13.592C18.1404 14.0555 18.1953 14.5371 18.1953 15.0312C18.1953 17.0557 17.2816 18.8707 15.8454 20.0861C15.8864 20.1024 15.9278 20.1181 15.9688 20.1349V22.7247C14.714 22.041 13.2766 21.6523 11.75 21.6523V21.6501C11.7305 21.6505 11.7109 21.6505 11.6914 21.651V21.6523C6.81279 21.6523 2.84375 25.6214 2.84375 30.5H0.5C0.5 25.8493 3.35187 21.8526 7.39827 20.1653C5.9071 18.9504 4.95312 17.1001 4.95312 15.0312C4.95312 11.3804 7.92332 8.41016 11.5742 8.41016C12.0082 8.41016 12.4323 8.4525 12.8431 8.53261C12.7415 8.07301 12.6875 7.59579 12.6875 7.10622C12.6875 3.46356 15.6511 0.5 19.2937 0.5C22.9364 0.5 25.8999 3.46356 25.8999 7.10622C25.8999 9.15082 24.9661 10.9814 23.5029 12.194C25.4371 12.9622 27.1043 14.2517 28.3254 15.9102H25.1703C23.7143 14.6197 21.8318 13.8008 19.7636 13.6955C19.6082 13.7065 19.4516 13.7124 19.2937 13.7124C18.8641 13.7124 18.4441 13.6708 18.0374 13.592ZM15.0312 7.10622C15.0312 9.4566 16.9433 11.3687 19.2937 11.3687C21.6439 11.3687 23.5562 9.4566 23.5562 7.10622C23.5562 4.75583 21.6439 2.84375 19.2937 2.84375C16.9433 2.84375 15.0312 4.75583 15.0312 7.10622ZM15.8516 15.0312C15.8516 12.6726 13.9328 10.7539 11.5742 10.7539C9.21559 10.7539 7.29688 12.6726 7.29688 15.0312C7.29688 17.3899 9.21559 19.3086 11.5742 19.3086C13.9328 19.3086 15.8516 17.3899 15.8516 15.0312Z" fill="#343434"/>
</svg>
