<svg width="30" height="30" viewBox="0 0 30 30" fill="none" xmlns="http://www.w3.org/2000/svg">
<path d="M3.42246 6.66667L5.64565 27.8635C5.64565 29.0448 6.87971 30 8.4058 30H21.6884C23.2145 30 24.4485 29.0448 24.4485 27.8635L26.6435 6.66667H3.42246ZM9.22536 25.9896L8.5942 9H10.337L10.987 25.9896H9.22536ZM15.8478 25.9896H14.1522V9H15.8478V25.9896ZM20.7746 25.9896H19.0225L19.663 9H21.4058L20.7746 25.9896ZM25.1739 4.04167H21.7826L19.3051 2.36458C18.9565 2.13125 18.5138 2 18.0616 2H11.9572C11.4957 2 11.0435 2.13125 10.6949 2.36458L8.21739 4.04167H4.82609C3.16812 4.04167 2 4.65417 2 5.9375H28C28 4.65417 26.8319 4.04167 25.1739 4.04167Z" fill="#343434"/>
</svg>
