<svg width="26" height="30" viewBox="0 0 26 30" fill="none" xmlns="http://www.w3.org/2000/svg">
<path d="M1.42246 5.66667L3.64565 26.8635C3.64565 28.0448 4.87971 29 6.4058 29H19.6884C21.2145 29 22.4485 28.0448 22.4485 26.8635L24.6435 5.66667H1.42246ZM7.22536 24.9896L6.5942 8H8.33696L8.98696 24.9896H7.22536ZM13.8478 24.9896H12.1522V8H13.8478V24.9896ZM18.7746 24.9896H17.0225L17.663 8H19.4058L18.7746 24.9896ZM23.1739 3.04167H19.7826L17.3051 1.36458C16.9565 1.13125 16.5138 1 16.0616 1H9.95725C9.49565 1 9.04348 1.13125 8.69493 1.36458L6.21739 3.04167H2.82609C1.16812 3.04167 0 3.65417 0 4.9375H26C26 3.65417 24.8319 3.04167 23.1739 3.04167Z" fill="#343434"/>
</svg>
