<svg width="30" height="30" viewBox="0 0 30 30" fill="none" xmlns="http://www.w3.org/2000/svg">
<path d="M2.0377 13.2331C1.44869 14.1227 1.15456 15.102 1.15456 16.1717C1.15456 17.4098 1.61078 18.4851 2.52398 19.3995C3.43762 20.3128 4.51942 20.7694 5.76924 20.7694L8.94233 20.7694C8.36556 21.9592 8.07668 23.1132 8.07668 24.2308C8.07668 25.6371 8.28758 26.7547 8.70787 27.5841C9.1286 28.4137 9.74168 29.0235 10.547 29.4143C11.3526 29.8049 12.2597 30 13.2693 30C13.8825 30 14.4232 29.7777 14.8919 29.3328C15.4086 28.8281 15.7812 28.1789 16.0095 27.3856C16.2379 26.5926 16.4213 25.8323 16.5594 25.1051C16.6975 24.378 16.911 23.8642 17.1993 23.5637C17.7884 22.9267 18.4313 22.1573 19.1285 21.256C20.3424 19.6816 21.1658 18.7501 21.5982 18.4615H26.5379C27.1749 18.4615 27.7189 18.2358 28.1696 17.7855C28.6201 17.3347 28.8456 16.7908 28.8456 16.1537L28.8456 4.61575C28.8456 3.97869 28.6204 3.43501 28.1696 2.98422C27.7186 2.53343 27.1749 2.30788 26.5379 2.30788H21.3461C21.0817 2.30788 20.2525 2.06755 18.8583 1.58676C17.3799 1.06986 16.0788 0.676342 14.9552 0.40583C13.8314 0.135319 12.6926 0 11.5387 0H9.86247H9.21309C7.51854 0 6.15449 0.484066 5.12075 1.4517C4.08738 2.41933 3.57635 3.73836 3.58822 5.40898C2.86711 6.33449 2.50662 7.40416 2.50662 8.61793C2.50662 8.88219 2.52436 9.14058 2.56061 9.39322C2.10407 10.1982 1.87523 11.0636 1.87523 11.9891C1.87542 12.4218 1.92941 12.8367 2.0377 13.2331ZM24.5728 4.95806C24.8011 4.72986 25.0715 4.61531 25.384 4.61531C25.6966 4.61531 25.967 4.72979 26.1954 4.95806C26.4237 5.1862 26.5379 5.45671 26.5379 5.76947C26.5379 6.08191 26.4239 6.35223 26.1954 6.58069C25.9668 6.80909 25.6966 6.92325 25.384 6.92325C25.0715 6.92325 24.8011 6.80909 24.5728 6.58069C24.3444 6.3523 24.2302 6.08197 24.2302 5.76947C24.2302 5.45671 24.3444 5.1862 24.5728 4.95806ZM3.84895 14.6925C4.1074 14.1397 4.429 13.8573 4.81355 13.8454C4.63333 13.641 4.48298 13.3553 4.36276 12.9891C4.24266 12.6224 4.18298 12.289 4.18298 11.9883C4.18298 11.1594 4.50104 10.4441 5.13811 9.84338C4.92152 9.45895 4.81348 9.04409 4.81348 8.59962C4.81348 8.15489 4.9185 7.71319 5.12896 7.27459C5.33904 6.83636 5.6247 6.52077 5.98513 6.32855C5.92508 5.96806 5.89528 5.63144 5.89528 5.31899C5.89528 3.31194 7.04919 2.30838 9.35706 2.30838H11.5378C13.1127 2.30838 15.1676 2.7468 17.7038 3.62438C17.764 3.64838 17.938 3.71171 18.2266 3.81369C18.5153 3.91567 18.7285 3.99087 18.8668 4.0388C19.0051 4.08723 19.2152 4.15631 19.4979 4.24623C19.7804 4.33659 20.0085 4.40277 20.1829 4.44463C20.3571 4.48656 20.5555 4.52565 20.7777 4.56177C20.9999 4.59782 21.1893 4.61575 21.3455 4.61575H21.9224L21.9224 16.1533H21.3455C21.1533 16.1533 20.94 16.2075 20.7056 16.3155C20.4712 16.4237 20.2307 16.5859 19.9844 16.8023C19.7379 17.0187 19.5068 17.232 19.2903 17.4425C19.0739 17.6527 18.8336 17.9171 18.5691 18.2355C18.3047 18.5541 18.0974 18.8094 17.947 19.0018C17.7969 19.194 17.6076 19.4406 17.3792 19.741C17.151 20.0414 17.0126 20.2217 16.9646 20.2819C16.3036 21.0991 15.8409 21.6459 15.5765 21.9225C15.0837 22.4391 14.7262 23.0971 14.5039 23.8964C14.2813 24.6958 14.098 25.45 13.9543 26.159C13.8102 26.8681 13.5816 27.3791 13.2687 27.6916C12.1152 27.6916 11.3457 27.4092 10.9613 26.8443C10.5768 26.2794 10.3845 25.408 10.3845 24.2301C10.3845 23.5211 10.6732 22.5566 11.2502 21.3368C11.827 20.1168 12.1152 19.1583 12.1152 18.4612L5.76943 18.4612C5.16785 18.4612 4.63327 18.23 4.16473 17.767C3.69582 17.3044 3.46111 16.7666 3.46111 16.1535C3.4613 15.7329 3.59056 15.246 3.84895 14.6925Z" fill="#343434"/>
</svg>
