<svg width="32" height="32" viewBox="0 0 32 32" fill="none" xmlns="http://www.w3.org/2000/svg">
<path d="M5.2844 5.28439C2.92197 7.64682 2.84795 11.4167 5.11935 13.6881L5.23322 13.802C6.38197 14.9508 8.40562 15.6044 11.248 15.7447C13.3085 15.8464 15.028 15.6346 15.1002 15.6255L15.5669 15.5669L15.6256 15.1002C15.6346 15.028 15.8465 13.3085 15.7447 11.248C15.6044 8.40564 14.9508 6.38199 13.802 5.23323L13.6882 5.11936C11.4167 2.84794 7.64683 2.92196 5.2844 5.28439ZM12.9661 6.0692C14.9074 8.01054 14.6558 12.9622 14.5224 14.5224C12.9617 14.6558 8.0104 14.9072 6.06921 12.9661L5.95534 12.8522C4.12713 11.024 4.18673 7.98963 6.08818 6.08818C7.98964 4.18672 11.024 4.12713 12.8522 5.95533L12.9661 6.0692Z" fill="#343434" stroke="#343434"/>
<path d="M5.28439 26.7156C7.64682 29.078 11.4167 29.1521 13.6881 26.8807L13.802 26.7668C14.9508 25.618 15.6044 23.5944 15.7447 20.752C15.8464 18.6915 15.6346 16.972 15.6255 16.8998L15.5669 16.4331L15.1002 16.3744C15.028 16.3654 13.3085 16.1535 11.248 16.2553C8.40564 16.3956 6.38199 17.0492 5.23323 18.198L5.11936 18.3118C2.84794 20.5833 2.92196 24.3532 5.28439 26.7156ZM6.0692 19.0339C8.01054 17.0926 12.9622 17.3442 14.5224 17.4776C14.6558 19.0383 14.9072 23.9896 12.9661 25.9308L12.8522 26.0447C11.024 27.8729 7.98963 27.8133 6.08818 25.9118C4.18672 24.0104 4.12713 20.976 5.95533 19.1478L6.0692 19.0339Z" fill="#343434" stroke="#343434"/>
<path d="M26.7156 5.2844C24.3532 2.92197 20.5833 2.84795 18.3119 5.11935L18.198 5.23322C17.0492 6.38197 16.3956 8.40562 16.2553 11.248C16.1536 13.3085 16.3654 15.028 16.3745 15.1002L16.4331 15.5669L16.8998 15.6256C16.972 15.6346 18.6915 15.8465 20.752 15.7447C23.5944 15.6044 25.618 14.9508 26.7668 13.802L26.8806 13.6882C29.1521 11.4167 29.078 7.64683 26.7156 5.2844ZM25.9308 12.9661C23.9895 14.9074 19.0378 14.6558 17.4776 14.5224C17.3442 12.9617 17.0928 8.0104 19.0339 6.06921L19.1478 5.95534C20.976 4.12713 24.0104 4.18673 25.9118 6.08818C27.8133 7.98964 27.8729 11.024 26.0447 12.8522L25.9308 12.9661Z" fill="#343434" stroke="#343434"/>
<path d="M26.7156 26.7156C29.078 24.3532 29.1521 20.5833 26.8807 18.3119L26.7668 18.198C25.618 17.0492 23.5944 16.3956 20.752 16.2553C18.6915 16.1536 16.972 16.3654 16.8998 16.3745L16.4331 16.4331L16.3744 16.8998C16.3654 16.972 16.1535 18.6915 16.2553 20.752C16.3956 23.5944 17.0492 25.618 18.198 26.7668L18.3118 26.8806C20.5833 29.1521 24.3532 29.078 26.7156 26.7156ZM19.0339 25.9308C17.0926 23.9895 17.3442 19.0378 17.4776 17.4776C19.0383 17.3442 23.9896 17.0928 25.9308 19.0339L26.0447 19.1478C27.8729 20.976 27.8133 24.0104 25.9118 25.9118C24.0104 27.8133 20.976 27.8729 19.1478 26.0447L19.0339 25.9308Z" fill="#343434" stroke="#343434"/>
</svg>
