<svg width="30" height="30" viewBox="0 0 30 30" fill="none" xmlns="http://www.w3.org/2000/svg">
<path d="M22.4156 13.6744C22.2637 13.3388 21.93 13.125 21.5625 13.125H17.8125V0.9375C17.8125 0.42 17.3925 0 16.875 0H13.125C12.6075 0 12.1875 0.42 12.1875 0.9375V13.125H8.43749C8.06999 13.125 7.73624 13.3406 7.58437 13.6744C7.43062 14.01 7.49062 14.4019 7.73249 14.6794L14.295 22.1794C14.4731 22.3838 14.73 22.5 15 22.5C15.27 22.5 15.5269 22.3819 15.705 22.1794L22.2675 14.6794C22.5112 14.4037 22.5675 14.01 22.4156 13.6744Z" fill="#343434"/>
<path d="M25.3125 20.625V26.25H4.6875V20.625H0.9375V28.125C0.9375 29.1619 1.7775 30 2.8125 30H27.1875C28.2244 30 29.0625 29.1619 29.0625 28.125V20.625H25.3125Z" fill="#343434"/>
</svg>
