<svg width="32" height="32" viewBox="0 0 32 32" fill="none" xmlns="http://www.w3.org/2000/svg">
<path d="M29.1205 8.8022C29.8694 7.09991 29.4921 5.11223 28.1716 3.80272C26.8511 2.49322 24.8603 2.13256 23.1643 2.8956C19.7311 1.03197 15.7047 0.586416 11.947 1.65429L11.9463 1.65469C8.25863 2.69512 5.11476 5.1186 3.16999 8.42C3.13491 8.47988 3.11277 8.54644 3.10499 8.6154C2.86632 8.93266 2.66776 9.27819 2.51384 9.64415L2.47674 9.72415C1.56058 11.7037 1.0857 13.8587 1.08499 16.04C1.08513 17.4572 1.28759 18.8672 1.68624 20.2272C1.34612 21.3709 1.47542 22.6029 2.04557 23.6511C2.61573 24.6993 3.57979 25.4772 4.72474 25.8131C7.02724 28.4884 10.204 30.2603 13.69 30.8137C17.332 31.3949 21.0603 30.6062 24.155 28.6C25.9812 29.425 28.1329 28.9414 29.4304 27.4144C30.728 25.8874 30.858 23.6858 29.7492 22.0167C31.6156 17.7556 31.383 12.867 29.1205 8.8022ZM25 7.5C24.4477 7.5 24 7.05229 24 6.5C24 5.94771 24.4477 5.5 25 5.5C25.5523 5.5 26 5.94771 26 6.5C25.9994 7.05206 25.5521 7.49945 25 7.5ZM23.99 8.21645C24.6101 8.59452 25.3894 8.59452 26.0095 8.21645C26.6147 8.4877 27.0892 8.98561 27.3311 9.6031C26.0069 10.799 23.9926 10.799 22.6683 9.6031C22.9103 8.98556 23.385 8.48765 23.9902 8.21645H23.99ZM28.5 7C28.4998 7.61437 28.3367 8.21772 28.0273 8.7485C27.719 8.21513 27.2744 7.77336 26.739 7.4685C26.9079 7.1735 26.9978 6.83991 27 6.5C27 5.39543 26.1046 4.5 25 4.5C23.8954 4.5 23 5.39543 23 6.5C23.0022 6.83983 23.0921 7.17333 23.2609 7.46825C22.7256 7.77311 22.281 8.21488 21.9726 8.74825C21.2367 7.47452 21.3762 5.87648 22.3218 4.74955C23.2673 3.62263 24.8168 3.20761 26.199 3.71109C27.5812 4.21456 28.5008 5.52895 28.5 7ZM16.04 2.08499C18.1655 2.08539 20.2628 2.57076 22.1723 3.50415C21.2605 4.24117 20.6727 5.30523 20.5342 6.46945C20.112 6.28578 19.6483 6.21876 19.1914 6.2754C18.8558 6.33731 18.53 6.44414 18.2229 6.593C18.0269 6.68566 17.8233 6.76114 17.6142 6.8186C17.4138 6.86449 17.2034 6.83127 17.0268 6.72585C16.9533 6.6731 16.9494 6.6316 16.948 6.61585C16.9365 6.48585 17.0996 6.32535 17.3493 6.0951C17.656 5.85284 17.8976 5.53804 18.0522 5.1791C18.2576 4.47191 17.954 3.71585 17.3166 3.34705C16.7112 3.01351 16.0077 2.90357 15.3293 3.0365C15.0914 3.06402 14.8518 3.07536 14.6123 3.07045C14.0146 3.03789 13.4442 2.80929 12.9895 2.42C13.9909 2.19636 15.0139 2.08401 16.04 2.08499ZM11.8914 2.7177C12.5514 3.52667 13.5234 4.01794 14.5661 4.0696C14.8517 4.07717 15.1374 4.06468 15.4211 4.03225C15.8807 3.92771 16.3623 3.98478 16.7846 4.19385C17.0206 4.32045 17.1508 4.58237 17.1091 4.8469C17.0005 5.04624 16.8516 5.22083 16.6719 5.3596C16.2249 5.66251 15.9556 6.16607 15.9519 6.70605C15.9855 7.04227 16.1653 7.34669 16.4436 7.53835C16.856 7.81151 17.3626 7.90306 17.8445 7.7915C18.1115 7.72159 18.3715 7.62745 18.6213 7.51025C18.8483 7.39851 19.0886 7.31607 19.3363 7.2649C19.7637 7.23442 20.1888 7.34892 20.5429 7.5899C20.6441 8.35594 20.9422 9.08267 21.4079 9.6992C21.3661 9.7242 21.3252 9.75045 21.2834 9.7752C21.1493 9.85455 21.019 9.9322 20.8652 10.0382C20.3131 10.4565 19.708 10.7999 19.0658 11.0596C18.823 11.1409 18.5757 11.2082 18.3251 11.2611C17.8034 11.3518 17.3018 11.5343 16.8437 11.8C15.925 12.3933 16.0373 13.3423 16.1076 13.9128C16.0915 13.9075 16.0735 13.9009 16.0539 13.8923C15.968 13.8573 15.8839 13.8173 15.801 13.7781C15.284 13.4293 14.6143 13.4026 14.0711 13.7089C13.5278 14.0152 13.2042 14.6021 13.235 15.225C13.235 16.4113 14.1156 17.1027 14.8231 17.6586L15.0697 17.8542C15.2263 17.9974 15.3671 18.157 15.4897 18.3302C14.4841 18.0773 13.4782 17.8285 12.4721 17.5839C11.6261 17.3796 10.7707 17.1274 10.4216 16.5014C10.2877 16.2176 10.1973 15.9153 10.1535 15.6047C10.0903 15.1119 9.91715 14.6397 9.64689 14.2228C9.13335 13.65 8.44145 13.2674 7.68329 13.1369L7.59244 13.1108C6.84369 12.8879 6.43184 12.6196 6.29744 12.2677C6.21397 11.8114 6.28846 11.3403 6.50864 10.9321C6.79129 10.3442 6.88558 9.68341 6.77864 9.03995C6.66656 8.54626 6.33657 8.13006 5.88144 7.90835C5.54862 7.75972 5.18233 7.70204 4.81994 7.7412C6.57797 5.35228 9.05689 3.59128 11.8914 2.7177ZM2.08499 16.04C2.08556 14.0047 2.52846 11.9938 3.38304 10.1465L3.42064 10.0657C3.5565 9.70663 3.75941 9.37671 4.01854 9.0935C4.11018 9.00121 4.21885 8.92758 4.33854 8.8767C4.68322 8.70296 5.08416 8.67852 5.44739 8.8091C5.63622 8.90414 5.77038 9.08128 5.81069 9.2888C5.8547 9.73619 5.77116 10.1869 5.56974 10.5888C5.25099 11.2181 5.17738 11.9433 5.36319 12.6238C5.69864 13.5005 6.63319 13.8688 7.31189 14.0706L7.40884 14.0984C7.94935 14.1848 8.4501 14.4357 8.84289 14.8169C9.02047 15.1179 9.13295 15.4528 9.17309 15.8C9.2349 16.2135 9.36162 16.6147 9.54859 16.9887C10.0945 17.967 11.2229 18.3108 12.2368 18.5559C13.3257 18.8205 14.4146 19.0902 15.5036 19.365C15.7229 19.4367 15.9598 19.4337 16.1772 19.3567C16.4306 19.2581 16.612 19.0317 16.6528 18.7629C16.7673 18.0049 15.7204 17.0945 15.7046 17.0813L15.4409 16.8723C14.8208 16.3853 14.235 15.925 14.235 15.22C14.2291 14.9248 14.3991 14.6543 14.6676 14.5316C14.8561 14.4527 15.0104 14.5108 15.3739 14.6822C15.473 14.7291 15.5734 14.776 15.6652 14.8136C16.0532 15.0224 16.5308 14.9631 16.8561 14.6658C17.0684 14.4309 17.159 14.1104 17.1011 13.7991C17.0188 13.1324 17.0496 12.8573 17.3867 12.6397C17.7495 12.4402 18.1434 12.3032 18.5517 12.2347C18.8405 12.1734 19.1253 12.0951 19.4048 12.0001C20.1416 11.706 20.8357 11.3146 21.4687 10.8365C21.5687 10.7679 21.6794 10.7028 21.7929 10.6356C21.8934 10.5761 22.0006 10.5117 22.1079 10.4423C23.0362 11.2257 24.2424 11.5992 25.4509 11.4773C26.6595 11.3555 27.7669 10.7487 28.52 9.7957C30.3002 13.3446 30.4832 17.4841 29.0231 21.1763C27.7835 20.0425 26.0145 19.6958 24.4386 20.2778C22.8626 20.8598 21.7437 22.2731 21.5386 23.9405C21.3613 23.7638 21.1845 23.5864 21.0063 23.4043C20.3168 22.7513 19.5224 22.2189 18.6563 21.8293C17.3917 21.2234 16.2823 21.2805 15.6116 21.987C15.2996 22.3565 15.0511 22.7753 14.8763 23.2263C14.7869 23.4243 14.6995 23.6194 14.6024 23.7898C14.4247 24.122 14.1828 24.4156 13.8907 24.6535C13.7593 24.745 13.6191 24.8232 13.4722 24.8869C13.1676 25.0119 12.8911 25.1965 12.6589 25.43C12.4048 25.7461 12.2376 26.1232 12.1739 26.5238C12.1392 26.7024 12.0849 26.8767 12.012 27.0435C11.774 27.4412 11.6377 27.8914 11.6151 28.3543C11.6218 28.7111 11.7243 29.0596 11.912 29.3631C9.78311 28.7067 7.84285 27.549 6.25424 25.9872C8.34207 25.8721 10.0751 24.3331 10.4361 22.2735C10.7972 20.2139 9.69092 18.1772 7.76673 17.3588C5.84253 16.5404 3.60813 17.1563 2.37499 18.845C2.18397 17.9222 2.08681 16.9824 2.08499 16.04ZM5.99999 22C5.44771 22 4.99999 21.5523 4.99999 21C4.99999 20.4477 5.44771 20 5.99999 20C6.55228 20 6.99999 20.4477 6.99999 21C6.99944 21.5521 6.55205 21.9995 5.99999 22ZM4.99024 22.7165C5.61033 23.0945 6.38966 23.0945 7.00974 22.7165C7.61492 22.9877 8.08949 23.4856 8.33139 24.1031C7.00716 25.299 4.99283 25.299 3.66859 24.1031C3.9105 23.4856 4.38506 22.9877 4.99024 22.7165ZM5.99999 18C7.25093 17.9978 8.4076 18.6645 9.03262 19.7481C9.65765 20.8317 9.65563 22.1668 9.02734 23.2485C8.71903 22.7151 8.27439 22.2734 7.73904 21.9685C7.90792 21.6735 7.9978 21.3399 7.99999 21C7.99999 19.8954 7.10456 19 5.99999 19C4.89542 19 3.99999 19.8954 3.99999 21C4.00222 21.3398 4.09211 21.6733 4.26094 21.9683C3.72559 22.2731 3.28096 22.7149 2.97264 23.2483C2.34448 22.1666 2.34253 20.8316 2.96754 19.7481C3.59255 18.6645 4.74913 17.9978 5.99999 18ZM16.04 30C15.3347 29.9996 14.6305 29.9449 13.9336 29.8365C13.7409 29.7293 13.554 29.612 13.3736 29.4851C12.9695 29.2332 12.6932 28.8198 12.615 28.35C12.6435 28.0492 12.7412 27.759 12.9004 27.5021C13.012 27.2642 13.0946 27.0137 13.1462 26.756C13.1788 26.5214 13.2654 26.2975 13.3991 26.102C13.5471 25.9677 13.7182 25.8614 13.9041 25.7883C14.1132 25.6961 14.3118 25.5822 14.4969 25.4483C14.8954 25.1303 15.226 24.7357 15.4691 24.2876C15.5867 24.0811 15.6888 23.856 15.7872 23.6382C15.9208 23.2908 16.1064 22.9657 16.3377 22.6741C16.8363 22.148 17.8227 22.5383 18.2222 22.73C18.9829 23.0716 19.6822 23.5359 20.2922 24.1043C20.7189 24.5403 21.1422 24.9636 21.5857 25.3693C21.7934 26.4152 22.3656 27.3535 23.2004 28.017C21.038 29.316 18.5626 30.0015 16.04 30ZM23.6685 27.1031C23.9104 26.4856 24.385 25.9877 24.9902 25.7165C25.6103 26.0945 26.3896 26.0945 27.0097 25.7165C27.6149 25.9877 28.0894 26.4856 28.3313 27.1031C27.0071 28.299 24.9928 28.299 23.6685 27.1031ZM26 25C25.4477 25 25 24.5523 25 24C25 23.4477 25.4477 23 26 23C26.5523 23 27 23.4477 27 24C26.9994 24.5521 26.5521 24.9995 26 25ZM29.0273 26.2485C28.719 25.7152 28.2744 25.2734 27.739 24.9685C27.9079 24.6735 27.9978 24.3399 28 24C28 22.8954 27.1046 22 26 22C24.8954 22 24 22.8954 24 24C24.0022 24.3398 24.0921 24.6733 24.2609 24.9683C23.7256 25.2731 23.281 25.7149 22.9726 26.2483C22.1193 24.7775 22.4465 22.9062 23.7483 21.8123C25.0501 20.7183 26.9498 20.7183 28.2517 21.8123C29.5535 22.9062 29.8807 24.7775 29.0273 26.2483V26.2485Z" fill="#343434" stroke="#343434" stroke-width="0.5"/>
</svg>
