<svg width="30" height="30" viewBox="0 0 30 30" fill="none" xmlns="http://www.w3.org/2000/svg">
<path d="M29.3457 10.9386C28.9495 10.7717 28.4934 10.8639 28.1906 11.172L24.3816 15.0387V4.07623C24.3816 3.48229 23.9066 3 23.3216 3H7.42049C6.83547 3 6.36042 3.48229 6.36042 4.07623V11.1491C2.7691 11.6721 0 14.8157 0 18.6054C0 22.7596 3.32862 26.139 7.42049 26.139C10.5265 26.139 13.2691 24.1867 14.3544 21.296H18.2183L14.4097 25.163C14.1062 25.4704 14.0155 25.9335 14.1798 26.3358C14.3438 26.7373 14.731 27 15.159 27H28.9399C29.525 27 30 26.5177 30 25.9238V11.9327C30 11.4982 29.7413 11.105 29.3457 10.9386C28.9495 10.7717 29.7413 11.105 29.3457 10.9386ZM12.6264 19.6204C12.6066 19.7314 12.582 19.8417 12.5545 19.952C12.5536 19.9581 12.5512 19.9638 12.5489 19.9702C11.9417 22.3355 9.83414 23.9865 7.42049 23.9865C4.49801 23.9865 2.12014 21.5724 2.12014 18.6054C2.12014 15.6383 4.49801 13.2242 7.42049 13.2242C10.343 13.2242 12.7208 15.6383 12.7208 18.6054C12.7208 18.9454 12.689 19.2854 12.6264 19.6204C12.6066 19.7314 12.689 19.2854 12.6264 19.6204ZM14.8218 19.1435C15.1246 15.3044 12.2624 11.6603 8.48057 11.1484V5.15247H22.2615V17.1911L20.3384 19.1435H14.8218ZM27.8799 24.8475H17.7181L27.8799 14.5308V24.8475Z" fill="#343434"/>
</svg>
