<svg width="30" height="30" viewBox="0 0 30 30" fill="none" xmlns="http://www.w3.org/2000/svg">
<path d="M19.662 13.1812C19.9877 13.4996 20.5153 13.4995 20.8408 13.1808L24.8436 9.26164L26.1264 10.5167C26.3898 10.7746 26.7779 10.8676 27.1336 10.7591C27.4892 10.6496 27.7536 10.3571 27.8196 9.99804L29.2931 2.03388C29.3453 1.74946 29.2521 1.4587 29.0428 1.25552C28.8342 1.05143 28.5363 0.962076 28.2468 1.0149L20.154 2.49964C19.7881 2.5671 19.4912 2.82601 19.3814 3.17406C19.2716 3.52142 19.3674 3.90056 19.6299 4.15754L20.9117 5.41257L16.9069 9.33225C16.5811 9.65119 16.5812 10.1685 16.9072 10.4873L19.662 13.1812Z" fill="#343434"/>
<path d="M10.6558 16.819C10.3301 16.5005 9.80247 16.5006 9.47696 16.8193L5.47434 20.7385L4.19163 19.4834C3.92807 19.2254 3.54002 19.1324 3.18445 19.2409C2.82875 19.3503 2.56449 19.6428 2.49828 20.002L1.02476 27.9662C0.972737 28.2505 1.06581 28.5413 1.27518 28.7444C1.48374 28.9485 1.78163 29.038 2.07112 28.9851L10.164 27.5003C10.5299 27.4329 10.8267 27.1739 10.9366 26.8258C11.0465 26.4785 10.9506 26.0995 10.688 25.8424L9.40631 24.5874L13.4153 20.674C13.7419 20.3551 13.7422 19.8372 13.4159 19.5181L10.6558 16.819Z" fill="#343434"/>
<path d="M2.49834 9.99883C2.56437 10.3579 2.82875 10.6504 3.18439 10.7599C3.54003 10.8684 3.92813 10.7754 4.19157 10.5175L5.47434 9.26244L9.47713 13.1816C9.80258 13.5003 10.3302 13.5004 10.6559 13.182L13.4107 10.4882C13.7368 10.1694 13.7369 9.65205 13.4111 9.3331L9.40631 5.41342L10.6881 4.15839C10.9506 3.90142 11.0464 3.52227 10.9366 3.17492C10.8268 2.82687 10.5298 2.56795 10.164 2.50049L2.07118 1.01576C1.78163 0.962933 1.48374 1.05223 1.27518 1.25638C1.06581 1.45956 0.972621 1.75032 1.02482 2.03474L2.49834 9.99883Z" fill="#343434"/>
<path d="M27.8197 20.002C27.7535 19.6429 27.4892 19.3504 27.1335 19.2409C26.7779 19.1325 26.3899 19.2254 26.1263 19.4834L24.8436 20.7384L20.8409 16.8193C20.5155 16.5005 19.9878 16.5004 19.6621 16.8189L16.9021 19.5181C16.5757 19.8372 16.576 20.3551 16.9027 20.674L20.9116 24.5874L19.6299 25.8424C19.3674 26.0995 19.2715 26.4785 19.3813 26.8258C19.4912 27.1739 19.7881 27.4329 20.1539 27.5003L28.2468 28.9851C28.5363 29.038 28.8341 28.9485 29.0427 28.7444C29.2521 28.5412 29.3451 28.2504 29.2931 27.9662L27.8197 20.002Z" fill="#343434"/>
</svg>
