<svg width="30" height="30" viewBox="0 0 30 30" fill="none" xmlns="http://www.w3.org/2000/svg">
<path d="M19.4558 13.1812C19.778 13.4996 20.3002 13.4995 20.6222 13.1808L24.5831 9.26164L25.8524 10.5167C26.1131 10.7746 26.4971 10.8676 26.849 10.7591C27.2009 10.6496 27.4625 10.3571 27.5279 9.99804L28.9859 2.03388C29.0376 1.74946 28.9454 1.4587 28.7382 1.25552C28.5318 1.05143 28.237 0.962076 27.9505 1.0149L19.9426 2.49964C19.5806 2.5671 19.2868 2.82601 19.1782 3.17406C19.0695 3.52142 19.1643 3.90056 19.4241 4.15754L20.6924 5.41257L16.7296 9.33225C16.4072 9.65119 16.4073 10.1685 16.7299 10.4873L19.4558 13.1812Z" fill="#343434"/>
<path d="M10.5441 16.819C10.2218 16.5005 9.69967 16.5006 9.37758 16.8193L5.41693 20.7385L4.14768 19.4834C3.88688 19.2254 3.50291 19.1324 3.15106 19.2409C2.79909 19.3503 2.5376 19.6428 2.47209 20.002L1.01402 27.9662C0.962545 28.2505 1.05464 28.5413 1.26182 28.7444C1.46819 28.9485 1.76296 29.038 2.04941 28.9851L10.0574 27.5003C10.4195 27.4329 10.7132 27.1739 10.8219 26.8258C10.9306 26.4785 10.8358 26.0995 10.5759 25.8424L9.30767 24.5874L13.2746 20.674C13.5978 20.3551 13.5981 19.8372 13.2752 19.5181L10.5441 16.819Z" fill="#343434"/>
<path d="M2.47215 9.99883C2.53749 10.3579 2.79909 10.6504 3.151 10.7599C3.50291 10.8684 3.88694 10.7754 4.14762 10.5175L5.41693 9.26244L9.37775 13.1816C9.69979 13.5003 10.2219 13.5004 10.5442 13.182L13.2701 10.4882C13.5927 10.1694 13.5928 9.65205 13.2704 9.3331L9.30767 5.41342L10.576 4.15839C10.8358 3.90142 10.9306 3.52227 10.8219 3.17492C10.7132 2.82687 10.4194 2.56795 10.0574 2.50049L2.04946 1.01576C1.76296 0.962933 1.46819 1.05223 1.26182 1.25638C1.05464 1.45956 0.962429 1.75032 1.01408 2.03474L2.47215 9.99883Z" fill="#343434"/>
<path d="M27.5279 20.002C27.4624 19.6429 27.2009 19.3504 26.8489 19.2409C26.4971 19.1325 26.1131 19.2254 25.8523 19.4834L24.5831 20.7384L20.6224 16.8193C20.3003 16.5005 19.7782 16.5004 19.4559 16.8189L16.7248 19.5181C16.4019 19.8372 16.4021 20.3551 16.7254 20.674L20.6923 24.5874L19.4241 25.8424C19.1642 26.0995 19.0694 26.4785 19.1781 26.8258C19.2868 27.1739 19.5806 27.4329 19.9426 27.5003L27.9505 28.9851C28.237 29.038 28.5317 28.9485 28.7381 28.7444C28.9453 28.5412 29.0374 28.2504 28.9859 27.9662L27.5279 20.002Z" fill="#343434"/>
</svg>
