<svg width="30" height="30" viewBox="0 0 30 30" fill="none" xmlns="http://www.w3.org/2000/svg">
<path d="M23.0358 17.3331H21.9642C21.8077 17.3331 21.6793 17.3877 21.5794 17.4974C21.4787 17.6064 21.4285 17.7462 21.4285 17.9164V23.7497C21.4285 24.5519 21.1664 25.2384 20.6419 25.8096C20.1174 26.3808 19.4867 26.6661 18.7501 26.6661H4.82133C4.08474 26.6661 3.4541 26.3808 2.92948 25.8096C2.40498 25.2384 2.14275 24.5519 2.14275 23.7497V8.58292C2.14275 7.78085 2.40492 7.09441 2.92948 6.52321C3.4541 5.95195 4.08474 5.66648 4.82133 5.66648H16.6069C16.7634 5.66648 16.8918 5.61164 16.9922 5.50239C17.0925 5.39302 17.1426 5.25338 17.1426 5.08309V3.91625C17.1426 3.74628 17.0925 3.60639 16.9922 3.4972C16.8918 3.38783 16.7634 3.33324 16.6069 3.33324H4.82133C3.49333 3.33324 2.35766 3.84671 1.41443 4.8736C0.471555 5.90043 0 7.13706 0 8.58312V23.75C0 25.196 0.471555 26.4328 1.41449 27.4593C2.35772 28.4863 3.49339 29 4.82139 29H18.7501C20.078 29 21.2138 28.4863 22.1569 27.4593C23.1001 26.4328 23.5716 25.1961 23.5716 23.75V17.9169C23.5716 17.7464 23.5215 17.6066 23.4207 17.4974C23.3203 17.3877 23.1919 17.3331 23.0358 17.3331Z" fill="#343434"/>
<path d="M29.6817 1.34632C29.4696 1.11538 29.2182 1 28.9282 1H20.3569C20.0668 1 19.8155 1.11538 19.6036 1.34632C19.3915 1.57713 19.2853 1.8506 19.2853 2.16659C19.2853 2.48258 19.3915 2.75611 19.6036 2.98705L22.5499 6.19535L11.6349 18.081C11.5231 18.2025 11.4674 18.3423 11.4674 18.5C11.4674 18.6583 11.5233 18.798 11.6349 18.9195L13.5434 20.9975C13.655 21.119 13.7834 21.1796 13.9285 21.1796C14.0735 21.1796 14.202 21.119 14.3135 20.9975L25.2286 9.11205L28.1751 12.3203C28.387 12.5513 28.6382 12.6668 28.9284 12.6668C29.2186 12.6668 29.4698 12.5513 29.682 12.3203C29.894 12.0895 30 11.8161 30 11.5001V2.16659C29.9999 1.85041 29.8936 1.57713 29.6817 1.34632Z" fill="#343434"/>
</svg>
