<svg width="30" height="30" viewBox="0 0 30 30" fill="none" xmlns="http://www.w3.org/2000/svg">
<path d="M29.8874 1.7213C29.6889 1.28142 29.2599 1 28.7881 1H1.21185C0.740107 1 0.311142 1.28136 0.112567 1.7213C-0.0860071 2.16123 -0.0180969 2.67952 0.286532 3.04983L11.0305 16.108V24.9202C11.0305 25.3919 11.2899 25.8232 11.7004 26.0342L17.2157 28.8685C17.3867 28.9565 17.5724 29 17.7576 29C17.9792 29 18.2001 28.9376 18.3948 28.814C18.752 28.587 18.9695 28.1861 18.9695 27.7544V16.108L29.7135 3.04983C30.0181 2.67952 30.0859 2.16117 29.8874 1.7213ZM16.8323 14.8476C16.6473 15.0725 16.5458 15.3575 16.5458 15.6519V25.7391L13.4542 24.1504V15.652C13.4542 15.3575 13.3527 15.0726 13.1677 14.8477L3.82378 3.49109H26.1763L16.8323 14.8476Z" fill="#343434"/>
</svg>
