<svg width="32" height="32" viewBox="0 0 32 32" fill="none" xmlns="http://www.w3.org/2000/svg">
<g id="google">
<path id="back" fill-rule="evenodd" clip-rule="evenodd" d="M1 16C1 7.71573 7.71573 1 16 1C24.2843 1 31 7.71573 31 16C31 24.2843 24.2843 31 16 31C7.71573 31 1 24.2843 1 16Z" stroke="#343434" stroke-width="2"/>
<g id="Vector">
<path fill-rule="evenodd" clip-rule="evenodd" d="M16.0001 9.86667C17.8778 9.86667 19.1445 10.6778 19.8667 11.3556L22.689 8.6C20.9556 6.98889 18.7001 6 16.0001 6C12.089 6 8.71118 8.24444 7.06673 11.5111L10.3001 14.0222C11.1112 11.6111 13.3556 9.86667 16.0001 9.86667Z" fill="#343434"/>
<path fill-rule="evenodd" clip-rule="evenodd" d="M25.6 16.2221C25.6 15.3999 25.5333 14.7999 25.3889 14.1777H16V17.8888H21.5111C21.4 18.811 20.8 20.1999 19.4667 21.1332L22.6222 23.5777C24.5111 21.8332 25.6 19.2666 25.6 16.2221Z" fill="#343434"/>
<path fill-rule="evenodd" clip-rule="evenodd" d="M10.3111 17.9777C10.1 17.3555 9.97778 16.6888 9.97778 15.9999C9.97778 15.311 10.1001 14.6444 10.3001 14.0222L7.06673 11.5111C6.38896 12.8667 6 14.3888 6 15.9999C6 17.611 6.38889 19.1332 7.06667 20.4888L10.3111 17.9777Z" fill="#343434"/>
<path fill-rule="evenodd" clip-rule="evenodd" d="M16 25.9999C18.7 25.9999 20.9667 25.111 22.6222 23.5777L19.4667 21.1332C18.6222 21.7221 17.4889 22.1333 16 22.1333C13.3556 22.1333 11.1111 20.3888 10.3111 17.9777L7.07782 20.4888C8.72226 23.7555 12.0889 25.9999 16 25.9999Z" fill="#343434"/>
</g>
</g>
</svg>
