<svg width="30" height="30" viewBox="0 0 30 30" fill="none" xmlns="http://www.w3.org/2000/svg">
<path d="M28.6171 28.8281H27.332V10.1681C27.332 9.2996 26.6254 8.59302 25.7569 8.59302H22.8844C22.0158 8.59302 21.3093 9.29966 21.3093 10.1681V28.8281H18.0461V18.6226C18.0461 17.754 17.3395 17.0475 16.4709 17.0475H13.5984C12.7299 17.0475 12.0233 17.7541 12.0233 18.6226V28.8281H8.76012V23.5427C8.76012 22.6742 8.05348 21.9676 7.185 21.9676H4.31244C3.44391 21.9676 2.73733 22.6743 2.73733 23.5427V28.8281H1.38287C1.05926 28.8281 0.796936 29.0905 0.796936 29.4141C0.796936 29.7377 1.05926 30 1.38287 30H28.6171C28.9407 30 29.2031 29.7377 29.2031 29.4141C29.2031 29.0905 28.9407 28.8281 28.6171 28.8281ZM7.58813 28.8281H3.90914V23.5427C3.90914 23.3204 4.09002 23.1395 4.31239 23.1395H7.18489C7.40725 23.1395 7.58813 23.3204 7.58813 23.5427V28.8281ZM16.8741 28.8281H13.1951V18.6226C13.1951 18.4002 13.376 18.2193 13.5984 18.2193H16.4709C16.6932 18.2193 16.8741 18.4002 16.8741 18.6226V28.8281ZM26.1601 28.8281H22.4811V10.1681C22.4811 9.94577 22.662 9.76489 22.8844 9.76489H25.7569C25.9792 9.76489 26.1601 9.94577 26.1601 10.1681V28.8281Z" fill="#343434" stroke="#343434"/>
<path d="M27.3306 0.616172C27.3388 0.45627 27.2825 0.293672 27.1604 0.171562C27.0383 0.0494531 26.8757 -0.00685547 26.7158 0.00140625C26.7064 0.000996094 26.6971 0 26.6875 0H23.1425C22.8189 0 22.5566 0.262324 22.5566 0.585938C22.5566 0.909551 22.8189 1.17188 23.1425 1.17188H25.3314L19.539 6.96434L17.3547 4.77996C17.2448 4.6701 17.0957 4.60834 16.9403 4.60834C16.7849 4.60834 16.6359 4.6701 16.526 4.77996L5.99268 15.3134C5.76387 15.5422 5.76387 15.9132 5.99268 16.142C6.10712 16.2564 6.25706 16.3136 6.407 16.3136C6.55694 16.3136 6.70694 16.2564 6.82131 16.1419L16.9403 6.02285L19.1247 8.20723C19.3535 8.43604 19.7245 8.43604 19.9534 8.20723L26.1601 2.00057V3.98162C26.1601 4.30523 26.4224 4.56756 26.7461 4.56756C27.0697 4.56756 27.332 4.30523 27.332 3.98162V0.644531C27.332 0.63498 27.331 0.625664 27.3306 0.616172Z" fill="#343434" stroke="#343434"/>
<path d="M4.43201 18.358C4.75561 18.358 5.01794 18.0957 5.01794 17.7721C5.01794 17.4485 4.75561 17.1862 4.43201 17.1862C4.1084 17.1862 3.84607 17.4485 3.84607 17.7721C3.84607 18.0957 4.1084 18.358 4.43201 18.358Z" fill="#343434" stroke="#343434"/>
</svg>
