<svg width="30" height="30" viewBox="0 0 30 30" fill="none" xmlns="http://www.w3.org/2000/svg">
<path d="M29.1529 3.15505C28.5878 2.59007 27.9091 2.30774 27.1155 2.30774H2.88469C2.09143 2.30774 1.41229 2.59007 0.847308 3.15505C0.282457 3.72015 0 4.39905 0 5.19249V24.808C0 25.6015 0.282457 26.2799 0.847308 26.8452C1.41229 27.4103 2.09137 27.6923 2.88469 27.6923H27.1155C27.909 27.6923 28.5878 27.4103 29.1529 26.8452C29.7178 26.2799 30.0001 25.6011 30.0001 24.808V5.19249C30.0001 4.39905 29.7178 3.71996 29.1529 3.15505ZM9.23104 24.8074C9.23104 24.9762 9.17679 25.114 9.0685 25.2223C8.96039 25.3304 8.82229 25.3841 8.65381 25.3841H2.88469C2.71659 25.3841 2.57823 25.3303 2.47 25.2223C2.36183 25.114 2.30784 24.9762 2.30784 24.8074V21.3456C2.30784 21.1771 2.36183 21.0392 2.47 20.9314C2.57823 20.8229 2.71659 20.7689 2.88469 20.7689H8.654C8.82241 20.7689 8.96077 20.8229 9.06869 20.9314C9.17673 21.0392 9.23097 21.1771 9.23097 21.3456V24.8074H9.23104ZM9.23104 17.8846C9.23104 18.0528 9.17679 18.1911 9.0685 18.2991C8.96039 18.4074 8.82229 18.4613 8.65381 18.4613H2.88469C2.71659 18.4613 2.57823 18.4074 2.47 18.2991C2.36183 18.1911 2.30784 18.0528 2.30784 17.8846V14.423C2.30784 14.2547 2.36183 14.1164 2.47 14.0083C2.57823 13.9004 2.71659 13.8463 2.88469 13.8463H8.654C8.82241 13.8463 8.96051 13.9003 9.06869 14.0083C9.17673 14.1164 9.23097 14.2547 9.23097 14.423V17.8846H9.23104ZM9.23104 10.9615C9.23104 11.1299 9.17679 11.268 9.0685 11.3762C8.96039 11.4842 8.82229 11.5384 8.65381 11.5384H2.88469C2.71659 11.5384 2.57823 11.4842 2.47 11.3762C2.36183 11.2679 2.30784 11.1299 2.30784 10.9615V7.50001C2.30784 7.33166 2.36183 7.19337 2.47 7.08532C2.57823 6.97715 2.71659 6.92316 2.88469 6.92316H8.654C8.82241 6.92316 8.96051 6.97715 9.06869 7.08532C9.17673 7.19337 9.23097 7.33166 9.23097 7.50001V10.9615H9.23104ZM18.4618 24.8074C18.4618 24.9762 18.4078 25.114 18.3 25.2223C18.1919 25.3304 18.0537 25.3841 17.8851 25.3841H12.1154C11.9472 25.3841 11.809 25.3303 11.7007 25.2223C11.5925 25.114 11.5386 24.9762 11.5386 24.8074V21.3456C11.5386 21.1771 11.5925 21.0392 11.7007 20.9314C11.809 20.8229 11.9472 20.7689 12.1154 20.7689H17.8848C18.0534 20.7689 18.1917 20.8229 18.2997 20.9314C18.4073 21.0392 18.4614 21.1771 18.4614 21.3456V24.8073H18.4618V24.8074ZM18.4618 17.8846C18.4618 18.0528 18.4078 18.1911 18.3 18.2991C18.1919 18.4074 18.0537 18.4613 17.8851 18.4613H12.1154C11.9472 18.4613 11.809 18.4074 11.7007 18.2991C11.5925 18.1911 11.5386 18.0528 11.5386 17.8846V14.423C11.5386 14.2547 11.5925 14.1164 11.7007 14.0083C11.809 13.9004 11.9472 13.8463 12.1154 13.8463H17.8848C18.0534 13.8463 18.1917 13.9003 18.2997 14.0083C18.4073 14.1164 18.4614 14.2547 18.4614 14.423V17.8846H18.4618ZM18.4618 10.9615C18.4618 11.1299 18.4078 11.268 18.3 11.3762C18.1919 11.4842 18.0537 11.5384 17.8851 11.5384H12.1154C11.9472 11.5384 11.809 11.4842 11.7007 11.3762C11.5925 11.2679 11.5386 11.1299 11.5386 10.9615V7.50001C11.5386 7.33166 11.5925 7.19337 11.7007 7.08532C11.809 6.97715 11.9472 6.92316 12.1154 6.92316H17.8848C18.0534 6.92316 18.1917 6.97715 18.2997 7.08532C18.4073 7.19337 18.4614 7.33166 18.4614 7.50001V10.9615H18.4618ZM27.6923 24.8074C27.6923 24.9762 27.6383 25.114 27.5305 25.2223C27.422 25.3304 27.2837 25.3841 27.1156 25.3841H21.3468C21.178 25.3841 21.0398 25.3303 20.9319 25.2223C20.8239 25.114 20.7703 24.9762 20.7703 24.8074V21.3456C20.7703 21.1771 20.8239 21.0392 20.9319 20.9314C21.0398 20.8229 21.178 20.7689 21.3468 20.7689H27.1156C27.2837 20.7689 27.4221 20.8229 27.5305 20.9314C27.6383 21.0392 27.6923 21.1771 27.6923 21.3456V24.8074ZM27.6923 17.8846C27.6923 18.0528 27.6383 18.1911 27.5305 18.2991C27.422 18.4074 27.2837 18.4613 27.1156 18.4613H21.3468C21.178 18.4613 21.0398 18.4074 20.9319 18.2991C20.8239 18.1911 20.7703 18.0528 20.7703 17.8846V14.423C20.7703 14.2547 20.8239 14.1164 20.9319 14.0083C21.0398 13.9004 21.178 13.8463 21.3468 13.8463H27.1156C27.2837 13.8463 27.4221 13.9003 27.5305 14.0083C27.6383 14.1164 27.6923 14.2547 27.6923 14.423V17.8846ZM27.6923 10.9615C27.6923 11.1299 27.6383 11.268 27.5305 11.3762C27.422 11.4842 27.2837 11.5384 27.1156 11.5384H21.3468C21.178 11.5384 21.0398 11.4842 20.9319 11.3762C20.8239 11.2679 20.7703 11.1299 20.7703 10.9615V7.50001C20.7703 7.33166 20.8239 7.19337 20.9319 7.08532C21.0398 6.97715 21.178 6.92316 21.3468 6.92316H27.1156C27.2837 6.92316 27.4221 6.97715 27.5305 7.08532C27.6383 7.19337 27.6923 7.33166 27.6923 7.50001V10.9615Z" fill="#343434"/>
</svg>
