<svg width="30" height="30" viewBox="0 0 30 30" fill="none" xmlns="http://www.w3.org/2000/svg">
<path d="M15.6991 1.6836C15.3105 1.3036 14.6895 1.3036 14.3009 1.6836L1.75394 13.9519C1.11307 14.5786 1.55674 15.6669 2.45307 15.6669H4.09091V27.5C4.09091 28.3284 4.76248 29 5.59091 29H12.1364C12.9648 29 13.6364 28.3284 13.6364 27.5V21.1113C13.6364 20.559 14.0841 20.1113 14.6364 20.1113H15.3636C15.9159 20.1113 16.3636 20.559 16.3636 21.1113V27.5C16.3636 28.3284 17.0352 29 17.8636 29H24.4091C25.2375 29 25.9091 28.3284 25.9091 27.5V15.6669H27.5469C28.4433 15.6669 28.8869 14.5786 28.2461 13.9519L15.6991 1.6836ZM14.3009 5.67082C14.6895 5.2908 15.3105 5.2908 15.6991 5.67082L22.881 12.6934C23.0734 12.8815 23.1818 13.1393 23.1818 13.4084V14.1855V25.0371C23.1818 25.5894 22.7341 26.0371 22.1818 26.0371H20.0909C19.5386 26.0371 19.0909 25.5894 19.0909 25.0371V18.6484C19.0909 17.82 18.4193 17.1484 17.5909 17.1484H12.4091C11.5807 17.1484 10.9091 17.82 10.9091 18.6484V25.0371C10.9091 25.5894 10.4614 26.0371 9.90909 26.0371H7.81818C7.2659 26.0371 6.81818 25.5894 6.81818 25.0371V13.4084C6.81818 13.1393 6.92664 12.8815 7.11905 12.6934L14.3009 5.67082Z" fill="#343434"/>
</svg>
