<svg width="30" height="30" viewBox="0 0 30 30" fill="none" xmlns="http://www.w3.org/2000/svg">
<path d="M15.3496 1.3418C15.1552 1.1518 14.8448 1.1518 14.6504 1.3418L0.876972 14.8094C0.556535 15.1228 0.778371 15.6669 1.22653 15.6669H4.09091V28.5C4.09091 28.7761 4.31477 29 4.59091 29H13.1364C13.4125 29 13.6364 28.7761 13.6364 28.5V20.1113H16.3636V28.5C16.3636 28.7761 16.5875 29 16.8636 29H25.4091C25.6852 29 25.9091 28.7761 25.9091 28.5V15.6669H28.7735C29.2216 15.6669 29.4435 15.1228 29.123 14.8094L15.3496 1.3418ZM15 4.98719L23.1818 12.9876V14.1855V26.0371H19.0909V17.6484C19.0909 17.3722 18.8671 17.1484 18.5909 17.1484H11.4091C11.1329 17.1484 10.9091 17.3722 10.9091 17.6484V26.0371H6.81818V12.9876L15 4.98719Z" fill="#343434"/>
</svg>
