<svg width="30" height="30" viewBox="0 0 30 30" fill="none" xmlns="http://www.w3.org/2000/svg">
<path d="M13.6 20.6C13.6 19.8268 14.2268 19.2 15 19.2C15.7732 19.2 16.4 19.8268 16.4 20.6C16.4 21.3732 15.7732 22 15 22C14.2268 22 13.6 21.3732 13.6 20.6ZM13.6 9.4C13.6 8.6268 14.2268 8 15 8C15.7732 8 16.4 8.6268 16.4 9.4V15C16.4 15.7732 15.7732 16.4 15 16.4C14.2268 16.4 13.6 15.7732 13.6 15V9.4ZM14.986 1C7.258 1 1 7.272 1 15C1 22.728 7.258 29 14.986 29C22.728 29 29 22.728 29 15C29 7.272 22.728 1 14.986 1ZM15 26.2C8.812 26.2 3.8 21.188 3.8 15C3.8 8.812 8.812 3.8 15 3.8C21.188 3.8 26.2 8.812 26.2 15C26.2 21.188 21.188 26.2 15 26.2Z" fill="#343434"/>
</svg>
