<svg width="30" height="30" viewBox="0 0 30 30" fill="none" xmlns="http://www.w3.org/2000/svg">
<path d="M29.9854 14.995C29.9854 17.098 29.943 19.2071 29.9974 21.3101C30.0882 25.0327 27.7481 27.9093 24.7671 29.1904C23.5699 29.7041 22.3122 29.9761 21.0121 29.9761C16.9427 29.9821 12.8673 30.0365 8.79788 29.9579C5.73223 29.8975 3.21077 28.6163 1.40282 26.0903C0.453499 24.7608 0 23.25 0 21.6123C0 17.2793 0 12.9524 0 8.61943C0 5.08417 1.7233 2.61251 4.7829 1.00502C6.11317 0.310052 7.55832 0.0139363 9.06393 0.00789315C13.0124 0.00789315 16.9669 -0.0162796 20.9154 0.0199795C23.981 0.0441523 26.5388 1.21653 28.4253 3.68215C29.4774 5.06 29.9854 6.64331 29.9854 8.38375C29.9854 10.5835 29.9854 12.7892 29.9854 14.995ZM2.23122 14.995C2.23122 17.2128 2.23122 19.4246 2.23122 21.6425C2.23122 22.6336 2.46099 23.5642 2.97495 24.4042C4.32336 26.61 6.36108 27.6857 8.88858 27.728C12.9459 27.7884 17.0092 27.7522 21.0726 27.7401C22.0703 27.7401 23.0378 27.5346 23.9387 27.1055C26.3936 25.9332 27.7662 24.0658 27.7541 21.2618C27.73 16.9711 27.7481 12.6805 27.7481 8.38979C27.7481 7.17511 27.4034 6.06317 26.6839 5.08417C25.2932 3.20474 23.3703 2.28013 21.0726 2.25596C17.0213 2.20761 12.9701 2.23783 8.91881 2.24387C8.05414 2.24387 7.2197 2.41912 6.40945 2.72128C4.18428 3.5492 2.11633 5.64619 2.21308 8.73425C2.28563 10.8252 2.23122 12.9101 2.23122 14.995Z" fill="#343434"/>
<path d="M15.0259 21.4008C11.1258 21.4008 7.98155 18.2946 7.9755 14.427C7.96946 10.6197 11.1379 7.50146 15.0138 7.50146C18.9018 7.49542 22.0582 10.6077 22.0642 14.4451C22.0642 18.2765 18.9139 21.3947 15.0259 21.4008ZM15.0259 19.1648C17.6804 19.1648 19.833 17.0437 19.827 14.433C19.8209 11.8465 17.6683 9.7314 15.0259 9.7314C12.3714 9.7314 10.2067 11.8405 10.2067 14.4451C10.2128 17.0557 12.3714 19.1709 15.0259 19.1648Z" fill="#343434"/>
<path d="M22.8805 5.38634C23.6968 5.38634 24.3619 6.0813 24.3619 6.93339C24.3559 7.78548 23.6847 8.4744 22.8684 8.46835C22.0642 8.46231 21.4051 7.77339 21.4051 6.93943C21.3991 6.08734 22.0642 5.38634 22.8805 5.38634Z" fill="#343434"/>
</svg>
