<svg width="30" height="30" viewBox="0 0 30 30" fill="none" xmlns="http://www.w3.org/2000/svg">
<path d="M27.9623 16.7669C28.5513 15.8773 28.8454 14.898 28.8454 13.8283C28.8454 12.5902 28.3892 11.5149 27.476 10.6005C26.5624 9.68716 25.4806 9.23056 24.2308 9.23056H21.0577C21.6344 8.04079 21.9233 6.88682 21.9233 5.76922C21.9233 4.36292 21.7124 3.24526 21.2921 2.41592C20.8714 1.58632 20.2583 0.976533 19.453 0.585731C18.6474 0.195117 17.7403 0 16.7307 0C16.1175 0 15.5768 0.222333 15.1081 0.667187C14.5914 1.1719 14.2188 1.82109 13.9905 2.61438C13.7621 3.40742 13.5787 4.16774 13.4406 4.89492C13.3025 5.62203 13.089 6.13584 12.8007 6.43628C12.2116 7.07328 11.5687 7.8427 10.8715 8.74403C9.65765 10.3184 8.83424 11.2499 8.40176 11.5385H3.46207C2.82507 11.5385 2.28114 11.7642 1.83041 12.2145C1.37988 12.6653 1.15445 13.2092 1.15445 13.8463V25.3842C1.15445 26.0213 1.37962 26.565 1.83041 27.0158C2.28139 27.4666 2.82507 27.6921 3.46207 27.6921H8.6539C8.91835 27.6921 9.7475 27.9325 11.1417 28.4132C12.6201 28.9301 13.9212 29.3237 15.0448 29.5942C16.1686 29.8647 17.3074 30 18.4613 30H20.1375H20.7869C22.4815 30 23.8455 29.5159 24.8793 28.5483C25.9126 27.5807 26.4236 26.2616 26.4118 24.591C27.1329 23.6655 27.4934 22.5958 27.4934 21.3821C27.4934 21.1178 27.4756 20.8594 27.4394 20.6068C27.8959 19.8018 28.1248 18.9364 28.1248 18.0109C28.1246 17.5782 28.0706 17.1633 27.9623 16.7669ZM5.4272 25.0419C5.19887 25.2701 4.92848 25.3847 4.61598 25.3847C4.30341 25.3847 4.03297 25.2702 3.80457 25.0419C3.5763 24.8138 3.46207 24.5433 3.46207 24.2305C3.46207 23.9181 3.57605 23.6478 3.80457 23.4193C4.03322 23.1909 4.30341 23.0767 4.61598 23.0767C4.92848 23.0767 5.19887 23.1909 5.4272 23.4193C5.6556 23.6477 5.76982 23.918 5.76982 24.2305C5.76982 24.5433 5.6556 24.8138 5.4272 25.0419ZM26.1511 15.3075C25.8926 15.8603 25.571 16.1427 25.1865 16.1546C25.3667 16.359 25.517 16.6447 25.6372 17.0109C25.7573 17.3776 25.817 17.711 25.817 18.0117C25.817 18.8406 25.499 19.5559 24.8619 20.1566C25.0785 20.541 25.1865 20.9559 25.1865 21.4004C25.1865 21.8451 25.0815 22.2868 24.871 22.7254C24.661 23.1636 24.3753 23.4792 24.0149 23.6714C24.0749 24.0319 24.1047 24.3686 24.1047 24.681C24.1047 26.6881 22.9508 27.6916 20.6429 27.6916H18.4622C16.8873 27.6916 14.8324 27.2532 12.2962 26.3756C12.236 26.3516 12.062 26.2883 11.7734 26.1863C11.4847 26.0843 11.2715 26.0091 11.1332 25.9612C10.9949 25.9128 10.7848 25.8437 10.5021 25.7538C10.2196 25.6634 9.99149 25.5972 9.81709 25.5554C9.64293 25.5134 9.44447 25.4744 9.22233 25.4382C9.00006 25.4022 8.81069 25.3842 8.65447 25.3842H8.07757V13.8467H8.65447C8.84674 13.8467 9.06004 13.7925 9.29444 13.6845C9.52877 13.5763 9.76929 13.4141 10.0156 13.1977C10.2621 12.9813 10.4932 12.768 10.7097 12.5575C10.9261 12.3473 11.1664 12.0829 11.4309 11.7645C11.6953 11.4459 11.9026 11.1906 12.053 10.9982C12.2031 10.806 12.3924 10.5594 12.6208 10.259C12.849 9.95862 12.9874 9.77828 13.0354 9.7181C13.6964 8.90094 14.1591 8.35411 14.4235 8.07754C14.9163 7.56089 15.2738 6.90286 15.4961 6.10357C15.7187 5.30416 15.902 4.54996 16.0457 3.84097C16.1898 3.13192 16.4184 2.62095 16.7313 2.30845C17.8848 2.30845 18.6543 2.59077 19.0387 3.15572C19.4232 3.72055 19.6155 4.59201 19.6155 5.76985C19.6155 6.4789 19.3268 7.44338 18.7498 8.66321C18.173 9.88316 17.8848 10.8417 17.8848 11.5388H24.2306C24.8321 11.5388 25.3667 11.77 25.8353 12.233C26.3042 12.6956 26.5389 13.2334 26.5389 13.8465C26.5387 14.2671 26.4094 14.754 26.1511 15.3075Z" fill="#343434"/>
</svg>
