<svg width="30" height="30" viewBox="0 0 30 30" fill="none" xmlns="http://www.w3.org/2000/svg">
<path d="M27.9623 16.7669C28.5513 15.8773 28.8455 14.898 28.8455 13.8283C28.8455 12.5902 28.3892 11.5149 27.476 10.6005C26.5624 9.68716 25.4806 9.23056 24.2308 9.23056H21.0577C21.6345 8.04079 21.9233 6.88682 21.9233 5.76922C21.9233 4.36292 21.7124 3.24526 21.2921 2.41592C20.8714 1.58632 20.2583 0.976533 19.453 0.585731C18.6475 0.195117 17.7403 0 16.7308 0C16.1175 0 15.5768 0.222333 15.1081 0.667187C14.5914 1.1719 14.2188 1.82109 13.9905 2.61438C13.7621 3.40742 13.5788 4.16774 13.4407 4.89492C13.3026 5.62203 13.089 6.13584 12.8007 6.43628C12.2116 7.07328 11.5687 7.8427 10.8716 8.74403C9.65766 10.3184 8.83425 11.2499 8.40178 11.5385H3.46209C2.82508 11.5385 2.28116 11.7642 1.83043 12.2145C1.37989 12.6653 1.15446 13.2092 1.15446 13.8463V25.3842C1.15446 26.0213 1.37964 26.565 1.83043 27.0158C2.28141 27.4666 2.82508 27.6921 3.46209 27.6921H8.65391C8.91836 27.6921 9.74752 27.9325 11.1418 28.4132C12.6202 28.9301 13.9212 29.3237 15.0449 29.5942C16.1686 29.8647 17.3075 30 18.4614 30H20.1375H20.7869C22.4815 30 23.8455 29.5159 24.8793 28.5483C25.9126 27.5807 26.4237 26.2616 26.4118 24.591C27.1329 23.6655 27.4934 22.5958 27.4934 21.3821C27.4934 21.1178 27.4757 20.8594 27.4394 20.6068C27.8959 19.8018 28.1248 18.9364 28.1248 18.0109C28.1246 17.5782 28.0706 17.1633 27.9623 16.7669ZM5.42722 25.0419C5.19888 25.2701 4.9285 25.3847 4.616 25.3847C4.30343 25.3847 4.03298 25.2702 3.80459 25.0419C3.57632 24.8138 3.46209 24.5433 3.46209 24.2305C3.46209 23.9181 3.57607 23.6478 3.80459 23.4193C4.03323 23.1909 4.30343 23.0767 4.616 23.0767C4.9285 23.0767 5.19888 23.1909 5.42722 23.4193C5.65561 23.6477 5.76984 23.918 5.76984 24.2305C5.76984 24.5433 5.65561 24.8138 5.42722 25.0419ZM26.1511 15.3075C25.8926 15.8603 25.571 16.1427 25.1865 16.1546C25.3667 16.359 25.517 16.6447 25.6373 17.0109C25.7574 17.3776 25.817 17.711 25.817 18.0117C25.817 18.8406 25.499 19.5559 24.8619 20.1566C25.0785 20.541 25.1865 20.9559 25.1865 21.4004C25.1865 21.8451 25.0815 22.2868 24.8711 22.7254C24.661 23.1636 24.3753 23.4792 24.0149 23.6714C24.0749 24.0319 24.1047 24.3686 24.1047 24.681C24.1047 26.6881 22.9508 27.6916 20.643 27.6916H18.4622C16.8874 27.6916 14.8324 27.2532 12.2962 26.3756C12.236 26.3516 12.062 26.2883 11.7734 26.1863C11.4848 26.0843 11.2715 26.0091 11.1332 25.9612C10.9949 25.9128 10.7848 25.8437 10.5022 25.7538C10.2196 25.6634 9.99151 25.5972 9.8171 25.5554C9.64295 25.5134 9.44448 25.4744 9.22234 25.4382C9.00007 25.4022 8.8107 25.3842 8.65448 25.3842H8.07759V13.8467H8.65448C8.84676 13.8467 9.06006 13.7925 9.29445 13.6845C9.52878 13.5763 9.7693 13.4141 10.0156 13.1977C10.2621 12.9813 10.4933 12.768 10.7097 12.5575C10.9261 12.3473 11.1664 12.0829 11.431 11.7645C11.6953 11.4459 11.9026 11.1906 12.053 10.9982C12.2032 10.806 12.3924 10.5594 12.6208 10.259C12.8491 9.95862 12.9874 9.77828 13.0355 9.7181C13.6964 8.90094 14.1591 8.35411 14.4235 8.07754C14.9163 7.56089 15.2738 6.90286 15.4961 6.10357C15.7187 5.30416 15.902 4.54996 16.0457 3.84097C16.1898 3.13192 16.4184 2.62095 16.7313 2.30845C17.8849 2.30845 18.6543 2.59077 19.0388 3.15572C19.4232 3.72055 19.6155 4.59201 19.6155 5.76985C19.6155 6.4789 19.3268 7.44338 18.7498 8.66321C18.173 9.88316 17.8849 10.8417 17.8849 11.5388H24.2306C24.8322 11.5388 25.3667 11.77 25.8353 12.233C26.3042 12.6956 26.5389 13.2334 26.5389 13.8465C26.5387 14.2671 26.4095 14.754 26.1511 15.3075Z" fill="#343434"/>
</svg>
