<svg width="30" height="30" viewBox="0 0 30 30" fill="none" xmlns="http://www.w3.org/2000/svg">
<g id="map">
<g id="Group 2">
<path id="Vector" d="M20 6.25L10.0256 0L0 6.25969V30L10 23.75L20 30L30 23.75V0L20 6.25ZM2.5 25.4894V7.64625L8.75 3.74375V21.5825L8.675 21.6294L2.5 25.4894ZM11.25 21.5825V3.7175L18.6725 8.36844L18.75 8.41719V26.2706L11.325 21.63L11.25 21.5825ZM27.5 22.3644L21.25 26.2706V8.41719L21.325 8.37031L27.5 4.51062V22.3644Z" fill="#343434"/>
<path id="Vector_2" d="M8 10.3957C8 9.07246 6.88102 8 5.50012 8C4.11922 8 3 9.07246 3 10.3957C3 10.6325 3.0365 10.861 3.10329 11.0775C3.45919 12.4571 5.51133 14 5.51133 14C5.51133 14 7.82944 12.2576 7.96613 10.8203L7.96064 10.8192C7.98593 10.6816 8 10.5403 8 10.3957ZM5.53423 10.9291C4.96937 10.9291 4.51138 10.4903 4.51138 9.94903C4.51138 9.40777 4.96937 8.96891 5.53423 8.96891C6.09885 8.96891 6.55684 9.40777 6.55684 9.94903C6.55661 10.4903 6.09885 10.9291 5.53423 10.9291Z" fill="#343434"/>
<g id="Group">
<path id="Vector_3" d="M25.2983 19.1633C25.399 19.2137 25.5501 19.2137 25.6508 19.2137C25.9529 19.2137 26.2551 19.113 26.5068 18.9619C26.8593 18.7101 27.1111 18.3577 27.2118 17.9548C27.3125 17.552 27.2118 17.0988 27.0103 16.7464C26.7586 16.3939 26.4061 16.1421 26.0033 16.0414C25.1473 15.84 24.2409 16.3939 24.0395 17.2499C23.9388 17.6527 24.0395 18.1059 24.2409 18.4584C24.543 18.8109 24.8955 19.0626 25.2983 19.1633ZM25.1473 17.4513C25.1976 17.1492 25.4998 16.9981 25.7515 17.0485C25.9026 17.0988 26.0033 17.1492 26.0536 17.3003C26.104 17.401 26.1543 17.552 26.104 17.7031C26.0536 17.8541 26.0033 17.9548 25.8522 18.0052C25.7515 18.0556 25.6005 18.1059 25.4494 18.0556C25.2983 18.0052 25.1976 17.9549 25.1473 17.8038C25.1473 17.7031 25.1473 17.6024 25.1473 17.4513Z" fill="#343434"/>
<path id="Vector_4" d="M4.86951 15.0283L4.51704 15.2297L4.31562 14.8772C4.16456 14.6255 3.81209 14.5248 3.56033 14.7262C3.30856 14.8772 3.20785 15.2297 3.40927 15.4815L3.61068 15.8339L3.25821 16.0353C3.00644 16.1864 2.90573 16.5389 3.10715 16.7906C3.1575 16.9921 3.35891 17.0424 3.50997 17.0424C3.61068 17.0424 3.71138 16.9921 3.81209 16.9417L4.16456 16.7403L4.36598 17.0928C4.46668 17.2438 4.6681 17.3445 4.81916 17.3445C4.91986 17.3445 5.02057 17.2942 5.12128 17.2438C5.37304 17.0928 5.47375 16.7403 5.27234 16.4885L5.07092 16.1361L5.4234 15.9346C5.67516 15.7836 5.77587 15.4311 5.57446 15.1793C5.47375 14.9276 5.12128 14.8772 4.86951 15.0283Z" fill="#343434"/>
<path id="Vector_5" d="M8.92059 16.9564C8.2883 16.787 7.48753 16.4681 6.99161 16.1789C6.71282 16.052 6.36886 16.1684 6.24203 16.4472C6.1152 16.726 6.23156 17.0699 6.51035 17.1968C7.0193 17.4374 7.85567 17.8179 8.63387 18.0264C8.9257 18.1046 9.23405 17.9266 9.31224 17.6348C9.39044 17.3429 9.21241 17.0346 8.92059 16.9564Z" fill="#343434"/>
<path id="Vector_6" d="M13.1526 16.2081C12.8001 16.7117 12.3973 17.1145 11.8938 17.4166C11.7427 17.5173 11.5413 17.618 11.3399 17.7187C11.0378 17.8194 10.9371 18.1719 11.0378 18.474C11.1385 18.6754 11.3399 18.8265 11.5413 18.8265C11.5917 18.8265 11.6924 18.8265 11.7427 18.7762C11.9945 18.6754 12.1959 18.5747 12.3973 18.4237C13.0015 18.0209 13.5051 17.5677 13.9583 16.9634C14.1597 16.7117 14.1093 16.3592 13.8575 16.2081C13.7065 15.906 13.354 15.9564 13.1526 16.2081Z" fill="#343434"/>
<path id="Vector_7" d="M17.2131 13C16.6592 13 16.3571 13.1511 16.055 13.2518C15.35 13.5539 14.7458 14.2085 14.5947 14.4099C14.3933 14.6617 14.4437 15.0141 14.6451 15.2155C14.7458 15.3162 14.8969 15.3666 14.9976 15.3666C15.1486 15.3666 15.2997 15.3162 15.4004 15.1652C15.6522 14.8631 16.055 14.5106 16.4578 14.3092C16.7599 14.2085 16.8606 14.1581 17.2131 14.1078C17.5152 14.1078 17.767 13.856 17.767 13.5539C17.767 13.2518 17.5152 13 17.2131 13Z" fill="#343434"/>
<path id="Vector_8" d="M21.0378 13.2947C20.9371 13.5969 21.0378 13.899 21.3399 14.05C21.8938 14.3018 22.6994 14.7046 23.3037 15.1578C23.4044 15.2082 23.5051 15.2585 23.6058 15.2585C23.8072 15.2585 23.9583 15.1578 24.059 15.0068C24.21 14.755 24.1597 14.4025 23.9079 14.2515C23.203 13.7983 22.3973 13.3451 21.7427 13.0933C21.4909 12.8919 21.1888 13.043 21.0378 13.2947Z" fill="#343434"/>
</g>
</g>
</g>
</svg>
