<svg width="30" height="30" viewBox="0 0 30 30" fill="none" xmlns="http://www.w3.org/2000/svg">
<g id="map">
<g id="Vector">
<path d="M29.7311 0.634995C29.5644 0.533884 29.3567 0.52944 29.185 0.619995L20 5.48277L10.8156 0.619995C10.8083 0.616106 10.8 0.614995 10.7928 0.611662C10.7661 0.598884 10.7389 0.58944 10.7111 0.581106C10.6956 0.576662 10.6806 0.571662 10.665 0.568328C10.6344 0.562217 10.6033 0.559995 10.5717 0.558884C10.5578 0.558328 10.5439 0.556662 10.5294 0.557217C10.4994 0.558884 10.47 0.56444 10.4406 0.571106C10.4239 0.57444 10.4072 0.576662 10.3911 0.581662C10.3872 0.582773 10.3833 0.582773 10.38 0.583884L0.38 3.91722C0.152778 3.99277 0 4.20499 0 4.44444V28.3333C0 28.5117 0.0855556 28.6794 0.231111 28.7844C0.326667 28.8528 0.440556 28.8889 0.555556 28.8889C0.614444 28.8889 0.673889 28.8794 0.731111 28.86L10.5344 25.5922L19.7883 29.4028C19.7961 29.4061 19.805 29.405 19.8128 29.4078C19.8739 29.4294 19.9361 29.4444 20 29.4444C20.05 29.4444 20.0994 29.4361 20.1478 29.4228C20.1633 29.4183 20.1778 29.4111 20.1933 29.4055C20.2156 29.3972 20.2389 29.3911 20.26 29.38L29.7044 24.38C29.8861 24.2839 30 24.0944 30 23.8889V1.11111C30 0.916106 29.8978 0.735551 29.7311 0.634995ZM1.11111 4.84499L10 1.88222V16.8778C9.76111 16.9211 9.52556 16.97 9.29778 17.03C9.00111 17.1089 8.82444 17.4128 8.90333 17.7094C8.96944 17.9583 9.19389 18.1228 9.44 18.1228C9.48667 18.1228 9.535 18.1167 9.58278 18.1044C9.71611 18.0689 9.86167 18.0511 10 18.0222V24.6L1.11111 27.5622V4.84499ZM11.1111 17.8667C11.2894 17.8528 11.4622 17.83 11.645 17.8261C11.9517 17.8194 12.195 17.5655 12.1889 17.2589C12.1822 16.9561 11.935 16.715 11.6333 16.715C11.6294 16.715 11.625 16.715 11.6211 16.715C11.4489 16.7189 11.2794 16.7283 11.1111 16.74V2.03388L19.4444 6.44555V18.22C19.0478 18.2028 18.6444 18.1561 18.2217 18.0744C17.9194 18.015 17.6289 18.2128 17.5706 18.5139C17.5122 18.815 17.7094 19.1067 18.0106 19.165C18.5028 19.2605 18.9806 19.3072 19.445 19.3255V28.0594L11.1111 24.6278V17.8667ZM28.8889 23.5539L20.5556 27.9655V19.2655C20.7622 19.1717 20.9 18.9605 20.8817 18.7211C20.8656 18.5133 20.7322 18.3467 20.5556 18.265V6.44555L28.8889 2.03388V23.5539Z" fill="#343434"/>
<path d="M6.11111 4.99999C4.57944 4.99999 3.33333 6.2461 3.33333 7.77777C3.33333 9.11944 4.28944 10.2411 5.55556 10.4994V11.6667C5.55556 11.9739 5.80444 12.2222 6.11111 12.2222C6.41778 12.2222 6.66667 11.9739 6.66667 11.6667V10.4994C7.93278 10.2411 8.88889 9.11944 8.88889 7.77777C8.88889 6.2461 7.64278 4.99999 6.11111 4.99999ZM6.11111 9.44444C5.19222 9.44444 4.44444 8.69666 4.44444 7.77777C4.44444 6.85888 5.19222 6.1111 6.11111 6.1111C7.03 6.1111 7.77778 6.85888 7.77778 7.77777C7.77778 8.69666 7.03 9.44444 6.11111 9.44444Z" fill="#343434"/>
<path d="M25.0389 15.3739C25.1056 15.4 25.1739 15.4117 25.2411 15.4117C25.4633 15.4117 25.6728 15.2778 25.7589 15.0583C26.02 14.3922 26.2294 13.64 26.3828 12.8228C26.4394 12.5217 26.2406 12.2317 25.9389 12.1744C25.6356 12.1244 25.3472 12.3172 25.2906 12.6189C25.1506 13.3678 24.96 14.0522 24.7244 14.6539C24.6128 14.9389 24.7533 15.2617 25.0389 15.3739Z" fill="#343434"/>
<path d="M7.1139 17.9678C6.44334 18.3883 5.8389 18.915 5.31667 19.5344C5.1189 19.7689 5.1489 20.1194 5.38334 20.3172C5.48778 20.405 5.61501 20.4478 5.74112 20.4478C5.89945 20.4478 6.05612 20.3806 6.16612 20.2506C6.6139 19.7194 7.13112 19.2678 7.70389 18.9094C7.96389 18.7461 8.04223 18.4033 7.87945 18.1433C7.71667 17.8833 7.37334 17.8044 7.1139 17.9678Z" fill="#343434"/>
<path d="M4.79278 21.2644C4.51389 21.1367 4.18389 21.2572 4.05555 21.5361C3.48555 22.7728 3.34444 23.7711 3.33833 23.8133C3.29667 24.1172 3.50889 24.3967 3.81278 24.4383C3.83833 24.4422 3.86444 24.4439 3.88944 24.4439C4.16222 24.4439 4.4 24.2428 4.43944 23.9655C4.44055 23.9567 4.56778 23.0783 5.06444 22.0022C5.19278 21.7228 5.07111 21.3933 4.79278 21.2644Z" fill="#343434"/>
<path d="M22.4572 18.7383C22.5422 18.7383 22.6289 18.7189 22.7094 18.6778C23.4272 18.3105 24.06 17.7894 24.5894 17.13C24.7817 16.8905 24.7433 16.5405 24.5039 16.3489C24.265 16.1583 23.915 16.1955 23.7228 16.4344C23.2917 16.9717 22.7806 17.3933 22.2033 17.6883C21.93 17.8283 21.8217 18.1628 21.9617 18.4361C22.0605 18.6278 22.2556 18.7383 22.4572 18.7383Z" fill="#343434"/>
<path d="M16.2056 17.4622C15.9606 17.3594 15.8172 17.2883 15.8078 17.2833C15.7717 17.265 15.7333 17.25 15.6939 17.24C15.0922 17.0855 14.4994 16.9633 13.9311 16.8767C13.6283 16.8289 13.3444 17.0383 13.2978 17.3417C13.2517 17.645 13.46 17.9289 13.7633 17.975C14.2778 18.0539 14.815 18.1639 15.3617 18.3028C15.4361 18.3383 15.5783 18.4055 15.7772 18.4883C15.8472 18.5178 15.92 18.5311 15.9911 18.5311C16.2083 18.5311 16.415 18.4033 16.5039 18.19C16.6222 17.9056 16.4889 17.58 16.2056 17.4622Z" fill="#343434"/>
<path d="M26.0683 11.0728C26.0806 11.0733 26.0922 11.0739 26.1044 11.0739C26.395 11.0739 26.6394 10.8483 26.6583 10.5533C26.6928 10.0194 26.71 9.45444 26.71 8.87555C26.71 8.68278 26.7083 8.48722 26.7045 8.28778C26.6989 7.98055 26.4322 7.74722 26.1389 7.74222C25.8322 7.74778 25.5878 8.00111 25.5933 8.30778C25.5967 8.50055 25.5989 8.69 25.5989 8.87555C25.5989 9.43111 25.5822 9.97166 25.5494 10.4828C25.53 10.7889 25.7622 11.0528 26.0683 11.0728Z" fill="#343434"/>
<path d="M4.60722 15.9483C4.71555 16.0567 4.85777 16.1111 5 16.1111C5.14222 16.1111 5.28444 16.0567 5.39278 15.9483L6.11111 15.23L6.82944 15.9483C6.93778 16.0567 7.08 16.1111 7.22222 16.1111C7.36444 16.1111 7.50666 16.0567 7.615 15.9483C7.83222 15.7311 7.83222 15.38 7.615 15.1628L6.89666 14.4444L7.615 13.7261C7.83222 13.5089 7.83222 13.1578 7.615 12.9406C7.39778 12.7233 7.04666 12.7233 6.82944 12.9406L6.11111 13.6589L5.39278 12.9406C5.17555 12.7233 4.82444 12.7233 4.60722 12.9406C4.39 13.1578 4.39 13.5089 4.60722 13.7261L5.32555 14.4444L4.60722 15.1628C4.39 15.3794 4.39 15.7311 4.60722 15.9483Z" fill="#343434"/>
<path d="M29.7311 0.634995C29.5644 0.533884 29.3567 0.52944 29.185 0.619995L20 5.48277L10.8156 0.619995C10.8083 0.616106 10.8 0.614995 10.7928 0.611662C10.7661 0.598884 10.7389 0.58944 10.7111 0.581106C10.6956 0.576662 10.6806 0.571662 10.665 0.568328C10.6344 0.562217 10.6033 0.559995 10.5717 0.558884C10.5578 0.558328 10.5439 0.556662 10.5294 0.557217C10.4994 0.558884 10.47 0.56444 10.4406 0.571106C10.4239 0.57444 10.4072 0.576662 10.3911 0.581662C10.3872 0.582773 10.3833 0.582773 10.38 0.583884L0.38 3.91722C0.152778 3.99277 0 4.20499 0 4.44444V28.3333C0 28.5117 0.0855556 28.6794 0.231111 28.7844C0.326667 28.8528 0.440556 28.8889 0.555556 28.8889C0.614444 28.8889 0.673889 28.8794 0.731111 28.86L10.5344 25.5922L19.7883 29.4028C19.7961 29.4061 19.805 29.405 19.8128 29.4078C19.8739 29.4294 19.9361 29.4444 20 29.4444C20.05 29.4444 20.0994 29.4361 20.1478 29.4228C20.1633 29.4183 20.1778 29.4111 20.1933 29.4055C20.2156 29.3972 20.2389 29.3911 20.26 29.38L29.7044 24.38C29.8861 24.2839 30 24.0944 30 23.8889V1.11111C30 0.916106 29.8978 0.735551 29.7311 0.634995ZM1.11111 4.84499L10 1.88222V16.8778C9.76111 16.9211 9.52556 16.97 9.29778 17.03C9.00111 17.1089 8.82444 17.4128 8.90333 17.7094C8.96944 17.9583 9.19389 18.1228 9.44 18.1228C9.48667 18.1228 9.535 18.1167 9.58278 18.1044C9.71611 18.0689 9.86167 18.0511 10 18.0222V24.6L1.11111 27.5622V4.84499ZM11.1111 17.8667C11.2894 17.8528 11.4622 17.83 11.645 17.8261C11.9517 17.8194 12.195 17.5655 12.1889 17.2589C12.1822 16.9561 11.935 16.715 11.6333 16.715C11.6294 16.715 11.625 16.715 11.6211 16.715C11.4489 16.7189 11.2794 16.7283 11.1111 16.74V2.03388L19.4444 6.44555V18.22C19.0478 18.2028 18.6444 18.1561 18.2217 18.0744C17.9194 18.015 17.6289 18.2128 17.5706 18.5139C17.5122 18.815 17.7094 19.1067 18.0106 19.165C18.5028 19.2605 18.9806 19.3072 19.445 19.3255V28.0594L11.1111 24.6278V17.8667ZM28.8889 23.5539L20.5556 27.9655V19.2655C20.7622 19.1717 20.9 18.9605 20.8817 18.7211C20.8656 18.5133 20.7322 18.3467 20.5556 18.265V6.44555L28.8889 2.03388V23.5539Z" stroke="#343434"/>
<path d="M6.11111 4.99999C4.57944 4.99999 3.33333 6.2461 3.33333 7.77777C3.33333 9.11944 4.28944 10.2411 5.55556 10.4994V11.6667C5.55556 11.9739 5.80444 12.2222 6.11111 12.2222C6.41778 12.2222 6.66667 11.9739 6.66667 11.6667V10.4994C7.93278 10.2411 8.88889 9.11944 8.88889 7.77777C8.88889 6.2461 7.64278 4.99999 6.11111 4.99999ZM6.11111 9.44444C5.19222 9.44444 4.44444 8.69666 4.44444 7.77777C4.44444 6.85888 5.19222 6.1111 6.11111 6.1111C7.03 6.1111 7.77778 6.85888 7.77778 7.77777C7.77778 8.69666 7.03 9.44444 6.11111 9.44444Z" stroke="#343434"/>
<path d="M25.0389 15.3739C25.1056 15.4 25.1739 15.4117 25.2411 15.4117C25.4633 15.4117 25.6728 15.2778 25.7589 15.0583C26.02 14.3922 26.2294 13.64 26.3828 12.8228C26.4394 12.5217 26.2406 12.2317 25.9389 12.1744C25.6356 12.1244 25.3472 12.3172 25.2906 12.6189C25.1506 13.3678 24.96 14.0522 24.7244 14.6539C24.6128 14.9389 24.7533 15.2617 25.0389 15.3739Z" stroke="#343434"/>
<path d="M7.1139 17.9678C6.44334 18.3883 5.8389 18.915 5.31667 19.5344C5.1189 19.7689 5.1489 20.1194 5.38334 20.3172C5.48778 20.405 5.61501 20.4478 5.74112 20.4478C5.89945 20.4478 6.05612 20.3806 6.16612 20.2506C6.6139 19.7194 7.13112 19.2678 7.70389 18.9094C7.96389 18.7461 8.04223 18.4033 7.87945 18.1433C7.71667 17.8833 7.37334 17.8044 7.1139 17.9678Z" stroke="#343434"/>
<path d="M4.79278 21.2644C4.51389 21.1367 4.18389 21.2572 4.05555 21.5361C3.48555 22.7728 3.34444 23.7711 3.33833 23.8133C3.29667 24.1172 3.50889 24.3967 3.81278 24.4383C3.83833 24.4422 3.86444 24.4439 3.88944 24.4439C4.16222 24.4439 4.4 24.2428 4.43944 23.9655C4.44055 23.9567 4.56778 23.0783 5.06444 22.0022C5.19278 21.7228 5.07111 21.3933 4.79278 21.2644Z" stroke="#343434"/>
<path d="M22.4572 18.7383C22.5422 18.7383 22.6289 18.7189 22.7094 18.6778C23.4272 18.3105 24.06 17.7894 24.5894 17.13C24.7817 16.8905 24.7433 16.5405 24.5039 16.3489C24.265 16.1583 23.915 16.1955 23.7228 16.4344C23.2917 16.9717 22.7806 17.3933 22.2033 17.6883C21.93 17.8283 21.8217 18.1628 21.9617 18.4361C22.0605 18.6278 22.2556 18.7383 22.4572 18.7383Z" stroke="#343434"/>
<path d="M16.2056 17.4622C15.9606 17.3594 15.8172 17.2883 15.8078 17.2833C15.7717 17.265 15.7333 17.25 15.6939 17.24C15.0922 17.0855 14.4994 16.9633 13.9311 16.8767C13.6283 16.8289 13.3444 17.0383 13.2978 17.3417C13.2517 17.645 13.46 17.9289 13.7633 17.975C14.2778 18.0539 14.815 18.1639 15.3617 18.3028C15.4361 18.3383 15.5783 18.4055 15.7772 18.4883C15.8472 18.5178 15.92 18.5311 15.9911 18.5311C16.2083 18.5311 16.415 18.4033 16.5039 18.19C16.6222 17.9056 16.4889 17.58 16.2056 17.4622Z" stroke="#343434"/>
<path d="M26.0683 11.0728C26.0806 11.0733 26.0922 11.0739 26.1044 11.0739C26.395 11.0739 26.6394 10.8483 26.6583 10.5533C26.6928 10.0194 26.71 9.45444 26.71 8.87555C26.71 8.68278 26.7083 8.48722 26.7045 8.28778C26.6989 7.98055 26.4322 7.74722 26.1389 7.74222C25.8322 7.74778 25.5878 8.00111 25.5933 8.30778C25.5967 8.50055 25.5989 8.69 25.5989 8.87555C25.5989 9.43111 25.5822 9.97166 25.5494 10.4828C25.53 10.7889 25.7622 11.0528 26.0683 11.0728Z" stroke="#343434"/>
<path d="M4.60722 15.9483C4.71555 16.0567 4.85777 16.1111 5 16.1111C5.14222 16.1111 5.28444 16.0567 5.39278 15.9483L6.11111 15.23L6.82944 15.9483C6.93778 16.0567 7.08 16.1111 7.22222 16.1111C7.36444 16.1111 7.50666 16.0567 7.615 15.9483C7.83222 15.7311 7.83222 15.38 7.615 15.1628L6.89666 14.4444L7.615 13.7261C7.83222 13.5089 7.83222 13.1578 7.615 12.9406C7.39778 12.7233 7.04666 12.7233 6.82944 12.9406L6.11111 13.6589L5.39278 12.9406C5.17555 12.7233 4.82444 12.7233 4.60722 12.9406C4.39 13.1578 4.39 13.5089 4.60722 13.7261L5.32555 14.4444L4.60722 15.1628C4.39 15.3794 4.39 15.7311 4.60722 15.9483Z" stroke="#343434"/>
</g>
</g>
</svg>
