<svg width="30" height="30" viewBox="0 0 30 30" fill="none" xmlns="http://www.w3.org/2000/svg">
<path d="M14.9999 0C6.72901 0 0 6.72901 0 14.9999C0 23.2709 6.72901 29.9999 14.9999 29.9999C23.2709 29.9999 29.9999 23.2709 29.9999 14.9999C29.9999 6.72901 23.271 0 14.9999 0ZM14.9999 28.0259C7.81744 28.0259 1.9741 22.1824 1.9741 14.9999C1.9741 7.81744 7.81744 1.9741 14.9999 1.9741C22.1824 1.9741 28.0258 7.81744 28.0258 14.9999C28.0258 22.1824 22.1824 28.0259 14.9999 28.0259Z" fill="#343434"/>
<path d="M15.987 14.1143V8.51007C16.5455 8.71749 17.0328 9.09807 17.3717 9.61275C17.6716 10.0681 18.2837 10.1941 18.7389 9.89434C19.1942 9.59456 19.3203 8.98244 19.0203 8.52713C18.3112 7.4504 17.2186 6.71942 15.987 6.4618V4.8938C15.987 4.34866 15.5451 3.90675 14.9999 3.90675C14.4548 3.90675 14.0129 4.34866 14.0129 4.8938V6.45884C11.8283 6.91429 10.182 8.85441 10.182 11.1721C10.182 13.4899 11.8284 15.4303 14.0129 15.8857V21.4899C13.4544 21.2825 12.967 20.9019 12.6282 20.3873C12.3283 19.9319 11.7162 19.8057 11.261 20.1057C10.8057 20.4054 10.6796 21.0176 10.9795 21.4729C11.6887 22.5496 12.7813 23.2806 14.0129 23.5382V25.1061C14.0129 25.6512 14.4548 26.0931 14.9999 26.0931C15.5451 26.0931 15.987 25.6512 15.987 25.1061V23.5412C18.1716 23.0857 19.8179 21.1456 19.8179 18.8279C19.8179 16.5101 18.1716 14.5697 15.987 14.1143ZM12.1561 11.1721C12.1561 9.95201 12.9308 8.91222 14.0129 8.51078V13.8335C12.9308 13.4321 12.1561 12.3923 12.1561 11.1721ZM15.987 21.4891V16.1663C17.0691 16.5678 17.8438 17.6076 17.8438 18.8277C17.8438 20.0479 17.0692 21.0876 15.987 21.4891Z" fill="#343434"/>
</svg>
