<svg width="30" height="30" viewBox="0 0 30 30" fill="none" xmlns="http://www.w3.org/2000/svg">
<path d="M25.3125 10.5541H20.3906V12.8052H25.3125V10.5541Z" fill="#343434"/>
<path d="M26.4844 6.05195H19.2773C19.1408 6.05195 19.0179 5.98042 18.9546 5.86477L17.7619 3.45763C17.7587 3.45099 17.7553 3.44446 17.7519 3.43793C17.2902 2.55101 16.362 2 15.3295 2H8.96203C7.92955 2 7.00137 2.55101 6.53959 3.43788C6.53625 3.44446 6.53291 3.45099 6.52963 3.45758L5.33684 5.86477C5.27361 5.98042 5.15068 6.05195 5.01416 6.05195H3.51562C1.57711 6.05195 0 7.5667 0 9.42857V24.6234C0 26.4852 1.57711 28 3.51562 28H26.4844C28.4229 28 30 26.4852 30 24.6234V9.42857C30 7.5667 28.4229 6.05195 26.4844 6.05195ZM27.6562 24.6234C27.6562 25.244 27.1305 25.7489 26.4844 25.7489H3.51562C2.86945 25.7489 2.34375 25.244 2.34375 24.6234V9.42857C2.34375 8.80795 2.86945 8.30303 3.51562 8.30303H5.01416C6.04664 8.30303 6.97482 7.75202 7.4366 6.86515C7.43994 6.85857 7.44328 6.85204 7.44656 6.84545L8.63936 4.43826C8.70258 4.32261 8.82551 4.25108 8.96203 4.25108H15.3295C15.466 4.25108 15.5889 4.32261 15.6521 4.43826L16.845 6.8454C16.8482 6.85204 16.8516 6.85857 16.855 6.8651C17.3167 7.75202 18.2449 8.30303 19.2773 8.30303H26.4844C27.1305 8.30303 27.6562 8.80795 27.6562 9.42857V24.6234Z" fill="#343434"/>
<path d="M12.0117 9.42857C7.97314 9.42857 4.6875 12.5843 4.6875 16.4632C4.6875 20.3421 7.97314 23.4978 12.0117 23.4978C16.0503 23.4978 19.3359 20.3421 19.3359 16.4632C19.3359 12.5843 16.0503 9.42857 12.0117 9.42857ZM12.0117 21.2468C9.26549 21.2468 7.03125 19.1009 7.03125 16.4632C7.03125 13.8256 9.26549 11.6797 12.0117 11.6797C14.7579 11.6797 16.9922 13.8256 16.9922 16.4632C16.9922 19.1009 14.7579 21.2468 12.0117 21.2468Z" fill="#343434"/>
</svg>
