<svg width="30" height="30" viewBox="0 0 30 30" fill="none" xmlns="http://www.w3.org/2000/svg">
<path d="M27.3 11.0092L7.79998 0.550421C6.90004 0.27521 5.99993 0 5.09999 0C2.40001 0 0 1.92663 0 4.67889V25.3211C0 27.7982 2.10003 30 5.09999 30C5.99993 30 6.90004 29.7248 7.79998 29.7248L27.3 19.2662C29.1001 18.4405 30 16.7891 30 15.1377C30 13.4863 28.7999 11.8348 27.3 11.0092ZM25.7999 16.2385L6.29991 26.6972C5.09999 27.5228 2.99997 26.6972 2.99997 25.0457V4.40368C2.99997 3.30284 3.8999 2.47705 5.09999 2.47705C5.69995 2.47705 5.99993 2.47705 6.29991 2.47705L25.7999 12.9357C26.6999 13.2109 26.9999 14.0365 26.9999 14.5871C27 15.1377 26.4001 15.9633 25.7999 16.2385Z" fill="#343434"/>
</svg>
