<svg width="31" height="31" viewBox="0 0 31 31" fill="none" xmlns="http://www.w3.org/2000/svg">
<g id="plus">
<path id="Vector" d="M29.3719 13.907H18.093V2.62791C18.093 2.1141 17.3953 1 15.9999 1C14.6046 1 13.9069 2.11416 13.9069 2.62791V13.907H2.6279C2.11416 13.907 1 14.6047 1 15.9999C1 17.3952 2.11416 18.093 2.6279 18.093H13.907V29.3721C13.907 29.8858 14.6046 31 16 31C17.3954 31 18.093 29.8858 18.093 29.3721V18.093H29.3721C29.8858 18.093 31 17.3953 31 15.9999C31 14.6045 29.8857 13.907 29.3719 13.907Z" fill="#343434"/>
</g>
</svg>
