<svg width="30" height="32" viewBox="0 0 30 32" fill="none" xmlns="http://www.w3.org/2000/svg">
<path d="M16.1719 1H13.8281V17.1719H16.1719V1Z" fill="#343434"/>
<path d="M25.1508 6.49376C23.2888 4.63171 21.0053 3.34428 18.5156 2.72038V5.15817C23.4289 6.66497 27.0117 11.244 27.0117 16.6445C27.0117 23.2678 21.6233 28.6563 15 28.6563C8.37674 28.6563 2.98828 23.2678 2.98828 16.6445C2.98828 11.244 6.57105 6.66497 11.4844 5.15817V2.72038C8.99467 3.34428 6.71121 4.63171 4.84922 6.49376C2.13779 9.20518 0.644531 12.8102 0.644531 16.6445C0.644531 20.4789 2.13779 24.0839 4.84922 26.7953C7.56064 29.5067 11.1656 31 15 31C18.8344 31 22.4394 29.5067 25.1508 26.7953C27.8622 24.0839 29.3555 20.4789 29.3555 16.6445C29.3555 12.8102 27.8622 9.20518 25.1508 6.49376Z" fill="#343434"/>
<path d="M16.1719 1H13.8281V17.1719H16.1719V1Z" stroke="#343434" stroke-width="0.5"/>
<path d="M25.1508 6.49376C23.2888 4.63171 21.0053 3.34428 18.5156 2.72038V5.15817C23.4289 6.66497 27.0117 11.244 27.0117 16.6445C27.0117 23.2678 21.6233 28.6563 15 28.6563C8.37674 28.6563 2.98828 23.2678 2.98828 16.6445C2.98828 11.244 6.57105 6.66497 11.4844 5.15817V2.72038C8.99467 3.34428 6.71121 4.63171 4.84922 6.49376C2.13779 9.20518 0.644531 12.8102 0.644531 16.6445C0.644531 20.4789 2.13779 24.0839 4.84922 26.7953C7.56064 29.5067 11.1656 31 15 31C18.8344 31 22.4394 29.5067 25.1508 26.7953C27.8622 24.0839 29.3555 20.4789 29.3555 16.6445C29.3555 12.8102 27.8622 9.20518 25.1508 6.49376Z" stroke="#343434" stroke-width="0.5"/>
</svg>
