<svg width="30" height="30" viewBox="0 0 30 30" fill="none" xmlns="http://www.w3.org/2000/svg">
<path d="M7.49791 26V21.7143H22.4979V26H7.49791ZM7.49791 15.2857V4.57143H18.2122V7.25C18.2122 8.13728 18.9321 8.85714 19.8193 8.85714H22.4979V15.2857H7.49791ZM26.7836 16.3571C26.7836 16.9431 26.2981 17.4286 25.7122 17.4286C25.1263 17.4286 24.6408 16.9431 24.6408 16.3571C24.6408 15.7712 25.1263 15.2857 25.7122 15.2857C26.2981 15.2857 26.7836 15.7712 26.7836 16.3571ZM28.9265 16.3571C28.9265 14.5993 27.47 13.1429 25.7122 13.1429H24.6408V8.85714C24.6408 7.96987 24.1385 6.74777 23.5024 6.11161L20.9577 3.56696C20.3216 2.9308 19.0995 2.42857 18.2122 2.42857H6.96219C6.07492 2.42857 5.35505 3.14844 5.35505 4.03571V13.1429H4.28362C2.52581 13.1429 1.06934 14.5993 1.06934 16.3571V23.3214C1.06934 23.606 1.32045 23.8571 1.60505 23.8571H5.35505V26.5357C5.35505 27.423 6.07492 28.1429 6.96219 28.1429H23.0336C23.9209 28.1429 24.6408 27.423 24.6408 26.5357V23.8571H28.3908C28.6754 23.8571 28.9265 23.606 28.9265 23.3214V16.3571Z" fill="#343434"/>
</svg>
