<svg width="30" height="32" viewBox="0 0 30 32" fill="none" xmlns="http://www.w3.org/2000/svg">
<path d="M24.5998 1H5.40049C3.74555 1 2.39978 2.34561 2.39978 3.99972V28.0008C2.39978 29.6544 3.74539 30.9998 5.40049 30.9998H24.5998C26.2545 30.9998 27.6001 29.6544 27.6001 28.0008V4.00071C27.6009 2.34644 26.2554 1 24.5998 1ZM26.4007 28.0008C26.4007 28.9937 25.5929 29.8009 24.5998 29.8009H5.40049C4.40776 29.8009 3.6005 28.9937 3.6005 28.0008V4.00071C3.6005 3.00798 4.40776 2.20072 5.40049 2.20072H24.5998C25.5921 2.20072 26.3993 3.00798 26.3993 4.00071V28.0009L26.4007 28.0008Z" fill="#343434"/>
<path d="M21.3271 14.117H8.67444C8.36991 14.117 8.12401 14.3639 8.12401 14.6684C8.12401 14.9727 8.36991 15.2198 8.67444 15.2198H21.3269C21.6318 15.2198 21.8777 14.9729 21.8777 14.6684C21.8778 14.364 21.6318 14.117 21.3271 14.117Z" fill="#343434"/>
<path d="M21.3271 16.6297H8.67444C8.36991 16.6297 8.12401 16.8771 8.12401 17.1816C8.12401 17.4861 8.36991 17.7324 8.67444 17.7324H21.3269C21.6318 17.7324 21.8777 17.4861 21.8777 17.1816C21.877 16.8754 21.6318 16.6297 21.3271 16.6297Z" fill="#343434"/>
<path d="M21.3271 19.1416H8.67444C8.36991 19.1416 8.12401 19.389 8.12401 19.6931C8.12401 19.9977 8.36991 20.2442 8.67444 20.2442H21.3269C21.6318 20.2442 21.8777 19.9977 21.8777 19.6931C21.8778 19.389 21.6318 19.1416 21.3271 19.1416Z" fill="#343434"/>
<path d="M21.3271 21.6541H15.0002C14.6962 21.6541 14.4492 21.9005 14.4492 22.205C14.4492 22.5095 14.6962 22.7569 15.0002 22.7569H21.3269C21.6318 22.7569 21.8768 22.5095 21.8768 22.205C21.8768 21.9005 21.6318 21.6541 21.3271 21.6541Z" fill="#343434"/>
<path d="M21.3271 26.6161H16.898C16.5924 26.6161 16.3472 26.8627 16.3472 27.1672C16.3472 27.4714 16.5924 27.7179 16.898 27.7179H21.3271C21.6319 27.7179 21.877 27.4714 21.877 27.1672C21.877 26.8627 21.6318 26.6161 21.3271 26.6161Z" fill="#343434"/>
<path d="M15.6148 11.6945C15.6148 10.6516 14.4141 9.24489 12.7932 8.83388C13.4703 8.3785 13.937 7.47917 13.937 6.66925C13.937 5.52699 13.012 4.6 11.8687 4.6C10.7268 4.6 9.80046 5.52699 9.80046 6.66925C9.80046 7.47834 10.2671 8.37768 10.9427 8.83388C9.32422 9.24472 8.12267 10.6524 8.12267 11.6945C8.124 12.9268 15.6148 12.9268 15.6148 11.6945ZM11.702 9.43416H11.6925L11.3501 9.04088C11.5175 9.10016 11.6882 9.13642 11.8689 9.13642C12.0499 9.13642 12.2208 9.10115 12.3879 9.0417L12.0444 9.43399H12.0363L12.9201 11.5693L11.8689 12.6179L10.8189 11.5693L11.702 9.43416Z" fill="#343434"/>
<path d="M24.5998 1H5.40049C3.74555 1 2.39978 2.34561 2.39978 3.99972V28.0008C2.39978 29.6544 3.74539 30.9998 5.40049 30.9998H24.5998C26.2545 30.9998 27.6001 29.6544 27.6001 28.0008V4.00071C27.6009 2.34644 26.2554 1 24.5998 1ZM26.4007 28.0008C26.4007 28.9937 25.5929 29.8009 24.5998 29.8009H5.40049C4.40776 29.8009 3.6005 28.9937 3.6005 28.0008V4.00071C3.6005 3.00798 4.40776 2.20072 5.40049 2.20072H24.5998C25.5921 2.20072 26.3993 3.00798 26.3993 4.00071V28.0009L26.4007 28.0008Z" stroke="#343434" stroke-width="0.7"/>
<path d="M21.3271 14.117H8.67444C8.36991 14.117 8.12401 14.3639 8.12401 14.6684C8.12401 14.9727 8.36991 15.2198 8.67444 15.2198H21.3269C21.6318 15.2198 21.8777 14.9729 21.8777 14.6684C21.8778 14.364 21.6318 14.117 21.3271 14.117Z" stroke="#343434" stroke-width="0.7"/>
<path d="M21.3271 16.6297H8.67444C8.36991 16.6297 8.12401 16.8771 8.12401 17.1816C8.12401 17.4861 8.36991 17.7324 8.67444 17.7324H21.3269C21.6318 17.7324 21.8777 17.4861 21.8777 17.1816C21.877 16.8754 21.6318 16.6297 21.3271 16.6297Z" stroke="#343434" stroke-width="0.7"/>
<path d="M21.3271 19.1416H8.67444C8.36991 19.1416 8.12401 19.389 8.12401 19.6931C8.12401 19.9977 8.36991 20.2442 8.67444 20.2442H21.3269C21.6318 20.2442 21.8777 19.9977 21.8777 19.6931C21.8778 19.389 21.6318 19.1416 21.3271 19.1416Z" stroke="#343434" stroke-width="0.7"/>
<path d="M21.3271 21.6541H15.0002C14.6962 21.6541 14.4492 21.9005 14.4492 22.205C14.4492 22.5095 14.6962 22.7569 15.0002 22.7569H21.3269C21.6318 22.7569 21.8768 22.5095 21.8768 22.205C21.8768 21.9005 21.6318 21.6541 21.3271 21.6541Z" stroke="#343434" stroke-width="0.7"/>
<path d="M21.3271 26.6161H16.898C16.5924 26.6161 16.3472 26.8627 16.3472 27.1672C16.3472 27.4714 16.5924 27.7179 16.898 27.7179H21.3271C21.6319 27.7179 21.877 27.4714 21.877 27.1672C21.877 26.8627 21.6318 26.6161 21.3271 26.6161Z" stroke="#343434" stroke-width="0.7"/>
<path d="M15.6148 11.6945C15.6148 10.6516 14.4141 9.24489 12.7932 8.83388C13.4703 8.3785 13.937 7.47917 13.937 6.66925C13.937 5.52699 13.012 4.6 11.8687 4.6C10.7268 4.6 9.80046 5.52699 9.80046 6.66925C9.80046 7.47834 10.2671 8.37768 10.9427 8.83388C9.32422 9.24472 8.12267 10.6524 8.12267 11.6945C8.124 12.9268 15.6148 12.9268 15.6148 11.6945ZM11.702 9.43416H11.6925L11.3501 9.04088C11.5175 9.10016 11.6882 9.13642 11.8689 9.13642C12.0499 9.13642 12.2208 9.10115 12.3879 9.0417L12.0444 9.43399H12.0363L12.9201 11.5693L11.8689 12.6179L10.8189 11.5693L11.702 9.43416Z" stroke="#343434" stroke-width="0.7"/>
</svg>
