<svg width="30" height="30" viewBox="0 0 30 30" fill="none" xmlns="http://www.w3.org/2000/svg">

<path d="M6.85547 10.0195C6.85547 7.07932 9.24728 4.6875 12.1875 4.6875V7.03125C10.5398 7.03125 9.19922 8.37181 9.19922 10.0195H6.85547ZM18.4884 15.1563C19.2709 15.4083 20.0999 15.5557 20.9589 15.5816C20.4018 16.6068 19.7431 17.4747 19.1185 18.2966C17.8688 19.9413 16.8814 21.2405 16.8814 23.4032V26.4844C16.8814 28.423 15.3044 30 13.3658 30H11.1262C9.18777 30 7.61055 28.423 7.61055 26.4844V23.4032C7.61055 21.2405 6.62338 19.9413 5.37369 18.2966C3.87932 16.33 2.18674 14.1028 2.1682 10.0781H2.16797L2.1682 10.0111C2.20436 4.48471 6.71127 0 12.2461 0C13.1431 0 14.0131 0.118561 14.8414 0.339432C14.2381 0.953064 13.7224 1.65253 13.3143 2.41791C12.965 2.36938 12.6086 2.34375 12.2461 2.34375C7.99118 2.34375 4.52774 5.79712 4.51172 10.0484C4.52179 13.3017 5.84221 15.0394 7.23976 16.8784C8.3242 18.3055 9.43863 19.772 9.81834 21.8555H14.6738C15.0536 19.772 16.168 18.3055 17.2524 16.8784C17.6839 16.3106 18.108 15.7523 18.4884 15.1563ZM14.5377 26.4844V24.1992H9.9543V26.4844C9.9543 27.1305 10.48 27.6562 11.1262 27.6562H13.3658C14.0121 27.6562 14.5377 27.1305 14.5377 26.4844ZM25.7698 7.79297C25.659 8.22235 25.4878 8.62747 25.2672 9.00032L26.7551 10.4883L25.098 12.1456L23.6098 10.6577C23.2315 10.8815 22.8195 11.0541 22.3828 11.1649V13.2422H20.0391V11.1546C19.617 11.0435 19.2185 10.8746 18.8516 10.6577L17.3637 12.1456L15.7063 10.4883L17.1943 9.00032C16.9736 8.62747 16.8024 8.22235 16.6917 7.79297H14.5898V5.44922H16.6917C16.8024 5.01984 16.9736 4.61472 17.1943 4.24187L15.7063 2.75391L17.3637 1.09657L18.8516 2.58453C19.2355 2.35748 19.6541 2.18353 20.0977 2.07298V0H22.4414V2.0929C22.8564 2.2039 23.2484 2.37076 23.6098 2.58453L25.098 1.09657L26.7551 2.75391L25.2672 4.24187C25.4878 4.61472 25.659 5.01984 25.7698 5.44922H27.8716V7.79297H25.7698ZM21.2309 8.96484C22.5231 8.96484 23.5746 7.91336 23.5746 6.62109C23.5746 5.32883 22.5231 4.27734 21.2309 4.27734C20.7275 4.27734 20.2613 4.43733 19.8791 4.7081L19.3179 5.26932C19.0469 5.65155 18.8871 6.11778 18.8871 6.62109C18.8871 7.91336 19.9384 8.96484 21.2309 8.96484Z" fill="#343434"/>

</svg>
