<svg width="30" height="30" viewBox="0 0 30 30" fill="none" xmlns="http://www.w3.org/2000/svg">
<path d="M0 0V9.96094H9.96094V0H0ZM7.61719 7.61719H2.34375V2.34375H7.61719V7.61719Z" fill="#343434"/>
<path d="M6.15234 3.80859H3.80859V6.15234H6.15234V3.80859Z" fill="#343434"/>
<path d="M20.0391 0V9.96094H30V0H20.0391ZM27.6562 7.61719H22.3828V2.34375H27.6562V7.61719Z" fill="#343434"/>
<path d="M26.1914 3.80859H23.8477V6.15234H26.1914V3.80859Z" fill="#343434"/>
<path d="M0 20.0391V30H9.96094V20.0391H0ZM7.61719 27.6562H2.34375V22.3828H7.61719V27.6562Z" fill="#343434"/>
<path d="M6.15234 23.8477H3.80859V26.1914H6.15234V23.8477Z" fill="#343434"/>
<path d="M4.6875 11.543H2.34375V13.8867H4.6875V11.543Z" fill="#343434"/>
<path d="M7.03125 16.2305V13.8867H4.6875V16.2305H6.97266V18.5742H9.31641V16.2305H7.03125Z" fill="#343434"/>
<path d="M18.75 4.51172H16.4062V6.85547H18.75V4.51172Z" fill="#343434"/>
<path d="M14.0625 2.34375H11.7188V6.85547H14.0625V2.34375Z" fill="#343434"/>
<path d="M16.4062 0H14.0625V2.34375H16.4062V0Z" fill="#343434"/>
<path d="M14.0625 6.85547V9.19922H11.7188V11.543H16.4062V6.85547H14.0625Z" fill="#343434"/>
<path d="M16.4062 20.8008V18.5156H14.0625V13.8867H11.7188V18.5742H14.0625V20.8594H16.4062V23.1445H21.0938V20.8008H16.4062Z" fill="#343434"/>
<path d="M18.75 11.543H16.4062V16.2305H18.75V11.543Z" fill="#343434"/>
<path d="M27.6562 13.8281V11.543H23.3789V13.8867H21.0938V16.2305H23.4375V18.5156H30V13.8281H27.6562ZM27.6562 16.1719H23.4375V13.8867H27.6562V16.1719Z" fill="#343434"/>
<path d="M30 20.8008H27.6562V25.4883H30V20.8008Z" fill="#343434"/>
<path d="M21.0938 16.2305H18.75V18.5742H21.0938V16.2305Z" fill="#343434"/>
<path d="M23.4375 23.1445H21.0938V25.4883H23.4375V23.1445Z" fill="#343434"/>
<path d="M25.7812 20.8008H23.4375V23.1445H25.7812V20.8008Z" fill="#343434"/>
<path d="M23.4375 25.4883V30H25.7812V27.832H27.6562V25.4883H23.4375Z" fill="#343434"/>
<path d="M14.0625 20.8594H11.7188V25.3125H14.0625V20.8594Z" fill="#343434"/>
<path d="M18.75 27.6562V25.3125H14.0625V30H16.4062V27.6562H18.6914V30H21.0352V27.6562H18.75Z" fill="#343434"/>
<path d="M11.7188 11.543H7.03125V13.8867H11.7188V11.543Z" fill="#343434"/>
<path d="M2.34375 13.8867H0V18.5742H2.34375V13.8867Z" fill="#343434"/>
</svg>
