<svg width="30" height="30" viewBox="0 0 30 30" fill="none" xmlns="http://www.w3.org/2000/svg">
<path d="M16.539 29.9187C22.995 29.2671 28.169 24.6167 28.9053 18.7993C29.8718 11.1929 23.3106 4.71795 15.0861 4.63501V1.22277C15.0861 1.03321 14.8231 0.932497 14.6456 1.05098L6.8484 6.2108C6.71691 6.29966 6.71691 6.47145 6.8484 6.56031L14.6456 11.7201C14.8231 11.8386 15.0861 11.732 15.0861 11.5483V8.14203C20.8649 8.22496 25.4932 12.6561 25.0988 17.9522C24.7635 22.5078 20.6414 26.2044 15.5857 26.4946C10.2276 26.8027 5.67159 23.3549 4.85637 18.7934C4.70516 17.9463 3.88337 17.3302 2.93666 17.3302C1.75985 17.3302 0.839444 18.2721 1.02353 19.3207C2.16746 25.8193 8.82727 30.6948 16.539 29.9187Z" fill="#343434"/>
</svg>
