<svg width="30" height="30" viewBox="0 0 30 30" fill="none" xmlns="http://www.w3.org/2000/svg">
<path d="M19.4558 13.1812C19.778 13.4996 20.3002 13.4995 20.6222 13.1808L24.5831 9.26164L25.8524 10.5167C26.1131 10.7746 26.4971 10.8676 26.849 10.7591C27.2009 10.6496 27.4625 10.3571 27.5279 9.99804L28.9859 2.03388C29.0376 1.74946 28.9454 1.4587 28.7382 1.25552C28.5318 1.05143 28.237 0.962076 27.9505 1.0149L19.9426 2.49964C19.5806 2.5671 19.2868 2.82601 19.1782 3.17406C19.0695 3.52142 19.1643 3.90056 19.4241 4.15754L20.6924 5.41257L16.7296 9.33225C16.4072 9.65119 16.4073 10.1685 16.7299 10.4873L19.4558 13.1812Z" fill="#343434"/>
<path d="M10.5441 16.819C10.2218 16.5005 9.69967 16.5006 9.37758 16.8193L5.41693 20.7385L4.14768 19.4834C3.88688 19.2254 3.50291 19.1324 3.15106 19.2409C2.79909 19.3503 2.5376 19.6428 2.47209 20.002L1.01402 27.9662C0.962545 28.2505 1.05464 28.5413 1.26182 28.7444C1.46819 28.9485 1.76296 29.038 2.04941 28.9851L10.0574 27.5003C10.4195 27.4329 10.7132 27.1739 10.8219 26.8258C10.9306 26.4785 10.8358 26.0995 10.5759 25.8424L9.30767 24.5874L13.2746 20.674C13.5978 20.3551 13.5981 19.8372 13.2752 19.5181L10.5441 16.819Z" fill="#343434"/>
</svg>
