<svg width="30" height="30" viewBox="0 0 30 30" fill="none" xmlns="http://www.w3.org/2000/svg">
<path d="M20.3063 5.5814C21.8859 5.5814 23.1665 4.33196 23.1665 2.7907C23.1665 1.24944 21.8859 0 20.3063 0C18.7266 0 17.4461 1.24944 17.4461 2.7907C17.4461 4.33196 18.7266 5.5814 20.3063 5.5814Z" fill="#343434"/>
<path d="M27.2423 6.62791C26.5272 6.27907 25.6692 6.52326 25.3116 7.22093L24.0603 9.52326L18.5544 6.13953C18.3399 6 18.0896 5.93023 17.8036 5.93023H11.7257C11.1894 5.93023 10.7247 6.2093 10.4744 6.66279L8.15048 10.8488C7.7572 11.5116 8.04322 12.3837 8.72252 12.7326C8.93703 12.8372 9.1873 12.907 9.40181 12.907C9.90234 12.907 10.4029 12.6279 10.6531 12.1744L12.5838 8.72093H14.6932L8.36499 20.2326H2.4301C1.64354 20.2326 1 20.8605 1 21.6279C1 22.3953 1.64354 23.0233 2.4301 23.0233H9.22305C9.75934 23.0233 10.2241 22.7442 10.4744 22.2907L12.9771 17.7907L17.0886 21.5233L16.7668 28.5349C16.6953 29.3023 17.3031 29.9651 18.0896 30C18.1254 30 18.1254 30 18.1611 30C18.9119 30 19.5555 29.407 19.5912 28.6744L19.9488 21C19.9845 20.5814 19.8058 20.1977 19.484 19.9186L16.016 16.7791L19.6627 10.1512L23.81 12.6977C24.1318 12.907 24.5608 12.9767 24.9541 12.8721C25.3474 12.7674 25.6691 12.5233 25.8479 12.1744L27.8143 8.51163C28.2076 7.84884 27.9573 7.01163 27.2423 6.62791Z" fill="#343434"/>
</svg>
