<svg width="30" height="31" viewBox="0 0 30 31" fill="none" xmlns="http://www.w3.org/2000/svg">
<path d="M25.6807 1H3.51562C1.57711 1 0 2.57711 0 4.51562V27.4844C0 29.4229 1.57711 31 3.51562 31H26.4844C28.4229 31 30 29.4229 30 27.4844V5.3193L25.6807 1ZM7.03125 3.34375H20.5078V10.2578H7.03125V3.34375ZM22.9688 28.6562H7.03125V19.3984H22.9688V28.6562ZM27.6562 27.4844C27.6562 28.1305 27.1305 28.6562 26.4844 28.6562H25.3125V17.0547H4.6875V28.6562H3.51562C2.86945 28.6562 2.34375 28.1305 2.34375 27.4844V4.51562C2.34375 3.86945 2.86945 3.34375 3.51562 3.34375H4.6875V12.6016H22.8516V3.34375H24.7099L27.6562 6.29008V27.4844Z" fill="#343434"/>
<path d="M18.3984 4.45703H16.0547V9.08594H18.3984V4.45703Z" fill="#343434"/>
</svg>
