<svg width="30" height="30" viewBox="0 0 30 30" fill="none" xmlns="http://www.w3.org/2000/svg">
<path d="M5.85856 22.3838C4.88784 22.3838 4.10098 23.171 4.10098 24.1416C4.10098 25.1122 4.88784 25.899 5.85856 25.899C6.82928 25.899 7.61613 25.1122 7.61613 24.1416C7.61613 23.1711 6.82928 22.3838 5.85856 22.3838Z" fill="#343434"/>
<path d="M24.1413 18.2812C23.1826 18.2812 22.2422 18.5186 21.4034 18.9628L19.143 15.8905L25.3864 7.30571L25.4242 7.23539C26.7202 4.82162 25.8154 1.7952 23.4073 0.488967L22.5087 0.00152588L14.9923 10.2445L7.48781 0.00797119L6.58875 0.495647C4.18061 1.80199 3.27586 4.82842 4.57178 7.24207L4.60934 7.31197L10.8432 15.8988L8.59529 18.9621C7.75676 18.5183 6.81691 18.2811 5.85861 18.2811C2.62816 18.2811 0 20.9093 0 24.1397C0 27.3702 2.62816 29.9984 5.85861 29.9984C7.90236 29.9984 9.76834 28.9084 11.1151 26.9286L14.9947 21.5944L18.8853 26.9293C20.232 28.9088 22.0979 29.9984 24.1413 29.9984C27.3718 29.9984 29.9999 27.3703 29.9999 24.1398C29.9999 20.9093 27.3718 18.2812 24.1413 18.2812ZM6.60311 6.06949C6.12234 5.11301 6.27938 3.9893 6.92355 3.20203L13.5386 12.2255L12.2988 13.915L6.60311 6.06949ZM9.20871 25.5657L9.18604 25.598C8.6659 26.3662 7.54201 27.655 5.85855 27.655C3.92027 27.655 2.3434 26.078 2.3434 24.1398C2.3434 22.2016 3.92027 20.6246 5.85855 20.6246C6.68461 20.6246 7.48822 20.919 8.1215 21.4536L9.07992 22.2627L23.072 3.19489C23.7163 3.98203 23.8735 5.1058 23.393 6.0624L9.20871 25.5657ZM24.1413 27.655C22.4579 27.655 21.334 26.3662 20.8138 25.598L20.8024 25.5811L16.4428 19.6031L17.6967 17.8791L20.9212 22.2618L21.8784 21.4537C22.5117 20.9191 23.3153 20.6247 24.1413 20.6247C26.0796 20.6247 27.6565 22.2016 27.6565 24.1399C27.6565 26.0781 26.0796 27.655 24.1413 27.655Z" fill="#343434"/>
<path d="M24.1414 22.3838C23.1707 22.3838 22.3838 23.1702 22.3838 24.1408C22.3838 25.1114 23.1707 25.8991 24.1414 25.8991C25.1121 25.8991 25.899 25.1123 25.899 24.1417C25.899 23.1711 25.1121 22.3838 24.1414 22.3838Z" fill="#343434"/>
</svg>
