<svg width="30" height="30" viewBox="0 0 30 30" fill="none" xmlns="http://www.w3.org/2000/svg">
<path d="M27.7751 26.6741L21.4553 20.3557C23.1506 18.4071 24.177 15.8647 24.177 13.086C24.177 6.9694 19.2007 2 13.0885 2C6.9705 2 2 6.97517 2 13.086C2 19.1969 6.97627 24.1721 13.0885 24.1721C15.8678 24.1721 18.4107 23.1459 20.3597 21.451L26.6795 27.7694C26.8295 27.9193 27.0313 28 27.2273 28C27.4234 28 27.6252 27.9251 27.7751 27.7694C28.075 27.4696 28.075 26.9738 27.7751 26.6741ZM3.55112 13.086C3.55112 7.82838 7.82967 3.55654 13.0827 3.55654C18.3415 3.55654 22.6143 7.83415 22.6143 13.086C22.6143 18.3379 18.3415 22.6213 13.0827 22.6213C7.82967 22.6213 3.55112 18.3437 3.55112 13.086Z" fill="#343434" stroke="#343434" stroke-width="2"/>
</svg>
