<svg width="30" height="30" viewBox="0 0 30 30" fill="none" xmlns="http://www.w3.org/2000/svg">
<g clip-path="url(#clip0)">
<path d="M29.8094 12.725C29.7383 12.2564 29.4152 11.8654 28.9691 11.7072L26.6057 10.8668C26.4659 10.4708 26.3074 10.0858 26.1316 9.71344L27.2071 7.45011C27.4101 7.02331 27.3619 6.51851 27.0816 6.13681C26.1751 4.90392 25.092 3.8208 23.8624 2.91847C23.4804 2.63801 22.9773 2.59032 22.5496 2.79382L20.2877 3.86849C19.9153 3.69271 19.5298 3.53449 19.1334 3.39469L18.2927 1.03099C18.1345 0.58576 17.7446 0.263461 17.2769 0.191494C15.6155 -0.0638314 14.3859 -0.0638314 12.7219 0.191494C12.2548 0.263461 11.8643 0.58576 11.7061 1.03099L10.8654 3.39469C10.4691 3.53449 10.0836 3.69271 9.71153 3.86849L7.44872 2.79382C7.02191 2.59049 6.51797 2.63818 6.13628 2.91847C4.90665 3.8208 3.82354 4.90392 2.91707 6.13681C2.63661 6.51851 2.58857 7.02314 2.79156 7.45011L3.8671 9.71344C3.69131 10.0852 3.53309 10.471 3.39295 10.8668L1.02925 11.708C0.583502 11.8662 0.260858 12.2571 0.189236 12.725C0.0602818 13.5721 2.28882e-05 14.2943 2.28882e-05 15.0009C2.28882e-05 15.7064 0.0602818 16.4297 0.189236 17.2768C0.260342 17.7454 0.583502 18.1364 1.02959 18.2947L3.39295 19.135C3.53309 19.5317 3.69183 19.9168 3.8671 20.2892L2.79156 22.5517C2.58857 22.9785 2.63678 23.4833 2.91673 23.8641C3.82199 25.0962 4.9051 26.1793 6.13628 27.0833C6.51797 27.3638 7.02191 27.4124 7.44906 27.208L9.71101 26.1333C10.0834 26.3091 10.4689 26.4673 10.8652 26.6071L11.7059 28.9708C11.8641 29.416 12.2541 29.7383 12.7217 29.8103C13.5529 29.9384 14.2977 30.0004 14.9992 30.0004C15.7006 30.0004 16.4455 29.9384 17.2766 29.8103C17.744 29.7383 18.1342 29.416 18.2924 28.9708L19.1331 26.6071C19.5294 26.4673 19.9149 26.3091 20.2873 26.1333L22.5493 27.208C22.9769 27.4122 23.4809 27.3636 23.8626 27.0833C25.0951 26.1777 26.1782 25.0946 27.0818 23.8641C27.3617 23.4833 27.4099 22.9785 27.2069 22.5517L26.1314 20.2892C26.3072 19.9168 26.4657 19.5308 26.6056 19.135L28.9689 18.2947C29.415 18.1364 29.7382 17.7456 29.8093 17.2768C29.9382 16.4297 29.9985 15.7066 29.9985 15.0009C29.9985 14.2952 29.9384 13.5719 29.8094 12.725ZM27.3653 16.1357L25.1481 16.9242C24.7606 17.0614 24.4626 17.3761 24.3458 17.7713C24.1478 18.4408 23.8872 19.0744 23.5704 19.6553C23.3738 20.0169 23.3616 20.4506 23.5382 20.8221L24.5438 22.9372C24.058 23.5207 23.5206 24.0589 22.9363 24.5442L20.8216 23.5398C20.4495 23.3614 20.0172 23.3757 19.6551 23.5716C19.0734 23.8881 18.4394 24.1484 17.7694 24.3467C17.3751 24.4631 17.0604 24.761 16.9228 25.1485L16.1339 27.3666C15.3287 27.4485 14.67 27.4485 13.8647 27.3666L13.0759 25.1485C12.9381 24.7618 12.6234 24.4629 12.2293 24.3467C11.5589 24.1484 10.9245 23.8881 10.3436 23.5716C9.98149 23.3741 9.54831 23.3616 9.17711 23.5398L7.06237 24.5451C6.47855 24.0587 5.94121 23.5213 5.45483 22.9372L6.46047 20.8221C6.63711 20.4504 6.62489 20.0169 6.42827 19.6553C6.11235 19.0761 5.85151 18.4417 5.65283 17.7704C5.5361 17.3761 5.23773 17.0614 4.85052 16.9242L2.63334 16.1357C2.5915 15.7323 2.57136 15.3606 2.57136 15.0007C2.57136 14.6409 2.5915 14.27 2.63334 13.8667L4.85104 13.0774C5.23807 12.9402 5.5361 12.6255 5.65283 12.2312C5.85117 11.5617 6.112 10.9272 6.42827 10.3455C6.62489 9.98478 6.63711 9.55023 6.46047 9.17955L5.45483 7.06446C5.94155 6.48029 6.47889 5.94209 7.06237 5.45658L9.17798 6.46187C9.54831 6.64023 9.98321 6.62594 10.3444 6.43002C10.925 6.11357 11.5589 5.85325 12.2293 5.65491C12.6236 5.53853 12.9383 5.23982 13.0759 4.85313L13.8647 2.63508C14.6624 2.55227 15.3223 2.55227 16.1339 2.63508L16.9228 4.85313C17.0605 5.23982 17.3753 5.5387 17.7694 5.65491C18.4398 5.85325 19.0742 6.11357 19.6551 6.43002C20.0172 6.62749 20.4495 6.64006 20.8216 6.46187L22.9363 5.45658C23.5198 5.94209 24.0571 6.48029 24.5438 7.06446L23.5382 9.17955C23.3616 9.5504 23.3738 9.98478 23.5704 10.3455C23.8877 10.9289 24.1484 11.5625 24.3458 12.2304C24.4626 12.6255 24.7606 12.9402 25.1481 13.0774L27.3653 13.866C27.4072 14.2694 27.4273 14.6411 27.4273 15.0009C27.4273 15.3607 27.4072 15.7323 27.3653 16.1357Z" fill="#343434"/>
<path d="M15 8.7465C11.7181 8.7465 9.04797 11.4165 9.04797 14.6985C9.04797 17.9806 11.718 20.6506 15 20.6506C18.282 20.6506 20.952 17.9806 20.952 14.6985C20.952 11.4165 18.2819 8.7465 15 8.7465ZM15 18.0792C13.1359 18.0792 11.6193 16.5626 11.6193 14.6985C11.6193 12.8345 13.1359 11.3178 15 11.3178C16.8641 11.3178 18.3807 12.8345 18.3807 14.6985C18.3807 16.5626 16.8641 18.0792 15 18.0792Z" fill="#343434"/>
</g>
<defs>
<clipPath id="clip0">
<rect width="30" height="30" fill="white"/>
</clipPath>
</defs>
</svg>
