<svg width="30" height="30" viewBox="0 0 30 30" fill="none" xmlns="http://www.w3.org/2000/svg">
<circle cx="15" cy="15" r="6" fill="#343434"/>
<path d="M15 23C19.4286 23 23 19.4 23 15C23 10.6 19.4 7 15 7C10.6 7 7 10.6 7 15C7 19.4 10.5714 23 15 23ZM15 9.31429C18.1429 9.31429 20.6857 11.8571 20.6857 15C20.6857 18.1429 18.1429 20.6857 15 20.6857C11.8571 20.6857 9.31429 18.1429 9.31429 15C9.31429 11.8571 11.8571 9.31429 15 9.31429Z" fill="#343434"/>
<path d="M16.1207 4.39655V1.06034C16.1207 0.465517 15.6552 0 15.0603 0C14.4655 0 14 0.465517 14 1.06034V4.39655C14 4.99138 14.4655 5.4569 15.0603 5.4569C15.6552 5.4569 16.1207 4.99138 16.1207 4.39655Z" fill="#343434"/>
<path d="M13.9397 25.6035V28.9397C13.9397 29.5345 14.4052 30 15 30C15.5948 30 16.0604 29.5345 16.0604 28.9397V25.6035C16.0604 25.0086 15.5948 24.5431 15 24.5431C14.4052 24.5431 13.9397 25.0086 13.9397 25.6035Z" fill="#343434"/>
<path d="M23.25 8.25004L25.6035 5.89659C26.0173 5.4828 26.0173 4.81038 25.6035 4.39659C25.1897 3.98279 24.5173 3.98279 24.1035 4.39659L21.75 6.75004C21.3362 7.16383 21.3362 7.83625 21.75 8.25004C21.9569 8.45694 22.2155 8.56038 22.5 8.56038C22.7845 8.56038 23.0431 8.45694 23.25 8.25004Z" fill="#343434"/>
<path d="M4.39659 25.6035C4.60348 25.8104 4.8621 25.9138 5.14659 25.9138C5.40521 25.9138 5.68969 25.8104 5.89659 25.6035L8.25004 23.25C8.66383 22.8362 8.66383 22.1638 8.25004 21.75C7.83624 21.3362 7.16383 21.3362 6.75004 21.75L4.39659 24.1035C3.98279 24.5173 3.98279 25.1897 4.39659 25.6035Z" fill="#343434"/>
<path d="M30 15C30 14.4052 29.5345 13.9397 28.9396 13.9397H25.6034C25.0086 13.9397 24.5431 14.4052 24.5431 15C24.5431 15.5948 25.0086 16.0604 25.6034 16.0604H28.9396C29.5086 16.0604 30 15.5948 30 15Z" fill="#343434"/>
<path d="M1.06035 16.0604H4.39655C4.99138 16.0604 5.4569 15.5948 5.4569 15C5.4569 14.4052 4.99138 13.9397 4.39655 13.9397H1.06035C0.465517 13.9397 0 14.4052 0 15C0 15.5948 0.491379 16.0604 1.06035 16.0604Z" fill="#343434"/>
<path d="M24.8535 25.9138C25.1121 25.9138 25.3966 25.8104 25.6035 25.6035C26.0173 25.1897 26.0173 24.5173 25.6035 24.1035L23.25 21.75C22.8362 21.3362 22.1638 21.3362 21.75 21.75C21.3362 22.1638 21.3362 22.8362 21.75 23.25L24.1035 25.6035C24.3104 25.8104 24.5948 25.9138 24.8535 25.9138Z" fill="#343434"/>
<path d="M8.25004 8.25004C8.66383 7.83625 8.66383 7.16383 8.25004 6.75004L5.89659 4.39659C5.48279 3.98279 4.81038 3.98279 4.39659 4.39659C3.98279 4.81038 3.98279 5.4828 4.39659 5.89659L6.75004 8.25004C6.95693 8.45694 7.21555 8.56038 7.50004 8.56038C7.78452 8.56038 8.04314 8.45694 8.25004 8.25004Z" fill="#343434"/>
</svg>
