<svg width="30" height="30" viewBox="0 0 30 30" fill="none" xmlns="http://www.w3.org/2000/svg">
<path d="M23.1818 0H6.81819C2.99995 0 0 2.99995 0 6.81819V23.1818C0 27 2.99995 30 6.81819 30H23.1818C27 30 30 27 30 23.1818V6.81819C30 2.99995 27 0 23.1818 0ZM27.2728 23.1818C27.2728 25.3636 25.3636 27.2728 23.1818 27.2728H6.81819C4.63636 27.2728 2.72724 25.3636 2.72724 23.1818V6.81819C2.72724 4.63636 4.63636 2.72724 6.81819 2.72724H23.1818C25.3636 2.72724 27.2728 4.63636 27.2728 6.81819V23.1818Z" fill="#343434"/>
</svg>
