<svg width="30" height="30" viewBox="0 0 30 30" fill="none" xmlns="http://www.w3.org/2000/svg">
<path d="M15 0C6.72914 0 0 6.72914 0 15C0 23.2709 6.72914 30 15 30C23.2709 30 30 23.2709 30 15C30 6.72914 23.2709 0 15 0ZM15 26.25C8.79697 26.25 3.75 21.203 3.75 15C3.75 12.6325 4.46777 10.3943 5.83254 8.48449L21.5155 24.1675C19.6057 25.5322 17.3675 26.25 15 26.25ZM24.1675 21.5155L8.48449 5.83254C10.3943 4.46777 12.6325 3.75 15 3.75C21.203 3.75 26.25 8.79697 26.25 15C26.25 17.3675 25.5322 19.6057 24.1675 21.5155Z" fill="#343434"/>
</svg>
