<svg width="32" height="32" viewBox="0 0 32 32" fill="none" xmlns="http://www.w3.org/2000/svg">
<path d="M19.7366 23.239C18.5411 22.0436 17.1182 21.1587 15.5658 20.623C17.2285 19.4778 18.3209 17.5612 18.3209 15.394C18.3209 11.8953 15.4744 9.04877 11.9756 9.04877C8.47683 9.04877 5.63034 11.8953 5.63034 15.394C5.63034 17.5612 6.72271 19.4778 8.38547 20.623C6.83302 21.1587 5.41014 22.0436 4.2147 23.239C2.14168 25.3121 1 28.0683 1 31H2.71494C2.71494 25.8936 6.86925 21.7393 11.9756 21.7393C17.082 21.7393 21.2363 25.8936 21.2363 31H22.9512C22.9512 28.0683 21.8095 25.3121 19.7366 23.239ZM11.9756 20.0244C9.42245 20.0244 7.34527 17.9472 7.34527 15.394C7.34527 12.8408 9.42245 10.7637 11.9756 10.7637C14.5288 10.7637 16.6059 12.8408 16.6059 15.394C16.6059 17.9472 14.5288 20.0244 11.9756 20.0244Z" fill="#343434" stroke="#343434" stroke-width="0.5"/>
<path d="M20.3359 1C23.7354 1 26.5011 3.84652 26.5011 7.34525C26.5011 9.5124 25.4397 11.429 23.8241 12.5742C25.3325 13.1099 26.715 13.9948 27.8765 15.1902C29.8907 17.2633 31 20.0195 31 22.9512H29.3337C29.3337 17.8449 25.2973 13.6905 20.3359 13.6905C16.9364 13.6905 14.1707 10.844 14.1707 7.34525C14.1707 3.84647 16.9364 1 20.3359 1ZM20.3359 11.9756C22.8166 11.9756 24.8348 9.89846 24.8348 7.3453C24.8348 4.79213 22.8166 2.71494 20.3359 2.71494C17.8552 2.71494 15.837 4.79209 15.837 7.3453C15.837 9.8985 17.8552 11.9756 20.3359 11.9756Z" fill="#343434" stroke="#343434" stroke-width="0.5"/>
</svg>
