<svg width="30" height="30" viewBox="0 0 30 30" fill="none" xmlns="http://www.w3.org/2000/svg">
<path d="M15 0C6.75 0 0 6.75 0 15C0 23.25 6.75 30 15 30C23.25 30 30 23.25 30 15C30 6.75 23.25 0 15 0ZM15 27.5C8.125 27.5 2.5 21.875 2.5 15C2.5 8.125 8.125 2.5 15 2.5C21.875 2.5 27.5 8.125 27.5 15C27.5 21.875 21.875 27.5 15 27.5Z" fill="#343434"/>
<path d="M17.375 15.625C17.375 15.375 17.5 15.25 17.5 15C17.5 14.125 17 13.25 16.25 12.875V5C16.25 4.25 15.75 3.75 15 3.75C14.25 3.75 13.75 4.25 13.75 5V12.875C13 13.25 12.5 14.125 12.5 15C12.5 16.375 13.625 17.5 15 17.5C15.25 17.5 15.375 17.5 15.625 17.375L17.875 19.625C18.375 20.125 19.125 20.125 19.625 19.625C20.125 19.125 20.125 18.375 19.625 17.875L17.375 15.625ZM15 16.25C14.25 16.25 13.75 15.75 13.75 15C13.75 14.25 14.25 13.75 15 13.75C15.75 13.75 16.25 14.25 16.25 15C16.25 15.75 15.75 16.25 15 16.25Z" fill="#343434"/>
</svg>
