<svg width="30" height="30" viewBox="0 0 30 30" fill="none" xmlns="http://www.w3.org/2000/svg">
<path d="M16.2716 13.2769C16.8404 13.6972 17.1892 14.39 17.1373 15.1479C17.1211 15.3857 17.0666 15.6118 16.9803 15.8206L19.5969 19.6666L18.6906 20.4118L15.424 17.1025C15.2405 17.1394 15.0491 17.1528 14.8533 17.1394C13.6726 17.0586 12.781 16.036 12.8618 14.8553C12.9084 14.1735 13.2692 13.588 13.7931 13.2306L14.9804 4.22094L16.3218 4.3127L16.2716 13.2769Z" fill="#343434"/>
<path fill-rule="evenodd" clip-rule="evenodd" d="M29.9644 16.0238C29.399 24.2884 22.2408 30.5299 13.9762 29.9644C5.71157 29.399 -0.529854 22.2408 0.0355774 13.9762C0.601009 5.71157 7.75918 -0.529855 16.0238 0.0355776C24.2884 0.601009 30.5299 7.75918 29.9644 16.0238ZM27.8266 15.8775C27.342 22.9615 21.2064 28.3113 14.1225 27.8266C7.03849 27.342 1.6887 21.2064 2.17335 14.1225C2.65801 7.03849 8.79358 1.6887 15.8775 2.17335C22.9615 2.65801 28.3113 8.79358 27.8266 15.8775Z" fill="#343434"/>
</svg>
