<svg width="32" height="32" viewBox="0 0 32 32" fill="none" xmlns="http://www.w3.org/2000/svg">
<path fill-rule="evenodd" clip-rule="evenodd" d="M16 3.72728C9.22197 3.72728 3.72728 9.22197 3.72728 16C3.72728 19.4335 5.13542 22.5356 7.40916 24.7646C9.62425 26.9361 12.6547 28.2727 16 28.2727V31C11.9123 31 8.20418 29.3631 5.49995 26.7121C2.72453 23.9913 1.00001 20.1958 1.00001 16C1.00001 7.71574 7.71574 1.00001 16 1.00001C24.2843 1.00001 31 7.71574 31 16H28.2727C28.2727 9.22197 22.7781 3.72728 16 3.72728Z" fill="#4F4F4F"/>
<path fill-rule="evenodd" clip-rule="evenodd" d="M16.3 27.9727V31.3H16C11.8306 31.3 8.04796 29.6301 5.28994 26.9263C2.45934 24.1514 0.700012 20.2797 0.700012 16C0.700012 7.55006 7.55006 0.700012 16 0.700012C24.45 0.700012 31.3 7.55006 31.3 16V16.3H27.9727V16C27.9727 9.38766 22.6124 4.02728 16 4.02728C9.38766 4.02728 4.02728 9.38766 4.02728 16C4.02728 19.3496 5.40064 22.3755 7.61918 24.5503C9.78045 26.6691 12.7363 27.9727 16 27.9727H16.3ZM15.7 30.9971C11.7311 30.9191 8.13787 29.2981 5.49995 26.7121C2.72453 23.9913 1.00001 20.1958 1.00001 16C1.00001 7.71574 7.71574 1.00001 16 1.00001C24.1841 1.00001 30.8373 7.55421 30.9971 15.7C30.999 15.7998 31 15.8998 31 16H28.2727C28.2727 9.22197 22.7781 3.72728 16 3.72728C9.22197 3.72728 3.72728 9.22197 3.72728 16C3.72728 19.4335 5.13542 22.5356 7.40916 24.7646C9.62425 26.9361 12.6547 28.2727 16 28.2727V31C15.8998 31 15.7998 30.999 15.7 30.9971Z" fill="#4F4F4F"/>
</svg>
