<svg width="30" height="30" viewBox="0 0 30 30" fill="none" xmlns="http://www.w3.org/2000/svg">
<path d="M19.5667 13.0513C19.9083 13.3925 20.4619 13.3923 20.8034 13.0509L25.0026 8.85176L26.3483 10.1964C26.6247 10.4728 27.0318 10.5725 27.4049 10.4562C27.778 10.3389 28.0553 10.0255 28.1246 9.64075L29.6704 1.10773C29.7252 0.802998 29.6274 0.491468 29.4078 0.273776C29.189 0.0551049 28.8765 -0.0406328 28.5727 0.0159645L20.0828 1.60675C19.699 1.67903 19.3875 1.95644 19.2723 2.32935C19.1571 2.70152 19.2576 3.10774 19.533 3.38307L20.8777 4.72775L16.6764 8.92741C16.3346 9.26913 16.3347 9.82341 16.6767 10.165L19.5667 13.0513Z" fill="#4F4F4F"/>
<path d="M10.1185 16.9489C9.77685 16.6077 9.22331 16.6078 8.88183 16.9493L4.68278 21.1484L3.33713 19.8036C3.06063 19.5272 2.65355 19.4276 2.28052 19.5438C1.90737 19.661 1.63014 19.9745 1.56068 20.3592L0.014855 28.8923C-0.0397209 29.1969 0.0579155 29.5085 0.277567 29.7262C0.496361 29.9448 0.808871 30.0407 1.11256 29.984L9.60258 28.3932C9.98645 28.3209 10.2978 28.0435 10.4131 27.6705C10.5284 27.2984 10.4278 26.8923 10.1523 26.6169L8.80771 25.2722L13.0134 21.0793C13.3561 20.7376 13.3564 20.1827 13.014 19.8408L10.1185 16.9489Z" fill="#4F4F4F"/>
<path d="M1.56076 9.64161C1.63003 10.0263 1.90738 10.3398 2.28047 10.4571C2.65356 10.5733 3.06071 10.4737 3.33708 10.1973L4.6828 8.85262L8.88202 13.0517C9.22344 13.3931 9.77698 13.3933 10.1186 13.0521L13.0087 10.1659C13.3507 9.82433 13.3508 9.27005 13.009 8.92833L8.80772 4.72867L10.1524 3.384C10.4278 3.10867 10.5283 2.70244 10.4131 2.33027C10.2979 1.95736 9.98634 1.67995 9.6026 1.60767L1.11263 0.0168854C0.808882 -0.0397119 0.496372 0.0559644 0.277578 0.274697C0.0579269 0.492388 -0.039832 0.803919 0.0149277 1.10865L1.56076 9.64161Z" fill="#4F4F4F"/>
<path d="M28.1247 20.3592C28.0552 19.9745 27.778 19.6611 27.4048 19.5438C27.0318 19.4277 26.6247 19.5272 26.3482 19.8036L25.0026 21.1483L20.8035 16.9492C20.4621 16.6077 19.9085 16.6076 19.5668 16.9488L16.6713 19.8408C16.329 20.1827 16.3292 20.7376 16.6719 21.0793L20.8777 25.2722L19.533 26.6169C19.2576 26.8923 19.157 27.2984 19.2722 27.6705C19.3876 28.0435 19.699 28.3209 20.0828 28.3932L28.5727 29.984C28.8764 30.0407 29.1889 29.9448 29.4077 29.7262C29.6274 29.5084 29.725 29.1969 29.6704 28.8923L28.1247 20.3592Z" fill="#4F4F4F"/>
</svg>
