<svg width="32" height="32" viewBox="0 0 32 32" fill="none" xmlns="http://www.w3.org/2000/svg">
<path d="M30.7405 29.4701L23.4484 22.1796C25.4045 19.9313 26.5888 16.9978 26.5888 13.7916C26.5888 6.73393 20.847 1 13.7944 1C6.7352 1 1 6.74058 1 13.7916C1 20.8426 6.74185 26.5832 13.7944 26.5832C17.0013 26.5832 19.9355 25.3991 22.1843 23.4435L29.4764 30.7339C29.6494 30.9069 29.8822 31 30.1085 31C30.3347 31 30.5675 30.9135 30.7405 30.7339C31.0865 30.388 31.0865 29.816 30.7405 29.4701ZM2.78975 13.7916C2.78975 7.72506 7.72655 2.79601 13.7878 2.79601C19.8556 2.79601 24.7858 7.73171 24.7858 13.7916C24.7858 19.8514 19.8556 24.7938 13.7878 24.7938C7.72655 24.7938 2.78975 19.8581 2.78975 13.7916Z" fill="#333333"/>
<path fill-rule="evenodd" clip-rule="evenodd" d="M0.75 13.7916C0.75 6.60254 6.59709 0.75 13.7944 0.75C20.9849 0.75 26.8388 6.59572 26.8388 13.7916C26.8388 16.9768 25.6922 19.8983 23.7887 22.1663L30.9173 29.2933C31.3604 29.7363 31.3609 30.4654 30.9189 30.9091C30.6953 31.1403 30.3963 31.25 30.1085 31.25C29.8156 31.25 29.5192 31.1303 29.2996 30.9107L22.171 23.7836C19.9025 25.6867 16.9804 26.8332 13.7944 26.8332C6.60383 26.8332 0.75 20.9807 0.75 13.7916ZM13.7944 1.25C6.8733 1.25 1.25 6.87862 1.25 13.7916C1.25 20.7045 6.87987 26.3332 13.7944 26.3332C16.9386 26.3332 19.8151 25.1725 22.0202 23.2548L22.1962 23.1018L29.6531 30.5571C29.7795 30.6835 29.9489 30.75 30.1085 30.75C30.2723 30.75 30.4383 30.6873 30.5605 30.5605L30.5637 30.5571C30.812 30.3088 30.8121 29.8951 30.5638 29.6469L23.1067 22.1915L23.2598 22.0155C25.178 19.8108 26.3388 16.935 26.3388 13.7916C26.3388 6.87213 20.709 1.25 13.7944 1.25ZM13.7878 3.04601C7.86447 3.04601 3.03975 7.86328 3.03975 13.7916C3.03975 19.7201 7.86466 24.5438 13.7878 24.5438C19.7173 24.5438 24.5358 19.7136 24.5358 13.7916C24.5358 7.86973 19.7175 3.04601 13.7878 3.04601ZM2.53975 13.7916C2.53975 7.58683 7.58863 2.54601 13.7878 2.54601C19.9937 2.54601 25.0358 7.59368 25.0358 13.7916C25.0358 19.9893 19.9939 25.0438 13.7878 25.0438C7.58843 25.0438 2.53975 19.9961 2.53975 13.7916Z" fill="#333333"/>
<path fill-rule="evenodd" clip-rule="evenodd" d="M0.5 13.7916C0.5 6.4645 6.45899 0.5 13.7944 0.5C21.1228 0.5 27.0888 6.45751 27.0888 13.7916C27.0888 16.9557 25.9784 19.8648 24.1261 22.1501L31.094 29.1165C31.6342 29.6565 31.6353 30.5427 31.0973 31.0842C30.823 31.3671 30.458 31.5 30.1085 31.5C29.7489 31.5 29.3891 31.3537 29.1229 31.0875L22.1548 24.121C19.869 25.9729 16.9592 27.0832 13.7944 27.0832C6.46581 27.0832 0.5 21.1188 0.5 13.7916ZM13.7944 1.5C7.0114 1.5 1.5 7.01665 1.5 13.7916C1.5 20.5663 7.01789 26.0832 13.7944 26.0832C16.8759 26.0832 19.6946 24.9459 21.8562 23.0662L22.2081 22.7602L29.8299 30.3803C29.9096 30.46 30.0155 30.5 30.1085 30.5C30.2097 30.5 30.309 30.4612 30.3804 30.3871L30.3869 30.3803C30.5376 30.2296 30.5377 29.9743 30.387 29.8237L22.765 22.2034L23.0712 21.8514C24.9514 19.6904 26.0888 16.8723 26.0888 13.7916C26.0888 7.01034 20.5711 1.5 13.7944 1.5ZM2.28975 13.7916C2.28975 7.44861 7.45071 2.29601 13.7878 2.29601C20.1319 2.29601 25.2858 7.45566 25.2858 13.7916C25.2858 20.1271 20.1323 25.2938 13.7878 25.2938C7.45031 25.2938 2.28975 20.1341 2.28975 13.7916ZM13.7878 3.29601C8.00239 3.29601 3.28975 8.0015 3.28975 13.7916C3.28975 19.582 8.00278 24.2938 13.7878 24.2938C19.579 24.2938 24.2858 19.5758 24.2858 13.7916C24.2858 8.00776 19.5794 3.29601 13.7878 3.29601Z" fill="#333333"/>
</svg>
