<svg width="30" height="30" viewBox="0 0 30 30" fill="none" xmlns="http://www.w3.org/2000/svg">
<path d="M17.8996 16.3861L4.67633 28.4253C3.83516 29.1916 2.47137 29.1916 1.63062 28.4253C0.789795 27.6598 0.789795 26.4181 1.63062 25.6526L13.3312 14.9998L1.63096 4.34733C0.790135 3.58147 0.790135 2.33995 1.63096 1.5744C2.47178 0.808535 3.8355 0.808535 4.67666 1.5744L17.8999 13.6138C18.3204 13.9967 18.5303 14.4981 18.5303 14.9997C18.5303 15.5016 18.3199 16.0034 17.8996 16.3861Z" fill="#343434"/>
<path fill-rule="evenodd" clip-rule="evenodd" d="M27.0522 29C25.9764 29 25.1044 28.1643 25.1044 27.1333V2.86667C25.1044 1.83574 25.9764 1 27.0522 1C28.1279 1 29 1.83574 29 2.86667V27.1333C29 28.1643 28.1279 29 27.0522 29Z" fill="#343434"/>
</svg>
