<svg width="30" height="30" viewBox="0 0 30 30" fill="none" xmlns="http://www.w3.org/2000/svg">
<path fill-rule="evenodd" clip-rule="evenodd" d="M4 19.5C4 17.0147 6.11066 15 8.71429 15H21.2857C23.8893 15 26 17.0147 26 19.5V25.5C26 27.9853 23.8893 30 21.2857 30H8.71429C6.11066 30 4 27.9853 4 25.5V19.5ZM8.71429 18C7.84641 18 7.14286 18.6716 7.14286 19.5V25.5C7.14286 26.3284 7.84641 27 8.71429 27H21.2857C22.1536 27 22.8571 26.3284 22.8571 25.5V19.5C22.8571 18.6716 22.1536 18 21.2857 18H8.71429Z" fill="#343434"/>
<path fill-rule="evenodd" clip-rule="evenodd" d="M8 6.76C8 3.02656 11.134 0 15 0C18.866 0 22 3.02656 22 6.76V13H18.7692V6.76C18.7692 4.74968 17.0817 3.12 15 3.12C12.9183 3.12 11.2308 4.74968 11.2308 6.76V13H8V6.76Z" fill="#343434"/>
</svg>
