<svg width="30" height="30" viewBox="0 0 30 30" fill="none" xmlns="http://www.w3.org/2000/svg">
<path d="M25.6061 4.39394C22.7715 1.55934 19.0088 0 15 0C10.9912 0 7.22854 1.55934 4.39394 4.39394C1.55934 7.22854 0 10.9912 0 15C0 19.0088 1.55934 22.7715 4.39394 25.6061C7.22854 28.4407 10.9912 30 15 30C19.0088 30 22.7715 28.4407 25.6061 25.6061C28.4407 22.7715 30 19.0088 30 15C30 10.9912 28.4407 7.22854 25.6061 4.39394ZM24.4003 24.4003C21.8876 26.9129 18.548 28.2955 15 28.2955C11.452 28.2955 8.11237 26.9129 5.59975 24.4003C0.416667 19.2172 0.416667 10.7828 5.59975 5.59975C8.11237 3.08712 11.452 1.70455 15 1.70455C18.548 1.70455 21.8876 3.08712 24.4003 5.59975C29.5833 10.7828 29.5833 19.2172 24.4003 24.4003Z" fill="black"/>
<path d="M21.6098 8.39017C21.2753 8.05557 20.7386 8.05557 20.404 8.39017L15 13.7942L9.59598 8.39017C9.26138 8.05557 8.72476 8.05557 8.39017 8.39017C8.05557 8.72476 8.05557 9.26138 8.39017 9.59598L13.7942 15L8.39017 20.4041C8.05557 20.7387 8.05557 21.2753 8.39017 21.6099C8.55431 21.774 8.77527 21.8624 8.98991 21.8624C9.20456 21.8624 9.42552 21.7803 9.58966 21.6099L14.9937 16.2058L20.3977 21.6099C20.5619 21.774 20.7828 21.8624 20.9975 21.8624C21.2184 21.8624 21.4331 21.7803 21.5972 21.6099C21.9318 21.2753 21.9318 20.7387 21.5972 20.4041L16.2058 15L21.6098 9.59598C21.9444 9.26138 21.9444 8.72476 21.6098 8.39017Z" fill="black"/>
</svg>
