<svg width="26" height="26" viewBox="0 0 26 26" fill="none" xmlns="http://www.w3.org/2000/svg">
<path d="M25.5215 0.475446C24.8876 -0.158482 23.8709 -0.158482 23.237 0.475446L12.9985 10.714L2.75997 0.475446C2.12605 -0.158482 1.10937 -0.158482 0.475445 0.475446C-0.158482 1.10937 -0.158482 2.12605 0.475445 2.75998L10.714 12.9985L0.475445 23.237C-0.158482 23.871 -0.158482 24.8876 0.475445 25.5216C0.786428 25.8325 1.20506 26 1.61173 26C2.0184 26 2.43703 25.8445 2.74801 25.5216L12.9865 15.283L23.225 25.5216C23.536 25.8325 23.9547 26 24.3613 26C24.78 26 25.1866 25.8445 25.4976 25.5216C26.1315 24.8876 26.1315 23.871 25.4976 23.237L15.283 12.9985L25.5215 2.75998C26.1555 2.12605 26.1555 1.10937 25.5215 0.475446Z" fill="#4F4F4F"/>
</svg>
