<svg width="10" height="10" viewBox="0 0 10 10" fill="none" xmlns="http://www.w3.org/2000/svg">
<path d="M9.45734 4.30232H5.69768V0.542636C5.69768 0.371367 5.46511 0 5 0C4.53489 0 4.30232 0.371388 4.30232 0.542636V4.30234H0.542636C0.371388 4.30232 0 4.53489 0 4.99998C0 5.46507 0.371388 5.69766 0.542636 5.69766H4.30234V9.45736C4.30234 9.62859 4.53489 10 5.00002 10C5.46515 10 5.6977 9.62859 5.6977 9.45736V5.69766H9.4574C9.62863 5.69766 10 5.46511 10 4.99998C10 4.53484 9.62859 4.30232 9.45734 4.30232Z" fill="white"/>
</svg>
