<svg width="30" height="29" viewBox="0 0 30 29" fill="none" xmlns="http://www.w3.org/2000/svg">
<path d="M24.8902 13.8406C24.4109 13.8406 24.0397 14.2101 24.0397 14.6917V26.317H18.009V21.5699C18.009 21.1246 17.6379 20.7353 17.1893 20.7353H12.8288C12.3491 20.7353 11.9628 21.1246 11.9628 21.5699V26.317H5.9473V15.0777C5.9473 14.629 5.57652 14.2563 5.09686 14.2563C4.64854 14.2563 4.27741 14.629 4.27741 15.0777V27.1681C4.27741 27.6168 4.64854 27.9895 5.09686 27.9895H12.8288C13.2771 27.9895 13.6482 27.6168 13.6482 27.1681V22.421H16.3388V27.1681C16.3388 27.6168 16.7099 27.9895 17.1893 27.9895H24.8902C25.3386 27.9895 25.7096 27.6168 25.7096 27.1681V14.6918C25.7096 14.2102 25.3386 13.8406 24.8902 13.8406Z" fill="#4F4F4F"/>
<path fill-rule="evenodd" clip-rule="evenodd" d="M23.7938 14.6917C23.7938 14.0741 24.2753 13.5947 24.8902 13.5947C25.4801 13.5947 25.9555 14.0802 25.9555 14.6918V27.1681C25.9555 27.7519 25.4751 28.2355 24.8902 28.2355H17.1893C16.5794 28.2355 16.0929 27.7578 16.0929 27.1681V22.6669H13.8941V27.1681C13.8941 27.7519 13.4136 28.2355 12.8288 28.2355H5.09686C4.51202 28.2355 4.03151 27.7519 4.03151 27.1681V15.0777C4.03151 14.4939 4.51203 14.0104 5.09686 14.0104C5.70709 14.0104 6.19321 14.488 6.19321 15.0777V26.0711H11.7169V21.5699C11.7169 20.9835 12.2187 20.4894 12.8288 20.4894H17.1893C17.78 20.4894 18.2549 20.9952 18.2549 21.5699V26.0711H23.7938V14.6917ZM24.8902 14.0866C24.5465 14.0866 24.2857 14.3461 24.2857 14.6917V26.5629H17.7631V21.5699C17.7631 21.254 17.4958 20.9812 17.1893 20.9812H12.8288C12.4796 20.9812 12.2087 21.2656 12.2087 21.5699V26.5629H5.7014V15.0777C5.7014 14.77 5.44594 14.5022 5.09686 14.5022C4.78504 14.5022 4.52332 14.7641 4.52332 15.0777V27.1681C4.52332 27.4817 4.78505 27.7436 5.09686 27.7436H12.8288C13.1406 27.7436 13.4023 27.4817 13.4023 27.1681V22.1751H16.5847V27.1681C16.5847 27.4757 16.8404 27.7436 17.1893 27.7436H24.8902C25.202 27.7436 25.4637 27.4817 25.4637 27.1681V14.6918C25.4637 14.3402 25.197 14.0866 24.8902 14.0866Z" fill="#4F4F4F"/>
<path d="M29.5136 14.5038L22.8026 7.76411V3.16876C22.8026 2.6904 22.416 2.32096 21.9367 2.32096C21.488 2.32096 21.1169 2.69045 21.1169 3.16876V6.0784L15.5811 0.509843C15.4115 0.338288 15.21 0.245904 15.009 0.245904C14.7771 0.245904 14.5759 0.341566 14.406 0.509843L0.504449 14.4114C0.170935 14.7445 0.148851 15.279 0.504449 15.5858C0.813567 15.9421 1.34602 15.919 1.67954 15.5858L15.009 2.28793L28.3075 15.7111C28.4461 15.8497 28.6477 15.9289 28.9106 15.9289C29.1425 15.9289 29.3434 15.8497 29.5136 15.7111C29.823 15.4011 29.8461 14.8403 29.5136 14.5038Z" fill="#4F4F4F"/>
<path fill-rule="evenodd" clip-rule="evenodd" d="M14.233 0.335122C14.441 0.129049 14.702 0 15.009 0C15.2878 0 15.5493 0.128098 15.7557 0.336704L20.871 5.48225V3.16876C20.871 2.55976 21.3471 2.07506 21.9367 2.07506C22.5451 2.07506 23.0485 2.54799 23.0485 3.16876V7.66256L29.6879 14.3302C30.1188 14.7663 30.0891 15.4826 29.6877 15.8848L29.6787 15.8938L29.6689 15.9019C29.4581 16.0734 29.2032 16.1748 28.9106 16.1748C28.597 16.1748 28.3277 16.0791 28.1336 15.885L28.1329 15.8842L15.008 2.6363L1.85333 15.7598C1.43991 16.1728 0.749421 16.2274 0.330455 15.7603C-0.136636 15.3435 -0.0828832 14.6506 0.330569 14.2375L14.2321 0.335962L14.233 0.335122ZM14.579 0.684564L0.67833 14.5852C0.428733 14.8346 0.435354 15.2014 0.665086 15.3996L0.678541 15.4112L0.690187 15.4246C0.890719 15.6558 1.25602 15.6613 1.50575 15.4118L15.0101 1.93957L28.4815 15.5373C28.5645 15.6202 28.6985 15.683 28.9106 15.683C29.0773 15.683 29.2209 15.629 29.3481 15.5287C29.5573 15.3088 29.5697 14.9106 29.3389 14.6768L22.5567 7.86566V3.16876C22.5567 2.8328 22.2869 2.56687 21.9367 2.56687C21.6289 2.56687 21.3628 2.82113 21.3628 3.16876V6.67455L15.4067 0.683211C15.2738 0.54885 15.132 0.491809 15.009 0.491809C14.8524 0.491809 14.7107 0.554389 14.579 0.684564Z" fill="#4F4F4F"/>
</svg>
