<svg width="25" height="19" viewBox="0 0 25 19" fill="none" xmlns="http://www.w3.org/2000/svg">
<path d="M23.9901 8.49014H1.00986C0.452148 8.49014 0 8.94224 0 9.50001C0 10.0578 0.452148 10.5099 1.00986 10.5099H23.9901C24.5479 10.5099 25 10.0578 25 9.50001C25 8.94229 24.5479 8.49014 23.9901 8.49014Z" fill="#303942"/>
<path d="M23.9901 0.830017H1.00986C0.452148 0.830017 0 1.28217 0 1.83988C0 2.3976 0.452148 2.84974 1.00986 2.84974H23.9901C24.5479 2.84974 25 2.3976 25 1.83988C25 1.28217 24.5479 0.830017 23.9901 0.830017Z" fill="#303942"/>
<path d="M23.9901 16.1502H1.00986C0.452148 16.1502 0 16.6023 0 17.1601C0 17.7179 0.452148 18.17 1.00986 18.17H23.9901C24.5479 18.17 25 17.7179 25 17.1601C25 16.6023 24.5479 16.1502 23.9901 16.1502Z" fill="#303942"/>
</svg>
