<svg width="28" height="30" viewBox="0 0 28 30" fill="none" xmlns="http://www.w3.org/2000/svg">
<path d="M15.4346 29.9159C21.4525 29.2418 26.2755 24.4311 26.9619 18.4131C27.8627 10.5444 21.7467 3.84616 14.0802 3.76036V0.230471C14.0802 0.0343655 13.8351 -0.0698154 13.6696 0.0527503L6.40145 5.39049C6.27889 5.48241 6.27889 5.66013 6.40145 5.75205L13.6696 11.0898C13.8351 11.2124 14.0802 11.102 14.0802 10.9121V7.38831C19.467 7.4741 23.7813 12.0581 23.4136 17.5367C23.101 22.2494 19.2586 26.0734 14.5459 26.3737C9.55139 26.6924 5.30449 23.1257 4.54458 18.407C4.40363 17.5306 3.6376 16.8933 2.75512 16.8933C1.65816 16.8933 0.800197 17.8677 0.97179 18.9524C2.03811 25.6751 8.24607 30.7187 15.4346 29.9159Z" fill="#4F4F4F"/>
</svg>
