<svg width="20" height="20" viewBox="0 0 20 20" fill="none" xmlns="http://www.w3.org/2000/svg">
<path fill-rule="evenodd" clip-rule="evenodd" d="M15.2734 3.84832L19.7663 7.22703C19.921 7.34539 20 7.52238 20 7.69531V18.2422C20 19.21 19.2119 20 18.2422 20H1.75781C0.790391 20 0 19.2126 0 18.2422V7.69531C0 7.51668 0.0840625 7.34012 0.233437 7.2273L4.72656 3.84801V0.585938C4.72656 0.262344 4.98891 0 5.3125 0H14.6875C15.0111 0 15.2734 0.262344 15.2734 0.585938V3.84832ZM18.4836 7.72871L15.2734 5.31457V10.5248L18.4836 7.72871ZM14.1016 2.24297V1.17188H13.0305C13.2073 1.67047 13.603 2.06613 14.1016 2.24297ZM6.96953 1.16797H5.89844V2.24297C6.39703 2.06613 6.7927 1.66656 6.96953 1.16797ZM11.8168 1.17188H8.18324C7.94961 2.31813 7.04469 3.22309 5.89844 3.45668L5.89848 11.5459L9.61281 14.7814C9.83371 14.9747 10.1655 14.9747 10.3855 14.7823L14.1016 11.5455V3.45668C12.9554 3.22305 12.0504 2.31813 11.8168 1.17188ZM4.72656 10.5251V5.3143L1.51633 7.72871L4.72656 10.5251ZM1.17188 8.98277V18.126L6.4243 13.5581L1.17188 8.98277ZM7.31648 14.3352L2.15031 18.8281H17.8496L12.6829 14.3352L11.1561 15.6651C10.497 16.2417 9.50176 16.2415 8.84203 15.6641L7.31648 14.3352ZM13.5751 13.5581L18.8281 18.1261V8.9827L13.5751 13.5581ZM9.41406 6.48438C9.41406 6.80746 9.67692 7.07031 10 7.07031C10.9693 7.07031 11.7578 7.85887 11.7578 8.82812C11.7578 9.53574 11.3368 10.1713 10.6852 10.4472C10.6523 10.4611 10.6192 10.4737 10.5859 10.4855V11.1719C10.5859 11.4955 10.3236 11.7578 10 11.7578C9.67641 11.7578 9.41406 11.4955 9.41406 11.1719V10.4892C9.10969 10.387 8.81559 10.2059 8.55105 9.94965C8.31863 9.72449 8.31277 9.35355 8.53793 9.12113C8.76309 8.88883 9.13406 8.88281 9.36649 9.10805C9.6518 9.38445 9.96578 9.47934 10.2282 9.36816C10.4455 9.27609 10.5859 9.06414 10.5859 8.82812C10.5859 8.50504 10.3231 8.24219 10 8.24219C9.03074 8.24219 8.24219 7.45363 8.24219 6.48438C8.24219 5.74816 8.70684 5.0843 9.3984 4.83238C9.40359 4.83047 9.40883 4.82887 9.41406 4.82703V4.10156C9.41406 3.77797 9.67641 3.51562 10 3.51562C10.3236 3.51562 10.5859 3.77797 10.5859 4.10156V4.82125C10.9725 4.95141 11.3413 5.21066 11.658 5.58777C11.8661 5.83555 11.834 6.20516 11.5862 6.41328C11.3383 6.62145 10.9688 6.58926 10.7606 6.34148C10.4507 5.9725 10.1004 5.82395 9.79942 5.93348C9.56895 6.01746 9.41406 6.23883 9.41406 6.48438Z" fill="#828282"/>
</svg>
