<svg width="72" height="90" viewBox="0 0 72 90" fill="none" xmlns="http://www.w3.org/2000/svg">
<path d="M19.4155 67.1055L2.68508 75.7317C1.7033 76.2377 0.820971 76.8597 0 77.5377C9.75644 85.3099 22.3482 90 36.1058 90C49.7618 90 62.2732 85.3799 72 77.7117C71.1029 76.9957 70.1295 76.3517 69.0504 75.8437L51.1351 67.3775C48.8203 66.2835 47.3582 64.0474 47.3582 61.6014V54.9572C47.8618 54.4152 48.4373 53.7192 49.053 52.8972C51.4948 49.6371 53.3419 46.051 54.6221 42.2889C56.9199 41.6189 58.6127 39.6129 58.6127 37.2288V30.1367C58.6127 28.5766 57.8785 27.1826 56.738 26.2066V15.9544C56.738 15.9544 58.966 0 36.1079 0C13.2498 0 15.4778 15.9544 15.4778 15.9544V26.2066C14.3353 27.1826 13.6032 28.5766 13.6032 30.1367V37.2288C13.6032 39.0969 14.6421 40.7409 16.1972 41.6909C18.0719 49.4051 22.9808 54.9572 22.9808 54.9572V61.4374C22.9766 63.7974 21.6097 65.9735 19.4155 67.1055Z" fill="#E6E9FA"/>
</svg>
