<svg width="22" height="30" viewBox="0 0 22 30" fill="none" xmlns="http://www.w3.org/2000/svg">
<path d="M1.45468 12.2726H20.5453C20.9146 12.2726 21.2343 12.1377 21.5041 11.8678C21.7737 11.598 21.9091 11.2784 21.9091 10.9091C21.9091 10.5398 21.7738 10.2203 21.5041 9.95012L11.9588 0.404778C11.6891 0.135225 11.3696 0 11 0C10.6305 0 10.311 0.135225 10.0411 0.404778L0.495721 9.95012C0.225794 10.22 0.0909424 10.5398 0.0909424 10.9091C0.0909424 11.2783 0.225794 11.598 0.495721 11.8678C0.765946 12.1377 1.08543 12.2726 1.45468 12.2726Z" fill="#4F4F4F"/>
<path d="M20.5453 17.7276H1.45468C1.08513 17.7276 0.765647 17.8625 0.495721 18.1322C0.225794 18.4021 0.0909424 18.7216 0.0909424 19.0909C0.0909424 19.4602 0.225794 19.7799 0.495721 20.0497L10.0411 29.5949C10.3113 29.8649 10.6308 30 11 30C11.3693 30 11.6891 29.8649 11.9588 29.5949L21.5041 20.0496C21.7737 19.7799 21.9091 19.4602 21.9091 19.0908C21.9091 18.7216 21.7738 18.4021 21.5041 18.1321C21.2344 17.8622 20.9146 17.7276 20.5453 17.7276Z" fill="#4F4F4F"/>
</svg>
