<svg width="32" height="32" viewBox="0 0 32 32" fill="none" xmlns="http://www.w3.org/2000/svg">
<path d="M29.1206 8.80222C29.8694 7.09993 29.4921 5.11224 28.1716 3.80274C26.8511 2.49323 24.8603 2.13258 23.1644 2.89561C19.7311 1.03199 15.7047 0.586431 11.947 1.65431L11.9463 1.65471C8.25863 2.69513 5.11477 5.11861 3.17 8.42002C3.13492 8.47989 3.11278 8.54646 3.105 8.61542C2.86632 8.93267 2.66777 9.27821 2.51385 9.64417L2.47675 9.72417C1.56059 11.7037 1.08571 13.8588 1.085 16.04C1.08514 17.4572 1.2876 18.8672 1.68625 20.2272C1.34613 21.3709 1.47543 22.6029 2.04558 23.6511C2.61573 24.6993 3.5798 25.4773 4.72475 25.8131C7.02725 28.4884 10.204 30.2603 13.69 30.8137C17.332 31.3949 21.0603 30.6062 24.155 28.6C25.9812 29.425 28.1329 28.9414 29.4304 27.4144C30.728 25.8874 30.858 23.6858 29.7492 22.0167C31.6156 17.7556 31.383 12.867 29.1206 8.80222ZM25 7.50002C24.4477 7.50002 24 7.0523 24 6.50001C24 5.94773 24.4477 5.50001 25 5.50001C25.5523 5.50001 26 5.94773 26 6.50001C25.9995 7.05207 25.5521 7.49946 25 7.50002ZM23.99 8.21647C24.6101 8.59453 25.3894 8.59453 26.0095 8.21647C26.6147 8.48772 27.0892 8.98562 27.3312 9.60312C26.0069 10.799 23.9926 10.799 22.6684 9.60312C22.9103 8.98558 23.385 8.48766 23.9903 8.21647H23.99ZM28.5 7.00002C28.4998 7.61439 28.3367 8.21773 28.0274 8.74852C27.719 8.21515 27.2744 7.77338 26.7391 7.46852C26.9079 7.17352 26.9978 6.83993 27 6.50001C27 5.39544 26.1046 4.50001 25 4.50001C23.8954 4.50001 23 5.39544 23 6.50001C23.0022 6.83984 23.0921 7.17334 23.261 7.46827C22.7256 7.77313 22.281 8.2149 21.9727 8.74827C21.2367 7.47454 21.3762 5.87649 22.3218 4.74957C23.2673 3.62264 24.8168 3.20763 26.199 3.7111C27.5812 4.21458 28.5008 5.52897 28.5 7.00002ZM16.04 2.08501C18.1655 2.08541 20.2628 2.57078 22.1724 3.50416C21.2605 4.24118 20.6727 5.30524 20.5342 6.46946C20.112 6.28579 19.6483 6.21878 19.1914 6.27541C18.8558 6.33733 18.53 6.44416 18.2229 6.59301C18.0269 6.68567 17.8233 6.76116 17.6143 6.81862C17.4138 6.86451 17.2034 6.83128 17.0269 6.72587C16.9534 6.67312 16.9495 6.63162 16.948 6.61586C16.9365 6.48586 17.0996 6.32536 17.3494 6.09511C17.656 5.85285 17.8976 5.53805 18.0523 5.17911C18.2576 4.47193 17.954 3.71587 17.3167 3.34706C16.7112 3.01352 16.0077 2.90359 15.3294 3.03651C15.0914 3.06403 14.8518 3.07537 14.6123 3.07046C14.0146 3.03791 13.4442 2.8093 12.9895 2.42001C13.9909 2.19637 15.0139 2.08402 16.04 2.08501ZM11.8914 2.71771C12.5514 3.52668 13.5234 4.01796 14.5662 4.06961C14.8517 4.07718 15.1374 4.0647 15.4212 4.03226C15.8807 3.92773 16.3623 3.9848 16.7847 4.19386C17.0206 4.32046 17.1508 4.58239 17.1092 4.84691C17.0005 5.04626 16.8516 5.22085 16.6719 5.35961C16.2249 5.66253 15.9556 6.16608 15.9519 6.70607C15.9855 7.04229 16.1653 7.3467 16.4436 7.53837C16.856 7.81153 17.3626 7.90307 17.8445 7.79152C18.1115 7.72161 18.3715 7.62747 18.6214 7.51027C18.8483 7.39853 19.0886 7.31609 19.3364 7.26492C19.7637 7.23443 20.1888 7.34893 20.543 7.58992C20.6442 8.35596 20.9422 9.08269 21.408 9.69922C21.3662 9.72422 21.3252 9.75047 21.2834 9.77522C21.1494 9.85457 21.019 9.93222 20.8652 10.0382C20.3131 10.4565 19.708 10.7999 19.0659 11.0596C18.823 11.1409 18.5757 11.2082 18.3252 11.2611C17.8034 11.3518 17.3018 11.5343 16.8438 11.8C15.9251 12.3933 16.0374 13.3423 16.1077 13.9128C16.0916 13.9075 16.0735 13.9009 16.054 13.8923C15.968 13.8573 15.884 13.8173 15.8011 13.7781C15.284 13.4294 14.6143 13.4026 14.0711 13.7089C13.5278 14.0152 13.2042 14.6021 13.235 15.225C13.235 16.4113 14.1156 17.1027 14.8232 17.6586L15.0697 17.8542C15.2263 17.9974 15.3671 18.157 15.4897 18.3302C14.4841 18.0773 13.4782 17.8286 12.4721 17.5839C11.6262 17.3796 10.7707 17.1274 10.4216 16.5014C10.2877 16.2176 10.1973 15.9153 10.1535 15.6047C10.0903 15.1119 9.91716 14.6397 9.6469 14.2228C9.13336 13.65 8.44146 13.2674 7.6833 13.1369L7.59245 13.1108C6.8437 12.8879 6.43185 12.6196 6.29745 12.2677C6.21398 11.8114 6.28847 11.3403 6.50865 10.9321C6.7913 10.3442 6.88559 9.68342 6.77865 9.03997C6.66656 8.54627 6.33658 8.13008 5.88145 7.90837C5.54863 7.75974 5.18234 7.70206 4.81995 7.74122C6.57797 5.3523 9.05689 3.59129 11.8914 2.71771ZM2.085 16.04C2.08556 14.0047 2.52847 11.9938 3.38305 10.1465L3.42065 10.0657C3.55651 9.70664 3.75941 9.37673 4.01855 9.09352C4.11018 9.00123 4.21886 8.9276 4.33855 8.87672C4.68323 8.70297 5.08417 8.67853 5.4474 8.80912C5.63623 8.90416 5.77039 9.0813 5.8107 9.28882C5.85471 9.73621 5.77117 10.1869 5.56975 10.5888C5.251 11.2181 5.17739 11.9433 5.3632 12.6238C5.69865 13.5005 6.6332 13.8688 7.3119 14.0706L7.40885 14.0984C7.94936 14.1848 8.45011 14.4357 8.8429 14.8169C9.02047 15.1179 9.13296 15.4528 9.1731 15.8C9.2349 16.2136 9.36163 16.6147 9.5486 16.9887C10.0945 17.967 11.2229 18.3108 12.2368 18.5559C13.3257 18.8205 14.4146 19.0902 15.5037 19.365C15.7229 19.4367 15.9598 19.4338 16.1773 19.3567C16.4306 19.2581 16.612 19.0317 16.6529 18.7629C16.7674 18.0049 15.7205 17.0945 15.7046 17.0813L15.4409 16.8723C14.8208 16.3853 14.235 15.925 14.235 15.22C14.2291 14.9248 14.3991 14.6544 14.6676 14.5316C14.8561 14.4527 15.0104 14.5108 15.3739 14.6822C15.4731 14.7291 15.5734 14.776 15.6652 14.8136C16.0532 15.0224 16.5309 14.9631 16.8561 14.6658C17.0684 14.4309 17.159 14.1104 17.1011 13.7991C17.0189 13.1324 17.0496 12.8573 17.3868 12.6397C17.7495 12.4402 18.1434 12.3033 18.5518 12.2347C18.8405 12.1734 19.1253 12.0951 19.4048 12.0001C20.1416 11.706 20.8357 11.3146 21.4688 10.8365C21.5688 10.7679 21.6795 10.7028 21.793 10.6356C21.8935 10.5761 22.0007 10.5117 22.108 10.4423C23.0362 11.2257 24.2424 11.5992 25.451 11.4773C26.6595 11.3555 27.7669 10.7487 28.52 9.79572C30.3002 13.3447 30.4832 17.4842 29.0231 21.1763C27.7835 20.0425 26.0145 19.6958 24.4386 20.2778C22.8626 20.8598 21.7437 22.2731 21.5386 23.9405C21.3614 23.7638 21.1845 23.5864 21.0064 23.4043C20.3168 22.7513 19.5224 22.2189 18.6564 21.8293C17.3917 21.2234 16.2824 21.2805 15.6117 21.987C15.2996 22.3565 15.0511 22.7753 14.8763 23.2263C14.787 23.4243 14.6996 23.6194 14.6024 23.7898C14.4247 24.122 14.1828 24.4156 13.8908 24.6535C13.7593 24.745 13.6191 24.8232 13.4723 24.8869C13.1676 25.0119 12.8911 25.1965 12.6589 25.43C12.4048 25.7462 12.2376 26.1232 12.174 26.5238C12.1392 26.7024 12.0849 26.8767 12.012 27.0435C11.774 27.4412 11.6377 27.8914 11.6151 28.3543C11.6218 28.7111 11.7244 29.0596 11.912 29.3631C9.78312 28.7068 7.84286 27.549 6.25425 25.9872C8.34208 25.8721 10.0751 24.3331 10.4361 22.2735C10.7972 20.2139 9.69093 18.1772 7.76673 17.3588C5.84254 16.5404 3.60814 17.1563 2.375 18.845C2.18398 17.9222 2.08682 16.9824 2.085 16.04ZM6 22C5.44771 22 5 21.5523 5 21C5 20.4477 5.44771 20 6 20C6.55228 20 7 20.4477 7 21C6.99945 21.5521 6.55206 21.9995 6 22ZM4.99025 22.7165C5.61033 23.0945 6.38966 23.0945 7.00975 22.7165C7.61493 22.9877 8.08949 23.4856 8.3314 24.1031C7.00716 25.299 4.99284 25.299 3.6686 24.1031C3.9105 23.4856 4.38507 22.9877 4.99025 22.7165ZM6 18C7.25094 17.9978 8.40761 18.6645 9.03263 19.7481C9.65765 20.8317 9.65564 22.1668 9.02735 23.2485C8.71904 22.7152 8.2744 22.2734 7.73905 21.9685C7.90793 21.6735 7.99781 21.3399 8 21C8 19.8955 7.10457 19 6 19C4.89543 19 4 19.8955 4 21C4.00223 21.3399 4.09211 21.6734 4.26095 21.9683C3.7256 22.2731 3.28096 22.7149 2.97265 23.2483C2.34449 22.1666 2.34254 20.8316 2.96755 19.7481C3.59256 18.6646 4.74914 17.9978 6 18ZM16.04 30C15.3347 29.9996 14.6305 29.9449 13.9337 29.8365C13.7409 29.7294 13.554 29.6121 13.3737 29.4851C12.9695 29.2332 12.6932 28.8198 12.615 28.35C12.6435 28.0492 12.7412 27.759 12.9004 27.5021C13.012 27.2642 13.0946 27.0137 13.1463 26.756C13.1788 26.5214 13.2654 26.2975 13.3992 26.102C13.5471 25.9677 13.7182 25.8614 13.9042 25.7883C14.1132 25.6962 14.3118 25.5822 14.4969 25.4483C14.8954 25.1304 15.226 24.7357 15.4691 24.2876C15.5868 24.0811 15.6888 23.856 15.7872 23.6382C15.9208 23.2908 16.1064 22.9657 16.3378 22.6741C16.8363 22.148 17.8228 22.5383 18.2223 22.73C18.9829 23.0716 19.6822 23.5359 20.2923 24.1043C20.719 24.5403 21.1423 24.9636 21.5858 25.3693C21.7934 26.4153 22.3656 27.3536 23.2004 28.017C21.038 29.316 18.5626 30.0016 16.04 30ZM23.6686 27.1031C23.9105 26.4856 24.385 25.9877 24.9902 25.7165C25.6103 26.0945 26.3896 26.0945 27.0097 25.7165C27.6149 25.9877 28.0894 26.4856 28.3314 27.1031C27.0071 28.299 24.9928 28.299 23.6686 27.1031ZM26 25C25.4477 25 25 24.5523 25 24C25 23.4477 25.4477 23 26 23C26.5523 23 27 23.4477 27 24C26.9995 24.5521 26.5521 24.9995 26 25ZM29.0274 26.2485C28.719 25.7152 28.2744 25.2734 27.7391 24.9685C27.9079 24.6735 27.9978 24.3399 28 24C28 22.8955 27.1046 22 26 22C24.8954 22 24 22.8955 24 24C24.0022 24.3399 24.0921 24.6734 24.261 24.9683C23.7256 25.2731 23.281 25.7149 22.9727 26.2483C22.1193 24.7775 22.4465 22.9062 23.7483 21.8123C25.0502 20.7183 26.9499 20.7183 28.2517 21.8123C29.5535 22.9062 29.8807 24.7775 29.0274 26.2483V26.2485Z" fill="#343434" stroke="#343434" stroke-width="0.5"/>
</svg>
