<svg width="30" height="30" viewBox="0 0 30 30" fill="none" xmlns="http://www.w3.org/2000/svg">
<path d="M13 22C13 20.8954 13.8954 20 15 20C16.1046 20 17 20.8954 17 22C17 23.1046 16.1046 24 15 24C13.8954 24 13 23.1046 13 22ZM13.5 7C13.5 6.17157 14.1716 5.5 15 5.5C15.8284 5.5 16.5 6.17157 16.5 7V16.5C16.5 17.3284 15.8284 18 15 18C14.1716 18 13.5 17.3284 13.5 16.5V7ZM14.985 0C6.705 0 0 6.72 0 15C0 23.28 6.705 30 14.985 30C23.28 30 30 23.28 30 15C30 6.72 23.28 0 14.985 0ZM15 27C8.37 27 3 21.63 3 15C3 8.37 8.37 3 15 3C21.63 3 27 8.37 27 15C27 21.63 21.63 27 15 27Z" fill="#343434"/>
</svg>
