<svg width="30" height="30" viewBox="0 0 30 30" fill="none" xmlns="http://www.w3.org/2000/svg">
<path d="M8 15C8 16.6569 6.65685 18 5 18C3.34315 18 2 16.6569 2 15C2 13.3431 3.34315 12 5 12C6.65685 12 8 13.3431 8 15Z" fill="#4F4F4F"/>
<path d="M18 15C18 16.6569 16.6569 18 15 18C13.3431 18 12 16.6569 12 15C12 13.3431 13.3431 12 15 12C16.6569 12 18 13.3431 18 15Z" fill="#4F4F4F"/>
<path d="M25 18C26.6569 18 28 16.6569 28 15C28 13.3431 26.6569 12 25 12C23.3431 12 22 13.3431 22 15C22 16.6569 23.3431 18 25 18Z" fill="#4F4F4F"/>
</svg>
