<svg width="30" height="30" viewBox="0 0 30 30" fill="none" xmlns="http://www.w3.org/2000/svg">
<path d="M27.6888 18.8267C27.2761 18.8267 26.9417 19.1629 26.9417 19.5776V26.2451C26.9402 27.4888 25.9377 28.4967 24.7002 28.4978H3.73578C2.4983 28.4967 1.49577 27.4888 1.49431 26.2451V6.67662C1.49577 5.43318 2.4983 4.42529 3.73578 4.42383H10.3697C10.7824 4.42383 11.1169 4.08767 11.1169 3.6729C11.1169 3.25842 10.7824 2.92197 10.3697 2.92197H3.73578C1.67351 2.92432 0.00233486 4.60393 0 6.67662V26.2454C0.00233486 28.318 1.67351 29.9977 3.73578 30H24.7002C26.7625 29.9977 28.4336 28.318 28.436 26.2454V19.5776C28.436 19.1629 28.1015 18.8267 27.6888 18.8267Z" fill="#4F4F4F"/>
<path d="M28.14 0.989774C26.827 -0.329925 24.6982 -0.329925 23.3851 0.989774L10.0554 14.3868C9.96403 14.4786 9.89807 14.5924 9.86363 14.7174L8.11073 21.0777C8.03864 21.3385 8.1119 21.6177 8.30219 21.8093C8.49277 22.0005 8.77062 22.0742 9.03008 22.002L15.3584 20.24C15.4828 20.2053 15.596 20.139 15.6874 20.0472L29.0168 6.6499C30.3278 5.32932 30.3278 3.19152 29.0168 1.87094L28.14 0.989774ZM11.6834 14.8749L22.5927 3.91018L26.1111 7.4463L15.2014 18.411L11.6834 14.8749ZM10.9806 16.2923L13.7914 19.1177L9.90332 20.2004L10.9806 16.2923ZM27.9603 5.58804L27.1679 6.38444L23.6492 2.84803L24.4419 2.05163C25.1713 1.3186 26.3539 1.3186 27.0832 2.05163L27.9603 2.9328C28.6884 3.66672 28.6884 4.85442 27.9603 5.58804Z" fill="#4F4F4F"/>
</svg>
