<svg width="30" height="30" viewBox="0 0 30 30" fill="none" xmlns="http://www.w3.org/2000/svg">
<path d="M14.9874 29.9998C6.65606 30.0359 -0.194438 23.1034 0.00421438 14.6363C0.190827 6.57238 6.87277 -0.0893608 15.18 0.000906693C23.4091 0.0911742 30.2174 6.93947 29.9947 15.4186C29.784 23.4464 23.1562 30.0419 14.9874 29.9998ZM1.8282 15.0214C1.89442 22.5618 8.0105 28.369 15.2342 28.2426C22.2292 28.1162 28.1587 22.4173 28.1587 15.0034C28.1587 7.46302 21.9944 1.63174 14.7466 1.77015C7.75165 1.89652 1.87636 7.61346 1.8282 15.0214Z" fill="#343434"/>
<path d="M11.8572 25.5586C11.8572 22.0141 11.8572 18.4997 11.8572 14.9492C11.0746 14.9492 10.3161 14.9492 9.53954 14.9492C9.53954 13.7456 9.53954 12.5782 9.53954 11.3746C9.64188 11.3686 9.74421 11.3566 9.85257 11.3566C10.4124 11.3566 10.9783 11.3445 11.5381 11.3626C11.7849 11.3686 11.8692 11.3024 11.8632 11.0496C11.8511 10.1349 11.8511 9.22624 11.8572 8.31153C11.8632 7.28249 12.1521 6.34972 12.8865 5.60351C13.5969 4.88137 14.5059 4.49021 15.4931 4.43003C17.0823 4.33977 18.6776 4.3518 20.2728 4.32171C20.2909 4.32171 20.3089 4.33977 20.345 4.35782C20.345 5.5674 20.345 6.78301 20.345 8.0287C20.2307 8.03471 20.1223 8.04073 20.02 8.04073C19.2976 8.04073 18.5752 8.04073 17.8528 8.04073C17.1245 8.04675 16.6971 8.48003 16.6971 9.19616C16.6971 9.87617 16.697 10.5622 16.7031 11.2422C16.7031 11.2603 16.7151 11.2783 16.7332 11.3445C17.9251 11.3445 19.129 11.3445 20.3932 11.3445C20.2367 12.5661 20.0922 13.7336 19.9357 14.9432C18.8461 14.9432 17.7806 14.9432 16.685 14.9432C16.685 18.5057 16.685 22.0322 16.685 25.5707C15.0657 25.5586 13.4885 25.5586 11.8572 25.5586Z" fill="#343434"/>
</svg>
