<svg width="16" height="16" viewBox="0 0 16 16" fill="none" xmlns="http://www.w3.org/2000/svg">
<path d="M3.51996 1.27979H0.640106C0.466771 1.27979 0.316796 1.34314 0.190008 1.46983C0.0633592 1.59644 0 1.74645 0 1.91972V8.3197C0 8.49301 0.0633592 8.64309 0.190043 8.76966C0.316691 8.89624 0.466666 8.95967 0.640142 8.95967H3.51996C3.69326 8.95967 3.8432 8.89624 3.96991 8.76966C4.09656 8.64312 4.15989 8.49304 4.15989 8.3197V1.91972C4.15989 1.74645 4.09653 1.59648 3.96991 1.46983C3.84323 1.34311 3.69329 1.27979 3.51996 1.27979ZM2.36993 3.64982C2.24328 3.7765 2.09331 3.83979 1.91997 3.83979C1.73994 3.83979 1.58825 3.7765 1.465 3.64982C1.34168 3.52314 1.28004 3.3732 1.28004 3.19976C1.28004 3.01984 1.34165 2.86811 1.465 2.74475C1.58829 2.62143 1.73994 2.55982 1.91997 2.55982C2.09331 2.55982 2.24328 2.62143 2.36993 2.74475C2.49675 2.86808 2.55997 3.01984 2.55997 3.19976C2.55997 3.37306 2.49661 3.523 2.36993 3.64982Z" fill="#FF6262"/>
<path d="M15.4494 6.82967C15.5496 6.53631 15.5994 6.28301 15.5987 6.06989C15.6188 5.56322 15.4754 5.10657 15.1686 4.69994C15.282 4.32658 15.282 3.93651 15.1686 3.52987C15.0689 3.14986 14.8886 2.83667 14.6288 2.58999C14.6887 1.84327 14.5255 1.24004 14.1388 0.779996C13.7121 0.273366 13.0555 0.0132393 12.1688 0H11.8088H11.0489H10.8789C10.439 0 9.95883 0.0516611 9.43889 0.154983C8.9192 0.258376 8.51407 0.355078 8.22425 0.445056C7.93425 0.534999 7.53252 0.666691 7.0193 0.839993C6.19928 1.1266 5.67261 1.27328 5.43932 1.2799C5.26598 1.28666 5.11601 1.35156 4.98936 1.47495C4.86268 1.59817 4.79932 1.74657 4.79932 1.91987V8.32974C4.79932 8.49635 4.85949 8.64139 4.97941 8.7646C5.09934 8.88803 5.24269 8.9564 5.40934 8.96978C5.56922 8.98322 5.82259 9.17978 6.1693 9.55973C6.51604 9.93971 6.85266 10.3432 7.17926 10.7699C7.63262 11.3496 7.96934 11.7496 8.18926 11.9697C8.30918 12.0895 8.41236 12.2495 8.49915 12.4496C8.58573 12.6495 8.64423 12.8112 8.67442 12.9345C8.70436 13.0578 8.74919 13.2593 8.80947 13.5396C8.85598 13.7994 8.8977 14.0028 8.93447 14.1494C8.97114 14.2961 9.03597 14.4694 9.12935 14.6693C9.22286 14.8695 9.3361 15.036 9.46951 15.1693C9.59608 15.2961 9.74613 15.3595 9.91946 15.3595C10.2263 15.3595 10.501 15.3245 10.7446 15.2545C10.9879 15.1845 11.1878 15.098 11.3446 14.9947C11.5014 14.8911 11.6347 14.7564 11.7447 14.5896C11.8548 14.423 11.9347 14.2729 11.9847 14.1396C12.0348 14.0061 12.0748 13.8397 12.1047 13.6398C12.1346 13.4396 12.1515 13.2895 12.1548 13.1896C12.158 13.0896 12.1598 12.9597 12.1598 12.7995C12.1598 12.5464 12.1266 12.2913 12.06 12.0346C11.9931 11.7781 11.9297 11.583 11.8699 11.4494C11.8099 11.3161 11.7199 11.1263 11.6 10.8796C11.5798 10.8396 11.5466 10.7794 11.5 10.6995C11.4535 10.6195 11.4166 10.546 11.39 10.4794C11.3632 10.4128 11.3367 10.3328 11.3101 10.2394H14.0801C14.5999 10.2394 15.0483 10.0493 15.4249 9.66925C15.8016 9.2893 15.9933 8.83938 16 8.31941C15.9995 7.73296 15.8161 7.23627 15.4494 6.82967Z" fill="#FF6262"/>
</svg>
