<svg width="16" height="16" viewBox="0 0 16 16" fill="none" xmlns="http://www.w3.org/2000/svg">
<path d="M15.45 8.53007C15.8166 8.11012 16 7.6135 16 7.0401C16 6.52012 15.8097 6.07018 15.4305 5.68998C15.0505 5.30982 14.6006 5.11984 14.0806 5.11984H11.3107C11.3374 5.02654 11.3641 4.94654 11.3907 4.87989C11.417 4.81323 11.4541 4.73982 11.5006 4.65982C11.5471 4.57979 11.5805 4.51976 11.6005 4.47983C11.7204 4.25328 11.8123 4.0665 11.8757 3.91995C11.939 3.77312 12.002 3.5732 12.0655 3.31986C12.1289 3.06667 12.1605 2.81322 12.1605 2.55989C12.1605 2.39996 12.1585 2.26984 12.1554 2.16992C12.1523 2.06992 12.1353 1.91987 12.1055 1.71984C12.0753 1.51992 12.0353 1.35323 11.9854 1.21996C11.9353 1.08666 11.8552 0.936539 11.7454 0.769994C11.6354 0.603134 11.5021 0.468322 11.3453 0.364928C11.1885 0.261603 10.9886 0.174951 10.7453 0.105006C10.5017 0.0349902 10.2269 0 9.92003 0C9.74673 0 9.59686 0.0633606 9.47006 0.190047C9.33676 0.323353 9.22324 0.490003 9.13001 0.689926C9.03663 0.889955 8.97159 1.06329 8.93488 1.21002C8.89821 1.35667 8.85649 1.56006 8.81001 1.81998C8.74981 2.10011 8.70501 2.30165 8.67482 2.42497C8.64487 2.54829 8.58638 2.70993 8.4998 2.90989C8.41304 3.10999 8.30982 3.26988 8.18979 3.38995C7.96983 3.60991 7.6332 4.00993 7.17977 4.58988C6.85302 5.01648 6.51639 5.4198 6.16974 5.79982C5.82303 6.17992 5.56973 6.37655 5.40977 6.38989C5.24322 6.4032 5.09987 6.47154 4.97983 6.59493C4.8598 6.71825 4.7998 6.86329 4.7998 7.02991V13.4399C4.7998 13.6132 4.8631 13.7615 4.98978 13.8848C5.1164 14.0083 5.26641 14.0732 5.43975 14.0799C5.67305 14.0866 6.19973 14.2331 7.01977 14.52C7.53303 14.6931 7.93463 14.825 8.22464 14.9149C8.51458 15.0047 8.91985 15.1015 9.43945 15.2049C9.95954 15.3082 10.4395 15.36 10.8793 15.36H11.0494H11.8094H12.1694C13.0562 15.3467 13.7126 15.0866 14.1394 14.5801C14.526 14.12 14.6892 13.5167 14.6294 12.77C14.8894 12.5234 15.0695 12.2102 15.1694 11.8301C15.2825 11.4236 15.2825 11.0336 15.1694 10.6603C15.476 10.2537 15.6193 9.797 15.5992 9.29033C15.6 9.07678 15.5502 8.82351 15.45 8.53007Z" fill="#00CCB1"/>
<path d="M3.52003 6.40015H0.64012C0.466676 6.40015 0.316663 6.46351 0.190012 6.59019C0.0633606 6.71681 0 6.86682 0 7.04016V13.4404C0 13.6135 0.0633606 13.7636 0.190047 13.8904C0.316803 14.0168 0.466816 14.0802 0.640155 14.0802H3.52003C3.69334 14.0802 3.84328 14.0168 3.97 13.8904C4.09665 13.7636 4.15998 13.6135 4.15998 13.4404V7.04016C4.15998 6.86682 4.09662 6.71684 3.97 6.59019C3.84331 6.46347 3.69337 6.40015 3.52003 6.40015ZM2.36998 12.6152C2.24333 12.7385 2.09335 12.8001 1.92001 12.8001C1.73998 12.8001 1.58829 12.7385 1.46503 12.6152C1.34171 12.4918 1.28007 12.3402 1.28007 12.1602C1.28007 11.9869 1.34168 11.8368 1.46503 11.7102C1.58832 11.5835 1.73998 11.5201 1.92001 11.5201C2.09335 11.5201 2.24333 11.5835 2.36998 11.7102C2.49667 11.8368 2.56003 11.9868 2.56003 12.1602C2.56003 12.3402 2.49681 12.4918 2.36998 12.6152Z" fill="#00CCB1"/>
</svg>
