<svg width="22" height="22" viewBox="0 0 22 22" fill="none" xmlns="http://www.w3.org/2000/svg">
<path d="M1.20362 3.66667L3.08478 20.3214C3.08478 21.2495 4.12899 22 5.42029 22H16.6594C17.9507 22 18.9949 21.2495 18.9949 20.3214L20.8522 3.66667H1.20362ZM6.11377 18.849L5.57971 5.5H7.05435L7.60435 18.849H6.11377ZM11.7174 18.849H10.2826V5.5H11.7174V18.849ZM15.8862 18.849H14.4036L14.9457 5.5H16.4203L15.8862 18.849ZM19.6087 1.60417H16.7391L14.6428 0.286458C14.3478 0.103125 13.9732 0 13.5906 0H8.42536C8.03478 0 7.65217 0.103125 7.35725 0.286458L5.26087 1.60417H2.3913C0.988406 1.60417 0 2.08542 0 3.09375H22C22 2.08542 21.0116 1.60417 19.6087 1.60417Z" fill="#4F4F4F"/>
</svg>
