<svg width="80" height="80" viewBox="0 0 80 80" fill="none" xmlns="http://www.w3.org/2000/svg">
<path d="M40 0C17.9444 0 0 17.9444 0 40C0 62.0556 17.9444 80 40 80C62.0556 80 80 62.0556 80 40C80 17.9444 62.0556 0 40 0ZM40 70C23.4586 70 10 56.5414 10 40C10 33.6866 11.9141 27.7181 15.5534 22.6253L57.3747 64.4466C52.2819 68.0859 46.3134 70 40 70ZM64.4466 57.3747L22.6253 15.5534C27.7181 11.9141 33.6866 10 40 10C56.5414 10 70 23.4586 70 40C70 46.3134 68.0859 52.2819 64.4466 57.3747Z" fill="#E9E9E9"/>
</svg>
