<svg width="12" height="30" viewBox="0 0 12 30" fill="none" xmlns="http://www.w3.org/2000/svg">
<path d="M7.69556 0C5.7929 0 4.24503 1.54787 4.24503 3.45053C4.24503 5.35319 5.79296 6.90107 7.69556 6.90107C9.59822 6.90107 11.1461 5.35319 11.1461 3.45053C11.1461 1.54787 9.59817 0 7.69556 0ZM7.69556 4.56171C7.08285 4.56171 6.58439 4.06325 6.58439 3.45053C6.58439 2.83782 7.08291 2.33936 7.69556 2.33936C8.30828 2.33936 8.80674 2.83782 8.80674 3.45053C8.80674 4.06325 8.30828 4.56171 7.69556 4.56171Z" fill="#4F4F4F"/>
<path d="M10.4468 24.8088L8.59937 25.7241L10.6072 12.1559C10.6156 12.0992 10.6197 12.042 10.6197 11.9847C10.6197 10.9445 10.1111 9.97251 9.2592 9.38452C8.41691 8.80327 7.34365 8.67267 6.38804 9.03513C6.35324 9.04837 6.31902 9.0632 6.28562 9.07972L0.514709 11.9254L1.5493 14.0235L3.39929 13.1113L1.39186 26.6729C1.38348 26.7295 1.37926 26.7868 1.37926 26.8441C1.37926 27.881 1.88985 28.8522 2.74503 29.4425C3.27852 29.8106 3.90249 30.0001 4.53038 30.0001C4.90251 30.0001 5.27611 29.9335 5.63294 29.7981C5.66845 29.7846 5.70326 29.7694 5.7373 29.7526L11.4853 26.905L10.4468 24.8088ZM6.04743 26.9883L4.76083 27.6257C4.43476 27.7296 4.17366 27.5861 4.07376 27.5172C3.97345 27.448 3.74809 27.2556 3.7212 26.9123L5.95017 11.8533L7.25939 11.2077C7.56836 11.1083 7.81058 11.2272 7.93023 11.3099C8.02914 11.3781 8.25127 11.5687 8.27764 11.9161L6.04743 26.9883Z" fill="#4F4F4F"/>
</svg>
