<svg width="30" height="30" viewBox="0 0 30 30" fill="none" xmlns="http://www.w3.org/2000/svg">
<path d="M2.22238 1.66653C1.60888 1.66653 1.08513 1.88399 0.65102 2.31755C0.217149 2.75167 0 3.27548 0 3.88892C0 4.29396 0.101247 4.66441 0.303923 4.99996C0.506295 5.33562 0.775496 5.60178 1.11104 5.79862V27.778C1.11104 27.9401 1.16303 28.0733 1.26732 28.1773C1.37142 28.2815 1.50441 28.3334 1.66665 28.3334H2.77769C2.93981 28.3334 3.07298 28.2815 3.17702 28.1773C3.28119 28.0733 3.33318 27.9401 3.33318 27.778V5.79862C3.66884 5.60178 3.93792 5.33562 4.14042 4.99996C4.34303 4.66441 4.44422 4.29378 4.44422 3.88892C4.44422 3.27566 4.22731 2.75191 3.7935 2.31755C3.35945 1.8838 2.83564 1.66653 2.22238 1.66653Z" fill="#343434"/>
<path d="M29.4625 4.04508C29.1035 3.83687 28.745 3.82544 28.3856 4.01054C28.2818 4.06861 28.1021 4.16682 27.8477 4.3057C25.6718 5.60197 23.878 6.25019 22.4658 6.25019C21.8754 6.25019 21.3601 6.14019 20.9205 5.92036C19.6245 5.28382 18.4148 4.78603 17.2921 4.42714C16.1694 4.06861 14.9599 3.8891 13.6637 3.8891C12.8188 3.8891 11.9217 3.99911 10.9728 4.21905C10.0237 4.43888 9.14097 4.72535 8.32503 5.07816C7.50916 5.43122 6.8492 5.7321 6.34595 5.98099C5.84215 6.22988 5.3879 6.47561 4.98298 6.71878C4.62414 6.95022 4.44464 7.26849 4.44464 7.67366V20.5555C4.44464 20.9838 4.62986 21.308 5.00019 21.5277C5.18535 21.6205 5.37057 21.6665 5.5558 21.6665C5.76401 21.6665 5.95513 21.6145 6.12855 21.5107C7.22804 20.8393 8.55027 20.2488 10.0954 19.7395C11.6408 19.2303 13.0037 18.9757 14.1842 18.9757C14.8552 18.9757 15.5153 19.0566 16.1634 19.2187C16.8113 19.3806 17.3382 19.5488 17.7432 19.7221C18.1479 19.8958 18.7208 20.1735 19.4619 20.5555L19.948 20.7986C20.7579 21.2039 21.6723 21.4066 22.6905 21.4066C24.4385 21.4066 26.5738 20.7353 29.097 19.3927C29.1782 19.3465 29.2764 19.2945 29.3921 19.2364C29.7971 19.0281 29.9999 18.6984 29.9999 18.2469V4.99996C30.0002 4.59491 29.8208 4.27676 29.4625 4.04508ZM6.66659 8.31611C9.12041 6.95028 11.3425 6.22118 13.3334 6.12857V9.54864C11.3772 9.62982 9.15483 10.3126 6.66659 11.5974V8.31611ZM13.3335 16.8056C11.2616 16.9676 9.03917 17.6044 6.66665 18.7156V15.5034C9.01619 14.3347 11.2386 13.6576 13.3335 13.4723V16.8056ZM27.7777 17.5873C25.7754 18.6519 24.0798 19.1842 22.691 19.1842C22.1242 19.1842 21.5973 19.0856 21.1112 18.889V15.6254C22.8359 16.1462 25.0579 15.7356 27.7778 14.3927L27.7777 17.5873ZM27.7777 10.1739C25.0467 11.7016 22.8242 12.2223 21.1111 11.7365L21.1112 15.6254C20.8798 15.5563 20.6541 15.4689 20.434 15.3646C19.1956 14.7512 18.0524 14.2766 17.0053 13.9409C15.9577 13.6054 14.8436 13.4374 13.6631 13.4374H13.3333V9.58324C13.6341 9.54846 13.9177 9.53125 14.1838 9.53125C14.4383 9.53125 14.6932 9.54299 14.9477 9.56598C15.2025 9.58896 15.4312 9.61219 15.6335 9.6353C15.8358 9.65846 16.0642 9.7017 16.3194 9.76549C16.5741 9.82897 16.7767 9.87817 16.927 9.91289C17.0777 9.94785 17.286 10.0201 17.5524 10.13C17.8187 10.2402 18.0064 10.3154 18.1165 10.3559C18.2264 10.3964 18.4261 10.4861 18.7156 10.625C19.0047 10.764 19.1872 10.8509 19.2622 10.8855C19.3378 10.9202 19.5373 11.0186 19.8614 11.1809C20.1854 11.3427 20.3767 11.4412 20.4343 11.476C20.654 11.5802 20.8797 11.6672 21.1111 11.7365L21.1113 8.33368C21.4933 8.42617 21.9447 8.47269 22.4654 8.47269C24.0511 8.47269 25.822 7.94591 27.7781 6.89282L27.7777 10.1739Z" fill="#343434"/>
</svg>
