<svg width="30" height="30" viewBox="0 0 30 30" fill="none" xmlns="http://www.w3.org/2000/svg">
<path d="M6.35872 30C6.5881 30 6.77419 29.8068 6.77419 29.5682V18.5906C6.77419 17.9448 6.2687 17.4194 5.64722 17.4194H2.09471C1.47324 17.4194 0.967743 17.9448 0.967743 18.5906V29.5682C0.967743 29.8068 1.15384 30 1.38322 30H6.35872ZM2.5 19H5.29087V28.5884H2.5V19Z" fill="#343434"/>
<path d="M9.83648 14.5161C9.2152 14.5161 8.70969 15.0418 8.70969 15.6881V29.5679C8.70969 29.8067 8.89557 30 9.12517 30H14.1006C14.3303 30 14.5161 29.8067 14.5161 29.5679V15.6881C14.5161 15.0418 14.0106 14.5161 13.3893 14.5161H9.83648ZM13.0742 16V28.5H10.3008V16H13.0742Z" fill="#343434"/>
<path d="M22.2581 29.5678V12.7853C22.2581 12.1388 21.7526 11.6129 21.1311 11.6129H17.5786C16.9571 11.6129 16.4516 12.1388 16.4516 12.7853V29.5678C16.4516 29.8066 16.6377 30 16.8671 30H21.8426C22.072 30 22.2581 29.8066 22.2581 29.5678ZM21 28.646H17.8164V13C17.8164 13 19.7567 13 21 13C21 19.1102 21 28.646 21 28.646Z" fill="#343434"/>
<path d="M24.609 30H29.5845C29.8139 30 30 29.8066 30 29.5677V9.88204C30 9.23562 29.4945 8.70966 28.873 8.70966H25.3203C24.6991 8.70966 24.1935 9.23562 24.1935 9.88204V29.5677C24.1935 29.8066 24.3794 30 24.609 30ZM25.5 10H28.7093V28.6603H25.5V10Z" fill="#343434"/>
<path d="M1.11663 16.4516C1.40247 16.4516 1.68802 16.3624 1.90611 16.1838L10.0496 9.51823L13.7266 12.5279C14.1628 12.885 14.8694 12.885 15.3056 12.5279L26.799 3.12038V4.56989C26.799 5.07496 27.2986 5.48387 27.9156 5.48387C28.5327 5.48387 29.0323 5.07496 29.0323 4.56989V0.913978C29.0323 0.883989 29.0302 0.853761 29.0267 0.824009C29.025 0.809014 29.0215 0.794495 29.0189 0.779976C29.0163 0.765219 29.0142 0.750462 29.0107 0.735943C29.0067 0.718092 29.0006 0.700955 28.9953 0.68358C28.9915 0.672393 28.9886 0.660968 28.9846 0.649782C28.9779 0.631454 28.9697 0.613841 28.9616 0.59599C28.9569 0.585994 28.9532 0.575759 28.9482 0.566C28.9389 0.547673 28.9282 0.529822 28.9177 0.512209C28.9125 0.503164 28.9075 0.49412 28.902 0.485313C28.8892 0.465796 28.8752 0.447231 28.861 0.428665C28.856 0.422001 28.8517 0.415337 28.8464 0.40891C28.8264 0.384395 28.8052 0.360593 28.7825 0.337744C28.7822 0.337506 28.7822 0.337268 28.7819 0.33703C28.7336 0.288712 28.6795 0.244442 28.6205 0.204931C28.6202 0.204693 28.6199 0.204693 28.6196 0.204455C28.5917 0.18589 28.5626 0.168515 28.5327 0.152092C28.5248 0.147807 28.5167 0.144237 28.5085 0.140191C28.4859 0.128528 28.4632 0.117103 28.4393 0.106631C28.4286 0.101871 28.4175 0.0980623 28.4065 0.093778C28.385 0.0849714 28.3632 0.0764029 28.3408 0.0687864C28.3288 0.0647401 28.3163 0.061646 28.3041 0.0578377C28.2823 0.0511733 28.2608 0.0445089 28.2384 0.0390345C28.2247 0.0357023 28.2108 0.0333221 28.1971 0.0302279C28.1759 0.0259436 28.155 0.0209453 28.1331 0.0176131C28.1154 0.014757 28.0974 0.0130909 28.0793 0.0109487C28.0616 0.00880655 28.0439 0.00595038 28.0256 0.00452229C27.9892 0.00166611 27.9523 0 27.9156 0H23.4491C22.8321 0 22.3325 0.40891 22.3325 0.913978C22.3325 1.41905 22.8321 1.82796 23.4491 1.82796H25.22L14.5161 10.5893L10.8391 7.5796C10.4029 7.22257 9.69632 7.22257 9.26014 7.5796L0.327136 14.8914C-0.109045 15.2484 -0.109045 15.8268 0.327136 16.1838C0.545227 16.3624 0.830781 16.4516 1.11663 16.4516Z" fill="#343434"/>
</svg>
