<svg width="27" height="32" viewBox="0 0 27 32" fill="none" xmlns="http://www.w3.org/2000/svg">
<path d="M13.6681 20.4712H25.3787C25.7212 20.4712 26 20.1692 26 19.7981V12.104C26 11.7331 25.7212 11.4313 25.3787 11.4313H13.6681C13.3255 11.4313 13.0471 11.733 13.0471 12.104V15.6688H7.73692V10.0397H13.3318C13.6744 10.0397 13.9528 9.73785 13.9528 9.36695V1.67269C13.9528 1.30178 13.6743 1 13.3318 1H1.62105C1.27865 1 1 1.30178 1 1.67269V9.36701C1 9.73792 1.27865 10.0398 1.62105 10.0398H7.21594V26.762H13.0471V30.3273C13.0471 30.6984 13.3256 31 13.6681 31H25.3787C25.7212 31 26 30.6983 26 30.3273V22.633C26 22.2619 25.7212 21.9607 25.3787 21.9607H13.6681C13.3255 21.9607 13.0471 22.262 13.0471 22.633V26.1976H7.73692V16.2331H13.0471V19.7981C13.0471 20.1689 13.3255 20.4712 13.6681 20.4712ZM1.62105 9.46286C1.57205 9.46286 1.53251 9.41972 1.53251 9.36701V1.67269C1.53251 1.61979 1.57205 1.57684 1.62105 1.57684H13.3318C13.3808 1.57684 13.4205 1.61985 13.4205 1.67269V9.36701C13.4205 9.4201 13.3808 9.46286 13.3318 9.46286H1.62105ZM13.5796 22.633C13.5796 22.5801 13.6191 22.5371 13.6681 22.5371H25.3787C25.4278 22.5371 25.4675 22.5801 25.4675 22.633V30.3273C25.4675 30.3802 25.4279 30.4232 25.3787 30.4232H13.6681C13.6191 30.4232 13.5796 30.3802 13.5796 30.3273V26.762V26.1976V22.633ZM13.5796 12.104C13.5796 12.0509 13.6191 12.0082 13.6681 12.0082H25.3787C25.4278 12.0082 25.4675 12.0509 25.4675 12.104V19.7981C25.4675 19.8514 25.4279 19.8944 25.3787 19.8944H13.6681C13.6191 19.8944 13.5796 19.851 13.5796 19.7981V16.2331V15.6688V12.104Z" fill="#4F4F4F" stroke="#4F4F4F" stroke-width="1.3"/>
</svg>
