<svg width="30" height="30" viewBox="0 0 30 30" fill="none" xmlns="http://www.w3.org/2000/svg">
<g id="google">
<path id="Vector" d="M15 0C6.6875 0 0 6.6875 0 15C0 23.3125 6.6875 30 15 30C23.3125 30 30 23.3125 30 15C30 6.6875 23.3125 0 15 0ZM15 28.217C8.4375 28.217 2.02338 21.5625 2.02338 15C2.02338 8.4375 8.4375 1.93953 15 1.93953C21.5625 1.93953 27.9167 8.4375 27.9167 15C27.9167 21.5625 21.5625 28.217 15 28.217Z" fill="#343434"/>
<path id="Vector_2" d="M12.0333 6.48272C9.86842 7.24337 7.99606 8.88169 6.94285 10.9296C6.59179 11.6317 6.29923 12.3924 6.18221 13.2115C5.77263 15.1424 6.06518 17.2488 6.94285 19.0042C7.52797 20.1744 8.34713 21.1691 9.40033 21.9882C10.3365 22.7489 11.4482 23.334 12.677 23.6266C14.1983 24.0361 15.7781 24.0361 17.2409 23.6851C18.5866 23.3925 19.8739 22.7489 20.9271 21.7542C22.0388 20.7595 22.7994 19.4723 23.209 18.0095C23.6771 16.4882 23.7356 14.8499 23.4431 13.27C20.6345 13.27 17.826 13.27 15.0174 13.27C15.0174 14.4403 15.0174 15.6105 15.0174 16.7807C16.6557 16.7807 18.2941 16.7807 19.8739 16.7807C19.6983 17.8924 18.9962 18.9456 18.06 19.5308C17.4749 19.9403 16.7728 20.1744 16.0706 20.2914C15.3685 20.4084 14.6078 20.4084 13.9057 20.2914C13.2036 20.1744 12.5014 19.8233 11.9163 19.4137C10.9801 18.7701 10.2195 17.7754 9.86842 16.6637C9.45885 15.552 9.45885 14.3232 9.86842 13.153C10.161 12.3924 10.5706 11.6317 11.1557 11.0466C11.8578 10.286 12.794 9.75936 13.8472 9.58382C14.7249 9.40829 15.6025 9.40829 16.4802 9.70085C17.1824 9.93489 17.8845 10.3445 18.4111 10.8126C18.9377 10.286 19.5228 9.70085 20.0494 9.17424C20.342 8.88169 20.6345 8.58913 20.9271 8.29657C20.1079 7.53592 19.1132 6.8923 18.06 6.48272C16.1291 5.83909 13.9642 5.83909 12.0333 6.48272Z" fill="#343434"/>
</g>
</svg>
