<svg width="30" height="26" viewBox="0 0 30 26" fill="none" xmlns="http://www.w3.org/2000/svg">
<path d="M23.0357 15.1426H21.9642C21.8077 15.1426 21.6793 15.1928 21.5794 15.2935C21.4787 15.3936 21.4285 15.522 21.4285 15.6783V21.0354C21.4285 21.7721 21.1664 22.4025 20.6419 22.9271C20.1174 23.4516 19.4867 23.7137 18.7501 23.7137H4.82132C4.08473 23.7137 3.4541 23.4516 2.92948 22.9271C2.40497 22.4026 2.14275 21.7721 2.14275 21.0354V7.10684C2.14275 6.37025 2.40492 5.73985 2.92948 5.21529C3.4541 4.69067 4.08473 4.42851 4.82132 4.42851H16.6069C16.7634 4.42851 16.8918 4.37814 16.9921 4.27781C17.0925 4.17737 17.1426 4.04913 17.1426 3.89275V2.82116C17.1426 2.66507 17.0925 2.5366 16.9921 2.43633C16.8918 2.33589 16.7634 2.28575 16.6069 2.28575H4.82132C3.49333 2.28575 2.35766 2.75731 1.41443 3.70036C0.471555 4.64335 0 5.77902 0 7.10702V21.0356C0 22.3636 0.471554 23.4994 1.41449 24.4421C2.35771 25.3852 3.49338 25.857 4.82138 25.857H18.7501C20.078 25.857 21.2138 25.3852 22.1569 24.4421C23.1001 23.4994 23.5716 22.3636 23.5716 21.0356V15.6787C23.5716 15.5222 23.5214 15.3938 23.4207 15.2935C23.3202 15.1928 23.1918 15.1426 23.0357 15.1426Z" fill="#4F4F4F"/>
<path d="M29.6817 0.46105C29.4696 0.248961 29.2182 0.143005 28.9282 0.143005H20.3569C20.0667 0.143005 19.8155 0.248961 19.6036 0.46105C19.3915 0.67302 19.2853 0.92416 19.2853 1.21435C19.2853 1.50454 19.3915 1.75574 19.6036 1.96783L22.5499 4.9142L11.6349 15.8294C11.5231 15.941 11.4674 16.0694 11.4674 16.2143C11.4674 16.3596 11.5233 16.488 11.6349 16.5996L13.5434 18.5078C13.655 18.6194 13.7834 18.6751 13.9284 18.6751C14.0735 18.6751 14.202 18.6195 14.3135 18.5078L25.2286 7.59277L28.1751 10.5391C28.387 10.7512 28.6382 10.8573 28.9284 10.8573C29.2186 10.8573 29.4698 10.7512 29.6819 10.5391C29.894 10.3271 30 10.076 30 9.78583V1.21435C29.9999 0.923984 29.8936 0.67302 29.6817 0.46105Z" fill="#4F4F4F"/>
</svg>
