<svg width="30" height="26" viewBox="0 0 30 26" fill="none" xmlns="http://www.w3.org/2000/svg">
<path d="M26.4812 0.0977173H3.51879C1.57852 0.0977173 0 1.67629 0 3.61656V22.3835C0 24.3238 1.57852 25.9023 3.51879 25.9023H26.4812C28.4215 25.9023 30 24.3238 30 22.3835V3.61651C30 1.67629 28.4215 0.0977173 26.4812 0.0977173ZM27.6541 22.3835C27.6541 23.0303 27.128 23.5564 26.4812 23.5564H3.51879C2.87203 23.5564 2.34586 23.0303 2.34586 22.3835V16.6471L7.34578 9.33959L9.69357 12.2744L3.76283 20.7998L5.68857 22.1395L12.9498 11.7014L20.6255 21.6798H27.6541V22.3835ZM27.6541 19.3339H21.7805L12.8547 7.7302L11.0909 10.2657L7.19854 5.40033L2.34586 12.4928V3.61656C2.34586 2.96981 2.87203 2.44363 3.51879 2.44363H26.4812C27.128 2.44363 27.6541 2.96981 27.6541 3.61656V19.3339Z" fill="#4F4F4F"/>
<path d="M22.1413 4.32027C20.2011 4.32027 18.6226 5.89879 18.6226 7.83906C18.6226 9.77934 20.2011 11.3579 22.1413 11.3579C24.0816 11.3579 25.6601 9.77934 25.6601 7.83906C25.6601 5.89879 24.0816 4.32027 22.1413 4.32027ZM22.1413 9.01205C21.4946 9.01205 20.9684 8.48588 20.9684 7.83912C20.9684 7.19236 21.4946 6.66619 22.1413 6.66619C22.7881 6.66619 23.3143 7.19236 23.3143 7.83912C23.3143 8.48588 22.7881 9.01205 22.1413 9.01205Z" fill="#4F4F4F"/>
</svg>
