<svg width="30" height="24" viewBox="0 0 30 24" fill="none" xmlns="http://www.w3.org/2000/svg">
<path d="M26.4844 0.984375H3.51562C1.57711 0.984375 0 2.56148 0 4.5V19.5C0 21.4385 1.57711 23.0156 3.51562 23.0156H26.4844C28.4229 23.0156 30 21.4385 30 19.5V4.5C30 2.56148 28.4229 0.984375 26.4844 0.984375ZM27.6562 19.5C27.6562 20.1462 27.1305 20.6719 26.4844 20.6719H3.51562C2.86945 20.6719 2.34375 20.1462 2.34375 19.5V4.5C2.34375 3.85383 2.86945 3.32812 3.51562 3.32812H26.4844C27.1305 3.32812 27.6562 3.85383 27.6562 4.5V19.5Z" fill="#4F4F4F"/>
<path d="M27.4573 2.44551L15 11.7113L2.54273 2.44551L1.14386 4.32608L15 14.6324L28.8561 4.32608L27.4573 2.44551Z" fill="#4F4F4F"/>
</svg>
