<svg width="26" height="30" viewBox="0 0 26 30" fill="none" xmlns="http://www.w3.org/2000/svg">
<path d="M25.1097 8.90615C24.8493 8.28122 24.537 7.78662 24.1722 7.422L18.0784 1.32797C17.7137 0.96369 17.2192 0.651057 16.5941 0.390484C15.9694 0.130184 15.3964 0 14.8758 0H2.37502C1.85428 0 1.41153 0.182176 1.04698 0.5468C0.682351 0.91122 0.500107 1.35397 0.500107 1.87491V28.1251C0.500107 28.6462 0.682351 29.0889 1.04698 29.4534C1.4116 29.8177 1.85428 30.0001 2.37508 30.0001H23.6254C24.1461 30.0001 24.5886 29.8177 24.9531 29.4534C25.3176 29.0886 25.4999 28.6462 25.4999 28.1251V10.6249C25.5002 10.1041 25.37 9.53107 25.1097 8.90615ZM15.5003 2.65608C15.8778 2.78627 16.1446 2.92965 16.301 3.0857L22.4145 9.19922C22.5704 9.3556 22.7137 9.6224 22.8439 10H15.5003V2.65608ZM23.0003 27.5002H3.00001V2.50004H13V10.6252C13 11.146 13.1821 11.5886 13.5468 11.9533C13.9115 12.3177 14.354 12.5001 14.8751 12.5001H23.0003V27.5002Z" fill="#4F4F4F"/>
</svg>
