<svg width="30" height="30" viewBox="0 0 30 30" fill="none" xmlns="http://www.w3.org/2000/svg">
<path d="M25.6807 0H3.51562C1.57711 0 0 1.57711 0 3.51562V26.4844C0 28.4229 1.57711 30 3.51562 30H26.4844C28.4229 30 30 28.4229 30 26.4844V4.3193L25.6807 0ZM7.03125 2.34375H20.5078V9.25781H7.03125V2.34375ZM22.9688 27.6562H7.03125V18.3984H22.9688V27.6562ZM27.6562 26.4844C27.6562 27.1305 27.1305 27.6562 26.4844 27.6562H25.3125V16.0547H4.6875V27.6562H3.51562C2.86945 27.6562 2.34375 27.1305 2.34375 26.4844V3.51562C2.34375 2.86945 2.86945 2.34375 3.51562 2.34375H4.6875V11.6016H22.8516V2.34375H24.7099L27.6562 5.29008V26.4844Z" fill="#4F4F4F"/>
<path d="M18.3984 3.45703H16.0547V8.08594H18.3984V3.45703Z" fill="#4F4F4F"/>
</svg>
