<svg width="26" height="30" viewBox="0 0 26 30" fill="none" xmlns="http://www.w3.org/2000/svg">
<path d="M13 6.44893C9.92898 6.44893 7.43049 8.94742 7.43049 12.0184C7.43049 15.0894 9.92898 17.5879 13 17.5879C16.071 17.5879 18.5695 15.0894 18.5695 12.0184C18.5695 8.94742 16.0711 6.44893 13 6.44893ZM13 15.2429C11.222 15.2429 9.77552 13.7964 9.77552 12.0184C9.77552 10.2405 11.222 8.79397 13 8.79397C14.778 8.79397 16.2245 10.2405 16.2245 12.0184C16.2245 13.7964 14.778 15.2429 13 15.2429Z" fill="#4F4F4F"/>
<path d="M13 0C6.37297 0 0.981529 5.3915 0.981529 12.0185V12.3507C0.981529 15.7022 2.90305 19.6079 6.6929 23.9589C9.44024 27.1131 12.1492 29.3125 12.2631 29.4046L13 30L13.7369 29.4046C13.8508 29.3125 16.5598 27.1131 19.3071 23.9589C23.0969 19.6079 25.0184 15.7023 25.0184 12.3507V12.0185C25.0184 5.3915 19.627 0 13 0ZM22.6734 12.3507C22.6734 18.0147 15.3755 24.8711 13 26.9524C10.6238 24.8704 3.32657 18.0143 3.32657 12.3507V12.0185C3.32657 6.68461 7.66608 2.3451 13 2.3451C18.3339 2.3451 22.6734 6.68461 22.6734 12.0185V12.3507Z" fill="#4F4F4F"/>
</svg>
