<svg width="30" height="30" viewBox="0 0 30 30" fill="none" xmlns="http://www.w3.org/2000/svg">
<path d="M27.0703 21.3281H22.9688V2.92969C22.9688 1.31424 21.6545 0 20.0391 0H2.92969C1.31424 0 0 1.31424 0 2.92969V27.0703C0 28.6858 1.31424 30 2.92969 30H27.0703C28.6858 30 30 28.6858 30 27.0703V24.2578C30 22.6424 28.6858 21.3281 27.0703 21.3281ZM20.625 2.92969V21.3281H14.7656V2.34375H20.0391C20.3622 2.34375 20.625 2.60651 20.625 2.92969ZM2.34375 2.92969C2.34375 2.60651 2.60651 2.34375 2.92969 2.34375H12.4219V21.3281H2.34375V2.92969ZM27.6562 27.0703C27.6562 27.3935 27.3935 27.6562 27.0703 27.6562H2.92969C2.60651 27.6562 2.34375 27.3935 2.34375 27.0703V23.6719H27.0703C27.3935 23.6719 27.6562 23.9346 27.6562 24.2578V27.0703ZM10.0781 4.6875V7.03125H4.6875V4.6875H10.0781ZM4.6875 9.375H10.0781V11.7188H4.6875V9.375ZM5.68359 25.6641C5.68359 26.3113 5.159 26.8359 4.51172 26.8359C3.86444 26.8359 3.33984 26.3113 3.33984 25.6641C3.33984 25.0168 3.86444 24.4922 4.51172 24.4922C5.159 24.4922 5.68359 25.0168 5.68359 25.6641Z" fill="#343434"/>
</svg>
