<svg width="30" height="28" viewBox="0 0 30 28" fill="none" xmlns="http://www.w3.org/2000/svg">
<path d="M25.3125 9.37109H20.3906V11.7148H25.3125V9.37109Z" fill="#4F4F4F"/>
<path d="M26.4844 4.68359H19.2773C19.1408 4.68359 19.0179 4.60912 18.9546 4.48871L17.7619 1.98248C17.7587 1.97557 17.7553 1.96877 17.7519 1.96197C17.2902 1.03854 16.362 0.464844 15.3295 0.464844H8.96203C7.92955 0.464844 7.00137 1.03854 6.53959 1.96191C6.53625 1.96877 6.53291 1.97557 6.52963 1.98242L5.33684 4.48871C5.27361 4.60912 5.15068 4.68359 5.01416 4.68359H3.51562C1.57711 4.68359 0 6.2607 0 8.19922V24.0195C0 25.958 1.57711 27.5352 3.51562 27.5352H26.4844C28.4229 27.5352 30 25.958 30 24.0195V8.19922C30 6.2607 28.4229 4.68359 26.4844 4.68359ZM27.6562 24.0195C27.6562 24.6657 27.1305 25.1914 26.4844 25.1914H3.51562C2.86945 25.1914 2.34375 24.6657 2.34375 24.0195V8.19922C2.34375 7.55305 2.86945 7.02734 3.51562 7.02734H5.01416C6.04664 7.02734 6.97482 6.45365 7.4366 5.53027C7.43994 5.52342 7.44328 5.51662 7.44656 5.50977L8.63936 3.00348C8.70258 2.88307 8.82551 2.80859 8.96203 2.80859H15.3295C15.466 2.80859 15.5889 2.88307 15.6521 3.00348L16.845 5.50971C16.8482 5.51662 16.8516 5.52342 16.855 5.53021C17.3167 6.45365 18.2449 7.02734 19.2773 7.02734H26.4844C27.1305 7.02734 27.6562 7.55305 27.6562 8.19922V24.0195Z" fill="#4F4F4F"/>
<path d="M12.0117 8.19922C7.97314 8.19922 4.6875 11.4849 4.6875 15.5234C4.6875 19.562 7.97314 22.8477 12.0117 22.8477C16.0503 22.8477 19.3359 19.562 19.3359 15.5234C19.3359 11.4849 16.0503 8.19922 12.0117 8.19922ZM12.0117 20.5039C9.26549 20.5039 7.03125 18.2697 7.03125 15.5234C7.03125 12.7772 9.26549 10.543 12.0117 10.543C14.7579 10.543 16.9922 12.7772 16.9922 15.5234C16.9922 18.2697 14.7579 20.5039 12.0117 20.5039Z" fill="#4F4F4F"/>
</svg>
