<svg width="30" height="28" viewBox="0 0 30 28" fill="none" xmlns="http://www.w3.org/2000/svg">
<path d="M28.7943 7.13627C28.0321 5.57715 26.9117 4.25633 25.4643 3.21055C22.8986 1.35682 19.2801 0.376953 15 0.376953C10.7199 0.376953 7.10139 1.35676 4.53568 3.21055C3.0883 4.25633 1.96793 5.57715 1.20574 7.13627C0.405703 8.77291 0 10.678 0 12.7988C0 17.3858 1.8917 20.8948 5.48525 23.0056C4.98814 24.7593 4.34314 25.8222 4.33734 25.8317L3.22506 27.6199L5.3318 27.623H5.33789C5.34393 27.623 5.35008 27.623 5.35658 27.623C6.02145 27.623 9.07178 27.4796 11.552 24.9917C12.6454 25.1438 13.8022 25.2207 15 25.2207C19.2801 25.2207 22.8986 24.2408 25.4643 22.3871C26.9117 21.3413 28.0321 20.0205 28.7943 18.4614C29.5943 16.8247 30 14.9196 30 12.7988C30 10.678 29.5943 8.77285 28.7943 7.13627ZM24.0916 20.4873C21.9279 22.0506 18.7842 22.877 15 22.877C13.6997 22.877 12.4591 22.7782 11.3124 22.5835L10.6599 22.4727L10.2281 22.9742C9.30035 24.0518 8.22926 24.6271 7.32 24.9335C7.55613 24.2965 7.79525 23.532 7.9882 22.6609L8.18713 21.7632L7.36254 21.3565C4.0323 19.7138 2.34375 16.8346 2.34375 12.7988C2.34375 9.40607 3.54305 6.81928 5.90836 5.11033C8.07199 3.54705 11.2158 2.7207 15 2.7207C18.7842 2.7207 21.928 3.54699 24.0916 5.11033C26.457 6.81928 27.6562 9.40613 27.6562 12.7988C27.6562 16.1915 26.457 18.7783 24.0916 20.4873Z" fill="#4F4F4F"/>
</svg>
