<svg width="30" height="22" viewBox="0 0 30 22" fill="none" xmlns="http://www.w3.org/2000/svg">
<path d="M24.3824 9.36576C24.244 4.26177 20.049 0.152008 14.9123 0.152008C12.5525 0.152008 10.2914 1.02505 8.54566 2.61025C7.04139 3.97607 6.0249 5.77173 5.62687 7.73896C4.20475 8.04476 2.90672 8.78029 1.90248 9.86298C0.675645 11.1858 0 12.9083 0 14.7134C0 18.6474 3.20051 21.8479 7.13449 21.8479C7.14387 21.8479 7.15307 21.8478 7.1598 21.8477L23.7047 21.8475C23.7173 21.8477 23.73 21.8479 23.7427 21.8479C27.193 21.8479 30 19.0409 30 15.5906C30 12.3562 27.5335 9.68714 24.3824 9.36576ZM23.7439 19.5087L23.7115 19.5084L7.15008 19.5086L7.12781 19.5088C4.48676 19.5052 2.33918 17.3554 2.33918 14.7135C2.33918 12.2312 4.27459 10.1317 6.74537 9.93388L7.71615 9.85619L7.81559 8.8874C8.18971 5.24105 11.2407 2.49125 14.9123 2.49125C18.8463 2.49125 22.0468 5.69175 22.0468 9.62574V11.6725H23.7427C25.9031 11.6725 27.6608 13.4302 27.6608 15.5906C27.6608 17.7507 25.9038 19.508 23.7439 19.5087Z" fill="#4F4F4F"/>
</svg>
