<svg width="30" height="28" viewBox="0 0 30 28" fill="none" xmlns="http://www.w3.org/2000/svg">
<path d="M25.6065 4.56377C22.7734 1.73164 19.0066 0.171875 15 0.171875C10.9934 0.171875 7.2266 1.73164 4.39348 4.56377C1.56029 7.39607 0 11.1618 0 15.1673C0 18.1767 0.88875 21.08 2.5701 23.5633L4.51078 22.2492C3.09311 20.1554 2.34375 17.7065 2.34375 15.1673C2.34375 8.19113 8.02131 2.51562 15 2.51562C21.9787 2.51562 27.6562 8.19113 27.6562 15.1673C27.6562 17.7065 26.9069 20.1554 25.4892 22.2492L27.4299 23.5633C29.1112 21.08 30 18.1767 30 15.1673C30 11.1618 28.4397 7.39607 25.6065 4.56377Z" fill="#4F4F4F"/>
<path d="M15 7.20312C15.6472 7.20312 16.1719 6.67846 16.1719 6.03125C16.1719 5.38404 15.6472 4.85938 15 4.85938C14.3528 4.85938 13.8281 5.38404 13.8281 6.03125C13.8281 6.67846 14.3528 7.20312 15 7.20312Z" fill="#4F4F4F"/>
<path d="M5.85938 16.3438C6.50658 16.3438 7.03125 15.8191 7.03125 15.1719C7.03125 14.5247 6.50658 14 5.85938 14C5.21217 14 4.6875 14.5247 4.6875 15.1719C4.6875 15.8191 5.21217 16.3438 5.85938 16.3438Z" fill="#4F4F4F"/>
<path d="M8.55469 9.89844C9.2019 9.89844 9.72656 9.37377 9.72656 8.72656C9.72656 8.07935 9.2019 7.55469 8.55469 7.55469C7.90748 7.55469 7.38281 8.07935 7.38281 8.72656C7.38281 9.37377 7.90748 9.89844 8.55469 9.89844Z" fill="#4F4F4F"/>
<path d="M24.1406 16.3438C24.7878 16.3438 25.3125 15.8191 25.3125 15.1719C25.3125 14.5247 24.7878 14 24.1406 14C23.4934 14 22.9688 14.5247 22.9688 15.1719C22.9688 15.8191 23.4934 16.3438 24.1406 16.3438Z" fill="#4F4F4F"/>
<path d="M22.8892 8.94002L21.2319 7.2827L15.2062 13.3084C15.1384 13.301 15.0697 13.2969 15 13.2969C13.9645 13.2969 13.125 14.1363 13.125 15.1719C13.125 16.2074 13.9645 17.0469 15 17.0469C16.0355 17.0469 16.875 16.2074 16.875 15.1719C16.875 15.1022 16.8709 15.0335 16.8635 14.9657L22.8892 8.94002Z" fill="#4F4F4F"/>
<path d="M8.55469 20.7969V27.8281H21.4453V20.7969H8.55469ZM19.1016 25.4844H10.8984V23.1406H19.1016V25.4844Z" fill="#4F4F4F"/>
</svg>
