<svg width="32" height="32" viewBox="0 0 32 32" fill="none" xmlns="http://www.w3.org/2000/svg">
<path d="M29.3871 1H2.64058C2.16884 0.99911 1.73637 1.26264 1.52073 1.68232C1.30211 2.10766 1.34048 2.61985 1.61977 3.0083L11.4186 16.8118C11.4218 16.8166 11.4254 16.821 11.4287 16.8258C11.7847 17.3064 11.9771 17.8885 11.9783 18.487V29.7408C11.9763 30.0742 12.1071 30.3943 12.3421 30.6308C12.5771 30.8672 12.8965 30.9999 13.2297 30.9999C13.3992 30.9999 13.5667 30.966 13.7231 30.9011L19.2293 28.8015C19.7227 28.651 20.0502 28.1855 20.0502 27.6248V18.487C20.0511 17.8888 20.2438 17.3064 20.5996 16.8258C20.6028 16.821 20.6064 16.8166 20.6097 16.8118L30.4082 3.00771C30.6875 2.61955 30.7258 2.10766 30.5072 1.68232C30.2916 1.26264 29.8591 0.99911 29.3871 1ZM19.3717 15.9236C18.8245 16.6663 18.5285 17.5643 18.5267 18.487V27.4398L13.5012 29.3559V18.487C13.4994 17.5643 13.2035 16.6663 12.6559 15.9236L3.14295 2.52288H28.885L19.3717 15.9236Z" fill="#4F4F4F" stroke="#4F4F4F" stroke-width="0.997487"/>
</svg>
