<svg width="30" height="30" viewBox="0 0 30 30" fill="none" xmlns="http://www.w3.org/2000/svg">
<path d="M22.8333 20.5556C21.7778 20.5556 20.8333 20.9722 20.1111 21.625L10.2083 15.8611C10.2778 15.5417 10.3333 15.2222 10.3333 14.8889C10.3333 14.5556 10.2778 14.2361 10.2083 13.9167L20 8.20833C20.75 8.90278 21.7361 9.33333 22.8333 9.33333C25.1389 9.33333 27 7.47222 27 5.16667C27 2.86111 25.1389 1 22.8333 1C20.5278 1 18.6667 2.86111 18.6667 5.16667C18.6667 5.5 18.7222 5.81944 18.7917 6.13889L9 11.8472C8.25 11.1528 7.26389 10.7222 6.16667 10.7222C3.86111 10.7222 2 12.5833 2 14.8889C2 17.1944 3.86111 19.0556 6.16667 19.0556C7.26389 19.0556 8.25 18.625 9 17.9306L18.8889 23.7083C18.8194 24 18.7778 24.3056 18.7778 24.6111C18.7778 26.8472 20.5972 28.6667 22.8333 28.6667C25.0694 28.6667 26.8889 26.8472 26.8889 24.6111C26.8889 22.375 25.0694 20.5556 22.8333 20.5556Z" fill="#343434"/>
</svg>
