<svg width="26" height="30" viewBox="0 0 26 30" fill="none" xmlns="http://www.w3.org/2000/svg">
<path d="M25.4219 22.9688H24.25C23.6416 22.9688 23.1538 22.7573 22.8001 22.3402C22.3687 21.8313 22.1406 21.0285 22.1406 20.0183V11.9531C22.1406 7.33488 18.6518 3.4701 14.1719 2.88873V0H11.8281V2.88873C7.34822 3.4701 3.85938 7.33482 3.85938 11.9531V20.3906C3.85938 21.2212 3.64059 21.9009 3.22662 22.3562C2.86234 22.7569 2.35176 22.9688 1.75 22.9688H0.578125V26.25H10.0359C9.9823 26.4759 9.95312 26.7111 9.95312 26.9531C9.95312 28.6332 11.3199 30 13 30C14.6801 30 16.0469 28.6332 16.0469 26.9531C16.0469 26.7111 16.0176 26.4759 15.9641 26.25H25.4219V22.9688ZM13 27.6562C12.6123 27.6562 12.2969 27.3408 12.2969 26.9531C12.2969 26.5654 12.6123 26.25 13 26.25C13.3877 26.25 13.7031 26.5654 13.7031 26.9531C13.7031 27.3408 13.3877 27.6562 13 27.6562ZM4.98484 23.9062C5.78201 23.0147 6.20312 21.7999 6.20312 20.3906V11.9531C6.20312 8.25779 9.20682 5.21063 12.9005 5.15701H13.0995C16.7932 5.21063 19.7969 8.25779 19.7969 11.9531V20.0183C19.7969 21.591 20.2172 22.918 21.0124 23.8559C21.0268 23.8728 21.0412 23.8896 21.0558 23.9062H4.98484Z" fill="#4F4F4F"/>
</svg>
