<svg width="30" height="30" viewBox="0 0 30 30" fill="none" xmlns="http://www.w3.org/2000/svg">
<g id="settings">
<g id="1">
<path id="Vector" d="M17.253 30H12.7478C12.4713 30.0001 12.2045 29.8978 11.9989 29.7129C11.7933 29.5279 11.6635 29.2735 11.6343 28.9985L11.3007 25.8575C10.8351 25.699 10.3801 25.5105 9.93881 25.2933L7.48433 27.2784C7.26951 27.4514 6.99837 27.539 6.72293 27.5244C6.44748 27.5098 6.18712 27.394 5.99179 27.1992L2.80597 24.0134C2.61121 23.8181 2.49543 23.5577 2.48083 23.2823C2.46623 23.0069 2.55385 22.7357 2.72687 22.5209L4.71269 20.0634C4.49507 19.6222 4.30636 19.1672 4.14776 18.7015L1.00149 18.3657C0.726645 18.3366 0.472285 18.2068 0.287385 18.0014C0.102486 17.7959 0.000120775 17.5294 0 17.253V12.747C0.000120775 12.4706 0.102486 12.2041 0.287385 11.9986C0.472285 11.7932 0.726645 11.6634 1.00149 11.6343L4.14254 11.3007C4.30114 10.835 4.48985 10.3801 4.70746 9.93881L2.72164 7.48134C2.54862 7.26652 2.46101 6.99539 2.47561 6.71994C2.49021 6.44449 2.60599 6.18413 2.80075 5.98881L5.98657 2.80299C6.1819 2.60823 6.44225 2.49245 6.7177 2.47785C6.99315 2.46325 7.26428 2.55086 7.4791 2.72388L9.93657 4.70896C10.3779 4.49171 10.8328 4.30326 11.2985 4.14478L11.6321 1.00373C11.6607 0.72797 11.7907 0.472649 11.9968 0.287219C12.2029 0.101788 12.4705 -0.000557663 12.7478 2.28557e-06H17.253C17.5295 -6.12277e-05 17.7963 0.102221 18.0018 0.287138C18.2074 0.472054 18.3373 0.726519 18.3664 1.00149L18.6993 4.14254C19.1652 4.30102 19.6204 4.48947 20.0619 4.70672L22.5187 2.72164C22.7335 2.54862 23.0046 2.46101 23.2801 2.47561C23.5555 2.49021 23.8159 2.60599 24.0112 2.80075L27.197 5.98657C27.3918 6.1819 27.5076 6.44226 27.5222 6.7177C27.5368 6.99315 27.4491 7.26428 27.2761 7.4791L25.2903 9.93657C25.5076 10.378 25.6963 10.8329 25.8552 11.2985L28.9963 11.6321C29.271 11.6614 29.5252 11.7912 29.7099 11.9966C29.8947 12.202 29.9969 12.4685 29.997 12.7448V17.2507C29.9976 17.5269 29.896 17.7936 29.7118 17.9994C29.5276 18.2052 29.2738 18.3357 28.9993 18.3657L25.8582 18.6993C25.6993 19.1649 25.5106 19.6198 25.2933 20.0612L27.2791 22.5187C27.4521 22.7335 27.5397 23.0046 27.5251 23.2801C27.5105 23.5555 27.3948 23.8159 27.2 24.0112L24.0142 27.1992C23.8189 27.394 23.5585 27.5098 23.2831 27.5244C23.0076 27.539 22.7365 27.4514 22.5216 27.2784L20.0649 25.2933C19.6233 25.5105 19.1682 25.699 18.7022 25.8575L18.3694 28.9985C18.3402 29.274 18.2099 29.5289 18.0037 29.7139C17.7975 29.8988 17.53 30.0008 17.253 30ZM13.753 27.7612H16.2448L16.55 24.8836C16.574 24.6583 16.6657 24.4457 16.813 24.2737C16.9604 24.1016 17.1565 23.9784 17.3754 23.9201C18.1639 23.7099 18.9208 23.3954 19.6261 22.9851C19.8225 22.8706 20.0491 22.8187 20.2757 22.8362C20.5023 22.8536 20.7182 22.9397 20.8948 23.0828L23.1455 24.9015L24.9075 23.1395L23.0858 20.8955C22.9427 20.719 22.8566 20.5031 22.8392 20.2764C22.8217 20.0498 22.8736 19.8232 22.9881 19.6269C23.3976 18.922 23.711 18.1655 23.9202 17.3776C23.9784 17.1586 24.1018 16.9624 24.274 16.8151C24.4461 16.6677 24.659 16.576 24.8843 16.5522L27.7612 16.2463V13.7545L24.8843 13.4485C24.659 13.4247 24.4461 13.3331 24.274 13.1857C24.1018 13.0383 23.9784 12.8421 23.9202 12.6231C23.7111 11.835 23.3976 11.0783 22.9881 10.3731C22.8736 10.1767 22.8217 9.95018 22.8392 9.72357C22.8566 9.49695 22.9427 9.28101 23.0858 9.10448L24.9045 6.85373L23.1425 5.09179L20.8918 6.91045C20.7153 7.05362 20.4993 7.13965 20.2727 7.15711C20.0461 7.17458 19.8195 7.12264 19.6231 7.00821C18.9181 6.59902 18.1617 6.28556 17.3739 6.07612C17.155 6.01789 16.9589 5.89463 16.8115 5.72262C16.6642 5.5506 16.5725 5.33793 16.5485 5.11269L16.2463 2.23881H13.753L13.4478 5.11642C13.4238 5.34175 13.3319 5.5545 13.1844 5.72652C13.0369 5.89855 12.8407 6.02175 12.6216 6.07985C11.8344 6.29025 11.0787 6.60471 10.3746 7.01493C10.1782 7.12936 9.95168 7.18129 9.72506 7.16383C9.49844 7.14637 9.28251 7.06033 9.10597 6.91716L6.85746 5.09552L5.09627 6.85746L6.91567 9.10821C7.05872 9.28482 7.14462 9.5008 7.16195 9.72741C7.17928 9.95403 7.12722 10.1806 7.01269 10.3769C6.60382 11.0821 6.29038 11.8384 6.0806 12.6261C6.02237 12.845 5.89911 13.0411 5.72709 13.1885C5.55508 13.3358 5.3424 13.4275 5.11717 13.4515L2.23955 13.7575V16.2485L5.11717 16.5545C5.3424 16.5784 5.55508 16.6701 5.72709 16.8175C5.89911 16.9649 6.02237 17.161 6.0806 17.3799C6.29034 18.1667 6.60351 18.9223 7.01194 19.6269C7.12647 19.8232 7.17854 20.0497 7.16121 20.2763C7.14388 20.5029 7.05798 20.7189 6.91493 20.8955L5.09627 23.1425L6.85821 24.9045L9.1097 23.0858C9.28624 22.9427 9.50217 22.8566 9.72879 22.8392C9.95541 22.8217 10.182 22.8736 10.3784 22.9881C11.0831 23.3974 11.8393 23.7108 12.6269 23.9201C12.8459 23.9782 13.0421 24.1014 13.1897 24.2735C13.3372 24.4455 13.429 24.6582 13.453 24.8836L13.753 27.7612Z" fill="#343434"/>
<path id="Vector_2" d="M15 21.8179C13.6516 21.8178 12.3335 21.4178 11.2124 20.6685C10.0913 19.9193 9.21752 18.8544 8.7016 17.6086C8.18569 16.3628 8.05077 14.9919 8.31393 13.6694C8.57708 12.3469 9.22649 11.1322 10.18 10.1788C11.1335 9.22533 12.3484 8.57606 13.6709 8.31305C14.9934 8.05004 16.3642 8.1851 17.61 8.70116C18.8558 9.21721 19.9205 10.0911 20.6697 11.2123C21.4188 12.3334 21.8187 13.6516 21.8187 15C21.8167 16.8078 21.0976 18.5409 19.8193 19.8191C18.5409 21.0973 16.8077 21.8161 15 21.8179ZM15 10.4209C14.0944 10.4211 13.2091 10.6897 12.4562 11.193C11.7033 11.6962 11.1165 12.4114 10.77 13.2482C10.4235 14.0849 10.3329 15.0056 10.5097 15.8938C10.6865 16.782 11.1227 17.5979 11.7631 18.2382C12.4035 18.8785 13.2194 19.3146 14.1077 19.4912C14.9959 19.6678 15.9166 19.5771 16.7533 19.2305C17.5899 18.8839 18.3051 18.297 18.8082 17.5439C19.3113 16.7909 19.5798 15.9056 19.5798 15C19.5785 13.7859 19.0955 12.6218 18.2369 11.7634C17.3783 10.9049 16.2142 10.4221 15 10.4209Z" fill="#343434"/>
</g>
</g>
</svg>
