<svg width="30" height="30" viewBox="0 0 30 30" fill="none" xmlns="http://www.w3.org/2000/svg">
<path d="M14.5 7.36364V11.1818L20.25 6.09091L14.5 1V4.81818C8.14625 4.81818 3 9.37455 3 15C3 16.9982 3.66125 18.8564 4.7825 20.4218L6.88125 18.5636C6.23437 17.5073 5.875 16.2855 5.875 15C5.875 10.7873 9.74188 7.36364 14.5 7.36364ZM24.2175 9.57818L22.1187 11.4364C22.7512 12.5055 23.125 13.7145 23.125 15C23.125 19.2127 19.2581 22.6364 14.5 22.6364V18.8182L8.75 23.9091L14.5 29V25.1818C20.8538 25.1818 26 20.6255 26 15C26 13.0018 25.3388 11.1436 24.2175 9.57818Z" fill="#343434"/>
</svg>
