<svg width="30" height="30" viewBox="0 0 30 30" fill="none" xmlns="http://www.w3.org/2000/svg">
<path d="M24.6248 17H5.3751C5.00247 17 4.68033 17.1319 4.40815 17.3956C4.13598 17.6595 4 17.9719 4 18.333C4 18.6942 4.13598 19.0068 4.40815 19.2706L14.033 28.6039C14.3055 28.8679 14.6277 29 15 29C15.3723 29 15.6948 28.8679 15.9667 28.6039L25.5916 19.2705C25.8635 19.0068 26 18.6942 26 18.333C26 17.9719 25.8636 17.6595 25.5916 17.3955C25.3197 17.1316 24.9972 17 24.6248 17Z" fill="#343434"/>
<path d="M5.3751 13H24.6248C24.9972 13 25.3196 12.8681 25.5916 12.6042C25.8635 12.3404 26 12.0279 26 11.6668C26 11.3056 25.8636 10.9933 25.5916 10.7291L15.9667 1.39579C15.6948 1.13222 15.3726 1 15 1C14.6274 1 14.3052 1.13222 14.033 1.39579L4.40815 10.7291C4.13598 10.993 4 11.3056 4 11.6668C4 12.0278 4.13598 12.3404 4.40815 12.6042C4.68063 12.8681 5.00277 13 5.3751 13Z" fill="#343434"/>
</svg>
