<svg width="30" height="30" viewBox="0 0 30 30" fill="none" xmlns="http://www.w3.org/2000/svg">
<path d="M27.6862 22.6535V18.9894C27.6862 16.7764 26.22 13.484 22.1809 13.484H18.9894C16.7362 13.484 16.5265 12.3785 16.516 11.8085V7.34681C17.8768 6.75894 18.8298 5.40606 18.8298 3.82979C18.8298 1.71511 17.115 0 15 0C12.885 0 11.1702 1.71511 11.1702 3.82979C11.1702 5.40606 12.1232 6.75894 13.484 7.34681V11.8085C13.484 12.2215 13.3647 13.484 11.0106 13.484H7.81915C3.78 13.484 2.31383 16.7764 2.31383 18.9894V22.6535C0.952979 23.2411 0 24.5943 0 26.1702C0 28.2852 1.71479 30 3.82979 30C5.94479 30 7.65957 28.2852 7.65957 26.1702C7.65957 24.5943 6.7066 23.2411 5.34574 22.6535V18.9894C5.34574 18.5764 5.46511 16.516 7.81915 16.516H11.0106C11.9793 16.516 12.7963 16.3695 13.484 16.1212V22.6538C12.1232 23.2411 11.1702 24.5943 11.1702 26.1702C11.1702 28.2852 12.885 30 15 30C17.115 30 18.8298 28.2852 18.8298 26.1702C18.8298 24.5943 17.8768 23.2411 16.516 22.6535V16.1212C17.2037 16.3695 18.0207 16.516 18.9894 16.516H22.1809C24.434 16.516 24.6437 18.4194 24.6543 18.9894V22.6535C23.2934 23.2411 22.3404 24.5943 22.3404 26.1702C22.3404 28.2852 24.0552 30 26.1702 30C28.2852 30 30 28.2852 30 26.1702C30 24.5943 29.047 23.2411 27.6862 22.6535ZM6.03926 26.1702C6.03926 27.3903 5.04957 28.3797 3.82979 28.3797C2.60968 28.3797 1.62032 27.3903 1.62032 26.1702C1.62032 24.9501 2.60968 23.9607 3.82979 23.9607C5.04957 23.9607 6.03926 24.9501 6.03926 26.1702ZM12.7905 3.82979C12.7905 2.60968 13.7802 1.62032 15 1.62032C16.2201 1.62032 17.2095 2.60968 17.2095 3.82979C17.2095 5.04989 16.2201 6.03926 15 6.03926C13.7802 6.03926 12.7905 5.04989 12.7905 3.82979ZM17.2095 26.1702C17.2095 27.3903 16.2201 28.3797 15 28.3797C13.7802 28.3797 12.7905 27.3903 12.7905 26.1702C12.7905 24.9501 13.7802 23.9607 15 23.9607C16.2201 23.9607 17.2095 24.9501 17.2095 26.1702ZM26.1702 28.3797C24.9504 28.3797 23.9607 27.3903 23.9607 26.1702C23.9607 24.9501 24.9504 23.9607 26.1702 23.9607C27.3903 23.9607 28.3797 24.9501 28.3797 26.1702C28.3797 27.3903 27.3903 28.3797 26.1702 28.3797Z" fill="#343434"/>
</svg>
