<svg width="30" height="30" viewBox="0 0 30 30" fill="none" xmlns="http://www.w3.org/2000/svg">
<path d="M27.9273 2.07437C25.1615 -0.691453 20.6607 -0.690361 17.8944 2.07437L12.8779 7.09083C12.4517 7.51706 12.4517 8.20797 12.8779 8.63419C13.3041 9.06042 13.995 9.06042 14.4212 8.63419L19.4377 3.61773C20.3606 2.69542 21.5939 2.18679 22.9103 2.18679C24.2271 2.18679 25.4605 2.69542 26.3834 3.61827C27.3062 4.54112 27.8149 5.7745 27.8149 7.09138C27.8149 8.40771 27.3062 9.64109 26.3834 10.5639L19.8241 17.1248C17.9085 19.0393 14.7929 19.0393 12.8773 17.1248C12.4511 16.6986 11.7602 16.6986 11.334 17.1248C10.9078 17.5511 10.9078 18.2425 11.334 18.6682C12.7169 20.0511 14.5337 20.7426 16.3504 20.7426C18.1672 20.7426 19.984 20.0511 21.3669 18.6682L27.9273 12.1078C29.2627 10.773 29.9984 8.99111 29.9984 7.09138C29.9984 5.1911 29.2627 3.4098 27.9273 2.07437Z" fill="#343434"/>
<path d="M14.8071 22.1408L10.5623 26.3856C9.63946 27.3084 8.40608 27.817 7.0892 27.817C5.77287 27.817 4.53895 27.3084 3.6161 26.3856C1.70109 24.4705 1.70109 21.3544 3.6161 19.4393L9.79063 13.2648C10.7135 12.3425 11.9469 11.8339 13.2637 11.8339C14.5801 11.8339 15.8134 12.3425 16.7363 13.2648C17.1625 13.691 17.8534 13.691 18.2796 13.2648C18.7059 12.8386 18.7059 12.1477 18.2796 11.7215C15.5144 8.95618 11.0136 8.95564 8.24672 11.7215L2.07219 17.8965C0.737309 19.2314 0.00164795 21.0133 0.00164795 22.913C0.00164795 24.8122 0.737309 26.594 2.07274 27.9289C3.40763 29.2643 5.18947 30 7.08866 30C8.98839 30 10.7702 29.2643 12.1051 27.9289L16.3499 23.6841C16.7761 23.2579 16.7761 22.567 16.3499 22.1408C15.9237 21.7145 15.2333 21.7145 14.8071 22.1408Z" fill="#343434"/>
</svg>
