<svg width="30" height="30" viewBox="0 0 30 30" fill="none" xmlns="http://www.w3.org/2000/svg">
<path d="M29.8093 14.4165C29.5413 14.0499 23.1556 5.43958 14.9999 5.43958C6.84411 5.43958 0.458087 14.0499 0.190371 14.4162C-0.0634572 14.764 -0.0634572 15.2357 0.190371 15.5835C0.458087 15.9501 6.84411 24.5605 14.9999 24.5605C23.1556 24.5605 29.5413 15.9501 29.8093 15.5838C30.0635 15.2361 30.0635 14.764 29.8093 14.4165ZM14.9999 22.5824C8.99228 22.5824 3.78909 16.8676 2.24883 14.9993C3.7871 13.1294 8.97939 7.41759 14.9999 7.41759C21.0071 7.41759 26.21 13.1314 27.7509 15.0007C26.2126 16.8705 21.0203 22.5824 14.9999 22.5824Z" fill="#343434"/>
<path d="M14.9999 9.06595C11.7279 9.06595 9.06576 11.728 9.06576 15C9.06576 18.272 11.7279 20.9341 14.9999 20.9341C18.2719 20.9341 20.9339 18.272 20.9339 15C20.9339 11.728 18.2719 9.06595 14.9999 9.06595ZM14.9999 18.9561C12.8184 18.9561 11.0438 17.1814 11.0438 15C11.0438 12.8187 12.8185 11.044 14.9999 11.044C17.1812 11.044 18.9559 12.8187 18.9559 15C18.9559 17.1814 17.1813 18.9561 14.9999 18.9561Z" fill="#343434"/>
</svg>
