<svg width="30" height="30" viewBox="0 0 30 30" fill="none" xmlns="http://www.w3.org/2000/svg">
<g id="vk-logo">
<g id="Group">
<path id="VK 1" d="M15.5399 21.1458C16.1649 21.1458 16.1649 20.2708 16.1649 19.8958C16.1649 19.2708 16.7899 18.6458 17.4149 18.6458C18.0399 18.6458 19.1024 19.7083 19.9149 20.5208C20.5399 21.1458 20.5399 21.1458 21.1649 21.1458C21.7899 21.1458 23.0399 21.1458 23.0399 21.1458C23.0399 21.1458 24.2899 21.0833 24.2899 19.8958C24.2899 19.5208 23.8524 18.8333 22.4149 17.3958C21.1649 16.1458 20.5399 16.7708 22.4149 14.2708C23.5399 12.7083 24.4149 11.3333 24.2899 10.9583C24.1649 10.5833 20.9774 9.95834 20.5399 10.5208C19.2899 12.3958 19.0399 12.8333 18.6649 13.6458C18.0399 14.8958 17.9774 15.5208 17.4149 15.5208C16.8524 15.5208 16.7899 14.3333 16.7899 13.6458C16.7899 11.5833 17.1024 10.1458 16.1649 9.89584C16.1649 9.89584 14.9149 9.89584 14.2899 9.89584C13.2899 9.89584 12.4149 10.5208 12.4149 10.5208C12.4149 10.5208 11.6649 11.1458 11.7899 11.1458C11.9774 11.1458 13.0399 10.8958 13.0399 11.7708C13.0399 12.3958 13.0399 13.0208 13.0399 13.0208C13.0399 13.0208 13.0399 15.5208 12.4149 15.5208C11.7899 15.5208 10.5399 13.0208 9.28993 11.1458C8.78993 10.3958 8.66493 10.5208 8.03993 10.5208C7.35243 10.5208 6.78993 10.5208 6.16493 10.5208C5.53993 10.5208 5.47743 10.8958 5.53993 11.1458C6.78993 14.2708 7.66493 16.2083 10.0399 18.7083C12.2274 20.9583 13.6649 21.0833 14.9149 21.1458C15.2274 21.1458 14.9149 21.1458 15.5399 21.1458Z" fill="#343434"/>
<path id="Vector" d="M15 0C6.6875 0 0 6.6875 0 15C0 23.3125 6.6875 30 15 30C23.3125 30 30 23.3125 30 15C30 6.6875 23.3125 0 15 0ZM15 28.217C8.4375 28.217 2.02338 21.5625 2.02338 15C2.02338 8.4375 8.4375 1.93953 15 1.93953C21.5625 1.93953 27.9167 8.4375 27.9167 15C27.9167 21.5625 21.5625 28.217 15 28.217Z" fill="#343434"/>
</g>
</g>
</svg>
