<svg width="30" height="30" viewBox="0 0 30 30" fill="none" xmlns="http://www.w3.org/2000/svg">
<g id="vk-logo">
<g id="Vector">
<path d="M8.95383 17.07C9.70601 18.0892 10.5703 18.9904 11.6868 19.6281C12.9513 20.3508 14.3126 20.5687 15.7483 20.5023C16.419 20.4701 16.6208 20.2952 16.6517 19.6269C16.6725 19.169 16.7254 18.7123 16.9509 18.3008C17.1724 17.8973 17.5085 17.821 17.8963 18.072C18.0894 18.1989 18.252 18.3576 18.4059 18.5275C18.7838 18.9399 19.1496 19.3671 19.5411 19.766C20.0332 20.2672 20.617 20.5624 21.3494 20.5023L24.187 20.5035C24.6437 20.4726 24.8812 19.9127 24.619 19.4014C24.4344 19.0446 24.1921 18.7271 23.936 18.419C23.3561 17.7224 22.6727 17.1287 22.0266 16.4986C21.4443 15.93 21.4074 15.6 21.8751 14.944C22.3871 14.2273 22.9361 13.5392 23.452 12.8264C23.9333 12.1604 24.4272 11.4955 24.6792 10.6991C24.8406 10.1907 24.6978 9.96674 24.1785 9.87685C24.0887 9.86211 23.9952 9.86211 23.9041 9.86211L20.8164 9.85825C20.436 9.85221 20.2268 10.0184 20.0924 10.3555C19.9103 10.8112 19.7232 11.2667 19.5063 11.705C19.0165 12.7022 18.4685 13.666 17.7004 14.481C17.5305 14.6605 17.342 14.8884 17.0591 14.7949C16.7058 14.6656 16.6012 14.0823 16.6073 13.8854L16.6046 10.3212C16.536 9.81306 16.4224 9.58521 15.9167 9.48639H12.7096C12.2827 9.48639 12.0672 9.65287 11.8381 9.91986C11.7076 10.0752 11.6668 10.1748 11.9379 10.2265C12.4695 10.3272 12.7712 10.672 12.85 11.2053C12.9769 12.0585 12.9682 12.915 12.8945 13.7706C12.8735 14.0205 12.8304 14.2693 12.7316 14.5032C12.5767 14.8712 12.3255 14.9452 11.9968 14.7188C11.7004 14.5143 11.4911 14.2263 11.2853 13.9371C10.5159 12.8498 9.90293 11.6782 9.4018 10.4468C9.2578 10.0909 9.00796 9.87565 8.63127 9.86936C7.70536 9.85462 6.7785 9.85245 5.85139 9.87057C5.29493 9.88048 5.12869 10.1513 5.35654 10.6573C6.36484 12.9015 7.48766 15.0829 8.95383 17.07Z" fill="#343434"/>
<path d="M23.1818 0H6.81819C2.99995 0 0 2.99995 0 6.81819V23.1818C0 27 2.99995 30 6.81819 30H23.1818C27 30 30 27 30 23.1818V6.81819C30 2.99995 27 0 23.1818 0ZM27.2728 23.1818C27.2728 25.3636 25.3636 27.2728 23.1818 27.2728H6.81819C4.63636 27.2728 2.72724 25.3636 2.72724 23.1818V6.81819C2.72724 4.63636 4.63636 2.72724 6.81819 2.72724H23.1818C25.3636 2.72724 27.2728 4.63636 27.2728 6.81819V23.1818Z" fill="#343434"/>
</g>
</g>

</svg>
