<svg width="30" height="30" viewBox="0 0 30 30" fill="none" xmlns="http://www.w3.org/2000/svg">
<path d="M29.7387 25.975L16.1972 2.52105C15.9495 2.09177 15.4916 1.82739 14.9959 1.82739C14.5004 1.82739 14.0423 2.09177 13.7946 2.52105L0.185777 26.0915C-0.0619662 26.5208 -0.0619662 27.0496 0.185777 27.4788C0.433519 27.9082 0.891611 28.1725 1.3871 28.1725H28.605C28.6076 28.1725 28.6107 28.1729 28.6127 28.1725C29.3795 28.1725 30 27.5517 30 26.7852C30 26.4825 29.9028 26.203 29.7387 25.975ZM3.78993 25.3979L14.9959 5.98932L26.2019 25.3983H3.78993V25.3979ZM14.28 10.6752H15.7196C15.8376 10.6752 15.951 10.7228 16.0339 10.8076C16.1164 10.8927 16.1608 11.0069 16.1578 11.1255L15.8686 20.207C15.8624 20.4454 15.6674 20.6351 15.4297 20.6351H14.5701C14.3321 20.6351 14.137 20.445 14.1313 20.207L13.842 11.1255C13.8389 11.0068 13.8837 10.8927 13.9661 10.8076C14.0486 10.7228 14.1619 10.6752 14.28 10.6752ZM16.1396 21.8405V23.4846C16.1396 23.7268 15.9433 23.9231 15.7006 23.9231H14.2995C14.0568 23.9231 13.8607 23.7268 13.8607 23.4846V21.8405C13.8607 21.5982 14.0568 21.4016 14.2995 21.4016H15.7006C15.9433 21.4012 16.1396 21.5982 16.1396 21.8405Z" fill="#343434"/>
</svg>
