<svg width="32" height="30" viewBox="0 0 32 30" fill="none" xmlns="http://www.w3.org/2000/svg">
<path d="M12.8365 20.1865C12.7232 20.1865 12.609 20.1497 12.5159 20.0748L9.31091 17.4971C9.20036 17.4081 9.13679 17.2781 9.13679 17.1408C9.13679 17.0037 9.20064 16.8737 9.31091 16.7847L12.5159 14.2071C12.724 14.0395 13.0366 14.0633 13.214 14.2598C13.3912 14.4567 13.3663 14.7519 13.1579 14.9192L10.396 17.1408L13.1579 19.3624C13.3663 19.53 13.3912 19.8252 13.214 20.0218C13.1159 20.1306 12.9766 20.1865 12.8365 20.1865Z" fill="#343434"/>
<path d="M19.1635 20.1865C19.0234 20.1865 18.8841 20.1306 18.7862 20.0218C18.6088 19.8252 18.634 19.53 18.8421 19.3624L21.604 17.1408L18.8421 14.9192C18.634 14.7519 18.6088 14.4567 18.7862 14.2598C18.9634 14.0633 19.2763 14.0395 19.4841 14.2071L22.6891 16.7847C22.7996 16.8737 22.8632 17.0037 22.8632 17.1408C22.8632 17.2781 22.7996 17.4081 22.6891 17.4971L19.4841 20.0748C19.391 20.1497 19.2768 20.1865 19.1635 20.1865Z" fill="#343434"/>
<path d="M14.8654 22.1198C14.8314 22.1198 14.7972 22.1165 14.7626 22.1097C14.4951 22.0564 14.3237 21.8081 14.3801 21.5555L16.3775 12.598C16.4339 12.3453 16.6965 12.1834 16.9643 12.2367C17.2318 12.2899 17.4032 12.5379 17.3468 12.7909L15.3494 21.7484C15.3002 21.9687 15.0946 22.1198 14.8654 22.1198Z" fill="#343434"/>
<path d="M27.6745 27H4.32547C2.49193 27 1 25.5911 1 23.859V5.14099C1 3.40916 2.49193 2 4.32547 2H27.6745C29.5081 2 31 3.40916 31 5.14099V23.859C31 25.5911 29.5081 27 27.6745 27ZM4.32547 2.93561C3.03807 2.93561 1.99057 3.925 1.99057 5.14099V23.859C1.99057 25.075 3.03807 26.0644 4.32547 26.0644H27.6745C28.9619 26.0644 30.0094 25.075 30.0094 23.859V5.14099C30.0094 3.925 28.9619 2.93561 27.6745 2.93561H4.32547Z" fill="#343434"/>
<path d="M30.5047 9.49091H1.49528C1.22166 9.49091 1 9.28155 1 9.02311C1 8.76493 1.22166 8.5553 1.49528 8.5553H30.5047C30.7783 8.5553 31 8.76493 31 9.02311C31 9.28155 30.7783 9.49091 30.5047 9.49091Z" fill="#343434"/>
<path d="M9.46237 7.25239C8.59839 7.25239 7.89499 6.58801 7.89499 5.77195C7.89499 4.95564 8.59839 4.29152 9.46237 4.29152C10.3266 4.29152 11.0298 4.95564 11.0298 5.77195C11.0298 6.58801 10.3266 7.25239 9.46237 7.25239ZM9.46237 5.22714C9.14453 5.22714 8.88556 5.47148 8.88556 5.77195C8.88556 6.07243 9.14453 6.31677 9.46237 6.31677C9.78049 6.31677 10.0392 6.07243 10.0392 5.77195C10.0392 5.47148 9.78049 5.22714 9.46237 5.22714Z" fill="#343434"/>
<path d="M4.64663 7.23803C3.78238 7.23803 3.07925 6.57391 3.07925 5.7576C3.07925 4.94128 3.78238 4.27716 4.64663 4.27716C5.51089 4.27716 6.21401 4.94128 6.21401 5.7576C6.21401 6.57391 5.51089 7.23803 4.64663 7.23803ZM4.64663 5.21278C4.32879 5.21278 4.06982 5.45739 4.06982 5.7576C4.06982 6.05807 4.32879 6.30241 4.64663 6.30241C4.96475 6.30241 5.22345 6.05807 5.22345 5.7576C5.22345 5.45739 4.96475 5.21278 4.64663 5.21278Z" fill="#343434"/>
<path d="M14.2781 7.26648C13.4141 7.26648 12.711 6.60236 12.711 5.78605C12.711 4.97 13.4141 4.30588 14.2781 4.30588C15.1424 4.30588 15.8455 4.97 15.8455 5.78605C15.8455 6.60236 15.1424 7.26648 14.2781 7.26648ZM14.2781 5.24123C13.9603 5.24123 13.7016 5.48558 13.7016 5.78605C13.7016 6.08652 13.9603 6.33087 14.2781 6.33087C14.5962 6.33087 14.8549 6.08652 14.8549 5.78605C14.8549 5.48558 14.5962 5.24123 14.2781 5.24123Z" fill="#343434"/>
<path d="M12.8365 20.1865C12.7232 20.1865 12.609 20.1497 12.5159 20.0748L9.31091 17.4971C9.20036 17.4081 9.13679 17.2781 9.13679 17.1408C9.13679 17.0037 9.20064 16.8737 9.31091 16.7847L12.5159 14.2071C12.724 14.0395 13.0366 14.0633 13.214 14.2598C13.3912 14.4567 13.3663 14.7519 13.1579 14.9192L10.396 17.1408L13.1579 19.3624C13.3663 19.53 13.3912 19.8252 13.214 20.0218C13.1159 20.1306 12.9766 20.1865 12.8365 20.1865Z" stroke="#343434"/>
<path d="M19.1635 20.1865C19.0234 20.1865 18.8841 20.1306 18.7862 20.0218C18.6088 19.8252 18.634 19.53 18.8421 19.3624L21.604 17.1408L18.8421 14.9192C18.634 14.7519 18.6088 14.4567 18.7862 14.2598C18.9634 14.0633 19.2763 14.0395 19.4841 14.2071L22.6891 16.7847C22.7996 16.8737 22.8632 17.0037 22.8632 17.1408C22.8632 17.2781 22.7996 17.4081 22.6891 17.4971L19.4841 20.0748C19.391 20.1497 19.2768 20.1865 19.1635 20.1865Z" stroke="#343434"/>
<path d="M14.8654 22.1198C14.8314 22.1198 14.7972 22.1165 14.7626 22.1097C14.4951 22.0564 14.3237 21.8081 14.3801 21.5555L16.3775 12.598C16.4339 12.3453 16.6965 12.1834 16.9643 12.2367C17.2318 12.2899 17.4032 12.5379 17.3468 12.7909L15.3494 21.7484C15.3002 21.9687 15.0946 22.1198 14.8654 22.1198Z" stroke="#343434"/>
<path d="M27.6745 27H4.32547C2.49193 27 1 25.5911 1 23.859V5.14099C1 3.40916 2.49193 2 4.32547 2H27.6745C29.5081 2 31 3.40916 31 5.14099V23.859C31 25.5911 29.5081 27 27.6745 27ZM4.32547 2.93561C3.03807 2.93561 1.99057 3.925 1.99057 5.14099V23.859C1.99057 25.075 3.03807 26.0644 4.32547 26.0644H27.6745C28.9619 26.0644 30.0094 25.075 30.0094 23.859V5.14099C30.0094 3.925 28.9619 2.93561 27.6745 2.93561H4.32547Z" stroke="#343434"/>
<path d="M30.5047 9.49091H1.49528C1.22166 9.49091 1 9.28155 1 9.02311C1 8.76493 1.22166 8.5553 1.49528 8.5553H30.5047C30.7783 8.5553 31 8.76493 31 9.02311C31 9.28155 30.7783 9.49091 30.5047 9.49091Z" stroke="#343434"/>
<path d="M9.46237 7.25239C8.59839 7.25239 7.89499 6.58801 7.89499 5.77195C7.89499 4.95564 8.59839 4.29152 9.46237 4.29152C10.3266 4.29152 11.0298 4.95564 11.0298 5.77195C11.0298 6.58801 10.3266 7.25239 9.46237 7.25239ZM9.46237 5.22714C9.14453 5.22714 8.88556 5.47148 8.88556 5.77195C8.88556 6.07243 9.14453 6.31677 9.46237 6.31677C9.78049 6.31677 10.0392 6.07243 10.0392 5.77195C10.0392 5.47148 9.78049 5.22714 9.46237 5.22714Z" stroke="#343434"/>
<path d="M4.64663 7.23803C3.78238 7.23803 3.07925 6.57391 3.07925 5.7576C3.07925 4.94128 3.78238 4.27716 4.64663 4.27716C5.51089 4.27716 6.21401 4.94128 6.21401 5.7576C6.21401 6.57391 5.51089 7.23803 4.64663 7.23803ZM4.64663 5.21278C4.32879 5.21278 4.06982 5.45739 4.06982 5.7576C4.06982 6.05807 4.32879 6.30241 4.64663 6.30241C4.96475 6.30241 5.22345 6.05807 5.22345 5.7576C5.22345 5.45739 4.96475 5.21278 4.64663 5.21278Z" stroke="#343434"/>
<path d="M14.2781 7.26648C13.4141 7.26648 12.711 6.60236 12.711 5.78605C12.711 4.97 13.4141 4.30588 14.2781 4.30588C15.1424 4.30588 15.8455 4.97 15.8455 5.78605C15.8455 6.60236 15.1424 7.26648 14.2781 7.26648ZM14.2781 5.24123C13.9603 5.24123 13.7016 5.48558 13.7016 5.78605C13.7016 6.08652 13.9603 6.33087 14.2781 6.33087C14.5962 6.33087 14.8549 6.08652 14.8549 5.78605C14.8549 5.48558 14.5962 5.24123 14.2781 5.24123Z" stroke="#343434"/>
</svg>
