<svg width="171" height="191" viewBox="0 0 171 191" fill="none" xmlns="http://www.w3.org/2000/svg">
<path fill-rule="evenodd" clip-rule="evenodd" d="M87.0301 64.0062C85.9275 64.2556 73.0115 62.7396 73.0115 62.7396C73.0115 62.7396 70.49 63.1562 63.3396 68.7445C56.1755 74.3518 50.5409 80.7661 50.9646 80.1747C51.402 79.5642 58.8143 77.8013 58.8143 77.8013C58.8143 77.8013 50.7419 85.2407 44.9469 93.128C39.1519 101.015 35.07 109.091 35.6771 108.082C36.2651 107.06 43.78 102.252 43.78 102.252C43.78 102.252 37.8182 112.387 34.9271 123.395C32.0169 134.388 31.2142 140.626 31.9036 139.301C32.5929 137.976 40.9752 131.394 40.9752 131.394C40.9752 131.394 33.8117 144.335 31.0801 158.343C30.0851 163.52 29.3565 167.56 28.8638 170.584C31.5695 169.145 35.1463 167.175 39.7416 164.549C52.146 157.47 62.0759 146.511 62.0759 146.511C62.0759 146.511 58.5532 156.546 57.5067 157.644C56.4739 158.723 62.1089 155.975 71.5957 149.665C81.0688 143.373 88.7668 134.482 88.7668 134.482C88.7668 134.482 86.6183 143.163 85.8532 144.029C85.0744 144.915 91.4076 138.452 97.0308 130.442C102.635 122.418 107.083 112.382 107.083 112.382C107.083 112.382 107.798 119.967 107.36 120.578C106.923 121.188 111.198 113.771 114.203 105.184C117.207 96.5966 116.777 94.0942 116.777 94.0942C116.777 94.0942 111.187 82.3522 111.069 81.228L99.2955 72.2737L87.0301 64.0062Z" fill="#F9B059"/>
<path fill-rule="evenodd" clip-rule="evenodd" d="M68.6525 75.5785L74.3172 74.3095L62.3299 85.4195C59.7947 87.7611 57.2273 90.3655 54.8487 93.1052L58.9363 90.4465L49.5993 106.418C46.5197 111.696 43.6296 118.486 42.084 124.344C41.9236 124.93 41.768 125.547 41.6075 126.133L57.6709 113.578L47.1189 132.55C43.4432 139.168 40.1276 148.149 38.6953 155.517C38.5692 156.128 38.4603 156.752 38.3514 157.375C38.9068 157.072 39.445 156.755 40.0004 156.452C46.5158 152.726 53.9234 146.703 59.0368 141.089L73.6072 124.995L66.8857 144.243C67.4068 143.915 67.923 143.557 68.4269 143.216C73.488 139.852 78.9761 134.948 82.983 130.334L95.1021 116.356L93.8995 121.082C95.699 117.953 97.3514 114.667 98.7704 111.526L105.434 96.6023L106.055 102.374C106.536 100.796 107.017 99.0357 107.134 97.8203C106.351 96.1935 105.609 94.5446 104.855 92.913C104.336 91.7875 103.327 89.7135 102.671 87.9444L93.2515 80.7801L83.438 74.1652C81.552 74.1135 79.2465 73.8131 78.0311 73.6959C76.2436 73.5068 74.4267 73.3225 72.6515 73.1161C71.504 73.5934 70.0045 74.5981 68.6525 75.5785Z" fill="#F7CE78"/>
<path fill-rule="evenodd" clip-rule="evenodd" d="M47.2606 144.942C50.1543 142.571 52.8666 140.019 55.1195 137.527L87.2191 102.08L78.2663 127.707L93.733 109.891L100.182 95.4112C100.134 95.2982 100.089 95.2146 100.04 95.1016C99.4505 93.8213 98.8481 92.5582 98.2999 91.2559L90.1777 85.0732L81.7111 79.3714C80.3016 79.2711 78.9119 79.1071 77.5099 78.9602C77.3871 78.9502 77.2938 78.9354 77.1711 78.9254L65.9288 89.3218C65.7394 89.5499 65.4516 89.9154 65.2622 90.1435L53.6406 110.065L75.0265 93.3448L51.8003 135.123C50.1189 138.05 48.5744 141.44 47.2606 144.942Z" fill="#F6F0EB"/>
<path fill-rule="evenodd" clip-rule="evenodd" d="M64.7896 9.7546C64.2196 9.95496 57.2703 9.93619 57.2703 9.93619C57.2703 9.93619 55.9573 10.3124 52.5046 13.7284C49.0459 17.1555 46.4485 20.9192 46.6371 20.578C46.8318 20.2259 50.6583 18.833 50.6583 18.833C50.6583 18.833 46.8298 23.2923 44.2377 27.8511C41.6457 32.4099 39.9745 36.9642 40.2348 36.3894C40.4842 35.8085 44.1783 32.7865 44.1783 32.7865C44.1783 32.7865 41.6356 38.5537 40.7765 44.5982C39.9064 50.6365 39.8632 54.0111 40.1478 53.2627C40.4325 52.5142 44.478 48.493 44.478 48.493C44.478 48.493 41.4697 55.8294 40.8794 63.464C40.669 66.2845 40.5301 68.4824 40.4543 70.1251C41.8022 69.1924 43.58 67.9235 45.8581 66.2426C52.0083 61.711 56.6068 55.262 56.6068 55.262C56.6068 55.262 55.3528 60.8268 54.8647 61.4761C54.3827 62.1144 57.2053 60.3053 61.8539 56.3613C66.4964 52.4284 70.037 47.218 70.037 47.218C70.037 47.218 69.4293 51.977 69.0764 52.4857C68.7173 53.0054 71.6825 49.1733 74.1759 44.5594C76.6583 39.9394 78.4033 34.3173 78.4033 34.3173C78.4033 34.3173 79.2484 38.3173 79.0537 38.6695C78.859 39.0217 80.6729 34.8063 81.741 30.045C82.8091 25.2838 82.4271 23.9761 82.4271 23.9761C82.4271 23.9761 78.7391 18.0582 78.6072 17.4661L71.8079 13.4123L64.7896 9.7546Z" fill="#F9B059"/>
<path fill-rule="evenodd" clip-rule="evenodd" d="M55.7446 17.0468L58.6737 16.0241L52.9923 22.6794C51.7903 24.0826 50.5872 25.6279 49.4928 27.2337L51.4994 25.5666L47.5232 34.6513C46.2124 37.6531 45.0951 41.4499 44.6341 44.6667C44.585 44.9893 44.5402 45.3273 44.491 45.6498L52.2474 37.9748L47.8105 48.7339C46.2655 52.4865 45.0567 57.4767 44.7486 61.4918C44.7192 61.8254 44.6996 62.1645 44.6801 62.5036C44.9563 62.3077 45.2226 62.1063 45.4988 61.9105C48.7287 59.526 52.2912 55.8623 54.661 52.5571L61.4077 43.0871L59.0211 53.759C59.2776 53.5521 59.5296 53.3298 59.7762 53.1174C62.2563 51.0145 64.8686 48.065 66.7124 45.3606L72.2877 37.1684L71.9394 39.7611C72.7026 37.9833 73.3781 36.1307 73.9385 34.3693L76.5599 26.0063L77.2436 29.0453C77.4021 28.1745 77.5496 27.2068 77.5372 26.5517C77.0214 25.7324 76.5264 24.8988 76.026 24.075C75.6814 23.5068 75.0186 22.4628 74.562 21.5598L69.1219 18.3163L63.5065 15.3898C62.5022 15.4775 61.2599 15.4582 60.6075 15.4701C59.647 15.4785 58.6712 15.4913 57.7162 15.4898C57.1364 15.8143 56.4021 16.4416 55.7446 17.0468Z" fill="#F7CE78"/>
<path fill-rule="evenodd" clip-rule="evenodd" d="M48.6469 55.3311C50.0375 53.8905 51.3206 52.364 52.3636 50.8979L67.2275 30.0396L64.048 44.2485L71.1647 33.8054L73.6997 25.6923C73.6667 25.6351 73.6382 25.5932 73.6053 25.536C73.2135 24.8895 72.8162 24.253 72.4453 23.5923L67.7543 20.7928L62.9099 18.2706C62.1556 18.3034 61.4078 18.3008 60.6545 18.3082C60.5888 18.3104 60.5383 18.3082 60.4725 18.3104L55.1429 24.5396C55.0563 24.6728 54.926 24.8853 54.8394 25.0184L49.893 36.3487L60.2192 26.1282L50.4541 49.8193C49.7412 51.4825 49.1293 53.3837 48.6469 55.3311Z" fill="#F6F0EB"/>
<path fill-rule="evenodd" clip-rule="evenodd" d="M142.953 62.2943C142.38 62.4837 135.432 62.3307 135.432 62.3307C135.432 62.3307 134.112 62.6815 130.594 66.0302C127.07 69.3898 124.4 73.1027 124.595 72.7652C124.797 72.4169 128.649 71.0982 128.649 71.0982C128.649 71.0982 124.736 75.4827 122.056 79.9906C119.376 84.4985 117.617 89.0197 117.889 88.45C118.149 87.8741 121.901 84.9239 121.901 84.9239C121.901 84.9239 119.248 90.641 118.272 96.6677C117.285 102.688 117.177 106.061 117.476 105.318C117.775 104.576 121.898 100.633 121.898 100.633C121.898 100.633 118.748 107.91 118.01 115.532C117.746 118.348 117.564 120.543 117.457 122.184C118.822 121.277 120.624 120.043 122.935 118.406C129.171 113.994 133.893 107.635 133.893 107.635C133.893 107.635 132.532 113.175 132.032 113.815C131.537 114.443 134.394 112.689 139.118 108.836C143.836 104.993 147.476 99.8521 147.476 99.8521C147.476 99.8521 146.777 104.599 146.414 105.1C146.045 105.613 149.084 101.839 151.666 97.2739C154.237 92.7027 156.09 87.1154 156.09 87.1154C156.09 87.1154 156.858 91.131 156.656 91.4793C156.455 91.8277 158.35 87.6481 159.51 82.9083C160.67 78.1686 160.313 76.8538 160.313 76.8538C160.313 76.8538 156.74 70.8658 156.619 70.2713L149.9 66.0869L142.953 62.2943Z" fill="#F9B059"/>
<path fill-rule="evenodd" clip-rule="evenodd" d="M133.77 69.4105L136.718 68.4446L130.909 74.9888C129.68 76.3686 128.447 77.8904 127.322 79.4748L129.361 77.8467L125.21 86.8529C123.841 89.8288 122.651 93.6033 122.128 96.8107C122.072 97.1322 122.021 97.4693 121.966 97.7908L129.869 90.2671L125.225 100.938C123.608 104.66 122.303 109.626 121.917 113.635C121.881 113.968 121.855 114.306 121.829 114.645C122.109 114.455 122.379 114.258 122.659 114.068C125.935 111.746 129.567 108.152 132 104.893L138.929 95.5553L136.336 106.179C136.597 105.977 136.853 105.76 137.104 105.552C139.624 103.498 142.293 100.599 144.189 97.9308L149.921 89.8478L149.523 92.4332C150.32 90.6706 151.031 88.8313 151.626 87.0811L154.408 78.7703L155.033 81.8219C155.208 80.9543 155.374 79.9897 155.375 79.3345C154.875 78.5053 154.396 77.6623 153.911 76.829C153.578 76.2542 152.935 75.1976 152.496 74.286L147.12 70.9381L141.562 67.9037C140.556 67.9719 139.314 67.9287 138.662 67.9279C137.702 67.9178 136.726 67.9118 135.771 67.8918C135.185 68.2051 134.439 68.8181 133.77 69.4105Z" fill="#F7CE78"/>
<path fill-rule="evenodd" clip-rule="evenodd" d="M125.934 107.551C127.352 106.137 128.664 104.636 129.736 103.19L145 82.6226L141.546 96.7675L148.863 86.4638L151.554 78.4011C151.523 78.3433 151.495 78.3009 151.463 78.243C151.084 77.5891 150.699 76.945 150.341 76.2772L145.705 73.3877L140.91 70.7725C140.155 70.7906 139.408 70.7737 138.654 70.7665C138.588 70.7674 138.538 70.7642 138.472 70.7651L133.023 76.8903C132.934 77.0218 132.8 77.2317 132.711 77.3632L127.546 88.5958L138.068 78.5767L127.847 102.075C127.102 103.724 126.454 105.613 125.934 107.551Z" fill="#F6F0EB"/>
</svg>
