<svg width="118" height="119" viewBox="0 0 118 119" fill="none" xmlns="http://www.w3.org/2000/svg">
<path d="M114.5 78.2147C112.697 83.5496 110.214 88.4246 107.179 92.8397C92.6664 113.775 65.5541 123.543 40.2075 114.97C11.8812 105.386 -4.32375 76.2463 1.56225 47.6953C2.04049 45.3406 2.66593 43.0043 3.45686 40.668C6.51022 31.6354 11.5317 23.8538 17.9327 17.6175C33.1811 2.66135 56.1181 -3.39103 77.7491 3.91227C100.392 11.5651 115.291 31.6906 117.351 54.0604C118.087 61.9892 117.222 70.1939 114.5 78.2147Z" fill="url(#paint0_linear)"/>
<path d="M117.351 54.0789C95.1677 31.2307 84.0211 33.8982 51.8872 34.4133C33.5303 34.726 23.3034 25.5463 17.9141 17.6175C33.1625 2.66135 56.0994 -3.39103 77.7304 3.91228C100.391 11.5835 115.29 31.709 117.351 54.0789Z" fill="url(#paint1_linear)"/>
<path d="M107.179 92.8397C92.6665 113.775 65.5542 123.543 40.2076 114.97C11.8812 105.386 -4.32375 76.2463 1.56225 47.6954C6.74929 57.0959 16.3509 68.5751 33.7882 73.3397C63.5493 81.4893 92.9424 68.4647 107.179 92.8397Z" fill="url(#paint2_linear)"/>
<defs>
<linearGradient id="paint0_linear" x1="3.46653" y1="40.6727" x2="114.503" y2="78.2113" gradientUnits="userSpaceOnUse">
<stop offset="0.00537634" stop-color="#DE3DBF"/>
<stop offset="1" stop-color="#67219E"/>
</linearGradient>
<linearGradient id="paint1_linear" x1="21.8377" y1="6.07257" x2="122.123" y2="39.9762" gradientUnits="userSpaceOnUse">
<stop offset="0.00537634" stop-color="#DE3DBF"/>
<stop offset="0.1175" stop-color="#CA38BA"/>
<stop offset="0.3936" stop-color="#A02EAE"/>
<stop offset="0.6424" stop-color="#8127A5"/>
<stop offset="0.853" stop-color="#6E23A0"/>
<stop offset="1" stop-color="#67219E"/>
</linearGradient>
<linearGradient id="paint2_linear" x1="-6.65527" y1="72.0177" x2="101.822" y2="108.691" gradientUnits="userSpaceOnUse">
<stop offset="0.00537634" stop-color="#DE3DBF"/>
<stop offset="0.1162" stop-color="#C337B8"/>
<stop offset="0.2799" stop-color="#A22FAE"/>
<stop offset="0.4483" stop-color="#8829A7"/>
<stop offset="0.6212" stop-color="#7624A2"/>
<stop offset="0.8012" stop-color="#6B229F"/>
<stop offset="1" stop-color="#67219E"/>
</linearGradient>
</defs>
</svg>
