<svg width="120" height="120" viewBox="0 0 120 120" fill="none" xmlns="http://www.w3.org/2000/svg">
<path d="M119.026 59.5312C119.026 65.2524 118.235 70.7529 116.745 75.9774C109.608 100.849 86.6897 119.061 59.5221 119.061C29.1541 119.061 4.08341 96.2869 0.459844 66.9081C0.14715 64.4798 0 62.0331 0 59.5312C0 49.8548 2.2992 40.7303 6.4194 32.6543C16.2233 13.3015 36.3276 0.0194092 59.5037 0.0194092C83.7651 0.0194092 104.66 14.534 113.912 35.377C117.187 42.7355 119.026 50.9218 119.026 59.5312Z" fill="url(#paint0_linear)"/>
<path d="M113.913 35.3767C85.1452 20.6045 75.2861 26.804 44.5502 37.7498C26.9841 44.0229 14.1637 38.504 6.41992 32.6356C16.2238 13.2828 36.3281 0.000732422 59.5043 0.000732422C83.784 0.000732422 104.661 14.5338 113.913 35.3767Z" fill="url(#paint1_linear)"/>
<path d="M116.727 75.9772C109.59 100.849 86.6712 119.061 59.5037 119.061C29.1356 119.061 4.06497 96.2866 0.441406 66.9078C8.47947 74.2663 21.4471 82.1951 39.7856 81.1097C71.0733 79.2517 95.114 57.1394 116.727 75.9772Z" fill="url(#paint2_linear)"/>
<defs>
<linearGradient id="paint0_linear" x1="-0.00220725" y1="59.5297" x2="119.021" y2="59.5297" gradientUnits="userSpaceOnUse">
<stop offset="0.00537634" stop-color="#FEA7AF"/>
<stop offset="0.9731" stop-color="#EA47AC"/>
</linearGradient>
<linearGradient id="paint1_linear" x1="6.41808" y1="20.2686" x2="113.916" y2="20.2686" gradientUnits="userSpaceOnUse">
<stop offset="0.00537634" stop-color="#FEA7AF"/>
<stop offset="0.0453" stop-color="#FDA1AF"/>
<stop offset="0.3245" stop-color="#F57AAE"/>
<stop offset="0.5813" stop-color="#EF5EAD"/>
<stop offset="0.8058" stop-color="#EB4DAC"/>
<stop offset="0.9731" stop-color="#EA47AC"/>
</linearGradient>
<linearGradient id="paint2_linear" x1="0.454834" y1="92.976" x2="116.735" y2="92.976" gradientUnits="userSpaceOnUse">
<stop offset="0.00537634" stop-color="#FEA7AF"/>
<stop offset="0.126" stop-color="#FA93AE"/>
<stop offset="0.3615" stop-color="#F372AD"/>
<stop offset="0.5869" stop-color="#EE5AAD"/>
<stop offset="0.7962" stop-color="#EB4CAC"/>
<stop offset="0.9731" stop-color="#EA47AC"/>
</linearGradient>
</defs>
</svg>
