<svg width="619" height="286" viewBox="0 0 619 286" fill="none" xmlns="http://www.w3.org/2000/svg">
<path d="M400.23 147.17L401.131 148.807L402.768 149.708L401.131 150.61L400.23 152.247L399.328 150.61L397.691 149.708L399.328 148.807L400.23 147.17Z" fill="#FEA7AF"/>
<path d="M402.767 0.0734253L403.668 1.71068L405.305 2.61211L403.668 3.51353L402.767 5.15079L401.866 3.51353L400.229 2.61211L401.866 1.71068L402.767 0.0734253Z" fill="#FEA7AF"/>
<path d="M34.4133 218.418L35.3146 220.056L36.9517 220.957L35.3146 221.858L34.4133 223.496L33.512 221.858L31.875 220.957L33.512 220.056L34.4133 218.418Z" fill="#FEA7AF"/>
<path opacity="0.29" d="M90.5325 30.0041L91.4338 31.6597L93.0892 32.5428L91.4338 33.4442L90.5325 35.0815L89.6496 33.4442L87.9941 32.5428L89.6496 31.6597L90.5325 30.0041Z" fill="white"/>
<path opacity="0.29" d="M174.482 70.715L176.267 73.9711L179.522 75.7372L176.267 77.5216L174.482 80.7777L172.717 77.5216L169.461 75.7372L172.717 73.9711L174.482 70.715Z" fill="#FEA7AF"/>
<path opacity="0.29" d="M613.725 32.5428L615.509 35.7989L618.746 37.5834L615.509 39.3494L613.725 42.6056L611.959 39.3494L608.703 37.5834L611.959 35.7989L613.725 32.5428Z" fill="white"/>
<path opacity="0.29" d="M599.139 275.171L600.923 278.427L604.16 280.211L600.923 281.977L599.139 285.233L597.354 281.977L594.117 280.211L597.354 278.427L599.139 275.171Z" fill="white"/>
<path opacity="0.29" d="M275.023 194.577L275.869 196.104L277.414 196.95L275.869 197.796L275.023 199.341L274.177 197.796L272.65 196.95L274.177 196.104L275.023 194.577Z" fill="#FEA7AF"/>
<path opacity="0.29" d="M294.814 264.942L295.66 266.488L297.205 267.334L295.66 268.162L294.814 269.707L293.986 268.162L292.441 267.334L293.986 266.488L294.814 264.942Z" fill="#FEA7AF"/>
<path opacity="0.29" d="M316.997 54.5447L318.524 57.3409L321.32 58.8862L318.524 60.4131L316.997 63.2093L315.452 60.4131L312.656 58.8862L315.452 57.3409L316.997 54.5447Z" fill="#FEA7AF"/>
<path d="M154.138 208.098L156.235 211.943L160.061 214.04L156.235 216.137L154.138 219.963L152.042 216.137L148.197 214.04L152.042 211.943L154.138 208.098Z" fill="white"/>
<path d="M504.097 202L504.833 203.361L506.194 204.097L504.833 204.851L504.097 206.194L503.361 204.851L502 204.097L503.361 203.361L504.097 202Z" fill="white"/>
<path opacity="0.33" d="M4.74532 64.5522L6.08804 66.9805L8.51602 68.3234L6.08804 69.6479L4.74532 72.0946L3.40259 69.6479L0.974609 68.3234L3.40259 66.9805L4.74532 64.5522Z" fill="#FEA7AF"/>
<path opacity="0.33" d="M402.766 215.567L403.723 217.314L405.47 218.253L403.723 219.209L402.766 220.957L401.81 219.209L400.062 218.253L401.81 217.314L402.766 215.567Z" fill="#FEA7AF"/>
<path opacity="0.33" d="M447.371 268.953L448.328 270.7L450.075 271.657L448.328 272.595L447.371 274.343L446.415 272.595L444.686 271.657L446.415 270.7L447.371 268.953Z" fill="#FEA7AF"/>
<path opacity="0.33" d="M395.704 76L396.66 77.7293L398.408 78.6859L396.66 79.6425L395.704 81.3901L394.747 79.6425L393 78.6859L394.747 77.7293L395.704 76Z" fill="#FEA7AF"/>
<path opacity="0.33" d="M294.814 113.56L295.771 115.307L297.518 116.264L295.771 117.221L294.814 118.95L293.876 117.221L292.129 116.264L293.876 115.307L294.814 113.56Z" fill="#FEA7AF"/>
<path d="M54.1508 80.0602L125.997 146.048C126.401 146.415 126.438 147.041 126.07 147.446C125.702 147.85 125.095 147.887 124.672 147.538L50.6008 84.0706C49.4604 83.0956 49.3501 81.3847 50.3433 80.2625C51.3366 79.122 53.0656 79.0484 54.1508 80.0602Z" fill="url(#paint0_linear)"/>
<path d="M81.0049 105.3L125.039 145.735C125.279 145.956 125.297 146.342 125.076 146.599C124.855 146.857 124.469 146.875 124.23 146.655L78.8344 107.765C78.1355 107.176 78.0619 106.109 78.6689 105.429C79.2943 104.73 80.3427 104.674 81.0049 105.3Z" fill="url(#paint1_linear)"/>
<g opacity="0.35">
<g opacity="0.35">
<path opacity="0.35" d="M271.322 183.938L366.73 271.541C367.264 272.038 367.301 272.847 366.822 273.399C366.344 273.933 365.516 273.988 364.965 273.528L266.613 189.255C265.105 187.967 264.958 185.686 266.264 184.196C267.588 182.706 269.869 182.595 271.322 183.938Z" fill="url(#paint2_linear)"/>
<path opacity="0.35" d="M306.987 217.456L365.442 271.136C365.773 271.431 365.791 271.946 365.497 272.277C365.203 272.608 364.706 272.645 364.357 272.35L304.08 220.712C303.161 219.921 303.069 218.523 303.878 217.622C304.687 216.702 306.085 216.628 306.987 217.456Z" fill="url(#paint3_linear)"/>
</g>
<path opacity="0.35" d="M238.729 193.431L282.506 233.626C282.745 233.847 282.763 234.233 282.543 234.473C282.322 234.712 281.936 234.749 281.696 234.528L236.577 195.859C235.878 195.27 235.804 194.222 236.411 193.541C237.018 192.86 238.066 192.805 238.729 193.431Z" fill="url(#paint4_linear)"/>
<path opacity="0.35" d="M255.099 208.81L281.917 233.442C282.064 233.571 282.082 233.81 281.935 233.957C281.806 234.105 281.567 234.123 281.42 233.994L253.774 210.3C253.351 209.932 253.314 209.288 253.682 208.883C254.05 208.46 254.694 208.423 255.099 208.81Z" fill="url(#paint5_linear)"/>
</g>
<defs>
<linearGradient id="paint0_linear" x1="126.032" y1="147.487" x2="50.339" y2="80.2581" gradientUnits="userSpaceOnUse">
<stop offset="0.00537634" stop-color="#FEA7AF"/>
<stop offset="0.9946" stop-color="#EA47AC" stop-opacity="0"/>
</linearGradient>
<linearGradient id="paint1_linear" x1="125.057" y1="146.621" x2="78.6719" y2="105.422" gradientUnits="userSpaceOnUse">
<stop offset="0.00537634" stop-color="#FEA7AF"/>
<stop offset="0.9946" stop-color="#EA47AC" stop-opacity="0"/>
</linearGradient>
<linearGradient id="paint2_linear" x1="366.755" y1="273.47" x2="266.255" y2="184.206" gradientUnits="userSpaceOnUse">
<stop offset="0.00537634" stop-color="#FEA7AF"/>
<stop offset="0.9946" stop-color="#EA47AC" stop-opacity="0"/>
</linearGradient>
<linearGradient id="paint3_linear" x1="365.46" y1="272.319" x2="303.874" y2="217.618" gradientUnits="userSpaceOnUse">
<stop offset="0.00537634" stop-color="#FEA7AF"/>
<stop offset="0.9946" stop-color="#EA47AC" stop-opacity="0"/>
</linearGradient>
<linearGradient id="paint4_linear" x1="282.522" y1="234.51" x2="236.41" y2="193.554" gradientUnits="userSpaceOnUse">
<stop offset="0.00537634" stop-color="#FEA7AF"/>
<stop offset="0.9946" stop-color="#EA47AC" stop-opacity="0"/>
</linearGradient>
<linearGradient id="paint5_linear" x1="281.928" y1="233.982" x2="253.671" y2="208.884" gradientUnits="userSpaceOnUse">
<stop offset="0.00537634" stop-color="#FEA7AF"/>
<stop offset="0.9946" stop-color="#EA47AC" stop-opacity="0"/>
</linearGradient>
</defs>
</svg>
