<svg width="293" height="401" viewBox="0 0 293 401" fill="none" xmlns="http://www.w3.org/2000/svg">
<path fill-rule="evenodd" clip-rule="evenodd" d="M125.934 317.551C127.352 316.137 128.664 314.636 129.736 313.19L145 292.623L141.546 306.767L148.863 296.464L151.554 288.401C151.523 288.343 151.495 288.301 151.463 288.243C151.084 287.589 150.699 286.945 150.341 286.277L145.705 283.388L140.91 280.772C140.155 280.791 139.408 280.774 138.654 280.767C138.588 280.767 138.538 280.764 138.472 280.765L133.023 286.89C132.934 287.022 132.8 287.232 132.711 287.363L127.546 298.596L138.068 288.577L127.847 312.075C127.102 313.724 126.454 315.613 125.934 317.551Z" fill="#F6F0EB"/>
<path d="M180.686 95.9525L71.7212 249.046L50.5684 233.979L159.533 80.886C167.369 69.8851 176.805 60.135 187.528 51.9487L196.541 45.0869C196.78 44.903 197.019 44.7558 197.277 44.6454C200.109 43.3393 203.439 46.0251 202.39 49.2629L198.859 60.0247C194.628 72.8468 188.503 84.9516 180.686 95.9525Z" fill="url(#paint0_linear)"/>
<path d="M175.389 92.1812L66.4246 245.275L50.5508 233.979L159.515 80.886C167.351 69.885 176.787 60.135 187.51 51.9487L196.523 45.0869C196.762 44.9029 197.002 44.7558 197.259 44.6454C197.241 44.9213 197.186 45.2157 197.075 45.4916L193.544 56.2534C189.35 69.0756 183.225 81.1987 175.389 92.1812Z" fill="#FFECFF"/>
<path d="M176.565 92.8803L67.6004 245.974L51.7266 234.678L160.691 81.585C168.527 70.5841 177.963 60.8341 188.686 52.6478L197.699 45.786C197.938 45.602 198.178 45.4549 198.435 45.3445C198.417 45.6204 198.361 45.9148 198.251 46.1907L194.72 56.9525C190.526 69.7563 184.401 81.8794 176.565 92.8803Z" fill="url(#paint1_linear)"/>
<path d="M70.415 264.867L36.0371 240.4L58.8637 222.316L80.0165 237.383L70.415 264.867Z" fill="url(#paint2_radial)"/>
<path d="M62.0457 258.906L36.0371 240.4L58.8637 222.316L71.6472 231.422L62.0457 258.906Z" fill="#CC7DFF"/>
<path d="M63.8484 259.973L36.0371 240.4L60.6662 223.383L73.4499 232.471L63.8484 259.973Z" fill="url(#paint3_radial)"/>
<path d="M63.8294 262.31L39.8809 245.275L40.8925 243.84L64.8411 260.893L63.8294 262.31Z" fill="url(#paint4_radial)"/>
<path d="M80.016 237.383L58.8633 222.316L59.3047 221.691L80.4759 236.757L80.016 237.383Z" fill="url(#paint5_radial)"/>
<path d="M256.816 152.319L147.852 305.412L126.699 290.345L235.664 137.252C243.499 126.251 252.935 116.501 263.659 108.315L272.672 101.453C272.911 101.269 273.15 101.122 273.408 101.011C276.24 99.7053 279.569 102.391 278.521 105.629L274.989 116.391C270.759 129.213 264.634 141.318 256.816 152.319Z" fill="url(#paint6_linear)"/>
<path d="M251.52 148.547L142.555 301.641L126.682 290.345L235.646 137.252C243.482 126.251 252.918 116.501 263.642 108.315L272.654 101.453C272.894 101.269 273.133 101.122 273.39 101.011C273.372 101.287 273.317 101.582 273.206 101.858L269.675 112.62C265.481 125.442 259.356 137.546 251.52 148.547Z" fill="#DDA9FF"/>
<path d="M252.034 149.062L143.069 302.156L127.195 290.86L236.16 137.767C243.996 126.766 253.432 117.016 264.155 108.83L273.168 101.968C273.407 101.784 273.646 101.637 273.904 101.527C273.885 101.802 273.83 102.097 273.72 102.373L270.188 113.135C265.976 125.938 259.851 138.061 252.034 149.062Z" fill="url(#paint7_linear)"/>
<path d="M146.546 321.233L112.168 296.766L134.995 278.682L156.148 293.749L146.546 321.233Z" fill="url(#paint8_radial)"/>
<path d="M138.177 315.272L112.168 296.766L134.995 278.682L147.778 287.788L138.177 315.272Z" fill="#CC7DFF"/>
<path d="M139.446 316.229L113.438 297.722L136.264 279.639L149.048 288.745L139.446 316.229Z" fill="url(#paint9_radial)"/>
<path d="M139.961 318.676L116.012 301.622L117.023 300.206L140.972 317.259L139.961 318.676Z" fill="url(#paint10_radial)"/>
<path d="M156.147 293.749L134.994 278.682L135.454 278.057L156.607 293.105L156.147 293.749Z" fill="url(#paint11_radial)"/>
<path d="M266.272 100.717L119.931 306.313L56.8223 261.39L203.163 55.7936C219.018 33.5157 241.017 16.352 266.474 6.41808L279.478 1.34071L279.515 1.32233C286.008 -1.21635 292.979 3.73223 292.704 10.7228L292.17 24.7223C291.122 52.0223 282.109 78.4393 266.272 100.717Z" fill="url(#paint12_linear)"/>
<path d="M253.028 91.2983L106.688 296.894L56.8223 261.39L203.163 55.7936C219.018 33.5157 241.017 16.3521 266.474 6.41809L279.478 1.34073L278.945 15.2851C277.878 42.6035 268.884 69.0204 253.028 91.2983Z" fill="#CC7DFF"/>
<path d="M253.671 91.4638L107.33 297.06L57.4648 261.555L203.805 55.9591C219.661 33.6813 241.66 16.5176 267.117 6.58365L280.121 1.50629L279.588 15.4506C278.539 42.7874 269.526 69.2044 253.671 91.4638Z" fill="url(#paint13_linear)"/>
<g style="mix-blend-mode:multiply">
<path d="M261.47 66.2426C261.176 66.0402 260.863 65.8379 260.551 65.6723C260.459 65.6171 260.348 65.5803 260.238 65.5251C260.017 65.4148 259.796 65.3044 259.557 65.2124C259.429 65.1572 259.3 65.1204 259.171 65.0836C258.95 65.01 258.73 64.9365 258.509 64.8629C258.38 64.8261 258.233 64.7893 258.086 64.7709C257.865 64.7157 257.644 64.6789 257.405 64.6421C257.258 64.6237 257.111 64.6053 256.964 64.5869C256.743 64.5685 256.522 64.5501 256.283 64.5501C256.136 64.5501 255.971 64.5501 255.823 64.5501C255.603 64.5501 255.382 64.5685 255.161 64.6053C254.996 64.6237 254.83 64.6421 254.665 64.6605C254.462 64.6973 254.242 64.7525 254.039 64.7893C253.855 64.8261 253.69 64.8629 253.506 64.9181C253.469 64.9365 253.432 64.9365 253.395 64.9365C253.083 65.0284 252.77 65.1572 252.439 65.286C248.08 67.1808 243.812 69.2964 239.674 71.5959C220.471 82.2473 203.824 97.0931 191.004 115.103L144.118 180.98L74.7555 198.217L44.7737 236.316L45.7302 236.868L43.5781 239.59L77.5697 259.035L79.2435 259.992L67.0669 270.018C64.9884 271.728 65.0988 274.929 67.2876 276.493L69.826 278.296L67.913 281L86.9138 294.521L88.8267 291.817L94.7311 296.011L86.8034 307.693C86.086 308.742 86.3436 310.158 87.3736 310.894C87.484 310.968 87.6127 311.004 87.7414 311.06C87.8518 311.17 87.9254 311.299 88.0542 311.391C89.0842 312.127 90.5189 311.906 91.2731 310.876L99.7158 299.544L104.443 302.91L102.53 305.614L121.531 319.136L123.444 316.431L126.515 318.62C128.704 320.184 131.776 319.228 132.714 316.707L138.196 301.917L139.354 302.928L169.152 328.941L171.01 326.034L171.139 326.145L197.313 285.342L190.986 215.381L238.368 148.805C246.148 137.859 252.384 125.975 256.909 113.466C259.87 105.316 262.096 96.9275 263.567 88.3549C264.376 83.7558 264.947 79.1383 265.315 74.4657C265.59 70.9888 263.953 68.0086 261.47 66.2426Z" fill="url(#paint14_linear)"/>
</g>
<path d="M99.8448 267.35L36 234.77L67.159 193.416L165.547 168.967L99.8448 267.35Z" fill="#FFDCFF"/>
<path d="M101.059 268.785L38.4102 232.931L65.9824 196.69L166.762 170.42L101.059 268.785Z" fill="url(#paint15_radial)"/>
<path d="M109.133 273.862L161.537 324.139L189.697 280.522L180.556 179.563L109.133 273.862Z" fill="#FFE4FF"/>
<path d="M98.6675 270.625L69.9917 254.215L36 234.77L65.9818 196.69L116.859 184.052L164.37 172.242L98.6675 270.625Z" fill="url(#paint16_radial)"/>
<path d="M69.9917 254.215L36 234.77L65.9819 196.69L116.859 184.052L69.9917 254.215Z" fill="url(#paint17_radial)"/>
<path d="M161.537 324.139L131.739 298.127L107.146 276.659L178.569 182.36L182.929 230.558L187.693 283.336L161.537 324.139Z" fill="url(#paint18_radial)"/>
<path d="M161.538 324.139L131.74 298.127L182.93 230.558L187.694 283.336L161.538 324.139Z" fill="url(#paint19_radial)"/>
<path d="M230.753 143.985L126.479 290.493L79.1523 256.791L183.426 110.283C196.228 92.2916 212.893 77.4459 232.096 66.7761C236.235 64.4766 240.502 62.3794 244.861 60.4662C245.174 60.3374 245.487 60.2086 245.818 60.1167C248.706 59.2152 251.63 59.8223 253.874 61.4044C256.358 63.1704 257.976 66.1506 257.719 69.6091C257.351 74.2817 256.781 78.9176 255.971 83.4983C254.481 92.0709 252.256 100.46 249.313 108.609C244.769 121.155 238.534 133.058 230.753 143.985Z" fill="url(#paint20_linear)"/>
<path d="M218.834 135.504L114.56 282.012L79.1523 256.791L183.426 110.283C196.228 92.2917 212.893 77.4459 232.096 66.7761C236.235 64.4766 240.502 62.3794 244.862 60.4662C245.174 60.3374 245.487 60.2086 245.818 60.1167C245.836 60.4478 245.818 60.7789 245.8 61.1285C245.432 65.8011 244.862 70.4369 244.052 75.0176C242.562 83.5902 240.337 91.9789 237.394 100.128C232.85 112.675 226.615 124.577 218.834 135.504Z" fill="#FFE4FF"/>
<path d="M220.176 136.295L115.902 282.803L80.4941 257.582L184.768 111.074C197.57 93.0827 214.235 78.2369 233.438 67.5671C237.577 65.2676 241.844 63.1704 246.203 61.2572C246.516 61.1284 246.829 60.9996 247.16 60.9077C247.178 61.2388 247.16 61.5699 247.142 61.9194C246.774 66.5921 246.203 71.2279 245.394 75.8086C243.904 84.3812 241.679 92.7699 238.736 100.919C234.192 113.447 227.957 125.35 220.176 136.295Z" fill="url(#paint21_linear)"/>
<path d="M118.901 313.819L59.6915 271.673C57.5027 270.11 57.3923 266.909 59.4708 265.198L100.71 231.294C106.43 226.584 114.597 226.308 120.648 230.613L137.755 242.791C143.788 247.096 146.197 254.896 143.622 261.85L125.081 311.924C124.162 314.426 121.09 315.364 118.901 313.819Z" fill="#FFE7FF"/>
<path d="M141.452 264.315L123.261 313.469C122.341 315.953 119.324 316.873 117.191 315.364L90.5565 296.416L86.3075 293.399L59.048 273.991C56.9143 272.446 56.804 269.3 58.8457 267.626L99.3303 234.329C104.959 229.711 112.978 229.436 118.901 233.667L124.327 237.53L130.931 242.239L135.695 245.624C141.599 249.8 143.972 257.49 141.452 264.315Z" fill="url(#paint22_linear)"/>
<path d="M79.2886 288.273L60.2871 274.746L58.3671 277.444L77.3687 290.971L79.2886 288.273Z" fill="#7C26A4"/>
<path d="M113.882 312.908L94.8809 299.382L92.9609 302.079L111.962 315.606L113.882 312.908Z" fill="#7C26A4"/>
<path d="M232.961 112.638C232.501 112.307 232.17 111.81 232.078 111.221C230.552 102.152 221.925 96.0077 212.857 97.5346C211.68 97.7369 210.558 96.9275 210.355 95.7501C210.153 94.5728 210.962 93.4506 212.139 93.2482C223.58 91.3166 234.451 99.0615 236.382 110.504C236.585 111.681 235.775 112.803 234.598 113.006C233.991 113.098 233.421 112.951 232.961 112.638Z" fill="url(#paint23_linear)"/>
<path d="M255.951 83.535C252.585 74.1162 244.933 68.4133 232.076 66.7945C236.215 64.4949 240.482 62.3978 244.841 60.4846C248.024 59.1048 251.353 59.6567 253.854 61.4228C256.338 63.1888 257.956 66.169 257.699 69.6275C257.331 74.3185 256.761 78.936 255.951 83.535Z" fill="url(#paint24_linear)"/>
<path opacity="0.42" d="M132.604 239.94L130.912 242.202L90.538 296.379L86.2891 293.362L124.29 237.475L125.872 235.138C129.533 235.102 131.501 236.996 132.604 239.94Z" fill="#552C84"/>
<path d="M124.529 233.869C128.189 233.814 130.157 235.727 131.242 238.652L81.5609 305.375C80.8068 306.387 79.3721 306.608 78.342 305.89C77.312 305.154 77.0545 303.738 77.7718 302.689L124.529 233.869Z" fill="url(#paint25_linear)"/>
<path d="M174.421 135.201L174.038 135.091L173.845 135.439L159.502 161.295L159.377 161.52L159.488 161.753L168.766 181.251L168.885 181.5L169.159 181.533L190.93 184.122L191.182 184.152L191.355 183.966L211.484 162.258L211.761 161.958L211.523 161.626L197.429 141.962L197.328 141.822L197.162 141.773L174.421 135.201Z" fill="#E23237" stroke="white"/>
<path d="M211.119 161.918L197.025 142.254L169.22 181.036L190.981 183.64L211.119 161.918Z" fill="#B52E31"/>
<path d="M193.805 146.803L164.573 163.715L168.845 166.669L175.159 162.653L179.983 166.112L179.997 166.122L185.295 169.92L183.682 177.415L187.665 180.378L193.805 146.803ZM188.088 154.837L186.212 165.517L182.552 162.892L182.365 162.759L179.034 160.371L188.088 154.837Z" fill="white"/>
<defs>
<linearGradient id="paint0_linear" x1="120.488" y1="135.731" x2="141.65" y2="150.792" gradientUnits="userSpaceOnUse">
<stop offset="0.00537634" stop-color="#A02CC2"/>
<stop offset="0.0148" stop-color="#9F2CC1"/>
<stop offset="0.3274" stop-color="#7222A6"/>
<stop offset="0.607" stop-color="#521B92"/>
<stop offset="0.8407" stop-color="#3E1786"/>
<stop offset="1" stop-color="#371582"/>
</linearGradient>
<linearGradient id="paint1_linear" x1="121.128" y1="137.171" x2="137" y2="148.467" gradientUnits="userSpaceOnUse">
<stop offset="0.00537634" stop-color="#A02CC2"/>
<stop offset="0.0148" stop-color="#9F2CC1"/>
<stop offset="0.3274" stop-color="#7222A6"/>
<stop offset="0.607" stop-color="#521B92"/>
<stop offset="0.8407" stop-color="#3E1786"/>
<stop offset="1" stop-color="#371582"/>
</linearGradient>
<radialGradient id="paint2_radial" cx="0" cy="0" r="1" gradientUnits="userSpaceOnUse" gradientTransform="translate(54.1903 207.004) rotate(35.4468) scale(52.8468 52.8492)">
<stop offset="0.00537634" stop-color="#A02CC2"/>
<stop offset="1" stop-color="#371582"/>
</radialGradient>
<radialGradient id="paint3_radial" cx="0" cy="0" r="1" gradientUnits="userSpaceOnUse" gradientTransform="translate(55.063 207.308) rotate(35.4468) scale(47.0605 47.0626)">
<stop offset="0.00537634" stop-color="#A02CC2"/>
<stop offset="1" stop-color="#371582"/>
</radialGradient>
<radialGradient id="paint4_radial" cx="0" cy="0" r="1" gradientUnits="userSpaceOnUse" gradientTransform="translate(38.6439 241.504) rotate(35.4468) scale(28.7278 28.7291)">
<stop offset="0.00537634" stop-color="#A02CC2"/>
<stop offset="1" stop-color="#371582"/>
</radialGradient>
<radialGradient id="paint5_radial" cx="0" cy="0" r="1" gradientUnits="userSpaceOnUse" gradientTransform="translate(57.1793 219.834) rotate(35.4479) scale(25.3791 12.8795)">
<stop stop-color="#371582"/>
<stop offset="0.9946" stop-color="#A02CC2"/>
</radialGradient>
<linearGradient id="paint6_linear" x1="196.622" y1="192.093" x2="217.784" y2="207.154" gradientUnits="userSpaceOnUse">
<stop offset="0.00537634" stop-color="#A02CC2"/>
<stop offset="0.0148" stop-color="#9F2CC1"/>
<stop offset="0.3274" stop-color="#7222A6"/>
<stop offset="0.607" stop-color="#521B92"/>
<stop offset="0.8407" stop-color="#3E1786"/>
<stop offset="1" stop-color="#371582"/>
</linearGradient>
<linearGradient id="paint7_linear" x1="196.59" y1="193.354" x2="212.462" y2="204.65" gradientUnits="userSpaceOnUse">
<stop offset="0.00537634" stop-color="#A02CC2"/>
<stop offset="0.0148" stop-color="#9F2CC1"/>
<stop offset="0.3274" stop-color="#7222A6"/>
<stop offset="0.607" stop-color="#521B92"/>
<stop offset="0.8407" stop-color="#3E1786"/>
<stop offset="1" stop-color="#371582"/>
</linearGradient>
<radialGradient id="paint8_radial" cx="0" cy="0" r="1" gradientUnits="userSpaceOnUse" gradientTransform="translate(130.324 263.366) rotate(35.4467) scale(52.8468 52.8491)">
<stop offset="0.00537634" stop-color="#A02CC2"/>
<stop offset="1" stop-color="#371582"/>
</radialGradient>
<radialGradient id="paint9_radial" cx="0" cy="0" r="1" gradientUnits="userSpaceOnUse" gradientTransform="translate(132.495 264.972) rotate(35.4468) scale(45.4849 45.4869)">
<stop offset="0.00537634" stop-color="#A02CC2"/>
<stop offset="1" stop-color="#371582"/>
</radialGradient>
<radialGradient id="paint10_radial" cx="0" cy="0" r="1" gradientUnits="userSpaceOnUse" gradientTransform="translate(114.777 297.866) rotate(35.4467) scale(28.7278 28.729)">
<stop offset="0.00537634" stop-color="#A02CC2"/>
<stop offset="1" stop-color="#371582"/>
</radialGradient>
<radialGradient id="paint11_radial" cx="0" cy="0" r="1" gradientUnits="userSpaceOnUse" gradientTransform="translate(133.313 276.195) rotate(35.4479) scale(25.379 12.8794)">
<stop stop-color="#371582"/>
<stop offset="0.9946" stop-color="#A02CC2"/>
</radialGradient>
<linearGradient id="paint12_linear" x1="156.96" y1="120.689" x2="220.077" y2="165.609" gradientUnits="userSpaceOnUse">
<stop offset="0.00537634" stop-color="#A02CC2"/>
<stop offset="1" stop-color="#371582"/>
</linearGradient>
<linearGradient id="paint13_linear" x1="156.328" y1="122.669" x2="206.207" y2="158.169" gradientUnits="userSpaceOnUse">
<stop offset="0.00537634" stop-color="#A02CC2"/>
<stop offset="1" stop-color="#371582"/>
</linearGradient>
<linearGradient id="paint14_linear" x1="140.417" y1="124.762" x2="184.242" y2="220.972" gradientUnits="userSpaceOnUse">
<stop offset="0.00537634" stop-color="#DE3DBF"/>
<stop offset="1" stop-color="#67219E"/>
</linearGradient>
<radialGradient id="paint15_radial" cx="0" cy="0" r="1" gradientUnits="userSpaceOnUse" gradientTransform="translate(130.179 90.5703) rotate(35.4448) scale(133.762 174.624)">
<stop stop-color="#67219E"/>
<stop offset="0.9946" stop-color="#DE3DBF"/>
</radialGradient>
<radialGradient id="paint16_radial" cx="0" cy="0" r="1" gradientUnits="userSpaceOnUse" gradientTransform="translate(127.777 92.4011) rotate(35.4467) scale(164.441 164.448)">
<stop offset="0.00537634" stop-color="#DE3DBF"/>
<stop offset="1" stop-color="#67219E"/>
</radialGradient>
<radialGradient id="paint17_radial" cx="0" cy="0" r="1" gradientUnits="userSpaceOnUse" gradientTransform="translate(101.595 135.33) rotate(35.4467) scale(111.361 111.366)">
<stop offset="0.00537634" stop-color="#DE3DBF"/>
<stop offset="1" stop-color="#67219E"/>
</radialGradient>
<radialGradient id="paint18_radial" cx="0" cy="0" r="1" gradientUnits="userSpaceOnUse" gradientTransform="translate(194.78 140.1) rotate(35.4468) scale(164.442 164.449)">
<stop offset="0.00537634" stop-color="#DE3DBF"/>
<stop offset="1" stop-color="#67219E"/>
</radialGradient>
<radialGradient id="paint19_radial" cx="0" cy="0" r="1" gradientUnits="userSpaceOnUse" gradientTransform="translate(195.364 201.374) rotate(35.4468) scale(111.969 111.974)">
<stop offset="0.00537634" stop-color="#DE3DBF"/>
<stop offset="1" stop-color="#67219E"/>
</radialGradient>
<linearGradient id="paint20_linear" x1="290.912" y1="239.742" x2="200.916" y2="182.782" gradientUnits="userSpaceOnUse">
<stop offset="0.00537634" stop-color="#DE3DBF"/>
<stop offset="1" stop-color="#67219E"/>
</linearGradient>
<linearGradient id="paint21_linear" x1="154.954" y1="152.948" x2="190.375" y2="178.157" gradientUnits="userSpaceOnUse">
<stop offset="0.00537634" stop-color="#DE3DBF"/>
<stop offset="1" stop-color="#67219E"/>
</linearGradient>
<linearGradient id="paint22_linear" x1="57.3648" y1="273.364" x2="142.451" y2="273.364" gradientUnits="userSpaceOnUse">
<stop offset="0.00537634" stop-color="#DE3DBF"/>
<stop offset="1" stop-color="#67219E"/>
</linearGradient>
<linearGradient id="paint23_linear" x1="212.321" y1="91.8843" x2="237.597" y2="109.873" gradientUnits="userSpaceOnUse">
<stop offset="0.00537634" stop-color="#DE3DBF"/>
<stop offset="1" stop-color="#67219E"/>
</linearGradient>
<linearGradient id="paint24_linear" x1="235.995" y1="60.856" x2="266.568" y2="79.6438" gradientUnits="userSpaceOnUse">
<stop offset="0.00537634" stop-color="#DE3DBF"/>
<stop offset="1" stop-color="#67219E"/>
</linearGradient>
<linearGradient id="paint25_linear" x1="140.86" y1="220.23" x2="73.3085" y2="308.426" gradientUnits="userSpaceOnUse">
<stop offset="0.00537634" stop-color="#DE3DBF"/>
<stop offset="1" stop-color="#67219E"/>
</linearGradient>
</defs>
</svg>
