<svg width="835" height="580" viewBox="0 0 835 580" fill="none" xmlns="http://www.w3.org/2000/svg">
<path opacity="0.25" d="M132.111 22.6453C132.111 22.6453 105.617 69.4237 165.051 93.9813C224.485 118.539 253.107 102.215 293.467 206.08C333.827 309.946 359.002 339.566 401.547 335.641C444.092 331.717 510.102 335.274 561.538 410.748C612.987 486.211 739.412 448.035 795.37 487.882C851.332 527.703 831.504 603.109 831.504 603.109L328.088 991.113L-421.999 17.9114C-421.999 17.9114 -325.847 -16.5087 -259.433 21.294C-193.019 59.0966 -183.331 38.88 -140.154 13.7764C-96.9627 -11.3384 12.1374 75.5188 64.004 23.6295C115.896 -28.2563 132.111 22.6453 132.111 22.6453Z" fill="url(#paint0_radial)"/>
<defs>
<radialGradient id="paint0_radial" cx="0" cy="0" r="1" gradientUnits="userSpaceOnUse" gradientTransform="translate(222.867 296.558) rotate(-127.623) scale(496.714 496.781)">
<stop offset="0.00537634" stop-color="#DE3DBF"/>
<stop offset="1" stop-color="#67219E"/>
</radialGradient>
</defs>
</svg>
