<svg width="611" height="618" viewBox="0 0 611 618" fill="none" xmlns="http://www.w3.org/2000/svg">
<g filter="url(#filter0_i)">
<path d="M-495.652 0.000366211C-495.652 0.000366211 -473.745 101.934 -381.353 113.358C-288.961 124.782 -286.11 121.397 -250.868 167.866C-215.626 214.335 -196.57 240.365 -133.718 223.551C-70.8484 206.719 -15.6121 167.038 35.8168 199.25C87.2457 231.48 201.195 286.08 318.657 159.293C436.12 32.5065 397.603 223.551 397.603 223.551C397.603 223.551 316.193 294.487 434.924 358.193C476.825 382.016 470.001 453.063 483.815 499.145C497.628 545.228 610.511 634.137 610.511 634.137C610.511 634.137 -254.547 706.029 -260.267 706.986C-265.988 707.924 -589 529.646 -589 529.646L-495.652 0.000366211Z" fill="url(#paint0_radial)"/>
</g>
<defs>
<filter id="filter0_i" x="-589" y="0.000366211" width="1199.51" height="714.989" filterUnits="userSpaceOnUse" color-interpolation-filters="sRGB">
<feFlood flood-opacity="0" result="BackgroundImageFix"/>
<feBlend mode="normal" in="SourceGraphic" in2="BackgroundImageFix" result="shape"/>
<feColorMatrix in="SourceAlpha" type="matrix" values="0 0 0 0 0 0 0 0 0 0 0 0 0 0 0 0 0 0 127 0" result="hardAlpha"/>
<feOffset dy="8"/>
<feGaussianBlur stdDeviation="10"/>
<feComposite in2="hardAlpha" operator="arithmetic" k2="-1" k3="1"/>
<feColorMatrix type="matrix" values="0 0 0 0 0 0 0 0 0 0 0 0 0 0 0 0 0 0 0.25 0"/>
<feBlend mode="normal" in2="shape" result="effect1_innerShadow"/>
</filter>
<radialGradient id="paint0_radial" cx="0" cy="0" r="1" gradientUnits="userSpaceOnUse" gradientTransform="translate(409.213 326.044) scale(1105.33 1105.48)">
<stop offset="0.00537634" stop-color="#DE3DBF"/>
<stop offset="1" stop-color="#67219E"/>
</radialGradient>
</defs>
</svg>
