<svg width="240" height="59" viewBox="0 0 240 59" fill="none" xmlns="http://www.w3.org/2000/svg">
<path d="M240 5.34889C218.818 -4.1339 206.213 0.55348 187.893 7.36744L187.857 7.38099C184.289 8.70692 176.602 11.4407 172.498 12.8381C170.961 13.3587 169.375 13.893 167.732 14.4391L167.707 14.4475C150.473 20.1777 132.73 11.5385 122.582 6.59608C121.656 6.14491 120.793 5.72462 120 5.34889C98.8184 -4.1339 86.2129 0.55348 67.8926 7.36744L67.8574 7.38099C64.2891 8.70692 60.1582 10.2319 56.0547 11.6294C53.4727 12.5083 50.6309 13.4754 47.7324 14.4391C28.918 20.7105 13.5 11.3489 0.00585938 5.35402L0 5.36781L0.00195312 49.3489C14.5 56.3489 23.0762 58.9082 42.4141 57.8495C54.543 57.1831 65.6621 53.9048 76.0117 50.8532C77.5273 50.4064 78.9902 49.9644 80.4062 49.5352C94.8516 45.1641 104.854 42.1386 120 49.3489C129.998 53.8489 143.076 58.9082 162.414 57.8495C174.543 57.1831 185.662 53.9048 196.012 50.8532C197.18 50.5089 199.414 49.8351 200.523 49.5003C202.328 48.9539 204.064 48.429 205.746 47.943C217.516 44.5429 226.736 43.0419 239.979 49.3386L240 49.3491V5.34889Z" fill="#F57CAE"/>
</svg>
