<svg width="679" height="625" viewBox="0 0 679 625" fill="none" xmlns="http://www.w3.org/2000/svg">
<path opacity="0.25" d="M-487.56 9.50001C-479.945 4.6802 -346.59 -27.366 -304.689 62.8123C-262.788 152.991 -218.331 154.094 -151.028 159.65C-83.7254 165.187 -104.032 166.309 -29.1143 214.655C45.8033 263 89.8196 237.852 144.431 220.578C199.042 203.286 286.191 244.733 355.867 208.694C425.542 172.675 428.393 231.8 428.393 231.8C428.393 231.8 409.006 283.383 465.365 319.476C521.741 355.57 494.059 397.164 509.749 463.225C525.438 529.267 678.015 627.08 678.015 627.08L-515.5 564.827L-487.56 9.50001Z" fill="url(#paint0_radial)"/>
<defs>
<radialGradient id="paint0_radial" cx="0" cy="0" r="1" gradientUnits="userSpaceOnUse" gradientTransform="translate(468.95 223.271) scale(749.691 749.792)">
<stop offset="0.00537634" stop-color="#DE3DBF"/>
<stop offset="1" stop-color="#67219E"/>
</radialGradient>
</defs>
</svg>
