<svg width="240" height="59" viewBox="0 0 240 59" fill="none" xmlns="http://www.w3.org/2000/svg">
<path d="M240 53.6511C218.818 63.1339 206.213 58.4465 187.893 51.6326L187.857 51.619C184.289 50.2931 176.602 47.5593 172.498 46.1619C170.961 45.6413 169.375 45.107 167.732 44.5609L167.707 44.5525C150.473 38.8223 132.73 47.4615 122.582 52.4039C121.656 52.8551 120.793 53.2754 120 53.6511C98.8184 63.1339 86.2129 58.4465 67.8926 51.6326L67.8574 51.619C64.2891 50.2931 60.1582 48.7681 56.0547 47.3706C53.4727 46.4917 50.6309 45.5246 47.7324 44.5609C28.918 38.2895 13.5 47.6511 0.00585938 53.646L0 53.6322L0.00195312 9.65112C14.5 2.65112 23.0762 0.0917816 42.4141 1.1505C54.543 1.81688 65.6621 5.0952 76.0117 8.14684C77.5273 8.59361 78.9902 9.03563 80.4062 9.46483C94.8516 13.8359 104.854 16.8614 120 9.65111C129.998 5.15111 143.076 0.0917816 162.414 1.1505C174.543 1.81688 185.662 5.0952 196.012 8.14684C197.18 8.49107 199.414 9.1649 200.523 9.49974C202.328 10.0461 204.064 10.571 205.746 11.057C217.516 14.4571 226.736 15.9581 239.979 9.66136L240 9.65086V53.6511Z" fill="#F57CAE"/>
<path d="M240 53.6511C218.818 63.1339 206.213 58.4465 187.893 51.6326L187.857 51.619C184.289 50.2931 176.602 47.5593 172.498 46.1619C170.961 45.6413 169.375 45.107 167.732 44.5609L167.707 44.5525C150.473 38.8223 132.73 47.4615 122.582 52.4039C121.656 52.8551 120.793 53.2754 120 53.6511C98.8184 63.1339 86.2129 58.4465 67.8926 51.6326L67.8574 51.619C64.2891 50.2931 60.1582 48.7681 56.0547 47.3706C53.4727 46.4917 50.6309 45.5246 47.7324 44.5609C28.918 38.2895 13.5 47.6511 0.00585938 53.646L0 53.6322L0.00195312 9.65112C14.5 2.65112 23.0762 0.0917816 42.4141 1.1505C54.543 1.81688 65.6621 5.0952 76.0117 8.14684C77.5273 8.59361 78.9902 9.03563 80.4062 9.46483C94.8516 13.8359 104.854 16.8614 120 9.65111C129.998 5.15111 143.076 0.0917816 162.414 1.1505C174.543 1.81688 185.662 5.0952 196.012 8.14684C197.18 8.49107 199.414 9.1649 200.523 9.49974C202.328 10.0461 204.064 10.571 205.746 11.057C217.516 14.4571 226.736 15.9581 239.979 9.66136L240 9.65086V53.6511Z" fill="#A131A7"/>
</svg>
