<svg width="32" height="32" viewBox="0 0 32 32" fill="none" xmlns="http://www.w3.org/2000/svg">
<g clip-path="url(#clip0)">
<path d="M31.879 30.0982L28.3446 24.3155C27.9847 23.7264 27.2152 23.5406 26.6263 23.9007C26.0372 24.2608 25.8514 25.0301 26.2115 25.6192L28.462 29.3013C25.7435 28.836 23.2425 27.5555 21.2564 25.5814C18.7132 23.0533 17.3123 19.6822 17.3123 16.0887V10.9016L23.0433 20.3794C23.2782 20.7679 23.691 20.983 24.1141 20.983C24.3343 20.983 24.5575 20.9246 24.7596 20.8023C25.3504 20.4451 25.5397 19.6768 25.1825 19.086L17.4937 6.36963L20.1949 1.89623C20.5518 1.30541 20.3621 0.536853 19.7711 0.180162C19.1805 -0.176528 18.4119 0.0129254 18.055 0.603992L16.0325 3.95312L14.0071 0.603503C13.65 0.0126813 12.8814 -0.176772 12.2906 0.180406C11.7 0.537585 11.5105 1.30614 11.8677 1.89696L14.5728 6.37061L0.388429 29.8595C0.186524 30.0814 0.0625 30.3753 0.0625 30.6991C0.0625 30.7044 0.0632324 30.7098 0.0632324 30.7152C0.0576172 30.9373 0.110596 31.1612 0.223878 31.3617C0.445314 31.7545 0.861331 31.9974 1.31226 31.9974L30.8124 32.0001C31.2645 32.0001 31.6815 31.7557 31.9025 31.3614C32.1239 30.9671 32.1149 30.484 31.879 30.0982ZM19.494 27.3543C20.3165 28.1719 21.214 28.8885 22.17 29.4993L9.89091 29.4981C10.8677 28.8836 11.783 28.1595 12.6209 27.3316C14.1072 25.8626 15.2645 24.15 16.0584 22.2818C16.8507 24.1566 18.0074 25.8768 19.494 27.3543ZM14.8126 16.0743C14.8126 19.6702 13.41 23.0367 10.8636 25.5535C8.88456 27.5093 6.39138 28.7806 3.67824 29.2479L14.8123 10.8096V16.0743H14.8126Z" fill="#6F74DD"/>
</g>
<defs>
<clipPath id="clip0">
<rect width="32" height="32" fill="white"/>
</clipPath>
</defs>
</svg>
