<svg width="32" height="32" viewBox="0 0 32 32" fill="none" xmlns="http://www.w3.org/2000/svg">
<g clip-path="url(#clip0)">
<path d="M1.35953 19.0681C1.41031 19.0681 1.46182 19.0649 1.51358 19.0586C2.19888 18.9744 2.68594 18.3506 2.60171 17.6655C2.58487 17.5276 2.56998 17.3892 2.55728 17.25H4.31265C5.00284 17.25 5.56265 16.6904 5.56265 16C5.56265 15.3096 5.00284 14.75 4.31265 14.75H2.5585C2.7814 12.3318 3.64444 10.0962 4.97671 8.21533C5.98062 8.56714 7.10855 8.86646 8.32657 9.10767C7.96109 10.783 7.74551 12.6162 7.69791 14.5315C7.68082 15.2217 8.22622 15.7949 8.91641 15.812C8.92715 15.8123 8.93765 15.8125 8.94815 15.8125C9.62393 15.8125 10.1803 15.2732 10.1972 14.5935C10.2428 12.7529 10.4543 11.0332 10.7992 9.50073C12.0641 9.65723 13.3908 9.75708 14.7499 9.79492V11.875C14.7499 12.5654 15.3095 13.125 15.9999 13.125C16.6903 13.125 17.2499 12.5654 17.2499 11.875V9.79492C18.6261 9.75635 19.9711 9.6543 21.2523 9.4939C21.6125 11.0657 21.8234 12.8127 21.8664 14.6541C21.8822 15.3345 22.4386 15.875 23.1156 15.875C23.1254 15.875 23.1354 15.8748 23.1452 15.8745C23.8354 15.8584 24.3817 15.2859 24.3656 14.5957C24.3205 12.6543 24.0998 10.7952 23.7226 9.09644C24.9223 8.85742 26.0336 8.56177 27.0229 8.21484C28.3554 10.0959 29.2182 12.3315 29.4413 14.75H27.3747C26.6845 14.75 26.1247 15.3096 26.1247 16C26.1247 16.6902 26.6845 17.25 27.3747 17.25H29.4425C29.4298 17.3889 29.4149 17.5276 29.3981 17.6655C29.3139 18.3506 29.8009 18.9744 30.4862 19.0586C30.538 19.0649 30.5893 19.0681 30.6403 19.0681C31.2626 19.0681 31.8014 18.6038 31.8793 17.9705C31.9591 17.321 31.9997 16.6582 31.9997 15.9998C31.9997 11.7261 30.3354 7.70825 27.3134 4.68628C24.2914 1.66431 20.2736 0 15.9999 0C11.7262 0 7.70816 1.66431 4.68619 4.68628C1.66421 7.70825 0.000151042 11.7261 0.000151042 15.9998C0.000151042 16.6582 0.0404343 17.321 0.120268 17.9705C0.198393 18.604 0.737212 19.0681 1.35953 19.0681ZM6.76358 6.16406C7.81656 5.1748 9.02749 4.35254 10.3542 3.73901C10.2201 3.95874 10.0898 4.18677 9.96402 4.42456C9.60049 5.11353 9.27676 5.87476 8.99551 6.69409C8.2045 6.54297 7.45694 6.36572 6.76358 6.16406ZM11.5153 7.07056C12.3244 4.91821 13.4513 3.38794 14.7499 2.78516V7.29419C13.6381 7.26172 12.5539 7.18604 11.5153 7.07056ZM17.2499 7.29395V2.78662C18.5038 3.37134 19.3927 4.72363 19.8666 5.6145C20.1051 6.06274 20.3239 6.54834 20.5226 7.06592C19.4718 7.18408 18.3739 7.26099 17.2499 7.29395ZM22.0736 4.44019C21.9474 4.20288 21.8163 3.97534 21.6815 3.75586C22.994 4.36719 24.1925 5.18335 25.2355 6.16333C24.5539 6.36157 23.8197 6.53613 23.0434 6.68579C22.7611 5.87646 22.4372 5.12354 22.0736 4.44019ZM29.1168 25.5061C29.5929 24.8552 29.8747 24.0537 29.8747 23.1875C29.8747 21.0164 28.1083 19.25 25.9374 19.25C23.7663 19.25 21.9999 21.0164 21.9999 23.1875C21.9999 24.0515 22.2804 24.8511 22.7543 25.5012C22.7345 25.5129 22.7145 25.5239 22.6947 25.5361C22.3112 25.0408 21.8722 24.5859 21.3844 24.1836C20.8376 23.7327 20.2382 23.3552 19.6032 23.0566C20.2797 22.2441 20.6874 21.2 20.6874 20.0625C20.6874 17.4778 18.5846 15.375 15.9999 15.375C13.4152 15.375 11.3124 17.4778 11.3124 20.0625C11.3124 21.2 11.7201 22.2441 12.3966 23.0566C11.7616 23.3552 11.1623 23.7324 10.6154 24.1836C10.1273 24.5862 9.68863 25.041 9.30459 25.5366C9.28506 25.5244 9.26529 25.5129 9.24551 25.5012C9.71939 24.8511 9.99991 24.0515 9.99991 23.1873C9.99991 21.0161 8.23355 19.2498 6.06265 19.2498C3.89151 19.2498 2.12515 21.0161 2.12515 23.1873C2.12515 24.0537 2.40689 24.8552 2.88296 25.5061C1.46133 26.365 0.398833 27.7888 0.0440963 29.4968C-0.0840775 30.1138 0.0702194 30.7473 0.467192 31.2354C0.862456 31.7209 1.44815 31.9998 2.07437 31.9998H10.0509C10.0592 31.9998 10.0675 31.9985 10.0758 31.9983C10.091 31.9985 10.1061 31.9998 10.1212 31.9998H21.8393C21.8627 31.9998 21.8861 31.9983 21.9098 31.9976C21.923 31.998 21.9357 31.9998 21.9491 31.9998H29.9257C30.5517 31.9998 31.1376 31.7209 31.5326 31.2354C31.9298 30.7473 32.0839 30.1138 31.956 29.4968C31.601 27.7888 30.5385 26.365 29.1168 25.5061ZM25.9374 21.75C26.7299 21.75 27.3749 22.3948 27.3749 23.1875C27.3749 23.98 26.7299 24.6248 25.9374 24.6248C25.1447 24.6248 24.4999 23.98 24.4999 23.1875C24.4999 22.3948 25.1447 21.75 25.9374 21.75ZM13.8124 20.0625C13.8124 18.8562 14.7939 17.875 15.9999 17.875C17.2062 17.875 18.1874 18.8562 18.1874 20.0625C18.1874 21.2686 17.2062 22.25 15.9999 22.25C14.7939 22.25 13.8124 21.2686 13.8124 20.0625ZM15.9999 24.7498C18.8078 24.7498 21.2619 26.7415 21.8468 29.4893C21.8432 29.4937 21.8388 29.4976 21.8349 29.4998H10.1508C10.7316 26.7463 13.1884 24.7498 15.9999 24.7498ZM6.06265 21.75C6.85513 21.75 7.49991 22.3948 7.49991 23.1875C7.49991 23.98 6.85513 24.6248 6.06265 24.6248C5.26993 24.6248 4.62515 23.98 4.62515 23.1875C4.62515 22.3948 5.26993 21.75 6.06265 21.75ZM6.02994 27.1248H6.09537C6.80728 27.1248 7.49283 27.3335 8.07779 27.7192C7.91788 28.1377 7.79043 28.5693 7.69888 29.0105C7.66519 29.1733 7.64883 29.3372 7.64737 29.4998H2.63614C3.15054 28.0972 4.50381 27.1248 6.02994 27.1248ZM24.3512 29.4998C24.3517 29.3315 24.3356 29.1624 24.3009 28.9946C24.2939 28.9612 24.2856 28.9282 24.276 28.896C24.1869 28.4946 24.0685 28.1013 23.9225 27.7192C24.5077 27.3335 25.1938 27.125 25.9044 27.125H25.9699C27.496 27.125 28.8493 28.0972 29.3637 29.4998H24.3512Z" fill="#6F74DD"/>
</g>
<defs>
<clipPath id="clip0">
<rect width="32" height="32" fill="white"/>
</clipPath>
</defs>
</svg>
