<svg width="32" height="32" viewBox="0 0 32 32" fill="none" xmlns="http://www.w3.org/2000/svg">
<path d="M28.75 15.5V19.25C28.75 21.5193 28.146 23.748 27.0032 25.6953C26.6538 26.2905 25.8877 26.49 25.2925 26.1406C24.697 25.791 24.4976 25.0251 24.8472 24.4299C25.7649 22.866 26.25 21.0747 26.25 19.25V15.5C26.25 14.8108 25.6892 14.25 25 14.25H7C6.31079 14.25 5.75 14.8108 5.75 15.5V19.25C5.75 24.9019 10.3481 29.5 16 29.5C17.6711 29.5 19.2639 29.1111 20.7341 28.3438C21.3462 28.0244 22.1013 28.2617 22.4207 28.8738C22.74 29.4858 22.5027 30.241 21.8909 30.5603C20.0857 31.5022 18.0486 32 16 32C8.96973 32 3.25 26.2803 3.25 19.25V15.5C3.25 13.4321 4.93213 11.75 7 11.75H9.0625V6.12329C9.0625 2.74683 11.8662 0 15.3125 0H16.625C20.0713 0 22.875 2.74683 22.875 6.12329V8C22.875 8.69043 22.3154 9.25 21.625 9.25C20.9346 9.25 20.375 8.69043 20.375 8V6.12329C20.375 4.12549 18.6929 2.5 16.625 2.5H15.3125C13.2446 2.5 11.5625 4.12549 11.5625 6.12329V11.75H25C27.0679 11.75 28.75 13.4321 28.75 15.5ZM15.9978 25.625C16.688 25.625 17.2478 25.0654 17.2478 24.375V21.634C17.8879 21.2229 18.3125 20.5049 18.3125 19.6875C18.3125 18.4104 17.2771 17.375 16 17.375C14.7229 17.375 13.6875 18.4104 13.6875 19.6875C13.6875 20.5029 14.1101 21.2195 14.7478 21.6311V24.375C14.7478 25.0654 15.3074 25.625 15.9978 25.625Z" fill="#6F74DD"/>
</svg>
