<svg viewBox="0 0 105 50" fill="none" xmlns="http://www.w3.org/2000/svg" id="el_sNRwByAVl"><style>@-webkit-keyframes kf_el_9N6H4lI7hMn_an_BRflmeIAT{0%{opacity: 0;}15.38%{opacity: 0;}23.08%{opacity: 1;}100%{opacity: 1;}}@keyframes kf_el_9N6H4lI7hMn_an_BRflmeIAT{0%{opacity: 0;}15.38%{opacity: 0;}23.08%{opacity: 1;}100%{opacity: 1;}}@-webkit-keyframes kf_el_MNJ3uRJn8eq_an_jY3c1w4j_{0%{opacity: 0;}15.38%{opacity: 0;}23.08%{opacity: 1;}100%{opacity: 1;}}@keyframes kf_el_MNJ3uRJn8eq_an_jY3c1w4j_{0%{opacity: 0;}15.38%{opacity: 0;}23.08%{opacity: 1;}100%{opacity: 1;}}@-webkit-keyframes kf_el_S_lzIbT9NR_an_VHtqpJywe{0%{-webkit-transform: translate(4px, 3.037899971008301px) translate(-4px, -3.037899971008301px) translate(25px, 0px);transform: translate(4px, 3.037899971008301px) translate(-4px, -3.037899971008301px) translate(25px, 0px);}7.69%{-webkit-transform: translate(4px, 3.037899971008301px) translate(-4px, -3.037899971008301px) translate(25px, 0px);transform: translate(4px, 3.037899971008301px) translate(-4px, -3.037899971008301px) translate(25px, 0px);}12.82%{-webkit-transform: translate(4px, 3.037899971008301px) translate(-4px, -3.037899971008301px) translate(6px, 0px);transform: translate(4px, 3.037899971008301px) translate(-4px, -3.037899971008301px) translate(6px, 0px);}15.38%{-webkit-transform: translate(4px, 3.037899971008301px) translate(-4px, -3.037899971008301px) translate(0px, 0px);transform: translate(4px, 3.037899971008301px) translate(-4px, -3.037899971008301px) translate(0px, 0px);}100%{-webkit-transform: translate(4px, 3.037899971008301px) translate(-4px, -3.037899971008301px) translate(0px, 0px);transform: translate(4px, 3.037899971008301px) translate(-4px, -3.037899971008301px) translate(0px, 0px);}}@keyframes kf_el_S_lzIbT9NR_an_VHtqpJywe{0%{-webkit-transform: translate(4px, 3.037899971008301px) translate(-4px, -3.037899971008301px) translate(25px, 0px);transform: translate(4px, 3.037899971008301px) translate(-4px, -3.037899971008301px) translate(25px, 0px);}7.69%{-webkit-transform: translate(4px, 3.037899971008301px) translate(-4px, -3.037899971008301px) translate(25px, 0px);transform: translate(4px, 3.037899971008301px) translate(-4px, -3.037899971008301px) translate(25px, 0px);}12.82%{-webkit-transform: translate(4px, 3.037899971008301px) translate(-4px, -3.037899971008301px) translate(6px, 0px);transform: translate(4px, 3.037899971008301px) translate(-4px, -3.037899971008301px) translate(6px, 0px);}15.38%{-webkit-transform: translate(4px, 3.037899971008301px) translate(-4px, -3.037899971008301px) translate(0px, 0px);transform: translate(4px, 3.037899971008301px) translate(-4px, -3.037899971008301px) translate(0px, 0px);}100%{-webkit-transform: translate(4px, 3.037899971008301px) translate(-4px, -3.037899971008301px) translate(0px, 0px);transform: translate(4px, 3.037899971008301px) translate(-4px, -3.037899971008301px) translate(0px, 0px);}}@-webkit-keyframes kf_el_S_lzIbT9NR_an_eNg3DbjXe{0%{opacity: 0;}7.69%{opacity: 1;}15.38%{opacity: 1;}23.08%{opacity: 0;}100%{opacity: 0;}}@keyframes kf_el_S_lzIbT9NR_an_eNg3DbjXe{0%{opacity: 0;}7.69%{opacity: 1;}15.38%{opacity: 1;}23.08%{opacity: 0;}100%{opacity: 0;}}@-webkit-keyframes kf_el_jGq4CcRqtM_an_wGzYWo-HtO{0%{-webkit-transform: translate(4px, 30.91390037536621px) translate(-4px, -30.91390037536621px) translate(25px, 0px);transform: translate(4px, 30.91390037536621px) translate(-4px, -30.91390037536621px) translate(25px, 0px);}7.69%{-webkit-transform: translate(4px, 30.91390037536621px) translate(-4px, -30.91390037536621px) translate(25px, 0px);transform: translate(4px, 30.91390037536621px) translate(-4px, -30.91390037536621px) translate(25px, 0px);}12.82%{-webkit-transform: translate(4px, 30.91390037536621px) translate(-4px, -30.91390037536621px) translate(6px, 0px);transform: translate(4px, 30.91390037536621px) translate(-4px, -30.91390037536621px) translate(6px, 0px);}15.38%{-webkit-transform: translate(4px, 30.91390037536621px) translate(-4px, -30.91390037536621px) translate(0px, 0px);transform: translate(4px, 30.91390037536621px) translate(-4px, -30.91390037536621px) translate(0px, 0px);}100%{-webkit-transform: translate(4px, 30.91390037536621px) translate(-4px, -30.91390037536621px) translate(0px, 0px);transform: translate(4px, 30.91390037536621px) translate(-4px, -30.91390037536621px) translate(0px, 0px);}}@keyframes kf_el_jGq4CcRqtM_an_wGzYWo-HtO{0%{-webkit-transform: translate(4px, 30.91390037536621px) translate(-4px, -30.91390037536621px) translate(25px, 0px);transform: translate(4px, 30.91390037536621px) translate(-4px, -30.91390037536621px) translate(25px, 0px);}7.69%{-webkit-transform: translate(4px, 30.91390037536621px) translate(-4px, -30.91390037536621px) translate(25px, 0px);transform: translate(4px, 30.91390037536621px) translate(-4px, -30.91390037536621px) translate(25px, 0px);}12.82%{-webkit-transform: translate(4px, 30.91390037536621px) translate(-4px, -30.91390037536621px) translate(6px, 0px);transform: translate(4px, 30.91390037536621px) translate(-4px, -30.91390037536621px) translate(6px, 0px);}15.38%{-webkit-transform: translate(4px, 30.91390037536621px) translate(-4px, -30.91390037536621px) translate(0px, 0px);transform: translate(4px, 30.91390037536621px) translate(-4px, -30.91390037536621px) translate(0px, 0px);}100%{-webkit-transform: translate(4px, 30.91390037536621px) translate(-4px, -30.91390037536621px) translate(0px, 0px);transform: translate(4px, 30.91390037536621px) translate(-4px, -30.91390037536621px) translate(0px, 0px);}}@-webkit-keyframes kf_el_jGq4CcRqtM_an_im3orODr5{0%{opacity: 0;}7.69%{opacity: 1;}15.38%{opacity: 1;}23.08%{opacity: 0;}100%{opacity: 0;}}@keyframes kf_el_jGq4CcRqtM_an_im3orODr5{0%{opacity: 0;}7.69%{opacity: 1;}15.38%{opacity: 1;}23.08%{opacity: 0;}100%{opacity: 0;}}@-webkit-keyframes kf_el_MxIu1RsFkL_an_lhGQDI7ds{0%{-webkit-transform: translate(31.913799285888672px, 15.883299827575684px) translate(-31.913799285888672px, -15.883299827575684px) translate(25px, 0px);transform: translate(31.913799285888672px, 15.883299827575684px) translate(-31.913799285888672px, -15.883299827575684px) translate(25px, 0px);}7.69%{-webkit-transform: translate(31.913799285888672px, 15.883299827575684px) translate(-31.913799285888672px, -15.883299827575684px) translate(25px, 0px);transform: translate(31.913799285888672px, 15.883299827575684px) translate(-31.913799285888672px, -15.883299827575684px) translate(25px, 0px);}12.82%{-webkit-transform: translate(31.913799285888672px, 15.883299827575684px) translate(-31.913799285888672px, -15.883299827575684px) translate(6px, 0px);transform: translate(31.913799285888672px, 15.883299827575684px) translate(-31.913799285888672px, -15.883299827575684px) translate(6px, 0px);}15.38%{-webkit-transform: translate(31.913799285888672px, 15.883299827575684px) translate(-31.913799285888672px, -15.883299827575684px) translate(0px, 0px);transform: translate(31.913799285888672px, 15.883299827575684px) translate(-31.913799285888672px, -15.883299827575684px) translate(0px, 0px);}100%{-webkit-transform: translate(31.913799285888672px, 15.883299827575684px) translate(-31.913799285888672px, -15.883299827575684px) translate(0px, 0px);transform: translate(31.913799285888672px, 15.883299827575684px) translate(-31.913799285888672px, -15.883299827575684px) translate(0px, 0px);}}@keyframes kf_el_MxIu1RsFkL_an_lhGQDI7ds{0%{-webkit-transform: translate(31.913799285888672px, 15.883299827575684px) translate(-31.913799285888672px, -15.883299827575684px) translate(25px, 0px);transform: translate(31.913799285888672px, 15.883299827575684px) translate(-31.913799285888672px, -15.883299827575684px) translate(25px, 0px);}7.69%{-webkit-transform: translate(31.913799285888672px, 15.883299827575684px) translate(-31.913799285888672px, -15.883299827575684px) translate(25px, 0px);transform: translate(31.913799285888672px, 15.883299827575684px) translate(-31.913799285888672px, -15.883299827575684px) translate(25px, 0px);}12.82%{-webkit-transform: translate(31.913799285888672px, 15.883299827575684px) translate(-31.913799285888672px, -15.883299827575684px) translate(6px, 0px);transform: translate(31.913799285888672px, 15.883299827575684px) translate(-31.913799285888672px, -15.883299827575684px) translate(6px, 0px);}15.38%{-webkit-transform: translate(31.913799285888672px, 15.883299827575684px) translate(-31.913799285888672px, -15.883299827575684px) translate(0px, 0px);transform: translate(31.913799285888672px, 15.883299827575684px) translate(-31.913799285888672px, -15.883299827575684px) translate(0px, 0px);}100%{-webkit-transform: translate(31.913799285888672px, 15.883299827575684px) translate(-31.913799285888672px, -15.883299827575684px) translate(0px, 0px);transform: translate(31.913799285888672px, 15.883299827575684px) translate(-31.913799285888672px, -15.883299827575684px) translate(0px, 0px);}}@-webkit-keyframes kf_el_MxIu1RsFkL_an_dkib1igvp{0%{opacity: 0;}7.69%{opacity: 1;}15.38%{opacity: 1;}23.08%{opacity: 0;}100%{opacity: 0;}}@keyframes kf_el_MxIu1RsFkL_an_dkib1igvp{0%{opacity: 0;}7.69%{opacity: 1;}15.38%{opacity: 1;}23.08%{opacity: 0;}100%{opacity: 0;}}@-webkit-keyframes kf_el_fFuMvNOm_J_an_RbonJ3qR4{0%{opacity: 0;}7.69%{opacity: 1;}15.38%{opacity: 1;}23.08%{opacity: 0;}100%{opacity: 0;}}@keyframes kf_el_fFuMvNOm_J_an_RbonJ3qR4{0%{opacity: 0;}7.69%{opacity: 1;}15.38%{opacity: 1;}23.08%{opacity: 0;}100%{opacity: 0;}}@-webkit-keyframes kf_el_fFuMvNOm_J_an_PyfPqs2_dq{0%{-webkit-transform: translate(16.88330078125px, 3px) translate(-16.88330078125px, -3px) translate(25px, 0px);transform: translate(16.88330078125px, 3px) translate(-16.88330078125px, -3px) translate(25px, 0px);}7.69%{-webkit-transform: translate(16.88330078125px, 3px) translate(-16.88330078125px, -3px) translate(25px, 0px);transform: translate(16.88330078125px, 3px) translate(-16.88330078125px, -3px) translate(25px, 0px);}12.82%{-webkit-transform: translate(16.88330078125px, 3px) translate(-16.88330078125px, -3px) translate(6px, 0px);transform: translate(16.88330078125px, 3px) translate(-16.88330078125px, -3px) translate(6px, 0px);}15.38%{-webkit-transform: translate(16.88330078125px, 3px) translate(-16.88330078125px, -3px) translate(0px, 0px);transform: translate(16.88330078125px, 3px) translate(-16.88330078125px, -3px) translate(0px, 0px);}100%{-webkit-transform: translate(16.88330078125px, 3px) translate(-16.88330078125px, -3px) translate(0px, 0px);transform: translate(16.88330078125px, 3px) translate(-16.88330078125px, -3px) translate(0px, 0px);}}@keyframes kf_el_fFuMvNOm_J_an_PyfPqs2_dq{0%{-webkit-transform: translate(16.88330078125px, 3px) translate(-16.88330078125px, -3px) translate(25px, 0px);transform: translate(16.88330078125px, 3px) translate(-16.88330078125px, -3px) translate(25px, 0px);}7.69%{-webkit-transform: translate(16.88330078125px, 3px) translate(-16.88330078125px, -3px) translate(25px, 0px);transform: translate(16.88330078125px, 3px) translate(-16.88330078125px, -3px) translate(25px, 0px);}12.82%{-webkit-transform: translate(16.88330078125px, 3px) translate(-16.88330078125px, -3px) translate(6px, 0px);transform: translate(16.88330078125px, 3px) translate(-16.88330078125px, -3px) translate(6px, 0px);}15.38%{-webkit-transform: translate(16.88330078125px, 3px) translate(-16.88330078125px, -3px) translate(0px, 0px);transform: translate(16.88330078125px, 3px) translate(-16.88330078125px, -3px) translate(0px, 0px);}100%{-webkit-transform: translate(16.88330078125px, 3px) translate(-16.88330078125px, -3px) translate(0px, 0px);transform: translate(16.88330078125px, 3px) translate(-16.88330078125px, -3px) translate(0px, 0px);}}@-webkit-keyframes kf_el_HC7YhQu73n_an_cKieQGaZX{0%{opacity: 0;}28.21%{opacity: 0;}33.33%{opacity: 1;}38.46%{opacity: 1;}39.49%{opacity: 0;}43.59%{opacity: 0;}48.72%{opacity: 1;}53.85%{opacity: 1;}54.87%{opacity: 0;}58.97%{opacity: 0;}64.10%{opacity: 1;}69.23%{opacity: 1;}70.26%{opacity: 0;}74.36%{opacity: 0;}79.49%{opacity: 1;}84.62%{opacity: 1;}85.64%{opacity: 0;}89.74%{opacity: 0;}94.87%{opacity: 1;}100%{opacity: 1;}}@keyframes kf_el_HC7YhQu73n_an_cKieQGaZX{0%{opacity: 0;}28.21%{opacity: 0;}33.33%{opacity: 1;}38.46%{opacity: 1;}39.49%{opacity: 0;}43.59%{opacity: 0;}48.72%{opacity: 1;}53.85%{opacity: 1;}54.87%{opacity: 0;}58.97%{opacity: 0;}64.10%{opacity: 1;}69.23%{opacity: 1;}70.26%{opacity: 0;}74.36%{opacity: 0;}79.49%{opacity: 1;}84.62%{opacity: 1;}85.64%{opacity: 0;}89.74%{opacity: 0;}94.87%{opacity: 1;}100%{opacity: 1;}}@-webkit-keyframes kf_el_TxwHrBkLz4_an_1y4AjOUVm{0%{opacity: 0;}23.08%{opacity: 0;}28.21%{opacity: 1;}38.46%{opacity: 1;}39.49%{opacity: 0;}43.59%{opacity: 1;}53.85%{opacity: 1;}54.87%{opacity: 0;}58.97%{opacity: 1;}69.23%{opacity: 1;}70.26%{opacity: 0;}74.36%{opacity: 1;}84.62%{opacity: 1;}85.64%{opacity: 0;}89.74%{opacity: 1;}100%{opacity: 1;}}@keyframes kf_el_TxwHrBkLz4_an_1y4AjOUVm{0%{opacity: 0;}23.08%{opacity: 0;}28.21%{opacity: 1;}38.46%{opacity: 1;}39.49%{opacity: 0;}43.59%{opacity: 1;}53.85%{opacity: 1;}54.87%{opacity: 0;}58.97%{opacity: 1;}69.23%{opacity: 1;}70.26%{opacity: 0;}74.36%{opacity: 1;}84.62%{opacity: 1;}85.64%{opacity: 0;}89.74%{opacity: 1;}100%{opacity: 1;}}@-webkit-keyframes kf_el_21suFMETok_an_GFY4Sgk5s{0%{opacity: 0;}15.38%{opacity: 0;}23.08%{opacity: 1;}100%{opacity: 1;}}@keyframes kf_el_21suFMETok_an_GFY4Sgk5s{0%{opacity: 0;}15.38%{opacity: 0;}23.08%{opacity: 1;}100%{opacity: 1;}}@-webkit-keyframes kf_el_gtSC9dO6QK_an_hVSzzJmBn{0%{opacity: 0;}33.33%{opacity: 0;}38.46%{opacity: 1;}39.49%{opacity: 0;}48.72%{opacity: 0;}53.85%{opacity: 1;}54.87%{opacity: 0;}64.10%{opacity: 0;}69.23%{opacity: 1;}70.26%{opacity: 0;}79.49%{opacity: 0;}84.62%{opacity: 1;}85.64%{opacity: 0;}94.87%{opacity: 0;}100%{opacity: 1;}}@keyframes kf_el_gtSC9dO6QK_an_hVSzzJmBn{0%{opacity: 0;}33.33%{opacity: 0;}38.46%{opacity: 1;}39.49%{opacity: 0;}48.72%{opacity: 0;}53.85%{opacity: 1;}54.87%{opacity: 0;}64.10%{opacity: 0;}69.23%{opacity: 1;}70.26%{opacity: 0;}79.49%{opacity: 0;}84.62%{opacity: 1;}85.64%{opacity: 0;}94.87%{opacity: 0;}100%{opacity: 1;}}@-webkit-keyframes kf_el_G2KHLPl9uu_an_PTsU8FOIj{0%{opacity: 0;}15.38%{opacity: 0;}23.08%{opacity: 1;}100%{opacity: 1;}}@keyframes kf_el_G2KHLPl9uu_an_PTsU8FOIj{0%{opacity: 0;}15.38%{opacity: 0;}23.08%{opacity: 1;}100%{opacity: 1;}}@-webkit-keyframes kf_el__atDH5bxcx_an_SRE85I_6x{0%{opacity: 0;}15.38%{opacity: 0;}23.08%{opacity: 1;}100%{opacity: 1;}}@keyframes kf_el__atDH5bxcx_an_SRE85I_6x{0%{opacity: 0;}15.38%{opacity: 0;}23.08%{opacity: 1;}100%{opacity: 1;}}@-webkit-keyframes kf_el_roBE06SiXA_an_pBZriQoEW{0%{opacity: 0;}15.38%{opacity: 0;}23.08%{opacity: 1;}100%{opacity: 1;}}@keyframes kf_el_roBE06SiXA_an_pBZriQoEW{0%{opacity: 0;}15.38%{opacity: 0;}23.08%{opacity: 1;}100%{opacity: 1;}}@-webkit-keyframes kf_el_lhgXQQlOlp_an_G3jPlzuAI{0%{opacity: 0;}15.38%{opacity: 0;}23.08%{opacity: 1;}100%{opacity: 1;}}@keyframes kf_el_lhgXQQlOlp_an_G3jPlzuAI{0%{opacity: 0;}15.38%{opacity: 0;}23.08%{opacity: 1;}100%{opacity: 1;}}@-webkit-keyframes kf_el_K3O70BOYt8_an_gQSE68QWq{0%{opacity: 0;}15.38%{opacity: 0;}23.08%{opacity: 1;}100%{opacity: 1;}}@keyframes kf_el_K3O70BOYt8_an_gQSE68QWq{0%{opacity: 0;}15.38%{opacity: 0;}23.08%{opacity: 1;}100%{opacity: 1;}}#el_sNRwByAVl *{-webkit-animation-duration: 6.5s;animation-duration: 6.5s;-webkit-animation-iteration-count: 1;animation-iteration-count: 1;-webkit-animation-timing-function: cubic-bezier(0, 0, 1, 1);animation-timing-function: cubic-bezier(0, 0, 1, 1);}#el_K3O70BOYt8{fill: #C4C4C4;-webkit-animation-fill-mode: backwards;animation-fill-mode: backwards;opacity: 0;-webkit-animation-name: kf_el_K3O70BOYt8_an_gQSE68QWq;animation-name: kf_el_K3O70BOYt8_an_gQSE68QWq;-webkit-animation-timing-function: cubic-bezier(0, 0, 1, 1);animation-timing-function: cubic-bezier(0, 0, 1, 1);}#el_lhgXQQlOlp{fill: #C4C4C4;-webkit-animation-fill-mode: backwards;animation-fill-mode: backwards;opacity: 0;-webkit-animation-name: kf_el_lhgXQQlOlp_an_G3jPlzuAI;animation-name: kf_el_lhgXQQlOlp_an_G3jPlzuAI;-webkit-animation-timing-function: cubic-bezier(0, 0, 1, 1);animation-timing-function: cubic-bezier(0, 0, 1, 1);}#el_roBE06SiXA{fill: #C4C4C4;-webkit-animation-fill-mode: backwards;animation-fill-mode: backwards;opacity: 0;-webkit-animation-name: kf_el_roBE06SiXA_an_pBZriQoEW;animation-name: kf_el_roBE06SiXA_an_pBZriQoEW;-webkit-animation-timing-function: cubic-bezier(0, 0, 1, 1);animation-timing-function: cubic-bezier(0, 0, 1, 1);}#el__atDH5bxcx{fill: #C4C4C4;-webkit-animation-fill-mode: backwards;animation-fill-mode: backwards;opacity: 0;-webkit-animation-name: kf_el__atDH5bxcx_an_SRE85I_6x;animation-name: kf_el__atDH5bxcx_an_SRE85I_6x;-webkit-animation-timing-function: cubic-bezier(0, 0, 1, 1);animation-timing-function: cubic-bezier(0, 0, 1, 1);}#el_G2KHLPl9uu{fill: #00227B;-webkit-animation-fill-mode: backwards;animation-fill-mode: backwards;opacity: 0;-webkit-animation-name: kf_el_G2KHLPl9uu_an_PTsU8FOIj;animation-name: kf_el_G2KHLPl9uu_an_PTsU8FOIj;-webkit-animation-timing-function: cubic-bezier(0, 0, 1, 1);animation-timing-function: cubic-bezier(0, 0, 1, 1);}#el_gtSC9dO6QK{fill: #933183;-webkit-animation-fill-mode: backwards;animation-fill-mode: backwards;opacity: 0;-webkit-animation-name: kf_el_gtSC9dO6QK_an_hVSzzJmBn;animation-name: kf_el_gtSC9dO6QK_an_hVSzzJmBn;-webkit-animation-timing-function: cubic-bezier(0, 0, 1, 1);animation-timing-function: cubic-bezier(0, 0, 1, 1);}#el_21suFMETok{fill: #00227B;-webkit-animation-fill-mode: backwards;animation-fill-mode: backwards;opacity: 0;-webkit-animation-name: kf_el_21suFMETok_an_GFY4Sgk5s;animation-name: kf_el_21suFMETok_an_GFY4Sgk5s;-webkit-animation-timing-function: cubic-bezier(0, 0, 1, 1);animation-timing-function: cubic-bezier(0, 0, 1, 1);}#el_TxwHrBkLz4{fill: #76B515;-webkit-animation-fill-mode: backwards;animation-fill-mode: backwards;opacity: 0;-webkit-animation-name: kf_el_TxwHrBkLz4_an_1y4AjOUVm;animation-name: kf_el_TxwHrBkLz4_an_1y4AjOUVm;-webkit-animation-timing-function: cubic-bezier(0, 0, 1, 1);animation-timing-function: cubic-bezier(0, 0, 1, 1);}#el_HC7YhQu73n{fill: #FD5C02;-webkit-animation-fill-mode: backwards;animation-fill-mode: backwards;opacity: 0;-webkit-animation-name: kf_el_HC7YhQu73n_an_cKieQGaZX;animation-name: kf_el_HC7YhQu73n_an_cKieQGaZX;-webkit-animation-timing-function: cubic-bezier(0, 0, 1, 1);animation-timing-function: cubic-bezier(0, 0, 1, 1);}#el_CpezCSEnOo{fill: #00227B;visibility: hidden;}#el_y4SQ_zIp-g{fill: #00227B;visibility: hidden;}#el_fFuMvNOm_J{fill: #933183;-webkit-animation-fill-mode: backwards;animation-fill-mode: backwards;opacity: 0;-webkit-animation-name: kf_el_fFuMvNOm_J_an_RbonJ3qR4;animation-name: kf_el_fFuMvNOm_J_an_RbonJ3qR4;-webkit-animation-timing-function: cubic-bezier(0, 0, 1, 1);animation-timing-function: cubic-bezier(0, 0, 1, 1);}#el_MxIu1RsFkL{fill: #00227B;-webkit-animation-fill-mode: backwards;animation-fill-mode: backwards;opacity: 0;-webkit-animation-name: kf_el_MxIu1RsFkL_an_dkib1igvp;animation-name: kf_el_MxIu1RsFkL_an_dkib1igvp;-webkit-animation-timing-function: cubic-bezier(0, 0, 1, 1);animation-timing-function: cubic-bezier(0, 0, 1, 1);}#el_jGq4CcRqtM{fill: #76B515;-webkit-animation-fill-mode: backwards;animation-fill-mode: backwards;opacity: 0;-webkit-animation-name: kf_el_jGq4CcRqtM_an_im3orODr5;animation-name: kf_el_jGq4CcRqtM_an_im3orODr5;-webkit-animation-timing-function: cubic-bezier(0, 0, 1, 1);animation-timing-function: cubic-bezier(0, 0, 1, 1);}#el_S_lzIbT9NR{fill: #FD5C02;-webkit-animation-fill-mode: backwards;animation-fill-mode: backwards;opacity: 0;-webkit-animation-name: kf_el_S_lzIbT9NR_an_eNg3DbjXe;animation-name: kf_el_S_lzIbT9NR_an_eNg3DbjXe;-webkit-animation-timing-function: cubic-bezier(0, 0, 1, 1);animation-timing-function: cubic-bezier(0, 0, 1, 1);}#el_MNJ3uRJn8eq{fill: #00227B;-webkit-animation-fill-mode: backwards;animation-fill-mode: backwards;opacity: 0;-webkit-animation-name: kf_el_MNJ3uRJn8eq_an_jY3c1w4j_;animation-name: kf_el_MNJ3uRJn8eq_an_jY3c1w4j_;-webkit-animation-timing-function: cubic-bezier(0, 0, 1, 1);animation-timing-function: cubic-bezier(0, 0, 1, 1);}#el_9N6H4lI7hMn{fill: #00227B;-webkit-animation-fill-mode: backwards;animation-fill-mode: backwards;opacity: 0;-webkit-animation-name: kf_el_9N6H4lI7hMn_an_BRflmeIAT;animation-name: kf_el_9N6H4lI7hMn_an_BRflmeIAT;-webkit-animation-timing-function: cubic-bezier(0, 0, 1, 1);animation-timing-function: cubic-bezier(0, 0, 1, 1);}#el_fFuMvNOm_J_an_PyfPqs2_dq{-webkit-animation-fill-mode: backwards;animation-fill-mode: backwards;-webkit-transform: translate(16.88330078125px, 3px) translate(-16.88330078125px, -3px) translate(25px, 0px);transform: translate(16.88330078125px, 3px) translate(-16.88330078125px, -3px) translate(25px, 0px);-webkit-animation-name: kf_el_fFuMvNOm_J_an_PyfPqs2_dq;animation-name: kf_el_fFuMvNOm_J_an_PyfPqs2_dq;-webkit-animation-timing-function: cubic-bezier(0, 0, 1, 1);animation-timing-function: cubic-bezier(0, 0, 1, 1);}#el_MxIu1RsFkL_an_lhGQDI7ds{-webkit-animation-fill-mode: backwards;animation-fill-mode: backwards;-webkit-transform: translate(31.913799285888672px, 15.883299827575684px) translate(-31.913799285888672px, -15.883299827575684px) translate(25px, 0px);transform: translate(31.913799285888672px, 15.883299827575684px) translate(-31.913799285888672px, -15.883299827575684px) translate(25px, 0px);-webkit-animation-name: kf_el_MxIu1RsFkL_an_lhGQDI7ds;animation-name: kf_el_MxIu1RsFkL_an_lhGQDI7ds;-webkit-animation-timing-function: cubic-bezier(0, 0, 1, 1);animation-timing-function: cubic-bezier(0, 0, 1, 1);}#el_jGq4CcRqtM_an_wGzYWo-HtO{-webkit-animation-fill-mode: backwards;animation-fill-mode: backwards;-webkit-transform: translate(4px, 30.91390037536621px) translate(-4px, -30.91390037536621px) translate(25px, 0px);transform: translate(4px, 30.91390037536621px) translate(-4px, -30.91390037536621px) translate(25px, 0px);-webkit-animation-name: kf_el_jGq4CcRqtM_an_wGzYWo-HtO;animation-name: kf_el_jGq4CcRqtM_an_wGzYWo-HtO;-webkit-animation-timing-function: cubic-bezier(0, 0, 1, 1);animation-timing-function: cubic-bezier(0, 0, 1, 1);}#el_S_lzIbT9NR_an_VHtqpJywe{-webkit-animation-fill-mode: backwards;animation-fill-mode: backwards;-webkit-transform: translate(4px, 3.037899971008301px) translate(-4px, -3.037899971008301px) translate(25px, 0px);transform: translate(4px, 3.037899971008301px) translate(-4px, -3.037899971008301px) translate(25px, 0px);-webkit-animation-name: kf_el_S_lzIbT9NR_an_VHtqpJywe;animation-name: kf_el_S_lzIbT9NR_an_VHtqpJywe;-webkit-animation-timing-function: cubic-bezier(0, 0, 1, 1);animation-timing-function: cubic-bezier(0, 0, 1, 1);}</style>
<path d="M38.9136 11.4077C38.902 10.7761 38.6834 9.43575 38.441 8.86849C38.1986 8.30123 37.8696 7.81292 37.4541 7.40356C37.027 6.9942 36.5394 6.67548 35.9911 6.44741C35.4428 6.21933 34.8628 6.1053 34.2511 6.1053C30.3925 6.1053 27.4985 6.1053 25.5692 6.1053C23.639 6.1053 20.7437 6.1053 16.8833 6.1053V3H34.3377C35.3649 3 36.3374 3.19298 37.255 3.57895C38.1726 3.96493 38.9777 4.50879 39.6702 5.21055C40.3628 5.90062 40.9024 6.71056 41.2891 7.6404C41.6757 8.57024 42 10.4925 42 11.5334V13.0651H38.9136C38.9136 12.7204 38.9164 11.4704 38.9136 11.4077Z" id="el_K3O70BOYt8"/>
<path d="M33.5712 37.9136C34.2028 37.902 35.5432 37.6834 36.1105 37.441C36.6777 37.1986 37.166 36.8696 37.5754 36.4541C37.9847 36.027 38.3035 35.5394 38.5315 34.9911C38.7596 34.4428 38.8736 33.8628 38.8736 33.2511V15.8833H41.9789V33.3377C41.9789 34.3649 41.786 35.3374 41.4 36.255C41.014 37.1726 40.4702 37.9777 39.7684 38.6702C39.0783 39.3628 38.2684 39.9024 37.3385 40.2891C36.4087 40.6757 34.4864 41 33.4455 41H31.9138V37.9136C32.2586 37.9136 33.5085 37.9164 33.5712 37.9136Z" id="el_lhgXQQlOlp"/>
<path d="M7.08641 32.5713C7.09796 33.2029 7.31662 34.5433 7.55901 35.1105C7.8014 35.6778 8.13036 36.1661 8.54588 36.5754C8.97295 36.9848 9.46061 37.3035 10.0089 37.5316C10.5571 37.7597 11.1371 37.8737 11.7489 37.8737H29.1167V40.979H11.6623C10.635 40.979 9.66261 40.786 8.74499 40.4C7.82737 40.0141 7.02229 39.4702 6.32975 38.7684C5.6372 38.0784 5.0976 37.2684 4.71093 36.3386C4.32426 35.4088 4 33.4865 4 32.4456V30.9139H7.08641C7.08641 31.2586 7.08354 32.5086 7.08641 32.5713Z" id="el_roBE06SiXA"/>
<path d="M14.0651 6.12529H12.4077C11.7761 6.13684 10.4357 6.3555 9.86849 6.59789C9.30123 6.84028 8.81292 7.16924 8.40356 7.58476C7.9942 8.01183 7.67548 8.49949 7.44741 9.04776C7.21933 9.59603 7.1053 10.176 7.1053 10.7878C7.1053 13.1028 7.1053 14.8391 7.1053 15.9966C7.1053 18.6986 7.1053 22.7516 7.1053 28.1556C6.77716 28.1556 4.11566 28.1556 4 28.1556L4 10.7012C4 9.67393 4.19298 8.70149 4.57895 7.78387C4.96493 6.86625 5.50879 6.06117 6.21055 5.36863C6.90062 4.67608 7.71056 4.13648 8.6404 3.74981C9.57024 3.36314 11.4925 3.03888 12.5334 3.03888C12.6429 3.03888 14.0651 3.03888 14.0651 3.03888C14.0651 3.89139 14.0651 5.46866 14.0651 6.12529Z" id="el__atDH5bxcx"/>
<path d="M59.0675 16.7484V31.1165H57.0996L56.926 29.0512C54.8038 30.6838 52.7781 31.5 50.8489 31.5C48.2829 31.5 47 30.1822 47 27.5466V16.7484H49.4598V26.8385C49.4405 27.7433 49.6045 28.3825 49.9518 28.7562C50.299 29.1299 50.8778 29.3168 51.6881 29.3168C52.4019 29.3168 53.1254 29.1545 53.8585 28.83C54.5916 28.5054 55.508 27.9793 56.6077 27.2516V16.7484H59.0675ZM64.7122 16.7484L64.8858 19.0202C67.1624 17.2697 69.2652 16.3944 71.1945 16.3944C73.7411 16.3944 75.0144 17.7122 75.0144 20.3478V31.1165H72.5546V21.0559C72.5546 20.1118 72.4003 19.4529 72.0916 19.0792C71.7829 18.7055 71.262 18.5186 70.5289 18.5186C69.7572 18.5186 68.9807 18.6957 68.1993 19.0497C67.418 19.4037 66.381 19.984 65.0884 20.7904V31.1165H62.6286V16.7484H64.7122ZM82.0193 18.7252V27.163C82.0193 27.8515 82.164 28.3432 82.4534 28.6382C82.7427 28.9332 83.2347 29.0807 83.9292 29.0807H86.0707L86.3601 30.9984C85.4726 31.2541 84.4116 31.382 83.1768 31.382C82 31.382 81.1029 31.0476 80.4855 30.3789C79.8682 29.7101 79.5595 28.7464 79.5595 27.4876V18.7252H77.0129V16.896L79.5595 16.778V12.5H82.0193V16.7484H86.5048V18.7252H82.0193ZM97.0402 25.1568H90.4711C90.6061 26.809 91.0016 27.9203 91.6576 28.4907C92.3135 29.0611 93.4035 29.3463 94.9277 29.3463C96.5289 29.3463 98.1591 29.2283 99.8183 28.9922L100.079 30.6739C98.8247 31.205 97.0016 31.4705 94.6093 31.4705C92.1785 31.4705 90.447 30.8952 89.4148 29.7446C88.3827 28.5939 87.8666 26.6418 87.8666 23.8882C87.8666 21.1149 88.3682 19.1726 89.3714 18.0613C90.3746 16.95 92.0338 16.3944 94.3489 16.3944C96.4518 16.3944 97.9855 16.7829 98.9501 17.5598C99.9148 18.3367 100.397 19.5119 100.397 21.0854C100.436 23.7997 99.3167 25.1568 97.0402 25.1568ZM90.4422 23.2096H96.4035C97.426 23.2096 97.9373 22.5016 97.9373 21.0854C97.918 20.161 97.6479 19.5021 97.127 19.1087C96.6061 18.7153 95.7187 18.5186 94.4646 18.5186C92.9791 18.5186 91.947 18.8481 91.3682 19.507C90.7894 20.1659 90.4807 21.4001 90.4422 23.2096Z" id="el_G2KHLPl9uu"/>
<path d="M38.9136 11.4077C38.902 10.7761 38.6834 9.43575 38.441 8.86849C38.1986 8.30123 37.8696 7.81292 37.4541 7.40356C37.027 6.9942 36.5394 6.67548 35.9911 6.44741C35.4428 6.21933 34.8628 6.1053 34.2511 6.1053C30.3925 6.1053 27.4985 6.1053 25.5692 6.1053C23.639 6.1053 20.7437 6.1053 16.8833 6.1053V3H34.3377C35.3649 3 36.3374 3.19298 37.255 3.57895C38.1726 3.96493 38.9777 4.50879 39.6702 5.21055C40.3628 5.90062 40.9024 6.71056 41.2891 7.6404C41.6757 8.57024 42 10.4925 42 11.5334V13.0651H38.9136C38.9136 12.7204 38.9164 11.4704 38.9136 11.4077Z" id="el_gtSC9dO6QK"/>
<path d="M33.5712 37.9136C34.2028 37.902 35.5432 37.6834 36.1105 37.441C36.6777 37.1986 37.166 36.8696 37.5754 36.4541C37.9847 36.027 38.3035 35.5394 38.5315 34.9911C38.7596 34.4428 38.8736 33.8628 38.8736 33.2511V15.8833H41.9789V33.3377C41.9789 34.3649 41.786 35.3374 41.4 36.255C41.014 37.1726 40.4702 37.9777 39.7684 38.6702C39.0783 39.3628 38.2684 39.9024 37.3385 40.2891C36.4087 40.6757 34.4864 41 33.4455 41H31.9138V37.9136C32.2586 37.9136 33.5085 37.9164 33.5712 37.9136Z" id="el_21suFMETok"/>
<path d="M7.08641 32.5713C7.09796 33.2029 7.31662 34.5433 7.55901 35.1105C7.8014 35.6778 8.13036 36.1661 8.54588 36.5754C8.97295 36.9848 9.46061 37.3035 10.0089 37.5316C10.5571 37.7597 11.1371 37.8737 11.7489 37.8737H29.1167V40.979H11.6623C10.635 40.979 9.66261 40.786 8.74499 40.4C7.82737 40.0141 7.02229 39.4702 6.32975 38.7684C5.6372 38.0784 5.0976 37.2684 4.71093 36.3386C4.32426 35.4088 4 33.4865 4 32.4456V30.9139H7.08641C7.08641 31.2586 7.08354 32.5086 7.08641 32.5713Z" id="el_TxwHrBkLz4"/>
<path d="M14.0651 6.12529H12.4077C11.7761 6.13684 10.4357 6.3555 9.86849 6.59789C9.30123 6.84028 8.81292 7.16924 8.40356 7.58476C7.9942 8.01183 7.67548 8.49949 7.44741 9.04776C7.21933 9.59603 7.1053 10.176 7.1053 10.7878C7.1053 13.1028 7.1053 14.8391 7.1053 15.9966C7.1053 18.6986 7.1053 22.7516 7.1053 28.1556C6.77716 28.1556 4.11566 28.1556 4 28.1556L4 10.7012C4 9.67393 4.19298 8.70149 4.57895 7.78387C4.96493 6.86625 5.50879 6.06117 6.21055 5.36863C6.90062 4.67608 7.71056 4.13648 8.6404 3.74981C9.57024 3.36314 11.4925 3.03888 12.5334 3.03888C12.6429 3.03888 14.0651 3.03888 14.0651 3.03888C14.0651 3.89139 14.0651 5.46866 14.0651 6.12529Z" id="el_HC7YhQu73n"/>


<g id="el_fFuMvNOm_J_an_PyfPqs2_dq" data-animator-group="true" data-animator-type="0"><path d="M38.9135 11.4077C38.902 10.7761 38.6833 9.43575 38.4409 8.86849C38.1986 8.30123 37.8696 7.81292 37.4541 7.40356C37.027 6.9942 36.5393 6.67548 35.9911 6.44741C35.4428 6.21933 34.8628 6.1053 34.2511 6.1053C30.3925 6.1053 27.4985 6.1053 25.5692 6.1053C23.639 6.1053 20.7437 6.1053 16.8833 6.1053V3H34.3376C35.3649 3 36.3373 3.19298 37.255 3.57895C38.1726 3.96493 38.9777 4.50879 39.6702 5.21055C40.3628 5.90062 40.9024 6.71056 41.289 7.6404C41.6757 8.57024 42 10.4925 42 11.5334V13.0651H38.9135C38.9135 12.7204 38.9164 11.4704 38.9135 11.4077Z" id="el_fFuMvNOm_J"/></g>
<g id="el_MxIu1RsFkL_an_lhGQDI7ds" data-animator-group="true" data-animator-type="0"><path d="M33.5712 37.9135C34.2028 37.902 35.5432 37.6833 36.1105 37.4409C36.6777 37.1986 37.166 36.8696 37.5754 36.4541C37.9847 36.027 38.3035 35.5393 38.5315 34.9911C38.7596 34.4428 38.8736 33.8628 38.8736 33.2511V15.8833H41.9789V33.3376C41.9789 34.3649 41.786 35.3373 41.4 36.255C41.014 37.1726 40.4702 37.9777 39.7684 38.6702C39.0783 39.3628 38.2684 39.9024 37.3385 40.289C36.4087 40.6757 34.4864 41 33.4455 41H31.9138V37.9135C32.2586 37.9135 33.5085 37.9164 33.5712 37.9135Z" id="el_MxIu1RsFkL"/></g>
<g id="el_jGq4CcRqtM_an_wGzYWo-HtO" data-animator-group="true" data-animator-type="0"><path d="M7.08642 32.5713C7.09796 33.2029 7.31662 34.5432 7.55901 35.1105C7.8014 35.6777 8.13036 36.166 8.54588 36.5754C8.97296 36.9848 9.46062 37.3035 10.0089 37.5316C10.5571 37.7596 11.1371 37.8737 11.7489 37.8737H29.1167V40.979H11.6623C10.6351 40.979 9.66261 40.786 8.74499 40.4C7.82737 40.014 7.02229 39.4702 6.32975 38.7684C5.6372 38.0783 5.0976 37.2684 4.71093 36.3386C4.32426 35.4087 4 33.4865 4 32.4455V30.9139H7.08642C7.08642 31.2586 7.08354 32.5085 7.08642 32.5713Z" id="el_jGq4CcRqtM"/></g>
<g id="el_S_lzIbT9NR_an_VHtqpJywe" data-animator-group="true" data-animator-type="0"><path d="M14.0651 6.12432H12.4077C11.7761 6.13586 10.4357 6.35452 9.86849 6.59691C9.30123 6.83931 8.81292 7.16826 8.40356 7.58379C7.9942 8.01086 7.67548 8.49852 7.44741 9.04678C7.21933 9.59505 7.1053 10.175 7.1053 10.7868C7.1053 13.1018 7.1053 14.8381 7.1053 15.9956C7.1053 18.6976 7.1053 22.7506 7.1053 28.1546C6.77716 28.1546 4.11566 28.1546 4 28.1546L4 10.7002C4 9.67295 4.19298 8.70052 4.57895 7.78289C4.96493 6.86527 5.50879 6.0602 6.21055 5.36765C6.90062 4.6751 7.71056 4.1355 8.6404 3.74883C9.57024 3.36216 11.4925 3.0379 12.5334 3.0379C12.6429 3.0379 14.0651 3.0379 14.0651 3.0379C14.0651 3.89042 14.0651 5.46769 14.0651 6.12432Z" id="el_S_lzIbT9NR"/></g>
<path d="M25.5499 23.1039C25.5499 24.8048 25.0555 26.1016 24.0666 26.9943C23.0777 27.887 21.6722 28.3334 19.85 28.3334C18.0277 28.3334 16.6166 27.887 15.6167 26.9943C14.6278 26.1016 14.1333 24.8048 14.1333 23.1039V15.6667H17.8166V23.0496C17.8166 23.7493 17.9889 24.3102 18.3333 24.7324C18.6777 25.1426 19.1777 25.3477 19.8333 25.3477C20.4888 25.3477 20.9888 25.1366 21.3333 24.7143C21.6888 24.2921 21.8666 23.7372 21.8666 23.0496V15.6667H25.5499V23.1039Z" id="el_MNJ3uRJn8eq"/>
<path d="M28.1834 28.1162V15.6667H31.8667V28.1162H28.1834Z" id="el_9N6H4lI7hMn"/>
</svg>