<svg width="30" height="30" viewBox="0 0 30 30" fill="none" xmlns="http://www.w3.org/2000/svg">
<path d="M15 30C10.9935 30 7.227 28.44 4.3935 25.6065C1.56 22.773 0 19.0065 0 15C0 10.9935 1.56 7.227 4.3935 4.3935C7.227 1.56 10.9935 0 15 0C19.0065 0 22.773 1.56 25.6065 4.3935C28.44 7.227 30 10.9935 30 15C30 19.0065 28.44 22.773 25.6065 25.6065C22.773 28.44 19.0065 30 15 30ZM15 1.5C7.5555 1.5 1.5 7.5555 1.5 15C1.5 22.4445 7.5555 28.5 15 28.5C22.4445 28.5 28.5 22.4445 28.5 15C28.5 7.5555 22.4445 1.5 15 1.5Z" fill="#343434"/>
<path d="M23.25 24.25H6.75C5.5095 24.25 4.5 23.2405 4.5 22C4.5 21.928 4.5165 20.215 5.886 18.5275C6.6735 17.5585 7.7475 16.7905 9.078 16.2445C10.6845 15.5845 12.678 15.2515 15 15.2515C17.322 15.2515 19.314 15.586 20.922 16.2445C22.2525 16.7905 23.3265 17.5585 24.114 18.5275C25.485 20.215 25.5 21.928 25.5 22C25.5 23.2405 24.4905 24.25 23.25 24.25ZM6 22.0045C6.0015 22.417 6.3375 22.75 6.75 22.75H23.25C23.6625 22.75 23.9985 22.4155 24 22.0045C23.9985 21.952 23.952 20.662 22.8915 19.4035C21.4305 17.668 18.702 16.7515 15 16.7515C11.298 16.7515 8.5695 17.6695 7.1085 19.4035C6.048 20.6635 6.0015 21.952 6 22.0045Z" fill="#343434"/>
<path d="M15 14.5206C11.691 14.5206 8.99997 11.8296 8.99997 8.52063C8.99997 5.21163 11.691 2.52063 15 2.52063C18.309 2.52063 21 5.21163 21 8.52063C21 11.8296 18.309 14.5206 15 14.5206ZM15 4.02063C12.519 4.02063 10.5 6.03963 10.5 8.52063C10.5 11.0016 12.519 13.0206 15 13.0206C17.481 13.0206 19.5 11.0016 19.5 8.52063C19.5 6.03963 17.481 4.02063 15 4.02063Z" fill="#343434"/>
</svg>
