<svg width="30" height="30" viewBox="0 0 30 30" fill="none" xmlns="http://www.w3.org/2000/svg">
  <path fill-rule="evenodd" d="M0 11.4996C0.000474118 9.70757 0.727028 8.0827 1.89992 6.90573C3.07296 5.72925 4.6921 5.00063 6.47774 5.00045L10.9989 5L15.5223 5.00045C18.51 5.00075 21.0317 7.04044 21.7766 9.80441C21.9221 10.3447 21.9999 10.9127 22 11.4985C22 11.4989 22 11.4993 22 11.4996C22.0003 15.0828 19.0944 17.9984 15.5223 17.9988C15 17.9991 13.5 17.9995 13.5 17.9995C13 17.9995 12.7002 17.5823 12.7 17.1171C12.6998 16.6517 13 16.2338 13.5 16.2338C13.5 16.2338 15 16.234 15.5224 16.2338C18.1244 16.2335 20.2403 14.1105 20.2411 11.4996C20.2411 11.4993 20.2411 11.499 20.2411 11.4987C20.2414 8.88736 18.1257 6.76431 15.5234 6.76457L10.9928 6.76502L6.47663 6.76457C3.87435 6.76431 1.75864 8.88737 1.7589 11.4987C1.75916 14.11 3.50799 16.2343 6.11027 16.2345C6.5954 16.2346 6.98976 16.6303 6.98981 17.1171C6.98986 17.6039 6.59558 17.9996 6.11045 17.9995C4.32449 17.9994 3.07226 17.2697 1.8993 16.0929C0.727634 14.9168 0.00154343 13.2937 4.02687e-06 11.5036M1.8993 16.0929C1.89917 16.0927 1.89903 16.0926 1.89889 16.0925L1.89992 16.0935C1.89972 16.0933 1.89951 16.0931 1.8993 16.0929Z" fill="#343434"/>
  <path fill-rule="evenodd" d="M30 19.4995C29.9995 21.2915 29.273 22.9164 28.1001 24.0934C26.927 25.2698 25.3079 25.9985 23.5223 25.9986L19.0011 25.9991L14.4777 25.9986C11.49 25.9983 8.96834 23.9586 8.2234 21.1947C8.07787 20.6543 8.00015 20.0864 8 19.5006C8 19.5002 8 19.4998 8 19.4995C7.99971 15.9163 10.9056 13.0007 14.4777 13.0003C15 12.9999 16.5 12.9995 16.5 12.9995C17 12.9995 17.2998 13.4168 17.3 13.882C17.3002 14.3474 17 14.7653 16.5 14.7653C16.5 14.7653 15 14.7651 14.4776 14.7653C11.8756 14.7656 9.75966 16.8886 9.7589 19.4995C9.7589 19.4998 9.7589 19.5001 9.7589 19.5004C9.75864 22.1117 11.8743 24.2348 14.4766 24.2345L19.0072 24.2341L23.5234 24.2345C26.1257 24.2348 28.2414 22.1117 28.2411 19.5004C28.2408 16.8891 26.492 14.7648 23.8897 14.7646C23.4046 14.7645 23.0102 14.3688 23.0102 13.882C23.0101 13.3951 23.4044 12.9995 23.8896 12.9995C25.6755 12.9997 26.9277 13.7294 28.1007 14.9062C29.2724 16.0823 29.9985 17.7053 30 19.4955M28.1007 14.9062C28.1008 14.9063 28.101 14.9065 28.1011 14.9066L28.1001 14.9056C28.1003 14.9058 28.1005 14.906 28.1007 14.9062Z" fill="#343434"/>
</svg>
