<svg width="30" height="30" viewBox="0 0 30 30" fill="none" xmlns="http://www.w3.org/2000/svg">
  <path d="M27.75 6.5H2.25C1.0095 6.5 0 5.4905 0 4.25V2.25C0 1.0095 1.0095 0 2.25 0H27.75C28.9905 0 30 1.0095 30 2.25V4.25C30 5.4905 28.9905 6.5 27.75 6.5ZM2.25 1.5C1.836 1.5 1.5 1.836 1.5 2.25V4.25C1.5 4.664 1.836 5 2.25 5H27.75C28.164 5 28.5 4.664 28.5 4.25V2.25C28.5 1.836 28.164 1.5 27.75 1.5H2.25Z" fill="#343434"/>
  <path d="M27.75 14.5H2.25C1.0095 14.5 0 13.4905 0 12.25V7.25C0 6.0095 1.0095 5 2.25 5H27.75C28.9905 5 30 6.0095 30 7.25V12.25C30 13.4905 28.9905 14.5 27.75 14.5ZM2.25 6.5C1.836 6.5 1.5 6.836 1.5 7.25V12.25C1.5 12.664 1.836 13 2.25 13H27.75C28.164 13 28.5 12.664 28.5 12.25V7.25C28.5 6.836 28.164 6.5 27.75 6.5H2.25Z" fill="#343434"/>
  <path d="M27.75 30H2.25C1.0095 30 0 28.9905 0 27.75V25.75C0 24.5095 1.0095 23.5 2.25 23.5H27.75C28.9905 23.5 30 24.5095 30 25.75V27.75C30 28.9905 28.9905 30 27.75 30ZM2.25 25C1.836 25 1.5 25.336 1.5 25.75V27.75C1.5 28.164 1.836 28.5 2.25 28.5H27.75C28.164 28.5 28.5 28.164 28.5 27.75V25.75C28.5 25.336 28.164 25 27.75 25H2.25Z" fill="#343434"/>
  <path d="M27.75 19.5H2.25C1.0095 19.5 0 18.4905 0 17.25V15.25C0 14.0095 1.0095 13 2.25 13H27.75C28.9905 13 30 14.0095 30 15.25V17.25C30 18.4905 28.9905 19.5 27.75 19.5ZM2.25 14.5C1.836 14.5 1.5 14.836 1.5 15.25V17.25C1.5 17.664 1.836 18 2.25 18H27.75C28.164 18 28.5 17.664 28.5 17.25V15.25C28.5 14.836 28.164 14.5 27.75 14.5H2.25Z" fill="#343434"/>
</svg>
