<svg width="30" height="30" viewBox="0 0 30 30" fill="none" xmlns="http://www.w3.org/2000/svg">
  <path fill-rule="evenodd" d="M4.3935 25.6065C7.227 28.44 10.9935 30 15 30C19.0065 30 22.773 28.44 25.6065 25.6065C28.44 22.773 30 19.0065 30 15C30 10.9935 28.44 7.227 25.6065 4.3935C22.773 1.56 19.0065 0 15 0C10.9935 0 7.227 1.56 4.3935 4.3935C1.56 7.227 0 10.9935 0 15C0 19.0065 1.56 22.773 4.3935 25.6065ZM1.5 15C1.5 7.5555 7.5555 1.5 15 1.5C22.4445 1.5 28.5 7.5555 28.5 15C28.5 17.9517 27.548 20.685 25.935 22.9091C25.6716 22.5404 25.5025 22.3007 25.3835 22.132C25.2419 21.9313 25.1712 21.831 25.0967 21.7334C25.0223 21.6359 24.9443 21.5411 24.7882 21.3515L24.7881 21.3514C24.6463 21.1793 24.4402 20.929 24.114 20.5275C23.3265 19.5585 22.2525 18.7905 20.922 18.2445C19.314 17.586 17.322 17.2515 15 17.2515C12.678 17.2515 10.6845 17.5845 9.07801 18.2445C7.74751 18.7905 6.67351 19.5585 5.88601 20.5275C5.56042 20.9287 5.35457 21.179 5.21292 21.3512C5.05667 21.5413 4.97854 21.6363 4.90399 21.734C4.82945 21.8317 4.75848 21.9322 4.61655 22.1331L4.61652 22.1331C4.49738 22.3018 4.32825 22.5412 4.06504 22.9091C2.45197 20.685 1.5 17.9517 1.5 15ZM5.00392 24.0648C5.07436 23.9704 6.08562 22.6188 7.10851 21.4035C8.56951 19.6695 11.298 18.7515 15 18.7515C18.702 18.7515 21.4305 19.668 22.8915 21.4035C23.9144 22.6173 24.9256 23.9702 24.9961 24.0647C22.5246 26.7877 18.9587 28.5 15 28.5C11.0413 28.5 7.47539 26.7877 5.00392 24.0648ZM9 10.5206C9 13.8296 11.691 16.5206 15 16.5206C18.309 16.5206 21 13.8296 21 10.5206C21 7.21164 18.309 4.52064 15 4.52064C11.691 4.52064 9 7.21164 9 10.5206ZM10.5 10.5206C10.5 8.03964 12.519 6.02064 15 6.02064C17.481 6.02064 19.5 8.03964 19.5 10.5206C19.5 13.0016 17.481 15.0206 15 15.0206C12.519 15.0206 10.5 13.0016 10.5 10.5206Z" fill="#343434"/>
</svg>
