<svg width="30" height="30" viewBox="0 0 30 30" fill="none" xmlns="http://www.w3.org/2000/svg">
<path d="M0.75 30C0.336 30 0 29.664 0 29.25V0.75C0 0.336 0.336 0 0.75 0C1.164 0 1.5 0.336 1.5 0.75V29.25C1.5 29.664 1.164 30 0.75 30Z" fill="#343434"/>
<path d="M29.25 30C28.836 30 28.5 29.664 28.5 29.25V0.75C28.5 0.336 28.836 0 29.25 0C29.664 0 30 0.336 30 0.75V29.25C30 29.664 29.664 30 29.25 30Z" fill="#343434"/>
<path d="M16.5 29H13.5C12.2595 29 11.25 27.9905 11.25 26.75V20.75C11.25 19.5095 12.2595 18.5 13.5 18.5H16.5C17.7405 18.5 18.75 19.5095 18.75 20.75V26.75C18.75 27.9905 17.7405 29 16.5 29ZM13.5 20C13.086 20 12.75 20.336 12.75 20.75V26.75C12.75 27.164 13.086 27.5 13.5 27.5H16.5C16.914 27.5 17.25 27.164 17.25 26.75V20.75C17.25 20.336 16.914 20 16.5 20H13.5Z" fill="#343434"/>
</svg>
