<svg width="30" height="30" viewBox="0 0 30 30" fill="none" xmlns="http://www.w3.org/2000/svg">
  <path d="M19.5 25.5H10.5C7.695 25.5 5.058 24.408 3.075 22.425C1.092 20.442 0 17.805 0 15C0 12.195 1.092 9.558 3.075 7.575C5.058 5.592 7.695 4.5 10.5 4.5H19.5C22.305 4.5 24.942 5.592 26.925 7.575C28.908 9.558 30 12.195 30 15C30 17.805 28.908 20.442 26.925 22.425C24.942 24.408 22.305 25.5 19.5 25.5ZM10.5 6C5.538 6 1.5 10.038 1.5 15C1.5 19.962 5.538 24 10.5 24H19.5C24.462 24 28.5 19.962 28.5 15C28.5 10.038 24.462 6 19.5 6H10.5Z" fill="#343434"/>
  <path d="M18.75 11.25V18.75C18.75 19.164 18.414 19.5 18 19.5C17.586 19.5 17.25 19.164 17.25 18.75V11.25C17.25 10.836 17.586 10.5 18 10.5C18.414 10.5 18.75 10.836 18.75 11.25Z" fill="#343434"/>
  <path d="M18.5011 15.0014C18.5011 14.8195 18.5746 14.6375 18.7201 14.4983L21.7201 10.7079C22.0126 10.4307 22.4881 10.4307 22.7806 10.7079C23.0731 10.985 23.0731 11.4356 22.7806 11.7128L20.3116 15L22.7806 18.2872C23.0731 18.5644 23.0731 19.015 22.7806 19.2921C22.4881 19.5693 22.0126 19.5693 21.7201 19.2921L18.7201 15.5018C18.5731 15.3625 18.5011 15.1805 18.5011 14.9986V15.0014Z" fill="#343434"/>
  <path d="M16 15C16 12.519 13.981 10.5 11.5 10.5C9.019 10.5 7 12.519 7 15C7 17.481 9.019 19.5 11.5 19.5C13.981 19.5 16 17.481 16 15ZM8.4985 15C8.4985 13.3455 9.844 12 11.4985 12C13.153 12 14.4985 13.3455 14.4985 15C14.4985 16.6545 13.153 18 11.4985 18C9.844 18 8.4985 16.6545 8.4985 15Z" fill="#343434"/>
</svg>
