<svg width="30" height="30" viewBox="0 0 30 30" fill="none" xmlns="http://www.w3.org/2000/svg">
<path d="M9.75 16H0.75C0.336 16 0 15.664 0 15.25C0 14.836 0.336 14.5 0.75 14.5H9.75C10.164 14.5 10.5 14.836 10.5 15.25C10.5 15.664 10.164 16 9.75 16Z" fill="#343434"/>
<path d="M29.25 16H20.25C19.836 16 19.5 15.664 19.5 15.25C19.5 14.836 19.836 14.5 20.25 14.5H29.25C29.664 14.5 30 14.836 30 15.25C30 15.664 29.664 16 29.25 16Z" fill="#343434"/>
<path d="M12.7504 20.4974C12.5584 20.4974 12.3664 20.4239 12.2194 20.2784C11.9269 19.9859 11.9269 19.5104 12.2194 19.2179L16.1884 15.2489L12.2194 11.2799C11.9269 10.9874 11.9269 10.5119 12.2194 10.2194C12.5119 9.92687 12.9874 9.92687 13.2799 10.2194L17.7799 14.7194C18.0724 15.0119 18.0724 15.4874 17.7799 15.7799L13.2799 20.2799C13.1329 20.4269 12.9409 20.4989 12.7489 20.4989L12.7504 20.4974Z" fill="#343434"/>
</svg>
