<svg width="30" height="30" viewBox="0 0 30 30" fill="none" xmlns="http://www.w3.org/2000/svg">
<path d="M19.5 25.5H10.5C7.695 25.5 5.058 24.408 3.075 22.425C1.092 20.442 0 17.805 0 15C0 12.195 1.092 9.558 3.075 7.575C5.058 5.592 7.695 4.5 10.5 4.5H19.5C22.305 4.5 24.942 5.592 26.925 7.575C28.908 9.558 30 12.195 30 15C30 17.805 28.908 20.442 26.925 22.425C24.942 24.408 22.305 25.5 19.5 25.5ZM10.5 6C5.538 6 1.5 10.038 1.5 15C1.5 19.962 5.538 24 10.5 24H19.5C24.462 24 28.5 19.962 28.5 15C28.5 10.038 24.462 6 19.5 6H10.5Z" fill="#343434"/>
<path d="M17.75 14H15.5V11.75C15.5 11.336 15.164 11 14.75 11C14.336 11 14 11.336 14 11.75V14H11.75C11.336 14 11 14.336 11 14.75C11 15.164 11.336 15.5 11.75 15.5H14V17.75C14 18.164 14.336 18.5 14.75 18.5C15.164 18.5 15.5 18.164 15.5 17.75V15.5H17.75C18.164 15.5 18.5 15.164 18.5 14.75C18.5 14.336 18.164 14 17.75 14Z" fill="#343434"/>
</svg>
