<svg width="30" height="30" viewBox="0 0 30 30" fill="none" xmlns="http://www.w3.org/2000/svg">
  <path d="M21.8881 10.0813C20.1546 10.9325 19.0674 12.5525 18.8392 14.3115L11.1618 14.3161C11.085 13.7147 10.9055 13.1177 10.6132 12.5453C10.3209 11.9729 9.94095 11.4743 9.49589 11.0538L8.374 10.2312C6.80227 9.35615 4.82757 9.24123 3.09403 10.0925C0.330892 11.4494 -0.790937 14.7563 0.59274 17.4659C1.97642 20.1755 5.34876 21.2756 8.1119 19.9187C9.84543 19.0675 10.9326 17.4475 11.1608 15.6885L18.8382 15.6839C18.915 16.2853 19.0945 16.8823 19.3868 17.4547C20.7705 20.1643 24.1428 21.2644 26.906 19.9075C29.6691 18.5506 30.7909 15.2437 29.4073 12.5341C28.0236 9.82448 24.6512 8.72439 21.8881 10.0813ZM7.48466 18.6905C5.41294 19.7078 2.88274 18.8824 1.8453 16.8509C0.807852 14.8193 1.64954 12.3381 3.72126 11.3208C5.79299 10.3034 8.32319 11.1288 9.36063 13.1604C10.3981 15.192 9.55639 17.6731 7.48466 18.6905ZM26.2787 18.6792C24.207 19.6966 21.6768 18.8712 20.6394 16.8396C19.6019 14.808 20.4436 12.3269 22.5153 11.3095C24.5871 10.2922 27.1173 11.1176 28.1547 13.1491C29.1921 15.1807 28.3505 17.6619 26.2787 18.6792Z" fill="#343434"/>
</svg>
