<svg width="30" height="30" viewBox="0 0 30 30" fill="none" xmlns="http://www.w3.org/2000/svg">
<path d="M27.6316 30H2.36842C1.06263 30 0 28.9374 0 27.6316V2.36842C0 1.06263 1.06263 0 2.36842 0H27.6316C28.9374 0 30 1.06263 30 2.36842V27.6316C30 28.9374 28.9374 30 27.6316 30ZM2.36842 1.57895C1.93263 1.57895 1.57895 1.93263 1.57895 2.36842V27.6316C1.57895 28.0674 1.93263 28.4211 2.36842 28.4211H27.6316C28.0674 28.4211 28.4211 28.0674 28.4211 27.6316V2.36842C28.4211 1.93263 28.0674 1.57895 27.6316 1.57895H2.36842Z" fill="#343434"/>
<path d="M22.5 12H7.5C7.086 12 6.75 11.664 6.75 11.25C6.75 10.836 7.086 10.5 7.5 10.5H22.5C22.914 10.5 23.25 10.836 23.25 11.25C23.25 11.664 22.914 12 22.5 12Z" fill="#343434"/>
<path d="M22.5 21H7.5C7.086 21 6.75 20.664 6.75 20.25C6.75 19.836 7.086 19.5 7.5 19.5H22.5C22.914 19.5 23.25 19.836 23.25 20.25C23.25 20.664 22.914 21 22.5 21Z" fill="#343434"/>
<path d="M22.5 16.5H7.5C7.086 16.5 6.75 16.164 6.75 15.75C6.75 15.336 7.086 15 7.5 15H22.5C22.914 15 23.25 15.336 23.25 15.75C23.25 16.164 22.914 16.5 22.5 16.5Z" fill="#343434"/>
</svg>
