<svg width="30" height="30" viewBox="0 0 30 30" fill="none" xmlns="http://www.w3.org/2000/svg">
  <path fill-rule="evenodd" d="M20.262 5.85663C21.4608 5.29251 22.7693 5 24.0942 5H28.5C29.3284 5 30 5.67157 30 6.5V23C30 23.8284 29.3284 24.5 28.5 24.5H1.5C0.671573 24.5 0 23.8284 0 23V10.5C0 9.67157 0.671573 9 1.5 9H11.5705C12.8954 9 14.2039 8.7075 15.4027 8.14337L20.262 5.85663ZM24.4295 6.5C23.1046 6.5 21.7961 6.79251 20.5973 7.35663L14.5742 10.191C14.2237 10.356 14 10.7085 14 11.0959V15C14 15.5523 14.4477 16 15 16H27.5C28.0523 16 28.5 15.5523 28.5 15V7.5C28.5 6.94772 28.0523 6.5 27.5 6.5H24.4295ZM28.5 18.5C28.5 17.9477 28.0523 17.5 27.5 17.5H15C14.4477 17.5 14 17.9477 14 18.5V22C14 22.5523 14.4477 23 15 23H27.5C28.0523 23 28.5 22.5523 28.5 22V18.5ZM11.5 23C12.0523 23 12.5 22.5523 12.5 22V18.5C12.5 17.9477 12.0523 17.5 11.5 17.5H2.5C1.94772 17.5 1.5 17.9477 1.5 18.5V22C1.5 22.5523 1.94772 23 2.5 23H11.5ZM1.5 15C1.5 15.5523 1.94772 16 2.5 16H11.5C12.0523 16 12.5 15.5523 12.5 15V11.5C12.5 10.9477 12.0523 10.5 11.5 10.5H2.5C1.94772 10.5 1.5 10.9477 1.5 11.5V15Z" fill="#343434"/>
</svg>
