<svg width="30" height="30" viewBox="0 0 30 30" fill="none" xmlns="http://www.w3.org/2000/svg">
<path d="M9.75 10.5H0.75C0.336 10.5 0 10.164 0 9.75C0 9.336 0.336 9 0.75 9H9.75C10.164 9 10.5 9.336 10.5 9.75C10.5 10.164 10.164 10.5 9.75 10.5Z" fill="#343434"/>
<path d="M9.75 21H0.75C0.336 21 0 20.664 0 20.25C0 19.836 0.336 19.5 0.75 19.5H9.75C10.164 19.5 10.5 19.836 10.5 20.25C10.5 20.664 10.164 21 9.75 21Z" fill="#343434"/>
<path d="M30 3.25V11.75C30 12.9905 28.9905 13.75 27.75 13.75L14.25 13.75C13 13.75 12 12.851 12 11.75V7.75C12 6.649 12.771 5.401 13.7565 4.909L20.073 1.75C20.9145 1.33 22.3095 1 23.25 1H27.75C28.9905 1 30 2.0095 30 3.25ZM13.5 11.75C13.5 12.16 13.84 12.25 14.25 12.25H27.75C28.164 12.25 28.5 12.164 28.5 11.75V3.25C28.5 2.836 28.164 2.5 27.75 2.5H23.25C22.545 2.5 21.3735 2.776 20.7435 3.091L14.427 6.25C13.9425 6.493 13.5 7.207 13.5 7.75V11.75Z" fill="#343434"/>
<path d="M12 23.25V17.25C12 16.0095 13.0095 15 14.25 15H27.75C28.9905 15 30 16.0095 30 17.25V23.25C30 24.4905 28.9905 25.5 27.75 25.5H14.25C13.0095 25.5 12 24.4905 12 23.25ZM14.25 16.5C13.836 16.5 13.5 16.836 13.5 17.25V23.25C13.5 23.664 13.836 24 14.25 24H27.75C28.164 24 28.5 23.664 28.5 23.25V17.25C28.5 16.836 28.164 16.5 27.75 16.5H14.25Z" fill="#343434"/>
</svg>
