<svg width="30" height="30" viewBox="0 0 30 30" fill="none" xmlns="http://www.w3.org/2000/svg">
<path d="M7.51254 27.9903C7.15417 27.7835 6.86053 27.2199 7.07006 26.8567L21.3099 2.19261C21.5194 1.82937 22.1542 1.80278 22.5125 2.0095C22.8709 2.21621 23.1732 2.78486 22.9637 3.1481L8.72389 27.8121C8.51279 28.1775 7.87144 28.194 7.51254 27.9903Z" fill="#343434"/>
<path d="M12.1265 5.59101L8.591 9.12654C8.29826 9.41928 7.82308 9.41928 7.53034 9.12654C7.2376 8.8338 7.2376 8.35862 7.53034 8.06588L11.0659 4.53035C11.3586 4.23761 11.8338 4.23761 12.1265 4.53035C12.4193 4.82309 12.4193 5.29827 12.1265 5.59101Z" fill="#343434"/>
<path d="M7.06588 9.12654L3.53035 5.59101C3.23761 5.29827 3.23761 4.82309 3.53035 4.53035C3.82309 4.23761 4.29827 4.23761 4.59101 4.53035L8.12654 8.06588C8.41928 8.35863 8.41928 8.8338 8.12654 9.12654C7.8338 9.41929 7.35862 9.41929 7.06588 9.12654Z" fill="#343434"/>
<path d="M7.75001 8.00002C7.33601 8.00002 7.00001 8.33602 7.00001 8.75002V14.25C7.00001 14.664 7.33601 15 7.75001 15C8.16401 15 8.50001 14.664 8.50001 14.25V8.75002C8.50001 8.33602 8.16401 8.00002 7.75001 8.00002Z" fill="#343434"/>
<path d="M20.5 16.75V25.75C20.5 26.164 20.164 26.5 19.75 26.5C19.336 26.5 19 26.164 19 25.75V16.75C19 16.336 19.336 16 19.75 16C20.164 16 20.5 16.336 20.5 16.75Z" fill="#343434"/>
<path d="M28 16.75V25.75C28 26.164 27.664 26.5 27.25 26.5C26.836 26.5 26.5 26.164 26.5 25.75V16.75C26.5 16.336 26.836 16 27.25 16C27.664 16 28 16.336 28 16.75Z" fill="#343434"/>
<path d="M20.626 16.4409L27.6319 25.2322C27.9542 25.6366 27.9529 26.1743 27.6292 26.4323C27.3054 26.6903 26.7811 26.5715 26.4588 26.1671L19.453 17.3758C19.1307 16.9714 19.1319 16.4338 19.4557 16.1757C19.7794 15.9177 20.3038 16.0365 20.626 16.4409Z" fill="#343434"/>
</svg>
