<svg width="30" height="30" viewBox="0 0 30 30" fill="none" xmlns="http://www.w3.org/2000/svg">
  <path d="M26.6667 7.11H25.8889V5.84211C25.8889 4.57984 24.842 3.55263 23.5556 3.55263H22.7778V2.29C22.7778 1.02774 21.7309 0 20.4444 0H3.33333C2.04689 0 1 1.02774 1 2.29V20.61C1 21.8723 2.04689 22.89 3.33333 22.89H4.11111V24.1579C4.11111 25.4202 5.158 26.4474 6.44444 26.4474H7.22222V27.71C7.22222 28.9723 8.26911 30 9.55556 30H26.6667C27.9531 30 29 28.9723 29 27.71V9.39C29 8.12774 27.9531 7.11 26.6667 7.11ZM2.55556 20.61V2.29C2.55556 1.86874 2.904 1.53 3.33333 1.53H20.4444C20.8738 1.53 21.2222 1.86874 21.2222 2.29V20.61C21.2222 21.0313 20.8738 21.37 20.4444 21.37H3.33333C2.904 21.37 2.55556 21.0313 2.55556 20.61ZM5.66667 24.1579V22.89H20.4444C21.7309 22.89 22.7778 21.8723 22.7778 20.61V5.07895H23.5556C23.9849 5.07895 24.3333 5.42084 24.3333 5.84211V24.1579C24.3333 24.5792 23.9849 24.9211 23.5556 24.9211H6.44444C6.01511 24.9211 5.66667 24.5792 5.66667 24.1579ZM27.4444 27.71C27.4444 28.1313 27.096 28.47 26.6667 28.47H9.55556C9.12622 28.47 8.77778 28.1313 8.77778 27.71V26.4474H23.5556C24.842 26.4474 25.8889 25.4202 25.8889 24.1579V8.63H26.6667C27.096 8.63 27.4444 8.96874 27.4444 9.39V27.71Z" fill="#343434"/>
</svg>
