<svg width="31" height="30" viewBox="0 0 31 30" fill="none" xmlns="http://www.w3.org/2000/svg">
  <path fill-rule="evenodd" clip-rule="evenodd" d="M31 17.464V6.07983C31 4.83933 29.9905 3.82983 28.75 3.82983H24.25C23.3095 3.82983 21.9145 4.15983 21.073 4.57983L14.7565 7.73883C14.2028 7.73883 13.8237 7.76268 13.564 7.82983H12.25H3.25001C2.00951 7.82983 1.00001 8.83933 1.00001 10.0798V14.3298C1.00001 14.6514 0.995207 14.9271 0.991087 15.1634C0.983661 15.5893 0.978464 15.8873 1.00764 16.0959C1 16.4004 1 16.7901 1 17.2883V21.5383C1 22.7788 2.0095 23.7883 3.25 23.7883H12.25C12.3004 23.7883 12.3503 23.7866 12.3999 23.7833C12.4552 23.7866 12.5163 23.7883 12.5835 23.7883H28C29.654 23.7883 31 22.7788 31 21.5383V17.4691C31 17.4675 31 17.4658 31 17.464ZM15.6711 16.5798L28.3289 16.5798C28.7195 16.6819 29 16.9607 29 17.2883V21.5383C29 21.9523 28.552 22.2883 28 22.2883H16C15.448 22.2883 15 21.9523 15 21.5383V17.2883C15 16.9607 15.2805 16.6819 15.6711 16.5798ZM28.5755 15.0798H28.75C29.164 15.0798 29.5 14.9938 29.5 14.5798V6.07983C29.5 5.66583 29.164 5.32983 28.75 5.32983H24.25C23.545 5.32983 22.3735 5.60583 21.7435 5.92083L15.427 9.07983C14.9425 9.32283 14.5 10.0368 14.5 10.5798V14.3298V14.5798C14.5 14.9898 14.84 15.0798 15.25 15.0798H15.4245C15.6108 15.0526 15.8032 15.0383 16 15.0383H28C28.1968 15.0383 28.3892 15.0526 28.5755 15.0798ZM2.50001 14.3298C2.50001 14.6574 2.71038 14.9362 3.0033 15.0383H12.25C12.3226 15.0383 12.3944 15.0417 12.4652 15.0485C12.7741 14.956 12.9995 14.6698 13 14.3311L13 14.3298V10.0798L13 10.0782C12.9991 9.66495 12.6635 9.32983 12.25 9.32983H3.25001C2.83601 9.32983 2.50001 9.66583 2.50001 10.0798V14.3298ZM2.5 17.2883C2.5 16.9607 2.71037 16.6819 3.00328 16.5798H12.25C12.3226 16.5798 12.3944 16.5764 12.4652 16.5696C12.7744 16.6622 13 16.949 13 17.2883V21.5383C13 21.9523 12.664 22.2883 12.25 22.2883H3.25C2.836 22.2883 2.5 21.9523 2.5 21.5383V17.2883Z" fill="#343434"/>
</svg>
