<svg width="30" height="30" viewBox="0 0 30 30" fill="none" xmlns="http://www.w3.org/2000/svg">
<path d="M27.75 3H24V2.25C24 1.836 23.664 1.5 23.25 1.5C22.836 1.5 22.5 1.836 22.5 2.25V3H7.5V2.25C7.5 1.836 7.164 1.5 6.75 1.5C6.336 1.5 6 1.836 6 2.25V3H2.25C1.0095 3 0 4.0095 0 5.25V26.25C0 27.4905 1.0095 28.5 2.25 28.5H27.75C28.9905 28.5 30 27.4905 30 26.25V5.25C30 4.0095 28.9905 3 27.75 3ZM2.25 4.5H6V6.75C6 7.164 6.336 7.5 6.75 7.5C7.164 7.5 7.5 7.164 7.5 6.75V4.5H22.5V6.75C22.5 7.164 22.836 7.5 23.25 7.5C23.664 7.5 24 7.164 24 6.75V4.5H27.75C28.164 4.5 28.5 4.836 28.5 5.25V9H1.5V5.25C1.5 4.836 1.836 4.5 2.25 4.5ZM27.75 27H2.25C1.836 27 1.5 26.664 1.5 26.25V10.5H28.5V26.25C28.5 26.664 28.164 27 27.75 27Z" fill="#343434"/>
<path d="M14.25 24H9.75C9.336 24 9 23.664 9 23.25C9 22.836 9.336 22.5 9.75 22.5H13.5V19.5H11.25C10.836 19.5 10.5 19.164 10.5 18.75C10.5 18.336 10.836 18 11.25 18H13.5V15H9.75C9.336 15 9 14.664 9 14.25C9 13.836 9.336 13.5 9.75 13.5H14.25C14.664 13.5 15 13.836 15 14.25V23.25C15 23.664 14.664 24 14.25 24Z" fill="#343434"/>
<path d="M20.25 24C19.836 24 19.5 23.664 19.5 23.25V14.25C19.5 13.836 19.836 13.5 20.25 13.5C20.664 13.5 21 13.836 21 14.25V23.25C21 23.664 20.664 24 20.25 24Z" fill="#343434"/>
</svg>
