<svg width="30" height="30" viewBox="0 0 30 30" fill="none" xmlns="http://www.w3.org/2000/svg">
<path d="M27.6316 30H2.36842C1.06263 30 0 28.9374 0 27.6316V2.36842C0 1.06263 1.06263 0 2.36842 0H27.6316C28.9374 0 30 1.06263 30 2.36842V27.6316C30 28.9374 28.9374 30 27.6316 30ZM2.36842 1.57895C1.93263 1.57895 1.57895 1.93263 1.57895 2.36842V27.6316C1.57895 28.0674 1.93263 28.4211 2.36842 28.4211H27.6316C28.0674 28.4211 28.4211 28.0674 28.4211 27.6316V2.36842C28.4211 1.93263 28.0674 1.57895 27.6316 1.57895H2.36842Z" fill="#343434"/>
<path d="M12.2504 20.9989C12.0584 20.9989 11.8664 20.9254 11.7194 20.7799L7.21937 16.2799C6.92688 15.9874 6.92688 15.5119 7.21937 15.2194C7.51187 14.9269 7.98738 14.9269 8.27988 15.2194L12.2489 19.1884L22.2179 9.21937C22.5104 8.92688 22.9859 8.92688 23.2784 9.21937C23.5709 9.51187 23.5709 9.98738 23.2784 10.2799L12.7784 20.7799C12.6314 20.9269 12.4394 20.9989 12.2474 20.9989H12.2504Z" fill="#343434"/>
</svg>
