<svg width="31" height="31" viewBox="0 0 31 31" fill="none" xmlns="http://www.w3.org/2000/svg">
<path d="M27.9339 22.6082C25.1445 27.3541 19.991 30.1869 14.4835 30.0016C14.0689 29.9876 13.7455 29.6409 13.7595 29.2264C13.7735 28.8118 14.1202 28.4884 14.5347 28.5024C19.4908 28.6697 24.1302 26.1194 26.6407 21.8481C30.4129 15.4301 28.2608 7.14113 21.8428 3.36893C15.4247 -0.403281 7.13581 1.74888 3.3636 8.1669C0.843221 12.4551 0.881252 17.7633 3.46356 22.0196C3.65708 22.3387 3.58597 22.7527 3.2969 22.99C3.00783 23.2272 2.58786 23.2135 2.3139 22.9603C1.42915 21.8191 0.654131 19.3871 0.654131 19.3871C-0.556915 15.4234 -0.0874016 11.0782 2.07119 7.40554C4.10132 3.95147 7.35475 1.49478 11.2333 0.48774C15.1119 -0.519302 19.1495 0.0443237 22.6036 2.07446C26.0577 4.1046 28.5143 7.35802 29.5214 11.2366C30.5284 15.1152 29.9648 19.1528 27.9347 22.6069L27.9339 22.6082Z" fill="#343434"/>
<path d="M10.6354 22.8596C10.363 22.7024 10.0962 22.5287 9.84466 22.3423C9.46676 22.0652 9.32639 21.6131 9.60428 21.2338C9.88217 20.8544 10.3557 20.8551 10.7327 21.1336C10.9355 21.2821 11.1688 21.437 11.3882 21.5637C14.6359 23.4388 19.0731 22.2451 20.948 18.9977C22.8229 15.7502 21.6332 11.3113 18.3854 9.43625C15.1376 7.56115 10.6986 8.75028 8.8237 11.9977C8.69707 12.2171 8.57233 12.4551 8.47095 12.6851C8.28224 13.1139 7.8427 13.3409 7.41381 13.1522C6.98492 12.9634 6.90837 12.5191 7.09708 12.0902C7.22317 11.8038 7.36738 11.52 7.52461 11.2477C9.86783 7.18912 15.0764 5.79376 19.1354 8.13721C23.1944 10.4807 24.5903 15.6891 22.247 19.7477C19.9038 23.8063 14.6952 25.2016 10.6363 22.8582L10.6354 22.8596Z" fill="#343434"/>
</svg>
