<svg width="30" height="30" viewBox="0 0 30 30" fill="none" xmlns="http://www.w3.org/2000/svg">
<path d="M15.75 0H9.75C9.336 0 9 0.336 9 0.75V9.129C8.127 9.438 7.5 10.272 7.5 11.25C7.5 12.4905 8.5095 13.5 9.75 13.5C10.9905 13.5 12 12.4905 12 11.25C12 10.272 11.373 9.438 10.5 9.129V4.5H15.75C16.164 4.5 16.5 4.164 16.5 3.75V0.75C16.5 0.336 16.164 0 15.75 0V0ZM9.75 12C9.336 12 9 11.664 9 11.25C9 10.836 9.336 10.5 9.75 10.5C10.164 10.5 10.5 10.836 10.5 11.25C10.5 11.664 10.164 12 9.75 12ZM15 3H10.5V1.5H15V3Z" fill="#343434"/>
<path d="M28.632 10.4175C28.101 9.04351 27.405 7.97551 26.562 7.24051C25.62 6.41851 24.492 6.00151 23.211 6.00151H12.75C12.336 6.00151 12 6.33751 12 6.75151C12 7.16551 12.336 7.50151 12.75 7.50151H23.211C27.396 7.50151 28.4145 13.8555 28.494 19.5015H4.4985V7.50151H6.7485C7.1625 7.50151 7.4985 7.16551 7.4985 6.75151C7.4985 6.33751 7.1625 6.00151 6.7485 6.00151H4.4985V5.25151C4.4985 4.83751 4.1625 4.50151 3.7485 4.50151H0.748505C0.334505 4.50151 -0.00149536 4.83751 -0.00149536 5.25151V21.7515C-0.00149536 22.1655 0.334505 22.5015 0.748505 22.5015H3.7485C4.1625 22.5015 4.4985 22.1655 4.4985 21.7515V21.0015H11.9985V29.2515C11.9985 29.6655 12.3345 30.0015 12.7485 30.0015H17.2485C17.6625 30.0015 17.9985 29.6655 17.9985 29.2515V21.0015H29.2485C29.6625 21.0015 29.9985 20.6655 29.9985 20.2515C29.9985 16.074 29.538 12.7665 28.6305 10.419L28.632 10.4175ZM3 21H1.5V6.00001H3V21ZM16.5 28.5H13.5V21H16.5V28.5Z" fill="#343434"/>
</svg>
