<svg width="30" height="30" viewBox="0 0 30 30" fill="none" xmlns="http://www.w3.org/2000/svg">
<path d="M29.25 22.5H24.75C24.336 22.5 24 22.164 24 21.75C24 21.336 24.336 21 24.75 21H29.25C29.664 21 30 21.336 30 21.75C30 22.164 29.664 22.5 29.25 22.5Z" fill="#343434"/>
<path d="M18.75 22.5H8.25C7.836 22.5 7.5 22.164 7.5 21.75V11.25C7.5 10.836 7.836 10.5 8.25 10.5C8.664 10.5 9 10.836 9 11.25V21H18.75C19.164 21 19.5 21.336 19.5 21.75C19.5 22.164 19.164 22.5 18.75 22.5Z" fill="#343434"/>
<path d="M8.25 6C7.836 6 7.5 5.664 7.5 5.25V0.75C7.5 0.336 7.836 0 8.25 0C8.664 0 9 0.336 9 0.75V5.25C9 5.664 8.664 6 8.25 6Z" fill="#343434"/>
<path d="M21.75 30C21.336 30 21 29.664 21 29.25V9H0.75C0.336 9 0 8.664 0 8.25C0 7.836 0.336 7.5 0.75 7.5H21.75C22.164 7.5 22.5 7.836 22.5 8.25V29.25C22.5 29.664 22.164 30 21.75 30Z" fill="#343434"/>
</svg>
