<svg width="30" height="30" viewBox="0 0 30 30" fill="none" xmlns="http://www.w3.org/2000/svg">
  <path d="M27.6316 30H2.36842C1.06263 30 0 28.9374 0 27.6316V2.36842C0 1.06263 1.06263 0 2.36842 0H27.6316C28.9374 0 30 1.06263 30 2.36842V27.6316C30 28.9374 28.9374 30 27.6316 30ZM2.36842 1.57895C1.93263 1.57895 1.57895 1.93263 1.57895 2.36842V27.6316C1.57895 28.0674 1.93263 28.4211 2.36842 28.4211H27.6316C28.0674 28.4211 28.4211 28.0674 28.4211 27.6316V2.36842C28.4211 1.93263 28.0674 1.57895 27.6316 1.57895H2.36842Z" fill="#343434"/>
  <path d="M20.1462 28.4211V12.246C20.1462 11.0208 19.1492 10.0238 17.924 10.0238H1.57896V28.4211H20.1462ZM1.57895 11.5052H17.924C18.3329 11.5052 18.6647 11.8371 18.6647 12.246V28.4211H1.57896L1.57895 11.5052Z" fill="#343434"/>
  <path d="M20.7498 4C20.3359 4 20 4.336 20 4.75C20 5.164 20.3359 5.5 20.7498 5.5H23.4386L20.2204 8.719C19.928 9.0115 19.928 9.487 20.2204 9.7795C20.3674 9.9265 20.5594 9.9985 20.7513 9.9985C20.9433 9.9985 21.1352 9.925 21.2822 9.7795L24.5004 6.5605V9.25C24.5004 9.664 24.8363 10 25.2502 10C25.6641 10 26 9.664 26 9.25V4.75C26 4.336 25.6641 4 25.2502 4H20.7498Z" fill="#343434"/>
</svg>
