<svg width="31" height="31" viewBox="0 0 31 31" fill="none" xmlns="http://www.w3.org/2000/svg">
<path d="M10.0007 30.9985C10.2977 30.9985 10.5796 30.8235 10.6966 30.5368L13.2419 24.2984L17.6861 29.2779C17.8916 29.5088 18.2216 29.5897 18.514 29.4823C18.8065 29.375 19 29.1 19 28.7941V6.73498C19 6.4438 18.8245 6.18056 18.553 6.06291C18.2816 5.94526 17.9651 5.99526 17.7446 6.19085L1.24586 20.8969C1.01638 21.1013 0.938385 21.4234 1.05088 21.7058C1.16337 21.9881 1.44085 22.1764 1.74982 22.1764H8.14083L5.55203 28.5206C5.39754 28.897 5.58503 29.325 5.9705 29.4764L9.72021 30.9471C9.8117 30.9824 9.9062 31 9.99919 31L10.0007 30.9985ZM13.0005 22.1749C12.9585 22.1749 12.9165 22.1778 12.8745 22.1852C12.6165 22.2278 12.402 22.3999 12.3045 22.6367L9.58372 29.3073L7.2259 28.3823L9.94669 21.7116C10.0397 21.4852 10.0112 21.2278 9.8717 21.0263C9.73221 20.8249 9.49973 20.7028 9.25075 20.7028H3.69067L17.5001 8.39382V26.8338L13.5644 22.4234C13.4204 22.2631 13.2149 22.1719 13.0005 22.1719V22.1749Z" fill="#343434"/>
<path d="M7.24664 8.63761L0.558332 2.61544C0.25067 2.33842 0.225801 1.86389 0.502821 1.55623C0.779841 1.24857 1.25437 1.2237 1.56203 1.50072L8.25033 7.52289C8.55799 7.79991 8.58286 8.27444 8.30584 8.5821C8.02882 8.88976 7.5543 8.91463 7.24664 8.63761Z" fill="#343434"/>
<path d="M21.592 6.97425L28.6962 2.79672C29.023 2.60456 29.4585 2.73823 29.6684 3.0951C29.8782 3.45197 29.7833 3.89757 29.4565 4.08974L22.3524 8.26727C22.0256 8.45943 21.59 8.32576 21.3802 7.96889C21.1703 7.61202 21.2652 7.16642 21.592 6.97425Z" fill="#343434"/>
<path d="M13.5492 5.80302L12.5 2.5C12.3918 2.1004 12.6004 1.60824 13 1.5C13.3996 1.39176 13.8917 1.6004 14 2L14.997 5.41084C15.1053 5.81044 14.8688 6.2226 14.4692 6.33084C14.0696 6.43908 13.6575 6.20262 13.5492 5.80302Z" fill="#343434"/>
<path d="M29.25 14H24.25C23.836 14 23.5 13.664 23.5 13.25C23.5 12.836 23.836 12.5 24.25 12.5H29.25C29.664 12.5 30 12.836 30 13.25C30 13.664 29.664 14 29.25 14Z" fill="#343434"/>
</svg>
