<svg width="30" height="30" viewBox="0 0 30 30" fill="none" xmlns="http://www.w3.org/2000/svg">
<path d="M28.9985 6.67771C28.9985 6.67021 28.9971 6.66421 28.9956 6.65671C28.9941 6.64021 28.9912 6.62521 28.9882 6.60871C28.9867 6.60121 28.9853 6.59521 28.9838 6.58771C28.9794 6.56671 28.9749 6.54721 28.9691 6.52771C28.9661 6.52021 28.9646 6.51271 28.9617 6.50671C28.9573 6.49321 28.9528 6.47971 28.9469 6.46771C28.944 6.45871 28.9411 6.4512 28.9366 6.44371C28.9307 6.4302 28.9248 6.4167 28.9175 6.4047C28.9145 6.3987 28.9116 6.3927 28.9086 6.3867C28.8983 6.3687 28.888 6.3507 28.8777 6.3342C28.8747 6.3282 28.8703 6.3237 28.8659 6.3177C28.8571 6.3042 28.8482 6.2922 28.8379 6.2802C28.8335 6.2757 28.8291 6.2697 28.8261 6.2652C28.8143 6.2502 28.8011 6.2367 28.7878 6.2217C28.7863 6.2202 28.7848 6.2187 28.7834 6.2172C28.7686 6.2022 28.7524 6.1872 28.7362 6.1737C28.7318 6.1692 28.7274 6.1662 28.7229 6.1632C28.7112 6.1527 28.6979 6.1437 28.6861 6.1347C28.6802 6.1302 28.6743 6.1257 28.6684 6.1227C28.6552 6.1137 28.6419 6.1047 28.6272 6.0972C28.6227 6.0942 28.6168 6.0912 28.6124 6.0882C28.5962 6.0792 28.58 6.0717 28.5638 6.0642L28.5535 6.0597C28.552 6.0597 28.552 6.0582 28.5505 6.0582L15.3006 0.0641258C15.1105 -0.0213753 14.8924 -0.0213753 14.7023 0.0641258L1.45242 6.0582C1.45095 6.0582 1.45095 6.0597 1.44947 6.0597L1.43916 6.0642C1.42295 6.0717 1.40674 6.0807 1.39053 6.0882C1.38611 6.0912 1.38021 6.0942 1.37579 6.0972C1.36105 6.1047 1.34779 6.1137 1.33453 6.1227C1.32863 6.1272 1.32274 6.1302 1.31684 6.1347C1.30358 6.1437 1.29179 6.1542 1.27853 6.1632C1.27411 6.1662 1.26968 6.1707 1.26526 6.1737C1.24905 6.1872 1.23284 6.2022 1.21811 6.2172C1.21663 6.2187 1.21516 6.2202 1.21368 6.2217C1.20042 6.2352 1.18716 6.2502 1.17537 6.2652C1.17095 6.2697 1.16653 6.2757 1.16358 6.2802C1.15326 6.2922 1.14442 6.3057 1.13558 6.3177C1.13116 6.3237 1.12821 6.3282 1.12379 6.3342C1.112 6.3507 1.10168 6.3687 1.09284 6.3867C1.08989 6.3927 1.08695 6.3987 1.084 6.4047C1.07811 6.4182 1.07074 6.43171 1.06484 6.44521C1.06189 6.45271 1.05747 6.46171 1.05453 6.46921C1.04863 6.48271 1.04421 6.49621 1.03979 6.50971C1.03684 6.51721 1.03537 6.52471 1.03242 6.53071C1.02653 6.55021 1.02211 6.57121 1.01768 6.59071C1.01621 6.59821 1.01474 6.60421 1.01326 6.61171C1.01032 6.62821 1.00737 6.64321 1.00589 6.65971C1.00442 6.66721 1.00442 6.67321 1.00295 6.68071C1.00147 6.70321 1 6.72571 1 6.74821V23.2484C1 23.5454 1.17095 23.8139 1.43768 23.9339L14.7008 29.934C14.7023 29.934 14.7038 29.9355 14.7053 29.9355C14.7244 29.9445 14.7436 29.952 14.7642 29.958C14.7686 29.9595 14.7716 29.961 14.776 29.9625C14.7981 29.97 14.8217 29.976 14.8453 29.982C14.8467 29.982 14.8482 29.982 14.8482 29.9835C14.8968 29.994 14.9484 30 15 30C15.0516 30 15.1032 29.994 15.1518 29.9835C15.1533 29.9835 15.1547 29.9835 15.1547 29.982C15.1783 29.9775 15.2019 29.97 15.224 29.9625C15.2284 29.961 15.2314 29.9595 15.2358 29.958C15.2564 29.9505 15.2756 29.943 15.2947 29.9355C15.2962 29.9355 15.2977 29.934 15.2992 29.934L28.5623 23.9339C28.8291 23.8139 29 23.5454 29 23.2484V6.74821C29 6.72571 28.9985 6.70321 28.9971 6.68071L28.9985 6.67771ZM15.0015 1.56564L26.4505 6.74521L15.0015 11.9248L3.55242 6.74521L15.0015 1.56564ZM2.47516 7.89872L14.2646 13.2328V28.092L2.47516 22.7579V7.89872ZM15.7383 28.092V13.2328L27.5278 7.89872V22.7579L15.7383 28.092Z" fill="#343434"/>
</svg>
