<svg width="30" height="30" viewBox="0 0 30 30" fill="none" xmlns="http://www.w3.org/2000/svg">
<path d="M25.75 22.5H4.5C4.086 22.5 3.75 22.164 3.75 21.75C3.75 21.336 4.086 21 4.5 21H25.75C26.164 21 26.5 21.336 26.5 21.75C26.5 22.164 26.164 22.5 25.75 22.5Z" fill="#343434"/>
<path d="M25.75 18H10.75C10.336 18 10 17.664 10 17.25C10 16.836 10.336 16.5 10.75 16.5H25.75C26.164 16.5 26.5 16.836 26.5 17.25C26.5 17.664 26.164 18 25.75 18Z" fill="#343434"/>
<path d="M25.75 13.5H10.75C10.336 13.5 10 13.164 10 12.75C10 12.336 10.336 12 10.75 12H25.75C26.164 12 26.5 12.336 26.5 12.75C26.5 13.164 26.164 13.5 25.75 13.5Z" fill="#343434"/>
<path fill-rule="evenodd" clip-rule="evenodd" d="M23.5 4.5C22.9477 4.5 22.5 4.94772 22.5 5.5C22.5 6.88071 21.3807 8 20 8H2.75C2.05964 8 1.5 8.55964 1.5 9.25V24.25C1.5 24.9404 2.05964 25.5 2.75 25.5H27.25C27.9404 25.5 28.5 24.9404 28.5 24.25V5.75C28.5 5.05964 27.9404 4.5 27.25 4.5H23.5ZM21 5.5C21 4.11929 22.1193 3 23.5 3H27.25C28.7688 3 30 4.23122 30 5.75V24.25C30 25.7688 28.7688 27 27.25 27H2.75C1.23122 27 0 25.7688 0 24.25V9.25C0 7.73122 1.23122 6.5 2.75 6.5H20C20.5523 6.5 21 6.05228 21 5.5Z" fill="#343434"/>
</svg>
