<svg width="31" height="30" viewBox="0 0 31 30" fill="none" xmlns="http://www.w3.org/2000/svg">
<path d="M29.9409 23.7045L28.0149 19.2105C28.0134 19.209 28.0134 19.206 28.0119 19.2045L25.4409 13.2045C25.3224 12.9285 25.0509 12.75 24.7509 12.75C24.4509 12.75 24.1794 12.9285 24.0609 13.2045L21.4899 19.2045C21.4884 19.206 21.4884 19.209 21.4869 19.2105L19.5609 23.7045C19.3974 24.0855 19.5744 24.5265 19.9554 24.69C20.3364 24.8535 20.7774 24.6765 20.9409 24.2955L22.6749 20.25H26.8284L28.5624 24.2955C28.6839 24.5805 28.9614 24.75 29.2524 24.75C29.3514 24.75 29.4519 24.7305 29.5479 24.6885C29.9289 24.525 30.1044 24.084 29.9424 23.703L29.9409 23.7045ZM23.3169 18.75L24.7509 15.4035L26.1849 18.75H23.3169Z" fill="#343434"/>
<path d="M16.4438 23.712L13.3193 16.212C13.3178 16.2105 13.3178 16.2075 13.3163 16.206L8.94383 5.712C8.82683 5.433 8.55383 5.25 8.25083 5.25C7.94783 5.25 7.67483 5.4315 7.55783 5.712L3.18533 16.206C3.18383 16.2075 3.18383 16.2105 3.18233 16.212L0.0578298 23.712C-0.10117 24.0945 0.0788299 24.534 0.46133 24.693C0.84383 24.852 1.28333 24.672 1.44233 24.2895L4.37483 17.2515H12.1253L15.0578 24.2895C15.1778 24.5775 15.4568 24.7515 15.7508 24.7515C15.8468 24.7515 15.9443 24.7335 16.0388 24.693C16.4213 24.534 16.6013 24.0945 16.4423 23.712H16.4438ZM5.00033 15.75L8.25083 7.95L11.5013 15.75H5.00183H5.00033Z" fill="#343434"/>
</svg>
