<svg width="30" height="30" viewBox="0 0 30 30" fill="none" xmlns="http://www.w3.org/2000/svg">
<path d="M0 21.5C0 21.914 0.336 22.25 0.75 22.25H29.25C29.664 22.25 30 21.914 30 21.5C30 21.086 29.664 20.75 29.25 20.75H0.75C0.336 20.75 0 21.086 0 21.5Z" fill="#343434"/>
<path d="M28.779 16.211L26.25 18.7096L23.721 16.211C23.4418 15.9297 22.9886 15.9297 22.7094 16.211C22.4302 16.4924 22.4302 16.9491 22.7094 17.2305L25.7442 20.289C26.0234 20.5703 26.4766 20.5703 26.7558 20.289L29.7906 17.2305C30.0698 16.9491 30.0698 16.4924 29.7906 16.211C29.5114 15.9297 29.0582 15.9297 28.779 16.211Z" fill="#343434"/>
<path d="M6.279 16.211L3.75 18.7096L1.221 16.211C0.941799 15.9297 0.488603 15.9297 0.209401 16.211C-0.0698004 16.4924 -0.0698004 16.9491 0.209401 17.2305L3.2442 20.289C3.5234 20.5703 3.9766 20.5703 4.2558 20.289L7.2906 17.2305C7.5698 16.9491 7.5698 16.4924 7.2906 16.211C7.0114 15.9297 6.5582 15.9297 6.279 16.211Z" fill="#343434"/>
<path d="M23.25 15.5H18.75C18.336 15.5 18 15.164 18 14.75C18 14.336 18.336 14 18.75 14H22.5V11H20.25C19.836 11 19.5 10.664 19.5 10.25C19.5 9.836 19.836 9.5 20.25 9.5H22.5V6.5H18.75C18.336 6.5 18 6.164 18 5.75C18 5.336 18.336 5 18.75 5H23.25C23.664 5 24 5.336 24 5.75V14.75C24 15.164 23.664 15.5 23.25 15.5Z" fill="#343434"/>
<path d="M29.25 15.5C28.836 15.5 28.5 15.164 28.5 14.75V5.75C28.5 5.336 28.836 5 29.25 5C29.664 5 30 5.336 30 5.75V14.75C30 15.164 29.664 15.5 29.25 15.5Z" fill="#343434"/>
</svg>
