<svg width="30" height="30" viewBox="0 0 30 30" fill="none" xmlns="http://www.w3.org/2000/svg">
  <path d="M0 17.43C0 17.844 0.336 18.18 0.75 18.18H29.25C29.664 18.18 30 17.844 30 17.43C30 17.016 29.664 16.68 29.25 16.68H0.75C0.336 16.68 0 17.016 0 17.43Z" fill="#343434"/>
  <path d="M28.779 12.141L26.25 14.6396L23.721 12.141C23.4418 11.8596 22.9886 11.8596 22.7094 12.141C22.4302 12.4224 22.4302 12.8791 22.7094 13.1605L25.7442 16.219C26.0234 16.5003 26.4766 16.5003 26.7558 16.219L29.7906 13.1605C30.0698 12.8791 30.0698 12.4224 29.7906 12.141C29.5114 11.8596 29.0582 11.8596 28.779 12.141Z" fill="#343434"/>
  <path d="M6.279 12.141L3.75 14.6396L1.221 12.141C0.941799 11.8596 0.488603 11.8596 0.209401 12.141C-0.0698004 12.4224 -0.0698004 12.8791 0.209401 13.1605L3.2442 16.219C3.5234 16.5003 3.9766 16.5003 4.2558 16.219L7.2906 13.1605C7.5698 12.8791 7.5698 12.4224 7.2906 12.141C7.0114 11.8596 6.5582 11.8596 6.279 12.141Z" fill="#343434"/>
  <path d="M14.25 29.5H9.75C9.336 29.5 9 29.164 9 28.75C9 28.336 9.336 28 9.75 28H13.5V25H11.25C10.836 25 10.5 24.664 10.5 24.25C10.5 23.836 10.836 23.5 11.25 23.5H13.5V20.5H9.75C9.336 20.5 9 20.164 9 19.75C9 19.336 9.336 19 9.75 19H14.25C14.664 19 15 19.336 15 19.75V28.75C15 29.164 14.664 29.5 14.25 29.5Z" fill="#343434"/>
  <path d="M20.25 29.5C19.836 29.5 19.5 29.164 19.5 28.75V19.75C19.5 19.336 19.836 19 20.25 19C20.664 19 21 19.336 21 19.75V28.75C21 29.164 20.664 29.5 20.25 29.5Z" fill="#343434"/>
</svg>
