<svg width="30" height="30" viewBox="0 0 30 30" fill="none" xmlns="http://www.w3.org/2000/svg">
  <path d="M0 17.43C0 17.844 0.336 18.18 0.75 18.18H29.25C29.664 18.18 30 17.844 30 17.43C30 17.016 29.664 16.68 29.25 16.68H0.75C0.336 16.68 0 17.016 0 17.43Z" fill="#343434"/>
  <path fill-rule="evenodd" d="M0.0715553 10.6803C0.195333 10.4176 0.459623 10.25 0.750009 10.25H7.83121C8.12159 10.25 8.38588 10.4176 8.50966 10.6803C8.63344 10.943 8.59446 11.2535 8.40959 11.4775L4.86899 15.7664C4.72652 15.939 4.51441 16.039 4.29061 16.039C4.06681 16.039 3.8547 15.939 3.71222 15.7664L0.171624 11.4775C-0.0132402 11.2535 -0.052222 10.943 0.0715553 10.6803ZM2.34168 11.75L4.29061 14.1109L6.23953 11.75H2.34168Z" fill="#343434"/>
  <path fill-rule="evenodd" d="M29.9284 10.4169C29.8047 10.1542 29.5404 9.98657 29.25 9.98657H22.1688C21.8784 9.98657 21.6141 10.1542 21.4903 10.4169C21.3666 10.6796 21.4055 10.9901 21.5904 11.214L25.131 15.503C25.2735 15.6756 25.4856 15.7755 25.7094 15.7755C25.9332 15.7755 26.1453 15.6756 26.2878 15.503L29.8284 11.214C30.0132 10.9901 30.0522 10.6796 29.9284 10.4169ZM27.6583 11.4866L25.7094 13.8474L23.7605 11.4866H27.6583Z" fill="#343434"/>
  <path d="M14.25 29.5H9.75C9.336 29.5 9 29.164 9 28.75C9 28.336 9.336 28 9.75 28H13.5V25H11.25C10.836 25 10.5 24.664 10.5 24.25C10.5 23.836 10.836 23.5 11.25 23.5H13.5V20.5H9.75C9.336 20.5 9 20.164 9 19.75C9 19.336 9.336 19 9.75 19H14.25C14.664 19 15 19.336 15 19.75V28.75C15 29.164 14.664 29.5 14.25 29.5Z" fill="#343434"/>
  <path d="M20.25 29.5C19.836 29.5 19.5 29.164 19.5 28.75V19.75C19.5 19.336 19.836 19 20.25 19C20.664 19 21 19.336 21 19.75V28.75C21 29.164 20.664 29.5 20.25 29.5Z" fill="#343434"/>
</svg>
