<svg width="30" height="30" viewBox="0 0 30 30" fill="none" xmlns="http://www.w3.org/2000/svg">
<path d="M14.75 11C16.817 11 18.5 12.683 18.5 14.75C18.5 16.817 16.817 18.5 14.75 18.5C12.683 18.5 11 16.817 11 14.75C11 12.683 12.683 11 14.75 11ZM14.75 17C15.9905 17 17 15.9905 17 14.75C17 13.5095 15.9905 12.5 14.75 12.5C13.5095 12.5 12.5 13.5095 12.5 14.75C12.5 15.9905 13.5095 17 14.75 17Z" fill="#343434"/>
<path d="M4 29.25C3.78199 29.25 3.56971 29.2286 3.3649 29.1881L3.21935 29.9239C2.69457 29.82 2.2067 29.6136 1.77754 29.3263L2.19478 28.703C1.84004 28.4655 1.53446 28.16 1.29696 27.8052L0.673738 28.2225C0.386418 27.7933 0.179953 27.3054 0.0761361 26.7806L0.811877 26.6351C0.771361 26.4303 0.75 26.218 0.75 26V25.2143H0V23.6429H0.75V22.0714H0V20.5H0.75V18.9286H0V17.3571H0.75V15.7857H0V14.2143H0.75V12.6429H0V11.0714H0.75V9.5H0V7.92857H0.75V6.35715H0V4.78572H0.75V4C0.75 3.78199 0.771361 3.56971 0.811877 3.3649L0.0761362 3.21935C0.179953 2.69457 0.386419 2.2067 0.673738 1.77754L1.29696 2.19478C1.53446 1.84004 1.84004 1.53446 2.19478 1.29696L1.77754 0.673738C2.2067 0.386418 2.69457 0.179953 3.21935 0.0761361L3.3649 0.811877C3.56971 0.771361 3.78199 0.75 4 0.75H4.78571V0H6.35714V0.75H7.92857V0H9.5V0.75H11.0714V0H12.6429V0.75H14.2143V0H15.7857V0.75H17.3571V0H18.9286V0.75H20.5V0H22.0714V0.75H23.6429V0H25.2143V0.75H26C26.218 0.75 26.4303 0.771361 26.6351 0.811877L26.7806 0.0761364C27.3054 0.179954 27.7933 0.386419 28.2225 0.673738L27.8052 1.29696C28.16 1.53446 28.4655 1.84004 28.703 2.19478L29.3263 1.77754C29.6136 2.2067 29.82 2.69457 29.9239 3.21935L29.1881 3.3649C29.2286 3.56971 29.25 3.78199 29.25 4V4.78571H30V6.35714H29.25V7.92857H30V9.5H29.25V11.0714H30V12.6429H29.25V14.2143H30V15.7857H29.25V17.3571H30V18.9286H29.25V20.5H30V22.0714H29.25V23.6429H30V25.2143H29.25V26C29.25 26.218 29.2286 26.4303 29.1881 26.6351L29.9239 26.7806C29.82 27.3054 29.6136 27.7933 29.3263 28.2225L28.703 27.8052C28.4655 28.16 28.16 28.4655 27.8052 28.703L28.2225 29.3263C27.7933 29.6136 27.3054 29.82 26.7806 29.9239L26.6351 29.1881C26.4303 29.2286 26.218 29.25 26 29.25H25.2143V30H23.6429V29.25H22.0714V30H20.5V29.25H18.9286V30H17.3571V29.25H15.7857V30H14.2143V29.25H12.6429V30H11.0714V29.25H9.5V30H7.92857V29.25H6.35715V30H4.78572V29.25H4Z" stroke="#343434" stroke-width="1.5" stroke-dasharray="1.5 1.5"/>
</svg>
