<svg width="30" height="30" viewBox="0 0 30 30" fill="none" xmlns="http://www.w3.org/2000/svg">
<path d="M24.801 23.6175L18 11.061V3.9015C18.9045 3.5325 19.5 2.988 19.5 2.25C19.5 0.696 16.863 0 14.25 0C11.637 0 9 0.696 9 2.25C9 2.988 9.5955 3.5325 10.5 3.9015V11.061L3.699 23.6175C2.808 25.263 2.7225 26.8485 3.459 28.0845C4.1955 29.3205 5.631 30 7.5015 30H21.0015C22.872 30 24.3075 29.319 25.044 28.0845C25.7805 26.85 25.695 25.263 24.804 23.6175H24.801ZM14.25 1.5C16.323 1.5 17.58 1.9725 17.9325 2.25C17.58 2.5275 16.323 3 14.25 3C12.177 3 10.92 2.5275 10.5675 2.25C10.92 1.9725 12.177 1.5 14.25 1.5ZM14.25 4.5C15.021 4.5 15.7935 4.44 16.5 4.314V11.247C16.5 11.274 16.5015 11.2995 16.5045 11.3265C16.5045 11.331 16.506 11.334 16.506 11.3385C16.509 11.358 16.5105 11.379 16.515 11.3985C16.518 11.4105 16.521 11.4225 16.524 11.4345C16.527 11.4465 16.53 11.457 16.533 11.469C16.536 11.481 16.5465 11.5095 16.5555 11.5305C16.557 11.5335 16.557 11.5365 16.5585 11.5395C16.569 11.5635 16.581 11.5875 16.593 11.6115L21.678 21C20.589 20.9805 19.845 20.5185 18.8685 19.6815C18.2415 19.1445 17.4255 18.4755 16.4985 17.9025C16.446 16.293 15.123 15 13.5015 15C12.3645 15 11.373 15.636 10.8645 16.572C10.2195 16.653 9.588 16.8045 8.979 17.022L11.91 11.61C11.922 11.5875 11.934 11.5635 11.9445 11.5395C11.946 11.535 11.9475 11.532 11.949 11.5275C11.9565 11.508 11.964 11.49 11.97 11.4705C11.973 11.4585 11.976 11.4465 11.979 11.4345C11.982 11.4225 11.985 11.412 11.988 11.4C11.991 11.388 11.9955 11.358 11.997 11.337C11.997 11.334 11.9985 11.331 11.9985 11.3265C12.0015 11.2995 12.003 11.274 12.003 11.247V4.314C12.7095 4.4385 13.482 4.5 14.253 4.5H14.25ZM13.5 16.5C14.3265 16.5 15 17.1735 15 18C15 18.8265 14.3265 19.5 13.5 19.5C12.6735 19.5 12 18.8265 12 18C12 17.1735 12.6735 16.5 13.5 16.5ZM23.754 27.3165C23.2995 28.08 22.3215 28.5 21 28.5H7.5C6.1785 28.5 5.2005 28.08 4.746 27.3165C4.2915 26.553 4.3875 25.4925 5.0175 24.3315L7.7205 19.341C8.5605 18.756 9.507 18.3525 10.5045 18.15C10.5825 19.734 11.8965 21 13.5 21C14.6295 21 15.615 20.373 16.1265 19.449C16.8 19.9035 17.406 20.403 17.892 20.82C19.1025 21.858 20.1705 22.5 21.75 22.5C21.99 22.5 22.2285 22.4835 22.464 22.4505L23.4825 24.3315C24.111 25.4925 24.2085 26.553 23.754 27.3165V27.3165Z" fill="#343434"/>
<path d="M9.75 22.5C8.5095 22.5 7.5 23.5095 7.5 24.75C7.5 25.9905 8.5095 27 9.75 27C10.9905 27 12 25.9905 12 24.75C12 23.5095 10.9905 22.5 9.75 22.5ZM9.75 25.5C9.336 25.5 9 25.164 9 24.75C9 24.336 9.336 24 9.75 24C10.164 24 10.5 24.336 10.5 24.75C10.5 25.164 10.164 25.5 9.75 25.5Z" fill="#343434"/>
<path d="M14.25 22.5C14.052 22.5 13.86 22.5795 13.7205 22.7205C13.581 22.8615 13.5 23.0535 13.5 23.25C13.5 23.4465 13.5795 23.6415 13.7205 23.7795C13.86 23.919 14.0535 24 14.25 24C14.4465 24 14.6415 23.9205 14.7795 23.7795C14.919 23.64 15 23.4465 15 23.25C15 23.0535 14.9205 22.8585 14.7795 22.7205C14.64 22.581 14.4465 22.5 14.25 22.5Z" fill="#343434"/>
</svg>
