<svg width="30" height="30" viewBox="0 0 30 30" fill="none" xmlns="http://www.w3.org/2000/svg">
  <path d="M27.75 26.5H2.25C1.0095 26.5 0 25.4905 0 24.25V4.75C0 3.5095 1.0095 2.5 2.25 2.5H27.75C28.9905 2.5 30 3.5095 30 4.75V24.25C30 25.4905 28.9905 26.5 27.75 26.5ZM2.25 4C1.836 4 1.5 4.336 1.5 4.75V24.25C1.5 24.664 1.836 25 2.25 25H27.75C28.164 25 28.5 24.664 28.5 24.25V4.75C28.5 4.336 28.164 4 27.75 4H2.25Z" fill="#343434"/>
  <path d="M14.25 20H9.75C9.336 20 9 19.664 9 19.25C9 18.836 9.336 18.5 9.75 18.5H13.5V15.5H11.25C10.836 15.5 10.5 15.164 10.5 14.75C10.5 14.336 10.836 14 11.25 14H13.5V11H9.75C9.336 11 9 10.664 9 10.25C9 9.836 9.336 9.5 9.75 9.5H14.25C14.664 9.5 15 9.836 15 10.25V19.25C15 19.664 14.664 20 14.25 20Z" fill="#343434"/>
  <path d="M20.25 20C19.836 20 19.5 19.664 19.5 19.25V10.25C19.5 9.836 19.836 9.5 20.25 9.5C20.664 9.5 21 9.836 21 10.25V19.25C21 19.664 20.664 20 20.25 20Z" fill="#343434"/>
</svg>
