<svg width="30" height="30" viewBox="0 0 30 30" fill="none" xmlns="http://www.w3.org/2000/svg">
<path d="M27.6316 22H2.36842C1.06263 22 0 20.9905 0 19.75V16.75C0 16.336 0.353684 16 0.789474 16C1.22526 16 1.57895 16.336 1.57895 16.75V19.75C1.57895 20.164 1.93263 20.5 2.36842 20.5H27.6316C28.0674 20.5 28.4211 20.164 28.4211 19.75V16.75C28.4211 16.336 28.7747 16 29.2105 16C29.6463 16 30 16.336 30 16.75V19.75C30 20.9905 28.9374 22 27.6316 22Z" fill="#343434"/>
<path d="M3.75 14H3V8.75C3 8.336 2.664 8 2.25 8H0.75C0.336 8 0 8.336 0 8.75C0 9.164 0.336 9.5 0.75 9.5H1.5V14H0.75C0.336 14 0 14.336 0 14.75C0 15.164 0.336 15.5 0.75 15.5H3.75C4.164 15.5 4.5 15.164 4.5 14.75C4.5 14.336 4.164 14 3.75 14Z" fill="#343434"/>
<path d="M28.75 15.5H25.75C25.336 15.5 25 15.164 25 14.75V8.75C25 8.336 25.336 8 25.75 8H28.75C29.164 8 29.5 8.336 29.5 8.75C29.5 9.164 29.164 9.5 28.75 9.5H26.5V11H28.75C29.164 11 29.5 11.336 29.5 11.75V14.75C29.5 15.164 29.164 15.5 28.75 15.5ZM26.5 14H28V12.5H26.5V14Z" fill="#343434"/>
</svg>
