<svg width="30" height="30" viewBox="0 0 30 30" fill="none" xmlns="http://www.w3.org/2000/svg">
  <path d="M14.75 11C16.817 11 18.5 12.683 18.5 14.75C18.5 16.817 16.817 18.5 14.75 18.5C12.683 18.5 11 16.817 11 14.75C11 12.683 12.683 11 14.75 11ZM14.75 17C15.9905 17 17 15.9905 17 14.75C17 13.5095 15.9905 12.5 14.75 12.5C13.5095 12.5 12.5 13.5095 12.5 14.75C12.5 15.9905 13.5095 17 14.75 17Z" fill="#343434"/>
  <path fill-rule="evenodd" clip-rule="evenodd" d="M6 2.75C5.62238 2.75 5.26133 2.81409 4.92614 2.93138C4.53517 3.06819 4.10733 2.86215 3.97052 2.47118C3.83371 2.08021 4.03975 1.65237 4.43072 1.51556C4.92295 1.34332 5.45138 1.25 6 1.25H7.28571C7.69993 1.25 8.03571 1.58579 8.03571 2C8.03571 2.41421 7.69993 2.75 7.28571 2.75H6ZM9.96429 2C9.96429 1.58579 10.3001 1.25 10.7143 1.25H13.2857C13.6999 1.25 14.0357 1.58579 14.0357 2C14.0357 2.41421 13.6999 2.75 13.2857 2.75H10.7143C10.3001 2.75 9.96429 2.41421 9.96429 2ZM15.9643 2C15.9643 1.58579 16.3001 1.25 16.7143 1.25H19.2857C19.6999 1.25 20.0357 1.58579 20.0357 2C20.0357 2.41421 19.6999 2.75 19.2857 2.75H16.7143C16.3001 2.75 15.9643 2.41421 15.9643 2ZM21.9643 2C21.9643 1.58579 22.3001 1.25 22.7143 1.25H24C24.5486 1.25 25.077 1.34332 25.5693 1.51556C25.9603 1.65237 26.1663 2.08021 26.0295 2.47118C25.8927 2.86215 25.4648 3.06819 25.0739 2.93138C24.7387 2.81409 24.3776 2.75 24 2.75H22.7143C22.3001 2.75 21.9643 2.41421 21.9643 2ZM2.47118 3.97052C2.86215 4.10733 3.06819 4.53517 2.93138 4.92614C2.81409 5.26133 2.75 5.62238 2.75 6V7.28571C2.75 7.69993 2.41421 8.03571 2 8.03571C1.58579 8.03571 1.25 7.69993 1.25 7.28571V6C1.25 5.45138 1.34332 4.92295 1.51556 4.43072C1.65237 4.03975 2.08021 3.83371 2.47118 3.97052ZM27.5288 3.97052C27.9198 3.83371 28.3476 4.03975 28.4844 4.43072C28.6567 4.92295 28.75 5.45138 28.75 6V7.28571C28.75 7.69993 28.4142 8.03571 28 8.03571C27.5858 8.03571 27.25 7.69993 27.25 7.28571V6C27.25 5.62238 27.1859 5.26133 27.0686 4.92614C26.9318 4.53517 27.1378 4.10733 27.5288 3.97052ZM2 9.96429C2.41421 9.96429 2.75 10.3001 2.75 10.7143V13.2857C2.75 13.6999 2.41421 14.0357 2 14.0357C1.58579 14.0357 1.25 13.6999 1.25 13.2857V10.7143C1.25 10.3001 1.58579 9.96429 2 9.96429ZM28 9.96429C28.4142 9.96429 28.75 10.3001 28.75 10.7143V13.2857C28.75 13.6999 28.4142 14.0357 28 14.0357C27.5858 14.0357 27.25 13.6999 27.25 13.2857V10.7143C27.25 10.3001 27.5858 9.96429 28 9.96429ZM2 15.9643C2.41421 15.9643 2.75 16.3001 2.75 16.7143V19.2857C2.75 19.6999 2.41421 20.0357 2 20.0357C1.58579 20.0357 1.25 19.6999 1.25 19.2857V16.7143C1.25 16.3001 1.58579 15.9643 2 15.9643ZM28 15.9643C28.4142 15.9643 28.75 16.3001 28.75 16.7143V19.2857C28.75 19.6999 28.4142 20.0357 28 20.0357C27.5858 20.0357 27.25 19.6999 27.25 19.2857V16.7143C27.25 16.3001 27.5858 15.9643 28 15.9643ZM2 21.9643C2.41421 21.9643 2.75 22.3001 2.75 22.7143V24C2.75 24.3776 2.81409 24.7387 2.93138 25.0739C3.06819 25.4648 2.86215 25.8927 2.47118 26.0295C2.08021 26.1663 1.65237 25.9603 1.51556 25.5693C1.34332 25.077 1.25 24.5486 1.25 24V22.7143C1.25 22.3001 1.58579 21.9643 2 21.9643ZM28 21.9643C28.4142 21.9643 28.75 22.3001 28.75 22.7143V24C28.75 24.5486 28.6567 25.077 28.4844 25.5693C28.3476 25.9603 27.9198 26.1663 27.5288 26.0295C27.1378 25.8927 26.9318 25.4648 27.0686 25.0739C27.1859 24.7387 27.25 24.3776 27.25 24V22.7143C27.25 22.3001 27.5858 21.9643 28 21.9643ZM3.97052 27.5288C4.10733 27.1378 4.53517 26.9318 4.92614 27.0686C5.26133 27.1859 5.62238 27.25 6 27.25H7.28571C7.69993 27.25 8.03571 27.5858 8.03571 28C8.03571 28.4142 7.69993 28.75 7.28571 28.75H6C5.45138 28.75 4.92295 28.6567 4.43072 28.4844C4.03975 28.3476 3.83371 27.9198 3.97052 27.5288ZM26.0295 27.5288C26.1663 27.9198 25.9603 28.3476 25.5693 28.4844C25.077 28.6567 24.5486 28.75 24 28.75H22.7143C22.3001 28.75 21.9643 28.4142 21.9643 28C21.9643 27.5858 22.3001 27.25 22.7143 27.25H24C24.3776 27.25 24.7387 27.1859 25.0739 27.0686C25.4648 26.9318 25.8927 27.1378 26.0295 27.5288ZM9.96429 28C9.96429 27.5858 10.3001 27.25 10.7143 27.25H13.2857C13.6999 27.25 14.0357 27.5858 14.0357 28C14.0357 28.4142 13.6999 28.75 13.2857 28.75H10.7143C10.3001 28.75 9.96429 28.4142 9.96429 28ZM15.9643 28C15.9643 27.5858 16.3001 27.25 16.7143 27.25H19.2857C19.6999 27.25 20.0357 27.5858 20.0357 28C20.0357 28.4142 19.6999 28.75 19.2857 28.75H16.7143C16.3001 28.75 15.9643 28.4142 15.9643 28Z" fill="#343434"/>
  <path d="M15 11C17.2048 11 19 12.7952 19 15C19 17.2048 17.2048 19 15 19C12.7952 19 11 17.2048 11 15C11 12.7952 12.7952 11 15 11Z" fill="#343434"/>
</svg>

