<svg width="30" height="30" viewBox="0 0 30 30" fill="none" xmlns="http://www.w3.org/2000/svg">
<path d="M29.25 30C29.664 30 30 29.664 30 29.25V0.75C30 0.336 29.664 0 29.25 0C28.836 0 28.5 0.336 28.5 0.75V29.25C28.5 29.664 28.836 30 29.25 30Z" fill="#343434"/>
<path d="M10.5 11.25V5.25C10.5 4.0095 11.5095 3 12.75 3H24.75C25.9905 3 27 4.0095 27 5.25V11.25C27 12.4905 25.9905 13.5 24.75 13.5H12.75C11.5095 13.5 10.5 12.4905 10.5 11.25ZM12.75 4.5C12.336 4.5 12 4.836 12 5.25V11.25C12 11.664 12.336 12 12.75 12H24.75C25.164 12 25.5 11.664 25.5 11.25V5.25C25.5 4.836 25.164 4.5 24.75 4.5H12.75Z" fill="#343434"/>
<path d="M1.5 24.75V18.75C1.5 17.5095 2.5095 16.5 3.75 16.5H24.75C25.9905 16.5 27 17.5095 27 18.75V24.75C27 25.9905 25.9905 27 24.75 27H3.75C2.5095 27 1.5 25.9905 1.5 24.75ZM3.75 18C3.336 18 3 18.336 3 18.75V24.75C3 25.164 3.336 25.5 3.75 25.5H24.75C25.164 25.5 25.5 25.164 25.5 24.75V18.75C25.5 18.336 25.164 18 24.75 18H3.75Z" fill="#343434"/>
</svg>
