<svg width="30" height="30" viewBox="0 0 30 30" fill="none" xmlns="http://www.w3.org/2000/svg">
<path d="M15 30C10.9926 30 7.22684 28.44 4.39263 25.6074C1.55842 22.7747 0 19.0074 0 15.0016C0 10.9942 1.56 7.22842 4.39263 4.39421C7.22526 1.56 10.9926 0 15 0C19.0074 0 22.7732 1.56 25.6074 4.39421C28.4416 7.22842 30 10.9942 30 15.0016C30 19.0089 28.44 22.7747 25.6074 25.6074C22.7747 28.44 19.0074 30 15 30ZM15 1.57895C7.59947 1.57895 1.57895 7.59947 1.57895 15C1.57895 22.4005 7.59947 28.4211 15 28.4211C22.4005 28.4211 28.4211 22.4005 28.4211 15C28.4211 7.59947 22.4005 1.57895 15 1.57895Z" fill="#343434"/>
<path d="M21.25 18H9.25C8.836 18 8.5 18.336 8.5 18.75C8.5 19.164 8.836 19.5 9.25 19.5H14.5V21C14.5 22.6545 15.8455 24 17.5 24C19.1545 24 20.5 22.6545 20.5 21V19.5H21.25C21.664 19.5 22 19.164 22 18.75C22 18.336 21.664 18 21.25 18ZM19 21C19 21.8265 18.3265 22.5 17.5 22.5C16.6735 22.5 16 21.8265 16 21V19.5H19V21Z" fill="#343434"/>
<path d="M12.1213 8.68935L8.93935 11.8713C8.64661 12.1641 8.17143 12.1641 7.87869 11.8713C7.58595 11.5786 7.58595 11.1034 7.87869 10.8107L11.0607 7.62869C11.3534 7.33595 11.8286 7.33595 12.1213 7.62869C12.4141 7.92144 12.4141 8.39661 12.1213 8.68935Z" fill="#343434"/>
<path d="M11.0607 11.8713L7.87868 8.68935C7.58594 8.39661 7.58594 7.92143 7.87868 7.62869C8.17142 7.33595 8.6466 7.33595 8.93934 7.62869L12.1213 10.8107C12.4141 11.1034 12.4141 11.5786 12.1213 11.8713C11.8286 12.1641 11.3534 12.1641 11.0607 11.8713Z" fill="#343434"/>
<path d="M23.1213 8.68935L19.9393 11.8713C19.6466 12.1641 19.1714 12.1641 18.8787 11.8713C18.5859 11.5786 18.5859 11.1034 18.8787 10.8107L22.0607 7.62869C22.3534 7.33595 22.8286 7.33595 23.1213 7.62869C23.4141 7.92144 23.4141 8.39661 23.1213 8.68935Z" fill="#343434"/>
<path d="M22.0607 11.8713L18.8787 8.68935C18.5859 8.39661 18.5859 7.92143 18.8787 7.62869C19.1714 7.33595 19.6466 7.33595 19.9393 7.62869L23.1213 10.8107C23.4141 11.1034 23.4141 11.5786 23.1213 11.8713C22.8286 12.1641 22.3534 12.1641 22.0607 11.8713Z" fill="#343434"/>
</svg>
