<svg width="30" height="30" viewBox="0 0 30 30" fill="none" xmlns="http://www.w3.org/2000/svg">
<path d="M27.75 27H2.25C1.0095 27 0 25.9905 0 24.75V5.25C0 4.0095 1.0095 3 2.25 3H27.75C28.9905 3 30 4.0095 30 5.25V24.75C30 25.9905 28.9905 27 27.75 27ZM2.25 4.5C1.836 4.5 1.5 4.836 1.5 5.25V24.75C1.5 25.164 1.836 25.5 2.25 25.5H27.75C28.164 25.5 28.5 25.164 28.5 24.75V5.25C28.5 4.836 28.164 4.5 27.75 4.5H2.25Z" fill="#343434"/>
<path d="M25.6066 17.6438L18.5145 23.1847C18.1883 23.4396 17.7166 23.3817 17.4617 23.0555C17.2069 22.7292 17.2648 22.2576 17.591 22.0027L24.6831 16.4617C25.0093 16.2069 25.481 16.2648 25.7359 16.591C25.9907 16.9172 25.9328 17.3889 25.6066 17.6438Z" fill="#343434"/>
<path d="M12.6066 7.64376L5.5145 13.1847C5.18826 13.4396 4.71663 13.3817 4.46175 13.0555C4.20686 12.7292 4.26477 12.2576 4.59101 12.0027L11.6831 6.46175C12.0093 6.20686 12.481 6.26477 12.7359 6.59101C12.9907 6.91725 12.9328 7.38888 12.6066 7.64376Z" fill="#343434"/>
<path d="M25.6088 7.64377L5.5145 23.3431C5.18826 23.598 4.71663 23.5401 4.46175 23.2139C4.20686 22.8876 4.26477 22.416 4.59101 22.1611L24.6853 6.46175C25.0115 6.20687 25.4832 6.26478 25.738 6.59101C25.9929 6.91725 25.935 7.38888 25.6088 7.64377Z" fill="#343434"/>
</svg>
