<svg width="30" height="30" viewBox="0 0 30 30" fill="none" xmlns="http://www.w3.org/2000/svg">
<path d="M5.25 30H2.25C1.0095 30 0 28.9905 0 27.75V24.75C0 23.5095 1.0095 22.5 2.25 22.5H5.25C6.4905 22.5 7.5 23.5095 7.5 24.75V27.75C7.5 28.9905 6.4905 30 5.25 30ZM2.25 24C1.836 24 1.5 24.336 1.5 24.75V27.75C1.5 28.164 1.836 28.5 2.25 28.5H5.25C5.664 28.5 6 28.164 6 27.75V24.75C6 24.336 5.664 24 5.25 24H2.25Z" fill="#343434"/>
<path d="M16.5 30H13.5C12.2595 30 11.25 28.9905 11.25 27.75V24.75C11.25 23.5095 12.2595 22.5 13.5 22.5H16.5C17.7405 22.5 18.75 23.5095 18.75 24.75V27.75C18.75 28.9905 17.7405 30 16.5 30ZM13.5 24C13.086 24 12.75 24.336 12.75 24.75V27.75C12.75 28.164 13.086 28.5 13.5 28.5H16.5C16.914 28.5 17.25 28.164 17.25 27.75V24.75C17.25 24.336 16.914 24 16.5 24H13.5Z" fill="#343434"/>
<path d="M27.75 30H24.75C23.5095 30 22.5 28.9905 22.5 27.75V24.75C22.5 23.5095 23.5095 22.5 24.75 22.5H27.75C28.9905 22.5 30 23.5095 30 24.75V27.75C30 28.9905 28.9905 30 27.75 30ZM24.75 24C24.336 24 24 24.336 24 24.75V27.75C24 28.164 24.336 28.5 24.75 28.5H27.75C28.164 28.5 28.5 28.164 28.5 27.75V24.75C28.5 24.336 28.164 24 27.75 24H24.75Z" fill="#343434"/>
<path d="M5.25 18.75H2.25C1.0095 18.75 0 17.7405 0 16.5V13.5C0 12.2595 1.0095 11.25 2.25 11.25H5.25C6.4905 11.25 7.5 12.2595 7.5 13.5V16.5C7.5 17.7405 6.4905 18.75 5.25 18.75ZM2.25 12.75C1.836 12.75 1.5 13.086 1.5 13.5V16.5C1.5 16.914 1.836 17.25 2.25 17.25H5.25C5.664 17.25 6 16.914 6 16.5V13.5C6 13.086 5.664 12.75 5.25 12.75H2.25Z" fill="#343434"/>
<path d="M16.5 18.75H13.5C12.2595 18.75 11.25 17.7405 11.25 16.5V13.5C11.25 12.2595 12.2595 11.25 13.5 11.25H16.5C17.7405 11.25 18.75 12.2595 18.75 13.5V16.5C18.75 17.7405 17.7405 18.75 16.5 18.75ZM13.5 12.75C13.086 12.75 12.75 13.086 12.75 13.5V16.5C12.75 16.914 13.086 17.25 13.5 17.25H16.5C16.914 17.25 17.25 16.914 17.25 16.5V13.5C17.25 13.086 16.914 12.75 16.5 12.75H13.5Z" fill="#343434"/>
<path d="M27.75 18H24.75C23.5095 18 22.5 16.9905 22.5 15.75V12.75C22.5 11.5095 23.5095 10.5 24.75 10.5H27.75C28.9905 10.5 30 11.5095 30 12.75V15.75C30 16.9905 28.9905 18 27.75 18ZM24.75 12C24.336 12 24 12.336 24 12.75V15.75C24 16.164 24.336 16.5 24.75 16.5H27.75C28.164 16.5 28.5 16.164 28.5 15.75V12.75C28.5 12.336 28.164 12 27.75 12H24.75Z" fill="#343434"/>
<path d="M5.25 7.5H2.25C1.0095 7.5 0 6.4905 0 5.25V2.25C0 1.0095 1.0095 0 2.25 0H5.25C6.4905 0 7.5 1.0095 7.5 2.25V5.25C7.5 6.4905 6.4905 7.5 5.25 7.5ZM2.25 1.5C1.836 1.5 1.5 1.836 1.5 2.25V5.25C1.5 5.664 1.836 6 2.25 6H5.25C5.664 6 6 5.664 6 5.25V2.25C6 1.836 5.664 1.5 5.25 1.5H2.25Z" fill="#343434"/>
<path d="M16.5 7.5H13.5C12.2595 7.5 11.25 6.4905 11.25 5.25V2.25C11.25 1.0095 12.2595 0 13.5 0H16.5C17.7405 0 18.75 1.0095 18.75 2.25V5.25C18.75 6.4905 17.7405 7.5 16.5 7.5ZM13.5 1.5C13.086 1.5 12.75 1.836 12.75 2.25V5.25C12.75 5.664 13.086 6 13.5 6H16.5C16.914 6 17.25 5.664 17.25 5.25V2.25C17.25 1.836 16.914 1.5 16.5 1.5H13.5Z" fill="#343434"/>
<path d="M27.75 7.5H24.75C23.5095 7.5 22.5 6.4905 22.5 5.25V2.25C22.5 1.0095 23.5095 0 24.75 0H27.75C28.9905 0 30 1.0095 30 2.25V5.25C30 6.4905 28.9905 7.5 27.75 7.5ZM24.75 1.5C24.336 1.5 24 1.836 24 2.25V5.25C24 5.664 24.336 6 24.75 6H27.75C28.164 6 28.5 5.664 28.5 5.25V2.25C28.5 1.836 28.164 1.5 27.75 1.5H24.75Z" fill="#343434"/>
</svg>
