<svg width="30" height="30" viewBox="0 0 30 30" fill="none" xmlns="http://www.w3.org/2000/svg">
<path d="M0.75 0C0.336 0 0 0.336 0 0.75L0 29.25C0 29.664 0.336 30 0.75 30C1.164 30 1.5 29.664 1.5 29.25L1.5 0.75C1.5 0.336 1.164 0 0.75 0Z" fill="#343434"/>
<path d="M30 29.25C30 28.836 29.664 28.5 29.25 28.5L0.75 28.5C0.336 28.5 0 28.836 0 29.25C0 29.664 0.336 30 0.75 30L29.25 30C29.664 30 30 29.664 30 29.25Z" fill="#343434"/>
<path d="M19.75 18H10.75C10.336 18 10 17.664 10 17.25C10 16.836 10.336 16.5 10.75 16.5H19.75C20.164 16.5 20.5 16.836 20.5 17.25C20.5 17.664 20.164 18 19.75 18Z" fill="#343434"/>
<path d="M29.25 9H14.25C13.836 9 13.5 8.664 13.5 8.25C13.5 7.836 13.836 7.5 14.25 7.5H29.25C29.664 7.5 30 7.836 30 8.25C30 8.664 29.664 9 29.25 9Z" fill="#343434"/>
<path d="M29.25 13.5H3.75C3.336 13.5 3 13.164 3 12.75C3 12.336 3.336 12 3.75 12H29.25C29.664 12 30 12.336 30 12.75C30 13.164 29.664 13.5 29.25 13.5Z" fill="#343434"/>
<path d="M29.25 22.5H5.75C5.336 22.5 5 22.164 5 21.75C5 21.336 5.336 21 5.75 21H29.25C29.664 21 30 21.336 30 21.75C30 22.164 29.664 22.5 29.25 22.5Z" fill="#343434"/>
</svg>
