<svg width="30" height="30" viewBox="0 0 30 30" fill="none" xmlns="http://www.w3.org/2000/svg">
<path d="M20.9118 23H26.7941C28.0103 23 29 21.9681 29 20.7V2.3C29 1.03193 28.0103 0 26.7941 0H6.20588C4.98971 0 4 1.03193 4 2.3V13.0333C4 13.4565 4.32941 13.8 4.73529 13.8C5.14118 13.8 5.47059 13.4565 5.47059 13.0333V2.3C5.47059 1.8768 5.8 1.53333 6.20588 1.53333H26.7941C27.2 1.53333 27.5294 1.8768 27.5294 2.3V20.7C27.5294 21.1232 27.2 21.4667 26.7941 21.4667H20.9118C20.5059 21.4667 20.1765 21.8101 20.1765 22.2333C20.1765 22.6565 20.5059 23 20.9118 23Z" fill="#343434"/>
<path d="M10.0007 29.9985C10.2977 29.9985 10.5796 29.8235 10.6966 29.5368L13.2419 23.2984L17.6861 28.2779C17.8916 28.5088 18.2216 28.5897 18.514 28.4823C18.8065 28.375 19 28.1 19 27.7941V5.73498C19 5.4438 18.8245 5.18056 18.553 5.06291C18.2816 4.94526 17.9651 4.99526 17.7446 5.19085L1.24586 19.8969C1.01638 20.1013 0.938385 20.4234 1.05088 20.7058C1.16337 20.9881 1.44085 21.1764 1.74982 21.1764H8.14083L5.55203 27.5206C5.39754 27.897 5.58503 28.325 5.9705 28.4764L9.72021 29.9471C9.8117 29.9824 9.9062 30 9.99919 30L10.0007 29.9985ZM13.0005 21.1749C12.9585 21.1749 12.9165 21.1778 12.8745 21.1852C12.6165 21.2278 12.402 21.3999 12.3045 21.6367L9.58372 28.3073L7.2259 27.3823L9.94669 20.7116C10.0397 20.4852 10.0112 20.2278 9.8717 20.0263C9.73221 19.8249 9.49973 19.7028 9.25075 19.7028H3.69067L17.5001 7.39382V25.8338L13.5644 21.4234C13.4204 21.2631 13.2149 21.1719 13.0005 21.1719V21.1749Z" fill="#343434"/>
</svg>
