<svg width="31" height="30" viewBox="0 0 31 30" fill="none" xmlns="http://www.w3.org/2000/svg">
<path d="M0.749622 17.3045C0.569622 17.3045 0.389622 17.24 0.247122 17.111C-0.0603777 16.8335 -0.0843777 16.3595 0.194622 16.052L13.4381 0.71C13.8491 0.2555 14.4041 0 15.0011 0C15.5966 0 16.1516 0.2555 16.5641 0.71L29.8076 16.052C30.0851 16.3595 30.0611 16.8335 29.7551 17.111C29.4491 17.3885 28.9736 17.3645 28.6961 17.0585L15.4526 1.71C15.3296 1.5735 15.1691 1.5 15.0026 1.5C14.8361 1.5 14.6756 1.5735 14.5526 1.71L1.30912 17.0585C1.16062 17.222 0.956622 17.306 0.752622 17.306L0.749622 17.3045Z" fill="#343434"/>
<path d="M23.2496 30H6.74962C5.50912 30 4.49962 28.9905 4.49962 27.75V15.0545C4.49962 14.6405 4.83562 14.3045 5.24962 14.3045C5.66362 14.3045 5.99962 14.6405 5.99962 15.0545V27.75C5.99962 28.164 6.33562 28.5 6.74962 28.5H23.2496C23.6636 28.5 23.9996 28.164 23.9996 27.75V15.0545C23.9996 14.6405 24.3356 14.3045 24.7496 14.3045C25.1636 14.3045 25.4996 14.6405 25.4996 15.0545V27.75C25.4996 28.9905 24.4901 30 23.2496 30Z" fill="#343434"/>
</svg>
