<svg width="30" height="30" viewBox="0 0 30 30" fill="none" xmlns="http://www.w3.org/2000/svg">
<path d="M0 0.75C0 0.336 0.336 0 0.75 0H29.25C29.664 0 30 0.336 30 0.75C30 1.164 29.664 1.5 29.25 1.5H0.75C0.336 1.5 0 1.164 0 0.75Z" fill="#343434"/>
<path d="M3 26.25V5.25C3 4.0095 4.0095 3 5.25 3H11.25C12.4905 3 13.5 4.0095 13.5 5.25V26.25C13.5 27.4905 12.4905 28.5 11.25 28.5H5.25C4.0095 28.5 3 27.4905 3 26.25ZM12 5.25C12 4.836 11.664 4.5 11.25 4.5H5.25C4.836 4.5 4.5 4.836 4.5 5.25V26.25C4.5 26.664 4.836 27 5.25 27H11.25C11.664 27 12 26.664 12 26.25V5.25Z" fill="#343434"/>
<path d="M16.5 26.25V5.25C16.5 4.0095 17.5095 3 18.75 3H24.75C25.9905 3 27 4.0095 27 5.25V26.25C27 27.4905 25.9905 28.5 24.75 28.5H18.75C17.5095 28.5 16.5 27.4905 16.5 26.25ZM25.5 5.25C25.5 4.836 25.164 4.5 24.75 4.5H18.75C18.336 4.5 18 4.836 18 5.25V26.25C18 26.664 18.336 27 18.75 27H24.75C25.164 27 25.5 26.664 25.5 26.25V5.25Z" fill="#343434"/>
</svg>
