<svg width="30" height="30" viewBox="0 0 30 30" fill="none" xmlns="http://www.w3.org/2000/svg">
  <path d="M4.39263 25.6071C7.22526 28.4399 10.9926 30 15 30C19.0074 30 22.7732 28.4399 25.6074 25.6071C28.4416 22.7744 30 19.0068 30 15.0008C30 10.9948 28.44 7.22723 25.6074 4.39287C22.7747 1.55851 19.0074 0 15 0C10.9926 0 7.22684 1.56009 4.39263 4.39287C1.55842 7.22565 0 10.9932 0 15.0008C0 19.0084 1.56 22.7744 4.39263 25.6071ZM15 1.57745C22.4005 1.57745 28.4211 7.5983 28.4211 14.9992C28.4211 22.4001 22.4005 28.421 15 28.421C7.59947 28.421 1.57895 22.4001 1.57895 14.9992C1.57895 7.5983 7.59947 1.57745 15 1.57745Z" fill="#343434"/>
  <path d="M15 4.5C15.414 4.5 15.75 4.836 15.75 5.25V6.75C15.75 7.164 15.414 7.5 15 7.5C14.586 7.5 14.25 7.164 14.25 6.75V5.25C14.25 4.836 14.586 4.5 15 4.5Z" fill="#343434"/>
  <path d="M15 9C15.414 9 15.75 9.336 15.75 9.75V24.75C15.75 25.164 15.414 25.5 15 25.5C14.586 25.5 14.25 25.164 14.25 24.75V9.75C14.25 9.336 14.586 9 15 9Z" fill="#343434"/>
</svg>
