<svg width="30" height="30" viewBox="0 0 30 30" fill="none" xmlns="http://www.w3.org/2000/svg">
<path d="M27.75 27H2.25C1.0095 27 0 25.9905 0 24.75V5.25C0 4.0095 1.0095 3 2.25 3H27.75C28.9905 3 30 4.0095 30 5.25V24.75C30 25.9905 28.9905 27 27.75 27ZM2.25 4.5C1.836 4.5 1.5 4.836 1.5 5.25V24.75C1.5 25.164 1.836 25.5 2.25 25.5H27.75C28.164 25.5 28.5 25.164 28.5 24.75V5.25C28.5 4.836 28.164 4.5 27.75 4.5H2.25Z" fill="#343434"/>
<path d="M5.25002 15C5.00702 15 4.77002 14.883 4.62452 14.6655C4.39502 14.3205 4.48802 13.8555 4.83302 13.626L8.39702 11.25L4.83302 8.87403C4.48802 8.64453 4.39502 8.17803 4.62452 7.83453C4.85402 7.49103 5.32052 7.39653 5.66402 7.62603L10.164 10.626C10.3725 10.7655 10.4985 10.9995 10.4985 11.25C10.4985 11.5005 10.3725 11.7345 10.164 11.874L5.66402 14.874C5.53652 14.9595 5.39102 15 5.24852 15H5.25002Z" fill="#343434"/>
<path d="M17.25 15H12.75C12.336 15 12 14.664 12 14.25C12 13.836 12.336 13.5 12.75 13.5H17.25C17.664 13.5 18 13.836 18 14.25C18 14.664 17.664 15 17.25 15Z" fill="#343434"/>
</svg>
