<svg width="30" height="30" viewBox="0 0 30 30" xmlns="http://www.w3.org/2000/svg">
<path d="M21.75 11.5C19.683 11.5 18 9.817 18 7.75C18 5.683 19.683 4 21.75 4C23.817 4 25.5 5.683 25.5 7.75C25.5 9.817 23.817 11.5 21.75 11.5ZM21.75 5.5C20.5095 5.5 19.5 6.5095 19.5 7.75C19.5 8.9905 20.5095 10 21.75 10C22.9905 10 24 8.9905 24 7.75C24 6.5095 22.9905 5.5 21.75 5.5Z" fill="#343434"/>
<path d="M5.22334 20.3455C4.9256 20.6398 4.92564 21.1177 5.22344 21.4121C5.52124 21.7065 6.00459 21.7065 6.30233 21.4122L8.23662 19.4999L8.2376 29.2458C8.23763 29.6618 8.57967 30 9.00044 30C9.21191 30 9.40178 29.9147 9.53987 29.7782C9.67796 29.6417 9.76317 29.4529 9.76423 29.2449L9.76325 19.499L11.6979 21.4116C11.9957 21.706 12.479 21.706 12.7768 21.4117C13.0745 21.1173 13.0745 20.6395 12.7767 20.3451L9.53971 17.145C9.24191 16.8506 8.75856 16.8505 8.46082 17.1449L5.22334 20.3455Z" fill="#343434"/>
<path d="M2.25 0H27.75C28.9905 0 30 1.0095 30 2.25V24.25C30 25.4905 28.9905 26.5 27.75 26.5H13.75C13.3358 26.5 13 26.1642 13 25.75C13 25.3358 13.3358 25 13.75 25H22.9935L8.7435 10.102C8.613 9.9655 8.4435 9.8905 8.2665 9.8935C8.0895 9.8965 7.923 9.9745 7.7955 10.114L1.5 17.0395V24.25H1.4985C1.4985 24.664 1.8345 25 2.2485 25H4.25C4.66421 25 5 25.3358 5 25.75C5 26.1642 4.66421 26.5 4.25 26.5H2.25C1.0095 26.5 0 25.4905 0 24.25V2.25C0 1.0095 1.0095 0 2.25 0ZM27.75 25C28.164 25 28.5 24.664 28.5 24.25H28.5015V2.25C28.5015 1.836 28.1655 1.5 27.7515 1.5H2.2515C1.8375 1.5 1.5015 1.836 1.5015 2.25V14.8105L6.687 9.106C7.098 8.6545 7.653 8.4025 8.25 8.395C8.847 8.3875 9.408 8.6245 9.8295 9.0655L25.071 25H27.75Z" fill="#343434"/>
</svg>
