<svg width="30" height="30" viewBox="0 0 30 30" fill="none" xmlns="http://www.w3.org/2000/svg">
<path d="M19.3158 14.3158H15.6842V10.6842C15.6842 10.3065 15.3777 10 15 10C14.6223 10 14.3158 10.3065 14.3158 10.6842V14.3158H10.6842C10.3065 14.3158 10 14.6223 10 15C10 15.3777 10.3065 15.6842 10.6842 15.6842H14.3158V19.3158C14.3158 19.6935 14.6223 20 15 20C15.3777 20 15.6842 19.6935 15.6842 19.3158V15.6842H19.3158C19.6935 15.6842 20 15.3777 20 15C20 14.6223 19.6935 14.3158 19.3158 14.3158Z" fill="#343434"/>
<path d="M27.6316 30H2.36842C1.06263 30 0 28.9374 0 27.6316V2.36842C0 1.06263 1.06263 0 2.36842 0H27.6316C28.9374 0 30 1.06263 30 2.36842V27.6316C30 28.9374 28.9374 30 27.6316 30ZM2.36842 1.57895C1.93263 1.57895 1.57895 1.93263 1.57895 2.36842V27.6316C1.57895 28.0674 1.93263 28.4211 2.36842 28.4211H27.6316C28.0674 28.4211 28.4211 28.0674 28.4211 27.6316V2.36842C28.4211 1.93263 28.0674 1.57895 27.6316 1.57895H2.36842Z" fill="#343434"/>
</svg>
