<svg width="30" height="30" viewBox="0 0 30 30" fill="none" xmlns="http://www.w3.org/2000/svg">
  <path d="M24.2 30H5.8C4.53193 30 3.5 28.9646 3.5 27.6923V12.3077C3.5 11.0354 4.53193 10 5.8 10H11.9333C12.3565 10 12.7 10.3446 12.7 10.7692C12.7 11.1938 12.3565 11.5385 11.9333 11.5385H5.8C5.3768 11.5385 5.03333 11.8831 5.03333 12.3077V27.6923C5.03333 28.1169 5.3768 28.4615 5.8 28.4615H24.2C24.6232 28.4615 24.9667 28.1169 24.9667 27.6923V12.3077C24.9667 11.8831 24.6232 11.5385 24.2 11.5385H18.0667C17.6435 11.5385 17.3 11.1938 17.3 10.7692C17.3 10.3446 17.6435 10 18.0667 10H24.2C25.4681 10 26.5 11.0354 26.5 12.3077V27.6923C26.5 28.9646 25.4681 30 24.2 30Z" fill="#343434"/>
  <path d="M20.2702 4.89408L15.5555 0.227496C15.2491 -0.0758319 14.7509 -0.0758319 14.4445 0.227496L9.72984 4.89408C9.42339 5.1974 9.42339 5.69051 9.72984 5.99383C10.0363 6.29716 10.5345 6.29716 10.8409 5.99383L14.215 2.65567V20.2222C14.215 20.6516 14.567 21 15.0008 21C15.4345 21 15.7866 20.6516 15.7866 20.2222V2.65567L19.1607 5.99383C19.3147 6.14628 19.5158 6.22094 19.7154 6.22094C19.915 6.22094 20.1177 6.14472 20.2702 5.99383C20.5766 5.69051 20.5766 5.1974 20.2702 4.89408V4.89408Z" fill="#343434"/>
</svg>
