<svg width="30" height="30" viewBox="0 0 30 30" fill="none" xmlns="http://www.w3.org/2000/svg">
<path d="M13.4409 23.9545L11.5149 19.4605C11.5134 19.459 11.5134 19.456 11.5119 19.4545L8.94092 13.4545C8.82242 13.1785 8.55092 13 8.25092 13C7.95092 13 7.67942 13.1785 7.56092 13.4545L4.98992 19.4545C4.98842 19.456 4.98842 19.459 4.98692 19.4605L3.06092 23.9545C2.89742 24.3355 3.07442 24.7765 3.45542 24.94C3.83642 25.1035 4.27742 24.9265 4.44092 24.5455L6.17492 20.5H10.3284L12.0624 24.5455C12.1839 24.8305 12.4614 25 12.7524 25C12.8514 25 12.9519 24.9805 13.0479 24.9385C13.4289 24.775 13.6044 24.334 13.4424 23.953L13.4409 23.9545ZM6.81692 19L8.25092 15.6535L9.68492 19H6.81692Z" fill="#343434"/>
<path d="M26.9409 23.7045L25.0149 19.2105C25.0134 19.209 25.0134 19.206 25.0119 19.2045L22.4409 13.2045C22.3224 12.9285 22.0509 12.75 21.7509 12.75C21.4509 12.75 21.1794 12.9285 21.0609 13.2045L18.4899 19.2045C18.4884 19.206 18.4884 19.209 18.4869 19.2105L16.5609 23.7045C16.3974 24.0855 16.5744 24.5265 16.9554 24.69C17.3364 24.8535 17.7774 24.6765 17.9409 24.2955L19.6749 20.25H23.8284L25.5624 24.2955C25.6839 24.5805 25.9614 24.75 26.2524 24.75C26.3514 24.75 26.4519 24.7305 26.5479 24.6885C26.9289 24.525 27.1044 24.084 26.9424 23.703L26.9409 23.7045ZM20.3169 18.75L21.7509 15.4035L23.1849 18.75H20.3169Z" fill="#343434"/>
</svg>
