<svg width="30" height="30" viewBox="0 0 30 30" fill="none" xmlns="http://www.w3.org/2000/svg">
  <path d="M0.684256 23.309C0.244058 22.8639 0.00144435 22.2723 0.000328499 21.6452L1.02183e-09 8.35517C-1.81793e-05 7.72696 0.24256 7.1376 0.683831 6.69143C1.1251 6.24526 1.70908 6.00109 2.32929 6L21.1793 6.00056C22.2485 6.00059 23.6229 6.57557 24.3792 7.34032L29.3191 13.3351C30.2269 14.253 30.227 15.747 29.3192 16.6648L24.3796 22.6593C23.6244 23.4229 22.249 23.9989 21.1809 24L2.33085 23.9994C1.70954 23.9994 1.12665 23.7541 0.685353 23.3079L0.684256 23.309ZM23.2804 8.45131C22.8249 7.99069 21.8237 7.57111 21.1794 7.5722L2.32934 7.57164C2.12297 7.57164 1.92977 7.65376 1.78158 7.8036C1.63339 7.95343 1.55327 8.14989 1.55327 8.35633L1.5536 21.6464C1.5536 21.8551 1.63484 22.0504 1.78304 22.2002C1.93124 22.3501 2.12553 22.4311 2.33081 22.4322L21.1808 22.4328C21.8241 22.4328 22.8274 22.0133 23.2829 21.5527L28.2225 15.5582C28.5255 15.2519 28.5255 14.7547 28.2225 14.4483L23.2804 8.45131Z" fill="#343434"/>
  <path d="M21 18C19.3455 18 18 16.6545 18 15C18 13.3455 19.3455 12 21 12C22.6545 12 24 13.3455 24 15C24 16.6545 22.6545 18 21 18ZM21 13.5C20.1735 13.5 19.5 14.1735 19.5 15C19.5 15.8265 20.1735 16.5 21 16.5C21.8265 16.5 22.5 15.8265 22.5 15C22.5 14.1735 21.8265 13.5 21 13.5Z" fill="#343434"/>
</svg>
