<svg width="30" height="30" viewBox="0 0 30 30" fill="none" xmlns="http://www.w3.org/2000/svg">
<path d="M5.8 0L24.2 0C25.4681 0 26.5 1.03539 26.5 2.30769L26.5 17.6923C26.5 18.9646 25.4681 20 24.2 20H18.0667C17.6435 20 17.3 19.6554 17.3 19.2308C17.3 18.8062 17.6435 18.4615 18.0667 18.4615H24.2C24.6232 18.4615 24.9667 18.1169 24.9667 17.6923L24.9667 2.30769C24.9667 1.88308 24.6232 1.53846 24.2 1.53846L5.8 1.53846C5.3768 1.53846 5.03333 1.88308 5.03333 2.30769L5.03333 17.6923C5.03333 18.1169 5.3768 18.4615 5.8 18.4615L11.9333 18.4615C12.3565 18.4615 12.7 18.8062 12.7 19.2308C12.7 19.6554 12.3565 20 11.9333 20H5.8C4.53193 20 3.5 18.9646 3.5 17.6923L3.5 2.30769C3.5 1.03539 4.53193 0 5.8 0Z" fill="#343434"/>
<path d="M20.2702 13.8941L15.5555 9.2275C15.2491 8.92417 14.7509 8.92417 14.4445 9.2275L9.72984 13.8941C9.42339 14.1974 9.42339 14.6905 9.72984 14.9938C10.0363 15.2972 10.5345 15.2972 10.8409 14.9938L14.215 11.6557L14.215 29.2222C14.215 29.6516 14.567 30 15.0008 30C15.4345 30 15.7866 29.6516 15.7866 29.2222L15.7866 11.6557L19.1607 14.9938C19.3147 15.1463 19.5158 15.2209 19.7154 15.2209C19.915 15.2209 20.1177 15.1447 20.2702 14.9938C20.5766 14.6905 20.5766 14.1974 20.2702 13.8941Z" fill="#343434"/>
</svg>
