<svg width="30" height="30" viewBox="0 0 30 30" fill="none" xmlns="http://www.w3.org/2000/svg">
<path d="M0.75 30C0.336 30 0 29.664 0 29.25V0.75C0 0.336 0.336 0 0.75 0C1.164 0 1.5 0.336 1.5 0.75V29.25C1.5 29.664 1.164 30 0.75 30Z" fill="#343434"/>
<path d="M29.25 30C28.836 30 28.5 29.664 28.5 29.25V0.75C28.5 0.336 28.836 0 29.25 0C29.664 0 30 0.336 30 0.75V29.25C30 29.664 29.664 30 29.25 30Z" fill="#343434"/>
<path d="M9.75 12H6.75C5.5095 12 4.5 10.9905 4.5 9.75V3.75C4.5 2.5095 5.5095 1.5 6.75 1.5H9.75C10.9905 1.5 12 2.5095 12 3.75V9.75C12 10.9905 10.9905 12 9.75 12ZM6.75 3C6.336 3 6 3.336 6 3.75V9.75C6 10.164 6.336 10.5 6.75 10.5H9.75C10.164 10.5 10.5 10.164 10.5 9.75V3.75C10.5 3.336 10.164 3 9.75 3H6.75Z" fill="#343434"/>
</svg>
