<svg width="30" height="30" viewBox="0 0 30 30" fill="none" xmlns="http://www.w3.org/2000/svg">
<path d="M28.75 21C28.336 21 28 20.664 28 20.25V9.75C28 9.336 28.336 9 28.75 9C29.164 9 29.5 9.336 29.5 9.75V20.25C29.5 20.664 29.164 21 28.75 21Z" fill="#343434"/>
<path d="M6.75029 21H3.75029C1.52578 21 0.205785 19.2735 0.150285 19.2C-0.0987149 18.8685 -0.0312158 18.399 0.300284 18.15C0.631784 17.901 1.10128 17.9685 1.35028 18.3C1.35628 18.309 2.28929 19.5 3.75029 19.5H6.75029C7.99079 19.5 9.00029 18.4905 9.00029 17.25V16.5H3.75029C1.68328 16.5 0.000284526 14.817 0.000284526 12.75C0.000284526 10.683 1.68328 9 3.75029 9H6.75029C8.81729 9 10.5003 10.683 10.5003 12.75V17.25C10.5003 19.317 8.81729 21 6.75029 21ZM3.75029 10.5C2.50978 10.5 1.50028 11.5095 1.50028 12.75C1.50028 13.9905 2.50978 15 3.75029 15H9.00029V12.75C9.00029 11.5095 7.99079 10.5 6.75029 10.5H3.75029Z" fill="#343434"/>
</svg>
