<svg width="30" height="30" viewBox="0 0 30 30" fill="none" xmlns="http://www.w3.org/2000/svg">
  <path d="M25.5 3H4.60889C2.619 3 1 4.61868 1 6.60889V18.2562C1 20.2419 2.61195 21.8581 4.59608 21.8651V27.1505L12.1918 21.8651H25.5C27.4899 21.8651 29.1089 20.2461 29.1089 18.2562V6.60889C29.1089 4.61868 27.4899 3 25.5 3ZM27.5708 18.2562C27.5708 19.3979 26.6419 20.327 25.5 20.327H11.7092L6.13416 24.2065V20.327H4.60889C3.46703 20.327 2.53809 19.3979 2.53809 18.2562V6.60889C2.53809 5.46687 3.46703 4.53809 4.60889 4.53809H25.5C26.6419 4.53809 27.5708 5.46687 27.5708 6.60889V18.2562Z" fill="#343434"/>
  <path d="M7 8.76904C7 8.34431 7.34431 8 7.76904 8H22.231C22.6557 8 23 8.34431 23 8.76904V8.76904C23 9.19377 22.6557 9.53808 22.231 9.53808H7.76904C7.34431 9.53808 7 9.19377 7 8.76904V8.76904Z" fill="#343434"/>
  <path d="M7 12.0503C7 11.6256 7.34431 11.2812 7.76904 11.2812H18.4296C18.8543 11.2812 19.1986 11.6256 19.1986 12.0503V12.0503C19.1986 12.475 18.8543 12.8193 18.4296 12.8193H7.76904C7.34431 12.8193 7 12.475 7 12.0503V12.0503Z" fill="#343434"/>
  <path d="M7 15.3315C7 14.9068 7.34431 14.5625 7.76904 14.5625H18.4296C18.8543 14.5625 19.1986 14.9068 19.1986 15.3315V15.3315C19.1986 15.7563 18.8543 16.1006 18.4296 16.1006H7.76904C7.34431 16.1006 7 15.7563 7 15.3315V15.3315Z" fill="#343434"/>
</svg>
