<svg width="30" height="30" viewBox="0 0 30 30" fill="none" xmlns="http://www.w3.org/2000/svg">
<path d="M29.2515 27C29.2515 27 29.2515 27 29.25 27C27.2385 27 25.149 25.716 24.3795 25.191C23.535 25.395 22.653 25.5 21.75 25.5C19.5945 25.5 17.5575 24.906 16.017 23.826C14.394 22.6905 13.5 21.153 13.5 19.5C13.5 17.847 14.394 16.3095 16.017 15.174C17.559 14.0955 19.5945 13.5 21.75 13.5C23.9055 13.5 25.9425 14.094 27.483 15.174C29.106 16.3095 30 17.847 30 19.5C30 20.946 29.3085 22.3155 28.041 23.3955C28.164 23.742 28.5495 24.486 29.7585 25.698C29.907 25.8345 30 26.031 30 26.25C30 26.664 29.664 27 29.25 27H29.2515ZM24.5295 23.628C24.6915 23.628 24.8505 23.6805 24.9825 23.7795C24.9975 23.79 25.995 24.5355 27.237 25.0425C26.421 23.85 26.442 23.1705 26.5155 22.8855C26.559 22.722 26.655 22.578 26.79 22.476C27.8925 21.648 28.4985 20.592 28.4985 19.5C28.4985 18.3495 27.8325 17.25 26.622 16.4025C25.3305 15.498 23.5995 15 21.7485 15C19.8975 15 18.1665 15.498 16.875 16.4025C15.6645 17.25 14.9985 18.3495 14.9985 19.5C14.9985 20.6505 15.6645 21.75 16.875 22.5975C18.1665 23.502 19.8975 24 21.7485 24C22.641 24 23.508 23.8845 24.3255 23.655C24.3915 23.637 24.4605 23.628 24.528 23.628H24.5295Z" fill="#343434"/>
<path d="M0.74999 28.5C0.41249 28.5 0.11699 28.275 0.0269895 27.9495C-0.0630105 27.624 0.0749895 27.279 0.36449 27.1065C2.90099 25.5855 3.95249 23.373 4.32599 22.338C1.56899 20.2275 -1.04522e-05 17.307 -1.04522e-05 14.25C-1.04522e-05 12.7065 0.38699 11.211 1.15199 9.80399C1.88099 8.46299 2.92199 7.26149 4.24349 6.23249C6.92399 4.14749 10.4775 2.99849 14.25 2.99849C17.667 2.99849 20.9715 3.96449 23.553 5.71949C26.1555 7.48799 27.8595 9.93599 28.3515 12.612C28.4265 13.02 28.1565 13.41 27.75 13.485C27.3435 13.56 26.952 13.29 26.877 12.8835C26.4585 10.605 24.978 8.50199 22.71 6.95999C20.3745 5.37299 17.37 4.49849 14.25 4.49849C7.21949 4.49849 1.49999 8.87249 1.49999 14.2485C1.49999 16.971 3.00749 19.5915 5.63399 21.4365C5.89199 21.618 6.00899 21.9405 5.92799 22.245C5.75249 22.899 5.15549 24.6945 3.55799 26.427C5.51099 25.743 7.61399 24.5565 9.16649 23.4885C9.35099 23.361 9.58199 23.3235 9.79799 23.385C11.22 23.7915 12.7185 23.9985 14.25 23.9985C14.664 23.9985 15 24.3345 15 24.7485C15 25.1625 14.664 25.4985 14.25 25.4985C12.7005 25.4985 11.1795 25.305 9.72599 24.921C9.08249 25.35 7.87949 26.1105 6.44249 26.826C4.21049 27.936 2.29649 28.4985 0.75149 28.4985L0.74999 28.5Z" fill="#343434"/>
</svg>
