<svg width="30" height="30" viewBox="0 0 30 30" fill="none" xmlns="http://www.w3.org/2000/svg">
<path d="M26.25 11.25C28.317 11.25 30 12.933 30 15C30 17.067 28.317 18.75 26.25 18.75C24.183 18.75 22.5 17.067 22.5 15C22.5 12.933 24.183 11.25 26.25 11.25ZM26.25 17.25C27.4905 17.25 28.5 16.2405 28.5 15C28.5 13.7595 27.4905 12.75 26.25 12.75C25.0095 12.75 24 13.7595 24 15C24 16.2405 25.0095 17.25 26.25 17.25Z" fill="#343434"/>
<path d="M15 11.25C17.067 11.25 18.75 12.933 18.75 15C18.75 17.067 17.067 18.75 15 18.75C12.933 18.75 11.25 17.067 11.25 15C11.25 12.933 12.933 11.25 15 11.25ZM15 17.25C16.2405 17.25 17.25 16.2405 17.25 15C17.25 13.7595 16.2405 12.75 15 12.75C13.7595 12.75 12.75 13.7595 12.75 15C12.75 16.2405 13.7595 17.25 15 17.25Z" fill="#343434"/>
<path d="M3.75 11.25C5.817 11.25 7.5 12.933 7.5 15C7.5 17.067 5.817 18.75 3.75 18.75C1.683 18.75 0 17.067 0 15C0 12.933 1.683 11.25 3.75 11.25ZM3.75 17.25C4.9905 17.25 6 16.2405 6 15C6 13.7595 4.9905 12.75 3.75 12.75C2.5095 12.75 1.5 13.7595 1.5 15C1.5 16.2405 2.5095 17.25 3.75 17.25Z" fill="#343434"/>
</svg>
