<svg width="30" height="30" viewBox="0 0 30 30" fill="none" xmlns="http://www.w3.org/2000/svg">
<path d="M27.6316 30H2.36842C1.06263 30 0 28.9374 0 27.6316V2.36842C0 1.06263 1.06263 0 2.36842 0H27.6316C28.9374 0 30 1.06263 30 2.36842V27.6316C30 28.9374 28.9374 30 27.6316 30ZM2.36842 1.57895C1.93263 1.57895 1.57895 1.93263 1.57895 2.36842V27.6316C1.57895 28.0674 1.93263 28.4211 2.36842 28.4211H27.6316C28.0674 28.4211 28.4211 28.0674 28.4211 27.6316V2.36842C28.4211 1.93263 28.0674 1.57895 27.6316 1.57895H2.36842Z" fill="#343434"/>
<path d="M7.75 8.5C7.552 8.5 7.3585 8.4205 7.2205 8.2795C7.0825 8.1385 7 7.9465 7 7.75C7 7.5535 7.0795 7.3585 7.2205 7.2205C7.36 7.081 7.5535 7 7.75 7C7.9465 7 8.14 7.0795 8.2795 7.2205C8.419 7.36 8.5 7.5535 8.5 7.75C8.5 7.9465 8.4205 8.1415 8.2795 8.2795C8.14 8.419 7.9465 8.5 7.75 8.5Z" fill="#343434"/>
<path d="M9.75 8.5C9.552 8.5 9.3585 8.4205 9.2205 8.2795C9.0825 8.1385 9 7.9465 9 7.75C9 7.5535 9.0795 7.3585 9.2205 7.2205C9.36 7.081 9.5535 7 9.75 7C9.9465 7 10.14 7.0795 10.2795 7.2205C10.419 7.36 10.5 7.5535 10.5 7.75C10.5 7.9465 10.4205 8.1415 10.2795 8.2795C10.14 8.419 9.9465 8.5 9.75 8.5Z" fill="#343434"/>
<path d="M11.75 8.5C11.552 8.5 11.3585 8.4205 11.2205 8.2795C11.0825 8.1385 11 7.9465 11 7.75C11 7.5535 11.0795 7.3585 11.2205 7.2205C11.36 7.081 11.5535 7 11.75 7C11.9465 7 12.14 7.0795 12.2795 7.2205C12.419 7.36 12.5 7.5535 12.5 7.75C12.5 7.9465 12.4205 8.1415 12.2795 8.2795C12.14 8.419 11.9465 8.5 11.75 8.5Z" fill="#343434"/>
<path d="M23.1316 25.5H6.86842C5.56263 25.5 4.5 24.4681 4.5 23.2V6.8C4.5 5.53193 5.56263 4.5 6.86842 4.5H23.1316C24.4374 4.5 25.5 5.53193 25.5 6.8V23.2C25.5 24.4681 24.4374 25.5 23.1316 25.5ZM6.86842 6.03333C6.43263 6.03333 6.07895 6.3768 6.07895 6.8V23.2C6.07895 23.6232 6.43263 23.9667 6.86842 23.9667H23.1316C23.5674 23.9667 23.9211 23.6232 23.9211 23.2V6.8C23.9211 6.3768 23.5674 6.03333 23.1316 6.03333H6.86842Z" fill="#343434"/>
</svg>
