<svg width="30" height="30" viewBox="0 0 30 30" fill="none" xmlns="http://www.w3.org/2000/svg">
<path d="M0.75 30C0.336 30 0 29.664 0 29.25V0.75C0 0.336 0.336 0 0.75 0C1.164 0 1.5 0.336 1.5 0.75V29.25C1.5 29.664 1.164 30 0.75 30Z" fill="#343434"/>
<path d="M8.25 12H5.25C4.0095 12 3 10.9905 3 9.75V3.75C3 2.5095 4.0095 1.5 5.25 1.5H8.25C9.4905 1.5 10.5 2.5095 10.5 3.75V9.75C10.5 10.9905 9.4905 12 8.25 12ZM5.25 3C4.836 3 4.5 3.336 4.5 3.75V9.75C4.5 10.164 4.836 10.5 5.25 10.5H8.25C8.664 10.5 9 10.164 9 9.75V3.75C9 3.336 8.664 3 8.25 3H5.25Z" fill="#343434"/>
<path d="M17.25 12H14.25C13.0095 12 12 10.9905 12 9.75V3.75C12 2.5095 13.0095 1.5 14.25 1.5H17.25C18.4905 1.5 19.5 2.5095 19.5 3.75V9.75C19.5 10.9905 18.4905 12 17.25 12ZM14.25 3C13.836 3 13.5 3.336 13.5 3.75V9.75C13.5 10.164 13.836 10.5 14.25 10.5H17.25C17.664 10.5 18 10.164 18 9.75V3.75C18 3.336 17.664 3 17.25 3H14.25Z" fill="#343434"/>
<path d="M26.25 12H23.25C22.0095 12 21 10.9905 21 9.75V3.75C21 2.5095 22.0095 1.5 23.25 1.5H26.25C27.4905 1.5 28.5 2.5095 28.5 3.75V9.75C28.5 10.9905 27.4905 12 26.25 12ZM23.25 3C22.836 3 22.5 3.336 22.5 3.75V9.75C22.5 10.164 22.836 10.5 23.25 10.5H26.25C26.664 10.5 27 10.164 27 9.75V3.75C27 3.336 26.664 3 26.25 3H23.25Z" fill="#343434"/>
</svg>
