<svg width="30" height="30" viewBox="0 0 30 30" fill="none" xmlns="http://www.w3.org/2000/svg">
<path d="M29.25 8.25H0.75C0.336 8.25 0 7.914 0 7.5C0 7.086 0.336 6.75 0.75 6.75H29.25C29.664 6.75 30 7.086 30 7.5C30 7.914 29.664 8.25 29.25 8.25Z" fill="#343434"/>
<path d="M29.25 15.75H0.75C0.336 15.75 0 15.414 0 15C0 14.586 0.336 14.25 0.75 14.25H29.25C29.664 14.25 30 14.586 30 15C30 15.414 29.664 15.75 29.25 15.75Z" fill="#343434"/>
<path d="M29.25 23.25H0.75C0.336 23.25 0 22.914 0 22.5C0 22.086 0.336 21.75 0.75 21.75H29.25C29.664 21.75 30 22.086 30 22.5C30 22.914 29.664 23.25 29.25 23.25Z" fill="#343434"/>
</svg>
