<svg width="30" height="30" viewBox="0 0 30 30" fill="none" xmlns="http://www.w3.org/2000/svg">
  <path d="M27.75 1.5H2.25C1.0095 1.5 0 2.5095 0 3.75V26.25C0 27.4905 1.0095 28.5 2.25 28.5H27.75C28.9905 28.5 30 27.4905 30 26.25V3.75C30 2.5095 28.9905 1.5 27.75 1.5ZM2.25 3H27.75C28.164 3 28.5 3.336 28.5 3.75V7.5H1.5V3.75C1.5 3.336 1.836 3 2.25 3ZM27.75 27H2.25C1.836 27 1.5 26.664 1.5 26.25V9H28.5V26.25C28.5 26.664 28.164 27 27.75 27Z" fill="#343434"/>
  <path d="M4.5 5.25C4.5 5.664 4.164 6 3.75 6C3.336 6 3 5.664 3 5.25C3 4.836 3.336 4.5 3.75 4.5C4.164 4.5 4.5 4.836 4.5 5.25Z" fill="#343434"/>
  <path d="M7.5 5.25C7.5 5.664 7.164 6 6.75 6C6.336 6 6 5.664 6 5.25C6 4.836 6.336 4.5 6.75 4.5C7.164 4.5 7.5 4.836 7.5 5.25Z" fill="#343434"/>
  <path d="M10.5 5.25C10.5 5.664 10.164 6 9.75 6C9.336 6 9 5.664 9 5.25C9 4.836 9.336 4.5 9.75 4.5C10.164 4.5 10.5 4.836 10.5 5.25Z" fill="#343434"/>
</svg>
