<svg width="30" height="30" viewBox="0 0 30 30" fill="none" xmlns="http://www.w3.org/2000/svg">
  <path d="M19.5 22.47H10.8388L2 27.97C1.5 28.47 1.21135 28.6555 0.7 28.47C0.251866 28.3075 0 27.97 0 27.47V11.97C0 9.165 1.092 6.528 3.075 4.545C5.058 2.562 7.695 1.47 10.5 1.47H19.5C22.305 1.47 24.942 2.562 26.925 4.545C28.908 6.528 30 9.165 30 11.97C30 14.775 28.908 17.412 26.925 19.395C24.942 21.378 22.305 22.47 19.5 22.47ZM10.5 2.97C5.538 2.97 1.5 7.008 1.5 11.97V26.47L10.5 20.97H19.5C24.462 20.97 28.5 16.932 28.5 11.97C28.5 7.008 24.462 2.97 19.5 2.97H10.5Z" fill="#343434"/>
</svg>
