<svg width="30" height="30" viewBox="0 0 30 30" fill="none" xmlns="http://www.w3.org/2000/svg">
  <path d="M9.75 20.5C9.552 20.5 9.3585 20.4205 9.2205 20.2795C9.0825 20.1385 9 19.9465 9 19.75C9 19.5535 9.0795 19.3585 9.2205 19.2205C9.36 19.081 9.5535 19 9.75 19C9.9465 19 10.14 19.0795 10.2795 19.2205C10.419 19.36 10.5 19.5535 10.5 19.75C10.5 19.9465 10.4205 20.1415 10.2795 20.2795C10.14 20.419 9.9465 20.5 9.75 20.5Z" fill="#343434"/>
  <path d="M12.75 20.5C12.552 20.5 12.3585 20.4205 12.2205 20.2795C12.0825 20.1385 12 19.9465 12 19.75C12 19.5535 12.0795 19.3585 12.2205 19.2205C12.36 19.081 12.5535 19 12.75 19C12.9465 19 13.14 19.0795 13.2795 19.2205C13.419 19.36 13.5 19.5535 13.5 19.75C13.5 19.9465 13.4205 20.1415 13.2795 20.2795C13.14 20.419 12.9465 20.5 12.75 20.5Z" fill="#343434"/>
  <path d="M0.75 21C0.336 21 0 20.664 0 20.25V9.75C0 9.336 0.336 9 0.75 9C1.164 9 1.5 9.336 1.5 9.75V20.25C1.5 20.664 1.164 21 0.75 21Z" fill="#343434"/>
  <path d="M6.75 20.5C6.552 20.5 6.3585 20.4205 6.2205 20.2795C6.0825 20.1385 6 19.9465 6 19.75C6 19.5535 6.0795 19.3585 6.2205 19.2205C6.36 19.081 6.5535 19 6.75 19C6.9465 19 7.14 19.0795 7.2795 19.2205C7.419 19.36 7.5 19.5535 7.5 19.75C7.5 19.9465 7.4205 20.1415 7.2795 20.2795C7.14 20.419 6.9465 20.5 6.75 20.5Z" fill="#343434"/>
  <path d="M26.2503 21H23.2503C21.0258 21 19.7058 19.2735 19.6503 19.2C19.4013 18.8685 19.4688 18.399 19.8003 18.15C20.1318 17.901 20.6013 17.9685 20.8503 18.3C20.8563 18.309 21.7893 19.5 23.2503 19.5H26.2503C27.4908 19.5 28.5003 18.4905 28.5003 17.25V16.5H23.2503C21.1833 16.5 19.5003 14.817 19.5003 12.75C19.5003 10.683 21.1833 9 23.2503 9H26.2503C28.3173 9 30.0003 10.683 30.0003 12.75V17.25C30.0003 19.317 28.3173 21 26.2503 21ZM23.2503 10.5C22.0098 10.5 21.0003 11.5095 21.0003 12.75C21.0003 13.9905 22.0098 15 23.2503 15H28.5003V12.75C28.5003 11.5095 27.4908 10.5 26.2503 10.5H23.2503Z" fill="#343434"/>
</svg>
