<svg width="30" height="30" viewBox="0 0 30 30" fill="none" xmlns="http://www.w3.org/2000/svg">
<path d="M11 24.0014C11 23.7584 11.1248 23.5214 11.3568 23.3759C11.7248 23.1464 12.2209 23.2394 12.4657 23.5844L15.0003 27.1485L17.5349 23.5844C17.7797 23.2394 18.2773 23.1464 18.6437 23.3759C19.0102 23.6054 19.111 24.0719 18.8661 24.4154L15.6659 28.9155C15.5171 29.124 15.2675 29.25 15.0003 29.25C14.7331 29.25 14.4834 29.124 14.3346 28.9155L11.1344 24.4154C11.0432 24.2879 11 24.1424 11 23.9999V24.0014Z" fill="#343434"/>
<path d="M27.75 24.75H16.7158L15 27.15L13.2647 24.75H2.25C1.0095 24.75 0 23.7405 0 22.5V3C0 1.7595 1.0095 0.75 2.25 0.75H27.75C28.9905 0.75 30 1.7595 30 3V22.5C30 23.7405 28.9905 24.75 27.75 24.75ZM2.25 2.25C1.836 2.25 1.5 2.586 1.5 3V22.5C1.5 22.914 1.836 23.25 2.25 23.25H12L13.2647 24.75L15 27.15L16.7158 24.75L18 23.25H27.75C28.164 23.25 28.5 22.914 28.5 22.5V3C28.5 2.586 28.164 2.25 27.75 2.25H2.25Z" fill="#343434"/>
</svg>
