<svg width="30" height="30" viewBox="0 0 30 30" fill="none" xmlns="http://www.w3.org/2000/svg">
<path d="M27.75 12H27V9.75C27 8.5095 25.9905 7.5 24.75 7.5H2.25C1.0095 7.5 0 8.5095 0 9.75V21.75C0 22.9905 1.0095 24 2.25 24H24.75C25.9905 24 27 22.9905 27 21.75V19.5H27.75C28.9905 19.5 30 18.4905 30 17.25V14.25C30 13.0095 28.9905 12 27.75 12ZM25.5 21.75C25.5 22.164 25.164 22.5 24.75 22.5H2.25C1.836 22.5 1.5 22.164 1.5 21.75V9.75C1.5 9.336 1.836 9 2.25 9H24.75C25.164 9 25.5 9.336 25.5 9.75V21.75ZM28.5 17.25C28.5 17.664 28.164 18 27.75 18H27V13.5H27.75C28.164 13.5 28.5 13.836 28.5 14.25V17.25Z" fill="#343434"/>
<path d="M3.75 21C3.336 21 3 20.664 3 20.25V11.25C3 10.836 3.336 10.5 3.75 10.5C4.164 10.5 4.5 10.836 4.5 11.25V20.25C4.5 20.664 4.164 21 3.75 21Z" fill="#343434"/>
<path d="M6.75 21C6.336 21 6 20.664 6 20.25V11.25C6 10.836 6.336 10.5 6.75 10.5C7.164 10.5 7.5 10.836 7.5 11.25V20.25C7.5 20.664 7.164 21 6.75 21Z" fill="#343434"/>
<path d="M9.75 21C9.336 21 9 20.664 9 20.25V11.25C9 10.836 9.336 10.5 9.75 10.5C10.164 10.5 10.5 10.836 10.5 11.25V20.25C10.5 20.664 10.164 21 9.75 21Z" fill="#343434"/>
<path d="M12.75 21C12.336 21 12 20.664 12 20.25V11.25C12 10.836 12.336 10.5 12.75 10.5C13.164 10.5 13.5 10.836 13.5 11.25V20.25C13.5 20.664 13.164 21 12.75 21Z" fill="#343434"/>
<path d="M15.75 21C15.336 21 15 20.664 15 20.25V11.25C15 10.836 15.336 10.5 15.75 10.5C16.164 10.5 16.5 10.836 16.5 11.25V20.25C16.5 20.664 16.164 21 15.75 21Z" fill="#343434"/>
</svg>
