<svg width="30" height="30" viewBox="0 0 30 30" fill="none" xmlns="http://www.w3.org/2000/svg">
<path d="M0.75 30C0.336 30 0 29.664 0 29.25V0.75C0 0.336 0.336 0 0.75 0C1.164 0 1.5 0.336 1.5 0.75V29.25C1.5 29.664 1.164 30 0.75 30Z" fill="#343434"/>
<path d="M30 0.75C30 1.164 29.664 1.5 29.25 1.5H0.75C0.336 1.5 0 1.164 0 0.75C0 0.336 0.336 0 0.75 0H29.25C29.664 0 30 0.336 30 0.75Z" fill="#343434"/>
<path d="M9.5 12H4.5C3.12167 12 2 11.0386 2 9.85714V4.14286C2 2.96143 3.12167 2 4.5 2H9.5C10.8783 2 12 2.96143 12 4.14286V9.85714C12 11.0386 10.8783 12 9.5 12ZM4.5 3.42857C4.04 3.42857 3.66667 3.74857 3.66667 4.14286V9.85714C3.66667 10.2514 4.04 10.5714 4.5 10.5714H9.5C9.96 10.5714 10.3333 10.2514 10.3333 9.85714V4.14286C10.3333 3.74857 9.96 3.42857 9.5 3.42857H4.5Z" fill="#343434"/>
</svg>
