<svg width="30" height="30" viewBox="0 0 30 30" fill="none" xmlns="http://www.w3.org/2000/svg">
<path d="M0.75 30C0.336 30 0 29.664 0 29.25V0.75C0 0.336 0.336 0 0.75 0C1.164 0 1.5 0.336 1.5 0.75V29.25C1.5 29.664 1.164 30 0.75 30Z" fill="#343434"/>
<path d="M30 0.75C30 1.164 29.664 1.5 29.25 1.5H0.75C0.336 1.5 0 1.164 0 0.75C0 0.336 0.336 0 0.75 0H29.25C29.664 0 30 0.336 30 0.75Z" fill="#343434"/>
<path d="M16.5 19H11.5C10.1217 19 9 18.0386 9 16.8571V11.1429C9 9.96143 10.1217 9 11.5 9H16.5C17.8783 9 19 9.96143 19 11.1429V16.8571C19 18.0386 17.8783 19 16.5 19ZM11.5 10.4286C11.04 10.4286 10.6667 10.7486 10.6667 11.1429V16.8571C10.6667 17.2514 11.04 17.5714 11.5 17.5714H16.5C16.96 17.5714 17.3333 17.2514 17.3333 16.8571V11.1429C17.3333 10.7486 16.96 10.4286 16.5 10.4286H11.5Z" fill="#343434"/>
</svg>
