<svg width="30" height="30" viewBox="0 0 30 30" fill="none" xmlns="http://www.w3.org/2000/svg">
  <path d="M27.75 11.5H27V9.25C27 8.0095 25.9905 7 24.75 7H2.25C1.0095 7 0 8.0095 0 9.25V21.25C0 22.4905 1.0095 23.5 2.25 23.5H24.75C25.9905 23.5 27 22.4905 27 21.25V19H27.75C28.9905 19 30 17.9905 30 16.75V13.75C30 12.5095 28.9905 11.5 27.75 11.5ZM25.5 21.25C25.5 21.664 25.164 22 24.75 22H2.25C1.836 22 1.5 21.664 1.5 21.25V9.25C1.5 8.836 1.836 8.5 2.25 8.5H24.75C25.164 8.5 25.5 8.836 25.5 9.25V21.25ZM28.5 16.75C28.5 17.164 28.164 17.5 27.75 17.5H27V13H27.75C28.164 13 28.5 13.336 28.5 13.75V16.75Z" fill="#343434"/>
  <path fill-rule="evenodd" d="M3.0369 10.6935C3.0369 10.2793 3.37268 9.94348 3.7869 9.94348H7.04316C7.45737 9.94348 7.79316 10.2793 7.79316 10.6935V19.8066C7.79316 20.2208 7.45737 20.5566 7.04316 20.5566H3.7869C3.37268 20.5566 3.0369 20.2208 3.0369 19.8066V10.6935ZM4.5369 11.4435V19.0566H6.29316V11.4435H4.5369Z" fill="#343434"/>
  <path fill-rule="evenodd" d="M9.29317 10.6935C9.29317 10.2793 9.62895 9.94348 10.0432 9.94348H13.2994C13.7136 9.94348 14.0494 10.2793 14.0494 10.6935V19.8066C14.0494 20.2208 13.7136 20.5566 13.2994 20.5566H10.0432C9.62895 20.5566 9.29317 20.2208 9.29317 19.8066V10.6935ZM10.7932 11.4435V19.0566H12.5494V11.4435H10.7932Z" fill="#343434"/>
  <path fill-rule="evenodd" d="M15.5494 10.6935C15.5494 10.2793 15.8852 9.94348 16.2994 9.94348H19.5557C19.9699 9.94348 20.3057 10.2793 20.3057 10.6935V19.8066C20.3057 20.2208 19.9699 20.5566 19.5557 20.5566H16.2994C15.8852 20.5566 15.5494 20.2208 15.5494 19.8066V10.6935ZM17.0494 11.4435V19.0566H18.8057V11.4435H17.0494Z" fill="#343434"/>
</svg>
