<svg width="30" height="30" viewBox="0 0 30 30" fill="none" xmlns="http://www.w3.org/2000/svg">
<path d="M4.75 20.5C4.552 20.5 4.3585 20.4205 4.2205 20.2795C4.0825 20.1385 4 19.9465 4 19.75C4 19.5535 4.0795 19.3585 4.2205 19.2205C4.36 19.081 4.5535 19 4.75 19C4.9465 19 5.14 19.0795 5.2795 19.2205C5.419 19.36 5.5 19.5535 5.5 19.75C5.5 19.9465 5.4205 20.1415 5.2795 20.2795C5.14 20.419 4.9465 20.5 4.75 20.5Z" fill="#343434"/>
<path d="M6.75 20.5C6.552 20.5 6.3585 20.4205 6.2205 20.2795C6.0825 20.1385 6 19.9465 6 19.75C6 19.5535 6.0795 19.3585 6.2205 19.2205C6.36 19.081 6.5535 19 6.75 19C6.9465 19 7.14 19.0795 7.2795 19.2205C7.419 19.36 7.5 19.5535 7.5 19.75C7.5 19.9465 7.4205 20.1415 7.2795 20.2795C7.14 20.419 6.9465 20.5 6.75 20.5Z" fill="#343434"/>
<path d="M0.75 20.5C0.336 20.5 0 20.164 0 19.75V10.75C0 10.336 0.336 10 0.75 10C1.164 10 1.5 10.336 1.5 10.75V19.75C1.5 20.164 1.164 20.5 0.75 20.5Z" fill="#343434"/>
<path d="M2.75 20.5C2.552 20.5 2.3585 20.4205 2.2205 20.2795C2.0825 20.1385 2 19.9465 2 19.75C2 19.5535 2.0795 19.3585 2.2205 19.2205C2.36 19.081 2.5535 19 2.75 19C2.9465 19 3.14 19.0795 3.2795 19.2205C3.419 19.36 3.5 19.5535 3.5 19.75C3.5 19.9465 3.4205 20.1415 3.2795 20.2795C3.14 20.419 2.9465 20.5 2.75 20.5Z" fill="#343434"/>
<path d="M14.7503 21H11.7503C9.52578 21 8.20579 19.2735 8.15029 19.2C7.90129 18.8685 7.96878 18.399 8.30028 18.15C8.63178 17.901 9.10128 17.9685 9.35028 18.3C9.35628 18.309 10.2893 19.5 11.7503 19.5H14.7503C15.9908 19.5 17.0003 18.4905 17.0003 17.25V16.5H11.7503C9.68328 16.5 8.00028 14.817 8.00028 12.75C8.00028 10.683 9.68328 9 11.7503 9H14.7503C16.8173 9 18.5003 10.683 18.5003 12.75V17.25C18.5003 19.317 16.8173 21 14.7503 21V21ZM11.7503 10.5C10.5098 10.5 9.50028 11.5095 9.50028 12.75C9.50028 13.9905 10.5098 15 11.7503 15H17.0003V12.75C17.0003 11.5095 15.9908 10.5 14.7503 10.5H11.7503Z" fill="#343434"/>
<path d="M24.7504 20.2474C24.5584 20.2474 24.3664 20.1739 24.2194 20.0284C23.9269 19.7359 23.9269 19.2604 24.2194 18.9679L28.1884 14.9989L24.2194 11.0299C23.9269 10.7374 23.9269 10.2619 24.2194 9.96938C24.5119 9.67687 24.9874 9.67687 25.2799 9.96938L29.7799 14.4694C30.0724 14.7619 30.0724 15.2374 29.7799 15.5299L25.2799 20.0299C25.1329 20.1769 24.9409 20.2489 24.7489 20.2489L24.7504 20.2474Z" fill="#343434"/>
</svg>
