<svg width="30" height="30" viewBox="0 0 30 30" fill="none" xmlns="http://www.w3.org/2000/svg">
<path d="M6.57194 15.235L2.4015 18.1552C2.01782 18.4238 1.48838 18.3305 1.21973 17.9468C0.951072 17.5631 1.04443 17.0337 1.42811 16.765L5.59855 13.8448C5.98223 13.5762 6.51166 13.6695 6.78032 14.0532C7.04897 14.4369 6.95562 14.9663 6.57194 15.235Z" fill="#343434"/>
<path d="M5.59854 18.1552L1.4281 15.235C1.04442 14.9663 0.951069 14.4369 1.21973 14.0532C1.48838 13.6695 2.01781 13.5762 2.40149 13.8449L6.57194 16.765C6.95562 17.0337 7.04897 17.5631 6.78031 17.9468C6.51166 18.3305 5.98222 18.4238 5.59854 18.1552Z" fill="#343434"/>
<path d="M4.84855 13.4544V18.5456C4.84855 19.014 4.4684 19.3941 4.00002 19.3941C3.53163 19.3941 3.15149 19.014 3.15149 18.5456L3.15149 13.4544C3.15149 12.9861 3.53163 12.6059 4.00002 12.6059C4.4684 12.6059 4.84855 12.9861 4.84855 13.4544Z" fill="#343434"/>
<path d="M17.5719 15.235L13.4015 18.1552C13.0178 18.4238 12.4884 18.3305 12.2197 17.9468C11.9511 17.5631 12.0444 17.0337 12.4281 16.765L16.5985 13.8448C16.9822 13.5762 17.5117 13.6695 17.7803 14.0532C18.049 14.4369 17.9556 14.9663 17.5719 15.235Z" fill="#343434"/>
<path d="M16.5985 18.1552L12.4281 15.235C12.0444 14.9663 11.9511 14.4369 12.2197 14.0532C12.4884 13.6695 13.0178 13.5762 13.4015 13.8449L17.5719 16.765C17.9556 17.0337 18.049 17.5631 17.7803 17.9468C17.5117 18.3305 16.9822 18.4238 16.5985 18.1552Z" fill="#343434"/>
<path d="M15.8485 13.4544V18.5456C15.8485 19.014 15.4684 19.3941 15 19.3941C14.5316 19.3941 14.1515 19.014 14.1515 18.5456V13.4544C14.1515 12.9861 14.5316 12.6059 15 12.6059C15.4684 12.6059 15.8485 12.9861 15.8485 13.4544Z" fill="#343434"/>
<path d="M28.5719 15.235L24.4015 18.1552C24.0178 18.4238 23.4884 18.3305 23.2197 17.9468C22.9511 17.5631 23.0444 17.0337 23.4281 16.765L27.5985 13.8448C27.9822 13.5762 28.5117 13.6695 28.7803 14.0532C29.049 14.4369 28.9556 14.9663 28.5719 15.235Z" fill="#343434"/>
<path d="M27.5985 18.1552L23.4281 15.235C23.0444 14.9663 22.9511 14.4369 23.2197 14.0532C23.4884 13.6695 24.0178 13.5762 24.4015 13.8449L28.5719 16.765C28.9556 17.0337 29.049 17.5631 28.7803 17.9468C28.5117 18.3305 27.9822 18.4238 27.5985 18.1552Z" fill="#343434"/>
<path d="M26.8485 13.4544V18.5456C26.8485 19.014 26.4684 19.3941 26 19.3941C25.5316 19.3941 25.1515 19.014 25.1515 18.5456V13.4544C25.1515 12.9861 25.5316 12.6059 26 12.6059C26.4684 12.6059 26.8485 12.9861 26.8485 13.4544Z" fill="#343434"/>
</svg>
