<svg width="30" height="30" viewBox="0 0 30 30" fill="none" xmlns="http://www.w3.org/2000/svg">
  <path d="M22.5 26.5H7.50001C6.67302 26.5 6.00001 27.173 6.00001 28V28.5C6.00001 29.327 6.67302 30 7.50001 30H22.5C23.327 30 24 29.327 24 28.5V28C24 27.173 23.327 26.5 22.5 26.5ZM23 28.5C23 28.7755 22.776 29 22.5 29H7.50001C7.2245 29 7.00003 28.7755 7.00003 28.5V28C7.00003 27.7245 7.2245 27.5001 7.50001 27.5001H22.5C22.776 27.5001 23 27.7245 23 28V28.5Z" fill="#343434"/>
  <path d="M20 24.5H10C9.17301 24.5 8.50001 25.173 8.50001 26C8.50001 26.827 9.17301 27.5 10 27.5H20C20.827 27.5 21.5 26.827 21.5 26C21.5 25.173 20.827 24.5 20 24.5ZM20 26.5H10C9.7245 26.5 9.50003 26.2755 9.50003 26C9.50003 25.7245 9.7245 25.5 10 25.5H20C20.276 25.5 20.5 25.7245 20.5 26C20.5 26.2755 20.276 26.5 20 26.5Z" fill="#343434"/>
  <path d="M19.5 14.5H10.5C10.224 14.5 10 14.724 10 15V17C10 17.276 10.224 17.5 10.5 17.5H19.5C19.776 17.5 20 17.276 20 17V15C20 14.724 19.776 14.5 19.5 14.5ZM19 16.5H11V15.5H19L19 16.5Z" fill="#343434"/>
  <path d="M18 10.5H12C11.7241 10.5 11.5 10.724 11.5 10.9999V15C11.5 15.276 11.7241 15.5 12 15.5H18C18.276 15.5 18.5 15.276 18.5 15V11C18.5 10.724 18.276 10.5 18 10.5ZM17.5 14.5H12.5001V11.5H17.5V14.5Z" fill="#343434"/>
  <path d="M18.9745 20.342C18.6595 19.3975 18.5 18.414 18.5 17.419V17C18.5 16.724 18.276 16.5 18 16.5H12C11.724 16.5 11.5 16.724 11.5 17V17.419C11.5 18.414 11.3405 19.3975 11.0255 20.342C10.6805 21.3785 10.5 21.971 10.5 23.081V25C10.5 25.276 10.724 25.5 11 25.5H19C19.2759 25.5 19.4999 25.276 19.4999 25V23.081C19.5 21.971 19.32 21.3785 18.9745 20.342ZM18.5 24.5H11.5V23.081C11.5 22.122 11.6455 21.645 11.9745 20.658C12.315 19.637 12.4915 18.575 12.5 17.4999H17.5005C17.5086 18.575 17.6855 19.6369 18.0255 20.658C18.3545 21.645 18.5 22.122 18.5 23.081L18.5 24.5Z" fill="#343434"/>
  <path d="M21 5.99997H19C18.724 5.99997 18.5 6.22397 18.5 6.49995V7.99995H17V6.99993C17 6.72395 16.776 6.49995 16.5001 6.49995H13.5001C13.2241 6.49995 13.0001 6.72395 13.0001 6.99993V7.99995H11.5001V6.49995C11.5001 6.22397 11.2761 5.99997 11.0001 5.99997H8.99999C8.72401 5.99997 8.50001 6.22397 8.50001 6.49995V8.99997C8.50001 9.10796 8.53499 9.21349 8.60003 9.29997L10.1 11.3C10.1945 11.4259 10.343 11.4999 10.5 11.4999H19.5001C19.6576 11.4999 19.8056 11.4259 19.9001 11.3L21.4001 9.29997C21.4651 9.21349 21.5001 9.10796 21.5001 8.99997V6.49995C21.5 6.22397 21.276 5.99997 21 5.99997ZM20.5 8.83345L19.25 10.5H10.75L9.50003 8.83345V6.99993H10.5V8.49993C10.5 8.77591 10.724 8.99991 11 8.99991H13.5C13.776 8.99991 14 8.77591 14 8.49993V7.49997H16V8.49999C16 8.77597 16.224 8.99997 16.4999 8.99997H19C19.2759 8.99997 19.4999 8.77597 19.4999 8.49999V6.99999H20.5L20.5 8.83345Z" fill="#343434"/>
  <path d="M19.8275 6.07301L19.625 5.9485C18.8765 5.48701 17.7855 4.814 16.5 4.59697V4.5H17.5C17.776 4.5 18 4.276 18 4.00002V1.99998C18 1.724 17.776 1.5 17.5 1.5H16.5V0.49998C16.5 0.224004 16.276 0 16 0H14C13.7241 0 13.5001 0.224004 13.5001 0.49998V1.5H12.5C12.2241 1.5 12.0001 1.724 12.0001 1.99998V3.99996C12.0001 4.27594 12.2241 4.49994 12.5 4.49994H13.5V4.59697C12.2145 4.81348 11.124 5.48695 10.375 5.9485L10.1725 6.07301C9.98103 6.18949 9.89051 6.41953 9.95103 6.63498C10.0116 6.85096 10.2086 6.99996 10.4326 6.99996L10.5 6.99993V8.49993C10.5 8.77591 10.724 8.99991 11 8.99991H13.5C13.776 8.99991 14 8.77591 14 8.49993V7.49997H16V8.49999C16 8.77597 16.224 8.99997 16.4999 8.99997H19C19.2759 8.99997 19.4999 8.77597 19.4999 8.49999V6.99999L19.567 7.00002C19.7905 7.00002 19.9875 6.85101 20.0485 6.63504C20.109 6.41947 20.019 6.18949 19.8275 6.07301ZM18.5 6.49995V7.99995H17V6.99993C17 6.72395 16.776 6.49995 16.5001 6.49995H13.5001C13.2241 6.49995 13.0001 6.72395 13.0001 6.99993V7.99995H11.5001V6.49995C11.5001 6.47997 11.4985 6.45996 11.4965 6.43998C12.2105 6.02695 13.08 5.60947 14.0375 5.53746C14.2985 5.51795 14.5 5.30045 14.5 5.03895V4.00002C14.5 3.72404 14.276 3.50004 14 3.50004H13V2.50002H14C14.276 2.50002 14.5 2.27602 14.5 2.00004V1.00002H15.5V2.00004C15.5 2.27602 15.724 2.50002 16 2.50002H17V3.50004H16C15.724 3.50004 15.5 3.72404 15.5 4.00002V5.039C15.5 5.30051 15.7015 5.51801 15.9625 5.53752C16.92 5.60953 17.789 6.02701 18.5034 6.44004C18.501 6.45949 18.5 6.47944 18.5 6.49995Z" fill="#343434"/>
</svg>
