<svg width="30" height="30" viewBox="0 0 30 30" fill="none" xmlns="http://www.w3.org/2000/svg">
<path d="M27.6316 26.5H2.36842C1.06263 26.5 0 25.4681 0 24.2V5.8C0 4.53193 1.06263 3.5 2.36842 3.5H27.6316C28.9374 3.5 30 4.53193 30 5.8V24.2C30 25.4681 28.9374 26.5 27.6316 26.5ZM2.36842 5.03333C1.93263 5.03333 1.57895 5.3768 1.57895 5.8V24.2C1.57895 24.6232 1.93263 24.9667 2.36842 24.9667H27.6316C28.0674 24.9667 28.4211 24.6232 28.4211 24.2V5.8C28.4211 5.3768 28.0674 5.03333 27.6316 5.03333H2.36842Z" fill="#343434"/>
<path d="M26.2487 6.5H21.7498C21.3359 6.5 21 6.836 21 7.25C21 7.664 21.3359 8 21.7498 8H24.4386L21.2204 11.219C20.928 11.5115 20.928 11.987 21.2204 12.2795C21.3674 12.4265 21.5594 12.4985 21.7513 12.4985C21.9433 12.4985 22.1352 12.425 22.2822 12.2795L25.5004 9.0605V11.75C25.5004 12.164 25.8363 12.5 26.2502 12.5C26.6641 12.5 27 12.164 27 11.75V7.25C27 6.836 26.6641 6.5 26.2502 6.5H26.2487Z" fill="#343434"/>
<path d="M8.25 22H5.5605L8.7795 18.781C9.072 18.4885 9.072 18.013 8.7795 17.7205C8.487 17.428 8.0115 17.428 7.719 17.7205L4.5 20.9395V18.25C4.5 17.836 4.164 17.5 3.75 17.5C3.336 17.5 3 17.836 3 18.25V22.75C3 23.164 3.336 23.5 3.75 23.5H8.25C8.664 23.5 9 23.164 9 22.75C9 22.336 8.664 22 8.25 22Z" fill="#343434"/>
</svg>
