<svg width="30" height="30" viewBox="0 0 30 30" fill="none" xmlns="http://www.w3.org/2000/svg">
<path d="M0.75 30C0.336 30 0 29.664 0 29.25V0.75C0 0.336 0.336 0 0.75 0C1.164 0 1.5 0.336 1.5 0.75V29.25C1.5 29.664 1.164 30 0.75 30Z" fill="#343434"/>
<path d="M29.25 30C28.836 30 28.5 29.664 28.5 29.25V0.75C28.5 0.336 28.836 0 29.25 0C29.664 0 30 0.336 30 0.75V29.25C30 29.664 29.664 30 29.25 30Z" fill="#343434"/>
<path d="M23.25 12H20.25C19.0095 12 18 10.9905 18 9.75V3.75C18 2.5095 19.0095 1.5 20.25 1.5H23.25C24.4905 1.5 25.5 2.5095 25.5 3.75V9.75C25.5 10.9905 24.4905 12 23.25 12ZM20.25 3C19.836 3 19.5 3.336 19.5 3.75V9.75C19.5 10.164 19.836 10.5 20.25 10.5H23.25C23.664 10.5 24 10.164 24 9.75V3.75C24 3.336 23.664 3 23.25 3H20.25Z" fill="#343434"/>
</svg>
