<svg width="30" height="30" viewBox="0 0 30 30" fill="none" xmlns="http://www.w3.org/2000/svg">
<path d="M15 30C10.9935 30 7.227 28.44 4.3935 25.6065C1.56 22.773 0 19.0065 0 15C0 10.9935 1.56 7.227 4.3935 4.3935C7.227 1.56 10.9935 0 15 0C19.0065 0 22.773 1.56 25.6065 4.3935C28.44 7.227 30 10.9935 30 15C30 19.0065 28.44 22.773 25.6065 25.6065C22.773 28.44 19.0065 30 15 30V30ZM15 1.5C7.5555 1.5 1.5 7.5555 1.5 15C1.5 22.4445 7.5555 28.5 15 28.5C22.4445 28.5 28.5 22.4445 28.5 15C28.5 7.5555 22.4445 1.5 15 1.5Z" fill="#343434"/>
<path d="M15 24C10.038 24 6 19.962 6 15C6 10.038 10.038 6 15 6C19.962 6 24 10.038 24 15C24 19.962 19.962 24 15 24ZM15 7.5C10.8645 7.5 7.5 10.8645 7.5 15C7.5 19.1355 10.8645 22.5 15 22.5C19.1355 22.5 22.5 19.1355 22.5 15C22.5 10.8645 19.1355 7.5 15 7.5Z" fill="#343434"/>
</svg>
