<svg width="30" height="30" viewBox="0 0 30 30" fill="none" xmlns="http://www.w3.org/2000/svg">
<path d="M18.25 21.5H11.75C10.5095 21.5 9.5 20.4905 9.5 19.25V10.25C9.5 9.0095 10.5095 8 11.75 8H18.25C19.4905 8 20.5 9.0095 20.5 10.25V19.25C20.5 20.4905 19.4905 21.5 18.25 21.5ZM11.75 9.5C11.336 9.5 11 9.836 11 10.25V19.25C11 19.664 11.336 20 11.75 20H18.25C18.664 20 19 19.664 19 19.25V10.25C19 9.836 18.664 9.5 18.25 9.5H11.75Z" fill="#343434"/>
<path d="M8.75 21.5H2.25C1.0095 21.5 0 20.4905 0 19.25V10.25C0 9.0095 1.0095 8 2.25 8H8.75C9.9905 8 11 9.0095 11 10.25V19.25C11 20.4905 9.9905 21.5 8.75 21.5ZM2.25 9.5C1.836 9.5 1.5 9.836 1.5 10.25V19.25C1.5 19.664 1.836 20 2.25 20H8.75C9.164 20 9.5 19.664 9.5 19.25V10.25C9.5 9.836 9.164 9.5 8.75 9.5H2.25Z" fill="#343434"/>
<path d="M27.75 21.5H21.25C20.0095 21.5 19 20.4905 19 19.25V10.25C19 9.0095 20.0095 8 21.25 8H27.75C28.9905 8 30 9.0095 30 10.25V19.25C30 20.4905 28.9905 21.5 27.75 21.5ZM21.25 9.5C20.836 9.5 20.5 9.836 20.5 10.25V19.25C20.5 19.664 20.836 20 21.25 20H27.75C28.164 20 28.5 19.664 28.5 19.25V10.25C28.5 9.836 28.164 9.5 27.75 9.5H21.25Z" fill="#343434"/>
</svg>
