<svg width="30" height="30" viewBox="0 0 30 30" fill="none" xmlns="http://www.w3.org/2000/svg">
  <path d="M19.9823 17.9123C17.7853 17.9123 15.9965 16.1004 15.9965 13.875C15.9965 11.6497 17.7853 9.83773 19.9823 9.83773C22.1793 9.83773 23.9681 11.6497 23.9681 13.875C23.9681 16.1004 22.1793 17.9123 19.9823 17.9123ZM19.9823 11.4526C18.6638 11.4526 17.5908 12.5395 17.5908 13.875C17.5908 15.2105 18.6638 16.2974 19.9823 16.2974C21.3008 16.2974 22.3738 15.2105 22.3738 13.875C22.3738 12.5395 21.3008 11.4526 19.9823 11.4526Z" fill="#343434"/>
  <path d="M10.0177 17.9123C7.82074 17.9123 6.0319 16.1004 6.0319 13.875C6.0319 11.6497 7.82074 9.83773 10.0177 9.83773C12.2147 9.83773 14.0036 11.6497 14.0036 13.875C14.0036 16.1004 12.2147 17.9123 10.0177 17.9123ZM10.0177 11.4526C8.69922 11.4526 7.62624 12.5395 7.62624 13.875C7.62624 15.2105 8.69922 16.2974 10.0177 16.2974C11.3362 16.2974 12.4092 15.2105 12.4092 13.875C12.4092 12.5395 11.3362 11.4526 10.0177 11.4526Z" fill="#343434"/>
  <path fill-rule="evenodd" clip-rule="evenodd" d="M15 1.51398C8.23409 1.51398 3.49469 7.05383 3.49469 14.043V18.2722L9.72198 21.5942C10.0872 21.789 10.2273 22.2468 10.035 22.6167C9.84264 22.9866 9.39068 23.1285 9.02548 22.9337L8.23434 22.5117V28.486H11.9074V25.4967C11.9074 25.0786 12.242 24.7397 12.6547 24.7397C13.0675 24.7397 13.4021 25.0786 13.4021 25.4967V28.486H16.5979V25.4967C16.5979 25.0786 16.9325 24.7397 17.3453 24.7397C17.758 24.7397 18.0926 25.0786 18.0926 25.4967V28.486H21.7657V22.5117L20.9745 22.9337C20.6093 23.1285 20.1574 22.9866 19.965 22.6167C19.7727 22.2468 19.9128 21.789 20.278 21.5942L26.5053 18.2722V14.043C26.5053 7.05383 21.7659 1.51398 15 1.51398ZM23.2603 21.7143L27.6009 19.3989C27.8463 19.2679 28 19.0101 28 18.7291V14.043C28 6.35685 22.7224 0 15 0C7.27759 0 2 6.35685 2 14.043V18.7291C2 19.0101 2.15365 19.2679 2.3991 19.3989L6.73965 21.7143V29.243C6.73965 29.6611 7.07425 30 7.487 30H22.513C22.9258 30 23.2603 29.6611 23.2603 29.243V21.7143ZM15 19.8449L13.5346 21.3292C13.2427 21.6248 12.7695 21.6248 12.4777 21.3292C12.1858 21.0336 12.1858 20.5543 12.4777 20.2587L14.4715 18.2391C14.7634 17.9434 15.2366 17.9434 15.5285 18.2391L17.5223 20.2587C17.8142 20.5543 17.8142 21.0336 17.5223 21.3292C17.2305 21.6248 16.7573 21.6248 16.4654 21.3292L15 19.8449Z" fill="#343434"/>
</svg>
