<svg width="30" height="30" viewBox="0 0 30 30" fill="none" xmlns="http://www.w3.org/2000/svg">
  <path d="M2.25 20C1.0095 20 0 18.9905 0 17.75L0 11.25C0 10.0095 1.0095 9 2.25 9H27.75C28.9905 9 30 10.0095 30 11.25V17.75C30 18.9905 28.9905 20 27.75 20H2.25ZM8.75 10.5H2.25C1.836 10.5 1.5 10.836 1.5 11.25V17.75C1.5 18.164 1.836 18.5 2.25 18.5H8.75C9.164 18.5 9.5 18.164 9.5 17.75V11.25C9.5 10.836 9.164 10.5 8.75 10.5ZM11.75 18.5H18.25C18.664 18.5 19 18.164 19 17.75V11.25C19 10.836 18.664 10.5 18.25 10.5H11.75C11.336 10.5 11 10.836 11 11.25V17.75C11 18.164 11.336 18.5 11.75 18.5ZM21.25 18.5H27.75C28.164 18.5 28.5 18.164 28.5 17.75V11.25C28.5 10.836 28.164 10.5 27.75 10.5H21.25C20.836 10.5 20.5 10.836 20.5 11.25V17.75C20.5 18.164 20.836 18.5 21.25 18.5Z" fill="#343434"/>
</svg>
