<svg width="30" height="30" viewBox="0 0 30 30" fill="none" xmlns="http://www.w3.org/2000/svg">
<path d="M21.75 8.24997C21.558 8.24997 21.366 8.17647 21.219 8.03097L18.219 5.03097C17.9265 4.73847 17.9265 4.26297 18.219 3.97047C18.5115 3.67797 18.987 3.67797 19.2795 3.97047L21.7485 6.43947L24.2175 3.97047C24.51 3.67797 24.9855 3.67797 25.278 3.97047C25.5705 4.26297 25.5705 4.73847 25.278 5.03097L22.278 8.03097C22.131 8.17797 21.939 8.24997 21.747 8.24997H21.75Z" fill="#343434"/>
<path d="M27.75 0H2.25C1.0095 0 0 1.0095 0 2.25V9.75C0 10.9905 1.0095 12 2.25 12H6V27.75C6 28.9905 7.0095 30 8.25 30H27.75C28.9905 30 30 28.9905 30 27.75V2.25C30 1.0095 28.9905 0 27.75 0ZM1.5 9.75V2.25C1.5 1.836 1.836 1.5 2.25 1.5H27.75C28.164 1.5 28.5 1.836 28.5 2.25V9.75C28.5 10.164 28.164 10.5 27.75 10.5H2.25C1.836 10.5 1.5 10.164 1.5 9.75ZM27.75 28.5H8.25C7.836 28.5 7.5 28.164 7.5 27.75V12H27.75C28.0125 12 28.2645 11.9535 28.5 11.871V27.75C28.5 28.164 28.164 28.5 27.75 28.5Z" fill="#343434"/>
<path d="M24.75 16.5H11.25C10.836 16.5 10.5 16.164 10.5 15.75C10.5 15.336 10.836 15 11.25 15H24.75C25.164 15 25.5 15.336 25.5 15.75C25.5 16.164 25.164 16.5 24.75 16.5Z" fill="#343434"/>
<path d="M24.75 21H11.25C10.836 21 10.5 20.664 10.5 20.25C10.5 19.836 10.836 19.5 11.25 19.5H24.75C25.164 19.5 25.5 19.836 25.5 20.25C25.5 20.664 25.164 21 24.75 21Z" fill="#343434"/>
<path d="M24.75 25.5H11.25C10.836 25.5 10.5 25.164 10.5 24.75C10.5 24.336 10.836 24 11.25 24H24.75C25.164 24 25.5 24.336 25.5 24.75C25.5 25.164 25.164 25.5 24.75 25.5Z" fill="#343434"/>
</svg>
