<svg width="30" height="30" viewBox="0 0 30 30" fill="none" xmlns="http://www.w3.org/2000/svg">
<path d="M22.6471 30C22.2249 30 21.8824 29.6463 21.8824 29.2105V24.4737C21.8824 22.3832 23.1196 20.3211 24.6995 19.7779C25.6432 19.4526 26.4706 17.9589 26.4706 16.5789V13.4211C26.4706 6.89053 21.3256 1.57895 15 1.57895C8.67435 1.57895 3.52941 6.89053 3.52941 13.4211V16.5789C3.52941 17.9574 4.35682 19.4526 5.30047 19.7779C6.88035 20.3211 8.11765 22.3847 8.11765 24.4737V29.2105C8.11765 29.6463 7.77506 30 7.35294 30C6.93082 30 6.58824 29.6463 6.58824 29.2105V24.4737C6.58824 23.0953 5.76082 21.6 4.81718 21.2747C3.23729 20.7316 2 18.6679 2 16.5789V13.4211C2 9.83684 3.352 6.46579 5.80824 3.93158C8.26447 1.39737 11.5282 0 15 0C18.4718 0 21.7371 1.39579 24.1918 3.93158C26.6465 6.46737 28 9.83684 28 13.4211V16.5789C28 18.6695 26.7627 20.7316 25.1828 21.2747C24.2392 21.6 23.4118 23.0937 23.4118 24.4737V29.2105C23.4118 29.6463 23.0692 30 22.6471 30V30Z" fill="#343434"/>
<path d="M10.75 30C10.198 30 10 29.6267 10 29.1667V25.8333C10 25.3733 10.198 25 10.75 25C11.302 25 11.5 25.3733 11.5 25.8333V29.1667C11.5 29.6267 11.302 30 10.75 30Z" fill="#343434"/>
<path d="M13.5 30C12.86 30 12.75 29.6267 12.75 29.1667V25.8333C12.75 25.3733 12.8627 25 13.5 25C14.1373 25 14.25 25.3733 14.25 25.8333V29.1667C14.25 29.6267 14.14 30 13.5 30Z" fill="#343434"/>
<path d="M16.5 30C15.86 30 15.75 29.6267 15.75 29.1667V25.8333C15.75 25.3733 15.86 25 16.5 25C17.14 25 17.25 25.3733 17.25 25.8333V29.1667C17.25 29.6267 17.14 30 16.5 30Z" fill="#343434"/>
<path d="M19.25 30C18.61 30 18.5 29.6267 18.5 29.1667V25.8333C18.5 25.3733 18.61 25 19.25 25C19.89 25 20 25.3733 20 25.8333V29.1667C20 29.6267 19.89 30 19.25 30Z" fill="#343434"/>
<path d="M20 19C17.7952 19 16 17.2048 16 15C16 12.7952 17.7952 11 20 11C22.2048 11 24 12.7952 24 15C24 17.2048 22.2048 19 20 19ZM20 12.6C18.6768 12.6 17.6 13.6768 17.6 15C17.6 16.3232 18.6768 17.4 20 17.4C21.3232 17.4 22.4 16.3232 22.4 15C22.4 13.6768 21.3232 12.6 20 12.6Z" fill="#343434"/>
<path d="M10 19C7.7952 19 6 17.2048 6 15C6 12.7952 7.7952 11 10 11C12.2048 11 14 12.7952 14 15C14 17.2048 12.2048 19 10 19ZM10 12.6C8.6768 12.6 7.6 13.6768 7.6 15C7.6 16.3232 8.6768 17.4 10 17.4C11.3232 17.4 12.4 16.3232 12.4 15C12.4 13.6768 11.3232 12.6 10 12.6Z" fill="#343434"/>
<path d="M16.7125 23C16.5154 23 16.3036 22.9698 16.0808 22.9123C15.8106 22.8418 15.4181 22.8015 15 22.8015C14.5819 22.8015 14.1894 22.8418 13.9192 22.9123C13.6964 22.9712 13.4846 23 13.2875 23C12.7982 23 12.3892 22.8216 12.1665 22.5095C11.9656 22.2291 11.8451 21.7386 12.4184 20.9863L13.2783 19.8572C13.6928 19.3121 14.3208 19 15 19C15.6792 19 16.3072 19.3121 16.7217 19.8572L17.5816 20.9863C18.1549 21.7386 18.0344 22.2305 17.8335 22.5095C17.609 22.8216 17.2 23 16.7125 23V23ZM15 21.3617C15.2629 21.3617 15.5203 21.3732 15.7668 21.3963L15.157 20.5951C15.0895 20.5059 15.031 20.4642 15 20.4455C14.969 20.4642 14.9105 20.5059 14.843 20.5951L14.2332 21.3963C14.4778 21.3732 14.7371 21.3617 15 21.3617Z" fill="#343434"/>
</svg>
