<svg width="30" height="30" viewBox="0 0 30 30" fill="none" xmlns="http://www.w3.org/2000/svg">
<path d="M19.5 25.5H10.5C7.695 25.5 5.058 24.408 3.075 22.425C1.092 20.442 0 17.805 0 15C0 12.195 1.092 9.558 3.075 7.575C5.058 5.592 7.695 4.5 10.5 4.5H19.5C22.305 4.5 24.942 5.592 26.925 7.575C28.908 9.558 30 12.195 30 15C30 17.805 28.908 20.442 26.925 22.425C24.942 24.408 22.305 25.5 19.5 25.5ZM10.5 6C5.538 6 1.5 10.038 1.5 15C1.5 19.962 5.538 24 10.5 24H19.5C24.462 24 28.5 19.962 28.5 15C28.5 10.038 24.462 6 19.5 6H10.5Z" fill="#343434"/>
<path d="M10.5 21C7.191 21 4.5 18.309 4.5 15C4.5 11.691 7.191 9 10.5 9C13.809 9 16.5 11.691 16.5 15C16.5 18.309 13.809 21 10.5 21ZM10.5 10.5C8.019 10.5 6 12.519 6 15C6 17.481 8.019 19.5 10.5 19.5C12.981 19.5 15 17.481 15 15C15 12.519 12.981 10.5 10.5 10.5Z" fill="#343434"/>
</svg>
