<svg width="30" height="30" viewBox="0 0 30 30" fill="none" xmlns="http://www.w3.org/2000/svg">
<path d="M15.8572 0C21.3622 0 26.4157 3.0075 29.0467 7.8495C29.2447 8.214 29.1097 8.6685 28.7452 8.8665C28.3807 9.0645 27.9262 8.9295 27.7282 8.565C25.3612 4.2075 20.8117 1.5 15.8572 1.5C8.41271 1.5 2.35721 7.5555 2.35721 15C2.35721 22.4445 8.41271 28.5 15.8572 28.5C20.8312 28.5 25.3882 25.7775 27.7492 21.3945C27.9262 21.066 28.3192 20.9175 28.6702 21.0465C29.0212 21.1755 29.2222 21.5445 29.1427 21.909C28.6072 23.25 26.9032 25.1505 26.9032 25.1505C24.0997 28.203 20.1157 30 15.8557 30C11.8492 30 8.08271 28.44 5.24921 25.6065C2.41571 22.773 0.855713 19.0065 0.855713 15C0.855713 10.9935 2.41571 7.227 5.24921 4.3935C8.08271 1.56 11.8492 0 15.8557 0H15.8572Z" fill="#343434"/>
</svg>
