<svg width="30" height="30" viewBox="0 0 30 30" fill="none" xmlns="http://www.w3.org/2000/svg">
  <path d="M22.5 26.5H7.5C6.67301 26.5 6 27.173 6 28V28.5C6 29.327 6.67301 30 7.5 30H22.5C23.327 30 24 29.327 24 28.5V28C24 27.173 23.327 26.5 22.5 26.5ZM23 28.5C23 28.7755 22.776 29 22.5 29H7.5C7.22449 29 7.00002 28.7755 7.00002 28.5V28C7.00002 27.7245 7.22449 27.5001 7.5 27.5001H22.5C22.776 27.5001 23 27.7245 23 28V28.5Z" fill="#343434"/>
  <path d="M20 24.5H10C9.17303 24.5 8.50002 25.173 8.50002 26C8.50002 26.827 9.17303 27.5 10 27.5H20C20.827 27.5 21.5 26.827 21.5 26C21.5 25.173 20.827 24.5 20 24.5ZM20 26.5H10C9.72451 26.5 9.50004 26.2755 9.50004 26C9.50004 25.7245 9.72451 25.5 10 25.5H20C20.276 25.5 20.5 25.7245 20.5 26C20.5 26.2755 20.276 26.5 20 26.5Z" fill="#343434"/>
  <path d="M19.5 14H10.5C10.224 14 10 14.224 10 14.5V16.5C10 16.776 10.224 17 10.5 17H19.5C19.776 17 20 16.776 20 16.5V14.5C20 14.224 19.776 14 19.5 14ZM19 16H11V15H19L19 16Z" fill="#343434"/>
  <path d="M18.5 4.99997H11.5C10.673 4.99997 10 5.67298 10 6.49997C10 7.32696 10.673 7.99996 11.5 7.99996H18.5C19.327 7.99996 20 7.32696 20 6.49997C20 5.67298 19.327 4.99997 18.5 4.99997ZM18.5 7H11.5C11.2245 7 11 6.77553 11 6.50002C11 6.22452 11.2245 6.00005 11.5 6.00005H18.5C18.776 6.00005 19 6.22452 19 6.50002C19 6.77547 18.776 7 18.5 7Z" fill="#343434"/>
  <path d="M18.9745 20.342C18.6595 19.3975 18.5 18.4139 18.5 17.419V16.5C18.5 16.224 18.276 16 18 16H12C11.724 16 11.5 16.224 11.5 16.5V17.419C11.5 18.4139 11.3405 19.3974 11.0255 20.342C10.6805 21.3785 10.5 21.971 10.5 23.081V25C10.5 25.276 10.724 25.5 11 25.5H19C19.2759 25.5 19.4999 25.276 19.4999 25V23.081C19.5 21.971 19.32 21.3785 18.9745 20.342ZM18.5 24.5H11.5V23.0809C11.5 22.1219 11.6455 21.6449 11.9745 20.6579C12.323 19.6114 12.5 18.5219 12.5 17.4189V16.9999H17.5V17.4189C17.5 18.5219 17.677 19.6114 18.0255 20.6579C18.3546 21.6449 18.5 22.1219 18.5 23.0809L18.5 24.5Z" fill="#343434"/>
  <path d="M18 7.00003H12C11.724 7.00003 11.5 7.22403 11.5 7.50001V14.5C11.5 14.776 11.724 15 12 15H18C18.276 15 18.5 14.776 18.5 14.5V7.50001C18.5 7.22403 18.276 7.00003 18 7.00003ZM17.5 14H12.5V7.99999H17.5V14Z" fill="#343434"/>
  <path d="M15 0C13.897 0 13 0.897012 13 1.99998C13 3.10301 13.897 3.99996 15 3.99996C16.1025 3.99996 17 3.10295 17 1.99998C17 0.897012 16.103 0 15 0ZM15 3C14.4485 3 14 2.55152 14 1.99998C14 1.4485 14.4485 0.999961 15 0.999961C15.5515 0.999961 16 1.44844 16 1.99998C16 2.55152 15.5515 3 15 3Z" fill="#343434"/>
  <path d="M15 3C13.6215 3 12.5 4.12149 12.5 5.50002C12.5 5.776 12.724 6 13 6H17C17.276 6 17.5 5.776 17.5 5.50002C17.5 4.12149 16.3785 3 15 3ZM13.5855 4.99998C13.792 4.41797 14.348 3.99996 15 3.99996C15.652 3.99996 16.2075 4.41797 16.414 4.99998H13.5855Z" fill="#343434"/>
</svg>
