<svg width="30" height="30" viewBox="0 0 30 30" fill="none" xmlns="http://www.w3.org/2000/svg">
<path d="M29.25 0H17.25C16.8915 0 16.4939 0.39115 16.5001 0.74933L16.5 12.7507C16.5 13.1643 16.836 13.5 17.25 13.5H29.25C29.664 13.5 30 13.1643 30 12.7507V0.74933C30 0.3357 29.664 0 29.25 0ZM18 12.0013V1.49866H28.5V12.0013H18Z" fill="#343434"/>
<path d="M12.75 0H0.750004C0.391504 0 -0.00607616 0.39115 7.03801e-05 0.74933L3.6229e-06 12.7507C3.6229e-06 13.1643 0.336004 13.5 0.750004 13.5H12.75C13.164 13.5 13.5 13.1643 13.5 12.7507V0.74933C13.5 0.3357 13.164 0 12.75 0ZM1.5 12.0013V1.49866H12V12.0013H1.5Z" fill="#343434"/>
<path d="M12.75 16.5H0.750004C0.391504 16.5 -0.00607616 16.8912 7.03801e-05 17.2493L3.6229e-06 29.2507C3.6229e-06 29.6643 0.336004 30 0.750004 30H12.75C13.164 30 13.5 29.6643 13.5 29.2507V17.2493C13.5 16.8357 13.164 16.5 12.75 16.5ZM1.5 28.5013V17.9987H12V28.5013H1.5Z" fill="#343434"/>
<path d="M21.7504 28.9989C21.5584 28.9989 21.3664 28.9254 21.2194 28.7799L16.7194 24.2799C16.4269 23.9874 16.4269 23.5119 16.7194 23.2194C17.0119 22.9269 17.4874 22.9269 17.7799 23.2194L21.7489 27.1884L28.7179 17.2194C29.0104 16.9269 29.4859 16.9269 29.7784 17.2194C30.0709 17.5119 30.0709 17.9874 29.7784 18.2799L22.2784 28.7799C22.1314 28.9269 21.9394 28.9989 21.7474 28.9989H21.7504Z" fill="#343434"/>
</svg>
