<svg width="30" height="30" viewBox="0 0 30 30" fill="none" xmlns="http://www.w3.org/2000/svg">
<path d="M27.6316 30H2.36842C1.06263 30 0 28.9374 0 27.6316V2.36842C0 1.06263 1.06263 0 2.36842 0H27.6316C28.9374 0 30 1.06263 30 2.36842V27.6316C30 28.9374 28.9374 30 27.6316 30ZM2.36842 1.57895C1.93263 1.57895 1.57895 1.93263 1.57895 2.36842V27.6316C1.57895 28.0674 1.93263 28.4211 2.36842 28.4211H27.6316C28.0674 28.4211 28.4211 28.0674 28.4211 27.6316V2.36842C28.4211 1.93263 28.0674 1.57895 27.6316 1.57895H2.36842Z" fill="#343434"/>
<path d="M25.2485 8.5C24.8345 8.5 24.4985 8.836 24.4985 9.25V15.25C24.4985 15.664 24.1625 16 23.7485 16L6.56087 16L11 12C11.2925 11.7075 11.2925 11.232 11 10.9395C10.7075 10.647 10.232 10.647 9.9395 10.9395L4.21938 16.2205C3.92688 16.513 3.92688 16.9885 4.21938 17.281L9.9395 22.5C10.0865 22.647 10.2785 22.719 10.4705 22.719C10.6625 22.719 10.8545 22.6455 11.0015 22.5C11.294 22.2075 11.294 21.732 11.0015 21.4395L6.56238 17.5015L23.75 17.5015C24.9905 17.5015 26 16.492 26 15.2515V9.2515C26 8.8375 25.664 8.5015 25.25 8.5015L25.2485 8.5Z" fill="#343434"/>
</svg>
