<svg width="30" height="30" viewBox="0 0 30 30" fill="none" xmlns="http://www.w3.org/2000/svg">
<path d="M19.5 25.5H10.5C7.695 25.5 5.058 24.408 3.075 22.425C1.092 20.442 0 17.805 0 15C0 12.195 1.092 9.558 3.075 7.575C5.058 5.592 7.695 4.5 10.5 4.5H19.5C22.305 4.5 24.942 5.592 26.925 7.575C28.908 9.558 30 12.195 30 15C30 17.805 28.908 20.442 26.925 22.425C24.942 24.408 22.305 25.5 19.5 25.5ZM10.5 6C5.538 6 1.5 10.038 1.5 15C1.5 19.962 5.538 24 10.5 24H19.5C24.462 24 28.5 19.962 28.5 15C28.5 10.038 24.462 6 19.5 6H10.5Z" fill="#343434"/>
<path d="M10 14.7514C10 14.5084 10.117 14.2714 10.3345 14.1259C10.6795 13.8964 11.1445 13.9894 11.374 14.3344L13.75 17.8984L19.126 11.3344C19.3555 10.9894 19.822 10.8964 20.1655 11.1259C20.509 11.3554 20.6035 11.8219 20.374 12.1654L14.374 19.6654C14.2345 19.8739 14.0005 19.9999 13.75 19.9999C13.4995 19.9999 13.2655 19.8739 13.126 19.6654L10.126 15.1654C10.0405 15.0379 10 14.8924 10 14.7499V14.7514Z" fill="#343434"/>
</svg>
