<svg width="30" height="30" viewBox="0 0 30 30" fill="none" xmlns="http://www.w3.org/2000/svg">
<path d="M0.75 30C0.336 30 0 29.664 0 29.25V0.75C0 0.336 0.336 0 0.75 0C1.164 0 1.5 0.336 1.5 0.75V29.25C1.5 29.664 1.164 30 0.75 30Z" fill="#343434"/>
<path d="M29.25 30C28.836 30 28.5 29.664 28.5 29.25V0.75C28.5 0.336 28.836 0 29.25 0C29.664 0 30 0.336 30 0.75V29.25C30 29.664 29.664 30 29.25 30Z" fill="#343434"/>
<path d="M6.75 12H3.75C2.5095 12 1.5 10.9905 1.5 9.75V3.75C1.5 2.5095 2.5095 1.5 3.75 1.5H6.75C7.9905 1.5 9 2.5095 9 3.75V9.75C9 10.9905 7.9905 12 6.75 12ZM3.75 3C3.336 3 3 3.336 3 3.75V9.75C3 10.164 3.336 10.5 3.75 10.5H6.75C7.164 10.5 7.5 10.164 7.5 9.75V3.75C7.5 3.336 7.164 3 6.75 3H3.75Z" fill="#343434"/>
<path d="M16.5 12H13.5C12.2595 12 11.25 10.9905 11.25 9.75V3.75C11.25 2.5095 12.2595 1.5 13.5 1.5H16.5C17.7405 1.5 18.75 2.5095 18.75 3.75V9.75C18.75 10.9905 17.7405 12 16.5 12ZM13.5 3C13.086 3 12.75 3.336 12.75 3.75V9.75C12.75 10.164 13.086 10.5 13.5 10.5H16.5C16.914 10.5 17.25 10.164 17.25 9.75V3.75C17.25 3.336 16.914 3 16.5 3H13.5Z" fill="#343434"/>
<path d="M26.25 12H23.25C22.0095 12 21 10.9905 21 9.75V3.75C21 2.5095 22.0095 1.5 23.25 1.5H26.25C27.4905 1.5 28.5 2.5095 28.5 3.75V9.75C28.5 10.9905 27.4905 12 26.25 12ZM23.25 3C22.836 3 22.5 3.336 22.5 3.75V9.75C22.5 10.164 22.836 10.5 23.25 10.5H26.25C26.664 10.5 27 10.164 27 9.75V3.75C27 3.336 26.664 3 26.25 3H23.25Z" fill="#343434"/>
</svg>
