<svg width="30" height="30" viewBox="0 0 30 30" fill="none" xmlns="http://www.w3.org/2000/svg">
<path d="M24.744 26.4091C25.0408 26.1549 25.3281 25.8896 25.6076 25.6101C28.4401 22.7771 30 19.0094 30 15.0016C30 12.6598 29.4758 10.4158 28.4401 8.33298C28.2459 7.94294 27.7722 7.78345 27.3822 7.97768C26.9923 8.17191 26.8328 8.64565 27.027 9.03569C27.9522 10.8975 28.4211 12.9045 28.4211 15.0016C28.4211 22.4029 22.4009 28.424 15.0008 28.424C7.60065 28.424 1.58044 22.4029 1.58044 15.0016C1.58044 7.60028 7.60065 1.57911 15.0008 1.57911C17.0959 1.57911 19.1027 2.04811 20.9642 2.97347C21.3541 3.1677 21.8278 3.00821 22.022 2.61817C22.2162 2.22813 22.0567 1.7544 21.6668 1.56016C19.5842 0.525845 17.3407 0 14.9992 0C10.9921 0 7.22646 1.56016 4.39398 4.39309C1.5615 7.22602 0 10.9938 0 15C0 19.0078 1.55992 22.774 4.39398 25.6069C4.67344 25.8864 4.96079 26.1517 5.25762 26.4059L6.53492 27.385C9.009 29.0841 11.9346 30 15.0024 30C18.0701 30 20.9957 29.0841 23.4698 27.385L24.7471 26.4059L24.744 26.4091Z" fill="#343434"/>
<path d="M15.0008 24C10.0373 24 6 19.9631 6 15C6 10.0369 10.0373 6 15.0008 6C16.2528 6 17.4638 6.252 18.6011 6.74945C19.0152 6.93109 19.205 7.41218 19.0234 7.82618C18.8417 8.24018 18.3606 8.43 17.9465 8.24836C17.017 7.84255 16.0253 7.63636 15.0008 7.63636C10.9406 7.63636 7.63651 10.9402 7.63651 15C7.63651 19.0598 10.9406 22.3636 15.0008 22.3636C19.061 22.3636 22.3651 19.0598 22.3651 15C22.3651 13.7056 22.0247 12.4325 21.3799 11.3182C21.1541 10.9271 21.2867 10.4264 21.6778 10.2005C22.0689 9.97473 22.5697 10.1073 22.7955 10.4984C23.5843 11.8615 24 13.4176 24 15C24 19.9631 19.9627 24 14.9992 24H15.0008Z" fill="#343434"/>
<path d="M26.186 6.24959H23.7488V3.8124C23.7488 3.36395 23.3848 3 22.9364 3C22.4879 3 22.124 3.36395 22.124 3.8124V6.68504C21.011 7.63555 17.022 11.124 14.1786 14.679C13.8975 15.03 13.9544 15.5402 14.3054 15.8213C14.4549 15.9415 14.6336 16 14.8123 16C15.0512 16 15.2868 15.896 15.4476 15.6945C18.2179 12.2321 22.2523 8.71604 23.2353 7.87602H26.1876C26.636 7.87602 27 7.51206 27 7.06362C27 6.61517 26.636 6.25122 26.1876 6.25122L26.186 6.24959Z" fill="#343434"/>
<path d="M29.1667 5H25.8333C25.3733 5 25 4.62667 25 4.16667V0.833333C25 0.373333 25.3733 0 25.8333 0C26.2933 0 26.6667 0.373333 26.6667 0.833333V3.33333H29.1667C29.6267 3.33333 30 3.70667 30 4.16667C30 4.62667 29.6267 5 29.1667 5Z" fill="#343434"/>
<path d="M15.0008 18.9984C12.7956 18.9984 11 17.1806 11 14.9481C11 13.0996 12.2338 11.486 14.0006 11.0259C14.4295 10.9141 14.8648 11.1749 14.9752 11.6091C15.0856 12.0433 14.828 12.484 14.3991 12.5957C13.3397 12.8712 12.5987 13.84 12.5987 14.9498C12.5987 16.2896 13.6757 17.3799 14.9992 17.3799C16.3227 17.3799 17.3997 16.2896 17.3997 14.9498C17.3997 14.5026 17.7582 14.1397 18.1998 14.1397C18.6415 14.1397 19 14.5026 19 14.9498C19 17.1822 17.2044 19 14.9992 19L15.0008 18.9984Z" fill="#343434"/>
</svg>
