<svg width="30" height="30" viewBox="0 0 30 30" fill="none" xmlns="http://www.w3.org/2000/svg">
<path d="M0.75 30C0.336 30 0 29.664 0 29.25V0.75C0 0.336 0.336 0 0.75 0C1.164 0 1.5 0.336 1.5 0.75V29.25C1.5 29.664 1.164 30 0.75 30Z" fill="#343434"/>
<path d="M8.25 12H5.25C4.0095 12 3 10.9905 3 9.75V3.75C3 2.5095 4.0095 1.5 5.25 1.5H8.25C9.4905 1.5 10.5 2.5095 10.5 3.75V9.75C10.5 10.9905 9.4905 12 8.25 12ZM5.25 3C4.836 3 4.5 3.336 4.5 3.75V9.75C4.5 10.164 4.836 10.5 5.25 10.5H8.25C8.664 10.5 9 10.164 9 9.75V3.75C9 3.336 8.664 3 8.25 3H5.25Z" fill="#343434"/>
</svg>
