<svg width="30" height="30" viewBox="0 0 30 30" fill="none" xmlns="http://www.w3.org/2000/svg">
<path d="M8.5 15C8.5 16.9276 10.0724 18.5 12 18.5C13.9276 18.5 15.5 16.9276 15.5 15C15.5 13.0724 13.9276 11.5 12 11.5C10.0724 11.5 8.5 13.0724 8.5 15ZM12 20C9.244 20 7 17.756 7 15C7 12.244 9.244 10 12 10C14.756 10 17 12.244 17 15C17 17.756 14.756 20 12 20Z" fill="#343434"/>
<path d="M7.41786 17C7.21297 16.5327 7.07758 16.0283 7.02483 15.5H2C1.72386 15.5 1.5 15.2761 1.5 15C1.5 14.7239 1.72386 14.5 2 14.5H7.02483C7.07758 13.9717 7.21297 13.4673 7.41786 13H2C0.895431 13 0 13.8954 0 15C0 16.1046 0.89543 17 2 17H7.41786Z" fill="#343434"/>
<path d="M16.5821 17H28C29.1046 17 30 16.1046 30 15C30 13.8954 29.1046 13 28 13H16.5821C16.787 13.4673 16.9224 13.9717 16.9752 14.5H28C28.2761 14.5 28.5 14.7239 28.5 15C28.5 15.2761 28.2761 15.5 28 15.5H16.9752C16.9224 16.0283 16.787 16.5327 16.5821 17Z" fill="#343434"/>
</svg>
