<svg width="30" height="30" viewBox="0 0 30 30" fill="none" xmlns="http://www.w3.org/2000/svg">
<path d="M27.75 30H2.25C1.0095 30 0 28.9905 0 27.75V2.25C0 1.0095 1.0095 0 2.25 0H27.75C28.9905 0 30 1.0095 30 2.25V27.75C30 28.9905 28.9905 30 27.75 30ZM2.25 1.5C1.836 1.5 1.5 1.836 1.5 2.25V27.75C1.5 28.164 1.836 28.5 2.25 28.5H27.75C28.164 28.5 28.5 28.164 28.5 27.75V2.25C28.5 1.836 28.164 1.5 27.75 1.5H2.25Z" fill="#343434"/>
<path d="M9.00037 20.2509C8.80837 20.2509 8.61637 20.1774 8.46937 20.0319L3.96937 15.5319C3.67687 15.2394 3.67687 14.7639 3.96937 14.4714L8.46937 9.97139C8.76187 9.67889 9.23738 9.67889 9.52988 9.97139C9.82238 10.2639 9.82238 10.7394 9.52988 11.0319L5.56087 15.0009L9.52988 18.9699C9.82238 19.2624 9.82238 19.7379 9.52988 20.0304C9.38288 20.1774 9.19088 20.2494 8.99888 20.2494L9.00037 20.2509Z" fill="#343434"/>
<path d="M21.0004 20.2509C20.8084 20.2509 20.6164 20.1774 20.4694 20.0319C20.1769 19.7394 20.1769 19.2639 20.4694 18.9714L24.4384 15.0024L20.4694 11.0334C20.1769 10.7409 20.1769 10.2654 20.4694 9.97285C20.7619 9.68035 21.2374 9.68035 21.5299 9.97285L26.0299 14.4729C26.3224 14.7654 26.3224 15.2409 26.0299 15.5334L21.5299 20.0334C21.3829 20.1804 21.1909 20.2524 20.9989 20.2524L21.0004 20.2509Z" fill="#343434"/>
<path d="M12.7503 20.2509C12.6378 20.2509 12.5238 20.2254 12.4158 20.1714C12.0453 19.9869 11.8953 19.5354 12.0798 19.1649L16.5798 10.1649C16.7643 9.7944 17.2158 9.6444 17.5863 9.8289C17.9568 10.0134 18.1068 10.4649 17.9223 10.8354L13.4223 19.8354C13.2903 20.0979 13.0263 20.2509 12.7503 20.2509Z" fill="#343434"/>
</svg>
