<svg width="30" height="30" viewBox="0 0 30 30" fill="none" xmlns="http://www.w3.org/2000/svg">
  <path d="M0.75 7.5H29.25C29.664 7.5 30 7.164 30 6.75C30 6.336 29.664 6 29.25 6H0.75C0.336 6 0 6.336 0 6.75C0 7.164 0.336 7.5 0.75 7.5Z" fill="#343434"/>
  <path d="M0.75 16.5H29.25C29.664 16.5 30 16.164 30 15.75C30 15.336 29.664 15 29.25 15H0.75C0.336 15 0 15.336 0 15.75C0 16.164 0.336 16.5 0.75 16.5Z" fill="#343434"/>
  <path d="M0.75 25.5H29.25C29.664 25.5 30 25.164 30 24.75C30 24.336 29.664 24 29.25 24H0.75C0.336 24 0 24.336 0 24.75C0 25.164 0.336 25.5 0.75 25.5Z" fill="#343434"/>
  <path d="M0.75 12H24.25C24.664 12 25 11.664 25 11.25C25 10.836 24.664 10.5 24.25 10.5H0.75C0.336 10.5 0 10.836 0 11.25C0 11.664 0.336 12 0.75 12Z" fill="#343434"/>
  <path d="M0.75 21H24.25C24.664 21 25 20.664 25 20.25C25 19.836 24.664 19.5 24.25 19.5H0.75C0.336 19.5 0 19.836 0 20.25C0 20.664 0.336 21 0.75 21Z" fill="#343434"/>
</svg>
