<svg width="30" height="30" viewBox="0 0 30 30" fill="none" xmlns="http://www.w3.org/2000/svg">
<path d="M4 8C1.7952 8 0 6.2048 0 4C0 1.7952 1.7952 0 4 0C6.2048 0 8 1.7952 8 4C8 6.2048 6.2048 8 4 8ZM4 1.6C2.6768 1.6 1.6 2.6768 1.6 4C1.6 5.3232 2.6768 6.4 4 6.4C5.3232 6.4 6.4 5.3232 6.4 4C6.4 2.6768 5.3232 1.6 4 1.6Z" fill="#343434"/>
<path d="M4 30C1.7952 30 0 28.2048 0 26C0 23.7952 1.7952 22 4 22C6.2048 22 8 23.7952 8 26C8 28.2048 6.2048 30 4 30ZM4 23.6C2.6768 23.6 1.6 24.6768 1.6 26C1.6 27.3232 2.6768 28.4 4 28.4C5.3232 28.4 6.4 27.3232 6.4 26C6.4 24.6768 5.3232 23.6 4 23.6Z" fill="#343434"/>
<path d="M4 19C1.7952 19 0 17.2048 0 15C0 12.7952 1.7952 11 4 11C6.2048 11 8 12.7952 8 15C8 17.2048 6.2048 19 4 19ZM4 12.6C2.6768 12.6 1.6 13.6768 1.6 15C1.6 16.3232 2.6768 17.4 4 17.4C5.3232 17.4 6.4 16.3232 6.4 15C6.4 13.6768 5.3232 12.6 4 12.6Z" fill="#343434"/>
<path d="M22 14.75C22 15.164 21.664 15.5 21.25 15.5H10.75C10.336 15.5 10 15.164 10 14.75C10 14.336 10.336 14 10.75 14H21.25C21.664 14 22 14.336 22 14.75Z" fill="#343434"/>
<path d="M22 25.75C22 26.164 21.664 26.5 21.25 26.5H10.75C10.336 26.5 10 26.164 10 25.75C10 25.336 10.336 25 10.75 25H21.25C21.664 25 22 25.336 22 25.75Z" fill="#343434"/>
<path d="M22 2.75C22 3.164 21.664 3.5 21.25 3.5L10.75 3.5C10.336 3.5 10 3.164 10 2.75C10 2.336 10.336 2 10.75 2L21.25 2C21.664 2 22 2.336 22 2.75Z" fill="#343434"/>
<path d="M4 12C3.586 12 3.25 11.86 3.25 11.6875V7.3125C3.25 7.14 3.586 7 4 7C4.414 7 4.75 7.14 4.75 7.3125V11.6875C4.75 11.86 4.414 12 4 12Z" fill="#343434"/>
<path d="M4 23C3.586 23 3.25 22.86 3.25 22.6875V18.3125C3.25 18.14 3.586 18 4 18C4.414 18 4.75 18.14 4.75 18.3125V22.6875C4.75 22.86 4.414 23 4 23Z" fill="#343434"/>
</svg>
