<svg width="30" height="30" viewBox="0 0 30 30" fill="none" xmlns="http://www.w3.org/2000/svg">
  <path d="M2.36842 30H27.6316C28.9374 30 30 28.9374 30 27.6316V2.36842C30 1.06263 28.9374 0 27.6316 0H2.36842C1.06263 0 0 1.06263 0 2.36842V27.6316C0 28.9374 1.06263 30 2.36842 30ZM11 1.57895H19V9.5H11V1.57895ZM11 11H19V19H11V11ZM11 20.5H19V28.4211H11V20.5ZM9.5 11V19H1.57895V11H9.5ZM9.5 20.5V28.4211H2.36842C1.93263 28.4211 1.57895 28.0674 1.57895 27.6316V20.5H9.5ZM9.5 1.57895V9.5H1.57895V2.36842C1.57895 1.93263 1.93263 1.57895 2.36842 1.57895H9.5ZM20.5 11H28.4211V19H20.5V11ZM20.5 20.5H28.4211V27.6316C28.4211 28.0674 28.0674 28.4211 27.6316 28.4211H20.5V20.5ZM20.5 1.57895H27.6316C28.0674 1.57895 28.4211 1.93263 28.4211 2.36842V9.5H20.5V1.57895Z" fill="#343434"/>
</svg>
