<svg width="30" height="30" viewBox="0 0 30 30" fill="none" xmlns="http://www.w3.org/2000/svg">
<path d="M0.75 30C0.336 30 0 29.664 0 29.25V0.75C0 0.336 0.336 0 0.75 0C1.164 0 1.5 0.336 1.5 0.75V29.25C1.5 29.664 1.164 30 0.75 30Z" fill="#343434"/>
<path d="M29.25 30C28.836 30 28.5 29.664 28.5 29.25V0.75C28.5 0.336 28.836 0 29.25 0C29.664 0 30 0.336 30 0.75V29.25C30 29.664 29.664 30 29.25 30Z" fill="#343434"/>
<path d="M16.5 12H13.5C12.2595 12 11.25 10.9905 11.25 9.75V3.75C11.25 2.5095 12.2595 1.5 13.5 1.5H16.5C17.7405 1.5 18.75 2.5095 18.75 3.75V9.75C18.75 10.9905 17.7405 12 16.5 12ZM13.5 3C13.086 3 12.75 3.336 12.75 3.75V9.75C12.75 10.164 13.086 10.5 13.5 10.5H16.5C16.914 10.5 17.25 10.164 17.25 9.75V3.75C17.25 3.336 16.914 3 16.5 3H13.5Z" fill="#343434"/>
</svg>
