<svg width="30" height="30" viewBox="0 0 30 30" fill="none" xmlns="http://www.w3.org/2000/svg">
  <path fill-rule="evenodd" clip-rule="evenodd" d="M3.75 5.5C3.05964 5.5 2.5 6.05964 2.5 6.75V23.25C2.5 23.9404 3.05964 24.5 3.75 24.5H26.75C27.4404 24.5 28 23.9404 28 23.25V12.5H12.75C11.2312 12.5 10 11.2688 10 9.75V6.75C10 6.05964 9.44036 5.5 8.75 5.5H3.75ZM1 6.75C1 5.23122 2.23122 4 3.75 4H8.75C10.2688 4 11.5 5.23122 11.5 6.75V9.75C11.5 10.4404 12.0596 11 12.75 11H29.5V23.25C29.5 24.7688 28.2688 26 26.75 26H3.75C2.23122 26 1 24.7688 1 23.25V6.75Z" fill="#343434"/>
  <path fill-rule="evenodd" clip-rule="evenodd" d="M12.75 7.5C12.0596 7.5 11.5 8.05964 11.5 8.75V9.75C11.5 10.4404 12.0596 11 12.75 11H19V8.75C19 8.05964 18.4404 7.5 17.75 7.5H12.75ZM10 8.75C10 7.23122 11.2312 6 12.75 6H17.75C19.2688 6 20.5 7.23122 20.5 8.75V12.5H12.75C11.2312 12.5 10 11.2688 10 9.75V8.75Z" fill="#343434"/>
  <path fill-rule="evenodd" clip-rule="evenodd" d="M21.75 7.5C21.0596 7.5 20.5 8.05964 20.5 8.75V11H28V8.75C28 8.05964 27.4404 7.5 26.75 7.5H21.75ZM19 8.75C19 7.23122 20.2312 6 21.75 6H26.75C28.2688 6 29.5 7.23122 29.5 8.75V12.5H19V8.75Z" fill="#343434"/>
</svg>
