<svg width="30" height="30" viewBox="0 0 30 30" fill="none" xmlns="http://www.w3.org/2000/svg">
  <path fill-rule="evenodd" clip-rule="evenodd" d="M27.6316 30H2.36842C1.06263 30 0 28.9374 0 27.6316V2.36842C0 1.10009 1.00254 0.0611701 2.25666 0.00260433V0H27.6883C27.7256 0 27.7643 0.0021109 27.8043 0.0062357C28.6206 0.065375 29.3237 0.540234 29.7021 1.21951C29.8409 1.42843 29.9315 1.65082 29.9484 1.87531C29.9822 2.03442 30 2.19938 30 2.36842V27.6316C30 28.9374 28.9374 30 27.6316 30ZM2.32733 1.58C1.91062 1.6014 1.57895 1.94641 1.57895 2.36842V9.5H9.5V1.58H2.32733ZM11 9.5V1.58H19V9.5H11ZM11 11H19V19H11V11ZM9.5 11H1.57895V19H9.5V11ZM9.5 20.5H1.57895V27.6316C1.57895 28.0674 1.93263 28.4211 2.36842 28.4211H19V20.5H11V28.4198H9.5V20.5ZM20.5 1.58H27.6727C28.0894 1.6014 28.4211 1.94641 28.4211 2.36842V9.5H20.5V1.58ZM20.5 11V19H28.4211V11H20.5ZM20.5 20.5V28.4211H27.6316C28.0674 28.4211 28.4211 28.0674 28.4211 27.6316V20.5H20.5Z" fill="#343434"/>
</svg>
