<svg width="30" height="30" viewBox="0 0 30 30" fill="none" xmlns="http://www.w3.org/2000/svg">
  <path d="M19.75 6.86253C19.2486 6.33145 18.538 6 17.75 6H12.75C12.2863 6 11.8494 6.11477 11.4662 6.31745C11.2587 5.00417 10.1216 4 8.75 4H3.75C2.23122 4 1 5.23122 1 6.75V23.25C1 24.7688 2.23122 26 3.75 26H26.75C28.2688 26 29.5 24.7688 29.5 23.25V8.75C29.5 7.23122 28.2688 6 26.75 6H21.75C20.962 6 20.2514 6.33145 19.75 6.86253ZM3.75 5.5H8.75C9.44036 5.5 10 6.05964 10 6.75V9.75C10 11.2688 11.2312 12.5 12.75 12.5H28V23.25C28 23.9404 27.4404 24.5 26.75 24.5H3.75C3.05964 24.5 2.5 23.9404 2.5 23.25V6.75C2.5 6.05964 3.05964 5.5 3.75 5.5ZM19 11H12.75C12.0596 11 11.5 10.4404 11.5 9.75V8.75C11.5 8.05964 12.0596 7.5 12.75 7.5H17.75C18.4404 7.5 19 8.05964 19 8.75V11ZM28 11H20.5V8.75C20.5 8.05964 21.0596 7.5 21.75 7.5H26.75C27.4404 7.5 28 8.05964 28 8.75V11Z" fill="#343434"/>
</svg>
