<svg width="30" height="30" viewBox="0 0 30 30" fill="none" xmlns="http://www.w3.org/2000/svg">
<path d="M24.5453 7.08947C22.1836 4.74158 19.1008 3.37105 15.7941 3.18158V1.57895H16.5882C17.0266 1.57895 17.3824 1.22526 17.3824 0.789474C17.3824 0.353684 17.0266 0 16.5882 0H13.4118C12.9734 0 12.6176 0.353684 12.6176 0.789474C12.6176 1.22526 12.9734 1.57895 13.4118 1.57895H14.2059V3.18158C10.8992 3.37105 7.81641 4.74158 5.45471 7.08947C2.90559 9.62368 1.5 12.9947 1.5 16.5789C1.5 20.1632 2.904 23.5342 5.45471 26.0684C8.00382 28.6026 11.3947 30 15 30C18.6053 30 21.9962 28.6042 24.5453 26.0684C27.0944 23.5342 28.5 20.1632 28.5 16.5789C28.5 12.9947 27.096 9.62368 24.5453 7.08947V7.08947ZM15 28.4211C8.43106 28.4211 3.08824 23.1095 3.08824 16.5789C3.08824 10.0484 8.43106 4.73684 15 4.73684C21.5689 4.73684 26.9118 10.0484 26.9118 16.5789C26.9118 23.1095 21.5689 28.4211 15 28.4211Z" fill="#343434"/>
<path d="M15 18C14.586 18 14.25 17.664 14.25 17.25V8.25C14.25 7.836 14.586 7.5 15 7.5C15.414 7.5 15.75 7.836 15.75 8.25V17.25C15.75 17.664 15.414 18 15 18Z" fill="#343434"/>
</svg>
