<svg width="30" height="30" viewBox="0 0 30 30" fill="none" xmlns="http://www.w3.org/2000/svg">
  <path fill-rule="evenodd" clip-rule="evenodd" d="M19.75 6.86253C19.2486 6.33145 18.538 6 17.75 6H12.75C12.2863 6 11.8494 6.11477 11.4662 6.31745C11.2587 5.00417 10.1216 4 8.75 4H3.75C2.23122 4 1 5.23122 1 6.75V23.25C1 24.7688 2.23122 26 3.75 26H26.75C28.2688 26 29.5 24.7688 29.5 23.25V8.75C29.5 7.23122 28.2688 6 26.75 6H21.75C20.962 6 20.2514 6.33145 19.75 6.86253ZM3.75 5.5C3.05964 5.5 2.5 6.05964 2.5 6.75V23.25C2.5 23.9404 3.05964 24.5 3.75 24.5H26.75C27.4404 24.5 28 23.9404 28 23.25V12.5H12.75C11.2312 12.5 10 11.2688 10 9.75V6.75C10 6.05964 9.44036 5.5 8.75 5.5H3.75ZM19 11V8.75C19 8.05964 18.4404 7.5 17.75 7.5H12.75C12.0596 7.5 11.5 8.05964 11.5 8.75V9.75C11.5 10.4404 12.0596 11 12.75 11H19ZM28 11V8.75C28 8.05964 27.4404 7.5 26.75 7.5H21.75C21.0596 7.5 20.5 8.05964 20.5 8.75V11H28Z" fill="#343434"/>
</svg>
