<svg width="32" height="30" viewBox="0 0 32 30" fill="none" xmlns="http://www.w3.org/2000/svg">
<path d="M10.75 12C9.5095 12 8.5 10.9905 8.5 9.75C8.5 8.5095 9.5095 7.5 10.75 7.5C11.9905 7.5 13 8.5095 13 9.75C13 10.9905 11.9905 12 10.75 12ZM10.75 9C10.336 9 10 9.336 10 9.75C10 10.164 10.336 10.5 10.75 10.5C11.164 10.5 11.5 10.164 11.5 9.75C11.5 9.336 11.164 9 10.75 9Z" fill="#343434"/>
<path d="M6.25 16.5C5.0095 16.5 4 15.4905 4 14.25C4 13.0095 5.0095 12 6.25 12C7.4905 12 8.5 13.0095 8.5 14.25C8.5 15.4905 7.4905 16.5 6.25 16.5ZM6.25 13.5C5.836 13.5 5.5 13.836 5.5 14.25C5.5 14.664 5.836 15 6.25 15C6.664 15 7 14.664 7 14.25C7 13.836 6.664 13.5 6.25 13.5Z" fill="#343434"/>
<path d="M16.75 10.5C15.5095 10.5 14.5 9.4905 14.5 8.25C14.5 7.0095 15.5095 6 16.75 6C17.9905 6 19 7.0095 19 8.25C19 9.4905 17.9905 10.5 16.75 10.5ZM16.75 7.5C16.336 7.5 16 7.836 16 8.25C16 8.664 16.336 9 16.75 9C17.164 9 17.5 8.664 17.5 8.25C17.5 7.836 17.164 7.5 16.75 7.5Z" fill="#343434"/>
<path d="M16 28.5C12.0175 28.5 8.26754 27.189 5.44004 24.8085C4.05254 23.64 2.96204 22.278 2.19854 20.757C1.40204 19.1715 0.998535 17.487 0.998535 15.75C0.998535 14.013 1.40204 12.327 2.19854 10.743C2.96204 9.222 4.05254 7.86 5.44004 6.6915C8.26604 4.311 12.016 3 16 3C19.984 3 23.7325 4.311 26.56 6.6915C27.9475 7.86 29.038 9.222 29.8015 10.743C30.598 12.3285 31.0015 14.013 31.0015 15.75C31.0015 18.528 29.764 19.518 28.606 19.518C27.6385 19.518 26.6425 18.84 25.873 17.6595C25.387 16.914 24.874 16.503 24.4285 16.503C24.28 16.503 24.133 16.548 23.98 16.6395C23.137 17.1435 23.635 18.507 24.007 19.2735C25.21 21.7545 25.309 23.9205 24.295 25.5405C23.065 27.5055 20.2735 28.5015 16 28.5015V28.5ZM16 4.5C8.55554 4.5 2.50004 9.546 2.50004 15.75C2.50004 21.954 8.55554 27 16 27C18.049 27 19.711 26.7615 20.9395 26.2905C21.913 25.917 22.615 25.3965 23.0245 24.7425C23.941 23.2785 23.3305 21.3165 22.657 19.9275C21.217 16.9575 22.5625 15.738 23.209 15.351C23.596 15.12 24.0055 15.0015 24.4285 15.0015C25.1155 15.0015 26.1415 15.321 27.13 16.8405C27.6955 17.709 28.279 18.018 28.606 18.018C29.1415 18.018 29.5015 17.106 29.5015 15.75C29.5015 9.546 23.446 4.5 16.0015 4.5H16Z" fill="#343434"/>
<path d="M17.5 24C15.8455 24 14.5 22.6545 14.5 21C14.5 19.3455 15.8455 18 17.5 18C19.1545 18 20.5 19.3455 20.5 21C20.5 22.6545 19.1545 24 17.5 24ZM17.5 19.5C16.6735 19.5 16 20.1735 16 21C16 21.8265 16.6735 22.5 17.5 22.5C18.3265 22.5 19 21.8265 19 21C19 20.1735 18.3265 19.5 17.5 19.5Z" fill="#343434"/>
</svg>
