<svg width="30" height="30" viewBox="0 0 30 30" fill="none" xmlns="http://www.w3.org/2000/svg">
<path d="M29.25 7.5H0.75C0.336 7.5 0 7.164 0 6.75C0 6.336 0.336 6 0.75 6H29.25C29.664 6 30 6.336 30 6.75C30 7.164 29.664 7.5 29.25 7.5Z" fill="#343434"/>
<path d="M24.25 12H0.75C0.336 12 0 11.664 0 11.25C0 10.836 0.336 10.5 0.75 10.5H24.25C24.664 10.5 25 10.836 25 11.25C25 11.664 24.664 12 24.25 12Z" fill="#343434"/>
<path d="M29.25 16.5H0.75C0.336 16.5 0 16.164 0 15.75C0 15.336 0.336 15 0.75 15H29.25C29.664 15 30 15.336 30 15.75C30 16.164 29.664 16.5 29.25 16.5Z" fill="#343434"/>
<path d="M23.25 21H0.75C0.336 21 0 20.664 0 20.25C0 19.836 0.336 19.5 0.75 19.5H23.25C23.664 19.5 24 19.836 24 20.25C24 20.664 23.664 21 23.25 21Z" fill="#343434"/>
<path d="M29.25 25.5H0.75C0.336 25.5 0 25.164 0 24.75C0 24.336 0.336 24 0.75 24H29.25C29.664 24 30 24.336 30 24.75C30 25.164 29.664 25.5 29.25 25.5Z" fill="#343434"/>
</svg>
