<svg width="30" height="30" viewBox="0 0 30 30" fill="none" xmlns="http://www.w3.org/2000/svg">
<path d="M19.25 21.5H10.75C9.5095 21.5 8.5 20.4905 8.5 19.25V9.25C8.5 8.0095 9.5095 7 10.75 7H19.25C20.4905 7 21.5 8.0095 21.5 9.25V19.25C21.5 20.4905 20.4905 21.5 19.25 21.5ZM10.75 8.5C10.336 8.5 10 8.836 10 9.25V19.25C10 19.664 10.336 20 10.75 20H19.25C19.664 20 20 19.664 20 19.25V9.25C20 8.836 19.664 8.5 19.25 8.5H10.75Z" fill="#343434"/>
<path d="M8.75 21.5H2.25C1.0095 21.5 0 20.4905 0 19.25V10.25C0 9.0095 1.0095 8 2.25 8H8.75C9.9905 8 10 9.0095 10 10.25V19.25C10 20.4905 9.9905 21.5 8.75 21.5ZM2.25 9.5C1.836 9.5 1.5 9.836 1.5 10.25V19.25C1.5 19.664 1.836 20 2.25 20H8.75C9.164 20 9.5 19.664 9.5 19.25V10.25C9.5 9.836 9.164 9.5 8.75 9.5H2.25Z" fill="#343434"/>
<path d="M27.75 21.5H21.25C20.0095 21.5 20 20.4905 20 19.25V10.25C20 9.0095 20.0095 8 21.25 8H27.75C28.9905 8 30 9.0095 30 10.25V19.25C30 20.4905 28.9905 21.5 27.75 21.5ZM21.25 9.5C20.836 9.5 20.5 9.836 20.5 10.25V19.25C20.5 19.664 20.836 20 21.25 20H27.75C28.164 20 28.5 19.664 28.5 19.25V10.25C28.5 9.836 28.164 9.5 27.75 9.5H21.25Z" fill="#343434"/>
</svg>
