<svg width="30" height="30" viewBox="0 0 30 30" fill="none" xmlns="http://www.w3.org/2000/svg">
<path d="M25.7333 30H4.26667C3.84347 30 3.5 29.664 3.5 29.25C3.5 28.836 3.84347 28.5 4.26667 28.5H25.7333C26.1565 28.5 26.5 28.836 26.5 29.25C26.5 29.664 26.1565 30 25.7333 30Z" fill="#343434"/>
<path d="M24.9351 22.9289L20.9821 13.736L15.7063 0.46455C15.5848 0.182447 15.3064 0 14.9988 0C14.6912 0 14.4128 0.182447 14.2912 0.46455L9.01854 13.7299C9.01854 13.7299 9.01667 13.7346 9.01546 13.7376L5.06247 22.9304C4.89481 23.3199 5.07631 23.7706 5.467 23.9377C5.85768 24.1048 6.30989 23.9239 6.47755 23.5345L10.2337 14.8H19.767L23.5231 23.5345C23.6477 23.8258 23.9322 23.9991 24.2306 23.9991C24.3322 23.9991 24.4352 23.9791 24.5337 23.9362C24.9243 23.7691 25.1043 23.3183 24.9382 22.9289H24.9351ZM10.892 13.2653L14.9988 2.71217L19.1056 13.2653H10.8904H10.892Z" fill="#343434"/>
</svg>
