<svg width="30" height="30" viewBox="0 0 30 30" fill="none" xmlns="http://www.w3.org/2000/svg">
<path d="M0.75 30C0.336 30 0 29.664 0 29.25V0.75C0 0.336 0.336 0 0.75 0C1.164 0 1.5 0.336 1.5 0.75V29.25C1.5 29.664 1.164 30 0.75 30Z" fill="#343434"/>
<path d="M29.25 30C28.836 30 28.5 29.664 28.5 29.25V0.75C28.5 0.336 28.836 0 29.25 0C29.664 0 30 0.336 30 0.75V29.25C30 29.664 29.664 30 29.25 30Z" fill="#343434"/>
<path d="M18.4957 15.5991L20.3585 15.5627L19.4614 17.3135C19.3088 17.6114 19.3182 18.0906 19.4823 18.3823C19.6465 18.6741 19.9041 18.669 20.0567 18.3711L21.6223 15.3156C21.7749 15.0177 21.7656 14.5385 21.6014 14.2467L19.9175 11.2548C19.835 11.1082 19.7296 11.0377 19.6256 11.0397C19.5216 11.0418 19.4191 11.1179 19.3423 11.2661C19.1897 11.564 19.199 12.0432 19.3632 12.335L20.3281 14.0493L18.4653 14.0858C18.2411 14.0902 18.0658 14.4324 18.0739 14.8496C18.0821 15.2669 18.2707 15.602 18.4949 15.5976L18.4957 15.5991Z" fill="#343434"/>
<path d="M3.25 25.5V4.5C3.25 3.2595 4.2595 2.25 5.5 2.25H24.5C25.7405 2.25 26.75 3.2595 26.75 4.5V25.5C26.75 26.7405 25.7405 27.75 24.5 27.75H5.5C4.2595 27.75 3.25 26.7405 3.25 25.5ZM25.25 4.5C25.25 4.086 24.914 3.75 24.5 3.75H5.5C5.086 3.75 4.75 4.086 4.75 4.5V25.5C4.75 25.914 5.086 26.25 5.5 26.25H24.5C24.914 26.25 25.25 25.914 25.25 25.5V4.5Z" fill="#343434"/>
</svg>
