<svg width="30" height="30" viewBox="0 0 30 30" fill="none" xmlns="http://www.w3.org/2000/svg">
<path d="M13.9522 22.1471L11.3011 15.9938C11.2999 15.9925 11.2999 15.9901 11.2986 15.9888L7.58863 7.37905C7.48936 7.15014 7.25772 7 7.00064 7C6.74355 7 6.51191 7.14891 6.41264 7.37905L2.70268 15.9888C2.70141 15.9901 2.70141 15.9925 2.70013 15.9938L0.0490673 22.1471C-0.0858405 22.461 0.0668853 22.8216 0.391428 22.952C0.71597 23.0825 1.08888 22.9348 1.22378 22.621L3.71194 16.8466H10.2881L12.7762 22.621C12.878 22.8572 13.1148 23 13.3642 23C13.4457 23 13.5284 22.9852 13.6086 22.952C13.9331 22.8216 14.0858 22.461 13.9509 22.1471H13.9522ZM4.24266 15.6147L7.00064 9.21521L9.75861 15.6147H4.24394H4.24266Z" fill="#343434"/>
<path d="M29.9522 22.1471L27.3011 15.9938C27.2999 15.9925 27.2999 15.9901 27.2986 15.9888L23.5886 7.37905C23.4894 7.15014 23.2577 7 23.0006 7C22.7435 7 22.5119 7.14891 22.4126 7.37905L18.7027 15.9888C18.7014 15.9901 18.7014 15.9925 18.7001 15.9938L16.0491 22.1471C15.9142 22.461 16.0669 22.8216 16.3914 22.952C16.716 23.0825 17.0889 22.9348 17.2238 22.621L19.7119 16.8466H26.2881L28.7762 22.621C28.878 22.8572 29.1148 23 29.3642 23C29.4457 23 29.5284 22.9852 29.6086 22.952C29.9331 22.8216 30.0858 22.461 29.9509 22.1471H29.9522ZM20.2427 15.6147L23.0006 9.21521L25.7586 15.6147H20.2439H20.2427Z" fill="#343434"/>
</svg>
