<svg width="30" height="30" viewBox="0 0 30 30" fill="none" xmlns="http://www.w3.org/2000/svg">
<path d="M4.75 30C4.336 30 4 29.664 4 29.25V17.25C4 16.836 4.336 16.5 4.75 16.5C5.164 16.5 5.5 16.836 5.5 17.25V29.25C5.5 29.664 5.164 30 4.75 30Z" fill="#343434"/>
<path d="M4.75 9C4.336 9 4 8.664 4 8.25V0.75C4 0.336 4.336 0 4.75 0C5.164 0 5.5 0.336 5.5 0.75V8.25C5.5 8.664 5.164 9 4.75 9Z" fill="#343434"/>
<path d="M6.25 15H3.25C2.0095 15 1 13.9905 1 12.75C1 11.5095 2.0095 10.5 3.25 10.5H6.25C7.4905 10.5 8.5 11.5095 8.5 12.75C8.5 13.9905 7.4905 15 6.25 15ZM3.25 12C2.836 12 2.5 12.336 2.5 12.75C2.5 13.164 2.836 13.5 3.25 13.5H6.25C6.664 13.5 7 13.164 7 12.75C7 12.336 6.664 12 6.25 12H3.25Z" fill="#343434"/>
<path d="M15.25 30C14.836 30 14.5 29.664 14.5 29.25V23.25C14.5 22.836 14.836 22.5 15.25 22.5C15.664 22.5 16 22.836 16 23.25V29.25C16 29.664 15.664 30 15.25 30Z" fill="#343434"/>
<path d="M15.25 15C14.836 15 14.5 14.664 14.5 14.25V0.75C14.5 0.336 14.836 0 15.25 0C15.664 0 16 0.336 16 0.75V14.25C16 14.664 15.664 15 15.25 15Z" fill="#343434"/>
<path d="M16.75 21H13.75C12.5095 21 11.5 19.9905 11.5 18.75C11.5 17.5095 12.5095 16.5 13.75 16.5H16.75C17.9905 16.5 19 17.5095 19 18.75C19 19.9905 17.9905 21 16.75 21ZM13.75 18C13.336 18 13 18.336 13 18.75C13 19.164 13.336 19.5 13.75 19.5H16.75C17.164 19.5 17.5 19.164 17.5 18.75C17.5 18.336 17.164 18 16.75 18H13.75Z" fill="#343434"/>
<path d="M25.75 30C25.336 30 25 29.664 25 29.25V14.25C25 13.836 25.336 13.5 25.75 13.5C26.164 13.5 26.5 13.836 26.5 14.25V29.25C26.5 29.664 26.164 30 25.75 30Z" fill="#343434"/>
<path d="M25.75 6C25.336 6 25 5.664 25 5.25V0.75C25 0.336 25.336 0 25.75 0C26.164 0 26.5 0.336 26.5 0.75V5.25C26.5 5.664 26.164 6 25.75 6Z" fill="#343434"/>
<path d="M27.25 12H24.25C23.0095 12 22 10.9905 22 9.75C22 8.5095 23.0095 7.5 24.25 7.5H27.25C28.4905 7.5 29.5 8.5095 29.5 9.75C29.5 10.9905 28.4905 12 27.25 12ZM24.25 9C23.836 9 23.5 9.336 23.5 9.75C23.5 10.164 23.836 10.5 24.25 10.5H27.25C27.664 10.5 28 10.164 28 9.75C28 9.336 27.664 9 27.25 9H24.25Z" fill="#343434"/>
</svg>
