<svg width="30" height="30" viewBox="0 0 30 30" fill="none" xmlns="http://www.w3.org/2000/svg">
<path d="M0 19.5C0 19.914 0.336 20.25 0.75 20.25H29.25C29.664 20.25 30 19.914 30 19.5C30 19.086 29.664 18.75 29.25 18.75H0.75C0.336 18.75 0 19.086 0 19.5Z" fill="#343434"/>
<path d="M12.471 24.539L15 22.0404L17.529 24.539C17.8082 24.8203 18.2614 24.8203 18.5406 24.539C18.8198 24.2576 18.8198 23.8009 18.5406 23.5195L15.5058 20.461C15.2266 20.1797 14.7734 20.1797 14.4942 20.461L11.4594 23.5195C11.1802 23.8009 11.1802 24.2576 11.4594 24.539C11.7386 24.8203 12.1918 24.8203 12.471 24.539Z" fill="#343434"/>
<path d="M0 10.5C0 10.914 0.336 11.25 0.75 11.25H29.25C29.664 11.25 30 10.914 30 10.5C30 10.086 29.664 9.75 29.25 9.75H0.75C0.336 9.75 0 10.086 0 10.5Z" fill="#343434"/>
<path d="M17.529 5.46103L15 7.95964L12.471 5.46103C12.1918 5.17966 11.7386 5.17966 11.4594 5.46103C11.1802 5.74241 11.1802 6.19914 11.4594 6.48052L14.4942 9.53897C14.7734 9.82034 15.2266 9.82034 15.5058 9.53897L18.5406 6.48052C18.8198 6.19914 18.8198 5.74241 18.5406 5.46103C18.2614 5.17966 17.8082 5.17966 17.529 5.46103Z" fill="#343434"/>
</svg>
