<svg width="30" height="30" viewBox="0 0 30 30" fill="none" xmlns="http://www.w3.org/2000/svg">
<path d="M0.75 30C0.336 30 0 29.664 0 29.25V0.75C0 0.336 0.336 0 0.75 0C1.164 0 1.5 0.336 1.5 0.75V29.25C1.5 29.664 1.164 30 0.75 30Z" fill="#343434"/>
<path d="M29.25 30C28.836 30 28.5 29.664 28.5 29.25V0.75C28.5 0.336 28.836 0 29.25 0C29.664 0 30 0.336 30 0.75V29.25C30 29.664 29.664 30 29.25 30Z" fill="#343434"/>
<path d="M11.25 12H6.75C5.5095 12 4.5 10.9905 4.5 9.75V3.75C4.5 2.5095 5.5095 1.5 6.75 1.5H11.25C12.4905 1.5 13.5 2.5095 13.5 3.75V9.75C13.5 10.9905 12.4905 12 11.25 12ZM6.75 3C6.336 3 6 3.336 6 3.75V9.75C6 10.164 6.336 10.5 6.75 10.5H11.25C11.664 10.5 12 10.164 12 9.75V3.75C12 3.336 11.664 3 11.25 3H6.75Z" fill="#343434"/>
<path d="M23.25 12H18.75C17.5095 12 16.5 10.9905 16.5 9.75V3.75C16.5 2.5095 17.5095 1.5 18.75 1.5H23.25C24.4905 1.5 25.5 2.5095 25.5 3.75V9.75C25.5 10.9905 24.4905 12 23.25 12ZM18.75 3C18.336 3 18 3.336 18 3.75V9.75C18 10.164 18.336 10.5 18.75 10.5H23.25C23.664 10.5 24 10.164 24 9.75V3.75C24 3.336 23.664 3 23.25 3H18.75Z" fill="#343434"/>
</svg>
