<svg width="30" height="30" viewBox="0 0 30 30" fill="none" xmlns="http://www.w3.org/2000/svg">
<path d="M0 21C0 21.414 0.336 21.75 0.75 21.75H29.25C29.664 21.75 30 21.414 30 21C30 20.586 29.664 20.25 29.25 20.25H0.75C0.336 20.25 0 20.586 0 21Z" fill="#343434"/>
<path d="M12.471 26.039L15 23.5404L17.529 26.039C17.8082 26.3203 18.2614 26.3203 18.5406 26.039C18.8198 25.7576 18.8198 25.3009 18.5406 25.0195L15.5058 21.961C15.2266 21.6797 14.7734 21.6797 14.4942 21.961L11.4594 25.0195C11.1802 25.3009 11.1802 25.7576 11.4594 26.039C11.7386 26.3203 12.1918 26.3203 12.471 26.039Z" fill="#343434"/>
<path d="M0 9C0 9.414 0.336 9.75 0.75 9.75H29.25C29.664 9.75 30 9.414 30 9C30 8.586 29.664 8.25 29.25 8.25H0.75C0.336 8.25 0 8.586 0 9Z" fill="#343434"/>
<path d="M17.529 3.96103L15 6.45964L12.471 3.96103C12.1918 3.67966 11.7386 3.67966 11.4594 3.96103C11.1802 4.24241 11.1802 4.69914 11.4594 4.98052L14.4942 8.03897C14.7734 8.32034 15.2266 8.32034 15.5058 8.03897L18.5406 4.98052C18.8198 4.69914 18.8198 4.24241 18.5406 3.96103C18.2614 3.67966 17.8082 3.67966 17.529 3.96103Z" fill="#343434"/>
</svg>
