<svg width="30" height="30" viewBox="0 0 30 30" fill="none" xmlns="http://www.w3.org/2000/svg">
<path d="M0 22.5C0 22.914 0.336 23.25 0.75 23.25H29.25C29.664 23.25 30 22.914 30 22.5C30 22.086 29.664 21.75 29.25 21.75H0.75C0.336 21.75 0 22.086 0 22.5Z" fill="#343434"/>
<path d="M12.471 27.539L15 25.0404L17.529 27.539C17.8082 27.8203 18.2614 27.8203 18.5406 27.539C18.8198 27.2576 18.8198 26.8009 18.5406 26.5195L15.5058 23.461C15.2266 23.1797 14.7734 23.1797 14.4942 23.461L11.4594 26.5195C11.1802 26.8009 11.1802 27.2576 11.4594 27.539C11.7386 27.8203 12.1918 27.8203 12.471 27.539Z" fill="#343434"/>
<path d="M0 7.5C0 7.914 0.336 8.25 0.75 8.25H29.25C29.664 8.25 30 7.914 30 7.5C30 7.086 29.664 6.75 29.25 6.75H0.75C0.336 6.75 0 7.086 0 7.5Z" fill="#343434"/>
<path d="M17.529 2.46103L15 4.95964L12.471 2.46103C12.1918 2.17966 11.7386 2.17966 11.4594 2.46103C11.1802 2.74241 11.1802 3.19914 11.4594 3.48052L14.4942 6.53897C14.7734 6.82034 15.2266 6.82034 15.5058 6.53897L18.5406 3.48052C18.8198 3.19914 18.8198 2.74241 18.5406 2.46103C18.2614 2.17966 17.8082 2.17966 17.529 2.46103Z" fill="#343434"/>
</svg>
