<svg width="30" height="30" viewBox="0 0 30 30" fill="none" xmlns="http://www.w3.org/2000/svg">
<path d="M0.75 30C0.336 30 0 29.664 0 29.25V0.75C0 0.336 0.336 0 0.75 0C1.164 0 1.5 0.336 1.5 0.75V29.25C1.5 29.664 1.164 30 0.75 30Z" fill="#343434"/>
<path d="M17.25 13.5H5.25C4.0095 13.5 3 12.4905 3 11.25V5.25C3 4.0095 4.0095 3 5.25 3H17.25C18.4905 3 19.5 4.0095 19.5 5.25V11.25C19.5 12.4905 18.4905 13.5 17.25 13.5ZM5.25 4.5C4.836 4.5 4.5 4.836 4.5 5.25V11.25C4.5 11.664 4.836 12 5.25 12H17.25C17.664 12 18 11.664 18 11.25V5.25C18 4.836 17.664 4.5 17.25 4.5H5.25Z" fill="#343434"/>
<path d="M26.25 27H5.25C4.0095 27 3 25.9905 3 24.75V18.75C3 17.5095 4.0095 16.5 5.25 16.5H26.25C27.4905 16.5 28.5 17.5095 28.5 18.75V24.75C28.5 25.9905 27.4905 27 26.25 27ZM5.25 18C4.836 18 4.5 18.336 4.5 18.75V24.75C4.5 25.164 4.836 25.5 5.25 25.5H26.25C26.664 25.5 27 25.164 27 24.75V18.75C27 18.336 26.664 18 26.25 18H5.25Z" fill="#343434"/>
</svg>
