<svg width="30" height="30" viewBox="0 0 30 30" fill="none" xmlns="http://www.w3.org/2000/svg">
<path d="M24.75 16.5H15V13.5H20.25C21.4905 13.5 22.5 12.4905 22.5 11.25V5.25C22.5 4.0095 21.4905 3 20.25 3H15V0.75C15 0.336 14.664 0 14.25 0C13.836 0 13.5 0.336 13.5 0.75V3H8.25C7.0095 3 6 4.0095 6 5.25V11.25C6 12.4905 7.0095 13.5 8.25 13.5H13.5V16.5H3.75C2.5095 16.5 1.5 17.5095 1.5 18.75V24.75C1.5 25.9905 2.5095 27 3.75 27H13.5V29.25C13.5 29.664 13.836 30 14.25 30C14.664 30 15 29.664 15 29.25V27H24.75C25.9905 27 27 25.9905 27 24.75V18.75C27 17.5095 25.9905 16.5 24.75 16.5ZM20.25 4.5C20.664 4.5 21 4.836 21 5.25V11.25C21 11.664 20.664 12 20.25 12H15V4.5H20.25ZM8.25 12C7.836 12 7.5 11.664 7.5 11.25V5.25C7.5 4.836 7.836 4.5 8.25 4.5H13.5V12H8.25ZM3.75 25.5C3.336 25.5 3 25.164 3 24.75V18.75C3 18.336 3.336 18 3.75 18H13.5V25.5H3.75ZM25.5 24.75C25.5 25.164 25.164 25.5 24.75 25.5H15V18H24.75C25.164 18 25.5 18.336 25.5 18.75V24.75Z" fill="#343434"/>
</svg>
