<svg width="30" height="30" viewBox="0 0 30 30" fill="none" xmlns="http://www.w3.org/2000/svg">
<path d="M0 16.5C0 16.914 0.336 17.25 0.75 17.25H29.25C29.664 17.25 30 16.914 30 16.5C30 16.086 29.664 15.75 29.25 15.75H0.75C0.336 15.75 0 16.086 0 16.5Z" fill="#343434"/>
<path d="M12.471 21.539L15 19.0404L17.529 21.539C17.8082 21.8203 18.2614 21.8203 18.5406 21.539C18.8198 21.2576 18.8198 20.8009 18.5406 20.5195L15.5058 17.461C15.2266 17.1797 14.7734 17.1797 14.4942 17.461L11.4594 20.5195C11.1802 20.8009 11.1802 21.2576 11.4594 21.539C11.7386 21.8203 12.1918 21.8203 12.471 21.539Z" fill="#343434"/>
<path d="M0 13.5C0 13.914 0.336 14.25 0.75 14.25H29.25C29.664 14.25 30 13.914 30 13.5C30 13.086 29.664 12.75 29.25 12.75H0.75C0.336 12.75 0 13.086 0 13.5Z" fill="#343434"/>
<path d="M17.529 8.46103L15 10.9596L12.471 8.46103C12.1918 8.17966 11.7386 8.17966 11.4594 8.46103C11.1802 8.74241 11.1802 9.19914 11.4594 9.48052L14.4942 12.539C14.7734 12.8203 15.2266 12.8203 15.5058 12.539L18.5406 9.48052C18.8198 9.19914 18.8198 8.74241 18.5406 8.46103C18.2614 8.17966 17.8082 8.17966 17.529 8.46103Z" fill="#343434"/>
</svg>
