<svg width="30" height="30" viewBox="0 0 30 30" fill="none" xmlns="http://www.w3.org/2000/svg">
<path d="M0 18C0 18.414 0.336 18.75 0.75 18.75H29.25C29.664 18.75 30 18.414 30 18C30 17.586 29.664 17.25 29.25 17.25H0.75C0.336 17.25 0 17.586 0 18Z" fill="#343434"/>
<path d="M12.471 23.039L15 20.5404L17.529 23.039C17.8082 23.3203 18.2614 23.3203 18.5406 23.039C18.8198 22.7576 18.8198 22.3009 18.5406 22.0195L15.5058 18.961C15.2266 18.6797 14.7734 18.6797 14.4942 18.961L11.4594 22.0195C11.1802 22.3009 11.1802 22.7576 11.4594 23.039C11.7386 23.3203 12.1918 23.3203 12.471 23.039Z" fill="#343434"/>
<path d="M0 12C0 12.414 0.336 12.75 0.75 12.75H29.25C29.664 12.75 30 12.414 30 12C30 11.586 29.664 11.25 29.25 11.25H0.75C0.336 11.25 0 11.586 0 12Z" fill="#343434"/>
<path d="M17.529 6.96103L15 9.45964L12.471 6.96103C12.1918 6.67966 11.7386 6.67966 11.4594 6.96103C11.1802 7.24241 11.1802 7.69914 11.4594 7.98052L14.4942 11.039C14.7734 11.3203 15.2266 11.3203 15.5058 11.039L18.5406 7.98052C18.8198 7.69914 18.8198 7.24241 18.5406 6.96103C18.2614 6.67966 17.8082 6.67966 17.529 6.96103Z" fill="#343434"/>
</svg>
