<svg width="30" height="30" viewBox="0 0 30 30" fill="none" xmlns="http://www.w3.org/2000/svg">
<path d="M0.75 30C0.336 30 0 29.664 0 29.25V0.75C0 0.336 0.336 0 0.75 0C1.164 0 1.5 0.336 1.5 0.75V29.25C1.5 29.664 1.164 30 0.75 30Z" fill="#343434"/>
<path d="M8.25 12H5.25C4.0095 12 3 10.9905 3 9.75V3.75C3 2.5095 4.0095 1.5 5.25 1.5H8.25C9.4905 1.5 10.5 2.5095 10.5 3.75V9.75C10.5 10.9905 9.4905 12 8.25 12ZM5.25 3C4.836 3 4.5 3.336 4.5 3.75V9.75C4.5 10.164 4.836 10.5 5.25 10.5H8.25C8.664 10.5 9 10.164 9 9.75V3.75C9 3.336 8.664 3 8.25 3H5.25Z" fill="#343434"/>
<path d="M17.25 24H14.25C13.0095 24 12 22.9905 12 21.75V15.75C12 14.5095 13.0095 13.5 14.25 13.5H17.25C18.4905 13.5 19.5 14.5095 19.5 15.75V21.75C19.5 22.9905 18.4905 24 17.25 24ZM14.25 15C13.836 15 13.5 15.336 13.5 15.75V21.75C13.5 22.164 13.836 22.5 14.25 22.5H17.25C17.664 22.5 18 22.164 18 21.75V15.75C18 15.336 17.664 15 17.25 15H14.25Z" fill="#343434"/>
<path d="M8.25 24H5.25C4.0095 24 3 22.9905 3 21.75V15.75C3 14.5095 4.0095 13.5 5.25 13.5H8.25C9.4905 13.5 10.5 14.5095 10.5 15.75V21.75C10.5 22.9905 9.4905 24 8.25 24ZM5.25 15C4.836 15 4.5 15.336 4.5 15.75V21.75C4.5 22.164 4.836 22.5 5.25 22.5H8.25C8.664 22.5 9 22.164 9 21.75V15.75C9 15.336 8.664 15 8.25 15H5.25Z" fill="#343434"/>
</svg>
