<svg width="30" height="30" viewBox="0 0 30 30" fill="none" xmlns="http://www.w3.org/2000/svg">
<path d="M29.25 30C29.664 30 30 29.664 30 29.25V0.75C30 0.336 29.664 0 29.25 0C28.836 0 28.5 0.336 28.5 0.75V29.25C28.5 29.664 28.836 30 29.25 30Z" fill="#343434"/>
<path d="M0.75 30C1.164 30 1.5 29.664 1.5 29.25V0.75C1.5 0.336 1.164 0 0.75 0C0.336 0 0 0.336 0 0.75V29.25C0 29.664 0.336 30 0.75 30Z" fill="#343434"/>
<path d="M2.25 24.75V18.75C2.25 17.5095 3.2595 16.5 4.5 16.5H25.5C26.7405 16.5 27.75 17.5095 27.75 18.75V24.75C27.75 25.9905 26.7405 27 25.5 27H4.5C3.2595 27 2.25 25.9905 2.25 24.75ZM4.5 18C4.086 18 3.75 18.336 3.75 18.75V24.75C3.75 25.164 4.086 25.5 4.5 25.5H25.5C25.914 25.5 26.25 25.164 26.25 24.75V18.75C26.25 18.336 25.914 18 25.5 18H4.5Z" fill="#343434"/>
<path d="M2.25 11.25V5.25C2.25 4.0095 3.2595 3 4.5 3H25.5C26.7405 3 27.75 4.0095 27.75 5.25V11.25C27.75 12.4905 26.7405 13.5 25.5 13.5H4.5C3.2595 13.5 2.25 12.4905 2.25 11.25ZM4.5 4.5C4.086 4.5 3.75 4.836 3.75 5.25V11.25C3.75 11.664 4.086 12 4.5 12H25.5C25.914 12 26.25 11.664 26.25 11.25V5.25C26.25 4.836 25.914 4.5 25.5 4.5H4.5Z" fill="#343434"/>
</svg>
