<svg width="30" height="30" viewBox="0 0 30 30" fill="none" xmlns="http://www.w3.org/2000/svg">
<path d="M0 24C0 24.414 0.336 24.75 0.75 24.75H29.25C29.664 24.75 30 24.414 30 24C30 23.586 29.664 23.25 29.25 23.25H0.75C0.336 23.25 0 23.586 0 24Z" fill="#343434"/>
<path d="M12.471 29.039L15 26.5404L17.529 29.039C17.8082 29.3203 18.2614 29.3203 18.5406 29.039C18.8198 28.7576 18.8198 28.3009 18.5406 28.0195L15.5058 24.961C15.2266 24.6797 14.7734 24.6797 14.4942 24.961L11.4594 28.0195C11.1802 28.3009 11.1802 28.7576 11.4594 29.039C11.7386 29.3203 12.1918 29.3203 12.471 29.039Z" fill="#343434"/>
<path d="M0 6C0 6.414 0.336 6.75 0.75 6.75H29.25C29.664 6.75 30 6.414 30 6C30 5.586 29.664 5.25 29.25 5.25H0.75C0.336 5.25 0 5.586 0 6Z" fill="#343434"/>
<path d="M17.529 0.961033L15 3.45964L12.471 0.961033C12.1918 0.679656 11.7386 0.679656 11.4594 0.961033C11.1802 1.24241 11.1802 1.69914 11.4594 1.98052L14.4942 5.03897C14.7734 5.32034 15.2266 5.32034 15.5058 5.03897L18.5406 1.98052C18.8198 1.69914 18.8198 1.24241 18.5406 0.961033C18.2614 0.679656 17.8082 0.679656 17.529 0.961033Z" fill="#343434"/>
</svg>
