<svg width="30" height="30" viewBox="0 0 30 30" fill="none" xmlns="http://www.w3.org/2000/svg">
<path d="M30 15C30 15.414 29.664 15.75 29.25 15.75L0.75 15.75C0.336 15.75 0 15.414 0 15C0 14.586 0.336 14.25 0.75 14.25L29.25 14.25C29.664 14.25 30 14.586 30 15Z" fill="#343434"/>
<path d="M6.25 20.25H3.25C2.0095 20.25 1 19.2405 1 18V12C1 10.7595 2.0095 9.75 3.25 9.75H6.25C7.4905 9.75 8.5 10.7595 8.5 12V18C8.5 19.2405 7.4905 20.25 6.25 20.25ZM3.25 11.25C2.836 11.25 2.5 11.586 2.5 12V18C2.5 18.414 2.836 18.75 3.25 18.75H6.25C6.664 18.75 7 18.414 7 18V12C7 11.586 6.664 11.25 6.25 11.25H3.25Z" fill="#343434"/>
<path d="M26.75 20.25H23.75C22.5095 20.25 21.5 19.2405 21.5 18V12C21.5 10.7595 22.5095 9.75 23.75 9.75H26.75C27.9905 9.75 29 10.7595 29 12V18C29 19.2405 27.9905 20.25 26.75 20.25ZM23.75 11.25C23.336 11.25 23 11.586 23 12V18C23 18.414 23.336 18.75 23.75 18.75H26.75C27.164 18.75 27.5 18.414 27.5 18V12C27.5 11.586 27.164 11.25 26.75 11.25H23.75Z" fill="#343434"/>
<path d="M16.5 20.25H13.5C12.2595 20.25 11.25 19.2405 11.25 18V12C11.25 10.7595 12.2595 9.75 13.5 9.75H16.5C17.7405 9.75 18.75 10.7595 18.75 12V18C18.75 19.2405 17.7405 20.25 16.5 20.25ZM13.5 11.25C13.086 11.25 12.75 11.586 12.75 12V18C12.75 18.414 13.086 18.75 13.5 18.75H16.5C16.914 18.75 17.25 18.414 17.25 18V12C17.25 11.586 16.914 11.25 16.5 11.25H13.5Z" fill="#343434"/>
</svg>
