<svg width="30" height="30" viewBox="0 0 30 30" fill="none" xmlns="http://www.w3.org/2000/svg">
<path d="M0.75 30C0.336 30 0 29.664 0 29.25V0.75C0 0.336 0.336 0 0.75 0C1.164 0 1.5 0.336 1.5 0.75V29.25C1.5 29.664 1.164 30 0.75 30Z" fill="#343434"/>
<path d="M30 0.75C30 1.164 29.664 1.5 29.25 1.5H0.75C0.336 1.5 0 1.164 0 0.75C0 0.336 0.336 0 0.75 0H29.25C29.664 0 30 0.336 30 0.75Z" fill="#343434"/>
<path d="M14.5 17H9.5C8.12167 17 7 16.0386 7 14.8571V9.14286C7 7.96143 8.12167 7 9.5 7H14.5C15.8783 7 17 7.96143 17 9.14286V14.8571C17 16.0386 15.8783 17 14.5 17ZM9.5 8.42857C9.04 8.42857 8.66667 8.74857 8.66667 9.14286V14.8571C8.66667 15.2514 9.04 15.5714 9.5 15.5714H14.5C14.96 15.5714 15.3333 15.2514 15.3333 14.8571V9.14286C15.3333 8.74857 14.96 8.42857 14.5 8.42857H9.5Z" fill="#343434"/>
</svg>
