<svg width="30" height="30" viewBox="0 0 30 30" fill="none" xmlns="http://www.w3.org/2000/svg">
<path d="M0.75 30C0.336 30 0 29.664 0 29.25V0.75C0 0.336 0.336 0 0.75 0C1.164 0 1.5 0.336 1.5 0.75V29.25C1.5 29.664 1.164 30 0.75 30Z" fill="#343434"/>
<path d="M30 0.75C30 1.164 29.664 1.5 29.25 1.5H0.75C0.336 1.5 0 1.164 0 0.75C0 0.336 0.336 0 0.75 0H29.25C29.664 0 30 0.336 30 0.75Z" fill="#343434"/>
<path d="M18.5 21H13.5C12.1217 21 11 20.0386 11 18.8571V13.1429C11 11.9614 12.1217 11 13.5 11H18.5C19.8783 11 21 11.9614 21 13.1429V18.8571C21 20.0386 19.8783 21 18.5 21ZM13.5 12.4286C13.04 12.4286 12.6667 12.7486 12.6667 13.1429V18.8571C12.6667 19.2514 13.04 19.5714 13.5 19.5714H18.5C18.96 19.5714 19.3333 19.2514 19.3333 18.8571V13.1429C19.3333 12.7486 18.96 12.4286 18.5 12.4286H13.5Z" fill="#343434"/>
</svg>
