<svg width="30" height="30" viewBox="0 0 30 30" fill="none" xmlns="http://www.w3.org/2000/svg">
<path d="M0.75 30C0.336 30 0 29.664 0 29.25V0.75C0 0.336 0.336 0 0.75 0C1.164 0 1.5 0.336 1.5 0.75V29.25C1.5 29.664 1.164 30 0.75 30Z" fill="#343434"/>
<path d="M29.25 30C28.836 30 28.5 29.664 28.5 29.25V0.75C28.5 0.336 28.836 0 29.25 0C29.664 0 30 0.336 30 0.75V29.25C30 29.664 29.664 30 29.25 30Z" fill="#343434"/>
<path d="M19.2503 14.0231H16.3872L17.3184 12.2902C17.4768 11.9954 17.4768 11.516 17.3184 11.2212C17.1599 10.9263 16.9023 10.9263 16.7439 11.2212L15.1188 14.2454C14.9604 14.5403 14.9604 15.0196 15.1188 15.3145L16.7439 18.3388C16.8235 18.487 16.9275 18.5596 17.0315 18.5596C17.1355 18.5596 17.2396 18.4855 17.3192 18.3388C17.4776 18.0439 17.4776 17.5646 17.3192 17.2697L16.388 15.5368H19.2512C19.4754 15.5368 19.6574 15.1981 19.6574 14.7807C19.6574 14.3634 19.4754 14.0247 19.2512 14.0247L19.2503 14.0231Z" fill="#343434"/>
<path d="M3.25 25.5V4.5C3.25 3.2595 4.2595 2.25 5.5 2.25H11.5C12.7405 2.25 13.75 3.2595 13.75 4.5V25.5C13.75 26.7405 12.7405 27.75 11.5 27.75H5.5C4.2595 27.75 3.25 26.7405 3.25 25.5ZM12.25 4.5C12.25 4.086 11.914 3.75 11.5 3.75H5.5C5.086 3.75 4.75 4.086 4.75 4.5V25.5C4.75 25.914 5.086 26.25 5.5 26.25H11.5C11.914 26.25 12.25 25.914 12.25 25.5V4.5Z" fill="#343434"/>
</svg>
