<svg width="30" height="30" viewBox="0 0 30 30" fill="none" xmlns="http://www.w3.org/2000/svg">
<path d="M0.75 30C0.336 30 0 29.664 0 29.25V0.75C0 0.336 0.336 0 0.75 0C1.164 0 1.5 0.336 1.5 0.75V29.25C1.5 29.664 1.164 30 0.75 30Z" fill="#343434"/>
<path d="M30 0.75C30 1.164 29.664 1.5 29.25 1.5H0.75C0.336 1.5 0 1.164 0 0.75C0 0.336 0.336 0 0.75 0H29.25C29.664 0 30 0.336 30 0.75Z" fill="#343434"/>
<path d="M10.5 13H5.5C4.12167 13 3 12.0386 3 10.8571V5.14286C3 3.96143 4.12167 3 5.5 3H10.5C11.8783 3 13 3.96143 13 5.14286V10.8571C13 12.0386 11.8783 13 10.5 13ZM5.5 4.42857C5.04 4.42857 4.66667 4.74857 4.66667 5.14286V10.8571C4.66667 11.2514 5.04 11.5714 5.5 11.5714H10.5C10.96 11.5714 11.3333 11.2514 11.3333 10.8571V5.14286C11.3333 4.74857 10.96 4.42857 10.5 4.42857H5.5Z" fill="#343434"/>
</svg>
