<svg width="30" height="30" viewBox="0 0 30 30" fill="none" xmlns="http://www.w3.org/2000/svg">
<path d="M0.75 30C0.336 30 0 29.664 0 29.25V0.75C0 0.336 0.336 0 0.75 0C1.164 0 1.5 0.336 1.5 0.75V29.25C1.5 29.664 1.164 30 0.75 30Z" fill="#343434"/>
<path d="M30 0.75C30 1.164 29.664 1.5 29.25 1.5H0.75C0.336 1.5 0 1.164 0 0.75C0 0.336 0.336 0 0.75 0H29.25C29.664 0 30 0.336 30 0.75Z" fill="#343434"/>
<path d="M12.5 15H7.5C6.12167 15 5 14.0386 5 12.8571V7.14286C5 5.96143 6.12167 5 7.5 5H12.5C13.8783 5 15 5.96143 15 7.14286V12.8571C15 14.0386 13.8783 15 12.5 15ZM7.5 6.42857C7.04 6.42857 6.66667 6.74857 6.66667 7.14286V12.8571C6.66667 13.2514 7.04 13.5714 7.5 13.5714H12.5C12.96 13.5714 13.3333 13.2514 13.3333 12.8571V7.14286C13.3333 6.74857 12.96 6.42857 12.5 6.42857H7.5Z" fill="#343434"/>
</svg>
