<svg width="30" height="30" viewBox="0 0 30 30" fill="none" xmlns="http://www.w3.org/2000/svg">
<g clip-path="url(#clip0)">
<path d="M15 30C23.2843 30 30 23.2843 30 15C30 6.71573 23.2843 0 15 0C6.71573 0 0 6.71573 0 15C0 23.2843 6.71573 30 15 30Z" fill="#343434"/>
<circle cx="15" cy="15" r="13.125" fill="#FFEB3B"/>
<path d="M25.0455 17.6731C24.2773 18.3077 23.2727 19.2308 22.0909 19.6923C24.0409 16.9231 20.2591 15.5385 18.5455 18.5385C17.8955 16.1154 15.65 17.7885 15 20.8462C14.35 17.7885 12.1045 16.1154 11.4545 18.5385C9.74091 15.5385 5.95909 16.9231 7.90909 19.6923C6.72727 19.2308 5.72273 18.3077 4.95455 17.6154C3.89091 16.6346 3.24091 15.4808 3.18182 14.3846C3.24091 11.9615 6.07727 9.65385 10.2727 8.73077C7.31818 12.5385 12.1045 15.25 12.9318 11.8462L13.2864 8.44231L14.1136 9.30769H15H15.8864L16.7136 8.44231L17.0682 11.8462C17.8955 15.1923 22.6818 12.5385 19.7273 8.73077C23.9227 9.71154 26.7591 12.0192 26.8182 14.4423C26.7591 15.5385 26.1091 16.6923 25.0455 17.6731Z" fill="#343434"/>
</g>
<defs>
<clipPath id="clip0">
<rect width="30" height="30" fill="white"/>
</clipPath>
</defs>
</svg>
