<svg width="30" height="30" viewBox="0 0 30 30" fill="none" xmlns="http://www.w3.org/2000/svg">
<g clip-path="url(#clip0)">
<circle cx="15" cy="15" r="13.125" fill="#EC1E24"/>
<path fill-rule="evenodd" d="M0 14.9818C0.173835 9.73734 2.32307 5.50906 6.74076 2.48637C9.0018 0.939348 11.5422 0.115997 14.2983 0.0127208C18.9974 -0.163387 22.9408 1.49019 26.093 4.90262C28.3998 7.40005 29.6682 10.3713 29.9439 13.7351C30.2491 17.4598 29.3107 20.8683 27.0752 23.8903C24.7137 27.0825 21.5472 29.1066 17.576 29.7662C12.6963 30.5767 8.40633 29.2735 4.79277 25.9577C2.17331 23.5541 0.671689 20.5493 0.161042 17.066C0.0600951 16.3778 0.0233285 15.6831 0 14.9818ZM2.09054 14.354C2.08054 17.696 2.94434 20.3633 4.56938 22.6173C7.27516 26.3703 11.7499 28.3633 16.3982 27.8767C18.6045 27.6457 20.6213 26.8967 22.4062 25.6063C25.7575 23.1837 27.5866 19.9027 27.8862 15.833C28.1051 12.8596 27.3694 10.0936 25.6491 7.6305C23.2473 4.19174 19.9179 2.26322 15.664 2.01354C12.405 1.82221 9.4789 2.78256 6.96351 4.82345C3.73708 7.44128 2.18557 10.8687 2.09054 14.354Z" fill="#343434"/>
<path fill-rule="evenodd" d="M14.9993 12.7383L14.5447 12.1195L14.1973 12.7383L14.0779 13.2269L13.7196 13.6069C13.2997 13.274 12.395 12.5321 12.1344 12.228C11.8738 11.924 11.4902 11.4861 11.3309 11.3052V6.7913C12.0254 5.97733 13.4449 4.27562 13.567 3.98048C13.6891 3.68534 11.6971 5.63769 10.6859 6.65076C10.738 7.15991 10.838 8.34542 10.8206 9.01424C10.8032 9.68306 10.7627 11.0229 10.7446 11.6092L13.155 14.1498L10.6859 13.911C10.387 13.5961 9.73487 12.8817 9.51772 12.5429C9.30058 12.2042 8.94952 11.649 8.80113 11.4137V8.05878C8.67808 8.42431 8.41026 9.30739 8.3234 9.91541C8.23654 10.5234 8.19311 11.2979 8.18225 11.6092L10.3429 14.4213C10.8098 14.4864 11.8391 14.6297 12.2212 14.6818C12.6034 14.734 13.2418 14.9062 13.5133 14.9858C13.1875 15.0836 12.4384 15.2942 12.0475 15.355C11.6566 15.4158 10.8351 15.4382 10.4732 15.4419L8.18225 18.3842C8.19311 18.7606 8.23654 19.6437 8.3234 20.1649C8.41026 20.686 8.64189 21.5763 8.74684 21.9563V18.5797C8.98571 18.1888 9.54378 17.3202 9.86516 16.9728C10.1865 16.6253 10.5564 16.22 10.7012 16.0607C10.9943 16.0463 11.6914 16.0086 12.1344 15.9739C12.5774 15.9391 13.0066 15.8508 13.1658 15.811L10.7012 18.3842C10.7482 18.9524 10.838 20.2539 10.8206 20.914C10.8032 21.5742 10.7338 22.8467 10.7012 23.4004L13.5567 26.0496C13.1224 25.4199 12.1973 24.0953 11.9715 23.8347C11.7457 23.5741 11.4359 23.2846 11.3092 23.1724V18.6557L12.4279 17.4888C12.3542 17.7339 12.3146 17.9938 12.3146 18.263C12.3146 19.7457 13.5165 20.9476 14.9992 20.9476C16.4818 20.9476 17.6838 19.7457 17.6838 18.263C17.6838 17.9929 17.6439 17.7321 17.5697 17.4862L18.6908 18.6557V23.1724C18.5642 23.2846 18.2544 23.5741 18.0285 23.8347C17.8027 24.0953 16.8776 25.4199 16.4433 26.0496L19.2989 23.4004C19.2663 22.8467 19.1968 21.5742 19.1794 20.914C19.162 20.2539 19.2518 18.9524 19.2989 18.3842L16.8342 15.811C16.9934 15.8508 17.4227 15.9391 17.8657 15.9739C18.3087 16.0086 19.0057 16.0463 19.2989 16.0607C19.4436 16.22 19.8135 16.6253 20.1349 16.9728C20.4563 17.3202 21.0143 18.1888 21.2532 18.5797V21.9564C21.3582 21.5763 21.5898 20.686 21.6766 20.1649C21.7635 19.6437 21.8069 18.7606 21.8178 18.3842L19.5269 15.4419C19.1649 15.4382 18.3434 15.4158 17.9525 15.355C17.5617 15.2942 16.8125 15.0836 16.4868 14.9859C16.7582 14.9062 17.3966 14.734 17.7788 14.6818C18.161 14.6297 19.1903 14.4864 19.6572 14.4213L21.8178 11.6092C21.8069 11.2979 21.7635 10.5234 21.6766 9.91541C21.5898 9.30739 21.322 8.42431 21.1989 8.05878V11.4137C21.0505 11.649 20.6995 12.2042 20.4823 12.5429C20.2652 12.8817 19.6131 13.5961 19.3141 13.911L16.8451 14.1498L19.2554 11.6092C19.2373 11.0229 19.1968 9.68306 19.1794 9.01424C19.162 8.34542 19.262 7.15991 19.3141 6.65076C18.3029 5.6377 16.311 3.68534 16.4331 3.98048C16.5551 4.27562 17.9746 5.97733 18.6691 6.7913V11.3052C18.5099 11.4861 18.1262 11.924 17.8657 12.228C17.6051 12.5321 16.7003 13.274 16.2805 13.6069L15.9222 13.2269L15.8027 12.7383L15.4553 12.1195L14.9993 12.7383Z" fill="#343434"/>
<path fill-rule="evenodd" d="M14.9993 19.8693C14.6739 19.8693 14.3485 19.8693 14.0232 19.8693C13.9957 19.8693 13.9957 19.8692 14.0092 19.8462C14.2525 19.4307 14.5824 19.0152 14.8261 18.6C14.8332 18.5878 14.8348 18.5792 14.8271 18.5661C14.5826 18.148 14.2518 17.7296 14.0077 17.3112C13.9958 17.2907 13.9958 17.2905 14.0192 17.2905C14.673 17.2905 15.3268 17.2905 15.9806 17.2905C16.0042 17.2905 16.0043 17.2907 15.9923 17.3111C15.7455 17.7297 15.4405 18.1497 15.1934 18.5681C15.1863 18.5801 15.1869 18.5884 15.1938 18.6C15.4404 19.0161 15.7451 19.431 15.9913 19.8474C15.9948 19.8534 16.0036 19.8595 15.9989 19.8665C15.9946 19.8729 15.9849 19.8692 15.9777 19.8692C15.6516 19.8693 15.3255 19.8693 14.9993 19.8693Z" fill="#EC1E24"/>
</g>
<defs>
<clipPath id="clip0">
<rect width="30" height="30" fill="white"/>
</clipPath>
</defs>
</svg>
