<svg width="30" height="30" viewBox="0 0 30 30" fill="none" xmlns="http://www.w3.org/2000/svg">
<g clip-path="url(#clip0)">
<path opacity="0.2" d="M15 30C6.71569 30 0 23.2843 0 15C0 23.3313 6.71569 30.0852 15 30.0852C23.2843 30.0852 30 23.3313 30 15C30 23.2843 23.2843 30 15 30Z" fill="#B71C1C"/>
<path opacity="0.2" d="M15 -3.97861e-06C23.2843 -3.97861e-06 30 6.71569 30 15C30 6.66867 23.2843 -0.0852356 15 -0.0852356C6.71569 -0.0852356 0 6.66867 0 15C0 6.71569 6.71569 -3.97861e-06 15 -3.97861e-06Z" fill="white"/>
<path d="M15 30C23.2843 30 30 23.2843 30 15C30 6.71571 23.2843 -1.52588e-05 15 -1.52588e-05C6.71573 -1.52588e-05 0 6.71571 0 15C0 23.2843 6.71573 30 15 30Z" fill="#F44336"/>
<path d="M24.2442 14.9029C24.2442 20.0826 20.0489 24.2779 14.8692 24.2779C9.68959 24.2779 5.49426 20.0826 5.49426 14.9029C5.49426 9.7233 9.68959 5.52797 14.8692 5.52797C20.0489 5.52797 24.2442 9.7233 24.2442 14.9029Z" fill="#0572B9"/>
<path d="M27.0567 14.903C27.0567 21.6343 21.6005 27.0905 14.8692 27.0905C8.13796 27.0905 2.68176 21.6343 2.68176 14.903C2.68176 8.17172 8.13796 2.71552 14.8692 2.71552C21.6005 2.71552 27.0567 8.17172 27.0567 14.903Z" fill="#2196F3"/>
<path fill-rule="evenodd" clip-rule="evenodd" d="M14.8692 3.12567C8.36449 3.12567 3.09192 8.39824 3.09192 14.903C3.09192 21.4078 8.36449 26.6803 14.8692 26.6803C21.374 26.6803 26.6466 21.4078 26.6466 14.903C26.6466 8.39824 21.374 3.12567 14.8692 3.12567ZM2.27161 14.903C2.27161 7.94519 7.91144 2.30536 14.8692 2.30536C21.827 2.30536 27.4669 7.94519 27.4669 14.903C27.4669 21.8608 21.827 27.5006 14.8692 27.5006C7.91144 27.5006 2.27161 21.8608 2.27161 14.903Z" fill="white"/>
<path d="M14.8693 27.0904C21.6004 27.0904 27.0568 21.6342 27.0568 14.9029C27.0568 14.7471 27.0507 14.5927 27.0449 14.4382H27.0271L27.0446 14.4254C27.0433 14.3922 27.0437 14.3586 27.0421 14.3256L24.7011 11.8458H21.99L14.8693 4.6842L12.5411 11.8457H5.03735L10.7117 17.5097L8.8113 23.4081L12.3308 26.8238C12.3519 26.8283 12.3725 26.834 12.3937 26.8382L12.4703 26.853C12.5157 26.862 12.5619 26.8689 12.6075 26.8775L12.6128 26.8736L12.6115 26.8782C13.3435 27.0155 14.0974 27.0904 14.8693 27.0904Z" fill="url(#paint0_linear)"/>
<path d="M14.8692 4.68422L17.1974 11.8457H24.7011L24.7285 11.8256H17.1974L14.8692 4.59898L12.5411 11.8256H5.00989L5.03729 11.8457H12.5411L14.8692 4.68422Z" fill="white"/>
<path d="M20.9272 23.4081L18.6349 16.2929L18.6401 16.289L18.6349 16.2727L21.681 14.0598L24.7011 11.8457H17.1974L14.8692 4.68422L12.5411 11.8457H5.03729L8.05748 14.0598L11.1036 16.2727L11.0983 16.289L11.1036 16.2929L8.81137 23.4081L14.8692 19.0071L20.9272 23.4081Z" fill="white"/>
</g>
<defs>
<linearGradient id="paint0_linear" x1="8.00613" y1="8.87689" x2="23.0687" y2="23.9394" gradientUnits="userSpaceOnUse">
<stop stop-color="#0D47A1" stop-opacity="0.2"/>
<stop offset="1" stop-color="#0D47A1" stop-opacity="0"/>
</linearGradient>
<clipPath id="clip0">
<rect width="30" height="30" fill="white"/>
</clipPath>
</defs>
</svg>
