<svg width="256" height="256" viewBox="0 0 256 256" fill="none" xmlns="http://www.w3.org/2000/svg">
<path opacity="0.2" d="M128 247.322C62.1 247.322 8.67798 193.9 8.67798 128C8.67798 194.274 62.1 248 128 248C193.9 248 247.322 194.274 247.322 128C247.322 193.9 193.9 247.322 128 247.322Z" fill="#B71C1C"/>
<path opacity="0.2" d="M128 8.678C193.9 8.678 247.322 62.1 247.322 128C247.322 61.726 193.9 8 128 8C62.1 8 8.67798 61.726 8.67798 128C8.67798 62.1 62.1 8.678 128 8.678Z" fill="white"/>
<path d="M128 247.322C193.9 247.322 247.322 193.9 247.322 128C247.322 62.1003 193.9 8.67798 128 8.67798C62.1003 8.67798 8.67798 62.1003 8.67798 128C8.67798 193.9 62.1003 247.322 128 247.322Z" fill="#F44336"/>
<path d="M201.536 127.228C201.536 168.431 168.163 201.804 126.96 201.804C85.757 201.804 52.384 168.431 52.384 127.228C52.384 86.025 85.757 52.652 126.96 52.652C168.163 52.652 201.536 86.025 201.536 127.228Z" fill="#0572B9"/>
<path d="M223.909 127.228C223.909 180.774 180.506 224.177 126.96 224.177C73.414 224.177 30.011 180.774 30.011 127.228C30.011 73.682 73.414 30.279 126.96 30.279C180.506 30.279 223.909 73.682 223.909 127.228Z" fill="#2196F3"/>
<path fill-rule="evenodd" clip-rule="evenodd" d="M126.96 33.779C75.347 33.779 33.511 75.615 33.511 127.228C33.511 178.841 75.347 220.677 126.96 220.677C178.573 220.677 220.409 178.841 220.409 127.228C220.409 75.615 178.573 33.779 126.96 33.779ZM26.511 127.228C26.511 71.749 71.481 26.779 126.96 26.779C182.439 26.779 227.409 71.749 227.409 127.228C227.409 182.707 182.439 227.677 126.96 227.677C71.481 227.677 26.511 182.707 26.511 127.228Z" fill="white"/>
<path d="M126.96 224.177C180.505 224.177 223.909 180.774 223.909 127.228C223.909 125.988 223.861 124.76 223.815 123.531H223.673L223.812 123.429C223.802 123.165 223.805 122.898 223.792 122.635L205.17 102.909H183.604L126.96 45.94L108.44 102.908H48.749L93.887 147.964L78.77 194.885L106.767 222.056C106.935 222.092 107.099 222.137 107.267 222.171L107.877 222.288C108.238 222.36 108.605 222.415 108.968 222.483L109.01 222.452L109 222.489C114.823 223.581 120.82 224.177 126.96 224.177Z" fill="url(#paint0_linear)"/>
<path opacity="0.2" fill-rule="evenodd" clip-rule="evenodd" d="M126.96 43.6315L145.844 102.248H206.915L205.335 103.408H145.117L126.96 47.5573L108.803 103.408H48.5852L47.0046 102.248H108.076L126.96 43.6315Z" fill="#1A237E"/>
<path d="M175.15 196.885L156.915 140.285L156.957 140.254L156.915 140.124L181.146 122.521L205.171 104.908H145.48L126.96 47.94L108.44 104.908H48.749L72.774 122.521L97.005 140.124L96.963 140.254L97.005 140.285L78.771 196.885L126.96 161.876L175.15 196.885Z" fill="white"/>
<defs>
<linearGradient id="paint0_linear" x1="72.365" y1="79.292" x2="192.185" y2="199.112" gradientUnits="userSpaceOnUse">
<stop stop-color="#0D47A1" stop-opacity="0.2"/>
<stop offset="1" stop-color="#0D47A1" stop-opacity="0"/>
</linearGradient>
</defs>
</svg>
