<?xml version="1.0" ?><!DOCTYPE svg  PUBLIC '-//W3C//DTD SVG 1.1//EN'  'http://www.w3.org/Graphics/SVG/1.1/DTD/svg11.dtd'><svg enable-background="new 0 0 256 256" height="256px" id="Layer_1" version="1.1" viewBox="0 0 256 256" width="256px" xml:space="preserve" xmlns="http://www.w3.org/2000/svg" xmlns:xlink="http://www.w3.org/1999/xlink"><g><g><path d="M128,247.322C62.1,247.322,8.678,193.9,8.678,128    C8.678,194.274,62.1,248,128,248s119.322-53.726,119.322-120C247.322,193.9,193.9,247.322,128,247.322z" enable-background="new    " fill="#B71C1C" opacity="0.2"/><path d="M128,8.678C193.9,8.678,247.322,62.1,247.322,128    C247.322,61.726,193.9,8,128,8S8.678,61.726,8.678,128C8.678,62.1,62.1,8.678,128,8.678z" enable-background="new    " fill="#FFFFFF" opacity="0.2"/><circle cx="128" cy="128" fill="#F44336" r="119.322"/></g><path d="M201.536,127.228c0,41.203-33.373,74.576-74.576,74.576s-74.576-33.373-74.576-74.576   s33.373-74.576,74.576-74.576S201.536,86.025,201.536,127.228L201.536,127.228z" fill="#0572B9"/><path d="M223.909,127.228c0,53.546-43.403,96.949-96.949,96.949   s-96.949-43.403-96.949-96.949s43.403-96.949,96.949-96.949S223.909,73.682,223.909,127.228L223.909,127.228z" fill="#2196F3" stroke="#FFFFFF" stroke-width="7"/><linearGradient gradientTransform="matrix(1 0 0 -1 4 251)" gradientUnits="userSpaceOnUse" id="SVGID_1_" x1="68.365" x2="188.1846" y1="171.708" y2="51.8884"><stop offset="0" style="stop-color:#0D47A1;stop-opacity:0.2"/><stop offset="1" style="stop-color:#0D47A1;stop-opacity:0"/></linearGradient><path d="M126.96,224.177c53.545,0,96.949-43.403,96.949-96.949c0-1.24-0.048-2.468-0.094-3.697h-0.142   l0.139-0.102c-0.01-0.264-0.007-0.531-0.02-0.794l-18.622-19.726h-21.566L126.96,45.94l-18.52,56.968H48.749l45.138,45.056   L78.77,194.885l27.997,27.171c0.168,0.036,0.332,0.081,0.5,0.115l0.61,0.117c0.361,0.072,0.728,0.127,1.091,0.195l0.042-0.031   l-0.01,0.037C114.823,223.581,120.82,224.177,126.96,224.177z" fill="url(#SVGID_1_)"/><g><polygon enable-background="new    " fill="none" opacity="0.2" points="126.96,45.94 145.48,102.908     205.171,102.908 205.389,102.748 145.48,102.748 126.96,45.262 108.44,102.748 48.531,102.748 48.749,102.908 108.44,102.908       " stroke="#1A237E"/><polygon fill="#FFFFFF" points="175.15,194.885 156.915,138.285 156.957,138.254 156.915,138.124 181.146,120.521     205.171,102.908 145.48,102.908 126.96,45.94 108.44,102.908 48.749,102.908 72.774,120.521 97.005,138.124 96.963,138.254     97.005,138.285 78.771,194.885 126.96,159.876   "/></g></g></svg>