<svg width="30" height="30" viewBox="0 0 30 30" fill="none" xmlns="http://www.w3.org/2000/svg">
<path d="M17.7273 5.12727V24.8773C22.1136 23.6909 25.35 19.7136 25.35 15.0045C25.35 10.2955 22.1136 6.31364 17.7273 5.12727ZM18.7227 17.4L24.2227 14.1591C23.9636 16.5727 21.0909 21.3091 18.7227 17.4ZM15 0C6.72727 0 0 6.72727 0 15C0 23.2727 6.72727 30 15 30C23.2727 30 30 23.2727 30 15C30 6.72727 23.2727 0 15 0ZM15 28.4864C7.48636 28.4864 1.4 22.45 1.4 15C1.4 7.55 7.48636 1.51364 15 1.51364C22.5136 1.51364 28.6 7.55 28.6 15C28.6 22.45 22.5136 28.4864 15 28.4864ZM4.65 15C4.65 19.7091 7.88636 23.6864 12.2727 24.8727V5.12727C7.88636 6.31364 4.65 10.2909 4.65 15ZM5.64545 13.9591L11.0318 17.3864C8.52727 21.2136 5.81818 16.3818 5.64545 13.9591Z" fill="#343434"/>
<path d="M14.9999 1.51367C7.48627 1.51367 1.3999 7.55004 1.3999 15C1.3999 22.45 7.49081 28.4864 14.9999 28.4864C22.5135 28.4864 28.5999 22.45 28.5999 15C28.5999 7.55004 22.5135 1.51367 14.9999 1.51367ZM12.2726 24.8728C7.88627 23.6864 4.6499 19.7091 4.6499 15C4.6499 10.2909 7.88627 6.31367 12.2726 5.12731V24.8728ZM17.7272 24.8728V5.12731C22.1135 6.31367 25.3499 10.2909 25.3499 15C25.3499 19.7091 22.1135 23.6864 17.7272 24.8728Z" fill="#ED1C24"/>
<path d="M5.64551 13.9591L11.0319 17.3864C8.52733 21.2136 5.81824 16.3818 5.64551 13.9591ZM18.7228 17.4C21.091 21.3136 23.9637 16.5727 24.2228 14.1591L18.7228 17.4Z" fill="white"/>
</svg>
