<svg width="30" height="30" viewBox="0 0 30 30" fill="none" xmlns="http://www.w3.org/2000/svg">
<g clip-path="url(#clip0)">
<path opacity="0.2" d="M15 30C6.71569 30 0 23.2843 0 15C0 23.3313 6.71569 30.0852 15 30.0852C23.2843 30.0852 30 23.3313 30 15C30 23.2843 23.2843 30 15 30Z" fill="#B71C1C"/>
<path opacity="0.2" d="M15 -4.00096e-06C23.2843 -4.00096e-06 30 6.71569 30 15C30 6.66867 23.2843 -0.0852356 15 -0.0852356C6.71569 -0.0852356 0 6.66867 0 15C0 6.71569 6.71569 -4.00096e-06 15 -4.00096e-06Z" fill="white"/>
<path d="M15 30C23.2843 30 30 23.2843 30 15C30 6.71573 23.2843 0 15 0C6.71573 0 0 6.71573 0 15C0 23.2843 6.71573 30 15 30Z" fill="#F44336"/>
<path d="M15 30C23.2843 30 30 23.2843 30 15C30 14.6817 29.9889 14.3661 29.9693 14.0528L29.9663 14.0049C29.9633 13.9586 29.9609 13.9122 29.9575 13.8662L29.9495 13.7692C29.9471 13.7405 29.9443 13.712 29.9418 13.6833L29.929 13.5389C29.9277 13.5262 29.9268 13.5133 29.9256 13.5008L29.91 13.3471L21.4574 4.89941L11.5913 14.2384L12.7883 15.3564L9.95149 19.0003L11.552 20.5247L8.54504 25.1052L13.4632 29.9222C13.4716 29.923 13.4802 29.9237 13.4886 29.9246L13.6222 29.9364C13.6428 29.9383 13.6635 29.94 13.6842 29.9419L13.7814 29.9506C13.8146 29.9532 13.8475 29.9561 13.8807 29.9585L13.9419 29.9624C13.9883 29.9657 14.0349 29.9684 14.0814 29.9712L14.1036 29.9726C14.4001 29.99 14.6989 30 15 30Z" fill="url(#paint0_linear)"/>
<path d="M17.3714 11.3989L17.3526 11.3988L21.4573 4.89941L11.5913 14.2384H13.6584L13.6535 14.2447H13.6584L13.0656 15.0001L9.95136 19.0002H12.5308L12.5087 19.0336H12.5308L8.54504 25.1052L18.6652 16.0268H16.2249L16.2316 16.0184H16.2249L17.0328 14.9996L19.8182 11.4575L17.3526 11.4284L17.3714 11.3989Z" fill="#FFEB3B"/>
<path opacity="0.2" d="M21.5911 4.68753L11.5846 14.2385H11.5913L21.4572 4.89948L21.5911 4.68753Z" fill="#BF360C"/>
</g>
<defs>
<linearGradient id="paint0_linear" x1="12.9155" y1="12.9142" x2="25.6073" y2="25.6059" gradientUnits="userSpaceOnUse">
<stop stop-color="#212121" stop-opacity="0.2"/>
<stop offset="1" stop-color="#212121" stop-opacity="0"/>
</linearGradient>
<clipPath id="clip0">
<rect width="30" height="30" fill="white"/>
</clipPath>
</defs>
</svg>
