<svg width="30" height="30" viewBox="0 0 30 30" fill="none" xmlns="http://www.w3.org/2000/svg">
<circle cx="15" cy="15" r="15" fill="#03A032"/>
<path d="M3.26286 17.4149C3.56072 17.3274 3.85437 17.2358 4.16658 17.2475C4.35475 17.2551 4.52773 17.1954 4.68299 17.092C4.818 17.0028 4.91251 16.8859 4.89479 16.7093C4.87792 16.5412 4.7505 16.4747 4.61633 16.4285C4.08051 16.2435 3.53288 16.3326 2.98946 16.3746C2.85276 16.3856 2.71944 16.4444 2.53296 16.3898C2.87133 16.2098 3.21223 16.1686 3.54216 16.0988C4.02566 15.9971 4.49736 15.8633 4.92517 15.6127C5.46015 15.2991 5.569 15.0047 5.3842 14.4354C5.16397 13.7568 4.93951 13.0798 4.7235 12.4003C4.46107 11.5737 4.50411 10.7933 4.97495 10.0255C5.49306 9.18033 5.78164 8.20567 6.43222 7.43116C6.6263 7.1999 6.44403 7.10571 6.25586 7.05021C5.79852 6.91482 5.33864 6.78952 4.87792 6.66674C4.58258 6.58769 4.5117 6.48173 4.73953 6.21683C6.23983 4.47018 8.01859 3.0986 10.2125 2.35604C14.6408 0.85747 18.8523 1.28719 22.7448 3.95468C25.0518 5.53651 26.7394 7.63467 27.7031 10.2694C28.4296 12.2565 28.6633 14.3177 28.4659 16.4217C27.9824 21.5868 24.9986 24.9893 20.6049 27.3406C19.1831 28.1017 17.6026 28.3708 15.9783 28.47C13.7295 28.6071 11.5837 28.2783 9.52564 27.3835C8.64892 27.0025 7.83548 26.4997 7.0423 25.9682C6.95454 25.9093 6.81531 25.8555 6.86678 25.7193C6.90897 25.6074 7.03976 25.5914 7.15368 25.5797C7.62453 25.5317 8.07259 25.6469 8.51981 25.768C8.80418 25.8454 9.09023 25.9228 9.3881 25.9228C9.47754 25.9228 9.60833 25.9732 9.64377 25.8471C9.67837 25.7243 9.55011 25.6949 9.46826 25.6495C8.81684 25.2904 8.14769 24.9481 7.57981 24.4688C6.41281 23.484 5.44411 22.3244 4.70747 20.9847C4.41635 20.4541 4.39947 19.8831 4.60199 19.3163C4.74375 18.9177 4.81885 18.5056 4.89395 18.0935C4.98677 17.5865 4.85345 17.4443 4.33281 17.4023C3.97504 17.3762 3.62485 17.5427 3.26286 17.4149ZM6.7343 15.2074C6.64992 15.0207 6.56892 14.8323 6.48032 14.6473C6.44488 14.5742 6.41112 14.4817 6.30987 14.4834C6.20777 14.485 6.18498 14.5767 6.15292 14.6541C5.91749 15.2183 6.41366 16.2855 7.00686 16.4596C7.51821 16.6093 8.038 16.7295 8.55019 16.8767C8.81852 16.9532 9.11048 16.9927 9.30625 17.2442C8.77886 17.0861 8.24473 17.155 7.7165 17.1668C7.51314 17.171 7.22962 17.1584 7.18659 17.4612C7.14609 17.7445 7.25241 17.9926 7.50471 18.1432C7.62115 18.213 7.7646 18.2525 7.90045 18.2735C8.16372 18.313 8.43121 18.3265 8.69617 18.3568C9.07504 18.3996 9.46573 18.3904 9.81675 18.6015C8.80924 18.5603 7.95277 18.9109 7.18828 19.5223C6.99504 19.677 6.91235 19.5013 6.82122 19.392C6.55035 19.0665 6.25755 18.7671 5.88121 18.5603C5.54284 18.3744 5.41542 18.4383 5.40952 18.8168C5.40277 19.265 5.39349 19.7141 5.41796 20.1614C5.4458 20.6551 5.5825 21.1252 5.8348 21.5557C5.88458 21.6398 5.95968 21.7298 6.06685 21.7088C6.20101 21.6819 6.14701 21.5549 6.16136 21.4649C6.18161 21.3371 6.1006 21.1975 6.22127 21.0453C6.36978 21.3926 6.43053 21.7332 6.46935 22.0763C6.49635 22.3126 6.47947 22.5556 6.60098 22.7709C6.66764 22.8895 6.71658 23.0728 6.87353 23.0577C7.06255 23.0392 7.05917 22.8441 7.08111 22.6927C7.11402 22.4682 7.03048 22.226 7.18237 21.9527C7.42117 22.4261 7.40767 22.8903 7.50892 23.3276C7.57896 23.6295 7.75194 23.9709 8.06584 23.902C8.40084 23.8288 8.24642 23.4563 8.18735 23.2149C8.11394 22.9164 8.11141 22.6506 8.32489 22.3807C8.57719 23.0593 8.64048 23.7405 8.70123 24.4225C8.72148 24.6521 8.77296 24.8632 8.94763 25.0297C9.05563 25.1331 9.18052 25.2046 9.32734 25.1466C9.47501 25.0877 9.45982 24.938 9.44379 24.8169C9.41257 24.5823 9.36531 24.3494 9.31637 24.1173C9.26828 23.8927 9.27756 23.6867 9.46742 23.4546C9.63365 23.8086 9.6809 24.1332 9.71296 24.462C9.74334 24.7715 9.79735 25.0759 9.99058 25.3307C10.0817 25.4502 10.1855 25.62 10.3568 25.5595C10.5458 25.493 10.48 25.2895 10.4538 25.1525C10.4007 24.8691 10.3509 24.5915 10.4268 24.2333C10.5981 24.4545 10.6572 24.6487 10.6969 24.848C10.7416 25.0709 10.8192 25.2794 10.9382 25.4703C11.0048 25.5771 11.1306 25.6528 11.1939 25.4939C11.3922 24.9952 11.5727 25.3265 11.6706 25.5216C11.809 25.7966 12.0048 25.9228 12.2925 25.9404C12.9119 25.9766 13.4654 25.6705 14.0805 25.6335C13.7169 25.3148 13.3447 25.0692 12.9929 24.7984C12.3355 24.2922 12.2334 23.9365 12.4798 23.1552C12.5684 22.8752 12.679 22.5943 12.711 22.3067C12.7456 21.9922 12.8595 21.7416 13.0857 21.5355C13.4316 21.2193 13.4932 20.8636 13.2941 20.4389C12.9034 19.6047 12.8908 18.7352 13.0832 17.8522C13.1338 17.6209 13.1895 17.3905 13.2325 17.1576C13.2941 16.8279 13.2131 16.6606 12.8401 16.8229C12.6216 16.9179 12.3954 16.9936 12.1735 17.0802C11.8816 17.1929 11.5871 17.2778 11.247 17.2257C11.3415 17.0348 11.4799 16.9599 11.6276 16.9238C12.4503 16.722 12.8199 16.0408 13.2477 15.4202C13.311 15.3285 13.3878 15.2167 13.273 15.1208C13.1633 15.0291 13.0663 15.13 12.9701 15.1822C12.803 15.2722 12.7304 15.4841 12.5237 15.5472C12.4883 15.3621 12.5786 15.2268 12.6233 15.0838C12.7507 14.6759 12.7946 14.2613 12.7321 13.84C12.7144 13.7215 12.711 13.5634 12.5634 13.5272C12.4241 13.4936 12.3322 13.6138 12.2537 13.708C12.1372 13.8476 12.0444 14.0065 11.9297 14.147C11.7955 14.3118 11.6976 14.5178 11.3981 14.6566C11.5769 14.3093 11.7145 14.0444 11.8503 13.7778C12.2031 13.0882 12.2292 12.3288 12.344 11.5838C12.3904 11.281 12.3389 11.0943 12.0875 10.9547C11.4192 10.5822 10.9407 10.0171 10.5104 9.40571C10.4294 9.29134 10.307 9.18538 10.3467 9.00205C10.4074 9.02812 10.4488 9.03905 10.4825 9.06176C10.6066 9.14417 10.7179 9.32918 10.8741 9.24761C11.0538 9.15258 10.8901 8.97094 10.8918 8.82798C10.8935 8.68502 10.8074 8.56308 10.7711 8.43189C10.6504 7.98787 10.4572 7.55394 10.5272 7.06703C10.6859 7.29997 10.8049 7.54553 10.9162 7.79529C11.1964 8.426 11.5398 9.02055 11.9904 9.54362C12.2554 9.85225 12.5246 9.81945 12.6309 9.47635C12.8039 8.91628 13.2578 8.67576 13.7261 8.44871C13.8831 8.37302 14.1151 8.23174 14.2291 8.38648C14.3447 8.54374 14.094 8.6581 13.9877 8.77331C13.0882 9.74713 12.6596 10.8891 12.8604 12.2035C13.1372 14.0191 15.4222 15.4151 17.2077 14.9055C17.4364 14.8399 17.606 14.702 17.7494 14.5262C17.8912 14.3522 17.9216 14.1503 17.7283 14.0082C17.498 13.8392 17.5208 13.6189 17.5655 13.4036C17.7351 12.5979 17.6743 11.7831 17.6575 10.9732C17.644 10.319 17.6802 9.60922 17.4372 9.03149C17.244 8.57233 17.3453 8.33182 17.595 8.06524C18.0557 7.57328 18.0979 7.02835 18.0009 6.39091C17.8018 5.08912 16.9428 4.37432 15.8568 3.83779C15.6433 3.73267 15.3986 3.69231 15.1564 3.73519C14.2611 3.89582 13.3641 3.82602 12.4672 3.7579C11.7786 3.70576 11.0909 3.71165 10.4083 3.82349C9.65137 3.94795 8.96788 4.17249 8.66748 4.99914C8.58057 5.23881 8.3654 5.43391 8.19916 5.64246C7.91902 5.99314 7.58824 6.32531 7.45745 6.75588C7.26759 7.3807 6.89885 7.87602 6.48285 8.35452C5.6306 9.33255 5.26269 10.435 5.56225 11.7343C5.70654 12.3583 5.83396 12.9545 6.52673 13.2219C6.68536 13.2833 6.90644 13.3792 6.91319 13.576C6.92838 14.115 7.00517 14.6625 6.7343 15.2074ZM24.3413 18.2012C24.435 18.5014 24.3995 18.6973 24.397 18.8916C24.3936 19.1708 24.3548 19.4559 24.4535 19.725C24.5067 19.8696 24.6054 20.0252 24.7784 20.0134C24.9278 20.0033 24.9379 19.8259 24.9573 19.7115C25.0661 19.064 25.2054 18.4224 25.2425 17.7614C25.2678 17.3081 25.0552 17.0844 24.6577 16.9726C24.0055 16.7876 23.3338 16.6917 22.6604 16.6866C20.2007 16.6673 17.741 16.6656 15.2821 16.6816C14.2054 16.6883 14.1666 16.7119 13.9135 17.7563C13.6941 18.6612 13.6215 19.5829 14.0881 20.4558C14.2029 20.671 14.3438 20.8813 14.6164 20.8855C15.2484 20.8939 15.8812 20.8914 16.5133 20.8695C16.7942 20.8594 16.9647 20.7173 16.9774 20.3902C16.9909 20.0429 17.0752 19.6989 17.12 19.3524C17.1343 19.2389 17.1276 19.085 17.2541 19.08C17.4153 19.0732 17.4187 19.2557 17.4347 19.3684C17.4516 19.4887 17.4246 19.6182 17.3984 19.7401C17.3242 20.0849 17.3056 20.4331 17.3098 20.7837C17.3115 20.9544 17.3427 21.1008 17.5419 21.1201C17.9325 21.1571 18.308 21.2841 18.7072 21.2833C19.9585 21.2816 21.1838 21.4767 22.3955 21.7777C22.8655 21.8946 23.3161 21.8416 23.7211 21.5507C24.1017 21.2774 24.1371 21.1201 23.9152 20.7089C23.8696 20.6248 23.7996 20.5197 23.8173 20.4415C23.9793 19.7275 24.0418 18.9875 24.3413 18.2012ZM19.4177 11.7536C19.3881 11.7427 19.3586 11.7309 19.3282 11.72C19.3282 11.5459 19.3257 11.3727 19.3291 11.1986C19.3316 11.0346 19.2987 10.8858 19.1333 10.8135C18.9814 10.747 18.8624 10.8387 18.7502 10.9245C18.3671 11.2163 18.2726 11.6426 18.2566 12.0824C18.2338 12.6989 18.2844 13.3136 18.3722 13.925C18.4 14.1184 18.449 14.316 18.3097 14.4901C17.9477 14.9425 17.5039 15.2427 16.9124 15.3445C15.98 15.5043 15.1395 15.2772 14.3168 14.8601C13.9017 14.6499 13.6772 14.8239 13.6991 15.2831C13.732 15.9836 14.0721 16.325 14.7767 16.3578C15.1007 16.373 15.4273 16.3746 15.7429 16.2998C16.3647 16.1518 16.9959 16.1299 17.6279 16.156C18.6962 16.1989 19.7636 16.2014 20.831 16.1678C21.3078 16.1526 21.7854 16.0988 22.2605 16.1173C23.0056 16.1467 23.2047 16.0315 23.4612 15.3176C23.5869 14.9686 23.6485 14.5935 23.8738 14.226C24.0266 14.5523 23.8662 14.8458 23.9202 15.1258C23.9532 15.2982 23.9287 15.5051 24.1582 15.5749C24.3531 15.6346 24.516 15.5749 24.6586 15.437C24.8054 15.2949 24.9514 15.178 25.1758 15.3125C25.434 15.4673 25.553 15.3268 25.6247 15.0821C25.7741 14.57 25.8897 14.0536 25.9471 13.5222C26.0391 12.6703 26.0205 11.8159 26.0146 10.9615C26.0129 10.6781 25.7944 10.5015 25.5699 10.4838C25.3454 10.4661 25.3665 10.7336 25.3395 10.9085C25.3277 10.9825 25.3623 11.0741 25.2703 11.1254C25.137 11.0489 25.1531 10.9118 25.1261 10.7924C25.0577 10.4905 24.8628 10.2727 24.5725 10.2206C24.1472 10.1441 23.716 10.0978 23.2756 10.1659C22.2875 10.3181 21.3348 10.62 20.3577 10.8126C19.8531 10.9127 19.475 11.0573 19.4683 11.646C19.4674 11.6822 19.4354 11.7175 19.4177 11.7536ZM14.948 22.8861C14.948 23.5168 14.9446 24.0205 14.9488 24.5234C14.9522 24.9136 15.1218 25.1836 15.4517 25.4275C16.0078 25.8387 16.6061 25.9001 17.2482 25.8067C17.622 25.7521 17.9764 25.7958 18.3156 25.9547C18.6489 26.1103 18.9848 26.1246 19.34 26.027C20.0716 25.8252 20.7855 25.5729 21.4926 25.303C21.7339 25.2105 21.9542 25.065 22.02 24.7976C22.1499 24.2686 22.3069 23.7439 22.2824 23.1888C22.2588 22.6422 21.9221 22.2949 21.3686 22.3235C20.988 22.3429 20.6513 22.2571 20.3205 22.0813C19.7923 21.7996 19.2362 21.6634 18.6245 21.697C17.7967 21.7424 16.9774 21.607 16.1555 21.5103C15.353 21.4161 14.5421 21.2622 13.7363 21.5389C13.4823 21.6264 13.2663 21.7374 13.1734 21.9955C12.9633 22.5775 12.8368 23.1771 12.8368 23.7977C12.8368 23.8919 12.8781 23.9877 12.9127 24.0786C12.96 24.2039 13.0443 24.2947 13.1912 24.2981C13.3523 24.3014 13.408 24.1862 13.4401 24.0592C13.5194 23.7481 13.5928 23.4352 13.6671 23.1224C13.7202 22.897 13.781 22.6759 13.9498 22.4833C14.0645 22.654 13.9742 22.7801 13.9388 22.9071C13.7962 23.4226 13.7093 23.944 13.738 24.4814C13.7531 24.7656 13.8552 25.0011 14.1109 25.1441C14.2299 25.2105 14.3598 25.2996 14.5041 25.213C14.6408 25.1314 14.5868 24.991 14.5885 24.8699C14.597 24.2291 14.5826 23.5866 14.948 22.8861ZM22.8486 7.25288C23.057 7.6271 23.0536 8.01814 23.1768 8.36966C23.2629 8.61353 23.3119 8.9928 23.608 8.94907C23.8662 8.91123 23.9 8.54037 23.9059 8.27043C23.9329 7.10571 23.4992 6.11256 22.7473 5.2447C22.5364 5.00082 22.2571 4.90243 21.9246 4.89234C20.7855 4.85702 19.6615 5.06978 18.5249 5.08576C18.0524 5.09248 18.022 5.24638 18.1342 5.71479C18.4397 6.98882 18.8337 8.26034 18.5055 9.59576C18.427 9.9128 18.5688 10.0213 18.8726 10.0398C20.2716 10.1272 21.6479 10.0053 22.9971 9.61679C23.0747 9.59408 23.1777 9.60922 23.1937 9.49989C23.2148 9.35609 23.084 9.36618 23.0013 9.3275C22.906 9.28293 22.771 9.27368 22.8199 9.10465C22.9524 8.64129 22.8376 8.1897 22.7457 7.73811C22.7144 7.58842 22.6815 7.43537 22.8486 7.25288Z" fill="#343434"/>
</svg>
