<?xml version="1.0" ?><!DOCTYPE svg  PUBLIC '-//W3C//DTD SVG 1.1//EN'  'http://www.w3.org/Graphics/SVG/1.1/DTD/svg11.dtd'><svg enable-background="new 0 0 256 256" height="256px" id="Layer_1" version="1.1" viewBox="0 0 256 256" width="256px" xml:space="preserve" xmlns="http://www.w3.org/2000/svg" xmlns:xlink="http://www.w3.org/1999/xlink"><g><g><path d="M128,247.322C62.1,247.322,8.678,193.9,8.678,128C8.678,194.274,62.1,248,128,248    s119.322-53.726,119.322-120C247.322,193.9,193.9,247.322,128,247.322z" fill="#B71C1C" opacity="0.2"/><path d="M128,8.678C193.9,8.678,247.322,62.1,247.322,128C247.322,61.726,193.9,8,128,8    S8.678,61.726,8.678,128C8.678,62.1,62.1,8.678,128,8.678z" fill="#FFFFFF" opacity="0.2"/><circle cx="128" cy="128" fill="#F44336" r="119.322"/></g><path d="M113.963,97.672l13.896,2.58l15.294-2.903c0,0,4.082-43.071,4.677-49.35   c25.643,6.29,28.384,12.418,28.384,12.418s0.45,50.749,0.484,54.51c2.362,2.58,3.74,8.21,4.315,13.066   c-0.575-4.897-1.952-10.575-4.315-13.177c-0.034-3.794-0.484-54.972-0.484-54.972s-2.742-6.18-28.384-12.523   c-0.595,6.332-4.677,49.768-4.677,49.768l-15.294,2.928l-13.896-2.602c0,0-4.892-45.865-5.107-49.172   c-16.127,0.217-29.459,11.06-29.459,11.06v0.577c0,0,13.332-10.752,29.459-10.967C109.071,52.193,113.963,97.672,113.963,97.672z" fill="#BF360C" opacity="0.2"/><linearGradient gradientUnits="userSpaceOnUse" id="SVGID_1_" x1="72.8069" x2="215.5405" y1="66.4703" y2="209.2039"><stop offset="0" style="stop-color:#212121;stop-opacity:0.2"/><stop offset="1" style="stop-color:#212121;stop-opacity:0"/></linearGradient><path d="M247.276,131.258c-0.184-0.182-70.806-70.843-71.417-71.364c-1.285-1.607-6.826-6.694-28.028-11.894   c-0.387,4.081-2.246,23.697-3.5,36.935c-0.201,0.006-35.459-35.794-35.474-36.021C92.729,49.129,79.397,59.88,79.397,59.88v54.72   v0.113c0,0-2.471,6.758-3.84,13.283c-0.514,2.471-0.876,4.907-0.889,6.937c3.599,14.588,23.748,38.512,23.659,47.691   c0.01,0.167,0.002,0.321,0,0.48c1.711,2.645,7.329,10.65,7.329,10.65c0.332,0.464,1.758,2.04,1.929,2.304l-0.44,0.396l-8.787-8.838   c0,0-1.081,4.927-1.199,7.512c0.111,0.316,2.754,7.743,7.489,12.872c0.041-0.025,38.042,37.991,38.396,38.381   C200.788,239.116,245.686,190.588,247.276,131.258z" fill="url(#SVGID_1_)"/><g><path d="M109.689,188.63l36.744-0.161l4.247,5.268c0,0,2.603-3.124,7.231-11.397    c2.983-14.73,19.863-32.362,23.143-46.447c0.166-0.543,0.388-11.369-4.354-20.966c-0.034-3.762-0.484-54.51-0.484-54.51    S173.473,54.29,147.831,48c-0.595,6.279-4.677,49.35-4.677,49.35l-15.294,2.903l-13.896-2.58c0,0-4.892-45.479-5.107-48.758    C92.729,49.129,79.397,59.88,79.397,59.88v54.72v0.113c0,0-2.471,6.758-3.84,13.283c-0.514,2.471-0.876,4.907-0.889,6.937    c3.599,14.588,23.748,38.512,23.659,47.691c0.01,0.167,0.002,0.321,0,0.48c1.711,2.645,7.089,10.956,7.089,10.956L109.689,188.63z    " fill="#FFEB3B"/><path d="M123.195,205.258l1.532-1.613l6.451-0.161l1.693,1.855c0,0,10.967-1.935,18.224,2.661    c3.226-1.935,7.741-13.977,7.741-13.977c0.006-0.087,0.006-0.182,0.009-0.273c-0.069-2.564-0.976-6.133-0.976-6.133l-7.285,11.086    l-4.542-5.746l-35.372,0.325l-5.404,4.866l-6.907-10.531c0,0-1.081,4.927-1.199,7.512c0.111,0.316,2.754,7.743,7.489,12.872    C113.787,202.517,123.195,205.258,123.195,205.258z" fill="#FFEB3B"/></g><g><path d="M86.708,121.863c0,0,30.333,14.376,29.674,15.482c-0.484,3.629-4.032,6.773-4.032,6.773    C76.387,142.668,86.708,121.863,86.708,121.863z" fill="#FFFFFF"/><path d="M170.365,121.851c0,0-30.333,14.376-29.674,15.482c0.484,3.629,4.032,6.773,4.032,6.773    C180.687,142.655,170.365,121.851,170.365,121.851z" fill="#FFFFFF"/></g></g></svg>