<svg width="30" height="30" viewBox="0 0 30 30" fill="none" xmlns="http://www.w3.org/2000/svg">
<g clip-path="url(#clip0)">
<path opacity="0.2" d="M15 30C6.7157 30 0 23.2843 0 15C0 23.3313 6.7157 30.0852 15 30.0852C23.2843 30.0852 30 23.3313 30 15C30 23.2843 23.2843 30 15 30Z" fill="#212121"/>
<path opacity="0.2" d="M15 -3.89665e-06C23.2843 -3.89665e-06 30 6.7157 30 15C30 6.66868 23.2843 -0.0852356 15 -0.0852356C6.7157 -0.0852356 0 6.66868 0 15C0 6.7157 6.7157 -3.89665e-06 15 -3.89665e-06Z" fill="#9E9E9E"/>
<path d="M15 30C23.2843 30 30 23.2843 30 15C30 6.71574 23.2843 0 15 0C6.71574 0 0 6.71574 0 15C0 23.2843 6.71574 30 15 30Z" fill="black"/>
<path d="M30 17.087C29.9523 17.0384 19.9717 7.18034 19.916 7.12627C18.7085 5.87731 17.0312 5.05283 14.9892 5.00225C10.6515 4.89485 8.00481 8.64535 8.00001 12.4685C7.99887 13.4086 8.15792 14.3529 8.4903 15.2454C8.86617 16.2464 9.46532 17.1809 10.3062 17.9696C10.3611 18.0244 10.4148 18.0798 10.4718 18.1332C10.5267 18.188 12.3219 19.9619 12.3363 19.9761V25.3307L17.14 30C23.864 29.0699 29.1667 23.7625 30 17.087Z" fill="url(#paint0_linear)"/>
<path opacity="0.2" d="M14.9604 4.775C19.2668 4.8821 21.943 8.46322 21.9885 12.1958C21.9538 8.42374 19.2758 4.798 14.9604 4.68977C10.6474 4.58166 8.01576 8.35699 8.01099 12.2055C8.02632 8.39684 10.6561 4.66802 14.9604 4.775Z" fill="#9E9E9E"/>
<path d="M19.4001 18.0384C20.3957 17.1567 21.0858 16.1113 21.5019 15.0005C21.8396 14.0915 21.9972 13.1392 21.9885 12.1959C21.943 8.46329 19.2669 4.88218 14.9604 4.77508C10.6561 4.6681 8.0262 8.39692 8.01099 12.2057C8.00986 13.152 8.168 14.1025 8.4985 15.001C8.91963 16.1362 9.62071 17.1876 10.6322 18.0385C11.2081 17.8899 11.7839 17.5742 12.3226 17.1283V17.146V25.1531H13.0656V17.146V17.1283H13.8643V17.146V25.1531H14.6074V17.1085V17.091H15.3876V17.1085V25.2274H16.1863V17.0711V17.054H16.9294V17.0711V25.116H17.6725V17.2209V17.2026C18.267 17.6669 18.8428 17.8341 19.4001 18.0384Z" fill="white"/>
<path d="M20.4033 11.6482L15.8522 14.5646C16.9481 15.1776 19.8275 15.382 20.3476 13.9517C20.6447 13.1528 20.4033 11.6482 20.4033 11.6482Z" fill="black"/>
<path d="M9.72195 11.6482L14.2916 14.5646C13.1771 15.1776 10.2978 15.382 9.77764 13.9517C9.48046 13.1528 9.72195 11.6482 9.72195 11.6482Z" fill="black"/>
</g>
<defs>
<linearGradient id="paint0_linear" x1="8.44309" y1="8.6381" x2="25.534" y2="25.9406" gradientUnits="userSpaceOnUse">
<stop stop-color="#FAFAFA" stop-opacity="0.2"/>
<stop offset="1" stop-color="#FAFAFA" stop-opacity="0"/>
</linearGradient>
<clipPath id="clip0">
<rect width="30" height="30" fill="white"/>
</clipPath>
</defs>
</svg>
