<svg width="30" height="30" viewBox="0 0 30 30" fill="none" xmlns="http://www.w3.org/2000/svg">
<g clip-path="url(#clip0)">
<path opacity="0.2" d="M15 30C6.71569 30 0 23.2843 0 15C0 23.3313 6.71569 30.0853 15 30.0853C23.2843 30.0853 30 23.3313 30 15C30 23.2843 23.2843 30 15 30Z" fill="#B71C1C"/>
<path opacity="0.2" d="M15 -3.97861e-06C23.2843 -3.97861e-06 30 6.71569 30 15C30 6.66867 23.2843 -0.0852356 15 -0.0852356C6.71569 -0.0852356 0 6.66867 0 15C0 6.71569 6.71569 -3.97861e-06 15 -3.97861e-06Z" fill="white"/>
<path d="M15 30C23.2843 30 30 23.2843 30 15C30 6.71571 23.2843 -1.52588e-05 15 -1.52588e-05C6.71573 -1.52588e-05 0 6.71571 0 15C0 23.2843 6.71573 30 15 30Z" fill="#F44336"/>
<path d="M23.855 9.99763C23.855 9.99763 21.4111 13.084 18.3737 15.5162C17.501 16.215 16.5731 16.8826 15.6293 17.4433C15.8816 18.2035 16.4122 19.0381 17.0639 19.6697C17.1036 19.7107 17.1439 19.751 17.1848 19.7906C17.2245 19.8317 23.4892 26.0949 23.4983 26.1041C26.7143 23.6391 28.8282 19.809 28.9741 15.4794C28.9736 15.4762 28.978 15.2638 28.978 15.2638" fill="url(#paint0_linear)"/>
<path d="M14.4916 17.5641C14.4466 17.5374 14.4019 17.5092 14.3571 17.482C14.3615 17.4692 14.3664 17.456 14.3708 17.4431C13.4269 16.8825 12.4991 16.2149 11.6264 15.5161C11.2832 15.2413 10.9492 14.9616 10.6257 14.6817C10.5945 14.6453 10.5769 14.6244 10.5769 14.6244C10.5769 14.6244 10.5762 14.6294 10.5751 14.638C10.5701 14.6337 10.5651 14.6294 10.5601 14.625C10.492 14.5463 10.456 14.5035 10.456 14.5035C10.456 14.5035 10.4551 14.5104 10.4537 14.521C10.3766 14.4318 10.3351 14.3827 10.3351 14.3827C10.3351 14.3827 10.3341 14.3896 10.3327 14.4001C10.2555 14.311 10.2141 14.2618 10.2141 14.2618C10.2141 14.2618 10.2132 14.2688 10.2118 14.2793C10.1347 14.1901 10.0932 14.141 10.0932 14.141C10.0932 14.141 10.0923 14.1479 10.0909 14.1585C10.0137 14.0693 9.97226 14.0202 9.97226 14.0202C9.97226 14.0202 9.97132 14.0271 9.96991 14.0377C9.8928 13.9485 9.85132 13.8994 9.85132 13.8994C9.85132 13.8994 9.85038 13.9063 9.84897 13.9169C9.77187 13.8277 9.73038 13.7786 9.73038 13.7786C9.73038 13.7786 9.72944 13.7855 9.72804 13.796C9.65093 13.7069 9.60944 13.6577 9.60944 13.6577C9.60944 13.6577 9.60851 13.6647 9.6071 13.6752C9.52999 13.586 9.48851 13.5369 9.48851 13.5369C9.48851 13.5369 9.48757 13.5438 9.48616 13.5544C9.40905 13.4652 9.36757 13.4161 9.36757 13.4161C9.36757 13.4161 9.36663 13.423 9.36523 13.4336C9.28812 13.3444 9.24663 13.2953 9.24663 13.2953C9.24663 13.2953 9.24569 13.3022 9.24429 13.3127C9.16718 13.2236 9.12569 13.1745 9.12569 13.1745C9.12569 13.1745 9.12476 13.1814 9.12335 13.1919C9.04624 13.1027 9.00476 13.0536 9.00476 13.0536C9.00476 13.0536 9.00382 13.0606 9.00241 13.0711C8.9253 12.9819 8.88382 12.9328 8.88382 12.9328C8.88382 12.9328 8.88288 12.9397 8.88148 12.9503C8.80437 12.8611 8.76288 12.812 8.76288 12.812C8.76288 12.812 8.76194 12.8189 8.76054 12.8295C8.68343 12.7403 8.64194 12.6912 8.64194 12.6912C8.64194 12.6912 8.64101 12.6981 8.6396 12.7086C8.56249 12.6195 8.52101 12.5704 8.52101 12.5704C8.52101 12.5704 8.52007 12.5773 8.51866 12.5878C8.44155 12.4986 8.40007 12.4495 8.40007 12.4495C8.40007 12.4495 8.39913 12.4565 8.39773 12.467C8.32062 12.3778 8.27913 12.3287 8.27913 12.3287C8.27913 12.3287 8.27819 12.3356 8.27679 12.3462C8.19968 12.257 8.15819 12.2079 8.15819 12.2079C8.15819 12.2079 8.15726 12.2148 8.15585 12.2254C8.07874 12.1362 8.03726 12.0871 8.03726 12.0871C8.03726 12.0871 8.03632 12.094 8.03491 12.1045C7.9578 12.0154 7.91632 11.9663 7.91632 11.9663C7.91632 11.9663 7.91538 11.9732 7.91398 11.9837C7.83675 11.8945 7.79538 11.8454 7.79538 11.8454C7.79538 11.8454 7.79444 11.8524 7.79316 11.8629C7.71605 11.7737 7.67456 11.7246 7.67456 11.7246C7.67456 11.7246 7.67362 11.7315 7.67234 11.7421C7.59511 11.6529 7.55374 11.6038 7.55374 11.6038C7.55374 11.6038 7.5528 11.6107 7.55151 11.6213C7.47429 11.5321 7.43292 11.483 7.43292 11.483C7.43292 11.483 7.43198 11.4899 7.43069 11.5004C7.35347 11.4113 7.3121 11.3622 7.3121 11.3622C7.3121 11.3622 7.31116 11.3691 7.30987 11.3796C7.23265 11.2904 7.19128 11.2413 7.19128 11.2413C7.19128 11.2413 7.19034 11.2483 7.18905 11.2588C7.11183 11.1696 7.07046 11.1205 7.07046 11.1205C7.07046 11.1205 7.06952 11.1274 7.06823 11.138C6.99101 11.0488 6.94964 10.9997 6.94964 10.9997C6.94964 10.9997 6.9487 11.0066 6.94741 11.0172C6.87019 10.928 6.82882 10.8789 6.82882 10.8789C6.82882 10.8789 6.82788 10.8858 6.82659 10.8963C6.74937 10.8072 6.708 10.7581 6.708 10.7581C6.708 10.7581 6.70706 10.765 6.70577 10.7755C6.62855 10.6863 6.58718 10.6372 6.58718 10.6372C6.58718 10.6372 6.58624 10.6442 6.58495 10.6547C6.50773 10.5655 6.46636 10.5164 6.46636 10.5164C6.46636 10.5164 6.46542 10.5233 6.46413 10.5339C6.38691 10.4447 6.34554 10.3956 6.34554 10.3956C6.34554 10.3956 6.3446 10.4025 6.34331 10.4131C6.26609 10.3239 6.22472 10.2748 6.22472 10.2748C6.22472 10.2748 6.08269 11.3179 6.07952 12.7458C6.07765 13.582 6.12323 14.55 6.27312 15.5185C6.51698 17.0704 7.03718 18.6213 8.07546 19.6126C8.11507 19.6536 17.2212 28.7603 17.2625 28.7997C17.2631 28.8003 17.2638 28.801 17.2644 28.8015C19.4586 28.4441 21.4809 27.5763 23.2061 26.3237C23.198 26.3166 14.4873 17.577 14.4916 17.5641Z" fill="url(#paint1_linear)"/>
<path fill-rule="evenodd" d="M6.35969 10.1596L6.10448 9.85612L6.05098 10.249L6.06177 10.2505C6.05098 10.2491 6.05098 10.249 6.05098 10.249L6.05084 10.2501L6.0505 10.2526L6.04925 10.2621C6.04816 10.2704 6.04659 10.2827 6.0446 10.2987C6.04062 10.3307 6.03497 10.3778 6.02821 10.4386C6.01467 10.5603 5.99665 10.737 5.97854 10.9585C5.94234 11.4013 5.90577 12.0238 5.90417 12.7434L6.25574 12.7445C6.25864 12.0577 6.29466 11.4645 6.32992 11.0434C6.33855 10.9403 6.34713 10.8476 6.35517 10.7663C6.40161 10.8183 6.45387 10.8764 6.51168 10.9402C6.78204 11.2387 7.17399 11.6613 7.6611 12.1589C8.63493 13.1537 9.99095 14.4503 11.5175 15.6542L11.7362 15.379C10.2253 14.1691 8.88071 12.8639 7.91327 11.8603C7.42975 11.3588 7.0409 10.9331 6.77311 10.633C6.63923 10.4829 6.53563 10.3643 6.46562 10.2833C6.43062 10.2428 6.40401 10.2118 6.38622 10.1909C6.37732 10.1805 6.37063 10.1726 6.36619 10.1673L6.36123 10.1615L6.35969 10.1596Z" fill="#212121"/>
<path d="M10.9001 20.6806C12.3405 20.6806 13.8804 18.9206 14.3708 17.4432C13.427 16.8826 12.4991 16.215 11.6264 15.5162C8.589 13.1208 6.22521 10.3522 6.22521 10.3522C6.22521 10.3522 6.08587 11.359 6.08001 12.7438C6.07814 13.58 6.12372 14.548 6.2736 15.5164C6.67907 18.0985 7.8479 20.6805 10.9001 20.6806Z" fill="white"/>
<path fill-rule="evenodd" d="M6.35889 10.2381L6.22521 10.3522L6.05109 10.3281L6.10474 9.9404L6.35889 10.2381ZM6.35522 10.7663C6.34719 10.8475 6.3386 10.9403 6.32997 11.0433C6.29471 11.4645 6.2587 12.0576 6.25579 12.7443C6.25394 13.5743 6.29923 14.5326 6.44729 15.4893C6.64805 16.7677 7.03535 18.0262 7.73507 18.9615C8.42848 19.8883 9.43294 20.5048 10.9001 20.5049C11.5523 20.5049 12.255 20.1024 12.8676 19.4915C13.4387 18.9219 13.907 18.1946 14.1574 17.5202C13.2477 16.9703 12.3561 16.3256 11.517 15.6538C9.99068 14.45 8.63487 13.1536 7.66116 12.1589C7.17405 11.6612 6.7821 11.2386 6.51174 10.9402C6.45393 10.8764 6.40167 10.8183 6.35522 10.7663ZM7.91239 11.9129C8.8798 12.9012 10.2244 14.1866 11.7352 15.3782L11.7363 15.379C12.6044 16.0741 13.5255 16.7367 14.4606 17.2921L14.5822 17.3643L14.5376 17.4986C14.283 18.2657 13.7597 19.0982 13.1158 19.7404C12.4757 20.3789 11.6882 20.8564 10.9 20.8564C9.31501 20.8564 8.20898 20.1818 7.45357 19.1721C6.70452 18.1709 6.30467 16.8474 6.09995 15.5437L6.09989 15.5433C5.94822 14.5633 5.90234 13.5858 5.90423 12.7434L5.90423 12.743C5.90718 12.0451 5.94377 11.4424 5.97964 11.014C5.99758 10.7998 6.01535 10.6289 6.02868 10.5113C6.03535 10.4526 6.0409 10.4071 6.04481 10.3761C6.04677 10.3607 6.04832 10.3488 6.04938 10.3408L6.05062 10.3315L6.05095 10.3291L6.05109 10.3281C6.05109 10.3281 6.05109 10.3281 6.22521 10.3522L6.35889 10.2381L6.36043 10.2399L6.36539 10.2456C6.36983 10.2508 6.37652 10.2586 6.38541 10.2689C6.4032 10.2894 6.42981 10.32 6.46481 10.3599C6.53481 10.4396 6.6384 10.5564 6.77228 10.7042C7.04005 10.9998 7.42888 11.419 7.91239 11.9129Z" fill="black"/>
<path fill-rule="evenodd" d="M23.9384 10.2505L23.9491 10.249L23.8956 9.85608L23.6404 10.1596L23.6401 10.16L23.6389 10.1614L23.6339 10.1673C23.6295 10.1725 23.6228 10.1804 23.6139 10.1909C23.5961 10.2117 23.5695 10.2428 23.5345 10.2833C23.4645 10.3643 23.3609 10.4829 23.227 10.6329C22.9592 10.933 22.5704 11.3588 22.0868 11.8603C21.1194 12.8638 19.7748 14.169 18.2639 15.379L18.4826 15.6542C20.0092 14.4503 21.3652 13.1537 22.339 12.1588C22.8261 11.6612 23.2181 11.2386 23.4884 10.9402C23.5462 10.8764 23.5985 10.8183 23.6449 10.7663C23.653 10.8475 23.6616 10.9403 23.6702 11.0434C23.7055 11.4646 23.7415 12.0578 23.7444 12.7446L24.0959 12.7435C24.0943 12.0239 24.0578 11.4014 24.0216 10.9585C24.0035 10.737 23.9854 10.5602 23.9719 10.4386C23.9651 10.3778 23.9595 10.3307 23.9555 10.2987C23.9535 10.2827 23.952 10.2704 23.9509 10.2621L23.9496 10.2525L23.9491 10.249C23.9491 10.249 23.9491 10.249 23.9384 10.2505Z" fill="#212121"/>
<path d="M23.7749 10.3522C23.7749 10.3522 21.4111 13.1208 18.3737 15.5162C17.501 16.215 16.5731 16.8826 15.6293 17.4432C16.1196 18.9206 17.6594 20.6806 19.0999 20.6806C22.152 20.6806 23.3208 18.0985 23.7265 15.5164C23.8763 14.5481 23.9219 13.5801 23.9201 12.744C23.9142 11.359 23.7749 10.3522 23.7749 10.3522Z" fill="white"/>
<path fill-rule="evenodd" d="M23.9491 10.3281L23.775 10.3522L23.6413 10.2381L23.8954 9.9404L23.9491 10.3281ZM23.6449 10.7663C23.5985 10.8183 23.5462 10.8764 23.4884 10.9402C23.2181 11.2386 22.8261 11.6612 22.339 12.1589C21.3653 13.1536 20.0095 14.45 18.4832 15.6538C17.6441 16.3256 16.7524 16.9703 15.8428 17.5203C16.0931 18.1946 16.5614 18.9219 17.1325 19.4915C17.745 20.1024 18.4477 20.5049 19.1 20.5049C20.5671 20.5049 21.5715 19.8884 22.2649 18.9615C22.9647 18.0262 23.352 16.7677 23.5529 15.4893C23.7009 14.5326 23.7462 13.5743 23.7444 12.7444C23.7414 12.0576 23.7054 11.4645 23.6702 11.0434C23.6616 10.9403 23.653 10.8476 23.6449 10.7663ZM23.775 10.3522L23.6413 10.2381L23.6397 10.2399L23.6348 10.2456C23.6303 10.2508 23.6236 10.2586 23.6147 10.2689C23.597 10.2894 23.5704 10.32 23.5354 10.3599C23.4654 10.4396 23.3618 10.5564 23.2279 10.7042C22.9601 10.9998 22.5713 11.419 22.0878 11.9129C21.1204 12.9012 19.7758 14.1866 18.2649 15.3782L18.2639 15.379C17.3957 16.0742 16.4746 16.7367 15.5396 17.2921L15.418 17.3643L15.4625 17.4986C15.7171 18.2657 16.2403 19.0982 16.8842 19.7404C17.5244 20.3789 18.3118 20.8564 19.1 20.8564C20.685 20.8564 21.791 20.1818 22.5464 19.1721C23.2955 18.1709 23.6954 16.8474 23.9002 15.5437L23.9003 15.5433C24.0519 14.5634 24.0978 13.5859 24.0959 12.7436L24.0959 12.7433C24.093 12.0452 24.0564 11.4425 24.0205 11.014C24.0026 10.7998 23.9848 10.6289 23.9715 10.5113C23.9648 10.4526 23.9593 10.4071 23.9553 10.3761C23.9534 10.3607 23.9518 10.3488 23.9508 10.3408L23.9495 10.3315L23.9492 10.3291L23.9491 10.3281C23.9491 10.3281 23.9491 10.3281 23.775 10.3522Z" fill="black"/>
</g>
<defs>
<linearGradient id="paint0_linear" x1="19.3489" y1="13.7236" x2="27.6995" y2="22.0741" gradientUnits="userSpaceOnUse">
<stop stop-color="#212121" stop-opacity="0.2"/>
<stop offset="1" stop-color="#212121" stop-opacity="0"/>
</linearGradient>
<linearGradient id="paint1_linear" x1="4.59668" y1="11.9012" x2="21.1118" y2="28.4163" gradientUnits="userSpaceOnUse">
<stop stop-color="#212121" stop-opacity="0.2"/>
<stop offset="1" stop-color="#212121" stop-opacity="0"/>
</linearGradient>
<clipPath id="clip0">
<rect width="30" height="30" fill="white"/>
</clipPath>
</defs>
</svg>
