<?xml version="1.0" ?><!DOCTYPE svg  PUBLIC '-//W3C//DTD SVG 1.1//EN'  'http://www.w3.org/Graphics/SVG/1.1/DTD/svg11.dtd'><svg enable-background="new 0 0 256 256" height="256px" id="Layer_1" version="1.1" viewBox="0 0 256 256" width="256px" xml:space="preserve" xmlns="http://www.w3.org/2000/svg" xmlns:xlink="http://www.w3.org/1999/xlink"><g><path d="M128,247.322C62.1,247.322,8.678,193.9,8.678,128C8.678,194.274,62.1,248,128,248   s119.322-53.726,119.322-120C247.322,193.9,193.9,247.322,128,247.322z" fill="#B71C1C" opacity="0.2"/><path d="M128,8.678C193.9,8.678,247.322,62.1,247.322,128C247.322,61.726,193.9,8,128,8   S8.678,61.726,8.678,128C8.678,62.1,62.1,8.678,128,8.678z" fill="#FFFFFF" opacity="0.2"/><circle cx="128" cy="128" fill="#F44336" r="119.322"/></g><linearGradient gradientUnits="userSpaceOnUse" id="SVGID_1_" x1="165.1107" x2="236.3689" y1="117.1078" y2="188.3659"><stop offset="0" style="stop-color:#212121;stop-opacity:0.2"/><stop offset="1" style="stop-color:#212121;stop-opacity:0"/></linearGradient><path d="M203.563,85.313c0,0-20.855,26.337-46.774,47.092c-7.447,5.963-15.365,11.66-23.419,16.444  c2.153,6.487,6.681,13.609,12.242,18.999c0.339,0.35,0.683,0.694,1.032,1.032c0.339,0.35,53.797,53.796,53.875,53.875  c27.443-21.035,45.482-53.718,46.727-90.664c-0.004-0.028,0.033-1.84,0.033-1.84" fill="url(#SVGID_1_)"/><linearGradient gradientUnits="userSpaceOnUse" id="SVGID_2_" x1="39.2254" x2="180.1544" y1="101.5565" y2="242.4855"><stop offset="0" style="stop-color:#212121;stop-opacity:0.2"/><stop offset="1" style="stop-color:#212121;stop-opacity:0"/></linearGradient><path d="M123.662,149.88c-0.384-0.228-0.765-0.468-1.148-0.7c0.038-0.11,0.08-0.222,0.117-0.332  c-8.054-4.784-15.972-10.481-23.419-16.444c-2.928-2.345-5.778-4.732-8.539-7.12c-0.266-0.311-0.416-0.489-0.416-0.489  s-0.006,0.042-0.016,0.116c-0.042-0.037-0.085-0.074-0.128-0.111c-0.581-0.672-0.888-1.037-0.888-1.037s-0.008,0.059-0.02,0.149  c-0.658-0.761-1.012-1.18-1.012-1.18s-0.008,0.059-0.02,0.149c-0.659-0.761-1.012-1.18-1.012-1.18s-0.008,0.059-0.02,0.149  c-0.658-0.761-1.012-1.18-1.012-1.18s-0.008,0.059-0.02,0.149c-0.658-0.761-1.012-1.18-1.012-1.18s-0.008,0.059-0.02,0.149  c-0.658-0.761-1.012-1.18-1.012-1.18s-0.008,0.059-0.02,0.149c-0.658-0.761-1.012-1.18-1.012-1.18s-0.008,0.059-0.02,0.149  c-0.658-0.761-1.012-1.18-1.012-1.18s-0.008,0.059-0.02,0.149c-0.658-0.761-1.012-1.18-1.012-1.18s-0.008,0.059-0.02,0.149  c-0.658-0.761-1.012-1.18-1.012-1.18s-0.008,0.059-0.02,0.149c-0.658-0.761-1.012-1.18-1.012-1.18s-0.008,0.059-0.02,0.149  c-0.658-0.761-1.012-1.18-1.012-1.18s-0.008,0.059-0.02,0.149c-0.658-0.761-1.012-1.18-1.012-1.18s-0.008,0.059-0.02,0.149  c-0.658-0.761-1.012-1.18-1.012-1.18s-0.008,0.059-0.02,0.149c-0.658-0.761-1.012-1.18-1.012-1.18s-0.008,0.059-0.02,0.149  c-0.658-0.761-1.012-1.18-1.012-1.18s-0.008,0.059-0.02,0.149c-0.658-0.761-1.012-1.18-1.012-1.18s-0.008,0.059-0.02,0.149  c-0.658-0.761-1.012-1.18-1.012-1.18s-0.008,0.059-0.02,0.149c-0.658-0.761-1.012-1.18-1.012-1.18s-0.008,0.059-0.02,0.149  c-0.658-0.761-1.012-1.18-1.012-1.18s-0.008,0.059-0.02,0.149c-0.658-0.761-1.012-1.18-1.012-1.18s-0.008,0.059-0.02,0.149  c-0.658-0.761-1.012-1.18-1.012-1.18s-0.008,0.059-0.02,0.149c-0.659-0.761-1.012-1.18-1.012-1.18s-0.008,0.059-0.019,0.149  c-0.658-0.761-1.012-1.18-1.012-1.18s-0.008,0.059-0.019,0.149c-0.659-0.761-1.012-1.18-1.012-1.18s-0.008,0.059-0.019,0.149  c-0.659-0.761-1.012-1.18-1.012-1.18s-0.008,0.059-0.019,0.149c-0.659-0.761-1.012-1.18-1.012-1.18s-0.008,0.059-0.019,0.149  c-0.659-0.761-1.012-1.18-1.012-1.18s-0.008,0.059-0.019,0.149c-0.659-0.761-1.012-1.18-1.012-1.18s-0.008,0.059-0.019,0.149  c-0.659-0.761-1.012-1.18-1.012-1.18s-0.008,0.059-0.019,0.149c-0.659-0.761-1.012-1.18-1.012-1.18s-0.008,0.059-0.019,0.149  c-0.659-0.761-1.012-1.18-1.012-1.18s-0.008,0.059-0.019,0.149c-0.659-0.761-1.012-1.18-1.012-1.18s-0.008,0.059-0.019,0.149  c-0.659-0.761-1.012-1.18-1.012-1.18s-0.008,0.059-0.019,0.149c-0.659-0.761-1.012-1.18-1.012-1.18s-0.008,0.059-0.019,0.149  c-0.659-0.761-1.012-1.18-1.012-1.18s-1.212,8.901-1.239,21.086c-0.016,7.136,0.373,15.396,1.652,23.66  c2.081,13.243,6.52,26.478,15.38,34.937c0.338,0.35,78.044,78.06,78.396,78.396c0.005,0.005,0.011,0.011,0.016,0.016  c18.724-3.05,35.981-10.455,50.703-21.144C197.957,224.568,123.625,149.99,123.662,149.88z" fill="url(#SVGID_2_)"/><g><path d="M99.211,132.405   c-25.919-20.756-46.09-44.744-46.09-44.744s-1.212,8.901-1.239,21.086c0.05-11.817,1.239-20.408,1.239-20.408   S73.292,111.964,99.211,132.405z" fill="none" stroke="#212121" stroke-miterlimit="10" stroke-width="2"/><path d="M93.014,176.475   c12.292,0,25.432-15.019,29.617-27.626c-8.054-4.784-15.972-10.481-23.419-16.444c-25.919-20.441-46.09-44.066-46.09-44.066   s-1.189,8.591-1.239,20.408c-0.016,7.136,0.373,15.396,1.652,23.66C56.995,154.441,66.969,176.474,93.014,176.475z" fill="#FFFFFF" stroke="#000000" stroke-miterlimit="10" stroke-width="2"/><path d="M202.879,88.339c0,0,1.189,8.592,1.239,20.409   c-0.027-12.185-1.239-21.087-1.239-21.087s-20.171,23.988-46.09,44.744C182.708,111.964,202.879,88.339,202.879,88.339z" fill="none" stroke="#212121" stroke-miterlimit="10" stroke-width="2"/><path d="M202.879,88.339c0,0-20.171,23.625-46.09,44.066   c-7.447,5.963-15.365,11.66-23.419,16.444c4.184,12.607,17.324,27.626,29.616,27.626c26.045,0,36.018-22.034,39.48-44.068   c1.279-8.263,1.668-16.523,1.652-23.658C204.068,96.93,202.879,88.339,202.879,88.339z" fill="#FFFFFF" stroke="#000000" stroke-miterlimit="10" stroke-width="2"/></g></svg>