<svg width="30" height="30" viewBox="0 0 30 30" fill="none" xmlns="http://www.w3.org/2000/svg">
<g clip-path="url(#clip0)">
<path opacity="0.2" d="M15 29.9153C6.76247 29.9153 0.0847168 23.2375 0.0847168 15C0.0847168 23.2843 6.76247 30 15 30C23.2375 30 29.9152 23.2843 29.9152 15C29.9152 23.2375 23.2375 29.9153 15 29.9153Z" fill="#B71C1C"/>
<path opacity="0.2" d="M15 0.0847501C23.2375 0.0847501 29.9152 6.7625 29.9152 15C29.9152 6.71575 23.2375 0 15 0C6.76247 0 0.0847168 6.71575 0.0847168 15C0.0847168 6.7625 6.76247 0.0847501 15 0.0847501Z" fill="white"/>
<path d="M15 29.9153C23.2374 29.9153 29.9152 23.2375 29.9152 15C29.9152 6.76256 23.2374 0.0847778 15 0.0847778C6.7625 0.0847778 0.0847168 6.76256 0.0847168 15C0.0847168 23.2375 6.7625 29.9153 15 29.9153Z" fill="#F44336"/>
<path d="M29.8819 15.9865L23.9333 10.0379L23.5364 9.641L23.5136 11.7517L20.9549 9.10637H18.6834C18.7449 9.1405 21.9066 12.3081 21.9337 12.3237C21.5403 12.3272 21.0941 12.3304 20.6197 12.3322C20.5983 12.3106 19.0123 10.7241 18.9676 10.6811C18.9242 10.6344 18.8788 10.5905 18.8332 10.5469C17.3423 8.94612 14.5514 9.14437 14.3231 9.14437C11.9362 9.1955 10.7351 9.72837 10.1319 10.2844C10.0838 10.2362 9.20018 9.12237 9.17168 9.09387C8.55331 9.09387 7.06468 9.09387 7.06468 9.09387L3.83618 12.2115C4.02381 12.461 5.36243 14.2376 5.70381 14.5824C5.70431 14.5785 5.70543 14.5745 5.70606 14.5706C5.75693 14.6295 6.84581 15.953 6.96256 16.0697C7.04381 16.1722 7.41893 16.6454 7.88168 17.2156C8.51906 17.993 9.32068 18.95 9.74356 19.3727C9.74431 19.3721 9.74518 19.3715 9.74593 19.3709C9.79193 19.4195 11.1397 20.9069 11.3044 21.0717C12.0813 21.8747 14.9767 25.3386 14.9767 25.3386L14.9876 25.3259C15.1589 25.4972 18.9997 29.3465 19.0171 29.3672C24.9987 27.6984 29.4633 22.3946 29.8819 15.9865Z" fill="url(#paint0_linear)"/>
<path opacity="0.2" d="M7.06472 9.09372C7.06472 9.09372 8.55335 9.09372 9.17172 9.09372C9.21485 9.06422 9.25785 9.03585 9.3006 9.00897C8.7966 9.00897 7.06472 9.00897 7.06472 9.00897L3.8136 12.1812C3.8136 12.1812 3.82197 12.1923 3.83622 12.2113L7.06472 9.09372Z" fill="#BF360C"/>
<path d="M3.83618 12.2114C4.02381 12.4609 5.36243 14.2376 5.70381 14.5823C5.99756 12.5998 7.70793 10.0926 9.1718 9.09369C8.55343 9.09369 7.0648 9.09369 7.0648 9.09369L3.83618 12.2114Z" fill="#FFEB3B"/>
<path opacity="0.2" d="M20.9549 9.10635C20.9549 9.10635 20.9849 9.20348 20.99 9.3591C20.9955 9.15398 20.9549 9.02173 20.9549 9.02173H18.5247C18.5247 9.02173 18.5859 9.0521 18.6834 9.10635H20.9549Z" fill="#BF360C"/>
<path d="M18.6835 9.10632C19.0486 9.30907 19.9538 9.86445 20.3502 10.5878C20.8686 10.1393 20.9818 9.66657 20.9902 9.35907C20.9851 9.20345 20.9551 9.10632 20.9551 9.10632H18.6835Z" fill="#FFEB3B"/>
<path opacity="0.2" d="M14.3231 9.14412C14.6147 9.14412 19.0865 8.82012 19.6913 12.3341C21.7003 12.3341 23.5077 12.3054 23.5077 12.3054L23.5365 9.64112L26.1631 12.2677L26.1863 12.2397L23.5365 9.56224L23.5077 12.2544C23.5077 12.2544 21.7003 12.2835 19.6913 12.2835C19.0865 8.73287 14.6148 9.06024 14.3231 9.06024C9.59446 9.16249 9.51883 11.1767 9.52833 11.4972C9.53746 11.0481 9.82446 9.24049 14.3231 9.14412Z" fill="#BF360C"/>
<path d="M23.5077 12.3053C23.5077 12.3053 21.7003 12.3341 19.6913 12.3341C19.0864 8.82008 14.6148 9.14408 14.3231 9.14408C9.82445 9.24046 9.53745 11.0481 9.52832 11.497C9.52895 11.5183 9.52995 11.5322 9.53007 11.5375C9.59582 13.5783 14.0924 13.4183 14.3627 13.4183C22.2548 12.8653 22.9173 16.1758 22.9173 16.1758L26.1632 12.2676L23.5366 9.64096L23.5077 12.3053Z" fill="#FFEB3B"/>
<path d="M9.74328 19.3728C12.1952 17.3529 14.593 19.5997 14.539 19.9165C17.5818 20.064 20.3333 20.0208 20.4359 18.3626C20.4425 17.6609 19.6364 17.3771 18.2177 17.2156C15.855 16.9493 11.7947 17.0181 6.9624 16.0698C7.04365 16.1723 7.41878 16.6454 7.88153 17.2157C8.51878 17.9929 9.32053 18.9501 9.74328 19.3728Z" fill="#FFEB3B"/>
<path d="M18.4616 21.2341C18.0712 21.3596 15.2794 22.169 11.3043 21.0717C12.0812 21.8747 14.9766 25.3386 14.9766 25.3386L18.4616 21.2341Z" fill="#FFEB3B"/>
</g>
<defs>
<linearGradient id="paint0_linear" x1="8.90711" y1="7.14047" x2="26.4294" y2="24.6628" gradientUnits="userSpaceOnUse">
<stop stop-color="#212121" stop-opacity="0.2"/>
<stop offset="1" stop-color="#212121" stop-opacity="0"/>
</linearGradient>
<clipPath id="clip0">
<rect width="30" height="30" fill="white"/>
</clipPath>
</defs>
</svg>
