<svg width="30" height="30" viewBox="0 0 30 30" fill="none" xmlns="http://www.w3.org/2000/svg">
<circle cx="15" cy="15" r="15" fill="#F3F4FC"/>
<path d="M9.13131 23.059L7.34155 21.1382L8.59022 16.5033L7.67453 14.1649L8.71508 6.27294L11.254 4.51917H18.746L21.285 6.27294L22.3255 14.1649L21.4099 16.5033L22.6585 21.1382L20.8688 23.059L19.9947 17.5472L19.2871 19.0922L15 18.7999L10.7129 19.0922L10.0054 17.5472L9.13131 23.059Z" fill="#002247"/>
<path d="M13.3352 6.27292H16.665V8.31899L19.3704 11.1167L16.1655 13.455L15.0001 12.4946L13.8347 13.455L10.6298 11.1167L13.3352 8.31899V6.27292Z" fill="#A77013"/>
<path d="M14.9999 11.8682L14.1259 12.5363L14.0842 6.73212H15.9156L15.874 12.5363L14.9999 11.8682Z" fill="#E6B80A"/>
<path d="M12.5259 6.2729L10.7963 4.10156H19.204L17.4743 6.2729H12.5259Z" fill="#E6B80A"/>
<path d="M16.8315 12.244L15.9158 13.5802L23.2829 10.8243L20.744 8.65292L20.4526 10.5737L16.8315 12.244Z" fill="#E6B80A"/>
<path d="M13.1685 12.244L14.0842 13.5802L6.7171 10.8243L9.25606 8.65292L9.54741 10.5737L13.1685 12.244Z" fill="#E6B80A"/>
<path d="M16.3735 13.622L15 12.4529V16.1274L17.2892 15.334L16.7065 14.4154L16.3735 14.5824V13.622Z" fill="#5B88C0"/>
<path d="M13.6265 13.622L15 12.4529V16.1274L12.7108 15.334L13.2935 14.4154L13.6265 14.5824V13.622Z" fill="#94B8EC"/>
<path d="M15.9158 14.0813V13.5802L23.2829 10.8243L19.8699 14.4153L20.8688 12.1187L15.9158 14.0813Z" fill="#AA7412"/>
<path d="M14.0842 14.0813V13.5802L6.7171 10.8243L10.1301 14.4153L9.13119 12.1187L14.0842 14.0813Z" fill="#AA7412"/>
<path d="M16.3737 14.5824V13.9001L20.8689 12.1188L19.8699 14.4154L16.998 14.8747L16.7066 14.4154L16.3737 14.5824Z" fill="#00070A"/>
<path d="M13.6265 14.5824V13.9001L9.13127 12.1188L10.1302 14.4154L13.0021 14.8747L13.2935 14.4154L13.6265 14.5824Z" fill="#00070A"/>
<path d="M17.2892 14.2483L17.0394 13.622L19.4951 12.6616L18.9957 13.956L17.2892 14.2483Z" fill="#61F4FC"/>
<path d="M12.7108 14.2483L12.9606 13.622L10.5049 12.6616L11.0043 13.956L12.7108 14.2483Z" fill="#61F4FC"/>
<path d="M15 16.1275L17.2892 15.3342L19.2871 19.0923L16.7065 17.2967L15 17.6725V16.1275Z" fill="#4770A6"/>
<path d="M15 16.1275L12.7108 15.3342L10.7129 19.0923L13.2935 17.2967L15 17.6725V16.1275Z" fill="#4770A6"/>
<path d="M21.2434 14.666L19.2871 19.0922L16.9979 14.8748L19.8699 14.4154L20.7439 13.4968L21.2434 14.666Z" fill="#7F9BCA"/>
<path d="M8.75662 14.666L10.7129 19.0922L13.0021 14.8748L10.1301 14.4154L9.25608 13.4968L8.75662 14.666Z" fill="#7F9BCA"/>
<path d="M14.0845 25.8566L13.9596 19.4261L14.0845 18.2569L15.0001 18.3822L15.9158 18.2569L16.0407 19.4261L15.9158 25.8566H14.0845Z" fill="#617DA5"/>
<path d="M18.1633 25.8984L17.206 25.8566L17.1644 19.3008L16.8314 18.0899L17.7471 18.5075L18.205 19.2591L18.1633 25.8984Z" fill="#617DA5"/>
<path d="M11.8367 25.8984L12.794 25.8566L12.8356 19.3008L13.1686 18.0899L12.2529 18.5075L11.7951 19.2591L11.8367 25.8984Z" fill="#617DA5"/>
<path d="M16.8315 18.0899L15.9158 18.2569L16.0406 19.4261L15.9158 25.8566H17.2061L17.1644 19.3008L16.8315 18.0899Z" fill="#94B8EC"/>
<path d="M13.1685 18.0899L14.0842 18.2569L13.9594 19.4261L14.0842 25.8566H12.7939L12.8356 19.3008L13.1685 18.0899Z" fill="#94B8EC"/>
<path d="M19.1621 24.938L19.287 19.0921L17.7469 18.5075L18.2048 19.2591L18.1632 25.8984L19.1621 24.938Z" fill="#94B8EC"/>
<path d="M10.8379 24.938L10.713 19.0921L12.2531 18.5075L11.7952 19.2591L11.8368 25.8984L10.8379 24.938Z" fill="#94B8EC"/>
<path d="M20.6606 21.7228L19.1622 24.9381L19.2871 19.0922L20.0363 17.3802L20.6606 21.7228Z" fill="#4770A6"/>
<path d="M9.33937 21.7228L10.8378 24.9381L10.7129 19.0922L9.9637 17.3802L9.33937 21.7228Z" fill="#4770A6"/>
<path d="M18.2049 19.2591L19.2871 19.0921L16.8314 18.0899L15 18.3822V19.4261H16.0406L17.1644 19.3008L18.2049 19.2591Z" fill="#4770A6" fill-opacity="0.5"/>
<path d="M11.7951 19.2591L10.7129 19.0921L13.1686 18.0899L15 18.3822V19.4261H13.9594L12.8356 19.3008L11.7951 19.2591Z" fill="#4770A6" fill-opacity="0.5"/>
</svg>
