<svg width="30" height="30" viewBox="0 0 30 30" fill="none" xmlns="http://www.w3.org/2000/svg">
<g clip-path="url(#clip0)">
<path d="M15 30C23.2843 30 30 23.2842 30 15C30 6.71567 23.2843 -6.10352e-05 15 -6.10352e-05C6.71574 -6.10352e-05 0 6.71567 0 15C0 23.2842 6.71574 30 15 30Z" fill="#F3F4FC"/>
<path d="M20.4403 10.0728C18.8298 6.91141 15.1334 7.03074 15.1334 7.03074C15.1334 7.03074 11.4371 6.91141 9.82654 10.0728V15.495H13.3441L14.4519 19.4362H15.5729L17.1898 15.495H20.2417L20.4403 10.0728Z" fill="#FFD24A"/>
<path d="M20.3555 17.5879L19.1427 23.6197L17.446 25.2728L15.3438 25.5597L15.1318 25.5909L14.876 25.5659L12.8425 25.3913L11.1227 23.6177L10.12 17.5879L14.6951 19.4341H15.5746L20.3555 17.5879Z" fill="#F9D9C0"/>
<path d="M7.55155 4.51849C7.55155 4.51849 8.65908 9.7623 12.7727 13.9437C12.7727 13.9437 13.9425 15.0554 14.0837 16.7025L14.6939 19.4362L10.3994 18.0691L11.1227 23.6176L9.47275 21.6512L9.22411 17.5601C9.22411 17.5601 5.66478 15.6765 7.55155 4.51849Z" fill="#464747"/>
<path d="M22.7151 4.51849C22.7151 4.51849 21.6076 9.7623 17.494 13.9437C17.494 13.9437 16.4103 14.9283 16.183 16.7025L15.5728 19.4362L19.8672 18.0691L19.1439 23.6176L20.7939 21.6512L21.0426 17.5601C21.0426 17.5601 24.6019 15.6765 22.7151 4.51849Z" fill="#464747"/>
<path d="M10.2164 15.1825L13.1132 16.1613C13.1132 16.1613 11.3802 18.4468 10.2164 15.1825Z" fill="white"/>
<path d="M20.1653 15.1825L17.2686 16.1613C17.2686 16.1613 19.0016 18.4468 20.1653 15.1825Z" fill="white"/>
<path d="M17.2862 22.2932C17.231 22.2932 17.1759 22.2738 17.1314 22.2348L16.8241 21.9637L13.4176 21.8857L13.1362 22.1361C13.0406 22.222 12.8919 22.2128 12.806 22.1166C12.7201 22.0203 12.729 21.8723 12.8255 21.7864L13.1758 21.4751C13.22 21.4355 13.2888 21.4203 13.3363 21.4161L16.9201 21.4977C16.9755 21.4989 17.0282 21.5196 17.0696 21.5562L17.4409 21.8839C17.5378 21.9692 17.5469 22.1172 17.4616 22.2141C17.4153 22.2664 17.3507 22.2932 17.2862 22.2932Z" fill="#D6B6A1"/>
<path d="M15.8856 23.0132C15.8819 23.0132 15.8782 23.0132 15.8746 23.0132L14.3236 22.9432C14.1948 22.9371 14.0949 22.828 14.1007 22.6989C14.1065 22.5698 14.214 22.4796 14.345 22.4753L15.896 22.5454C16.0248 22.5515 16.1247 22.6605 16.1189 22.7897C16.1134 22.9152 16.0099 23.0132 15.8856 23.0132Z" fill="#D6B6A1"/>
<path d="M15.3439 24.1936V25.5597L15.1319 25.5909L14.8761 25.5659V24.1936C14.8761 24.0626 14.9821 23.9565 15.1069 23.9565C15.2379 23.9565 15.3439 24.0626 15.3439 24.1936Z" fill="#D6B6A1"/>
</g>
<defs>
<clipPath id="clip0">
<rect width="30" height="30" fill="white"/>
</clipPath>
</defs>
</svg>
