<svg width="30" height="30" viewBox="0 0 30 30" fill="none" xmlns="http://www.w3.org/2000/svg">
<g clip-path="url(#clip0)">
<path opacity="0.2" d="M15 30C6.7157 30 0 23.2843 0 14.9999C0 23.3313 6.7157 30.0852 15 30.0852C23.2843 30.0852 30 23.3313 30 14.9999C30 23.2843 23.2843 30 15 30Z" fill="#B71C1C"/>
<path opacity="0.2" d="M15 -3.44142e-05C23.2843 -3.44142e-05 30 6.71567 30 15C30 6.66865 23.2843 -0.0852661 15 -0.0852661C6.7157 -0.0852661 0 6.66865 0 15C0 6.71567 6.7157 -3.44142e-05 15 -3.44142e-05Z" fill="white"/>
<path d="M15 30C23.2843 30 30 23.2842 30 15C30 6.71567 23.2843 -6.10352e-05 15 -6.10352e-05C6.71574 -6.10352e-05 0 6.71567 0 15C0 23.2842 6.71574 30 15 30Z" fill="#F44336"/>
<path d="M29.9632 16.045C29.9441 16.0279 26.2197 12.2708 26.2297 12.2306C25.8133 12.2326 20.1358 12.2956 19.0967 12.2956C18.4429 12.2956 17.6894 13.317 17.2099 14.0954L14.9992 11.8728L13.6984 14.1204L13.1344 14.1223C13.1326 14.1205 13.1308 14.119 13.1291 14.1174C13.0909 14.0773 13.0524 14.0388 13.0136 14.0018C12.9753 13.9617 12.4746 13.461 12.4357 13.4239C12.3974 13.3838 12.0123 12.9987 11.9734 12.9617C11.9351 12.9216 11.8965 12.883 11.8576 12.8459C11.5948 12.5702 11.3137 12.3599 11.0331 12.2953C10.3443 12.2953 4.54068 12.2953 3.76831 12.2953C3.93488 13.0624 4.23847 13.503 4.51868 13.7578C4.55739 13.7999 5.25106 14.4939 5.27068 14.5132C5.37326 14.7899 5.55 15.1453 5.83097 15.3992C5.8673 15.4398 6.71207 16.2844 6.75129 16.3198C6.84092 16.5419 6.96601 16.7174 7.11862 16.8542C7.15495 16.8958 19.5331 29.2696 19.5579 29.2935C25.2957 27.4658 29.534 22.2796 29.9632 16.045Z" fill="url(#paint0_linear)"/>
<path opacity="0.2" d="M12.7732 14.1237L13.6985 14.1206L14.9992 11.8731L16.249 14.1123L17.2015 14.1091C17.6807 13.329 18.4391 12.2958 19.0969 12.2958C20.136 12.2958 25.8133 12.233 26.2299 12.2308C26.2367 12.2042 26.2437 12.1787 26.2502 12.1513C26.0063 12.1513 20.1532 12.2174 19.097 12.2174C18.4394 12.2174 17.6809 13.2671 17.2016 14.0593L16.2491 14.0626L14.9993 11.788L13.6986 14.071L12.7734 14.074C12.3549 13.3389 11.6924 12.3711 11.0334 12.217C10.3399 12.217 4.45448 12.217 3.75 12.217C3.75541 12.2448 3.76257 12.2687 3.76835 12.2956C4.54072 12.2956 10.3445 12.2956 11.0332 12.2956C11.6923 12.4471 12.3549 13.3998 12.7732 14.1237Z" fill="#BF360C"/>
<path d="M9.70335 17.2921C10.3577 17.2692 10.5257 17.7044 10.5257 17.7044C11.326 19.1485 13.2765 22.6679 13.2765 22.6679L14.999 19.4165L16.658 22.6679C16.658 22.6679 18.783 18.9527 19.5425 17.6256C19.5425 17.6256 19.845 17.2953 20.2124 17.2823C20.5797 17.2694 21.26 17.3404 21.7731 17.2704C22.5814 17.158 23.2671 16.7786 23.3344 15.6577C23.3282 15.7338 24.7324 15.7293 24.7543 14.0338C24.7543 14.0338 25.7349 14.193 26.2297 12.2309C25.8133 12.2329 20.1358 12.2959 19.0967 12.2959C18.4391 12.2959 17.6806 13.3292 17.2013 14.1091L16.2488 14.1124L14.999 11.8731L13.6983 14.1207L12.7731 14.1237C12.3546 13.4 11.6921 12.4472 11.0331 12.2957C10.3443 12.2957 4.54068 12.2957 3.76831 12.2957C4.13124 13.9684 5.14798 14.0998 5.14798 14.0998C5.14798 14.0998 5.45698 15.7017 6.61113 15.7181C6.70931 16.7565 7.32164 17.1426 8.06522 17.2702C8.59081 17.3591 9.04903 17.315 9.70335 17.2921Z" fill="#FFEB3B"/>
</g>
<defs>
<linearGradient id="paint0_linear" x1="9.09701" y1="6.96663" x2="26.6711" y2="24.5407" gradientUnits="userSpaceOnUse">
<stop stop-color="#212121" stop-opacity="0.2"/>
<stop offset="1" stop-color="#212121" stop-opacity="0"/>
</linearGradient>
<clipPath id="clip0">
<rect width="30" height="30" fill="white"/>
</clipPath>
</defs>
</svg>
